<svg version="1.2" xmlns="http://www.w3.org/2000/svg" viewBox="0 0 1280 441" width="1280" height="441">
	<style>
		.s0 { opacity: .17;fill: #004aad } 
	</style>
	<g id="Layer 1">
		<path class="s0" d="m1081.79 2069.52c0 0 310.49-139.97 491.25-277.19 131.14-99.55 227.73-400.75 258.39-562.76 35.41-187.17-73.96-372.53-215.93-539.55-64.72-76.14-214.49-252.22-535.74-399.71-79.58-36.54-238.49-371.26-592.38-271.99-196.6 55.16-369.83 129.35-503.32 163.62-133.5 34.27-533.85-108-750.06-103.4-216.22 4.59-565.44 263.9-672.57 497.24-107.14 233.34 109.16 478.07 284.21 558.44 322.71 148.17 707 337.08 848.15 414.35 141.16 77.28 248.62 251.26 407.2 407.17 158.57 155.91 214.12 139.85 442.06 202.97 227.95 63.11 538.74-89.19 538.74-89.19z"/>
	</g>
</svg>