<svg width="731" height="527" viewBox="0 0 731 527" fill="none" xmlns="http://www.w3.org/2000/svg">
<path d="M687.391 330.875C687.391 330.875 719.805 256.956 729.83 204.116C737.103 165.779 706.283 97.4447 685.959 64.0705C662.478 25.5133 613.806 10.2586 562.31 3.40599C538.834 0.282056 484.528 -6.92486 404.584 18.1195C384.782 24.3228 303.683 -9.34905 257.171 64.2983C231.33 105.214 212.626 145.77 194.576 172.992C176.527 200.214 83.4932 238.734 46.1769 273.867C8.86063 309 -11.4256 410.066 6.76476 468.134C24.9551 526.201 101.866 534.928 145.428 521.282C225.735 496.125 323.346 468.36 360.451 459.55C397.557 450.739 444.085 464.294 496.74 466.555C549.394 468.816 556.62 457.174 606.75 432.093C656.879 407.012 687.391 330.875 687.391 330.875Z" fill="#004AAD"/>
</svg>
