<svg width="637" height="513" viewBox="0 0 637 513" fill="none" xmlns="http://www.w3.org/2000/svg">
<path d="M86.1788 417.091C86.1788 417.091 33.2153 350.585 8.73996 299.494C-9.01769 262.426 3.90735 184.531 15.5876 145.063C29.0818 99.4661 74.5166 70.7912 125.096 49.9081C148.154 40.388 201.498 18.3855 289.654 22.2952C311.49 23.2636 384.967 -32.919 452.21 29.5029C489.568 64.182 519.564 100.422 545.292 123.263C571.02 146.105 676.142 160.2 723.623 185.893C771.103 211.586 819.049 309.006 816.21 373.038C813.371 437.07 737.422 466.725 689.386 464.595C600.829 460.669 493.951 458.76 453.793 459.81C413.636 460.86 369.924 487.226 316.926 503.746C263.927 520.267 253.427 510.366 195.615 498.367C137.804 486.369 86.1788 417.091 86.1788 417.091Z" fill="#004AAD"/>
</svg>
