<svg width="281" height="112" viewBox="0 0 281 112" fill="none" xmlns="http://www.w3.org/2000/svg">
<mask id="mask0_1010_2384" style="mask-type:luminance" maskUnits="userSpaceOnUse" x="126" y="18" width="132" height="129">
<path d="M173.396 18.5664L126.693 70.886L211.167 146.293L257.871 93.9735L173.396 18.5664Z" fill="white"/>
</mask>
<g mask="url(#mask0_1010_2384)">
<mask id="mask1_1010_2384" style="mask-type:luminance" maskUnits="userSpaceOnUse" x="141" y="26" width="91" height="114">
<path d="M141.003 32.8703L149.106 139.13L231.874 132.819L223.772 26.5594L141.003 32.8703Z" fill="white"/>
</mask>
<g mask="url(#mask1_1010_2384)">
<mask id="mask2_1010_2384" style="mask-type:luminance" maskUnits="userSpaceOnUse" x="141" y="26" width="91" height="114">
<path d="M141.003 32.8693L149.106 139.129L231.874 132.818L223.772 26.5585L141.003 32.8693Z" fill="white"/>
</mask>
<g mask="url(#mask2_1010_2384)">
<path d="M145.516 85.0385C146.197 86.7676 146.866 88.3315 147.834 89.4562C150.758 92.8792 155.856 94.4549 159.957 95.1743C162.015 95.5335 164.102 95.6075 166.142 95.9513C168.267 96.3057 170.356 96.8455 172.425 97.3368C175.509 98.0505 178.624 98.9451 181.311 100.572C182.095 101.028 182.972 101.394 183.729 101.935C185.582 103.309 187.269 104.912 188.737 106.698C189.686 107.791 190.403 109.118 191.297 110.365C191.67 110.886 191.867 111.503 192.237 111.991C192.797 112.781 193.076 113.825 193.6 114.584L193.806 115.101C194.348 115.875 194.628 116.936 195.19 117.742L197.768 122.307C198.198 122.924 198.405 123.674 198.816 124.259C199.227 124.843 199.372 125.431 199.762 125.968C201.081 127.765 202.221 129.393 203.789 130.522C204.37 130.943 205.017 131.344 205.629 131.73C205.821 131.848 206.091 131.894 206.299 132.012C206.841 132.337 207.427 132.608 208.025 132.812C210.981 133.586 214.091 134.198 217.469 133.957C217.932 133.921 218.287 133.778 218.783 133.724C220.43 133.498 223.033 132.484 224.299 131.405C225.39 130.423 226.3 129.255 226.999 127.953C227.23 127.486 227.443 127.003 227.605 126.508C228.173 125.217 228.619 123.867 228.964 122.492C229.153 121.696 229.422 120.859 229.559 120.033C230.315 115.764 230.209 111.094 229.885 106.407C229.723 104.289 229.279 102.175 229.034 100.046C228.793 97.9832 228.123 95.9698 227.814 93.8793C227.712 93.1878 227.445 92.5255 227.344 91.8673L225.266 84.2514C225.138 83.4455 224.751 82.7425 224.596 82.0217L223.67 79.2622C223.553 78.6049 223.13 77.8551 223.012 77.1814L222.685 76.3904C222.568 75.7335 222.068 75.0723 221.946 74.3328C221.77 73.347 221.114 72.1651 220.706 71.1807C220.468 70.4666 220.184 69.7892 219.818 69.1346C219.575 68.7865 219.481 68.2111 219.275 67.9106C218.9 67.3565 218.778 66.6331 218.457 66.1416C218.137 65.6502 217.905 64.7855 217.532 64.2643L217.051 63.2022C216.548 62.4917 216.225 61.5341 215.723 60.8397L215.251 59.8933L213.446 56.9677L211.169 53.7455C209.288 51.5579 207.62 49.338 205.66 47.423C202.693 44.5363 199.389 42.2576 196.407 39.3887C194.124 37.1817 191.921 35.1356 189.373 33.5989C187.72 32.6592 185.936 31.9795 184.074 31.5721C183.396 31.4075 182.693 31.1445 182.001 31.0147C179.57 30.5839 177.124 30.3706 174.659 30.3588C173.993 30.3599 173.421 30.5031 172.725 30.5396C171.186 30.6572 169.519 31.0673 167.889 31.308C167.264 31.4058 166.787 31.7083 166.147 31.8235C165.378 31.9988 164.616 32.2734 163.892 32.5951L163.166 32.9C162.233 33.5539 161.043 33.8774 160.177 34.5264C158.802 35.4967 157.503 36.5782 156.295 37.7688C155.061 39.0454 154.18 40.594 153.273 42.0114C151.636 44.5669 150.167 47.5755 149.494 50.5237C149.119 52.1672 148.916 53.864 148.643 55.5328C148.532 56.2572 148.603 56.9677 148.476 57.7099C148.335 58.6864 148.26 59.6742 148.235 60.6582C148.226 61.1917 148.36 61.8641 148.3 62.3846L147.685 63.6969C147.332 64.5394 147.031 65.3949 146.782 66.2795C146.717 66.5173 146.536 66.7643 146.471 67.0021C145.997 68.8531 145.457 70.7256 145.118 72.616C144.931 73.6625 144.829 74.7193 144.659 75.764C144.624 76.1827 144.606 76.6007 144.623 77.0323C144.563 78.6516 144.619 80.2623 144.809 81.8788L145.267 84.1748C145.323 84.4701 145.563 84.7849 145.516 85.0385Z" fill="#004AAD"/>
</g>
</g>
</g>
<mask id="mask3_1010_2384" style="mask-type:luminance" maskUnits="userSpaceOnUse" x="38" y="27" width="200" height="204">
<path d="M147.596 27.3633L38.4583 149.624L128.746 230.22L237.883 107.96L147.596 27.3633Z" fill="white"/>
</mask>
<g mask="url(#mask3_1010_2384)">
<mask id="mask4_1010_2384" style="mask-type:luminance" maskUnits="userSpaceOnUse" x="45" y="32" width="185" height="194">
<path d="M143.095 32.2709L45.7695 159.483L132.511 225.846L229.837 98.6346L143.095 32.2709Z" fill="white"/>
</mask>
<g mask="url(#mask4_1010_2384)">
<mask id="mask5_1010_2384" style="mask-type:luminance" maskUnits="userSpaceOnUse" x="38" y="27" width="200" height="204">
<path d="M38.4622 149.628L147.6 27.3672L237.887 107.964L128.75 230.224L38.4622 149.628Z" fill="white"/>
</mask>
<g mask="url(#mask5_1010_2384)">
<mask id="mask6_1010_2384" style="mask-type:luminance" maskUnits="userSpaceOnUse" x="43" y="33" width="187" height="190">
<path d="M146.301 33.3916L43.4878 148.567L126.509 222.677L229.322 107.501L146.301 33.3916Z" fill="white"/>
</mask>
<g mask="url(#mask6_1010_2384)">
<mask id="mask7_1010_2384" style="mask-type:luminance" maskUnits="userSpaceOnUse" x="45" y="32" width="185" height="194">
<path d="M143.095 32.2748L45.7694 159.487L132.511 225.85L229.837 98.6384L143.095 32.2748Z" fill="white"/>
</mask>
<g mask="url(#mask7_1010_2384)">
<mask id="mask8_1010_2384" style="mask-type:luminance" maskUnits="userSpaceOnUse" x="45" y="32" width="185" height="194">
<path d="M45.7421 159.521L143.068 32.309L229.81 98.6726L132.484 225.884L45.7421 159.521Z" fill="white"/>
</mask>
<g mask="url(#mask8_1010_2384)">
<path d="M112.853 72.3803C115.182 69.3365 117.442 66.2393 119.84 63.2478C125.341 56.4882 132.775 51.6461 141.246 49.4622C142.801 49.0065 144.319 48.7425 145.944 48.3398C151.41 46.9286 156.56 47.7967 161.553 50.301C174.126 56.5197 184.413 66.5842 190.862 79.0862C192.933 82.9742 194.793 87.1384 196.513 91.1972C198.865 96.7257 200.15 102.644 200.213 108.726C200.314 112.751 200.293 116.793 200.272 120.835C200.238 128.048 198.917 134.935 194.833 141.133C191.791 145.826 188.941 150.555 185.968 155.3C182.609 160.408 178.228 164.844 173.09 168.262C167.301 172.388 161.357 176.286 155.568 180.412C149.429 184.709 142.329 187.394 134.848 188.142C129.58 188.718 124.265 188.929 119.034 189.314C114.483 189.671 109.952 189.715 105.52 190.491C94.3011 192.109 80.5808 185.67 75.0034 173.177C74.405 171.951 73.9984 170.763 73.6975 169.436C72.2379 161.738 73.0456 153.801 75.9906 146.511C76.0799 146.251 76.1695 145.99 76.3285 145.783C79.1337 142.116 80.291 137.736 81.9689 133.536C84.6652 126.715 87.4302 119.946 90.1429 113.247C91.9104 108.786 93.4178 104.235 95.515 99.917C98.1292 94.3495 101.196 88.9078 104.209 83.5356C105.659 81.3541 107.125 79.295 108.851 77.3252L112.662 72.344L112.8 72.4497L112.853 72.3803Z" fill="#F8EA2B"/>
</g>
</g>
</g>
</g>
</g>
</g>
<mask id="mask9_1010_2384" style="mask-type:luminance" maskUnits="userSpaceOnUse" x="111" y="41" width="162" height="165">
<path d="M198.508 41.6357L111.182 139.462L184.938 205.302L272.264 107.475L198.508 41.6357Z" fill="white"/>
</mask>
<g mask="url(#mask9_1010_2384)">
<mask id="mask10_1010_2384" style="mask-type:luminance" maskUnits="userSpaceOnUse" x="111" y="41" width="179" height="183">
<path d="M111.92 179.72L242.576 223.797L289.367 85.0937L158.711 41.0166L111.92 179.72Z" fill="white"/>
</mask>
<g mask="url(#mask10_1010_2384)">
<mask id="mask11_1010_2384" style="mask-type:luminance" maskUnits="userSpaceOnUse" x="111" y="41" width="179" height="183">
<path d="M111.918 179.719L242.574 223.796L289.365 85.0927L158.709 41.0157L111.918 179.719Z" fill="white"/>
</mask>
<g mask="url(#mask11_1010_2384)">
<path d="M149.908 133.097C180.809 160.774 141.636 167.929 163.65 186.235C185.662 204.542 212.442 186.862 218.488 154.257C222.442 132.884 280.351 111.764 247.942 85.9989C215.533 60.2342 201.561 92.0854 175.418 88.2471C144.308 83.7072 133.943 118.807 149.908 133.097Z" fill="#9AE85D"/>
</g>
</g>
</g>
<mask id="mask12_1010_2384" style="mask-type:luminance" maskUnits="userSpaceOnUse" x="-17" y="50" width="252" height="253">
<path d="M107.516 50.502L-16.0544 188.931L111.383 302.69L234.954 164.261L107.516 50.502Z" fill="white"/>
</mask>
<g mask="url(#mask12_1010_2384)">
<mask id="mask13_1010_2384" style="mask-type:luminance" maskUnits="userSpaceOnUse" x="3" y="76" width="190" height="197">
<path d="M3.34133 237.699L155.587 272.006L192.001 110.406L39.7554 76.0998L3.34133 237.699Z" fill="white"/>
</mask>
<g mask="url(#mask13_1010_2384)">
<mask id="mask14_1010_2384" style="mask-type:luminance" maskUnits="userSpaceOnUse" x="-17" y="50" width="252" height="253">
<path d="M-16.0585 188.929L107.512 50.5L234.95 164.259L111.38 302.688L-16.0585 188.929Z" fill="white"/>
</mask>
<g mask="url(#mask14_1010_2384)">
<mask id="mask15_1010_2384" style="mask-type:luminance" maskUnits="userSpaceOnUse" x="13" y="89" width="185" height="188">
<path d="M111.799 89.5771L13.2021 200.029L98.8572 276.491L197.454 166.038L111.799 89.5771Z" fill="white"/>
</mask>
<g mask="url(#mask15_1010_2384)">
<mask id="mask16_1010_2384" style="mask-type:luminance" maskUnits="userSpaceOnUse" x="3" y="76" width="189" height="197">
<path d="M3.33938 237.694L155.585 272.001L191.999 110.401L39.7535 76.0949L3.33938 237.694Z" fill="white"/>
</mask>
<g mask="url(#mask16_1010_2384)">
<mask id="mask17_1010_2384" style="mask-type:luminance" maskUnits="userSpaceOnUse" x="3" y="76" width="189" height="196">
<path d="M191.98 110.377L39.7339 76.0705L3.31985 237.67L155.565 271.976L191.98 110.377Z" fill="white"/>
</mask>
<g mask="url(#mask17_1010_2384)">
<path d="M154.677 167.308C116.651 139.775 159.906 127.131 132.983 109.104C106.059 91.0777 77.9874 114.117 75.0026 151.527C73.0561 176.048 10.3466 206.606 49.846 231.81C89.3451 257.014 101.341 219.525 131.218 220.782C166.768 222.247 174.323 181.523 154.677 167.308Z" fill="#9AE85D"/>
</g>
</g>
</g>
</g>
</g>
</g>
<mask id="mask18_1010_2384" style="mask-type:luminance" maskUnits="userSpaceOnUse" x="127" y="30" width="75" height="76">
<path d="M168.146 30.8535L127.929 75.9065L161.356 105.745L201.573 60.692L168.146 30.8535Z" fill="white"/>
</mask>
<g mask="url(#mask18_1010_2384)">
<mask id="mask19_1010_2384" style="mask-type:luminance" maskUnits="userSpaceOnUse" x="130" y="32" width="71" height="76">
<path d="M155.893 32.6234L129.999 85.5265L174.946 107.526L200.84 54.6228L155.893 32.6234Z" fill="white"/>
</mask>
<g mask="url(#mask19_1010_2384)">
<mask id="mask20_1010_2384" style="mask-type:luminance" maskUnits="userSpaceOnUse" x="130" y="32" width="71" height="76">
<path d="M155.895 32.6234L130.001 85.5265L174.948 107.526L200.842 54.6228L155.895 32.6234Z" fill="white"/>
</mask>
<g mask="url(#mask20_1010_2384)">
<path fill-rule="evenodd" clip-rule="evenodd" d="M190.88 66.2757C190.899 66.0755 191.003 65.9436 191.081 65.8644C191.206 65.7425 191.551 65.545 191.947 65.8567C192.201 66.0596 192.998 67.0768 193.342 68.0561C193.605 68.7994 193.58 69.519 193.201 69.974C192.941 70.2913 192.486 70.5263 191.735 70.5116C191.204 70.5003 190.709 70.2838 190.338 69.9191C188.898 68.5348 189.561 66.8591 190.445 66.4155C190.597 66.3463 190.738 66.2978 190.88 66.2757ZM191.329 69.0969C191.292 69.0657 191.255 69.0348 191.229 69.0086C190.768 68.5608 190.685 68.0626 190.85 67.7251C190.907 67.6094 190.974 67.4985 191.074 67.508C191.126 67.5077 191.18 67.5596 191.232 67.6118C191.328 67.7105 191.403 67.8518 191.472 68.0298C191.579 68.2915 191.466 68.5236 191.41 68.7447C191.374 68.871 191.344 68.9866 191.329 69.0969ZM192.501 54.976C192.588 54.6655 192.691 54.4545 192.8 54.3119C193.018 54.0267 193.269 53.9404 193.522 53.9328C193.742 53.9365 194 54.0236 194.239 54.258C194.504 54.5181 194.786 55.0357 195.017 55.6848C195.394 56.732 195.626 58.1272 195.492 59.0416C195.393 59.7253 195.087 60.1903 194.663 60.3878C194.26 60.57 193.672 60.5697 192.88 60.0251C192.363 59.6671 191.605 58.8912 191.084 58.0867C190.7 57.4805 190.453 56.8629 190.46 56.3694C190.472 55.3033 190.888 54.8532 191.259 54.7085C191.584 54.5796 192.042 54.6598 192.501 54.976ZM182.406 72.0506L182.415 72.0294C182.54 71.8287 182.759 71.6745 183.095 71.682C183.4 71.7008 183.98 71.9848 184.16 72.0986C186.009 73.3695 187.35 76.1048 185.376 78.028C185.147 78.2559 184.859 78.3894 184.55 78.4602C184.519 78.5498 184.462 78.6393 184.405 78.7291C184.213 79.0145 183.815 79.0809 183.529 78.8893C183.365 78.7695 183.264 78.5762 183.263 78.3924C183.089 78.3467 182.91 78.2851 182.762 78.2126C182.177 77.9658 181.663 77.387 181.305 76.6497C180.813 75.6509 180.582 74.387 180.732 73.4932C180.847 72.8043 181.174 72.3235 181.634 72.1307C181.838 72.0342 182.101 72.0059 182.406 72.0506ZM184.625 74.3264C184.886 74.7287 185.068 75.1579 185.103 75.5935C185.138 76.0291 185.043 76.4657 184.725 76.8731C184.814 76.1314 184.837 75.1754 184.625 74.3264ZM191.738 55.9752C191.769 55.9906 191.807 56.0219 191.833 56.048C192.002 56.1829 192.177 56.36 192.336 56.5685C192.771 57.1215 193.172 57.8537 193.324 58.4774C193.362 58.6133 193.379 58.7394 193.385 58.8603C192.983 58.5327 192.469 57.9805 192.107 57.4109C191.868 57.0455 191.676 56.6899 191.689 56.3957C191.703 56.2329 191.723 56.0856 191.738 55.9752ZM193.433 55.9293C193.522 55.8549 193.595 55.7598 193.641 55.6386C193.807 55.9943 193.958 56.4607 194.078 56.9373C193.885 56.5821 193.662 56.2373 193.433 55.9293ZM183.452 77.1252C183.383 77.1048 183.32 77.0737 183.262 77.0585C182.919 76.9038 182.643 76.5334 182.429 76.0888C182.055 75.3305 181.858 74.3712 181.967 73.6926C181.982 73.5823 182.008 73.4768 182.049 73.3926C182.07 73.3503 182.085 73.2925 182.127 73.2868C182.179 73.2602 182.258 73.2861 182.332 73.322C182.464 73.3734 182.611 73.4456 182.775 73.565C183.108 73.7933 183.279 74.1649 183.388 74.5839C183.589 75.3489 183.549 76.2577 183.46 76.894C183.461 76.9728 183.451 77.0464 183.452 77.1252ZM174.874 79.3717C175.241 79.2637 175.638 79.1451 176.027 79.1261C176.489 79.0905 176.941 79.1551 177.337 79.388C177.738 79.6101 178.088 79.9908 178.34 80.6239C178.936 82.1313 178.242 83.361 177.082 84.0483C175.995 84.6927 174.489 84.8316 173.366 84.2685C171.757 83.4684 171.205 82.0863 171.138 80.4068C171.099 79.5248 171.378 79.0077 171.738 78.7263C172.119 78.4288 172.665 78.3561 173.281 78.5401C173.765 78.6726 174.324 78.9724 174.874 79.3717ZM183.721 56.8884C183.441 56.7125 183.354 56.3298 183.535 56.0396C183.717 55.749 184.104 55.6513 184.395 55.8328C185.371 56.4283 186.624 57.3944 187.28 58.5389C187.781 59.4119 187.947 60.3817 187.514 61.3727C187.261 61.9684 186.986 62.3175 186.647 62.5567C186.313 62.7851 185.889 62.9042 185.269 62.9673C183.721 63.1117 182.842 62.2894 182.408 61.2008C182.021 60.2273 182.053 59.0138 182.309 58.1713C182.426 57.7712 182.607 57.4548 182.8 57.2481C183.013 57.0259 183.254 56.9085 183.501 56.8854C183.569 56.8795 183.647 56.8787 183.721 56.8884ZM176.032 80.3701C176.284 80.3367 176.526 80.3506 176.737 80.4801C176.922 80.5834 177.06 80.7818 177.178 81.0752C177.328 81.4362 177.325 81.7618 177.233 82.0563C177.04 81.5697 176.631 80.99 176.101 80.4433L176.032 80.3701ZM175.626 83.2833C175.05 83.4191 174.44 83.3826 173.923 83.1296C172.779 82.5562 172.44 81.5406 172.382 80.3487C172.375 80.1757 172.385 80.0232 172.405 79.9021C172.42 79.8181 172.44 79.7496 172.482 79.7179C172.586 79.6382 172.744 79.6895 172.913 79.7457C173.129 79.8119 173.355 79.9099 173.592 80.0393C173.552 80.15 173.547 80.2655 173.58 80.3859C173.662 80.7266 174.005 80.9338 174.335 80.8471C174.424 80.8252 174.502 80.7985 174.607 80.771C174.808 80.9479 175.004 81.1355 175.179 81.3125C175.524 81.677 175.82 82.058 175.986 82.3871C176.018 82.4554 176.051 82.5499 176.067 82.623C175.784 82.6937 175.592 82.9791 175.626 83.2833ZM184.598 57.4746C185.068 57.8225 185.528 58.2441 185.89 58.7083C186.389 59.345 186.694 60.0825 186.365 60.8625C186.324 60.947 186.293 61.0367 186.256 61.1102C185.944 60.1992 185.368 59.1327 185.03 58.2744C184.88 57.9396 184.736 57.6733 184.598 57.4746ZM183.602 58.2813C183.676 58.3963 183.777 58.5634 183.847 58.7413C184.212 59.652 184.873 60.8124 185.112 61.7134C183.616 61.8312 183.283 60.3218 183.384 59.2075C183.402 58.9026 183.462 58.6186 183.545 58.3974C183.565 58.3554 183.586 58.3128 183.602 58.2813ZM165.187 87.0634C165.207 87.0214 165.239 86.9843 165.265 86.9579C165.566 86.6086 166.164 86.4565 166.874 86.6605C167.622 86.8693 168.535 87.4343 169.141 88.2276C169.794 89.0829 170.091 90.1571 169.56 91.2699C169.173 92.0871 168.641 92.4801 168.074 92.5951C167.535 92.7099 166.924 92.568 166.344 92.2317C165.368 91.6623 164.418 90.5307 163.937 89.537C163.723 89.0924 163.599 88.6787 163.58 88.3429C163.567 87.996 163.638 87.7171 163.794 87.5062C163.965 87.263 164.236 87.0822 164.635 87.0418C164.772 87.004 164.966 87.0078 165.187 87.0634ZM178.987 68.9655C178.961 69.0178 178.93 69.055 178.904 69.1077C178.717 69.3823 178.34 69.459 178.06 69.2832C177.562 69.366 177.047 69.3757 176.643 69.3999C174.979 69.5138 173.777 68.9255 173.029 68.1022C172.155 67.1378 171.892 65.8589 172.199 64.8582C172.182 64.7847 172.176 64.7167 172.186 64.643C172.378 63.1291 173.617 62.3885 175.171 62.3388C176.389 62.3071 177.784 62.7154 178.804 63.4371C179.543 63.9556 180.084 64.6391 180.291 65.42C180.6 66.5781 180.344 67.368 179.669 68.3451C179.483 68.6197 179.253 68.8211 178.987 68.9655ZM167.339 88.2217C167.466 88.3361 167.577 88.4561 167.689 88.5758C168.177 89.1281 168.271 89.6843 168.58 90.2539C168.678 89.413 168.02 88.6725 167.339 88.2217ZM164.845 88.2688C164.871 88.2687 164.908 88.2736 164.929 88.2842C164.977 88.294 165.024 88.3041 165.082 88.3197C165.131 88.4874 165.2 88.665 165.291 88.8532C165.441 89.162 165.82 89.2955 166.129 89.1456C166.212 89.1082 166.275 89.0601 166.332 88.997C166.491 89.1267 166.629 89.2725 166.756 89.4135C167.174 89.893 167.221 90.3866 167.493 90.8724C167.541 90.961 167.575 91.213 167.586 91.2969L167.581 91.3077C167.575 91.3181 167.57 91.3285 167.581 91.3339L167.571 91.3547C167.376 91.325 167.181 91.2428 166.975 91.1288C166.458 90.8233 165.96 90.318 165.567 89.7858C165.275 89.3944 165.045 88.9813 164.927 88.6098C164.873 88.505 164.851 88.3634 164.845 88.2688ZM176.18 63.6953C176.848 63.8265 177.527 64.0939 178.072 64.4777C178.558 64.8203 178.94 65.2423 179.081 65.7557C179.194 66.1906 179.176 66.548 179.058 66.8956C178.972 66.6704 178.871 66.4508 178.738 66.2154C178.12 65.181 177.071 64.1975 176.18 63.6953ZM183.996 47.2445C184.017 47.2022 184.048 47.1651 184.074 47.1387C184.163 47.0383 184.288 46.9426 184.461 46.9096C184.592 46.8823 184.823 46.8911 185.097 46.9988C185.44 47.1273 185.888 47.3858 186.068 47.5003C187.23 48.3041 187.29 49.7845 186.711 50.8347C186.297 51.5733 185.576 52.0571 184.772 52.0168C184.289 51.9893 183.756 51.7679 183.227 51.2212C182.713 50.6953 182.183 49.455 182.101 48.5525C182.043 47.8703 182.28 47.3587 182.646 47.1456C182.928 46.9962 183.379 46.9295 183.996 47.2445ZM178.002 68.0125C177.944 68.0235 177.897 68.04 177.839 68.051C177.394 68.1332 176.911 68.1323 176.543 68.1616C175.74 68.2263 175.077 68.0585 174.565 67.7685C173.758 67.308 173.331 66.4978 173.304 65.7785C173.284 65.3639 173.392 64.9846 173.668 64.7409C173.986 64.4652 174.484 64.4083 175.158 64.6075C175.911 64.832 177.038 65.815 177.629 66.8499C177.869 67.2419 178.046 67.6553 178.002 68.0125ZM185.357 48.5248C185.679 48.7478 185.813 49.0619 185.826 49.3821C185.708 49.089 185.538 48.7965 185.357 48.5248ZM183.37 48.3367C183.476 48.3883 183.602 48.4502 183.719 48.5336C184.062 48.7667 184.514 49.4195 184.745 50.0427C184.81 50.2311 184.853 50.4091 184.865 50.5718C184.86 50.6348 184.866 50.7031 184.84 50.7558C184.614 50.737 184.392 50.602 184.138 50.347C183.842 50.0448 183.563 49.4118 183.427 48.8351C183.394 48.6884 183.377 48.4835 183.37 48.3367ZM157.732 91.7167C157.825 91.5268 157.976 91.4047 158.139 91.3399C158.374 91.2332 158.763 91.2405 159.18 91.5099C159.697 91.8417 160.366 92.6395 160.625 93.4986C160.814 94.1531 160.783 94.8313 160.379 95.4174C160.026 95.9245 159.634 96.1906 159.231 96.2937C158.812 96.4023 158.381 96.3483 157.954 96.1522C156.989 95.6929 156.048 94.3827 155.65 93.299C155.43 92.7075 155.368 92.167 155.465 91.8355C155.546 91.5355 155.707 91.3397 155.948 91.2223C156.24 91.078 156.792 91.0468 157.584 91.5916C157.616 91.607 157.669 91.6593 157.732 91.7167ZM164.805 69.9729C164.8 69.9574 164.789 69.926 164.789 69.8997C164.734 69.5589 164.946 69.2316 165.292 69.1655C167.589 68.7465 169.673 69.8057 170.459 71.4585C170.993 72.5833 170.963 74.0065 169.962 75.4646L169.952 75.4854C169.895 75.6018 169.817 75.7335 169.719 75.855C169.505 76.1039 169.213 76.3269 169.213 76.3269C168.984 76.502 168.663 76.4888 168.441 76.3017C168.116 76.4305 167.744 76.4965 167.292 76.511C164.341 76.5571 161.921 73.5686 163.867 70.7423C164.121 70.357 164.439 70.1075 164.805 69.9729ZM158.497 92.7182C158.544 92.7021 158.581 92.6808 158.617 92.6595C158.654 92.6908 158.691 92.722 158.728 92.7532C158.998 93.003 159.259 93.379 159.399 93.7871C159.48 94.023 159.513 94.2748 159.452 94.5063C159.441 94.4749 159.431 94.4435 159.42 94.4121C159.248 93.9617 158.875 93.2822 158.497 92.7182ZM168.702 74.2725C168.646 74.5198 168.527 74.7361 168.355 74.9001C168.116 75.1229 167.76 75.2361 167.26 75.2405C165.286 75.2679 163.584 73.3231 164.886 71.4373C165.156 71.0464 165.539 71.0378 165.945 71.1974C165.914 71.2871 165.894 71.3815 165.874 71.4763C165.798 71.8185 166.016 72.1474 166.358 72.2233C166.632 72.2788 166.904 72.1506 167.033 71.9128C167.636 72.4435 168.183 73.1428 168.509 73.8118C168.594 73.9845 168.654 74.131 168.702 74.2725ZM156.794 92.5648C156.805 92.5699 156.825 92.5802 156.836 92.5853L156.857 92.5959C156.879 92.6321 157.346 93.2008 157.628 93.6659C157.868 94.0575 158.13 94.6173 158.242 94.8424L158.205 94.8111C157.814 94.515 157.458 94.04 157.18 93.5646C157.005 93.2562 156.87 92.8371 156.778 92.5438L156.794 92.5648ZM171.707 53.2829C171.805 53.1086 171.93 52.987 172.071 52.8857C172.436 52.6463 173.019 52.6311 173.668 52.9353C174.564 53.3479 175.638 54.3312 176.141 55.3615C176.435 55.9633 176.534 56.5872 176.371 57.1348C176.202 57.6927 175.776 58.2164 174.912 58.5649L174.876 58.5865C174.805 58.8391 174.702 59.076 174.546 59.2877C174.354 59.5727 173.955 59.6391 173.67 59.4471C173.454 59.3021 173.362 59.0351 173.413 58.7981C172.625 58.7785 171.783 58.5494 171.086 58.1563C169.809 57.4267 169 56.1676 169.611 54.5454C169.868 53.8605 170.269 53.4945 170.714 53.3331C171.007 53.2155 171.354 53.2015 171.707 53.2829ZM173.094 54.0535C173.147 54.0794 173.189 54.1 173.242 54.1256C173.4 54.2032 173.558 54.3067 173.722 54.4264C174.214 54.7846 174.701 55.3111 174.979 55.8387C175.171 56.1943 175.279 56.561 175.124 56.8774C175.077 56.9723 175.01 57.057 174.911 57.1259C174.889 57.0369 174.867 56.9478 174.846 56.8591C174.58 55.8266 173.877 54.7508 173.094 54.0535ZM173.712 57.5459C173.056 57.5777 172.309 57.3951 171.712 57.0641C170.968 56.6344 170.437 55.9298 170.792 54.9921C170.889 54.7394 170.998 54.5701 171.155 54.5164C171.438 54.4196 171.754 54.6007 172.087 54.8553C172.774 55.3742 173.418 56.3038 173.646 57.1997C173.673 57.3049 173.69 57.4303 173.712 57.5459ZM172.494 45.8504C172.415 45.8249 172.346 45.7783 172.283 45.7209C171.96 45.4189 171.958 45.1041 172.024 44.8881C172.095 44.6617 172.35 44.3549 172.885 44.2771C173.614 44.1764 175.234 44.4197 176.432 45.1501C177.224 45.6422 177.829 46.3304 177.994 47.2218C178.098 47.8094 178.025 48.4926 177.638 49.2833C177.324 49.9267 176.957 50.0347 176.322 50.1556C174.943 50.4089 173.956 49.8084 173.303 48.9265C172.708 48.1121 172.431 47.0485 172.451 46.2864C172.444 46.1396 172.464 45.9923 172.494 45.8504ZM155.6 78.6845C156.174 78.2333 157.023 78.1002 157.913 78.3132C159.202 78.6173 160.555 79.6192 160.976 81.0283C161.257 81.9767 161.146 83.1118 160.295 84.3428C159.72 85.1721 158.818 85.3321 157.889 85.4134C153.896 85.7729 151.819 82.9914 152.053 80.9623C152.166 79.9845 152.768 79.1284 153.93 78.7304C154.48 78.5678 155.032 78.5635 155.6 78.6845ZM174.826 45.7886C175.173 45.9063 175.526 46.0665 175.843 46.2736C176.26 46.5433 176.615 46.8867 176.745 47.3425C176.853 47.7358 176.789 48.1878 176.52 48.736C176.428 48.9261 176.285 48.8958 176.097 48.9341C176.081 48.9394 176.055 48.9399 176.039 48.9452C176.058 48.7457 175.989 48.5411 175.835 48.4006C175.808 48.3482 175.685 48.0396 175.609 47.8195C175.399 47.1284 175.176 46.2744 174.937 45.9346C174.889 45.8723 174.857 45.8303 174.826 45.7886ZM157.303 79.4789C157.413 79.4939 157.524 79.5085 157.629 79.5339C158.523 79.7364 159.485 80.4162 159.766 81.3903C159.864 81.726 159.882 82.0881 159.791 82.4877C159.764 82.4094 159.727 82.3256 159.69 82.2418C159.272 81.358 158.37 80.2366 157.303 79.4789ZM158.534 84.0947C158.288 84.1444 158.031 84.1623 157.773 84.18C155.213 84.4175 153.61 83.0707 153.325 81.7024C153.167 80.9578 153.486 80.2252 154.329 79.9453C154.513 79.8908 154.696 79.8632 154.88 79.8619C154.829 80.0723 154.81 80.3243 154.823 80.592C154.836 80.9386 155.123 81.2093 155.469 81.1958C155.815 81.1825 156.086 80.8963 156.072 80.5501C156.066 80.4292 156.076 80.3293 156.086 80.2297C156.935 80.6845 157.703 81.4659 158.192 82.2021C158.389 82.4944 158.539 82.7767 158.64 83.0229C158.667 83.1012 158.689 83.1902 158.706 83.2641C158.507 83.402 158.388 83.6445 158.433 83.9014C158.459 83.9541 158.486 84.0324 158.534 84.0947ZM148.306 89.3125C148.356 88.9971 148.496 88.7911 148.663 88.6634C148.83 88.536 149.045 88.4713 149.302 88.4796C149.591 88.5033 149.981 88.6681 150.425 88.9899C151.382 89.7067 152.623 91.2296 153.092 92.5959C153.48 93.7273 153.352 94.763 152.501 95.4054C152.188 95.6445 151.753 95.7321 151.217 95.6265C150.37 95.4603 149.203 94.7719 148.203 93.9029C147.352 93.1593 146.614 92.2886 146.287 91.5404C145.977 90.8395 145.993 90.2198 146.304 89.7707C146.574 89.3798 146.903 89.188 147.26 89.127C147.585 89.0769 147.932 89.1424 148.306 89.3125ZM163.254 57.8918C163.795 56.6794 164.611 56.2683 165.383 56.2933C166.491 56.3257 167.693 57.4238 168.157 58.8796C168.518 60.0371 168.446 61.3876 167.515 62.4873C167.303 63.4819 166.663 64.2017 165.513 64.1746C165.371 64.1706 164.965 64.0635 164.55 63.9517C164.219 63.9334 163.871 63.8416 163.518 63.6821C162.168 63.0476 161.377 62.0195 161.222 61.002C161.055 59.9268 161.544 58.7938 162.956 58.0202C163.055 57.9775 163.154 57.9348 163.254 57.8918ZM173.744 46.4489C173.792 46.5119 173.829 46.5694 173.887 46.6368C173.956 46.736 174.021 46.9246 174.086 47.1392C174.21 47.527 174.329 47.9773 174.448 48.3492C174.236 48.1147 174.081 47.8432 173.958 47.5608C173.819 47.2309 173.768 46.7743 173.744 46.4489ZM149.289 90.0288C149.352 89.9808 149.409 89.9176 149.456 89.849L149.466 89.8541C149.709 89.999 149.984 90.238 150.275 90.5247C151.012 91.2641 151.788 92.3495 152 93.3039C152.05 93.5238 152.078 93.7337 152.042 93.9126C151.892 93.5778 151.669 93.1543 151.386 92.6893C150.822 91.7855 150.052 90.7418 149.289 90.0288ZM150.763 94.1495C150.204 93.8757 149.591 93.4453 149.03 92.9613C148.327 92.3427 147.712 91.649 147.439 91.0318C147.38 90.9115 147.347 90.7908 147.325 90.6755C147.309 90.6023 147.303 90.5339 147.345 90.476C147.381 90.4281 147.412 90.3913 147.449 90.37C147.543 90.3374 147.638 90.3839 147.754 90.441C148.018 90.5699 148.298 90.7989 148.568 91.0746C149.405 91.9026 150.235 93.1719 150.688 94.0082C150.715 94.0603 150.747 94.1022 150.763 94.1495ZM163.839 62.4398C162.915 61.9488 162.373 61.2129 162.462 60.4719C162.515 59.9618 162.889 59.4916 163.564 59.1283C163.94 58.9204 164.46 58.9269 164.879 58.8442C165.063 58.8166 165.226 58.936 165.38 59.1028C165.793 59.5142 166.104 60.2151 166.246 60.9124C166.318 61.2476 166.352 61.5784 166.329 61.8937C166.13 62.0845 165.901 62.2595 165.618 62.4093C165.279 62.5956 164.964 62.7034 164.639 62.701C164.281 62.5781 163.923 62.4549 163.839 62.4398ZM165.1 57.5924C165.131 57.5818 165.163 57.571 165.194 57.5604C165.514 57.4948 165.825 57.6597 166.121 57.9094C166.444 58.1852 166.72 58.5818 166.887 59.0426C166.706 58.7187 166.493 58.4316 166.276 58.2075C165.916 57.8479 165.51 57.6365 165.1 57.5924ZM151.354 66.0171L151.39 65.943C151.975 64.935 152.888 64.1923 153.916 64.0155C154.231 63.9606 154.556 63.963 154.882 64.0176C155.022 63.7853 155.199 63.6368 155.388 63.5726C155.733 63.4277 156.227 63.4866 156.724 63.8602C157.464 64.4058 158.341 65.6849 158.615 67.074C158.841 68.1907 158.703 69.3788 157.892 70.3151C157.454 71.3165 156.563 72.0697 155.245 72.1179C153.324 72.1972 152.111 71.5771 151.426 70.7061L151.41 70.6851C150.495 70.0154 149.921 69.1065 149.908 68.2243C149.918 67.4837 150.304 66.6665 151.354 66.0171ZM152.302 66.9123C152.506 66.8158 152.736 66.7196 153.003 66.628C154.412 66.1536 155.432 66.3134 156.098 66.8486C156.183 66.9159 156.257 66.9784 156.326 67.0513C156.415 67.6704 156.274 68.3332 155.942 68.8243C155.75 69.1097 155.821 69.4978 156.102 69.7002C156.276 69.8247 156.491 69.8388 156.68 69.7738C156.57 69.8643 156.445 69.9596 156.314 70.0394C155.029 70.8224 153.43 70.5106 152.337 69.8055L152.326 69.8004C151.789 68.9753 151.869 67.8508 152.302 66.9123ZM162.188 44.9245C162.209 44.8819 162.224 44.8503 162.25 44.8239C162.385 44.6287 162.605 44.5007 162.899 44.4877C163.156 44.4698 163.566 44.5923 164.02 44.8667C164.812 45.3587 165.834 46.3427 166.294 47.3524C166.664 48.1739 166.687 49.0083 166.173 49.7112C165.871 50.113 165.381 50.4746 164.611 50.7382C163.113 51.2341 162.011 50.629 161.314 49.6216C160.676 48.7078 160.424 47.4337 160.563 46.5082C160.682 45.6775 161.113 45.1171 161.711 44.965C161.841 44.9115 162.004 44.8995 162.188 44.9245ZM164.5 46.9054C164.717 47.1555 164.914 47.4219 165.058 47.6883C165.266 48.0649 165.39 48.4523 165.246 48.8004C165.158 49.0058 164.976 49.1913 164.699 49.3303C164.775 48.9881 164.803 48.6361 164.779 48.2582C164.744 47.8752 164.662 47.3766 164.5 46.9054ZM163.262 49.5943C162.883 49.4871 162.566 49.2272 162.337 48.8932C161.896 48.2456 161.7 47.365 161.783 46.7132C161.803 46.5659 161.838 46.4396 161.88 46.3291C161.916 46.255 161.936 46.1865 161.999 46.1654C162.067 46.1332 162.152 46.1746 162.262 46.2155C162.488 46.3135 162.748 46.5053 163.039 46.7919C163.155 46.9012 163.236 47.0842 163.306 47.2622C163.44 47.6288 163.496 48.0484 163.514 48.3582C163.555 48.8094 163.48 49.2303 163.262 49.5943ZM143.141 79.6986C143.235 79.6138 143.371 79.5495 143.581 79.548C143.807 79.5406 144.622 79.6648 145.169 80.3116C145.508 80.7131 145.76 81.3203 145.626 82.235C145.562 82.7399 145.402 83.1195 145.158 83.4048C144.945 83.6534 144.657 83.8398 144.275 83.9531C144.181 84.0642 144.046 84.1547 143.888 84.1825C143.7 84.2205 143.515 84.1697 143.378 84.0501C142.511 84.005 141.813 83.5066 141.33 82.8384C140.777 82.0714 140.522 81.0703 140.569 80.3609C140.625 79.6304 140.999 79.1599 141.513 79.0455C141.864 78.969 142.438 79.0796 143.141 79.6986ZM144.04 80.9883C144.14 81.0504 144.225 81.1442 144.289 81.2538C144.39 81.4471 144.418 81.7096 144.38 82.0568C144.365 82.193 144.34 82.3248 144.293 82.4197C144.286 82.2204 144.269 82.0155 144.247 81.8214C144.202 81.538 144.142 81.2605 144.04 80.9883ZM141.844 80.3189C141.865 80.3288 141.886 80.3394 141.907 80.3497C142.06 80.438 142.225 80.557 142.415 80.7551C142.902 81.229 142.98 81.7639 143.022 82.2938C143.028 82.441 143.039 82.5774 143.046 82.7242C142.851 82.642 142.677 82.5175 142.523 82.3507C142.163 81.9649 141.927 81.4315 141.844 80.9596C141.806 80.7445 141.829 80.4555 141.844 80.3189ZM144.088 79.8743C144.141 79.9787 144.174 80.0733 144.175 80.178C144.181 80.2726 144.145 80.3727 144.104 80.4569C144.191 80.2777 144.19 80.0676 144.088 79.8743ZM152.461 52.1647C152.522 51.9066 152.734 51.6317 153.207 51.5753C153.579 51.5353 154.284 51.6449 154.917 52.0072C155.571 52.3797 156.123 52.9898 156.22 53.8604C156.396 55.529 155.884 56.4156 155.173 56.8261C154.698 57.1031 154.1 57.1764 153.448 57.0665C152.669 57.6139 151.774 57.8681 151.021 57.6962C150.19 57.4985 149.428 56.8114 149.147 55.328C149.092 55.0131 149.284 54.7014 149.588 54.6152C149.556 54.5732 149.519 54.5157 149.487 54.4744C149.029 53.7798 149.061 53.2333 149.279 52.8427C149.413 52.5949 149.648 52.3828 149.977 52.2435C150.317 52.0828 150.784 52.0105 151.288 52.022C151.672 52.0137 152.071 52.0783 152.461 52.1647ZM141.956 67.5091C142.029 67.4666 142.108 67.4399 142.208 67.4231C143.041 67.2691 143.873 67.5456 144.566 68.1069C145.518 68.8604 146.227 70.1093 146.42 71.2369C146.569 72.1073 146.387 72.9072 145.882 73.4313C145.533 73.7964 145.021 74.0427 144.302 74.0694C142.422 74.1433 140.966 73.3258 140.226 72.1403C139.459 70.9283 139.414 69.3113 140.478 67.7793C140.716 67.4255 141.056 67.291 141.482 67.3558C141.63 67.3757 141.787 67.4267 141.956 67.5091ZM154.465 53.1976C154.719 53.3743 154.931 53.6351 154.976 53.9973L154.976 54.0232C154.879 53.7145 154.698 53.4428 154.465 53.1976ZM153.142 55.7142C153.074 55.6935 153.01 55.6624 152.942 55.642C151.999 55.2721 151.026 54.5346 150.531 53.7825C150.478 53.7043 150.435 53.631 150.409 53.5523C150.392 53.5054 150.366 53.4793 150.381 53.4478C150.412 53.3844 150.496 53.3732 150.575 53.3462C150.774 53.2867 151.01 53.2585 151.273 53.2564C151.987 53.2661 152.856 53.4951 153.394 53.9159C153.595 54.0665 153.744 54.244 153.793 54.4639C153.832 54.6787 153.755 54.9161 153.573 55.1801C153.449 55.3808 153.309 55.5602 153.142 55.7142ZM144.37 72.8087C144.344 72.8088 144.301 72.8146 144.264 72.8096C142.915 72.8683 141.839 72.3152 141.291 71.4587C140.801 70.67 140.782 69.6406 141.404 68.6379C141.525 68.7102 141.726 68.8346 141.874 68.9596C142.742 69.7239 143.778 71.186 144.227 72.1377C144.302 72.3052 144.372 72.5094 144.394 72.5985C144.368 72.6774 144.364 72.7403 144.37 72.8087ZM143.554 68.9189C143.633 68.9706 143.723 69.0278 143.797 69.09C144.437 69.5994 144.937 70.4196 145.133 71.195C144.738 70.479 144.159 69.6334 143.554 68.9189ZM150.51 55.5893C150.906 55.9272 151.345 56.2334 151.809 56.487C151.636 56.5201 151.479 56.521 151.316 56.4807C150.952 56.3942 150.687 56.1077 150.51 55.5893ZM145.137 59.2217C145.251 59.0946 145.512 58.935 145.907 59.0103C146.196 59.0603 146.697 59.266 147.146 59.6302C147.606 59.9989 148.015 60.5258 148.126 61.1815C148.22 61.7373 148.126 62.384 147.622 63.1183C147.176 63.7627 146.674 64.0401 146.192 64.1177C145.699 64.1901 145.193 64.0476 144.713 63.7205C143.978 63.1912 143.303 62.1937 142.969 61.2725C142.76 60.7124 142.687 60.1667 142.747 59.7777C142.812 59.3516 143.019 59.0346 143.322 58.8692C143.594 58.7147 144.003 58.6534 144.556 58.8589C144.703 58.9051 144.904 59.0295 145.137 59.2217ZM146.578 60.7899C146.631 60.8421 146.679 60.9048 146.722 60.9778C146.769 61.0408 146.802 61.1087 146.829 61.1873C146.759 61.0616 146.669 60.9259 146.578 60.7899ZM143.988 59.9929C144.025 59.9979 144.083 60.0132 144.114 60.0285C144.225 60.0698 144.379 60.2103 144.58 60.3872C144.95 60.7253 145.374 61.2203 145.688 61.701C145.816 61.8942 145.922 62.0768 145.981 62.25C146.008 62.3283 146.036 62.4332 146.041 62.475C145.979 62.6018 145.954 62.7332 145.982 62.864C145.793 62.8764 145.613 62.7886 145.45 62.6692C144.89 62.2906 144.416 61.5226 144.163 60.8366C144.066 60.5807 144.006 60.3287 143.994 60.1138C143.973 60.077 143.983 60.0299 143.988 59.9929ZM146.147 59.4023L146.13 59.3813C146.141 59.3864 146.152 59.3915 146.147 59.4023Z" fill="#FF914D"/>
</g>
</g>
</g>
</svg>
