<svg width="257" height="73" viewBox="0 0 257 73" fill="none" xmlns="http://www.w3.org/2000/svg">
<mask id="mask0_1010_2917" style="mask-type:luminance" maskUnits="userSpaceOnUse" x="0" y="27" width="71" height="115">
<path d="M0 27.8799H70.1325V141.115H0V27.8799Z" fill="white"/>
</mask>
<g mask="url(#mask0_1010_2917)">
<mask id="mask1_1010_2917" style="mask-type:luminance" maskUnits="userSpaceOnUse" x="-28" y="13" width="135" height="135">
<path d="M32.2424 13.2402L106.117 90.0471L46.2911 147.59L-27.584 70.7836L32.2424 13.2402Z" fill="white"/>
</mask>
<g mask="url(#mask1_1010_2917)">
<mask id="mask2_1010_2917" style="mask-type:luminance" maskUnits="userSpaceOnUse" x="-28" y="13" width="135" height="135">
<path d="M32.2424 13.2402L106.117 90.0471L46.2911 147.59L-27.584 70.7836L32.2424 13.2402Z" fill="white"/>
</mask>
<g mask="url(#mask2_1010_2917)">
<path d="M68.1561 51.3471C68.9922 53.007 69.7137 54.547 69.9082 56.0181C70.5142 60.4794 68.2949 65.3316 66.1009 68.8697C64.998 70.6447 63.6639 72.2504 62.5614 74.0016C61.4109 75.8228 60.4225 77.7405 59.4114 79.6111C57.8899 82.3872 56.483 85.3066 55.9065 88.3947C55.7249 89.2832 55.4138 90.1812 55.3139 91.1067C55.1047 93.4035 55.177 95.7297 55.5318 98.0141C55.7149 99.45 56.2276 100.869 56.5624 102.366C56.7027 102.991 57.0323 103.549 57.1498 104.15C57.3662 105.094 57.9593 105.997 58.1767 106.894L58.4249 107.392C58.6418 108.312 59.2463 109.227 59.4741 110.183L61.1621 115.146C61.3357 115.878 61.7576 116.532 61.9202 117.228C62.0824 117.923 62.4249 118.423 62.5652 119.072C63.0275 121.252 63.4831 123.187 63.281 125.108C63.2087 125.822 63.0765 126.572 62.9571 127.285C62.9176 127.508 62.7721 127.74 62.7207 127.973C62.6028 128.593 62.4149 129.212 62.1685 129.794C60.7773 132.514 59.1631 135.242 56.7336 137.601C56.3988 137.923 56.0549 138.092 55.6849 138.426C54.4193 139.504 51.9294 140.771 50.2814 140.997C48.8222 141.157 47.345 141.058 45.9077 140.713C45.4059 140.574 44.9041 140.411 44.4266 140.203C43.0854 139.766 41.7812 139.2 40.5261 138.542C39.806 138.152 39.0027 137.796 38.2954 137.348C34.6065 135.069 31.1935 131.88 27.9127 128.517C26.4402 126.986 25.1589 125.247 23.7344 123.646C22.3556 122.093 21.2997 120.252 19.9461 118.63C19.4986 118.093 19.1823 117.453 18.7581 116.939L14.4609 110.317C13.9448 109.685 13.678 108.928 13.2433 108.333L11.8017 105.804C11.3888 105.279 11.1116 104.464 10.6873 103.927L10.3149 103.157C9.90255 102.632 9.74226 101.819 9.27236 101.235C8.65358 100.448 8.20888 99.1713 7.7461 98.2115C7.37179 97.5584 7.05598 96.895 6.81152 96.1858C6.71354 95.773 6.34684 95.3197 6.2598 94.9659C6.09619 94.3171 5.63769 93.7445 5.48455 93.178C5.3314 92.6116 4.84104 91.8625 4.70025 91.2375L4.22797 90.1716C4.03344 89.3227 3.53404 88.4442 3.35046 87.6071L2.95855 86.625L1.97783 83.3304L1.09033 79.486C0.711259 76.6256 0.165727 73.9032 0.0425427 71.1655C-0.134862 67.0296 0.365011 63.0477 0.210911 58.9122C0.084397 55.7399 0.0254206 52.7335 0.575709 49.8094C0.975702 47.9502 1.65631 46.1671 2.59232 44.5068C2.92145 43.8908 3.19303 43.1917 3.55735 42.5886C4.85435 40.4888 6.32448 38.5216 7.95728 36.6748C8.4015 36.1787 8.88901 35.8477 9.37984 35.3526C10.4928 34.2824 11.9087 33.3122 13.1734 32.2568C13.6628 31.8554 14.2059 31.7013 14.7182 31.3003C15.3612 30.8433 16.0732 30.458 16.7957 30.1317L17.5067 29.7931C18.6154 29.5329 19.6494 28.8604 20.7105 28.6464C22.3494 28.2673 24.0217 28.0181 25.7139 27.9101C27.4885 27.8393 29.2302 28.2136 30.892 28.4804C33.8884 28.9612 37.1107 29.8692 39.7589 31.3298C41.2343 32.145 42.6354 33.1234 44.0618 34.0313C44.6763 34.4308 45.159 34.9569 45.7973 35.3564C46.6201 35.901 47.4068 36.5031 48.1573 37.1399C48.5616 37.4881 48.9735 38.0365 49.402 38.338L50.7908 38.7528C51.6541 39.051 52.4926 39.3963 53.3182 39.7996C53.5389 39.9095 53.8438 39.9389 54.0645 40.0488C55.7615 40.9273 57.5179 41.7715 59.1536 42.7779C60.0587 43.3353 60.9153 43.9627 61.808 44.5315C62.1433 44.7845 62.4672 45.0494 62.7783 45.3491C64.0263 46.3826 65.1901 47.4974 66.2698 48.7155L67.6776 50.5861C67.8607 50.8244 67.9354 51.2134 68.1561 51.3471Z" fill="#004AAD"/>
</g>
</g>
</g>
<mask id="mask3_1010_2917" style="mask-type:luminance" maskUnits="userSpaceOnUse" x="122" y="20" width="135" height="152">
<path d="M122.486 20.6992H256.176V171.922H122.486V20.6992Z" fill="white"/>
</mask>
<g mask="url(#mask3_1010_2917)">
<mask id="mask4_1010_2917" style="mask-type:luminance" maskUnits="userSpaceOnUse" x="117" y="13" width="166" height="166">
<path d="M117.557 86.8678L194.447 13.2119L282.316 104.94L205.425 178.596L117.557 86.8678Z" fill="white"/>
</mask>
<g mask="url(#mask4_1010_2917)">
<mask id="mask5_1010_2917" style="mask-type:luminance" maskUnits="userSpaceOnUse" x="122" y="20" width="135" height="152">
<path d="M256.174 20.7012H122.484V171.924H256.174V20.7012Z" fill="white"/>
</mask>
<g mask="url(#mask5_1010_2917)">
<mask id="mask6_1010_2917" style="mask-type:luminance" maskUnits="userSpaceOnUse" x="136" y="28" width="92" height="131">
<path d="M136.975 28.251H227.684V158.775H136.975V28.251Z" fill="white"/>
</mask>
<g mask="url(#mask6_1010_2917)">
<mask id="mask7_1010_2917" style="mask-type:luminance" maskUnits="userSpaceOnUse" x="117" y="13" width="166" height="166">
<path d="M117.555 86.8678L194.445 13.2119L282.314 104.94L205.423 178.596L117.555 86.8678Z" fill="white"/>
</mask>
<g mask="url(#mask7_1010_2917)">
<mask id="mask8_1010_2917" style="mask-type:luminance" maskUnits="userSpaceOnUse" x="117" y="13" width="166" height="166">
<path d="M205.393 178.565L282.284 104.909L194.414 13.1807L117.523 86.8365L205.393 178.565Z" fill="white"/>
</mask>
<g mask="url(#mask8_1010_2917)">
<path d="M191.398 28.3466C204.096 27.0358 228.759 49.0977 226.25 76.4723C223.741 103.847 225.513 117.06 227.416 132.786C230.11 154.814 205.708 172.351 175.368 143.95C145.029 115.549 128.6 94.4734 141.405 77.1928C154.21 59.9127 158.739 71.8369 168.251 59.5908C177.763 47.3783 177.197 29.8105 191.398 28.3466Z" fill="#004AAD"/>
</g>
</g>
</g>
</g>
</g>
</g>
<mask id="mask9_1010_2917" style="mask-type:luminance" maskUnits="userSpaceOnUse" x="23" y="14" width="165" height="122">
<path d="M23.7422 14.4912H187.628V135.518H23.7422V14.4912Z" fill="white"/>
</mask>
<g mask="url(#mask9_1010_2917)">
<mask id="mask10_1010_2917" style="mask-type:luminance" maskUnits="userSpaceOnUse" x="22" y="14" width="169" height="122">
<path d="M30.4012 14.4014L190.115 26.5101L181.859 135.414L22.1445 123.306L30.4012 14.4014Z" fill="white"/>
</mask>
<g mask="url(#mask10_1010_2917)">
<mask id="mask11_1010_2917" style="mask-type:luminance" maskUnits="userSpaceOnUse" x="23" y="14" width="165" height="122">
<path d="M187.63 14.4951H23.7441V135.522H187.63V14.4951Z" fill="white"/>
</mask>
<g mask="url(#mask11_1010_2917)">
<mask id="mask12_1010_2917" style="mask-type:luminance" maskUnits="userSpaceOnUse" x="29" y="17" width="155" height="112">
<path d="M29.1035 17.5391H183.492V128.826H29.1035V17.5391Z" fill="white"/>
</mask>
<g mask="url(#mask12_1010_2917)">
<mask id="mask13_1010_2917" style="mask-type:luminance" maskUnits="userSpaceOnUse" x="22" y="14" width="169" height="122">
<path d="M30.4051 14.4043L190.119 26.513L181.863 135.417L22.1484 123.309L30.4051 14.4043Z" fill="white"/>
</mask>
<g mask="url(#mask13_1010_2917)">
<mask id="mask14_1010_2917" style="mask-type:luminance" maskUnits="userSpaceOnUse" x="22" y="14" width="169" height="122">
<path d="M190.164 26.515L30.4501 14.4062L22.1934 123.311L181.907 135.419L190.164 26.515Z" fill="white"/>
</mask>
<g mask="url(#mask14_1010_2917)">
<path d="M80.464 18.5518C76.6424 18.2621 72.827 17.8854 68.9983 17.6824C60.2921 17.2847 51.7296 19.6057 44.4593 24.4708C43.0838 25.3274 41.8758 26.2844 40.4936 27.228C35.8003 30.3666 33.0188 34.786 31.5616 40.179C27.8284 53.6994 28.4857 68.0763 33.5178 81.2128C35.0393 85.3469 36.9075 89.5071 38.7895 93.4937C41.3478 98.9295 44.9074 103.829 49.4019 107.927C52.3379 110.683 55.3671 113.359 58.3968 116.035C63.8003 120.812 69.8173 124.414 77.1613 125.494C82.6875 126.35 88.1138 127.373 93.6333 128.315C99.6808 129.211 105.908 128.897 111.879 127.34C118.812 125.769 125.678 123.931 132.612 122.36C139.906 120.641 146.636 117.133 152.176 112.049C156.114 108.504 159.811 104.678 163.582 101.033C166.879 97.8756 169.929 94.5248 173.46 91.7349C182.137 84.4432 186.471 69.9198 180.865 57.4391C180.349 56.1768 179.733 55.082 178.944 53.9738C174.173 47.7589 167.714 43.0755 160.315 40.4182C160.061 40.3112 159.807 40.2047 159.546 40.1852C154.943 39.8361 150.905 37.7829 146.654 36.2376C139.77 33.7063 132.879 31.2617 126.075 28.8241C121.57 27.1719 117.171 25.2661 112.553 23.9548C106.659 22.1974 100.557 20.8614 94.5427 19.5316C91.9496 19.1606 89.4374 18.8828 86.8182 18.859L80.5643 18.3848L80.551 18.5584L80.464 18.5518Z" fill="#F8EA2B"/>
</g>
</g>
</g>
</g>
</g>
</g>
<mask id="mask15_1010_2917" style="mask-type:luminance" maskUnits="userSpaceOnUse" x="0" y="61" width="132" height="100">
<path d="M0.486328 61.9756H131.619V160.843H0.486328V61.9756Z" fill="white"/>
</mask>
<g mask="url(#mask15_1010_2917)">
<mask id="mask16_1010_2917" style="mask-type:luminance" maskUnits="userSpaceOnUse" x="-28" y="31" width="190" height="186">
<path d="M161.161 89.3337L107.035 216.157L-27.5996 158.696L26.527 31.873L161.161 89.3337Z" fill="white"/>
</mask>
<g mask="url(#mask16_1010_2917)">
<mask id="mask17_1010_2917" style="mask-type:luminance" maskUnits="userSpaceOnUse" x="-28" y="31" width="190" height="186">
<path d="M161.161 89.3327L107.035 216.156L-27.5996 158.695L26.527 31.8721L161.161 89.3327Z" fill="white"/>
</mask>
<g mask="url(#mask17_1010_2917)">
<path d="M101.082 86.6263C101.152 128.11 132.576 103.651 131.573 132.264C130.571 160.877 99.5484 169.081 71.1983 151.878C52.6207 140.595 -1.69845 169.731 0.662505 128.396C3.02394 87.0615 36.0902 97.8485 50.636 75.7898C67.9665 49.5582 101.054 65.1993 101.082 86.6263Z" fill="#9AE85D"/>
</g>
</g>
</g>
<mask id="mask18_1010_2917" style="mask-type:luminance" maskUnits="userSpaceOnUse" x="67" y="0" width="187" height="171">
<path d="M67.6953 0H253.254V170.826H67.6953V0Z" fill="white"/>
</mask>
<g mask="url(#mask18_1010_2917)">
<mask id="mask19_1010_2917" style="mask-type:luminance" maskUnits="userSpaceOnUse" x="56" y="-34" width="221" height="218">
<path d="M276.718 46.9466L200.925 183.369L56.1211 102.92L131.914 -33.5029L276.718 46.9466Z" fill="white"/>
</mask>
<g mask="url(#mask19_1010_2917)">
<mask id="mask20_1010_2917" style="mask-type:luminance" maskUnits="userSpaceOnUse" x="67" y="-1" width="187" height="172">
<path d="M253.254 -0.00390625H67.6953V170.822H253.254V-0.00390625Z" fill="white"/>
</mask>
<g mask="url(#mask20_1010_2917)">
<mask id="mask21_1010_2917" style="mask-type:luminance" maskUnits="userSpaceOnUse" x="93" y="29" width="150" height="116">
<path d="M93.9922 29.2168H242.05V144.034H93.9922V29.2168Z" fill="white"/>
</mask>
<g mask="url(#mask21_1010_2917)">
<mask id="mask22_1010_2917" style="mask-type:luminance" maskUnits="userSpaceOnUse" x="56" y="-34" width="221" height="218">
<path d="M276.716 46.9418L200.923 183.364L56.1191 102.915L131.912 -33.5078L276.716 46.9418Z" fill="white"/>
</mask>
<g mask="url(#mask22_1010_2917)">
<mask id="mask23_1010_2917" style="mask-type:luminance" maskUnits="userSpaceOnUse" x="56" y="-34" width="221" height="218">
<path d="M56.1133 102.883L131.906 -33.5391L276.71 46.9105L200.918 183.333L56.1133 102.883Z" fill="white"/>
</mask>
<g mask="url(#mask23_1010_2917)">
<path d="M123.426 112.968C128.209 66.2651 89.9707 90.1144 94.452 58.0246C98.9337 25.9343 134.815 20.3353 164.711 43.0212C184.3 57.8985 248.857 31.4666 241.356 77.7179C233.854 123.969 197.898 107.952 178.94 131.078C156.359 158.574 120.947 137.091 123.426 112.968Z" fill="#9AE85D"/>
</g>
</g>
</g>
</g>
</g>
</g>
<mask id="mask24_1010_2917" style="mask-type:luminance" maskUnits="userSpaceOnUse" x="12" y="32" width="62" height="45">
<path d="M12.6602 32.1465H73.052V76.9534H12.6602V32.1465Z" fill="white"/>
</mask>
<g mask="url(#mask24_1010_2917)">
<mask id="mask25_1010_2917" style="mask-type:luminance" maskUnits="userSpaceOnUse" x="8" y="24" width="71" height="65">
<path d="M22.1395 24.1836L78.8491 40.0968L65.3293 88.2781L8.61914 72.365L22.1395 24.1836Z" fill="white"/>
</mask>
<g mask="url(#mask25_1010_2917)">
<mask id="mask26_1010_2917" style="mask-type:luminance" maskUnits="userSpaceOnUse" x="8" y="24" width="71" height="65">
<path d="M22.1395 24.1855L78.8491 40.0987L65.3293 88.2801L8.61914 72.3669L22.1395 24.1855Z" fill="white"/>
</mask>
<g mask="url(#mask26_1010_2917)">
<path fill-rule="evenodd" clip-rule="evenodd" d="M23.946 72.6946C23.7838 72.5757 23.6164 72.5652 23.5051 72.5709C23.331 72.5828 22.9539 72.7089 22.9225 73.2121C22.9049 73.5364 23.1332 74.8082 23.6345 75.7172C24.0135 76.4087 24.5672 76.8691 25.1593 76.8891C25.5693 76.9062 26.0473 76.7236 26.5367 76.1533C26.8815 75.75 27.0499 75.2363 27.0247 74.7169C26.9509 72.7208 25.2592 72.0996 24.3398 72.4635C24.1871 72.5305 24.0568 72.6038 23.946 72.6946ZM25.7514 74.9086C25.7529 74.8601 25.7543 74.8121 25.7524 74.775C25.7253 74.1329 25.409 73.7391 25.0471 73.6378C24.9229 73.603 24.7954 73.5793 24.736 73.6601C24.7008 73.6991 24.7041 73.7733 24.7079 73.8475C24.7179 73.9845 24.7736 74.1343 24.8601 74.3046C24.9838 74.559 25.2325 74.6289 25.4347 74.7345C25.5526 74.7921 25.6592 74.8463 25.7514 74.9086ZM14.4365 66.3794C14.1473 66.2372 13.921 66.1739 13.7421 66.1601C13.384 66.133 13.1524 66.2628 12.9788 66.446C12.8346 66.6129 12.7276 66.8636 12.7438 67.1974C12.7614 67.5684 12.9593 68.1239 13.2898 68.7284C13.8201 69.7068 14.7062 70.8093 15.4776 71.3182C16.0536 71.6996 16.6044 71.7809 17.0339 71.5964C17.4381 71.4171 17.8296 70.9781 17.9509 70.0245C18.0284 69.4 17.9542 68.318 17.7012 67.3934C17.5042 66.7037 17.2079 66.1083 16.8355 65.7844C16.0322 65.0833 15.4191 65.0943 15.0639 65.275C14.7514 65.4315 14.5064 65.8262 14.4365 66.3794ZM33.8973 70.2185L33.875 70.2119C33.6424 70.171 33.3813 70.2319 33.163 70.4877C32.9741 70.7275 32.7996 71.3496 32.7649 71.5593C32.4819 73.7847 33.6291 76.607 36.3786 76.4149C36.7011 76.3959 36.9922 76.2703 37.2509 76.0867C37.3384 76.1233 37.443 76.1404 37.5482 76.1576C37.8887 76.2047 38.2036 75.9516 38.2506 75.6111C38.2706 75.409 38.1936 75.2049 38.0575 75.0813C38.1393 74.921 38.2126 74.7464 38.2568 74.588C38.4623 73.9873 38.3729 73.2183 38.0613 72.4601C37.6438 71.428 36.8547 70.414 36.088 69.9308C35.4978 69.5574 34.9213 69.4813 34.4709 69.6963C34.2631 69.7843 34.0671 69.9612 33.8973 70.2185ZM34.1171 73.39C34.2436 73.8523 34.4424 74.2741 34.7439 74.5904C35.0455 74.9067 35.435 75.126 35.9501 75.1607C35.338 74.7326 34.6093 74.1134 34.1171 73.39ZM15.6902 66.4754C15.6807 66.5092 15.6793 66.5577 15.6812 66.5948C15.6693 66.8108 15.685 67.059 15.7345 67.3168C15.8572 68.0098 16.1369 68.796 16.5007 69.3249C16.5768 69.4438 16.6596 69.5403 16.7456 69.6255C16.7689 69.1075 16.6995 68.356 16.5154 67.7068C16.4022 67.2849 16.2648 66.9049 16.0365 66.719C15.9057 66.621 15.7825 66.5378 15.6902 66.4754ZM14.5269 67.7097C14.4123 67.7263 14.2929 67.7173 14.1716 67.6711C14.3267 68.0317 14.574 68.455 14.8498 68.8616C14.7129 68.4816 14.6044 68.0854 14.5269 67.7097ZM36.9865 74.3783C37.0169 74.3136 37.0359 74.2456 37.063 74.1923C37.1757 73.8337 37.0835 73.3809 36.8942 72.9253C36.5774 72.1415 35.9934 71.3553 35.4141 70.9852C35.3218 70.9229 35.2262 70.8716 35.1358 70.8464C35.0906 70.8335 35.0374 70.8064 35.005 70.834C34.9503 70.8554 34.917 70.9315 34.8947 71.0105C34.8452 71.1431 34.801 71.3011 34.781 71.5027C34.7297 71.9032 34.8928 72.2784 35.133 72.6385C35.5701 73.2977 36.2745 73.8732 36.8086 74.2304C36.8666 74.2836 36.9284 74.325 36.9865 74.3783ZM44.3747 69.4752C44.0498 69.6768 43.6964 69.8947 43.4234 70.1719C43.0896 70.4925 42.8365 70.873 42.7466 71.3234C42.6453 71.7705 42.6962 72.2851 43.0006 72.8948C43.7283 74.3431 45.1076 74.6446 46.3927 74.237C47.5975 73.8551 48.7037 72.8245 49.0319 71.6112C49.5061 69.8785 48.8431 68.5458 47.6345 67.3777C47.0025 66.7613 46.4308 66.6253 45.9813 66.7061C45.5057 66.7922 45.0881 67.1508 44.8151 67.733C44.5916 68.1824 44.4427 68.7993 44.3747 69.4752ZM21.7101 61.1029C21.7653 60.7771 21.538 60.457 21.2007 60.399C20.8631 60.3409 20.532 60.565 20.474 60.9027C20.2681 62.0275 20.1544 63.6056 20.5715 64.8569C20.8892 65.812 21.5023 66.5815 22.5296 66.9187C23.1422 67.127 23.586 67.1542 23.9902 67.0605C24.3831 66.9634 24.7545 66.7261 25.214 66.3061C26.3526 65.2474 26.3246 64.0441 25.8019 62.9949C25.3329 62.0584 24.4064 61.2741 23.6078 60.9036C23.2311 60.7248 22.8744 60.6491 22.5919 60.6553C22.2842 60.6663 22.0364 60.7676 21.8547 60.9364C21.8048 60.9835 21.752 61.0415 21.7101 61.1029ZM44.348 71.0043C44.1554 71.1698 44.0046 71.3596 43.9609 71.6031C43.9148 71.81 43.9709 72.0449 44.1112 72.3284C44.2805 72.6808 44.525 72.8958 44.8061 73.0233C44.5716 72.5553 44.4118 71.8637 44.3566 71.1046L44.348 71.0043ZM46.7918 72.6413C47.2769 72.3018 47.6555 71.8228 47.811 71.2687C48.1454 70.0331 47.6136 69.1037 46.7627 68.2671C46.6381 68.1468 46.5183 68.0521 46.4146 67.9865C46.3418 67.9418 46.2771 67.9113 46.2258 67.9213C46.0969 67.9461 46.0298 68.0983 45.9594 68.2614C45.8653 68.4664 45.7873 68.7009 45.7259 68.9639C45.8358 69.0072 45.9247 69.0809 45.9927 69.1855C46.1925 69.4733 46.1188 69.8671 45.8343 70.0554C45.7587 70.1073 45.6864 70.1482 45.5961 70.2081C45.5942 70.4759 45.6037 70.747 45.6194 70.9952C45.6617 71.4951 45.7483 71.9702 45.8833 72.3132C45.9128 72.3826 45.9618 72.4696 46.0056 72.5305C46.2467 72.3664 46.5872 72.4135 46.7918 72.6413ZM21.5636 62.1473C21.5099 62.73 21.518 63.354 21.6236 63.9328C21.7662 64.729 22.113 65.4481 22.9144 65.7216C23.0048 65.7473 23.0923 65.7839 23.1712 65.8058C22.6994 64.9663 22.2875 63.8263 21.8723 63.0025C21.7225 62.6677 21.6198 62.3828 21.5636 62.1473ZM22.8288 61.9414C22.8649 62.0736 22.9225 62.2601 23.0086 62.4308C23.4452 63.3093 23.8704 64.5754 24.3836 65.3535C25.4675 64.3162 24.5633 63.0624 23.6649 62.3956C23.4252 62.2063 23.1731 62.0622 22.9534 61.9761C22.9082 61.9638 22.8625 61.9509 22.8288 61.9414ZM56.5638 67.3706C56.5186 67.3582 56.4701 67.3568 56.433 67.3587C55.9716 67.3511 55.4603 67.6954 55.1393 68.3613C54.7973 69.058 54.6104 70.1158 54.7992 71.0956C55.0023 72.1524 55.6054 73.0898 56.7892 73.4347C57.6567 73.6901 58.3045 73.5545 58.7673 73.2088C59.2125 72.8825 59.5131 72.3327 59.6486 71.6758C59.8741 70.5681 59.6624 69.1061 59.2415 68.0854C59.0522 67.6298 58.8263 67.2616 58.588 67.0243C58.3383 66.7832 58.0829 66.6505 57.8218 66.6262C57.5264 66.592 57.2106 66.6743 56.9148 66.9449C56.7959 67.0215 56.6694 67.1689 56.5638 67.3706ZM33.8726 65.6136C33.9287 65.6293 33.9772 65.6308 34.0338 65.6465C34.363 65.6902 34.6716 65.4595 34.7268 65.1337C35.1201 64.8174 35.4702 64.4398 35.7575 64.1544C36.9503 62.9892 37.3122 61.7003 37.1957 60.5945C37.0587 59.2998 36.2797 58.252 35.3289 57.8145C35.2852 57.7531 35.2381 57.7037 35.1767 57.6618C33.9197 56.7967 32.5423 57.2276 31.4703 58.3538C30.6355 59.2413 30.0111 60.554 29.8703 61.7954C29.7647 62.6924 29.914 63.5514 30.3592 64.2253C31.0175 65.227 31.777 65.5623 32.9551 65.7097C33.2843 65.7535 33.5872 65.7164 33.8726 65.6136ZM55.9945 69.7477C55.9949 69.9189 56.0106 70.0816 56.0258 70.2442C56.1129 70.9762 56.4653 71.4166 56.6841 72.0268C55.9916 71.5398 55.877 70.5562 55.9945 69.7477ZM57.6905 67.9185C57.6729 67.938 57.652 67.9689 57.6458 67.9917C57.6215 68.0336 57.5978 68.0754 57.5707 68.1292C57.6634 68.2771 57.7495 68.4474 57.8294 68.6405C57.9602 68.9577 57.807 69.3296 57.4898 69.4599C57.4061 69.4975 57.3286 69.5123 57.2434 69.5127C57.2344 69.7177 57.2515 69.9175 57.272 70.1063C57.3509 70.7379 57.6881 71.1013 57.8693 71.6278C57.9036 71.7225 58.0691 71.9156 58.1243 71.9798L58.1357 71.9831C58.1471 71.9859 58.158 71.9893 58.1552 72.0007L58.1775 72.0069C58.285 71.8418 58.3535 71.6416 58.4054 71.4123C58.5219 70.8231 58.4767 70.1149 58.3416 69.4671C58.2441 68.9886 58.0886 68.5425 57.8903 68.2067C57.8479 68.0968 57.7571 67.986 57.6905 67.9185ZM31.8103 60.0099C31.4631 60.5959 31.2101 61.2808 31.134 61.9423C31.066 62.5331 31.1264 63.099 31.4156 63.5461C31.6643 63.9204 31.943 64.1449 32.2807 64.2886C32.1699 64.0745 32.0738 63.8524 31.9868 63.5965C31.6267 62.4465 31.5911 61.0097 31.8103 60.0099ZM14.3324 54.8861C14.2872 54.8733 14.2387 54.8718 14.2016 54.8737C14.0679 54.8728 13.9129 54.9028 13.773 55.0098C13.6655 55.0892 13.5181 55.2675 13.4159 55.5439C13.2836 55.8849 13.178 56.3914 13.1438 56.6017C12.9697 58.0038 14.0342 59.0344 15.2032 59.3017C16.0298 59.4848 16.8707 59.2694 17.3758 58.643C17.6774 58.2639 17.8667 57.7194 17.8115 56.9603C17.7616 56.2264 17.1894 55.005 16.5701 54.3434C16.1002 53.8455 15.5604 53.6818 15.158 53.8126C14.8584 53.9239 14.5083 54.216 14.3324 54.8861ZM33.8174 64.2443C33.864 64.2087 33.9078 64.1844 33.9544 64.1487C34.3125 63.871 34.6336 63.51 34.8999 63.2555C35.483 62.6995 35.7993 62.0931 35.9239 61.5181C36.118 60.6092 35.7979 59.7512 35.2795 59.2518C34.9832 58.9612 34.6288 58.7885 34.2631 58.8323C33.8455 58.886 33.4712 59.2199 33.1711 59.8553C32.8372 60.5664 32.8201 62.0617 33.1982 63.1923C33.3309 63.6322 33.5216 64.0393 33.8174 64.2443ZM14.3814 56.7538C14.3333 57.1424 14.4784 57.4516 14.7086 57.6746C14.5683 57.3917 14.4636 57.0697 14.3814 56.7538ZM15.5642 55.1463C15.5323 55.2595 15.4943 55.395 15.4791 55.5372C15.4244 55.9486 15.6103 56.7206 15.9214 57.3079C16.0189 57.4815 16.1226 57.6328 16.2363 57.7498C16.2862 57.7883 16.3333 57.8383 16.3899 57.854C16.5264 57.6727 16.5735 57.4173 16.5525 57.0578C16.5245 56.6354 16.2377 56.0062 15.8981 55.5206C15.8106 55.3983 15.6693 55.249 15.5642 55.1463ZM64.9993 64.9083C64.7957 64.8512 64.6041 64.8826 64.4476 64.9606C64.2112 65.0652 63.9577 65.3601 63.8811 65.8505C63.7841 66.4574 63.9339 67.4876 64.4019 68.2533C64.7644 68.8302 65.2909 69.2588 65.9976 69.3472C66.6107 69.4219 67.0701 69.3068 67.4159 69.0742C67.776 68.834 68.0228 68.4764 68.1607 68.0274C68.4608 67.0015 68.1098 65.4272 67.5662 64.4089C67.2718 63.8505 66.9099 63.4443 66.5979 63.296C66.3201 63.1566 66.0666 63.1466 65.8188 63.2479C65.5163 63.3701 65.1258 63.7606 65.0045 64.7147C64.995 64.7485 64.9988 64.8227 64.9993 64.9083ZM44.0679 55.7051C44.0598 55.6908 44.0436 55.6618 44.0241 55.6442C43.8068 55.376 43.4211 55.3165 43.1414 55.5306C41.2993 56.965 40.702 59.2247 41.4116 60.9117C41.8948 62.0594 42.9764 62.9849 44.7309 63.2089L44.7533 63.2151C44.8779 63.2503 45.0277 63.2803 45.1842 63.2874C45.5119 63.2941 45.8729 63.2246 45.8729 63.2246C46.1563 63.1699 46.3599 62.9221 46.3685 62.6315C46.6805 62.4755 46.9777 62.2415 47.2893 61.9143C49.2887 59.7436 48.6709 55.9482 45.2669 55.5172C44.8103 55.4502 44.4122 55.5215 44.0679 55.7051ZM65.2371 66.1458C65.1938 66.1701 65.1534 66.1834 65.1135 66.1963C65.112 66.2448 65.1106 66.2933 65.1092 66.3418C65.1158 66.7094 65.2228 67.1542 65.434 67.5304C65.5563 67.7477 65.7218 67.9403 65.9348 68.0493C65.9187 68.0202 65.9025 67.9912 65.8863 67.9622C65.6647 67.5342 65.4064 66.8031 65.2371 66.1458ZM44.6805 61.4753C44.9021 61.5985 45.1428 61.6537 45.3797 61.6346C45.7054 61.6042 46.027 61.4139 46.3628 61.0444C47.6978 59.59 47.3806 57.025 45.1066 56.7405C44.6353 56.6816 44.3737 56.9617 44.2225 57.3707C44.31 57.4073 44.3937 57.4554 44.4779 57.5034C44.7837 57.6746 44.8841 58.0561 44.7128 58.3619C44.5721 58.603 44.2952 58.7205 44.0318 58.6587C44.026 59.462 44.1835 60.3357 44.4655 61.0244C44.5373 61.2032 44.6073 61.345 44.6805 61.4753ZM66.2568 64.7732C66.2535 64.7846 66.2473 64.807 66.244 64.8184L66.2378 64.8412C66.2507 64.8812 66.3638 65.6084 66.5227 66.1287C66.6554 66.5682 66.8984 67.1366 66.9917 67.3701L66.9931 67.3216C67.0326 66.8326 66.9151 66.251 66.7453 65.7273C66.6321 65.391 66.4095 65.011 66.2516 64.7475L66.2568 64.7732ZM27.0213 49.739C26.8259 49.6962 26.6518 49.7085 26.4825 49.7461C26.0606 49.8593 25.6611 50.284 25.4561 50.9704C25.1669 51.914 25.185 53.3703 25.6192 54.4309C25.8722 55.0511 26.2713 55.541 26.7888 55.7836C27.3172 56.0295 27.9916 56.0604 28.8268 55.648L28.8672 55.6352C29.1031 55.7503 29.3485 55.8312 29.6101 55.8559C29.9507 55.9025 30.2655 55.6495 30.3121 55.3089C30.3483 55.0507 30.2099 54.8048 29.9996 54.6844C30.5095 54.0837 30.8995 53.3028 31.0703 52.5213C31.3761 51.0831 30.9756 49.641 29.3585 49.0165C28.6765 48.7521 28.1362 48.8077 27.7195 49.0322C27.4365 49.1725 27.1954 49.4217 27.0213 49.739ZM26.6722 51.2871C26.6565 51.3437 26.6437 51.3889 26.6275 51.4455C26.58 51.6153 26.5519 51.8022 26.5319 52.0043C26.472 52.6093 26.54 53.3237 26.7488 53.8821C26.8863 54.2621 27.0879 54.5869 27.427 54.6821C27.5288 54.7106 27.6368 54.7168 27.7543 54.6887C27.7024 54.6131 27.6506 54.5375 27.5987 54.4623C27.0056 53.5763 26.6708 52.3358 26.6722 51.2871ZM28.8663 54.0738C29.3266 53.6057 29.6881 52.9266 29.8384 52.2612C30.0134 51.4198 29.8413 50.5547 28.9057 50.1946C28.6522 50.099 28.4534 50.0676 28.3088 50.149C28.0482 50.2955 27.9726 50.6522 27.9407 51.0702C27.8703 51.9282 28.1352 53.0274 28.6517 53.7941C28.7122 53.8845 28.7944 53.9805 28.8663 54.0738ZM20.952 45.3771C20.9858 45.301 20.9967 45.2187 20.9962 45.1331C20.9858 44.6913 20.7527 44.4796 20.5472 44.3854C20.3308 44.2879 19.9323 44.2737 19.518 44.6209C18.9573 45.0979 18.0602 46.4682 17.8072 47.8484C17.6469 48.7668 17.7578 49.6762 18.3128 50.393C18.6814 50.8624 19.2398 51.2629 20.0873 51.5007C20.777 51.6942 21.1018 51.4926 21.6145 51.0997C22.7218 50.2398 22.931 49.1036 22.7084 48.0287C22.4973 47.0422 21.888 46.1276 21.3063 45.6349C21.2012 45.5322 21.078 45.4489 20.952 45.3771ZM56.6969 54.6393C55.9783 54.7667 55.3134 55.3118 54.8801 56.117C54.2485 57.2813 54.0948 58.9579 54.8653 60.2106C55.3857 61.052 56.3065 61.725 57.7913 61.91C58.7935 62.0327 59.5135 61.4663 60.1927 60.8275C63.1201 58.088 62.4281 54.6863 60.7582 53.5101C59.954 52.9427 58.9143 52.8219 57.8432 53.4241C57.3557 53.7261 56.9852 54.1346 56.6969 54.6393ZM19.3534 47.0751C19.2098 47.4127 19.0942 47.7828 19.0376 48.1571C18.9611 48.6479 18.981 49.1411 19.2345 49.5416C19.4557 49.8845 19.8357 50.1375 20.4236 50.3021C20.6271 50.3597 20.6994 50.2331 20.8535 50.118C20.8678 50.11 20.8859 50.0905 20.9002 50.0824C20.7384 49.9639 20.6324 49.7756 20.63 49.5673C20.6086 49.5126 20.4607 49.2149 20.3465 49.0122C19.9713 48.3949 19.4823 47.6601 19.3882 47.2553C19.3734 47.1783 19.3634 47.1264 19.3534 47.0751ZM56.1557 56.4385C56.0934 56.5308 56.0306 56.6231 55.9797 56.7182C55.535 57.5205 55.4018 58.6906 55.9412 59.549C56.1267 59.8454 56.3845 60.1003 56.7431 60.2986C56.7027 60.2263 56.6651 60.1426 56.6275 60.0589C56.2461 59.159 56.0102 57.7393 56.1557 56.4385ZM58.7792 60.4308C58.9804 60.2801 59.1649 60.1003 59.3495 59.92C61.2319 58.1679 61.2943 56.0756 60.4634 54.9517C60.0134 54.3377 59.2543 54.088 58.4838 54.5308C58.3212 54.6312 58.1785 54.7496 58.0548 54.8861C58.2456 54.9884 58.4463 55.142 58.6375 55.3299C58.8872 55.5705 58.8986 55.9643 58.6579 56.2135C58.4172 56.4632 58.0234 56.4747 57.7742 56.234C57.6881 56.1489 57.6073 56.0894 57.5264 56.0304C57.3 56.9669 57.3714 58.0604 57.5949 58.9155C57.6819 59.257 57.7928 59.5567 57.9088 59.7964C57.9492 59.8687 58.0011 59.9443 58.0453 60.0056C58.2803 59.9495 58.5404 60.0223 58.7026 60.2263C58.724 60.2815 58.7645 60.3538 58.7792 60.4308ZM69.4829 56.2754C69.2142 56.1027 68.9674 56.0699 68.761 56.1094C68.5545 56.1493 68.3633 56.2663 68.1983 56.4637C68.0233 56.6953 67.8868 57.0958 67.8311 57.6413C67.7289 58.8323 68.038 60.7728 68.7453 62.0322C69.3312 63.0748 70.1888 63.6693 71.2346 63.4624C71.6213 63.3882 71.9766 63.1219 72.2548 62.6515C72.6948 61.9091 72.9583 60.5802 72.9759 59.2556C72.9882 58.1251 72.8299 56.995 72.4893 56.253C72.173 55.5548 71.7003 55.1539 71.1581 55.0868C70.6867 55.0278 70.3243 55.1458 70.0413 55.3712C69.7873 55.5805 69.6052 55.883 69.4829 56.2754ZM36.0885 46.5024C34.8238 46.0986 33.9739 46.4334 33.4783 47.0261C32.7644 47.8746 32.7834 49.5021 33.5606 50.8177C34.1832 51.8583 35.239 52.7035 36.6792 52.7415C37.5624 53.2457 38.5255 53.2476 39.2713 52.3715C39.3626 52.2631 39.5529 51.8892 39.7465 51.5045C39.9529 51.2457 40.116 50.9252 40.2321 50.5556C40.6577 49.1259 40.4175 47.8513 39.7621 47.0575C39.0711 46.217 37.9001 45.8275 36.3829 46.3654C36.2849 46.4111 36.1869 46.4568 36.0885 46.5024ZM20.5663 46.7079C20.5815 46.7854 20.5996 46.8515 20.611 46.94C20.639 47.0575 20.7365 47.2315 20.8535 47.4227C21.0604 47.7733 21.3168 48.1623 21.5151 48.4986C21.4814 48.1842 21.382 47.8879 21.2531 47.6082C21.0999 47.2843 20.7931 46.9424 20.5663 46.7079ZM69.3626 57.4858C69.2851 57.5006 69.2 57.501 69.1177 57.4901L69.1143 57.5015C69.0606 57.7793 69.0558 58.1436 69.0758 58.5517C69.1372 59.5933 69.4301 60.895 70.0004 61.6893C70.1317 61.8724 70.2696 62.0332 70.4266 62.1259C70.2767 61.7911 70.1098 61.3421 69.9509 60.8218C69.6527 59.7987 69.3869 58.5293 69.3626 57.4858ZM71.4553 61.3293C71.6232 60.73 71.7103 59.9861 71.7226 59.2456C71.7298 58.3086 71.6218 57.3878 71.3431 56.7733C71.2927 56.6492 71.2242 56.5446 71.1528 56.4514C71.1091 56.3905 71.062 56.3405 70.9911 56.3329C70.9312 56.3282 70.8832 56.3267 70.8427 56.3401C70.7557 56.3886 70.7272 56.4904 70.6924 56.615C70.613 56.8975 70.5973 57.259 70.623 57.6442C70.6834 58.8199 71.0777 60.2843 71.3997 61.1795C71.4206 61.2342 71.4306 61.286 71.4553 61.3293ZM39.092 49.9673C39.3408 48.9514 39.1524 48.0572 38.5408 47.6296C38.1246 47.33 37.5248 47.2957 36.8048 47.5569C36.3991 47.6991 36.0576 48.0914 35.7166 48.3492C35.5739 48.4677 35.5539 48.6693 35.5758 48.8952C35.6076 49.4774 35.9239 50.1756 36.3491 50.7463C36.5517 51.0227 36.7758 51.2686 37.0264 51.4612C37.3008 51.4403 37.5843 51.3856 37.8839 51.2747C38.2492 51.1454 38.5389 50.9827 38.7538 50.7383C38.9008 50.3892 39.0473 50.04 39.092 49.9673ZM34.636 47.68C34.6069 47.6967 34.5779 47.7129 34.5494 47.729C34.2873 47.924 34.2031 48.266 34.1922 48.6532C34.1832 49.0774 34.2949 49.5478 34.5275 49.9792C34.4067 49.6282 34.3339 49.2786 34.3116 48.9671C34.283 48.4591 34.3958 48.0153 34.636 47.68ZM50.0745 43.0361L49.995 43.0138C48.8536 42.7788 47.6916 42.9653 46.8755 43.614C46.6248 43.8123 46.4098 44.0568 46.2334 44.3365C45.967 44.286 45.7383 44.3193 45.5647 44.4173C45.2265 44.5785 44.9416 44.9861 44.8893 45.6059C44.8037 46.521 45.1737 48.0272 46.0274 49.1568C46.7104 50.0686 47.6883 50.7573 48.9268 50.7758C49.9655 51.1159 51.1213 50.9523 52.035 50.001C53.3733 48.6208 53.7186 47.3029 53.5251 46.2118L53.5198 46.1861C53.6292 45.058 53.3339 44.024 52.6842 43.4271C52.1253 42.941 51.2583 42.6851 50.0745 43.0361ZM50.1111 44.3393C49.9032 44.4273 49.6783 44.5348 49.4319 44.6732C48.1401 45.408 47.5799 46.2755 47.5356 47.1288C47.5294 47.2368 47.5266 47.3338 47.5351 47.4337C47.9375 47.9126 48.5263 48.2484 49.1137 48.3278C49.4543 48.3749 49.6963 48.6864 49.6607 49.0303C49.6374 49.2434 49.5047 49.4132 49.3306 49.5107C49.4709 49.4893 49.6255 49.4593 49.772 49.4151C51.2121 48.9775 52.0445 47.5768 52.2461 46.2922L52.2495 46.2808C51.9917 45.3305 51.0999 44.6408 50.1111 44.3393ZM27.1245 37.0719C27.0789 37.059 27.0451 37.0495 27.008 37.0514C26.7726 37.0219 26.531 37.1004 26.3255 37.3111C26.141 37.4909 25.9588 37.879 25.8613 38.4003C25.701 39.3187 25.7543 40.7365 26.2014 41.752C26.5681 42.5748 27.1754 43.1474 28.042 43.2321C28.5424 43.2749 29.1388 43.1498 29.8479 42.7512C31.2153 41.9641 31.4983 40.7384 31.2106 39.5479C30.9537 38.4635 30.1713 37.4267 29.388 36.9145C28.6893 36.4498 27.984 36.3984 27.4727 36.7428C27.3457 36.8046 27.2282 36.9183 27.1245 37.0719ZM27.0627 40.1158C27.1046 40.4445 27.1726 40.7684 27.2753 41.0533C27.4175 41.4595 27.6239 41.81 27.9797 41.9341C28.1914 42.0055 28.451 41.9931 28.7393 41.8789C28.4334 41.7077 28.1519 41.4946 27.886 41.225C27.6235 40.9439 27.3067 40.5501 27.0627 40.1158ZM29.8931 40.9829C30.0653 40.629 30.0829 40.219 29.9859 39.8262C29.7966 39.0657 29.2705 38.3327 28.7288 37.9608C28.6056 37.8776 28.4877 37.82 28.3778 37.7772C28.2984 37.7549 28.2337 37.7244 28.1761 37.7573C28.1067 37.7867 28.0815 37.8771 28.0382 37.987C27.9607 38.221 27.9312 38.542 27.9512 38.9501C27.955 39.1099 28.0382 39.2916 28.1243 39.4623C28.3084 39.8067 28.5842 40.1277 28.803 40.3479C29.1126 40.6785 29.4765 40.903 29.8931 40.9829ZM65.7503 46.0201C65.6247 46.0335 65.4859 46.0924 65.3451 46.248C65.1891 46.4116 64.7391 47.1022 64.8576 47.9407C64.9313 48.461 65.2162 49.0536 65.9881 49.5625C66.4071 49.8512 66.7967 49.9849 67.1724 49.9925C67.4996 49.9991 67.8302 49.9088 68.1693 49.699C68.3144 49.7033 68.4723 49.6624 68.5978 49.5635C68.7519 49.4479 68.8366 49.2767 68.839 49.0945C69.3826 48.4177 69.4753 47.5654 69.2989 46.7597C69.0948 45.8365 68.5179 44.9795 67.9576 44.5419C67.375 44.0977 66.7748 44.0635 66.3472 44.3707C66.0566 44.5814 65.757 45.0832 65.7503 46.0201ZM66.1142 47.5492C66.0937 47.6653 66.107 47.7913 66.1465 47.9117C66.2231 48.1162 66.4 48.3121 66.6849 48.5143C66.7962 48.5942 66.9113 48.6631 67.0131 48.6917C66.869 48.5537 66.7277 48.4044 66.5979 48.2584C66.4162 48.0363 66.2492 47.8066 66.1142 47.5492ZM67.0768 45.4656C67.0701 45.4879 67.064 45.5108 67.0578 45.5331C67.0216 45.7062 67.0012 45.9079 67.0221 46.1818C67.0511 46.861 67.3983 47.2753 67.766 47.6591C67.8716 47.7618 67.9657 47.8612 68.0708 47.964C68.1393 47.7637 68.1626 47.5507 68.1403 47.3252C68.0927 46.7992 67.8516 46.2684 67.5548 45.8922C67.4197 45.7205 67.1886 45.5455 67.0768 45.4656ZM65.2509 46.8434C65.2932 46.9528 65.3422 47.0399 65.4198 47.1103C65.4863 47.1778 65.5848 47.2177 65.6752 47.2429C65.483 47.1892 65.3275 47.0479 65.2509 46.8434ZM39.0035 34.6367C38.7705 34.5102 38.4238 34.486 38.0671 34.8008C37.7893 35.0519 37.4017 35.6507 37.2504 36.3642C37.0925 37.1004 37.1805 37.918 37.7655 38.5701C38.8927 39.8129 39.8953 40.0212 40.6749 39.7644C41.198 39.5941 41.6508 39.1969 42.0033 38.6371C42.9298 38.4212 43.7159 37.9223 44.0888 37.2464C44.495 36.4945 44.4898 35.4686 43.5699 34.2715C43.3716 34.0208 43.0116 33.9561 42.7447 34.1254C42.7348 34.0736 42.7167 34.0075 42.7072 33.9561C42.4936 33.1523 42.0646 32.8123 41.6285 32.7143C41.354 32.6496 41.0397 32.6834 40.7162 32.8365C40.37 32.983 40.0052 33.2831 39.678 33.667C39.4164 33.9476 39.1985 34.2886 39.0035 34.6367ZM57.446 37.0186C57.3657 37.0448 57.2934 37.0857 57.2144 37.1489C56.5443 37.6683 56.1966 38.4731 56.1538 39.3639C56.0824 40.5753 56.5419 41.936 57.2544 42.8311C57.8042 43.5222 58.5224 43.9189 59.2496 43.8913C59.7542 43.8742 60.2793 43.6558 60.7782 43.137C62.0847 41.7843 62.4448 40.1534 62.0533 38.8117C61.6595 37.4329 60.4833 36.3223 58.6322 36.0954C58.2094 36.0379 57.8827 36.202 57.6472 36.563C57.564 36.6862 57.4969 36.8379 57.446 37.0186ZM38.4395 36.8198C38.4024 37.1266 38.4556 37.4586 38.6958 37.7335L38.7148 37.7511C38.5493 37.4728 38.467 37.157 38.4395 36.8198ZM41.198 37.5085C41.228 37.4438 41.247 37.3758 41.2775 37.3111C41.6294 36.3613 41.7269 35.1447 41.4953 34.2748C41.4725 34.183 41.4463 34.1021 41.4054 34.0298C41.3811 33.9866 41.3792 33.9495 41.3455 33.94C41.2775 33.9209 41.2133 33.9761 41.141 34.0165C40.964 34.1254 40.7857 34.2829 40.6092 34.4774C40.1407 35.0168 39.7331 35.8172 39.6884 36.4992C39.667 36.7494 39.7003 36.9787 39.8316 37.1618C39.9662 37.3335 40.1945 37.4343 40.5122 37.4747C40.7448 37.5156 40.9721 37.5304 41.198 37.5085ZM59.7923 42.3484C59.8099 42.3289 59.8422 42.3013 59.8631 42.2704C60.8053 41.303 61.1092 40.132 60.8353 39.1527C60.5732 38.2619 59.8179 37.5622 58.656 37.3582C58.6289 37.4971 58.588 37.7297 58.5828 37.9232C58.5752 39.0795 58.9756 40.8264 59.3866 41.7952C59.4617 41.9627 59.5673 42.151 59.6191 42.2266C59.6952 42.2599 59.7452 42.2984 59.7923 42.3484ZM57.4337 39.1494C57.4194 39.2431 57.4023 39.3482 57.3994 39.4447C57.3533 40.2614 57.632 41.1807 58.08 41.8433C57.8089 41.0718 57.564 40.0764 57.4337 39.1494ZM42.8575 35.4619C42.8456 35.9827 42.7818 36.514 42.662 37.0291C42.8018 36.9221 42.9074 36.8051 42.9859 36.6567C43.1633 36.328 43.1262 35.9394 42.8575 35.4619ZM49.1456 33.8724C48.9744 33.8734 48.6814 33.9618 48.475 34.3062C48.3194 34.5554 48.1397 35.0657 48.1121 35.6436C48.0807 36.2324 48.2015 36.8883 48.6172 37.4072C48.9691 37.8476 49.5142 38.2081 50.3974 38.3213C51.175 38.4179 51.7163 38.2281 52.0954 37.9199C52.4778 37.6003 52.708 37.1285 52.784 36.552C52.8782 35.6517 52.5838 34.4836 52.1187 33.6213C51.8404 33.0919 51.4818 32.6743 51.1517 32.4598C50.7907 32.2244 50.4164 32.1678 50.0911 32.2839C49.7948 32.3837 49.4766 32.6482 49.2616 33.1975C49.1979 33.3383 49.157 33.5709 49.1456 33.8724ZM49.3553 35.9922C49.3591 36.0664 49.3739 36.144 49.4 36.2243C49.4153 36.3019 49.4443 36.3713 49.4852 36.4436C49.4376 36.308 49.3967 36.1501 49.3553 35.9922ZM50.4859 33.529C50.4649 33.5599 50.4378 33.6132 50.4283 33.647C50.3855 33.7568 50.3879 33.9652 50.386 34.2329C50.3917 34.7342 50.4783 35.3806 50.6281 35.9347C50.6871 36.1587 50.7522 36.3599 50.8421 36.5192C50.8825 36.5915 50.9425 36.6819 50.97 36.7137C51.1061 36.7518 51.2207 36.8208 51.3001 36.9283C51.4352 36.7956 51.4889 36.6034 51.5089 36.4017C51.5993 35.7321 51.342 34.8669 50.9986 34.2215C50.8721 33.979 50.7242 33.7664 50.572 33.6142C50.5586 33.5737 50.5168 33.5499 50.4859 33.529ZM48.6077 34.7461L48.6029 34.72C48.5996 34.7314 48.5962 34.7428 48.6077 34.7461Z" fill="#FF914D"/>
</g>
</g>
</g>
</svg>
