<svg width="239" height="106" viewBox="0 0 239 106" fill="none" xmlns="http://www.w3.org/2000/svg">
<mask id="mask0_1010_2517" style="mask-type:luminance" maskUnits="userSpaceOnUse" x="21" y="19" width="130" height="131">
<path d="M100.811 19.9141L150.905 68.9971L71.6565 149.878L21.5624 100.795L100.811 19.9141Z" fill="white"/>
</mask>
<g mask="url(#mask0_1010_2517)">
<mask id="mask1_1010_2517" style="mask-type:luminance" maskUnits="userSpaceOnUse" x="50" y="31" width="85" height="108">
<path d="M134.087 32.0225L133.1 138.586L50.0951 137.818L51.0816 31.2543L134.087 32.0225Z" fill="white"/>
</mask>
<g mask="url(#mask1_1010_2517)">
<mask id="mask2_1010_2517" style="mask-type:luminance" maskUnits="userSpaceOnUse" x="50" y="31" width="85" height="108">
<path d="M134.087 32.0216L133.1 138.585L50.0951 137.817L51.0816 31.2534L134.087 32.0216Z" fill="white"/>
</mask>
<g mask="url(#mask2_1010_2517)">
<path d="M133.07 84.3755C132.506 86.1463 131.943 87.7513 131.053 88.9382C128.363 92.5489 123.382 94.4616 119.339 95.4532C117.309 95.9492 115.232 96.1624 113.219 96.6417C111.123 97.1372 109.075 97.8153 107.043 98.4438C104.013 99.3619 100.965 100.462 98.3924 102.265C97.6408 102.772 96.7902 103.196 96.0711 103.787C94.3142 105.281 92.7378 106.993 91.3925 108.873C90.5183 110.027 89.8916 111.399 89.0829 112.703C88.7458 113.248 88.5904 113.877 88.2539 114.389C87.7481 115.214 87.5393 116.275 87.0671 117.067L86.8959 117.597C86.407 118.405 86.1981 119.482 85.6921 120.324L83.4239 125.051C83.036 125.695 82.8796 126.457 82.5088 127.068C82.1377 127.679 82.0328 128.275 81.679 128.837C80.483 130.718 79.4547 132.418 77.9655 133.649C77.4139 134.109 76.7952 134.552 76.2106 134.978C76.0267 135.109 75.7603 135.173 75.5601 135.304C75.0418 135.664 74.4749 135.974 73.8915 136.218C70.9942 137.187 67.9322 138.006 64.5455 137.991C64.081 137.986 63.7169 137.867 63.2192 137.846C61.5603 137.731 58.8954 136.893 57.5598 135.901C56.4061 134.994 55.4201 133.889 54.6351 132.636C54.3739 132.186 54.129 131.719 53.9341 131.236C53.282 129.985 52.7462 128.668 52.3104 127.32C52.0687 126.537 51.7442 125.721 51.5526 124.906C50.5128 120.696 50.3068 116.03 50.3168 111.332C50.3368 109.207 50.6386 107.068 50.7415 104.928C50.8435 102.854 51.3775 100.8 51.5464 98.6937C51.6025 97.9969 51.8246 97.3183 51.8808 96.6548L53.4462 88.9171C53.52 88.1044 53.859 87.3772 53.9652 86.6476L54.7054 83.8324C54.7776 83.1688 55.1501 82.3924 55.2225 81.7123L55.4958 80.9013C55.5684 80.238 56.0231 79.5449 56.0962 78.7988C56.2051 77.8035 56.7809 76.5805 57.1221 75.5711C57.3117 74.8427 57.5505 74.1477 57.8722 73.4701C58.0912 73.1067 58.1465 72.5263 58.3319 72.2126C58.6691 71.6347 58.7424 70.9048 59.0294 70.393C59.3165 69.8812 59.4905 69.003 59.8273 68.458L60.2359 67.3662C60.6911 66.6236 60.9492 65.6467 61.404 64.9203L61.8114 63.9445L63.4166 60.9048L65.4733 57.5377C67.2044 55.2293 68.72 52.903 70.548 50.8613C73.3159 47.7829 76.4597 45.2886 79.2439 42.2269C81.3738 39.8724 83.4357 37.6837 85.8752 35.9803C87.4621 34.9322 89.1961 34.1349 91.0267 33.604C91.6929 33.3944 92.3762 33.0851 93.0585 32.9093C95.4545 32.3172 97.8813 31.941 100.34 31.7646C101.005 31.7211 101.584 31.8259 102.282 31.8157C103.825 31.8303 105.516 32.1282 107.158 32.2594C107.788 32.3152 108.284 32.5853 108.931 32.6574C109.71 32.781 110.488 33.0041 111.232 33.2767L111.977 33.5324C112.951 34.1225 114.16 34.3658 115.068 34.9555C116.504 35.8318 117.873 36.8242 119.157 37.9314C120.474 39.1227 121.457 40.609 122.457 41.9626C124.261 44.4031 125.927 47.3068 126.796 50.2035C127.279 51.8183 127.595 53.4978 127.979 55.1446C128.138 55.86 128.115 56.5736 128.291 57.3057C128.498 58.2705 128.638 59.2512 128.729 60.2313C128.774 60.7629 128.684 61.4429 128.779 61.9582L129.481 63.2264C129.889 64.0435 130.246 64.877 130.554 65.743C130.634 65.9759 130.831 66.2103 130.912 66.4432C131.509 68.2584 132.173 70.0907 132.637 71.9542C132.894 72.9858 133.066 74.0334 133.306 75.0645C133.368 75.4799 133.414 75.8958 133.427 76.3276C133.595 77.9392 133.646 79.55 133.565 81.1757L133.261 83.4971C133.225 83.7954 133.006 84.1256 133.07 84.3755Z" fill="#004AAD"/>
</g>
</g>
</g>
<mask id="mask3_1010_2517" style="mask-type:luminance" maskUnits="userSpaceOnUse" x="42" y="26" width="203" height="203">
<path d="M127.139 26.9678L244.199 141.665L159.497 228.112L42.4368 113.415L127.139 26.9678Z" fill="white"/>
</mask>
<g mask="url(#mask3_1010_2517)">
<mask id="mask4_1010_2517" style="mask-type:luminance" maskUnits="userSpaceOnUse" x="49" y="31" width="189" height="193">
<path d="M131.959 31.5637L237.564 151.99L155.449 224L49.8431 103.573L131.959 31.5637Z" fill="white"/>
</mask>
<g mask="url(#mask4_1010_2517)">
<mask id="mask5_1010_2517" style="mask-type:luminance" maskUnits="userSpaceOnUse" x="42" y="26" width="203" height="203">
<path d="M244.197 141.669L127.137 26.9717L42.4349 113.419L159.495 228.116L244.197 141.669Z" fill="white"/>
</mask>
<g mask="url(#mask5_1010_2517)">
<mask id="mask6_1010_2517" style="mask-type:luminance" maskUnits="userSpaceOnUse" x="50" y="32" width="190" height="189">
<path d="M128.835 32.8955L239.111 140.946L161.226 220.436L50.9492 112.385L128.835 32.8955Z" fill="white"/>
</mask>
<g mask="url(#mask6_1010_2517)">
<mask id="mask7_1010_2517" style="mask-type:luminance" maskUnits="userSpaceOnUse" x="49" y="31" width="189" height="194">
<path d="M131.959 31.5676L237.564 151.994L155.449 224.004L49.8431 103.577L131.959 31.5676Z" fill="white"/>
</mask>
<g mask="url(#mask7_1010_2517)">
<mask id="mask8_1010_2517" style="mask-type:luminance" maskUnits="userSpaceOnUse" x="49" y="31" width="189" height="194">
<path d="M237.594 152.027L131.988 31.5998L49.8724 103.609L155.478 224.036L237.594 152.027Z" fill="white"/>
</mask>
<g mask="url(#mask8_1010_2517)">
<path d="M164.811 69.5637C162.284 66.6822 159.823 63.7429 157.23 60.9183C151.29 54.5411 143.549 50.2064 134.951 48.5932C133.369 48.2424 131.837 48.0805 130.189 47.7872C124.64 46.7443 119.56 47.9544 114.745 50.7866C102.616 57.8312 93.0239 68.5603 87.4244 81.4652C85.6179 85.4829 84.0407 89.7619 82.5949 93.9267C80.618 99.5998 79.7313 105.591 80.074 111.663C80.2421 115.687 80.5331 119.718 80.8245 123.75C81.3404 130.944 83.1178 137.727 87.6072 143.639C90.9552 148.118 94.1155 152.646 97.3982 157.182C101.091 162.054 105.759 166.188 111.113 169.255C117.165 172.985 123.356 176.477 129.408 180.208C135.82 184.085 143.084 186.29 150.598 186.535C155.892 186.759 161.21 186.614 166.455 186.649C171.02 186.702 175.543 186.443 180.018 186.921C191.319 187.786 204.579 180.445 209.309 167.607C209.825 166.344 210.151 165.131 210.362 163.787C211.305 156.009 209.969 148.143 206.543 141.067C206.437 140.813 206.33 140.559 206.157 140.363C203.113 136.891 201.666 132.599 199.712 128.52C196.566 121.894 193.355 115.325 190.201 108.822C188.139 104.489 186.331 100.049 183.95 95.8807C180.97 90.5002 177.547 85.2756 174.182 80.1167C172.589 78.0369 170.989 76.0803 169.135 74.2302L165 69.5147L164.869 69.6293L164.811 69.5637Z" fill="#F8EA2B"/>
</g>
</g>
</g>
</g>
</g>
</g>
<mask id="mask9_1010_2517" style="mask-type:luminance" maskUnits="userSpaceOnUse" x="8" y="44" width="163" height="164">
<path d="M77.2955 44.6084L170.961 136.384L101.767 207.002L8.10196 115.227L77.2955 44.6084Z" fill="white"/>
</mask>
<g mask="url(#mask9_1010_2517)">
<mask id="mask10_1010_2517" style="mask-type:luminance" maskUnits="userSpaceOnUse" x="-11" y="41" width="184" height="189">
<path d="M172.914 176.601L45.4943 229.306L-10.4574 94.0381L116.963 41.3323L172.914 176.601Z" fill="white"/>
</mask>
<g mask="url(#mask10_1010_2517)">
<mask id="mask11_1010_2517" style="mask-type:luminance" maskUnits="userSpaceOnUse" x="-11" y="41" width="184" height="189">
<path d="M172.916 176.6L45.4963 229.305L-10.4554 94.0372L116.965 41.3313L172.916 176.6Z" fill="white"/>
</mask>
<g mask="url(#mask11_1010_2517)">
<path d="M131.897 132.619C102.914 162.299 142.478 166.821 121.736 186.557C100.996 206.293 73.0952 190.441 64.8848 158.313C59.5118 137.252 0.32144 120.047 30.9365 92.1749C61.552 64.303 77.6211 95.1498 103.449 89.5738C134.186 82.9661 146.873 117.295 131.897 132.619Z" fill="#9AE85D"/>
</g>
</g>
</g>
<mask id="mask12_1010_2517" style="mask-type:luminance" maskUnits="userSpaceOnUse" x="49" y="47" width="253" height="253">
<path d="M168.676 47.377L301.217 177.243L181.662 299.26L49.1215 169.394L168.676 47.377Z" fill="white"/>
</mask>
<g mask="url(#mask12_1010_2517)">
<mask id="mask13_1010_2517" style="mask-type:luminance" maskUnits="userSpaceOnUse" x="88" y="68" width="198" height="204">
<path d="M285.122 227.198L135.508 271.597L88.381 112.79L237.995 68.3912L285.122 227.198Z" fill="white"/>
</mask>
<g mask="url(#mask13_1010_2517)">
<mask id="mask14_1010_2517" style="mask-type:luminance" maskUnits="userSpaceOnUse" x="49" y="47" width="253" height="253">
<path d="M301.221 177.24L168.68 47.374L49.1254 169.391L181.666 299.257L301.221 177.24Z" fill="white"/>
</mask>
<g mask="url(#mask14_1010_2517)">
<mask id="mask15_1010_2517" style="mask-type:luminance" maskUnits="userSpaceOnUse" x="86" y="86" width="187" height="187">
<path d="M167.014 86.6504L272.768 190.27L192.412 272.282L86.6577 168.662L167.014 86.6504Z" fill="white"/>
</mask>
<g mask="url(#mask15_1010_2517)">
<mask id="mask16_1010_2517" style="mask-type:luminance" maskUnits="userSpaceOnUse" x="88" y="68" width="198" height="204">
<path d="M285.126 227.193L135.512 271.592L88.3849 112.785L237.999 68.3863L285.126 227.193Z" fill="white"/>
</mask>
<g mask="url(#mask16_1010_2517)">
<mask id="mask17_1010_2517" style="mask-type:luminance" maskUnits="userSpaceOnUse" x="88" y="68" width="198" height="204">
<path d="M88.4025 112.759L238.017 68.36L285.143 227.166L135.529 271.565L88.4025 112.759Z" fill="white"/>
</mask>
<g mask="url(#mask17_1010_2517)">
<path d="M129.423 167.071C165.526 137.06 121.522 127.333 147.181 107.548C172.841 87.7637 202.389 108.876 207.866 146.003C211.446 170.339 276.056 196.641 238.329 224.427C200.601 252.213 186.128 215.609 156.402 218.858C121.029 222.695 110.771 182.567 129.423 167.071Z" fill="#9AE85D"/>
</g>
</g>
</g>
</g>
</g>
</g>
<mask id="mask18_1010_2517" style="mask-type:luminance" maskUnits="userSpaceOnUse" x="75" y="31" width="76" height="76">
<path d="M106.868 31.8223L150.004 74.0883L118.646 106.093L75.5091 63.8268L106.868 31.8223Z" fill="white"/>
</mask>
<g mask="url(#mask18_1010_2517)">
<mask id="mask19_1010_2517" style="mask-type:luminance" maskUnits="userSpaceOnUse" x="75" y="32" width="74" height="77">
<path d="M119.211 32.769L148.58 83.8244L105.203 108.777L75.833 57.7215L119.211 32.769Z" fill="white"/>
</mask>
<g mask="url(#mask19_1010_2517)">
<mask id="mask20_1010_2517" style="mask-type:luminance" maskUnits="userSpaceOnUse" x="75" y="32" width="74" height="77">
<path d="M119.209 32.77L148.578 83.8254L105.201 108.778L75.831 57.7225L119.209 32.77Z" fill="white"/>
</mask>
<g mask="url(#mask20_1010_2517)">
<path fill-rule="evenodd" clip-rule="evenodd" d="M86.5496 68.6838C86.517 68.4853 86.4047 68.3607 86.3212 68.2869C86.1886 68.1735 85.8309 67.9996 85.4564 68.3371C85.2168 68.5564 84.4898 69.6246 84.2117 70.6247C83.9985 71.3839 84.0717 72.1002 84.4807 72.5289C84.7615 72.8281 85.2308 73.0322 85.9795 72.9674C86.508 72.9206 86.9878 72.6715 87.3333 72.2829C88.6777 70.8055 87.904 69.1778 86.9927 68.7943C86.8367 68.7353 86.6923 68.6964 86.5496 68.6838ZM86.2897 71.5287C86.3247 71.4951 86.3593 71.4618 86.3839 71.4339C86.8139 70.9563 86.8636 70.4537 86.676 70.128C86.6116 70.0164 86.5372 69.9102 86.4382 69.9263C86.3857 69.9295 86.3362 69.9849 86.287 70.0405C86.1982 70.1453 86.1331 70.2913 86.0758 70.4735C85.986 70.7418 86.1148 70.9658 86.1853 71.1827C86.2292 71.3064 86.2674 71.4197 86.2897 71.5287ZM84.177 57.5176C84.07 57.2137 83.9525 57.01 83.8344 56.875C83.5976 56.605 83.3413 56.5357 83.0891 56.5449C82.8694 56.5633 82.6175 56.6675 82.3954 56.9173C82.1483 57.1946 81.9009 57.7298 81.7139 58.393C81.408 59.4629 81.2693 60.8705 81.4642 61.7739C81.6086 62.4495 81.9451 62.8931 82.381 63.0618C82.7953 63.2167 83.3821 63.1771 84.1361 62.5808C84.6285 62.189 85.3328 61.3642 85.7992 60.5267C86.1412 59.8963 86.3463 59.2636 86.307 58.7716C86.2238 57.7086 85.7783 57.2874 85.398 57.1678C85.0653 57.0609 84.614 57.1715 84.177 57.5176ZM95.3905 73.8797L95.3792 73.8593C95.2417 73.6673 95.0126 73.5281 94.6776 73.5581C94.3749 73.5971 93.8149 73.9193 93.6433 74.0449C91.8837 75.4364 90.7278 78.2552 92.8263 80.0422C93.0699 80.2543 93.3657 80.3683 93.679 80.4183C93.7159 80.5057 93.7786 80.5911 93.8417 80.6769C94.052 80.9489 94.454 80.9885 94.726 80.7782C94.8817 80.6478 94.9695 80.4482 94.9588 80.2646C95.1294 80.2074 95.3039 80.134 95.4464 80.0518C96.0135 79.7665 96.4879 79.1546 96.796 78.3951C97.22 77.3656 97.3661 76.0891 97.1567 75.2074C96.9964 74.5276 96.6379 74.0698 96.1657 73.9082C95.9557 73.8255 95.6919 73.8148 95.3905 73.8797ZM93.3279 76.2988C93.0947 76.7175 92.9415 77.158 92.9355 77.595C92.9295 78.0319 93.0543 78.4611 93.3979 78.8464C93.2603 78.1123 93.1732 77.16 93.3279 76.2988ZM85.0053 58.4637C84.9748 58.4811 84.9399 58.5148 84.9152 58.5426C84.7556 58.6885 84.5931 58.8769 84.448 59.0956C84.0507 59.6765 83.7002 60.4337 83.5899 61.0662C83.5611 61.2044 83.5526 61.3312 83.5545 61.4523C83.9337 61.0986 84.41 60.5133 84.7329 59.9207C84.9473 59.5402 85.1151 59.1726 85.0821 58.8799C85.0573 58.7184 85.0276 58.5728 85.0053 58.4637ZM83.3105 58.5311C83.217 58.4627 83.138 58.3727 83.0837 58.2549C82.9421 58.6209 82.8225 59.0964 82.735 59.5799C82.9031 59.2126 83.1029 58.8537 83.3105 58.5311ZM94.6858 79.0129C94.7528 78.988 94.814 78.9527 94.8706 78.9337C95.2021 78.7564 95.4531 78.3684 95.6368 77.9105C95.9591 77.1289 96.0921 76.1586 95.9373 75.4889C95.915 75.3798 95.8827 75.2762 95.8358 75.195C95.8125 75.1542 95.7934 75.0975 95.751 75.0946C95.6969 75.0716 95.6199 75.1026 95.5487 75.1434C95.4205 75.2036 95.2784 75.2854 95.123 75.4155C94.806 75.6655 94.6599 76.0478 94.5795 76.473C94.4303 77.2498 94.5307 78.1538 94.6622 78.7828C94.6664 78.8614 94.6816 78.9343 94.6858 79.0129ZM103.395 80.6815C103.021 80.5981 102.616 80.5064 102.227 80.5134C101.765 80.5087 101.318 80.6034 100.938 80.8622C100.553 81.1107 100.229 81.5139 100.02 82.1624C99.526 83.7061 100.3 84.8868 101.503 85.4951C102.631 86.0655 104.143 86.1035 105.226 85.4666C106.778 84.5608 107.237 83.1449 107.191 81.4647C107.171 80.5821 106.858 80.0848 106.48 79.828C106.08 79.5566 105.531 79.5205 104.928 79.7453C104.454 79.9099 103.916 80.2463 103.395 80.6815ZM93.0652 58.8393C93.3326 58.6452 93.3942 58.2574 93.194 57.98C92.9934 57.7022 92.6001 57.6305 92.3224 57.8311C91.388 58.4904 90.2024 59.5381 89.6246 60.7238C89.1831 61.6283 89.0824 62.6071 89.5802 63.5669C89.872 64.1444 90.17 64.4744 90.5243 64.6904C90.8728 64.896 91.3043 64.9865 91.9264 65.008C93.4806 65.0487 94.3027 64.1696 94.6637 63.0543C94.9841 62.0572 94.8712 60.8486 94.5601 60.0251C94.4162 59.6337 94.2144 59.33 94.0082 59.1367C93.7808 58.9292 93.5329 58.8281 93.2849 58.8216C93.2163 58.8202 93.138 58.8247 93.0652 58.8393ZM102.305 81.755C102.052 81.7384 101.811 81.7685 101.61 81.9118C101.432 82.0273 101.308 82.2344 101.209 82.535C101.084 82.9053 101.108 83.2299 101.219 83.5177C101.38 83.0193 101.749 82.4135 102.241 81.8327L102.305 81.755ZM102.905 84.6346C103.489 84.7316 104.095 84.6544 104.594 84.3675C105.697 83.7189 105.968 82.6829 105.946 81.4899C105.941 81.3167 105.922 81.1652 105.893 81.0458C105.873 80.9629 105.848 80.8959 105.804 80.8671C105.695 80.7946 105.54 80.8563 105.376 80.9236C105.165 81.0041 104.945 81.117 104.717 81.2619C104.766 81.3697 104.778 81.4846 104.753 81.607C104.694 81.9523 104.366 82.182 104.031 82.1175C103.941 82.1016 103.86 82.0802 103.754 82.0598C103.565 82.2497 103.382 82.45 103.22 82.6383C102.9 83.025 102.629 83.425 102.486 83.7644C102.458 83.8347 102.432 83.9311 102.421 84.0052C102.708 84.0568 102.918 84.3288 102.905 84.6346ZM92.2296 59.4828C91.7834 59.8613 91.3525 60.3127 91.0228 60.8C90.5675 61.4686 90.3119 62.2249 90.6929 62.9811C90.7395 63.0627 90.7763 63.1501 90.8174 63.221C91.0679 62.2912 91.5716 61.1886 91.8515 60.3096C91.9789 59.9656 92.1049 59.6902 92.2296 59.4828ZM93.2774 60.2211C93.2106 60.3408 93.1213 60.5143 93.0633 60.6965C92.7603 61.6295 92.1779 62.8315 91.9999 63.7464C93.5001 63.7641 93.7318 62.2358 93.5567 61.1307C93.518 60.8277 93.4388 60.5484 93.3421 60.3331C93.3184 60.2926 93.2948 60.2515 93.2774 60.2211ZM113.574 87.7089C113.55 87.6684 113.517 87.6334 113.489 87.6088C113.165 87.2805 112.558 87.1687 111.863 87.4196C111.131 87.6779 110.257 88.3027 109.706 89.1346C109.112 90.0316 108.887 91.1233 109.491 92.1981C109.932 92.9877 110.489 93.3442 111.062 93.4211C111.608 93.4996 112.208 93.3173 112.764 92.943C113.7 92.3096 114.573 91.1171 114.986 90.0935C115.17 89.6356 115.266 89.2145 115.262 88.8782C115.252 88.5312 115.163 88.2577 114.993 88.0576C114.806 87.8265 114.523 87.6642 114.122 87.6505C113.984 87.622 113.79 87.6387 113.574 87.7089ZM98.5956 70.5732C98.6248 70.6237 98.6584 70.6587 98.6878 70.7095C98.8923 70.9711 99.2742 71.0224 99.5417 70.8283C100.044 70.8776 100.558 70.8529 100.963 70.8501C102.631 70.8526 103.791 70.1853 104.482 69.3139C105.29 68.2933 105.467 66.9996 105.094 66.0217C105.106 65.9473 105.107 65.879 105.092 65.8061C104.8 64.3084 103.515 63.6522 101.961 63.7064C100.743 63.7562 99.3785 64.2567 98.4091 65.0449C97.7059 65.6117 97.2114 66.3298 97.0578 67.1227C96.8269 68.2988 97.1348 69.0699 97.8731 69.9998C98.0775 70.2614 98.3199 70.4469 98.5956 70.5732ZM111.504 89.0084C111.384 89.131 111.281 89.2582 111.178 89.385C110.728 89.9688 110.672 90.53 110.401 91.119C110.247 90.2864 110.854 89.5037 111.504 89.0084ZM113.995 88.8888C113.969 88.8904 113.932 88.8978 113.912 88.9098C113.865 88.9227 113.819 88.936 113.762 88.9554C113.725 89.126 113.667 89.3078 113.589 89.5017C113.461 89.8198 113.091 89.9783 112.773 89.8494C112.687 89.8176 112.621 89.7739 112.56 89.7146C112.41 89.8547 112.283 90.0094 112.165 90.1586C111.779 90.665 111.766 91.1605 111.527 91.6634C111.485 91.755 111.468 92.0088 111.463 92.0933L111.469 92.1036C111.475 92.1136 111.48 92.1237 111.47 92.1298L111.482 92.1499C111.674 92.1072 111.863 92.0122 112.061 91.8847C112.556 91.5453 113.02 91.0079 113.376 90.4506C113.642 90.0406 113.843 89.6131 113.936 89.2345C113.983 89.1264 113.995 88.9836 113.995 88.8888ZM101.044 65.1273C100.386 65.3029 99.7263 65.615 99.2089 66.0343C98.7469 66.4086 98.394 66.8552 98.2876 67.3769C98.2033 67.8183 98.2453 68.1737 98.386 68.5127C98.4566 68.2822 98.5434 68.0563 98.6603 67.8127C99.208 66.7392 100.188 65.688 101.044 65.1273ZM92.1463 49.2353C92.123 49.1945 92.0893 49.1596 92.0615 49.135C91.9667 49.0407 91.835 48.9536 91.6602 48.9322C91.5279 48.9137 91.2977 48.9379 91.0313 49.0637C90.6982 49.2148 90.2683 49.5027 90.0967 49.6289C88.991 50.5086 89.03 51.9897 89.678 52.9988C90.1403 53.7081 90.8917 54.1427 91.6909 54.0488C92.1715 53.9891 92.6879 53.7326 93.1797 53.1518C93.6577 52.5926 94.1038 51.3198 94.1245 50.4138C94.1373 49.7293 93.8663 49.2346 93.4873 49.0464C93.1954 48.9162 92.741 48.8798 92.1463 49.2353ZM99.5146 69.5566C99.5728 69.5637 99.6211 69.577 99.6793 69.5841C100.13 69.6364 100.611 69.6032 100.98 69.6079C101.785 69.6188 102.436 69.4071 102.927 69.0835C103.702 68.5701 104.074 67.7333 104.053 67.0137C104.045 66.5988 103.912 66.2275 103.621 66.0028C103.285 65.7489 102.784 65.7254 102.125 65.9692C101.388 66.2435 100.33 67.2996 99.8085 68.3717C99.5954 68.7788 99.4467 69.2031 99.5146 69.5566ZM90.8741 50.6037C90.5679 50.8476 90.4551 51.17 90.4634 51.4904C90.5613 51.1901 90.7119 50.8869 90.8741 50.6037ZM92.8441 50.2833C92.7421 50.3418 92.6201 50.412 92.5097 50.503C92.1827 50.7585 91.7753 51.4401 91.5863 52.0773C91.5345 52.2695 91.5027 52.4501 91.502 52.6133C91.5107 52.6757 91.5094 52.7444 91.5388 52.7952C91.7632 52.7613 91.9755 52.6118 92.2122 52.3403C92.4878 52.019 92.7233 51.3688 92.8206 50.7843C92.8436 50.6358 92.8473 50.4302 92.8441 50.2833ZM121.322 91.8538C121.217 91.6706 121.058 91.5589 120.892 91.5051C120.65 91.4144 120.262 91.4476 119.864 91.7443C119.37 92.1098 118.756 92.9505 118.555 93.825C118.41 94.4908 118.486 95.1653 118.929 95.7232C119.314 96.2056 119.723 96.4449 120.133 96.5208C120.558 96.6012 120.985 96.5185 121.398 96.2943C122.33 95.7716 123.181 94.4014 123.505 93.2936C123.686 92.6887 123.712 92.1453 123.593 91.8209C123.492 91.527 123.318 91.3425 123.07 91.2414C122.768 91.117 122.216 91.1226 121.462 91.7192C121.431 91.7367 121.382 91.7924 121.322 91.8538ZM112.813 70.6311C112.817 70.6153 112.825 70.5832 112.824 70.557C112.856 70.2133 112.622 69.9009 112.273 69.858C109.953 69.5934 107.945 70.7894 107.271 72.491C106.813 73.6489 106.938 75.067 108.034 76.4549L108.046 76.475C108.11 76.5873 108.197 76.7136 108.303 76.8282C108.533 77.0623 108.839 77.2654 108.839 77.2654C109.08 77.4247 109.399 77.3901 109.608 77.1886C109.94 77.2955 110.316 77.3364 110.768 77.3207C113.715 77.1696 115.93 74.0262 113.8 71.3361C113.521 70.9686 113.187 70.741 112.813 70.6311ZM120.626 92.9042C120.578 92.8913 120.54 92.8725 120.503 92.8537C120.468 92.8873 120.433 92.921 120.398 92.9547C120.145 93.2219 119.91 93.6145 119.798 94.031C119.733 94.2718 119.716 94.5252 119.792 94.7521C119.801 94.7201 119.81 94.688 119.819 94.656C119.96 94.1951 120.287 93.4922 120.626 92.9042ZM109.212 75.1814C109.284 75.4245 109.417 75.6323 109.6 75.7845C109.854 75.9907 110.216 76.0799 110.715 76.0509C112.686 75.9464 114.255 73.8923 112.83 72.0977C112.534 71.7257 112.152 71.7427 111.757 71.929C111.794 72.0164 111.82 72.1093 111.847 72.2025C111.945 72.5389 111.75 72.8816 111.414 72.9802C111.144 73.0539 110.865 72.9441 110.72 72.7155C110.153 73.2853 109.654 74.0195 109.374 74.7088C109.3 74.8868 109.251 75.037 109.212 75.1814ZM122.315 92.6375C122.305 92.6433 122.285 92.6549 122.274 92.6607L122.254 92.6727C122.235 92.7102 121.807 93.3089 121.556 93.7917C121.344 94.1985 121.119 94.7746 121.023 95.0066L121.058 94.973C121.428 94.6514 121.751 94.1537 121.996 93.6608C122.151 93.3414 122.258 92.9142 122.329 92.6154L122.315 92.6375ZM104.812 54.4394C104.702 54.272 104.569 54.159 104.422 54.0673C104.042 53.853 103.459 53.8767 102.832 54.2235C101.965 54.6951 100.959 55.748 100.527 56.8095C100.273 57.4295 100.216 58.0587 100.415 58.5942C100.621 59.1396 101.081 59.6337 101.966 59.9237L102.004 59.9428C102.092 60.1901 102.211 60.4196 102.38 60.6203C102.591 60.892 102.993 60.9316 103.264 60.721C103.471 60.5618 103.544 60.2893 103.478 60.0562C104.263 59.984 105.088 59.6991 105.757 59.2605C106.982 58.4472 107.705 57.1369 106.987 55.5591C106.685 54.8928 106.26 54.5545 105.805 54.4232C105.505 54.3254 105.158 54.3346 104.812 54.4394ZM103.479 55.3009C103.428 55.3303 103.388 55.3536 103.336 55.3827C103.184 55.4707 103.033 55.5846 102.877 55.715C102.411 56.1052 101.959 56.663 101.718 57.208C101.55 57.5756 101.467 57.9488 101.642 58.2541C101.695 58.3457 101.768 58.4257 101.871 58.4878C101.887 58.3975 101.903 58.3072 101.919 58.2173C102.115 57.1693 102.744 56.049 103.479 55.3009ZM103.096 58.8268C103.752 58.8147 104.486 58.5826 105.059 58.2125C105.773 57.734 106.255 56.9956 105.839 56.0837C105.725 55.838 105.605 55.6764 105.445 55.6333C105.156 55.5555 104.852 55.7574 104.537 56.0337C103.886 56.5973 103.306 57.5678 103.139 58.4769C103.118 58.5837 103.11 58.71 103.096 58.8268ZM103.53 47.0761C103.607 47.0454 103.672 46.9943 103.732 46.9328C104.034 46.6098 104.015 46.2956 103.934 46.0845C103.848 45.8634 103.573 45.5743 103.035 45.5323C102.3 45.4806 100.7 45.8316 99.5537 46.6404C98.7965 47.1842 98.2392 47.9113 98.134 48.8117C98.0688 49.405 98.1873 50.0818 98.6263 50.8449C98.9834 51.4658 99.3566 51.5491 99.9977 51.6273C101.39 51.788 102.335 51.1229 102.928 50.1993C103.468 49.3469 103.673 48.2673 103.602 47.5082C103.599 47.3613 103.569 47.2156 103.53 47.0761ZM122.579 78.7084C121.977 78.2965 121.12 78.2204 120.247 78.4924C118.981 78.8819 117.698 79.972 117.372 81.406C117.154 82.3712 117.341 83.4963 118.272 84.6676C118.902 85.4566 119.813 85.556 120.745 85.5751C124.753 85.6671 126.64 82.7531 126.27 80.7442C126.093 79.7761 125.435 78.9621 124.248 78.6426C123.689 78.5171 123.138 78.5497 122.579 78.7084ZM101.199 47.1701C100.86 47.3108 100.519 47.4942 100.217 47.722C99.8183 48.019 99.4874 48.3853 99.3882 48.8487C99.3062 49.2484 99.4005 49.6951 99.7053 50.2241C99.8104 50.4077 99.9506 50.3679 100.141 50.3935C100.157 50.3978 100.184 50.3965 100.199 50.4007C100.167 50.2029 100.223 49.9942 100.367 49.8437C100.39 49.7897 100.493 49.4735 100.553 49.2489C100.717 48.5453 100.882 47.6782 101.098 47.3232C101.141 47.2578 101.171 47.2138 101.199 47.1701ZM120.933 79.6148C120.824 79.6371 120.715 79.659 120.612 79.6914C119.733 79.9532 118.819 80.6957 118.603 81.6864C118.528 82.0279 118.534 82.3904 118.651 82.783C118.673 82.7031 118.705 82.617 118.737 82.5309C119.094 81.6212 119.919 80.442 120.933 79.6148ZM120.013 84.3025C120.262 84.3356 120.52 84.3363 120.778 84.3367C123.349 84.4027 124.858 82.9518 125.051 81.5676C125.159 80.8141 124.792 80.1045 123.931 79.8815C123.745 79.8393 123.56 79.8241 123.376 79.835C123.441 80.0416 123.477 80.2918 123.482 80.5598C123.492 80.9064 123.224 81.1957 122.878 81.2053C122.531 81.2152 122.242 80.9477 122.233 80.6014C122.231 80.4804 122.214 80.3813 122.198 80.2826C121.381 80.7931 120.667 81.624 120.228 82.3913C120.051 82.6961 119.92 82.9877 119.835 83.2401C119.814 83.3201 119.798 83.4104 119.787 83.4851C119.994 83.6095 120.129 83.8436 120.102 84.1028C120.078 84.1572 120.057 84.2371 120.013 84.3025ZM130.567 88.8255C130.496 88.5141 130.342 88.3179 130.167 88.2016C129.992 88.0857 129.773 88.0354 129.517 88.0609C129.23 88.1039 128.853 88.2944 128.431 88.6451C127.524 89.4242 126.387 91.0266 126.011 92.4212C125.7 93.576 125.896 94.6008 126.788 95.185C127.116 95.4026 127.556 95.461 128.084 95.3197C128.918 95.0973 130.036 94.3325 130.976 93.3987C131.776 92.5999 132.454 91.6818 132.73 90.9135C132.993 90.1935 132.936 89.5762 132.595 89.1489C132.3 88.7769 131.958 88.6075 131.598 88.5704C131.271 88.5422 130.929 88.6307 130.567 88.8255ZM113.554 58.4733C112.933 57.2998 112.091 56.9442 111.323 57.0206C110.219 57.127 109.094 58.3029 108.728 59.7865C108.444 60.9655 108.607 62.3081 109.609 63.3432C109.887 64.3215 110.574 64.9969 111.719 64.8931C111.861 64.8795 112.258 64.7456 112.666 64.6063C112.994 64.5659 113.335 64.4511 113.677 64.2684C114.981 63.5451 115.702 62.4665 115.789 61.4408C115.884 60.3569 115.32 59.2592 113.86 58.5815C113.758 58.5456 113.656 58.5096 113.554 58.4733ZM102.323 47.7567C102.279 47.8227 102.246 47.8826 102.192 47.9538C102.13 48.0573 102.078 48.2499 102.028 48.4683C101.93 48.8635 101.841 49.3208 101.747 49.6998C101.943 49.4516 102.079 49.1704 102.183 48.8804C102.3 48.5419 102.321 48.0829 102.323 47.7567ZM129.634 89.6058C129.568 89.5621 129.507 89.5029 129.456 89.4375L129.445 89.4433C129.213 89.6041 128.954 89.861 128.683 90.1664C127.998 90.9534 127.296 92.0882 127.147 93.0547C127.113 93.2773 127.099 93.4887 127.146 93.6648C127.274 93.3208 127.469 92.8832 127.719 92.4004C128.222 91.461 128.921 90.3682 129.634 89.6058ZM128.439 93.8158C128.978 93.5052 129.561 93.0348 130.088 92.5145C130.749 91.8502 131.316 91.117 131.547 90.483C131.598 90.359 131.622 90.2364 131.636 90.1199C131.648 90.0457 131.649 89.9771 131.604 89.9221C131.564 89.8768 131.531 89.8421 131.493 89.8233C131.397 89.7971 131.305 89.8498 131.193 89.9145C130.939 90.0607 130.674 90.3079 130.423 90.6011C129.643 91.4831 128.9 92.8051 128.504 93.6698C128.48 93.7235 128.451 93.7675 128.439 93.8158ZM113.274 63.0503C114.163 62.4987 114.654 61.7282 114.516 60.9947C114.429 60.4895 114.024 60.0452 113.327 59.7278C112.938 59.5454 112.419 59.5867 111.995 59.5322C111.811 59.5169 111.655 59.647 111.513 59.8237C111.128 60.2618 110.865 60.9818 110.77 61.6871C110.721 62.0263 110.709 62.3587 110.753 62.6717C110.964 62.8488 111.205 63.0081 111.496 63.1387C111.848 63.3019 112.168 63.3884 112.493 63.3643C112.842 63.2178 113.191 63.071 113.274 63.0503ZM111.692 58.2979C111.66 58.2895 111.628 58.2807 111.596 58.2723C111.272 58.2282 110.973 58.4135 110.694 58.6824C110.391 58.9791 110.141 59.3933 110.005 59.8642C110.165 59.529 110.357 59.2284 110.56 58.9902C110.895 58.6074 111.286 58.3693 111.692 58.2979ZM125.969 65.7857L125.928 65.7141C125.277 64.7474 124.317 64.0674 123.28 63.9596C122.962 63.9258 122.638 63.95 122.316 64.0263C122.161 63.8039 121.974 63.6675 121.782 63.616C121.427 63.4945 120.938 63.5863 120.467 63.9923C119.766 64.586 118.976 65.9209 118.795 67.3252C118.645 68.4545 118.861 69.6308 119.733 70.5108C120.237 71.4807 121.177 72.1727 122.495 72.1327C124.417 72.0835 125.586 71.3838 126.212 70.469L126.226 70.447C127.094 69.7177 127.606 68.7724 127.56 67.8914C127.501 67.1531 127.061 66.3635 125.969 65.7857ZM125.084 66.7422C124.874 66.6596 124.638 66.5789 124.365 66.5053C122.928 66.1261 121.92 66.3537 121.292 66.9322C121.212 67.005 121.142 67.0723 121.078 67.1496C121.03 67.7733 121.216 68.4252 121.58 68.8931C121.79 69.165 121.745 69.557 121.479 69.7776C121.313 69.9135 121.099 69.9419 120.907 69.8897C121.022 69.9726 121.153 70.0594 121.289 70.1303C122.624 70.8257 124.199 70.4078 125.242 69.6313L125.252 69.6255C125.733 68.7663 125.579 67.6496 125.084 66.7422ZM113.751 45.4638C113.727 45.4227 113.71 45.3922 113.682 45.3676C113.535 45.1818 113.307 45.0688 113.013 45.0755C112.755 45.0747 112.353 45.2245 111.919 45.5286C111.162 46.0724 110.207 47.1224 109.816 48.1606C109.502 49.0049 109.535 49.839 110.095 50.506C110.422 50.8867 110.936 51.2148 111.721 51.4264C113.249 51.8212 114.309 51.1438 114.937 50.092C115.512 49.1377 115.679 47.8496 115.478 46.9355C115.304 46.1146 114.836 45.5842 114.23 45.4724C114.096 45.4277 113.933 45.4266 113.751 45.4638ZM111.576 47.5947C111.376 47.8588 111.198 48.1377 111.072 48.4131C110.89 48.8028 110.792 49.1976 110.959 49.5353C111.06 49.7344 111.254 49.9073 111.54 50.0275C111.441 49.6911 111.389 49.3419 111.388 48.9632C111.397 48.5787 111.447 48.0757 111.576 47.5947ZM112.991 50.1949C113.362 50.0627 113.661 49.7822 113.867 49.4337C114.264 48.758 114.401 47.8663 114.275 47.2215C114.245 47.0758 114.201 46.9522 114.152 46.8447C114.111 46.7732 114.086 46.7061 114.022 46.6893C113.952 46.6618 113.871 46.7087 113.763 46.7569C113.544 46.8697 113.298 47.0784 113.027 47.3839C112.918 47.5007 112.85 47.6887 112.792 47.8709C112.683 48.2457 112.655 48.6681 112.657 48.9785C112.647 49.4313 112.75 49.8463 112.991 50.1949ZM135.078 78.888C134.979 78.8097 134.838 78.7546 134.629 78.7672C134.403 78.7749 133.598 78.9532 133.096 79.6351C132.785 80.0583 132.573 80.681 132.769 81.5847C132.866 82.0842 133.051 82.4523 133.314 82.7207C133.543 82.9544 133.842 83.1212 134.231 83.2088C134.332 83.3133 134.473 83.3946 134.632 83.4118C134.823 83.4371 135.003 83.3741 135.132 83.2456C135.994 83.1427 136.657 82.5988 137.095 81.8998C137.595 81.0976 137.783 80.0817 137.689 79.377C137.584 78.652 137.179 78.2074 136.659 78.1276C136.304 78.0747 135.738 78.2234 135.078 78.888ZM134.268 80.2349C134.172 80.3035 134.093 80.4028 134.037 80.5164C133.949 80.7161 133.938 80.9799 134 81.3236C134.024 81.4586 134.057 81.5884 134.11 81.68C134.104 81.4806 134.107 81.2751 134.117 81.0799C134.143 80.7941 134.184 80.5132 134.268 80.2349ZM136.414 79.4203C136.393 79.4316 136.373 79.4436 136.353 79.4552C136.206 79.5536 136.05 79.6833 135.873 79.8936C135.419 80.3991 135.377 80.938 135.371 81.4694C135.374 81.6167 135.372 81.7536 135.375 81.9005C135.564 81.8054 135.73 81.6696 135.872 81.4929C136.206 81.0839 136.405 80.536 136.456 80.0595C136.48 79.8424 136.437 79.5556 136.414 79.4203ZM134.145 79.1266C134.099 79.2344 134.073 79.3308 134.079 79.4353C134.079 79.5302 134.122 79.6276 134.168 79.7089C134.069 79.536 134.057 79.3263 134.145 79.1266ZM123.94 52.0381C123.862 51.7846 123.632 51.5246 123.156 51.4999C122.782 51.4849 122.086 51.6413 121.479 52.045C120.851 52.4604 120.342 53.1059 120.303 53.9811C120.238 55.6577 120.809 56.5082 121.545 56.8703C122.038 57.1148 122.64 57.1481 123.283 56.9949C124.096 57.4891 125.007 57.6829 125.746 57.4611C126.562 57.2083 127.277 56.4719 127.457 54.973C127.491 54.6552 127.279 54.357 126.97 54.2912C126.999 54.2472 127.033 54.1873 127.062 54.144C127.472 53.4204 127.403 52.8772 127.161 52.502C127.01 52.2637 126.762 52.0678 126.423 51.9509C126.074 51.8132 125.603 51.7722 125.101 51.8174C124.717 51.8347 124.323 51.9259 123.94 52.0381ZM135.446 66.6466C135.37 66.609 135.29 66.5877 135.19 66.5776C134.347 66.4796 133.536 66.8111 132.882 67.4174C131.983 68.2327 131.359 69.5262 131.241 70.6642C131.15 71.5426 131.386 72.3286 131.925 72.8178C132.297 73.1588 132.825 73.3703 133.544 73.3489C135.424 73.2971 136.823 72.3842 137.482 71.1518C138.166 69.8914 138.103 68.2749 136.94 66.8174C136.678 66.4804 136.33 66.3689 135.909 66.462C135.763 66.4917 135.609 66.5531 135.446 66.6466ZM122.009 53.2026C121.768 53.3958 121.574 53.6702 121.553 54.0346L121.554 54.0605C121.631 53.746 121.793 53.4628 122.009 53.2026ZM123.498 55.6252C123.564 55.5999 123.626 55.5647 123.693 55.5398C124.609 55.1077 125.53 54.3069 125.973 53.5234C126.021 53.4419 126.059 53.3658 126.08 53.2856C126.093 53.2377 126.118 53.2098 126.101 53.1794C126.065 53.1182 125.981 53.1127 125.901 53.091C125.698 53.045 125.461 53.0326 125.199 53.048C124.486 53.1054 123.635 53.3919 123.126 53.8478C122.935 54.0115 122.799 54.1985 122.764 54.4212C122.74 54.638 122.833 54.8698 123.032 55.1211C123.169 55.313 123.321 55.4827 123.498 55.6252ZM133.392 72.0956C133.418 72.094 133.461 72.0969 133.497 72.0895C134.847 72.0579 135.884 71.4342 136.374 70.543C136.81 69.7232 136.76 68.6949 136.073 67.736C135.956 67.8162 135.764 67.9537 135.625 68.0883C134.81 68.9089 133.874 70.4369 133.489 71.4165C133.426 71.5887 133.369 71.7971 133.354 71.8874C133.385 71.9645 133.393 72.0269 133.392 72.0956ZM133.946 68.1599C133.87 68.2169 133.785 68.28 133.715 68.3469C133.11 68.8979 132.666 69.7497 132.522 70.5365C132.869 69.7957 133.39 68.9132 133.946 68.1599ZM126.115 55.3247C125.742 55.6884 125.325 56.0233 124.879 56.3073C125.054 56.3287 125.211 56.319 125.371 56.268C125.728 56.1574 125.973 55.8539 126.115 55.3247ZM131.719 58.5902C131.596 58.471 131.325 58.3292 130.937 58.4307C130.651 58.4998 130.166 58.7385 129.741 59.132C129.307 59.5306 128.934 60.0836 128.868 60.7452C128.811 61.3061 128.948 61.9451 129.5 62.644C129.988 63.2572 130.507 63.5005 130.994 63.5457C131.49 63.585 131.985 63.4091 132.443 63.0506C133.14 62.4734 133.747 61.433 134.019 60.4915C134.19 59.9187 134.226 59.3695 134.141 58.9852C134.048 58.5644 133.82 58.262 133.506 58.1172C133.225 57.9812 132.813 57.9474 132.275 58.1893C132.13 58.2453 131.938 58.3828 131.719 58.5902ZM130.386 60.2511C130.336 60.3068 130.293 60.3725 130.255 60.4482C130.212 60.5142 130.184 60.5841 130.162 60.6644C130.223 60.5343 130.305 60.3929 130.386 60.2511ZM132.917 59.2829C132.88 59.2904 132.824 59.3094 132.793 59.3269C132.686 59.3754 132.542 59.5259 132.353 59.7158C132.006 60.0779 131.616 60.6001 131.335 61.1008C131.22 61.302 131.126 61.4913 131.079 61.6681C131.057 61.748 131.037 61.8545 131.034 61.8966C131.104 62.0189 131.138 62.1484 131.12 62.2808C131.309 62.2805 131.482 62.1809 131.637 62.0508C132.17 61.6357 132.592 60.8377 132.799 60.1364C132.878 59.8746 132.921 59.6192 132.919 59.404C132.938 59.3658 132.924 59.3195 132.917 59.2829ZM130.724 58.8378L130.738 58.8158C130.728 58.8216 130.718 58.8274 130.724 58.8378Z" fill="#FF914D"/>
</g>
</g>
</g>
</svg>
