<svg width="281" height="112" viewBox="0 0 281 112" fill="none" xmlns="http://www.w3.org/2000/svg">
<mask id="mask0_1010_2650" style="mask-type:luminance" maskUnits="userSpaceOnUse" x="126" y="18" width="132" height="129">
<path d="M173.396 18.5664L126.693 70.886L211.167 146.293L257.871 93.9735L173.396 18.5664Z" fill="white"/>
</mask>
<g mask="url(#mask0_1010_2650)">
<mask id="mask1_1010_2650" style="mask-type:luminance" maskUnits="userSpaceOnUse" x="141" y="26" width="91" height="114">
<path d="M141.003 32.8703L149.106 139.13L231.874 132.819L223.772 26.5594L141.003 32.8703Z" fill="white"/>
</mask>
<g mask="url(#mask1_1010_2650)">
<mask id="mask2_1010_2650" style="mask-type:luminance" maskUnits="userSpaceOnUse" x="141" y="26" width="91" height="114">
<path d="M141.003 32.8693L149.106 139.129L231.874 132.818L223.772 26.5585L141.003 32.8693Z" fill="white"/>
</mask>
<g mask="url(#mask2_1010_2650)">
<path d="M145.516 85.0385C146.197 86.7676 146.866 88.3315 147.834 89.4562C150.758 92.8792 155.856 94.4549 159.957 95.1743C162.015 95.5335 164.102 95.6075 166.142 95.9513C168.267 96.3057 170.356 96.8455 172.425 97.3368C175.509 98.0505 178.624 98.9451 181.311 100.572C182.095 101.028 182.972 101.394 183.729 101.935C185.582 103.309 187.269 104.912 188.737 106.698C189.686 107.791 190.403 109.118 191.297 110.365C191.67 110.886 191.867 111.503 192.237 111.991C192.797 112.781 193.076 113.825 193.6 114.584L193.806 115.101C194.348 115.875 194.628 116.936 195.19 117.742L197.768 122.307C198.198 122.924 198.405 123.674 198.816 124.259C199.227 124.843 199.372 125.431 199.762 125.968C201.081 127.765 202.221 129.393 203.789 130.522C204.37 130.943 205.017 131.344 205.629 131.73C205.821 131.848 206.091 131.894 206.299 132.012C206.841 132.337 207.427 132.608 208.025 132.812C210.981 133.586 214.091 134.198 217.469 133.957C217.932 133.921 218.287 133.778 218.783 133.724C220.43 133.498 223.033 132.484 224.299 131.405C225.39 130.423 226.3 129.255 226.999 127.953C227.23 127.486 227.443 127.003 227.605 126.508C228.173 125.217 228.619 123.867 228.964 122.492C229.153 121.696 229.422 120.859 229.559 120.033C230.315 115.764 230.209 111.094 229.885 106.407C229.723 104.289 229.279 102.175 229.034 100.046C228.793 97.9832 228.123 95.9698 227.814 93.8793C227.712 93.1878 227.445 92.5255 227.344 91.8673L225.266 84.2514C225.138 83.4455 224.751 82.7425 224.596 82.0217L223.67 79.2622C223.553 78.6049 223.13 77.8551 223.012 77.1814L222.685 76.3904C222.568 75.7335 222.068 75.0723 221.946 74.3328C221.77 73.347 221.114 72.1651 220.706 71.1807C220.468 70.4666 220.184 69.7892 219.818 69.1346C219.575 68.7865 219.481 68.2111 219.275 67.9106C218.9 67.3565 218.778 66.6331 218.457 66.1416C218.137 65.6502 217.905 64.7855 217.532 64.2643L217.051 63.2022C216.548 62.4917 216.225 61.5341 215.723 60.8397L215.251 59.8933L213.446 56.9677L211.169 53.7455C209.288 51.5579 207.62 49.338 205.66 47.423C202.693 44.5363 199.389 42.2576 196.407 39.3887C194.124 37.1817 191.921 35.1356 189.373 33.5989C187.72 32.6592 185.936 31.9795 184.074 31.5721C183.396 31.4075 182.693 31.1445 182.001 31.0147C179.57 30.5839 177.124 30.3706 174.659 30.3588C173.993 30.3599 173.421 30.5031 172.725 30.5396C171.186 30.6572 169.519 31.0673 167.889 31.308C167.264 31.4058 166.787 31.7083 166.147 31.8235C165.378 31.9988 164.616 32.2734 163.892 32.5951L163.166 32.9C162.233 33.5539 161.043 33.8774 160.177 34.5264C158.802 35.4967 157.503 36.5782 156.295 37.7688C155.061 39.0454 154.18 40.594 153.273 42.0114C151.636 44.5669 150.167 47.5755 149.494 50.5237C149.119 52.1672 148.916 53.864 148.643 55.5328C148.532 56.2572 148.603 56.9677 148.476 57.7099C148.335 58.6864 148.26 59.6742 148.235 60.6582C148.226 61.1917 148.36 61.8641 148.3 62.3846L147.685 63.6969C147.332 64.5394 147.031 65.3949 146.782 66.2795C146.717 66.5173 146.536 66.7643 146.471 67.0021C145.997 68.8531 145.457 70.7256 145.118 72.616C144.931 73.6625 144.829 74.7193 144.659 75.764C144.624 76.1827 144.606 76.6007 144.623 77.0323C144.563 78.6516 144.619 80.2623 144.809 81.8788L145.267 84.1748C145.323 84.4701 145.563 84.7849 145.516 85.0385Z" fill="#004AAD"/>
</g>
</g>
</g>
<mask id="mask3_1010_2650" style="mask-type:luminance" maskUnits="userSpaceOnUse" x="38" y="27" width="200" height="204">
<path d="M147.596 27.3633L38.4583 149.624L128.746 230.22L237.883 107.96L147.596 27.3633Z" fill="white"/>
</mask>
<g mask="url(#mask3_1010_2650)">
<mask id="mask4_1010_2650" style="mask-type:luminance" maskUnits="userSpaceOnUse" x="45" y="32" width="185" height="194">
<path d="M143.095 32.2709L45.7695 159.483L132.511 225.846L229.837 98.6346L143.095 32.2709Z" fill="white"/>
</mask>
<g mask="url(#mask4_1010_2650)">
<mask id="mask5_1010_2650" style="mask-type:luminance" maskUnits="userSpaceOnUse" x="38" y="27" width="200" height="204">
<path d="M38.4622 149.628L147.6 27.3672L237.887 107.963L128.75 230.224L38.4622 149.628Z" fill="white"/>
</mask>
<g mask="url(#mask5_1010_2650)">
<mask id="mask6_1010_2650" style="mask-type:luminance" maskUnits="userSpaceOnUse" x="43" y="33" width="187" height="190">
<path d="M146.301 33.3906L43.4878 148.566L126.509 222.676L229.322 107.5L146.301 33.3906Z" fill="white"/>
</mask>
<g mask="url(#mask6_1010_2650)">
<mask id="mask7_1010_2650" style="mask-type:luminance" maskUnits="userSpaceOnUse" x="45" y="32" width="185" height="194">
<path d="M143.095 32.2738L45.7694 159.486L132.511 225.849L229.837 98.6374L143.095 32.2738Z" fill="white"/>
</mask>
<g mask="url(#mask7_1010_2650)">
<mask id="mask8_1010_2650" style="mask-type:luminance" maskUnits="userSpaceOnUse" x="45" y="32" width="185" height="194">
<path d="M45.7421 159.52L143.068 32.308L229.81 98.6716L132.484 225.883L45.7421 159.52Z" fill="white"/>
</mask>
<g mask="url(#mask8_1010_2650)">
<path d="M112.853 72.3793C115.182 69.3355 117.442 66.2383 119.84 63.2468C125.341 56.4872 132.775 51.6451 141.246 49.4612C142.801 49.0055 144.319 48.7416 145.944 48.3389C151.41 46.9277 156.56 47.7958 161.553 50.3C174.126 56.5187 184.413 66.5832 190.862 79.0852C192.933 82.9733 194.793 87.1374 196.513 91.1962C198.865 96.7247 200.15 102.643 200.213 108.725C200.314 112.75 200.293 116.792 200.272 120.834C200.238 128.047 198.917 134.934 194.833 141.132C191.791 145.825 188.941 150.554 185.968 155.299C182.609 160.407 178.228 164.843 173.09 168.261C167.301 172.387 161.357 176.285 155.568 180.411C149.429 184.708 142.329 187.393 134.848 188.141C129.58 188.717 124.265 188.928 119.034 189.313C114.483 189.67 109.952 189.714 105.52 190.49C94.3011 192.108 80.5808 185.669 75.0034 173.176C74.405 171.95 73.9984 170.762 73.6975 169.435C72.2379 161.737 73.0456 153.8 75.9906 146.51C76.0799 146.25 76.1695 145.989 76.3285 145.782C79.1337 142.115 80.291 137.735 81.9689 133.535C84.6652 126.714 87.4302 119.945 90.1429 113.246C91.9104 108.785 93.4178 104.234 95.515 99.916C98.1292 94.3485 101.196 88.9069 104.209 83.5347C105.659 81.3532 107.125 79.2941 108.851 77.3243L112.662 72.343L112.8 72.4487L112.853 72.3793Z" fill="#F8EA2B"/>
</g>
</g>
</g>
</g>
</g>
</g>
<mask id="mask9_1010_2650" style="mask-type:luminance" maskUnits="userSpaceOnUse" x="111" y="41" width="162" height="165">
<path d="M198.508 41.6357L111.182 139.462L184.938 205.302L272.264 107.475L198.508 41.6357Z" fill="white"/>
</mask>
<g mask="url(#mask9_1010_2650)">
<mask id="mask10_1010_2650" style="mask-type:luminance" maskUnits="userSpaceOnUse" x="111" y="41" width="179" height="183">
<path d="M111.92 179.72L242.576 223.797L289.367 85.0937L158.711 41.0166L111.92 179.72Z" fill="white"/>
</mask>
<g mask="url(#mask10_1010_2650)">
<mask id="mask11_1010_2650" style="mask-type:luminance" maskUnits="userSpaceOnUse" x="111" y="41" width="179" height="183">
<path d="M111.918 179.719L242.574 223.796L289.365 85.0927L158.709 41.0157L111.918 179.719Z" fill="white"/>
</mask>
<g mask="url(#mask11_1010_2650)">
<path d="M149.908 133.097C180.809 160.774 141.636 167.929 163.65 186.235C185.662 204.542 212.442 186.862 218.488 154.257C222.442 132.884 280.351 111.764 247.942 85.9989C215.533 60.2342 201.561 92.0854 175.418 88.2471C144.308 83.7072 133.943 118.807 149.908 133.097Z" fill="#9AE85D"/>
</g>
</g>
</g>
<mask id="mask12_1010_2650" style="mask-type:luminance" maskUnits="userSpaceOnUse" x="-17" y="50" width="252" height="253">
<path d="M107.516 50.502L-16.0544 188.931L111.383 302.69L234.954 164.261L107.516 50.502Z" fill="white"/>
</mask>
<g mask="url(#mask12_1010_2650)">
<mask id="mask13_1010_2650" style="mask-type:luminance" maskUnits="userSpaceOnUse" x="3" y="76" width="190" height="197">
<path d="M3.34133 237.699L155.587 272.006L192.001 110.406L39.7554 76.0998L3.34133 237.699Z" fill="white"/>
</mask>
<g mask="url(#mask13_1010_2650)">
<mask id="mask14_1010_2650" style="mask-type:luminance" maskUnits="userSpaceOnUse" x="-17" y="50" width="252" height="253">
<path d="M-16.0585 188.929L107.512 50.5L234.95 164.259L111.38 302.688L-16.0585 188.929Z" fill="white"/>
</mask>
<g mask="url(#mask14_1010_2650)">
<mask id="mask15_1010_2650" style="mask-type:luminance" maskUnits="userSpaceOnUse" x="13" y="89" width="185" height="188">
<path d="M111.799 89.5771L13.2021 200.029L98.8572 276.491L197.454 166.038L111.799 89.5771Z" fill="white"/>
</mask>
<g mask="url(#mask15_1010_2650)">
<mask id="mask16_1010_2650" style="mask-type:luminance" maskUnits="userSpaceOnUse" x="3" y="76" width="189" height="197">
<path d="M3.33938 237.694L155.585 272.001L191.999 110.401L39.7535 76.0949L3.33938 237.694Z" fill="white"/>
</mask>
<g mask="url(#mask16_1010_2650)">
<mask id="mask17_1010_2650" style="mask-type:luminance" maskUnits="userSpaceOnUse" x="3" y="76" width="189" height="196">
<path d="M191.98 110.377L39.7339 76.0705L3.31985 237.67L155.565 271.976L191.98 110.377Z" fill="white"/>
</mask>
<g mask="url(#mask17_1010_2650)">
<path d="M154.677 167.308C116.651 139.775 159.906 127.131 132.983 109.104C106.059 91.0777 77.9874 114.117 75.0026 151.527C73.0561 176.048 10.3466 206.606 49.846 231.81C89.3451 257.014 101.341 219.525 131.218 220.782C166.768 222.247 174.323 181.523 154.677 167.308Z" fill="#9AE85D"/>
</g>
</g>
</g>
</g>
</g>
</g>
<mask id="mask18_1010_2650" style="mask-type:luminance" maskUnits="userSpaceOnUse" x="127" y="30" width="75" height="76">
<path d="M168.146 30.8535L127.929 75.9064L161.356 105.745L201.573 60.692L168.146 30.8535Z" fill="white"/>
</mask>
<g mask="url(#mask18_1010_2650)">
<mask id="mask19_1010_2650" style="mask-type:luminance" maskUnits="userSpaceOnUse" x="130" y="32" width="71" height="76">
<path d="M155.895 32.6234L130.001 85.5265L174.948 107.526L200.842 54.6228L155.895 32.6234Z" fill="white"/>
</mask>
<g mask="url(#mask19_1010_2650)">
<mask id="mask20_1010_2650" style="mask-type:luminance" maskUnits="userSpaceOnUse" x="130" y="32" width="71" height="76">
<path d="M155.897 32.6234L130.003 85.5265L174.95 107.526L200.844 54.6228L155.897 32.6234Z" fill="white"/>
</mask>
<g mask="url(#mask20_1010_2650)">
<path fill-rule="evenodd" clip-rule="evenodd" d="M190.882 66.2757C190.901 66.0755 191.005 65.9436 191.083 65.8644C191.208 65.7425 191.553 65.545 191.949 65.8567C192.203 66.0596 193 67.0768 193.344 68.0561C193.607 68.7994 193.582 69.519 193.203 69.974C192.943 70.2913 192.488 70.5263 191.737 70.5116C191.206 70.5003 190.711 70.2838 190.34 69.9191C188.9 68.5348 189.563 66.8591 190.447 66.4155C190.599 66.3463 190.74 66.2978 190.882 66.2757ZM191.331 69.0969C191.294 69.0657 191.257 69.0348 191.231 69.0086C190.77 68.5608 190.687 68.0626 190.852 67.7251C190.909 67.6094 190.976 67.4985 191.076 67.508C191.128 67.5077 191.181 67.5596 191.234 67.6118C191.33 67.7105 191.405 67.8518 191.474 68.0298C191.581 68.2915 191.468 68.5236 191.412 68.7447C191.376 68.871 191.346 68.9866 191.331 69.0969ZM192.503 54.976C192.59 54.6655 192.693 54.4545 192.802 54.3119C193.02 54.0267 193.271 53.9404 193.524 53.9328C193.744 53.9365 194.002 54.0236 194.241 54.258C194.506 54.5181 194.788 55.0357 195.019 55.6848C195.396 56.732 195.628 58.1272 195.494 59.0416C195.395 59.7253 195.089 60.1903 194.665 60.3878C194.262 60.57 193.674 60.5697 192.882 60.0251C192.365 59.6671 191.607 58.8912 191.086 58.0867C190.702 57.4805 190.455 56.8629 190.462 56.3694C190.474 55.3033 190.89 54.8532 191.261 54.7085C191.586 54.5796 192.044 54.6598 192.503 54.976ZM182.408 72.0506L182.417 72.0294C182.542 71.8287 182.761 71.6745 183.097 71.682C183.402 71.7008 183.982 71.9848 184.162 72.0986C186.011 73.3695 187.352 76.1048 185.378 78.028C185.149 78.2559 184.861 78.3894 184.552 78.4602C184.521 78.5498 184.464 78.6393 184.407 78.7291C184.215 79.0145 183.817 79.0809 183.531 78.8893C183.367 78.7695 183.266 78.5762 183.265 78.3924C183.091 78.3467 182.912 78.2851 182.764 78.2126C182.179 77.9658 181.665 77.387 181.307 76.6497C180.815 75.6509 180.584 74.387 180.734 73.4932C180.849 72.8043 181.176 72.3235 181.636 72.1307C181.84 72.0342 182.102 72.0059 182.408 72.0506ZM184.627 74.3264C184.888 74.7287 185.07 75.1579 185.105 75.5935C185.14 76.0291 185.045 76.4657 184.727 76.8731C184.816 76.1314 184.839 75.1754 184.627 74.3264ZM191.74 55.9752C191.771 55.9906 191.809 56.0219 191.835 56.048C192.004 56.1829 192.179 56.36 192.338 56.5685C192.773 57.1215 193.174 57.8537 193.326 58.4774C193.364 58.6133 193.381 58.7394 193.387 58.8603C192.985 58.5327 192.471 57.9805 192.109 57.4109C191.87 57.0455 191.678 56.6899 191.691 56.3957C191.705 56.2329 191.725 56.0856 191.74 55.9752ZM193.435 55.9293C193.524 55.8549 193.597 55.7598 193.643 55.6386C193.809 55.9943 193.96 56.4607 194.08 56.9373C193.887 56.5821 193.664 56.2373 193.435 55.9293ZM183.454 77.1252C183.385 77.1048 183.322 77.0737 183.264 77.0585C182.921 76.9038 182.645 76.5334 182.431 76.0888C182.057 75.3305 181.86 74.3712 181.969 73.6926C181.984 73.5823 182.01 73.4768 182.051 73.3926C182.072 73.3503 182.087 73.2925 182.129 73.2868C182.181 73.2602 182.26 73.2861 182.334 73.322C182.466 73.3734 182.613 73.4456 182.777 73.565C183.11 73.7933 183.281 74.1649 183.39 74.5839C183.591 75.3489 183.551 76.2577 183.462 76.894C183.463 76.9728 183.452 77.0464 183.454 77.1252ZM174.876 79.3717C175.242 79.2637 175.64 79.1451 176.029 79.1261C176.49 79.0905 176.943 79.1551 177.339 79.388C177.74 79.6101 178.09 79.9908 178.342 80.6239C178.938 82.1313 178.244 83.361 177.084 84.0483C175.997 84.6927 174.491 84.8316 173.368 84.2685C171.759 83.4684 171.207 82.0863 171.14 80.4068C171.101 79.5248 171.38 79.0077 171.74 78.7263C172.121 78.4288 172.667 78.3561 173.283 78.5401C173.767 78.6726 174.326 78.9724 174.876 79.3717ZM183.723 56.8884C183.443 56.7125 183.356 56.3298 183.537 56.0396C183.719 55.749 184.106 55.6513 184.397 55.8328C185.373 56.4283 186.626 57.3944 187.282 58.5389C187.783 59.4119 187.949 60.3817 187.516 61.3727C187.263 61.9684 186.988 62.3175 186.649 62.5567C186.315 62.7851 185.891 62.9042 185.271 62.9673C183.723 63.1117 182.844 62.2894 182.41 61.2008C182.023 60.2273 182.055 59.0138 182.311 58.1713C182.428 57.7712 182.609 57.4548 182.802 57.2481C183.015 57.0259 183.256 56.9085 183.503 56.8854C183.571 56.8795 183.649 56.8787 183.723 56.8884ZM176.034 80.3701C176.286 80.3367 176.528 80.3506 176.739 80.4801C176.924 80.5834 177.062 80.7818 177.18 81.0752C177.33 81.4362 177.327 81.7618 177.235 82.0563C177.042 81.5697 176.633 80.99 176.103 80.4433L176.034 80.3701ZM175.628 83.2833C175.052 83.4191 174.442 83.3826 173.925 83.1296C172.781 82.5562 172.442 81.5406 172.384 80.3487C172.377 80.1757 172.387 80.0232 172.407 79.9021C172.422 79.8181 172.442 79.7496 172.484 79.7179C172.588 79.6382 172.746 79.6895 172.915 79.7457C173.131 79.8119 173.357 79.9099 173.594 80.0393C173.554 80.15 173.549 80.2655 173.582 80.3859C173.664 80.7266 174.007 80.9338 174.337 80.8471C174.426 80.8252 174.504 80.7985 174.609 80.771C174.81 80.9479 175.006 81.1355 175.181 81.3125C175.526 81.677 175.822 82.058 175.988 82.3871C176.02 82.4554 176.053 82.5499 176.069 82.623C175.786 82.6937 175.594 82.9791 175.628 83.2833ZM184.6 57.4746C185.07 57.8225 185.53 58.2441 185.892 58.7083C186.391 59.345 186.696 60.0825 186.367 60.8625C186.326 60.947 186.295 61.0367 186.258 61.1102C185.946 60.1992 185.37 59.1327 185.032 58.2744C184.882 57.9396 184.738 57.6733 184.6 57.4746ZM183.604 58.2813C183.678 58.3963 183.779 58.5634 183.849 58.7413C184.214 59.652 184.875 60.8124 185.114 61.7134C183.618 61.8312 183.285 60.3218 183.386 59.2075C183.404 58.9026 183.464 58.6186 183.547 58.3974C183.567 58.3554 183.588 58.3128 183.604 58.2813ZM165.189 87.0634C165.209 87.0214 165.241 86.9843 165.267 86.9579C165.568 86.6086 166.166 86.4565 166.876 86.6605C167.624 86.8693 168.537 87.4343 169.142 88.2276C169.796 89.0829 170.093 90.1571 169.562 91.2699C169.175 92.0871 168.643 92.4801 168.076 92.5951C167.537 92.7099 166.926 92.568 166.346 92.2317C165.369 91.6623 164.42 90.5307 163.939 89.537C163.725 89.0924 163.601 88.6787 163.582 88.3429C163.569 87.996 163.64 87.7171 163.795 87.5062C163.967 87.263 164.238 87.0822 164.637 87.0418C164.774 87.004 164.968 87.0078 165.189 87.0634ZM178.989 68.9655C178.963 69.0178 178.932 69.055 178.906 69.1077C178.719 69.3823 178.342 69.459 178.062 69.2832C177.564 69.366 177.049 69.3757 176.645 69.3999C174.981 69.5138 173.779 68.9255 173.031 68.1022C172.157 67.1378 171.894 65.8589 172.201 64.8582C172.184 64.7847 172.178 64.7167 172.188 64.643C172.38 63.1291 173.618 62.3885 175.173 62.3388C176.391 62.3071 177.786 62.7154 178.806 63.4371C179.545 63.9556 180.086 64.6391 180.293 65.42C180.602 66.5781 180.346 67.368 179.671 68.3451C179.485 68.6197 179.255 68.8211 178.989 68.9655ZM167.341 88.2217C167.468 88.3361 167.579 88.4561 167.691 88.5758C168.179 89.1281 168.272 89.6843 168.582 90.2539C168.68 89.413 168.022 88.6725 167.341 88.2217ZM164.847 88.2688C164.873 88.2687 164.91 88.2736 164.931 88.2842C164.979 88.294 165.026 88.3041 165.084 88.3197C165.133 88.4874 165.202 88.665 165.293 88.8532C165.443 89.162 165.822 89.2955 166.131 89.1456C166.214 89.1082 166.277 89.0601 166.334 88.997C166.493 89.1267 166.631 89.2725 166.758 89.4135C167.176 89.893 167.223 90.3866 167.495 90.8724C167.543 90.961 167.577 91.213 167.588 91.2969L167.583 91.3077C167.577 91.3181 167.572 91.3285 167.583 91.3339L167.573 91.3547C167.378 91.325 167.183 91.2428 166.977 91.1288C166.46 90.8233 165.962 90.318 165.569 89.7858C165.277 89.3944 165.047 88.9813 164.929 88.6098C164.875 88.505 164.853 88.3634 164.847 88.2688ZM176.182 63.6953C176.85 63.8265 177.529 64.0939 178.074 64.4777C178.56 64.8203 178.942 65.2423 179.083 65.7557C179.196 66.1906 179.178 66.548 179.06 66.8956C178.974 66.6704 178.873 66.4508 178.74 66.2154C178.122 65.181 177.073 64.1975 176.182 63.6953ZM183.998 47.2445C184.019 47.2022 184.05 47.1651 184.076 47.1387C184.165 47.0383 184.29 46.9426 184.463 46.9096C184.594 46.8823 184.825 46.8911 185.099 46.9988C185.442 47.1273 185.89 47.3858 186.07 47.5003C187.232 48.3041 187.292 49.7845 186.713 50.8347C186.299 51.5733 185.578 52.0571 184.774 52.0168C184.291 51.9893 183.758 51.7679 183.229 51.2212C182.715 50.6953 182.184 49.455 182.103 48.5525C182.045 47.8703 182.282 47.3587 182.648 47.1456C182.93 46.9962 183.381 46.9295 183.998 47.2445ZM178.004 68.0125C177.946 68.0235 177.899 68.04 177.841 68.051C177.396 68.1332 176.913 68.1323 176.545 68.1616C175.742 68.2263 175.079 68.0585 174.567 67.7685C173.76 67.308 173.333 66.4978 173.306 65.7785C173.286 65.3639 173.393 64.9846 173.67 64.7409C173.988 64.4652 174.486 64.4083 175.16 64.6075C175.913 64.832 177.04 65.815 177.631 66.8499C177.871 67.2419 178.048 67.6553 178.004 68.0125ZM185.359 48.5248C185.681 48.7478 185.815 49.0619 185.828 49.3821C185.71 49.089 185.54 48.7965 185.359 48.5248ZM183.372 48.3367C183.478 48.3883 183.604 48.4502 183.72 48.5336C184.064 48.7667 184.516 49.4195 184.747 50.0427C184.811 50.2311 184.855 50.4091 184.867 50.5718C184.862 50.6348 184.868 50.7031 184.842 50.7558C184.616 50.737 184.394 50.602 184.14 50.347C183.844 50.0448 183.565 49.4118 183.429 48.8351C183.396 48.6884 183.379 48.4835 183.372 48.3367ZM157.734 91.7167C157.827 91.5268 157.978 91.4047 158.141 91.3399C158.376 91.2332 158.765 91.2405 159.182 91.5099C159.699 91.8417 160.368 92.6395 160.627 93.4986C160.816 94.1531 160.785 94.8313 160.381 95.4174C160.028 95.9245 159.636 96.1906 159.233 96.2937C158.814 96.4023 158.382 96.3483 157.956 96.1522C156.99 95.6929 156.05 94.3827 155.652 93.299C155.432 92.7075 155.37 92.167 155.467 91.8355C155.548 91.5355 155.709 91.3397 155.95 91.2223C156.242 91.078 156.794 91.0468 157.586 91.5916C157.618 91.607 157.671 91.6593 157.734 91.7167ZM164.807 69.9729C164.802 69.9574 164.791 69.926 164.791 69.8997C164.736 69.5589 164.948 69.2316 165.294 69.1655C167.591 68.7465 169.675 69.8057 170.46 71.4585C170.995 72.5833 170.965 74.0065 169.964 75.4646L169.954 75.4854C169.897 75.6018 169.819 75.7335 169.72 75.855C169.507 76.1039 169.215 76.3269 169.215 76.3269C168.985 76.502 168.665 76.4888 168.443 76.3017C168.118 76.4305 167.746 76.4965 167.294 76.511C164.343 76.5571 161.923 73.5686 163.869 70.7423C164.123 70.357 164.441 70.1075 164.807 69.9729ZM158.499 92.7182C158.546 92.7021 158.583 92.6808 158.619 92.6595C158.656 92.6908 158.693 92.722 158.73 92.7532C159 93.003 159.261 93.379 159.401 93.7871C159.481 94.023 159.515 94.2748 159.454 94.5063C159.443 94.4749 159.433 94.4435 159.422 94.4121C159.25 93.9617 158.877 93.2822 158.499 92.7182ZM168.704 74.2725C168.648 74.5198 168.529 74.7361 168.357 74.9001C168.118 75.1229 167.762 75.2361 167.262 75.2405C165.288 75.2679 163.586 73.3231 164.888 71.4373C165.158 71.0464 165.541 71.0378 165.947 71.1974C165.916 71.2871 165.896 71.3815 165.876 71.4763C165.8 71.8185 166.018 72.1474 166.36 72.2233C166.634 72.2788 166.906 72.1506 167.035 71.9128C167.638 72.4435 168.185 73.1428 168.511 73.8118C168.596 73.9845 168.656 74.131 168.704 74.2725ZM156.796 92.5648C156.807 92.5699 156.827 92.5802 156.838 92.5853L156.859 92.5959C156.881 92.6321 157.348 93.2008 157.63 93.6659C157.87 94.0575 158.132 94.6173 158.244 94.8424L158.207 94.8111C157.816 94.515 157.46 94.04 157.182 93.5646C157.007 93.2562 156.872 92.8371 156.78 92.5438L156.796 92.5648ZM171.709 53.2829C171.807 53.1086 171.932 52.987 172.073 52.8857C172.438 52.6463 173.021 52.6311 173.669 52.9353C174.566 53.3479 175.64 54.3312 176.142 55.3615C176.437 55.9633 176.536 56.5872 176.373 57.1348C176.204 57.6927 175.778 58.2164 174.914 58.5649L174.878 58.5865C174.807 58.8391 174.704 59.076 174.548 59.2877C174.356 59.5727 173.957 59.6391 173.672 59.4471C173.456 59.3021 173.364 59.0351 173.415 58.7981C172.627 58.7785 171.785 58.5494 171.088 58.1563C169.811 57.4267 169.002 56.1676 169.613 54.5454C169.87 53.8605 170.271 53.4945 170.716 53.3331C171.009 53.2155 171.356 53.2015 171.709 53.2829ZM173.096 54.0535C173.149 54.0794 173.191 54.1 173.244 54.1256C173.402 54.2032 173.56 54.3067 173.724 54.4264C174.216 54.7846 174.703 55.3111 174.981 55.8387C175.173 56.1943 175.281 56.561 175.126 56.8774C175.079 56.9723 175.012 57.057 174.913 57.1259C174.891 57.0369 174.869 56.9478 174.848 56.8591C174.582 55.8266 173.879 54.7508 173.096 54.0535ZM173.714 57.5459C173.058 57.5777 172.311 57.3951 171.714 57.0641C170.97 56.6344 170.439 55.9298 170.794 54.9921C170.891 54.7394 171 54.5701 171.157 54.5164C171.44 54.4196 171.756 54.6007 172.089 54.8553C172.776 55.3742 173.42 56.3038 173.648 57.1997C173.675 57.3049 173.692 57.4303 173.714 57.5459ZM172.496 45.8504C172.417 45.8249 172.348 45.7783 172.285 45.7209C171.962 45.4189 171.959 45.1041 172.026 44.8881C172.097 44.6617 172.352 44.3549 172.887 44.2771C173.616 44.1764 175.236 44.4197 176.434 45.1501C177.226 45.6422 177.831 46.3304 177.996 47.2218C178.1 47.8094 178.027 48.4926 177.64 49.2833C177.326 49.9267 176.959 50.0347 176.324 50.1556C174.945 50.4089 173.958 49.8084 173.305 48.9265C172.709 48.1121 172.433 47.0485 172.453 46.2864C172.446 46.1396 172.466 45.9923 172.496 45.8504ZM155.602 78.6845C156.176 78.2333 157.025 78.1002 157.914 78.3132C159.204 78.6173 160.557 79.6192 160.978 81.0283C161.259 81.9767 161.148 83.1118 160.297 84.3428C159.722 85.1721 158.819 85.3321 157.891 85.4134C153.897 85.7729 151.821 82.9914 152.055 80.9623C152.168 79.9845 152.77 79.1284 153.932 78.7304C154.482 78.5678 155.034 78.5635 155.602 78.6845ZM174.828 45.7886C175.175 45.9063 175.528 46.0665 175.845 46.2736C176.262 46.5433 176.617 46.8867 176.747 47.3425C176.855 47.7358 176.791 48.1878 176.522 48.736C176.43 48.9261 176.287 48.8958 176.099 48.9341C176.083 48.9394 176.057 48.9399 176.041 48.9452C176.06 48.7457 175.99 48.5411 175.837 48.4006C175.81 48.3482 175.686 48.0396 175.611 47.8195C175.401 47.1284 175.178 46.2744 174.939 45.9346C174.891 45.8723 174.859 45.8303 174.828 45.7886ZM157.305 79.4789C157.415 79.4939 157.526 79.5085 157.631 79.5339C158.525 79.7364 159.487 80.4162 159.768 81.3903C159.866 81.726 159.884 82.0881 159.793 82.4877C159.766 82.4094 159.729 82.3256 159.691 82.2418C159.274 81.358 158.372 80.2366 157.305 79.4789ZM158.536 84.0947C158.29 84.1444 158.033 84.1623 157.775 84.18C155.214 84.4175 153.612 83.0707 153.327 81.7024C153.169 80.9578 153.488 80.2252 154.331 79.9453C154.514 79.8908 154.698 79.8632 154.882 79.8619C154.831 80.0723 154.812 80.3243 154.825 80.592C154.838 80.9386 155.125 81.2093 155.471 81.1958C155.817 81.1825 156.088 80.8963 156.074 80.5501C156.068 80.4292 156.078 80.3293 156.088 80.2297C156.937 80.6845 157.705 81.4659 158.194 82.2021C158.391 82.4944 158.541 82.7767 158.642 83.0229C158.669 83.1012 158.691 83.1902 158.708 83.2641C158.509 83.402 158.39 83.6445 158.435 83.9014C158.461 83.9541 158.488 84.0324 158.536 84.0947ZM148.308 89.3125C148.358 88.9971 148.498 88.7911 148.665 88.6634C148.832 88.536 149.047 88.4713 149.304 88.4796C149.593 88.5033 149.983 88.6681 150.427 88.9899C151.384 89.7067 152.625 91.2296 153.094 92.5959C153.482 93.7273 153.354 94.763 152.503 95.4054C152.19 95.6445 151.755 95.7321 151.219 95.6265C150.372 95.4603 149.205 94.7719 148.205 93.9029C147.354 93.1593 146.616 92.2886 146.289 91.5404C145.979 90.8395 145.995 90.2198 146.306 89.7707C146.576 89.3798 146.905 89.188 147.262 89.127C147.587 89.0769 147.934 89.1424 148.308 89.3125ZM163.256 57.8918C163.797 56.6794 164.613 56.2683 165.385 56.2933C166.493 56.3257 167.695 57.4238 168.159 58.8796C168.52 60.0371 168.448 61.3876 167.517 62.4873C167.305 63.4819 166.665 64.2017 165.515 64.1746C165.373 64.1706 164.967 64.0635 164.551 63.9517C164.221 63.9334 163.873 63.8416 163.52 63.6821C162.17 63.0476 161.379 62.0195 161.224 61.002C161.057 59.9268 161.546 58.7938 162.958 58.0202C163.057 57.9775 163.156 57.9348 163.256 57.8918ZM173.746 46.4489C173.794 46.5119 173.831 46.5694 173.889 46.6368C173.958 46.736 174.023 46.9246 174.088 47.1392C174.212 47.527 174.331 47.9773 174.45 48.3492C174.238 48.1147 174.083 47.8432 173.96 47.5608C173.821 47.2309 173.77 46.7743 173.746 46.4489ZM149.291 90.0288C149.354 89.9808 149.411 89.9176 149.458 89.849L149.468 89.8541C149.711 89.999 149.986 90.238 150.277 90.5247C151.014 91.2641 151.79 92.3495 152.002 93.3039C152.051 93.5238 152.08 93.7337 152.044 93.9126C151.894 93.5778 151.67 93.1543 151.388 92.6893C150.823 91.7855 150.054 90.7418 149.291 90.0288ZM150.765 94.1495C150.206 93.8757 149.593 93.4453 149.032 92.9613C148.329 92.3427 147.714 91.649 147.441 91.0318C147.382 90.9115 147.349 90.7908 147.327 90.6755C147.311 90.6023 147.305 90.5339 147.347 90.476C147.383 90.4281 147.414 90.3913 147.451 90.37C147.545 90.3374 147.64 90.3839 147.756 90.441C148.02 90.5699 148.3 90.7989 148.57 91.0746C149.407 91.9026 150.237 93.1719 150.69 94.0082C150.717 94.0603 150.749 94.1022 150.765 94.1495ZM163.841 62.4398C162.917 61.9488 162.375 61.2129 162.464 60.4719C162.517 59.9618 162.891 59.4916 163.566 59.1283C163.942 58.9204 164.462 58.9269 164.881 58.8442C165.065 58.8166 165.228 58.936 165.382 59.1028C165.795 59.5142 166.106 60.2151 166.248 60.9124C166.32 61.2476 166.354 61.5784 166.331 61.8937C166.132 62.0845 165.903 62.2595 165.62 62.4093C165.281 62.5956 164.966 62.7034 164.641 62.701C164.283 62.5781 163.925 62.4549 163.841 62.4398ZM165.102 57.5924C165.133 57.5818 165.165 57.571 165.196 57.5604C165.516 57.4948 165.827 57.6597 166.123 57.9094C166.446 58.1852 166.722 58.5818 166.889 59.0426C166.708 58.7187 166.495 58.4316 166.278 58.2075C165.918 57.8479 165.512 57.6365 165.102 57.5924ZM151.356 66.0171L151.392 65.943C151.977 64.935 152.89 64.1923 153.918 64.0155C154.233 63.9606 154.558 63.963 154.884 64.0176C155.024 63.7853 155.201 63.6368 155.39 63.5726C155.735 63.4277 156.229 63.4866 156.726 63.8602C157.466 64.4058 158.343 65.6849 158.617 67.074C158.843 68.1907 158.705 69.3788 157.894 70.3151C157.456 71.3165 156.565 72.0697 155.247 72.1179C153.326 72.1972 152.112 71.5771 151.427 70.7061L151.412 70.6851C150.497 70.0154 149.923 69.1065 149.91 68.2243C149.92 67.4837 150.306 66.6665 151.356 66.0171ZM152.304 66.9123C152.508 66.8158 152.738 66.7196 153.005 66.628C154.414 66.1536 155.434 66.3134 156.1 66.8486C156.185 66.9159 156.259 66.9784 156.328 67.0513C156.417 67.6704 156.276 68.3332 155.944 68.8243C155.752 69.1097 155.823 69.4978 156.104 69.7002C156.278 69.8247 156.493 69.8388 156.682 69.7738C156.572 69.8643 156.447 69.9596 156.316 70.0394C155.031 70.8224 153.432 70.5106 152.339 69.8055L152.328 69.8004C151.791 68.9753 151.871 67.8508 152.304 66.9123ZM162.19 44.9245C162.211 44.8819 162.226 44.8503 162.252 44.8239C162.387 44.6287 162.607 44.5007 162.901 44.4877C163.158 44.4698 163.568 44.5923 164.022 44.8667C164.814 45.3587 165.836 46.3427 166.296 47.3524C166.666 48.1739 166.689 49.0083 166.175 49.7112C165.873 50.113 165.383 50.4746 164.613 50.7382C163.115 51.2341 162.013 50.629 161.316 49.6216C160.678 48.7078 160.426 47.4337 160.565 46.5082C160.684 45.6775 161.115 45.1171 161.713 44.965C161.843 44.9115 162.006 44.8995 162.19 44.9245ZM164.502 46.9054C164.719 47.1555 164.916 47.4219 165.06 47.6883C165.268 48.0649 165.392 48.4523 165.248 48.8004C165.16 49.0058 164.978 49.1913 164.701 49.3303C164.777 48.9881 164.805 48.6361 164.781 48.2582C164.746 47.8752 164.663 47.3766 164.502 46.9054ZM163.264 49.5943C162.885 49.4871 162.568 49.2272 162.339 48.8932C161.898 48.2456 161.702 47.365 161.785 46.7132C161.805 46.5659 161.84 46.4396 161.882 46.3291C161.918 46.255 161.938 46.1865 162.001 46.1654C162.069 46.1332 162.153 46.1746 162.264 46.2155C162.49 46.3135 162.75 46.5053 163.041 46.7919C163.157 46.9012 163.237 47.0842 163.308 47.2622C163.442 47.6288 163.498 48.0484 163.516 48.3582C163.557 48.8094 163.482 49.2303 163.264 49.5943ZM143.143 79.6986C143.237 79.6138 143.373 79.5495 143.583 79.548C143.809 79.5406 144.624 79.6648 145.17 80.3116C145.51 80.7131 145.762 81.3203 145.628 82.235C145.564 82.7399 145.404 83.1195 145.16 83.4048C144.947 83.6534 144.659 83.8398 144.277 83.9531C144.183 84.0642 144.048 84.1547 143.89 84.1825C143.702 84.2205 143.517 84.1697 143.38 84.0501C142.513 84.005 141.815 83.5066 141.332 82.8384C140.779 82.0714 140.524 81.0703 140.571 80.3609C140.627 79.6304 141.001 79.1599 141.515 79.0455C141.866 78.969 142.44 79.0796 143.143 79.6986ZM144.042 80.9883C144.142 81.0504 144.227 81.1442 144.291 81.2538C144.392 81.4471 144.42 81.7096 144.382 82.0568C144.367 82.193 144.342 82.3248 144.295 82.4197C144.288 82.2204 144.271 82.0155 144.249 81.8214C144.204 81.538 144.144 81.2605 144.042 80.9883ZM141.846 80.3189C141.867 80.3288 141.888 80.3394 141.909 80.3497C142.062 80.438 142.227 80.557 142.417 80.7551C142.904 81.229 142.982 81.7639 143.024 82.2938C143.03 82.441 143.041 82.5774 143.048 82.7242C142.853 82.642 142.679 82.5175 142.525 82.3507C142.165 81.9649 141.929 81.4315 141.846 80.9596C141.808 80.7445 141.831 80.4555 141.846 80.3189ZM144.09 79.8743C144.143 79.9787 144.176 80.0733 144.177 80.178C144.183 80.2726 144.147 80.3727 144.106 80.4569C144.193 80.2777 144.192 80.0676 144.09 79.8743ZM152.463 52.1647C152.524 51.9066 152.736 51.6317 153.209 51.5753C153.581 51.5353 154.286 51.6449 154.919 52.0072C155.573 52.3797 156.125 52.9898 156.221 53.8604C156.398 55.529 155.886 56.4156 155.175 56.8261C154.7 57.1031 154.102 57.1764 153.449 57.0665C152.671 57.6139 151.776 57.8681 151.023 57.6962C150.192 57.4985 149.43 56.8114 149.149 55.328C149.094 55.0131 149.286 54.7014 149.59 54.6152C149.558 54.5732 149.521 54.5157 149.489 54.4744C149.031 53.7798 149.063 53.2333 149.281 52.8427C149.415 52.5949 149.65 52.3828 149.979 52.2435C150.319 52.0828 150.786 52.0105 151.29 52.022C151.674 52.0137 152.073 52.0783 152.463 52.1647ZM141.958 67.5091C142.031 67.4666 142.11 67.4399 142.21 67.4231C143.043 67.2691 143.875 67.5456 144.568 68.1069C145.519 68.8604 146.229 70.1093 146.422 71.2369C146.571 72.1073 146.389 72.9072 145.884 73.4313C145.535 73.7964 145.023 74.0427 144.303 74.0694C142.424 74.1433 140.968 73.3258 140.228 72.1403C139.461 70.9283 139.416 69.3113 140.48 67.7793C140.718 67.4255 141.058 67.291 141.484 67.3558C141.632 67.3757 141.789 67.4267 141.958 67.5091ZM154.467 53.1976C154.721 53.3743 154.933 53.6351 154.978 53.9973L154.978 54.0232C154.881 53.7145 154.7 53.4428 154.467 53.1976ZM153.144 55.7142C153.075 55.6935 153.012 55.6624 152.944 55.642C152.001 55.2721 151.028 54.5346 150.533 53.7825C150.48 53.7043 150.437 53.631 150.41 53.5523C150.394 53.5054 150.368 53.4793 150.383 53.4478C150.414 53.3844 150.498 53.3732 150.577 53.3462C150.776 53.2867 151.012 53.2585 151.275 53.2564C151.989 53.2661 152.858 53.4951 153.396 53.9159C153.597 54.0665 153.746 54.244 153.795 54.4639C153.833 54.6787 153.757 54.9161 153.575 55.1801C153.451 55.3808 153.31 55.5602 153.144 55.7142ZM144.372 72.8087C144.345 72.8088 144.303 72.8146 144.266 72.8096C142.917 72.8683 141.841 72.3152 141.293 71.4587C140.803 70.67 140.784 69.6406 141.406 68.6379C141.527 68.7102 141.728 68.8346 141.876 68.9596C142.744 69.7239 143.78 71.186 144.229 72.1377C144.304 72.3052 144.374 72.5094 144.396 72.5985C144.37 72.6774 144.366 72.7403 144.372 72.8087ZM143.556 68.9189C143.635 68.9706 143.725 69.0278 143.799 69.09C144.439 69.5994 144.939 70.4196 145.135 71.195C144.74 70.479 144.161 69.6334 143.556 68.9189ZM150.512 55.5893C150.908 55.9272 151.347 56.2334 151.811 56.487C151.638 56.5201 151.481 56.521 151.318 56.4807C150.954 56.3942 150.689 56.1077 150.512 55.5893ZM145.139 59.2217C145.253 59.0946 145.514 58.935 145.909 59.0103C146.198 59.0603 146.699 59.266 147.148 59.6302C147.608 59.9989 148.017 60.5258 148.127 61.1815C148.222 61.7373 148.128 62.384 147.624 63.1183C147.178 63.7627 146.676 64.0401 146.194 64.1177C145.701 64.1901 145.195 64.0476 144.715 63.7205C143.98 63.1912 143.305 62.1937 142.971 61.2725C142.762 60.7124 142.689 60.1667 142.749 59.7777C142.814 59.3516 143.021 59.0346 143.324 58.8692C143.596 58.7147 144.005 58.6534 144.558 58.8589C144.705 58.9051 144.906 59.0295 145.139 59.2217ZM146.58 60.7899C146.633 60.8421 146.681 60.9048 146.724 60.9778C146.771 61.0408 146.804 61.1087 146.831 61.1873C146.761 61.0616 146.671 60.9259 146.58 60.7899ZM143.99 59.9929C144.027 59.9979 144.085 60.0132 144.116 60.0285C144.227 60.0698 144.38 60.2103 144.582 60.3872C144.952 60.7253 145.376 61.2203 145.69 61.701C145.818 61.8942 145.924 62.0768 145.983 62.25C146.01 62.3283 146.038 62.4332 146.043 62.475C145.981 62.6018 145.956 62.7332 145.983 62.864C145.795 62.8764 145.615 62.7886 145.452 62.6692C144.892 62.2906 144.418 61.5226 144.165 60.8366C144.068 60.5807 144.008 60.3287 143.996 60.1138C143.975 60.077 143.985 60.0299 143.99 59.9929ZM146.149 59.4023L146.132 59.3813C146.143 59.3864 146.154 59.3915 146.149 59.4023Z" fill="#FF914D"/>
</g>
</g>
</g>
</svg>
