<svg width="417" height="166" viewBox="0 0 417 166" fill="none" xmlns="http://www.w3.org/2000/svg">
<mask id="mask0_324_1034" style="mask-type:luminance" maskUnits="userSpaceOnUse" x="187" y="27" width="196" height="190">
<path d="M257.143 27.5342L187.882 105.123L313.155 216.95L382.416 139.361L257.143 27.5342Z" fill="white"/>
</mask>
<g mask="url(#mask0_324_1034)">
<mask id="mask1_324_1034" style="mask-type:luminance" maskUnits="userSpaceOnUse" x="209" y="39" width="135" height="168">
<path d="M209.104 48.7473L221.12 206.328L343.863 196.969L331.848 39.3885L209.104 48.7473Z" fill="white"/>
</mask>
<g mask="url(#mask1_324_1034)">
<mask id="mask2_324_1034" style="mask-type:luminance" maskUnits="userSpaceOnUse" x="209" y="39" width="135" height="168">
<path d="M209.106 48.7459L221.121 206.327L343.865 196.967L331.849 39.387L209.106 48.7459Z" fill="white"/>
</mask>
<g mask="url(#mask2_324_1034)">
<path d="M215.796 126.111C216.806 128.675 217.798 130.994 219.233 132.662C223.57 137.739 231.13 140.075 237.211 141.142C240.264 141.675 243.358 141.785 246.384 142.294C249.535 142.82 252.632 143.62 255.701 144.349C260.274 145.408 264.894 146.734 268.879 149.146C270.042 149.823 271.342 150.365 272.465 151.169C275.212 153.206 277.715 155.583 279.891 158.231C281.299 159.852 282.362 161.82 283.688 163.669C284.241 164.442 284.533 165.358 285.082 166.081C285.912 167.252 286.326 168.801 287.103 169.927L287.409 170.693C288.212 171.842 288.628 173.415 289.46 174.61L293.285 181.379C293.922 182.294 294.229 183.406 294.839 184.274C295.448 185.14 295.662 186.012 296.242 186.808C298.198 189.473 299.888 191.888 302.213 193.561C303.075 194.187 304.034 194.78 304.941 195.353C305.226 195.529 305.627 195.597 305.936 195.771C306.739 196.253 307.608 196.656 308.496 196.958C312.879 198.105 317.491 199.013 322.5 198.656C323.187 198.603 323.714 198.39 324.448 198.31C326.892 197.975 330.752 196.471 332.63 194.872C334.247 193.415 335.596 191.683 336.634 189.752C336.976 189.059 337.292 188.344 337.532 187.61C338.373 185.694 339.036 183.693 339.547 181.654C339.827 180.473 340.226 179.232 340.429 178.007C341.551 171.675 341.393 164.75 340.913 157.8C340.673 154.658 340.015 151.524 339.65 148.367C339.294 145.308 338.3 142.322 337.842 139.222C337.69 138.196 337.294 137.214 337.145 136.238L334.062 124.944C333.873 123.749 333.299 122.706 333.07 121.637L331.696 117.545C331.523 116.57 330.895 115.458 330.72 114.459L330.236 113.286C330.063 112.312 329.321 111.331 329.139 110.235C328.879 108.773 327.906 107.02 327.301 105.56C326.948 104.501 326.526 103.497 325.983 102.526C325.623 102.01 325.484 101.156 325.178 100.711C324.622 99.889 324.442 98.8162 323.966 98.0874C323.491 97.3586 323.146 96.0763 322.594 95.3033L321.881 93.7282C321.134 92.6746 320.655 91.2546 319.911 90.2248L319.211 88.8213L316.535 84.4827L313.158 79.7042C310.368 76.4601 307.895 73.1679 304.988 70.3281C300.587 66.0473 295.688 62.6679 291.265 58.4134C287.881 55.1405 284.613 52.1063 280.835 49.8273C278.383 48.4338 275.738 47.4258 272.977 46.8216C271.97 46.5775 270.929 46.1875 269.902 45.9949C266.298 45.3561 262.669 45.0398 259.014 45.0223C258.026 45.0239 257.179 45.2363 256.146 45.2904C253.863 45.4648 251.391 46.0731 248.975 46.4299C248.047 46.5749 247.341 47.0236 246.391 47.1944C245.25 47.4544 244.121 47.8616 243.047 48.3387L241.97 48.7909C240.587 49.7605 238.822 50.2403 237.537 51.2028C235.499 52.6417 233.572 54.2456 231.781 56.0111C229.951 57.9043 228.645 60.2009 227.299 62.3028C224.872 66.0927 222.694 70.5542 221.694 74.9264C221.139 77.3637 220.838 79.88 220.434 82.3547C220.269 83.4291 220.374 84.4826 220.186 85.5833C219.976 87.0314 219.865 88.4964 219.828 89.9556C219.814 90.7467 220.014 91.7439 219.924 92.5158L219.012 94.4619C218.489 95.7114 218.043 96.98 217.674 98.2918C217.577 98.6445 217.309 99.0109 217.213 99.3635C216.509 102.108 215.708 104.885 215.206 107.689C214.929 109.241 214.777 110.808 214.525 112.357C214.473 112.978 214.447 113.598 214.471 114.238C214.382 116.639 214.466 119.028 214.747 121.425L215.426 124.83C215.509 125.268 215.866 125.735 215.796 126.111Z" fill="#004AAD"/>
</g>
</g>
</g>
<mask id="mask3_324_1034" style="mask-type:luminance" maskUnits="userSpaceOnUse" x="57" y="40" width="296" height="302">
<path d="M218.882 40.5791L57.0342 221.889L190.928 341.411L352.776 160.102L218.882 40.5791Z" fill="white"/>
</mask>
<g mask="url(#mask3_324_1034)">
<mask id="mask4_324_1034" style="mask-type:luminance" maskUnits="userSpaceOnUse" x="67" y="47" width="274" height="288">
<path d="M212.207 47.8572L67.8754 236.509L196.511 334.925L340.844 146.273L212.207 47.8572Z" fill="white"/>
</mask>
<g mask="url(#mask4_324_1034)">
<mask id="mask5_324_1034" style="mask-type:luminance" maskUnits="userSpaceOnUse" x="57" y="40" width="296" height="302">
<path d="M57.0376 221.895L218.886 40.585L352.78 160.107L190.932 341.417L57.0376 221.895Z" fill="white"/>
</mask>
<g mask="url(#mask5_324_1034)">
<mask id="mask6_324_1034" style="mask-type:luminance" maskUnits="userSpaceOnUse" x="64" y="49" width="277" height="282">
<path d="M216.961 49.5186L64.4917 220.321L187.61 330.224L340.079 159.421L216.961 49.5186Z" fill="white"/>
</mask>
<g mask="url(#mask6_324_1034)">
<mask id="mask7_324_1034" style="mask-type:luminance" maskUnits="userSpaceOnUse" x="67" y="47" width="274" height="288">
<path d="M212.208 47.8625L67.8758 236.515L196.511 334.93L340.844 146.278L212.208 47.8625Z" fill="white"/>
</mask>
<g mask="url(#mask7_324_1034)">
<mask id="mask8_324_1034" style="mask-type:luminance" maskUnits="userSpaceOnUse" x="67" y="47" width="274" height="288">
<path d="M67.8348 236.565L212.167 47.9128L340.803 146.328L196.471 334.98L67.8348 236.565Z" fill="white"/>
</mask>
<g mask="url(#mask8_324_1034)">
<path d="M167.359 107.338C170.812 102.824 174.164 98.2311 177.72 93.7947C185.878 83.7703 196.902 76.5896 209.464 73.351C211.77 72.6752 214.022 72.2838 216.431 71.6866C224.538 69.5938 232.174 70.8811 239.58 74.5949C258.224 83.8171 273.48 98.7425 283.044 117.283C286.115 123.049 288.872 129.224 291.424 135.243C294.912 143.442 296.817 152.218 296.911 161.237C297.061 167.207 297.03 173.201 296.998 179.195C296.947 189.892 294.989 200.105 288.932 209.297C284.422 216.256 280.194 223.269 275.786 230.306C270.805 237.881 264.308 244.46 256.688 249.528C248.104 255.647 239.289 261.428 230.704 267.547C221.599 273.919 211.071 277.901 199.976 279.009C192.164 279.864 184.281 280.177 176.524 280.748C169.775 281.278 163.056 281.343 156.483 282.494C139.846 284.893 119.499 275.344 111.228 256.817C110.341 255 109.738 253.237 109.291 251.269C107.127 239.854 108.325 228.083 112.692 217.273C112.824 216.886 112.957 216.5 113.193 216.192C117.353 210.755 119.069 204.26 121.558 198.031C125.556 187.915 129.657 177.877 133.68 167.942C136.301 161.327 138.536 154.578 141.646 148.174C145.523 139.918 150.071 131.848 154.539 123.881C156.689 120.646 158.863 117.592 161.423 114.671L167.075 107.284L167.28 107.441L167.359 107.338Z" fill="#F8EA2B"/>
</g>
</g>
</g>
</g>
</g>
</g>
<mask id="mask9_324_1034" style="mask-type:luminance" maskUnits="userSpaceOnUse" x="164" y="61" width="240" height="244">
<path d="M294.382 61.7446L164.88 206.819L274.258 304.457L403.761 159.383L294.382 61.7446Z" fill="white"/>
</mask>
<g mask="url(#mask9_324_1034)">
<mask id="mask10_324_1034" style="mask-type:luminance" maskUnits="userSpaceOnUse" x="165" y="60" width="265" height="272">
<path d="M165.974 266.52L359.734 331.885L429.125 126.192L235.365 60.8264L165.974 266.52Z" fill="white"/>
</mask>
<g mask="url(#mask10_324_1034)">
<mask id="mask11_324_1034" style="mask-type:luminance" maskUnits="userSpaceOnUse" x="165" y="60" width="265" height="272">
<path d="M165.973 266.519L359.733 331.884L429.123 126.19L235.363 60.8249L165.973 266.519Z" fill="white"/>
</mask>
<g mask="url(#mask11_324_1034)">
<path d="M222.312 197.379C268.137 238.424 210.044 249.034 242.69 276.182C275.334 303.33 315.047 277.111 324.013 228.759C329.877 197.063 415.755 165.743 367.694 127.534C319.632 89.3258 298.911 136.56 260.142 130.868C214.007 124.136 198.635 176.187 222.312 197.379Z" fill="#9AE85D"/>
</g>
</g>
</g>
<mask id="mask12_324_1034" style="mask-type:luminance" maskUnits="userSpaceOnUse" x="-24" y="74" width="373" height="375">
<path d="M159.443 74.8936L-23.8081 280.18L165.179 448.883L348.431 243.596L159.443 74.8936Z" fill="white"/>
</mask>
<g mask="url(#mask12_324_1034)">
<mask id="mask13_324_1034" style="mask-type:luminance" maskUnits="userSpaceOnUse" x="4" y="112" width="281" height="292">
<path d="M4.95644 352.503L230.733 403.378L284.734 163.73L58.9577 112.854L4.95644 352.503Z" fill="white"/>
</mask>
<g mask="url(#mask13_324_1034)">
<mask id="mask14_324_1034" style="mask-type:luminance" maskUnits="userSpaceOnUse" x="-24" y="74" width="373" height="375">
<path d="M-23.8132 280.178L159.438 74.8916L348.426 243.594L165.174 448.88L-23.8132 280.178Z" fill="white"/>
</mask>
<g mask="url(#mask14_324_1034)">
<mask id="mask15_324_1034" style="mask-type:luminance" maskUnits="userSpaceOnUse" x="19" y="132" width="274" height="279">
<path d="M165.795 132.842L19.5789 296.64L146.603 410.03L292.82 246.232L165.795 132.842Z" fill="white"/>
</mask>
<g mask="url(#mask15_324_1034)">
<mask id="mask16_324_1034" style="mask-type:luminance" maskUnits="userSpaceOnUse" x="4" y="112" width="281" height="292">
<path d="M4.95205 352.497L230.729 403.372L284.73 163.724L58.9533 112.848L4.95205 352.497Z" fill="white"/>
</mask>
<g mask="url(#mask16_324_1034)">
<mask id="mask17_324_1034" style="mask-type:luminance" maskUnits="userSpaceOnUse" x="4" y="112" width="281" height="292">
<path d="M284.7 163.689L58.9235 112.813L4.92227 352.462L230.699 403.337L284.7 163.689Z" fill="white"/>
</mask>
<g mask="url(#mask17_324_1034)">
<path d="M229.382 248.115C172.99 207.285 237.137 188.534 197.21 161.801C157.282 135.068 115.653 169.234 111.227 224.712C108.34 261.076 15.3436 306.394 73.9203 343.771C132.496 381.148 150.286 325.552 194.593 327.416C247.312 329.588 258.517 269.196 229.382 248.115Z" fill="#9AE85D"/>
</g>
</g>
</g>
</g>
</g>
</g>
<mask id="mask18_324_1034" style="mask-type:luminance" maskUnits="userSpaceOnUse" x="189" y="45" width="110" height="112">
<path d="M249.359 45.7544L189.718 112.567L239.288 156.817L298.929 90.0042L249.359 45.7544Z" fill="white"/>
</mask>
<g mask="url(#mask18_324_1034)">
<mask id="mask19_324_1034" style="mask-type:luminance" maskUnits="userSpaceOnUse" x="192" y="48" width="106" height="112">
<path d="M231.188 48.3787L192.789 126.833L259.444 159.458L297.844 81.0032L231.188 48.3787Z" fill="white"/>
</mask>
<g mask="url(#mask19_324_1034)">
<mask id="mask20_324_1034" style="mask-type:luminance" maskUnits="userSpaceOnUse" x="192" y="48" width="106" height="112">
<path d="M231.19 48.3791L192.791 126.833L259.446 159.458L297.846 81.0037L231.19 48.3791Z" fill="white"/>
</mask>
<g mask="url(#mask20_324_1034)">
<path fill-rule="evenodd" clip-rule="evenodd" d="M283.072 98.2841C283.101 97.9873 283.255 97.7917 283.371 97.6742C283.556 97.4934 284.068 97.2006 284.655 97.6628C285.032 97.9637 286.213 99.4722 286.724 100.924C287.114 102.027 287.077 103.094 286.514 103.769C286.128 104.239 285.454 104.588 284.34 104.566C283.553 104.549 282.819 104.228 282.269 103.687C280.134 101.634 281.117 99.1493 282.428 98.4915C282.653 98.3888 282.862 98.317 283.072 98.2841ZM283.739 102.468C283.684 102.422 283.629 102.376 283.59 102.337C282.906 101.673 282.783 100.934 283.028 100.434C283.112 100.262 283.212 100.098 283.36 100.112C283.438 100.111 283.517 100.188 283.595 100.266C283.737 100.412 283.848 100.621 283.951 100.885C284.11 101.273 283.942 101.618 283.859 101.946C283.806 102.133 283.761 102.304 283.739 102.468ZM285.477 81.5269C285.605 81.0666 285.759 80.7536 285.92 80.5422C286.244 80.1192 286.616 79.9912 286.99 79.9799C287.317 79.9854 287.7 80.1145 288.054 80.4621C288.447 80.848 288.866 81.6155 289.208 82.5782C289.767 84.131 290.111 86.2001 289.912 87.5561C289.766 88.57 289.312 89.2597 288.683 89.5526C288.086 89.8228 287.214 89.8223 286.039 89.0147C285.271 88.4837 284.148 87.3331 283.375 86.14C282.806 85.2411 282.44 84.3253 282.449 83.5934C282.467 82.0123 283.085 81.3449 283.635 81.1303C284.117 80.9391 284.796 81.058 285.477 81.5269ZM270.505 106.848L270.52 106.817C270.704 106.519 271.03 106.29 271.528 106.302C271.98 106.329 272.841 106.751 273.107 106.919C275.848 108.804 277.838 112.86 274.91 115.713C274.57 116.05 274.144 116.248 273.685 116.353C273.64 116.486 273.555 116.619 273.47 116.752C273.186 117.176 272.595 117.274 272.172 116.99C271.929 116.812 271.779 116.525 271.777 116.253C271.518 116.185 271.253 116.094 271.034 115.986C270.167 115.62 269.404 114.762 268.873 113.669C268.144 112.187 267.801 110.313 268.024 108.988C268.193 107.966 268.678 107.253 269.361 106.967C269.664 106.824 270.053 106.782 270.505 106.848ZM273.797 110.223C274.183 110.82 274.454 111.456 274.506 112.102C274.558 112.748 274.416 113.396 273.946 114C274.077 112.9 274.111 111.482 273.797 110.223ZM284.345 83.0088C284.392 83.0317 284.447 83.078 284.486 83.1167C284.737 83.3168 284.996 83.5794 285.232 83.8887C285.878 84.7088 286.471 85.7946 286.697 86.7194C286.753 86.921 286.778 87.1079 286.788 87.2873C286.192 86.8015 285.429 85.9826 284.892 85.1378C284.537 84.596 284.253 84.0686 284.272 83.6324C284.293 83.3909 284.323 83.1724 284.345 83.0088ZM286.859 82.9407C286.991 82.8303 287.099 82.6893 287.168 82.5096C287.413 83.0371 287.637 83.7288 287.815 84.4356C287.53 83.9087 287.198 83.3975 286.859 82.9407ZM272.057 114.374C271.955 114.344 271.861 114.297 271.775 114.275C271.267 114.045 270.857 113.496 270.54 112.837C269.986 111.712 269.693 110.29 269.856 109.283C269.878 109.12 269.915 108.963 269.977 108.838C270.007 108.776 270.03 108.69 270.092 108.681C270.17 108.642 270.287 108.68 270.396 108.734C270.592 108.81 270.81 108.917 271.053 109.094C271.547 109.433 271.801 109.984 271.962 110.605C272.26 111.74 272.201 113.087 272.069 114.031C272.07 114.148 272.055 114.257 272.057 114.374ZM259.336 117.705C259.88 117.545 260.47 117.369 261.046 117.341C261.73 117.288 262.401 117.384 262.988 117.729C263.583 118.059 264.102 118.623 264.476 119.562C265.36 121.798 264.331 123.621 262.611 124.64C260.999 125.596 258.766 125.802 257.1 124.967C254.714 123.781 253.895 121.731 253.796 119.24C253.738 117.932 254.152 117.165 254.686 116.748C255.251 116.307 256.06 116.199 256.973 116.472C257.691 116.669 258.521 117.113 259.336 117.705ZM272.456 84.3629C272.041 84.1022 271.912 83.5346 272.18 83.1042C272.45 82.6734 273.025 82.5284 273.455 82.7977C274.903 83.6807 276.761 85.1134 277.734 86.8106C278.477 88.1053 278.723 89.5435 278.081 91.0131C277.707 91.8965 277.298 92.4142 276.795 92.769C276.3 93.1078 275.671 93.2843 274.752 93.3779C272.457 93.592 271.153 92.3726 270.508 90.7582C269.936 89.3145 269.983 87.515 270.362 86.2656C270.536 85.6723 270.804 85.2029 271.09 84.8965C271.406 84.5669 271.763 84.3928 272.129 84.3585C272.231 84.3498 272.347 84.3487 272.456 84.3629ZM261.054 119.186C261.427 119.136 261.786 119.157 262.099 119.349C262.373 119.502 262.578 119.796 262.753 120.231C262.975 120.767 262.972 121.25 262.835 121.686C262.549 120.965 261.942 120.105 261.156 119.294L261.054 119.186ZM260.452 123.506C259.597 123.707 258.693 123.653 257.926 123.278C256.229 122.428 255.726 120.922 255.641 119.154C255.631 118.897 255.645 118.671 255.674 118.492C255.697 118.367 255.727 118.266 255.789 118.219C255.943 118.1 256.178 118.177 256.428 118.26C256.748 118.358 257.084 118.503 257.436 118.695C257.375 118.859 257.369 119.031 257.417 119.209C257.539 119.714 258.047 120.022 258.536 119.893C258.668 119.861 258.785 119.821 258.94 119.78C259.239 120.043 259.529 120.321 259.788 120.583C260.3 121.124 260.74 121.689 260.986 122.177C261.033 122.278 261.081 122.418 261.105 122.527C260.686 122.632 260.402 123.055 260.452 123.506ZM273.756 85.2323C274.454 85.7483 275.136 86.3735 275.672 87.0619C276.412 88.006 276.866 89.0998 276.377 90.2565C276.316 90.3819 276.27 90.5148 276.216 90.6238C275.753 89.2728 274.899 87.6912 274.398 86.4184C274.175 85.9219 273.961 85.5269 273.756 85.2323ZM272.279 86.4286C272.39 86.5992 272.539 86.847 272.643 87.1108C273.184 88.4614 274.164 90.1822 274.518 91.5183C272.3 91.6931 271.806 89.4547 271.956 87.8022C271.983 87.3501 272.073 86.9289 272.194 86.6008C272.225 86.5386 272.256 86.4754 272.279 86.4286ZM244.97 129.112C245.001 129.05 245.047 128.995 245.086 128.955C245.533 128.437 246.419 128.212 247.473 128.514C248.581 128.824 249.936 129.662 250.834 130.838C251.802 132.107 252.244 133.7 251.456 135.35C250.882 136.562 250.092 137.145 249.253 137.315C248.452 137.485 247.547 137.275 246.686 136.776C245.238 135.932 243.83 134.254 243.116 132.78C242.799 132.121 242.615 131.507 242.588 131.009C242.568 130.495 242.673 130.081 242.904 129.768C243.158 129.408 243.561 129.14 244.152 129.08C244.355 129.024 244.643 129.029 244.97 129.112ZM265.435 102.273C265.397 102.351 265.351 102.406 265.312 102.484C265.036 102.891 264.476 103.005 264.061 102.744C263.322 102.867 262.559 102.881 261.96 102.917C259.492 103.086 257.709 102.214 256.601 100.993C255.304 99.5627 254.914 97.6661 255.369 96.1821C255.344 96.0731 255.336 95.9722 255.35 95.8629C255.634 93.6179 257.471 92.5196 259.776 92.4458C261.582 92.3989 263.651 93.0044 265.164 94.0745C266.26 94.8436 267.063 95.8571 267.369 97.0152C267.827 98.7326 267.448 99.904 266.448 101.353C266.171 101.76 265.831 102.059 265.435 102.273ZM248.162 130.83C248.351 130.999 248.515 131.177 248.68 131.355C249.404 132.174 249.543 132.999 250.002 133.843C250.147 132.596 249.173 131.498 248.162 130.83ZM244.463 130.899C244.502 130.899 244.557 130.907 244.589 130.922C244.659 130.937 244.729 130.952 244.815 130.975C244.887 131.224 244.99 131.487 245.125 131.766C245.347 132.224 245.909 132.422 246.367 132.2C246.491 132.144 246.584 132.073 246.669 131.979C246.904 132.172 247.108 132.388 247.297 132.597C247.918 133.308 247.987 134.04 248.39 134.76C248.461 134.892 248.512 135.266 248.528 135.39L248.52 135.406C248.512 135.421 248.505 135.437 248.521 135.445L248.505 135.476C248.217 135.432 247.928 135.31 247.623 135.141C246.856 134.688 246.117 133.938 245.534 133.149C245.101 132.569 244.761 131.956 244.585 131.405C244.505 131.25 244.472 131.04 244.463 130.899ZM261.272 94.4576C262.264 94.6521 263.271 95.0486 264.078 95.6177C264.799 96.1259 265.365 96.7516 265.574 97.5131C265.743 98.1579 265.716 98.688 265.541 99.2034C265.414 98.8694 265.263 98.5438 265.066 98.1948C264.149 96.6607 262.595 95.2023 261.272 94.4576ZM272.864 70.0613C272.895 69.9987 272.941 69.9436 272.98 69.9044C273.111 69.7556 273.297 69.6137 273.554 69.5647C273.748 69.5242 274.091 69.5372 274.497 69.697C275.005 69.8875 275.67 70.2709 275.936 70.4406C277.659 71.6327 277.748 73.8282 276.89 75.3855C276.276 76.4808 275.207 77.1983 274.015 77.1386C273.298 77.0978 272.509 76.7694 271.723 75.9587C270.961 75.1787 270.175 73.3395 270.054 72.0011C269.967 70.9894 270.319 70.2306 270.862 69.9147C271.281 69.6931 271.949 69.5942 272.864 70.0613ZM263.975 100.86C263.889 100.876 263.819 100.901 263.734 100.917C263.073 101.039 262.356 101.038 261.812 101.081C260.621 101.177 259.638 100.928 258.878 100.498C257.681 99.815 257.048 98.6135 257.008 97.5468C256.979 96.932 257.138 96.3695 257.547 96.0081C258.019 95.5992 258.758 95.5148 259.758 95.8103C260.874 96.1431 262.545 97.6009 263.423 99.1357C263.778 99.717 264.04 100.33 263.975 100.86ZM274.882 71.9601C275.36 72.2907 275.559 72.7564 275.578 73.2314C275.403 72.7967 275.151 72.363 274.882 71.9601ZM271.936 71.6811C272.092 71.7576 272.28 71.8494 272.452 71.973C272.962 72.3188 273.632 73.2868 273.975 74.211C274.07 74.4903 274.135 74.7544 274.152 74.9957C274.146 75.089 274.154 75.1904 274.116 75.2685C273.781 75.2406 273.452 75.0405 273.074 74.6622C272.635 74.2141 272.222 73.2754 272.02 72.4201C271.971 72.2026 271.946 71.8988 271.936 71.6811ZM233.915 136.012C234.053 135.731 234.277 135.55 234.518 135.454C234.867 135.296 235.444 135.306 236.062 135.706C236.829 136.198 237.821 137.381 238.206 138.655C238.486 139.626 238.44 140.631 237.84 141.501C237.317 142.253 236.736 142.647 236.138 142.8C235.516 142.961 234.877 142.881 234.244 142.59C232.812 141.909 231.417 139.966 230.828 138.359C230.501 137.482 230.409 136.68 230.553 136.189C230.673 135.744 230.912 135.453 231.269 135.279C231.703 135.065 232.521 135.019 233.696 135.827C233.743 135.85 233.821 135.927 233.915 136.012ZM244.405 103.767C244.397 103.744 244.381 103.697 244.381 103.658C244.299 103.153 244.614 102.668 245.127 102.57C248.533 101.948 251.623 103.519 252.788 105.97C253.581 107.638 253.536 109.749 252.052 111.911L252.036 111.942C251.952 112.114 251.837 112.31 251.691 112.49C251.375 112.859 250.941 113.19 250.941 113.19C250.601 113.449 250.126 113.43 249.796 113.152C249.315 113.344 248.762 113.441 248.093 113.463C243.717 113.531 240.128 109.099 243.013 104.908C243.39 104.337 243.862 103.967 244.405 103.767ZM235.05 137.498C235.119 137.474 235.174 137.442 235.227 137.411C235.282 137.457 235.338 137.503 235.393 137.55C235.793 137.92 236.179 138.478 236.387 139.083C236.507 139.433 236.556 139.806 236.466 140.149C236.45 140.103 236.434 140.056 236.418 140.01C236.163 139.342 235.609 138.334 235.05 137.498ZM250.183 110.143C250.101 110.51 249.924 110.831 249.669 111.074C249.314 111.404 248.786 111.572 248.045 111.579C245.118 111.619 242.593 108.735 244.524 105.939C244.925 105.359 245.493 105.346 246.095 105.583C246.049 105.716 246.019 105.856 245.989 105.997C245.877 106.504 246.2 106.992 246.707 107.104C247.113 107.187 247.516 106.996 247.708 106.644C248.602 107.431 249.414 108.468 249.897 109.46C250.024 109.716 250.112 109.933 250.183 110.143ZM232.524 137.27C232.54 137.278 232.571 137.293 232.587 137.301L232.618 137.316C232.649 137.37 233.342 138.214 233.761 138.903C234.116 139.484 234.505 140.314 234.671 140.648L234.616 140.602C234.036 140.162 233.509 139.458 233.097 138.753C232.837 138.296 232.636 137.674 232.501 137.239L232.524 137.27ZM254.639 79.0162C254.785 78.7577 254.97 78.5773 255.179 78.4271C255.721 78.0722 256.585 78.0496 257.547 78.5006C258.877 79.1126 260.47 80.5708 261.214 82.0986C261.651 82.9911 261.799 83.9163 261.556 84.7284C261.306 85.5558 260.674 86.3324 259.393 86.8492L259.339 86.8812C259.233 87.2559 259.081 87.6072 258.85 87.9211C258.565 88.3438 257.974 88.4423 257.551 88.1575C257.23 87.9425 257.094 87.5465 257.169 87.1951C256.001 87.166 254.752 86.8262 253.719 86.2434C251.825 85.1613 250.625 83.2941 251.532 80.8884C251.913 79.8727 252.508 79.3299 253.168 79.0907C253.602 78.9161 254.116 78.8955 254.639 79.0162ZM256.696 80.1589C256.775 80.1974 256.837 80.2278 256.916 80.2658C257.151 80.3809 257.385 80.5344 257.628 80.712C258.357 81.2431 259.08 82.0239 259.492 82.8063C259.776 83.3336 259.937 83.8776 259.707 84.3467C259.638 84.4874 259.538 84.613 259.391 84.7152C259.359 84.5832 259.326 84.4512 259.294 84.3196C258.9 82.7884 257.858 81.193 256.696 80.1589ZM257.613 85.3381C256.64 85.3853 255.532 85.1145 254.647 84.6236C253.544 83.9863 252.756 82.9415 253.282 81.5509C253.427 81.176 253.588 80.9251 253.821 80.8455C254.241 80.7018 254.71 80.9704 255.204 81.348C256.223 82.1175 257.177 83.496 257.515 84.8246C257.555 84.9807 257.58 85.1666 257.613 85.3381ZM255.807 67.994C255.69 67.9562 255.588 67.887 255.494 67.8019C255.015 67.354 255.011 66.8872 255.11 66.5669C255.216 66.2311 255.594 65.7761 256.387 65.6607C257.468 65.5114 259.87 65.8723 261.647 66.9554C262.821 67.6851 263.718 68.7058 263.963 70.0277C264.118 70.8991 264.01 71.9123 263.436 73.0848C262.969 74.0389 262.425 74.1991 261.484 74.3784C259.439 74.7541 257.975 73.8635 257.006 72.5557C256.123 71.348 255.713 69.7707 255.742 68.6405C255.733 68.4228 255.762 68.2043 255.807 67.994ZM230.754 116.686C231.604 116.017 232.864 115.82 234.183 116.135C236.095 116.587 238.101 118.072 238.726 120.162C239.143 121.568 238.978 123.252 237.717 125.077C236.863 126.307 235.525 126.544 234.147 126.665C228.226 127.198 225.146 123.073 225.494 120.064C225.66 118.614 226.553 117.344 228.277 116.754C229.093 116.513 229.911 116.507 230.754 116.686ZM259.264 67.9023C259.78 68.0769 260.303 68.3145 260.773 68.6215C261.392 69.0215 261.918 69.5307 262.111 70.2066C262.272 70.79 262.176 71.4603 261.778 72.2731C261.64 72.5552 261.429 72.5102 261.149 72.567C261.126 72.5748 261.087 72.5756 261.064 72.5834C261.093 72.2875 260.989 71.9842 260.761 71.7758C260.722 71.6981 260.538 71.2404 260.427 70.9141C260.114 69.8892 259.784 68.6226 259.43 68.1187C259.359 68.0263 259.311 67.9641 259.264 67.9023ZM233.279 117.864C233.442 117.886 233.606 117.908 233.762 117.946C235.089 118.246 236.515 119.254 236.932 120.699C237.076 121.197 237.104 121.734 236.969 122.326C236.929 122.21 236.874 122.086 236.818 121.962C236.199 120.651 234.861 118.988 233.279 117.864ZM235.105 124.709C234.739 124.783 234.358 124.81 233.976 124.836C230.179 125.188 227.803 123.191 227.38 121.162C227.145 120.057 227.618 118.971 228.869 118.556C229.141 118.475 229.413 118.434 229.686 118.432C229.61 118.744 229.582 119.118 229.601 119.515C229.621 120.029 230.045 120.43 230.559 120.41C231.073 120.391 231.474 119.966 231.454 119.453C231.445 119.274 231.459 119.125 231.474 118.978C232.733 119.652 233.872 120.811 234.598 121.903C234.89 122.336 235.112 122.755 235.262 123.12C235.302 123.236 235.335 123.368 235.359 123.477C235.065 123.682 234.888 124.042 234.954 124.423C234.994 124.501 235.034 124.617 235.105 124.709ZM219.937 132.447C220.011 131.979 220.218 131.674 220.466 131.485C220.714 131.296 221.032 131.2 221.414 131.212C221.843 131.247 222.421 131.492 223.079 131.969C224.498 133.032 226.339 135.29 227.034 137.316C227.609 138.994 227.42 140.53 226.158 141.483C225.694 141.837 225.048 141.967 224.253 141.811C222.997 141.564 221.267 140.543 219.784 139.255C218.521 138.152 217.427 136.861 216.943 135.751C216.483 134.712 216.506 133.793 216.967 133.127C217.368 132.547 217.856 132.263 218.385 132.172C218.867 132.098 219.382 132.195 219.937 132.447ZM242.104 85.851C242.906 84.0531 244.116 83.4435 245.261 83.4805C246.905 83.5286 248.686 85.157 249.374 87.316C249.911 89.0324 249.803 91.0352 248.423 92.6661C248.108 94.1411 247.159 95.2085 245.454 95.1683C245.244 95.1623 244.642 95.0036 244.025 94.8377C243.535 94.8106 243.019 94.6745 242.496 94.4379C240.494 93.4969 239.321 91.9724 239.09 90.4634C238.843 88.8689 239.568 87.1887 241.662 86.0414C241.809 85.9781 241.956 85.9148 242.104 85.851ZM257.66 68.8815C257.731 68.9749 257.786 69.0601 257.873 69.1601C257.975 69.3072 258.072 69.587 258.168 69.9052C258.351 70.4803 258.528 71.1481 258.704 71.6996C258.39 71.3518 258.16 70.9492 257.978 70.5304C257.771 70.0411 257.696 69.364 257.66 68.8815ZM221.395 133.51C221.487 133.438 221.572 133.345 221.641 133.243L221.657 133.25C222.018 133.465 222.425 133.82 222.857 134.245C223.949 135.341 225.1 136.951 225.415 138.366C225.488 138.692 225.53 139.004 225.477 139.269C225.255 138.773 224.923 138.144 224.504 137.455C223.667 136.115 222.525 134.567 221.395 133.51ZM223.58 139.62C222.751 139.214 221.842 138.576 221.011 137.858C219.967 136.941 219.055 135.912 218.651 134.997C218.563 134.819 218.515 134.639 218.482 134.468C218.458 134.36 218.449 134.259 218.511 134.173C218.565 134.102 218.611 134.047 218.665 134.015C218.805 133.967 218.946 134.036 219.118 134.121C219.509 134.312 219.924 134.651 220.325 135.06C221.566 136.288 222.797 138.171 223.469 139.411C223.509 139.488 223.557 139.55 223.58 139.62ZM242.971 92.5956C241.601 91.8675 240.798 90.7761 240.929 89.6772C241.009 88.9209 241.563 88.2235 242.563 87.6848C243.121 87.3764 243.892 87.3861 244.514 87.2634C244.786 87.2225 245.029 87.3995 245.257 87.6469C245.87 88.257 246.33 89.2965 246.542 90.3305C246.647 90.8276 246.698 91.3182 246.664 91.7858C246.369 92.0687 246.029 92.3283 245.61 92.5503C245.107 92.8267 244.641 92.9865 244.158 92.9829C243.626 92.8007 243.096 92.618 242.971 92.5956ZM244.841 85.407C244.888 85.3914 244.935 85.3752 244.981 85.3596C245.455 85.2623 245.917 85.5069 246.356 85.8771C246.834 86.2861 247.244 86.8743 247.492 87.5576C247.223 87.0773 246.908 86.6516 246.585 86.3192C246.052 85.786 245.449 85.4724 244.841 85.407ZM224.457 97.9007L224.511 97.7908C225.378 96.2959 226.732 95.1945 228.256 94.9323C228.722 94.8509 229.205 94.8545 229.689 94.9354C229.896 94.591 230.159 94.3708 230.439 94.2755C230.951 94.0606 231.683 94.1479 232.421 94.7021C233.518 95.5111 234.819 97.408 235.225 99.468C235.559 101.124 235.356 102.886 234.153 104.274C233.503 105.76 232.181 106.877 230.226 106.948C227.378 107.066 225.579 106.146 224.563 104.854L224.539 104.823C223.183 103.83 222.331 102.482 222.312 101.174C222.326 100.076 222.9 98.8637 224.457 97.9007ZM225.863 99.2282C226.165 99.0852 226.506 98.9424 226.903 98.8065C228.991 98.1031 230.504 98.34 231.492 99.1337C231.618 99.2335 231.728 99.3262 231.83 99.4343C231.962 100.352 231.752 101.335 231.26 102.064C230.976 102.487 231.081 103.062 231.497 103.363C231.756 103.547 232.075 103.568 232.355 103.472C232.192 103.606 232.006 103.747 231.813 103.866C229.907 105.027 227.535 104.564 225.915 103.519L225.899 103.511C225.102 102.288 225.22 100.62 225.863 99.2282ZM240.523 66.6208C240.554 66.5576 240.577 66.5108 240.616 66.4717C240.816 66.1821 241.141 65.9923 241.577 65.9731C241.958 65.9465 242.567 66.1282 243.24 66.5351C244.415 67.2648 245.931 68.7239 246.613 70.2214C247.161 71.4396 247.194 72.6771 246.432 73.7194C245.986 74.3152 245.258 74.8515 244.117 75.2424C241.896 75.9778 240.26 75.0805 239.227 73.5865C238.281 72.2314 237.907 70.3419 238.114 68.9694C238.29 67.7376 238.929 66.9065 239.815 66.6809C240.009 66.6015 240.251 66.5838 240.523 66.6208ZM243.952 69.5585C244.274 69.9294 244.565 70.3245 244.779 70.7195C245.088 71.2779 245.272 71.8525 245.058 72.3686C244.928 72.6732 244.658 72.9483 244.247 73.1545C244.359 72.647 244.402 72.1251 244.366 71.5647C244.314 70.9966 244.191 70.2573 243.952 69.5585ZM242.116 73.5461C241.554 73.3871 241.083 73.0017 240.745 72.5064C240.09 71.5459 239.799 70.2401 239.922 69.2735C239.952 69.055 240.005 68.8677 240.066 68.7039C240.12 68.5939 240.15 68.4923 240.243 68.461C240.344 68.4133 240.469 68.4747 240.633 68.5353C240.969 68.6806 241.353 68.9651 241.785 69.3902C241.958 69.5522 242.077 69.8237 242.181 70.0876C242.38 70.6313 242.462 71.2535 242.49 71.713C242.55 72.382 242.439 73.0062 242.116 73.5461ZM212.277 118.19C212.416 118.064 212.618 117.969 212.93 117.967C213.265 117.956 214.473 118.14 215.284 119.099C215.787 119.694 216.161 120.595 215.961 121.951C215.867 122.7 215.63 123.263 215.268 123.686C214.952 124.055 214.525 124.331 213.958 124.499C213.82 124.664 213.619 124.798 213.385 124.84C213.105 124.896 212.832 124.82 212.628 124.643C211.343 124.576 210.308 123.837 209.591 122.846C208.771 121.709 208.393 120.224 208.462 119.172C208.546 118.089 209.101 117.391 209.863 117.221C210.383 117.108 211.234 117.272 212.277 118.19ZM213.61 120.103C213.758 120.195 213.885 120.334 213.979 120.496C214.129 120.783 214.171 121.172 214.114 121.687C214.092 121.889 214.055 122.085 213.986 122.225C213.976 121.93 213.95 121.626 213.917 121.338C213.85 120.918 213.761 120.506 213.61 120.103ZM210.354 119.11C210.385 119.125 210.416 119.14 210.447 119.156C210.675 119.287 210.918 119.463 211.2 119.757C211.923 120.46 212.038 121.253 212.1 122.039C212.109 122.257 212.126 122.459 212.136 122.677C211.847 122.555 211.588 122.37 211.361 122.123C210.826 121.551 210.477 120.76 210.354 120.06C210.297 119.741 210.332 119.312 210.354 119.11ZM213.681 118.451C213.761 118.605 213.808 118.746 213.81 118.901C213.819 119.041 213.766 119.19 213.704 119.314C213.835 119.049 213.832 118.737 213.681 118.451ZM226.098 77.3578C226.188 76.9751 226.504 76.5675 227.204 76.4838C227.756 76.4245 228.802 76.5871 229.74 77.1243C230.711 77.6767 231.528 78.5815 231.672 79.8726C231.934 82.347 231.174 83.6619 230.12 84.2707C229.415 84.6813 228.529 84.7901 227.561 84.6271C226.407 85.4389 225.079 85.8159 223.963 85.561C222.73 85.2678 221.6 84.2488 221.184 82.049C221.103 81.582 221.387 81.1198 221.838 80.9918C221.79 80.9296 221.735 80.8443 221.687 80.7831C221.009 79.753 221.056 78.9426 221.379 78.3633C221.578 77.9958 221.926 77.6813 222.415 77.4748C222.919 77.2364 223.611 77.1292 224.359 77.1462C224.928 77.134 225.52 77.2297 226.098 77.3578ZM210.52 100.113C210.628 100.05 210.745 100.011 210.893 99.9858C212.129 99.7573 213.363 100.167 214.391 101C215.801 102.117 216.853 103.969 217.14 105.641C217.361 106.932 217.091 108.119 216.342 108.896C215.825 109.437 215.065 109.802 213.998 109.842C211.211 109.952 209.051 108.739 207.954 106.981C206.817 105.184 206.75 102.786 208.327 100.514C208.681 99.9893 209.185 99.7899 209.817 99.8859C210.036 99.9155 210.27 99.9911 210.52 100.113ZM229.07 78.8897C229.446 79.1516 229.761 79.5384 229.828 80.0756L229.828 80.114C229.684 79.6562 229.416 79.2532 229.07 78.8897ZM227.108 82.6217C227.007 82.591 226.913 82.5448 226.811 82.5146C225.413 81.966 223.97 80.8724 223.237 79.757C223.158 79.6411 223.094 79.5323 223.054 79.4157C223.031 79.3461 222.991 79.3074 223.014 79.2606C223.06 79.1666 223.185 79.15 223.301 79.11C223.596 79.0218 223.946 78.98 224.336 78.9769C225.395 78.9912 226.683 79.3308 227.482 79.9549C227.78 80.1783 228.001 80.4415 228.074 80.7676C228.131 81.086 228.017 81.4382 227.748 81.8296C227.563 82.1273 227.355 82.3934 227.108 82.6217ZM214.099 107.972C214.06 107.973 213.998 107.981 213.943 107.974C211.942 108.061 210.347 107.241 209.534 105.97C208.807 104.801 208.779 103.274 209.701 101.787C209.881 101.894 210.179 102.079 210.398 102.264C211.685 103.398 213.222 105.566 213.888 106.977C213.999 107.226 214.103 107.529 214.135 107.661C214.097 107.778 214.09 107.871 214.099 107.972ZM212.889 102.204C213.007 102.281 213.14 102.366 213.25 102.458C214.199 103.213 214.941 104.429 215.231 105.579C214.646 104.518 213.786 103.264 212.889 102.204ZM223.205 82.4364C223.793 82.9376 224.443 83.3917 225.132 83.7678C224.875 83.8168 224.641 83.8181 224.4 83.7584C223.861 83.6301 223.468 83.2053 223.205 82.4364ZM215.236 87.8233C215.407 87.6348 215.794 87.3981 216.379 87.5098C216.808 87.5838 217.55 87.8889 218.217 88.4291C218.899 88.9759 219.505 89.7572 219.669 90.7295C219.808 91.5539 219.669 92.5129 218.922 93.6018C218.261 94.5575 217.516 94.9689 216.801 95.0839C216.07 95.1913 215.321 94.98 214.608 94.4949C213.519 93.7099 212.517 92.2306 212.022 90.8645C211.712 90.0339 211.604 89.2247 211.692 88.6477C211.788 88.0158 212.096 87.5458 212.545 87.3005C212.948 87.0714 213.555 86.9805 214.375 87.2852C214.594 87.3537 214.892 87.5381 215.236 87.8233ZM217.374 90.1488C217.453 90.2263 217.524 90.3192 217.587 90.4275C217.658 90.5209 217.706 90.6216 217.746 90.7382C217.643 90.5517 217.508 90.3505 217.374 90.1488ZM213.533 88.967C213.588 88.9743 213.673 88.997 213.72 89.0198C213.884 89.0809 214.112 89.2893 214.41 89.5516C214.959 90.053 215.589 90.7871 216.054 91.5C216.243 91.7865 216.402 92.0573 216.489 92.3141C216.529 92.4302 216.57 92.5858 216.578 92.6477C216.486 92.8358 216.449 93.0307 216.489 93.2247C216.209 93.2431 215.944 93.1128 215.701 92.9358C214.871 92.3744 214.168 91.2354 213.793 90.2181C213.649 89.8386 213.56 89.465 213.542 89.1463C213.51 89.0916 213.525 89.0218 213.533 88.967ZM216.734 88.091L216.71 88.0599C216.726 88.0675 216.742 88.0751 216.734 88.091Z" fill="#FF914D"/>
</g>
</g>
</g>
</svg>
