<svg width="580" height="732" viewBox="0 0 580 732" fill="none" xmlns="http://www.w3.org/2000/svg">
<path d="M575.722 235.09C575.722 235.09 563.8 155.262 544.15 105.197C529.893 68.8739 467.421 27.4424 432.447 10.0144C392.042 -10.1201 342.721 2.88316 295.482 24.5023C273.948 34.3579 224.143 57.173 169.809 120.939C156.35 136.733 69.7749 151.413 69.6182 238.519C69.5311 286.911 75.2926 331.199 74.5091 363.852C73.7255 396.505 15.4874 478.647 2.60771 528.255C-10.272 577.863 26.3699 674.213 72.6856 713.678C119.001 753.144 188.75 719.58 218.357 684.834C272.938 620.779 340.778 545.304 367.495 518.089C394.212 490.874 440.814 477.574 486.588 451.451C532.361 425.328 532.279 411.627 561.357 363.705C590.435 315.783 575.722 235.09 575.722 235.09Z" fill="#004AAD"/>
</svg>
