<svg version="1.2" xmlns="http://www.w3.org/2000/svg" viewBox="185.99999999999994 296 834.0000000000002 528.0000000000001" width="836" height="529">
	<defs>
		<clipPath clipPathUnits="userSpaceOnUse" id="cp1">
			<path d="m926.1 720.08c0 0 52.96-66.51 77.43-117.6 17.76-37.07 4.84-114.96-6.84-154.43-13.5-45.6-58.93-74.27-109.51-95.15-23.06-9.52-76.4-31.53-164.56-27.62-21.84 0.97-95.31-55.21-162.56 7.21-37.35 34.68-67.35 70.92-93.08 93.76-25.73 22.84-130.85 36.94-178.33 62.63-47.48 25.69-95.43 123.11-92.59 187.15 2.84 64.03 78.79 93.68 126.83 91.55 88.55-3.92 195.43-5.83 235.59-4.78 40.16 1.05 83.87 27.41 136.87 43.93 53 16.52 63.5 6.62 121.31-5.38 57.81-11.99 109.44-81.27 109.44-81.27z"/>
		</clipPath>
	</defs>
	<style>
		.s0 { fill: #004aad } 
	</style>
	<g id="Layer 1">
		<path class="s0" d="m926.1 720.08c0 0 52.96-66.51 77.43-117.6 17.76-37.07 4.84-114.96-6.84-154.43-13.5-45.6-58.93-74.27-109.51-95.15-23.06-9.53-76.4-31.53-164.56-27.62-21.84 0.97-95.31-55.21-162.55 7.21-37.36 34.68-67.36 70.92-93.09 93.76-25.73 22.84-130.85 36.94-178.33 62.63-47.48 25.69-95.42 123.11-92.58 187.15 2.83 64.03 78.78 93.68 126.82 91.55 88.56-3.92 195.43-5.83 235.59-4.78 40.16 1.05 83.87 27.41 136.87 43.93 53 16.52 63.5 6.62 121.31-5.38 57.81-11.99 109.44-81.27 109.44-81.27z"/>
		<g id="Clip-Path" clip-path="url(#cp1)">
			<g>
			</g>
		</g>
	</g>
</svg>