<svg width="56" height="46" viewBox="0 0 56 46" fill="none" xmlns="http://www.w3.org/2000/svg">
<path d="M20.7871 10.8282C21.0421 11.3345 21.2621 11.8042 21.3215 12.2529C21.5063 13.6137 20.8294 15.0937 20.1602 16.1728C19.8238 16.7142 19.4169 17.2039 19.0806 17.7381C18.7297 18.2936 18.4283 18.8785 18.1198 19.449C17.6558 20.2958 17.2267 21.1862 17.0508 22.1281C16.9954 22.3991 16.9005 22.673 16.8701 22.9553C16.8063 23.6558 16.8283 24.3654 16.9365 25.0621C16.9924 25.5001 17.1488 25.9328 17.2509 26.3895C17.2937 26.5801 17.3942 26.7504 17.43 26.9336C17.4961 27.2214 17.6769 27.4971 17.7432 27.7705L17.819 27.9224C17.8851 28.203 18.0695 28.4822 18.139 28.7737L18.6538 30.2876C18.7068 30.5107 18.8355 30.7102 18.8851 30.9224C18.9345 31.1346 19.039 31.287 19.0818 31.4848C19.2228 32.15 19.3618 32.74 19.3001 33.326C19.2781 33.5439 19.2377 33.7724 19.2013 33.99C19.1893 34.0579 19.1449 34.1287 19.1292 34.1999C19.0932 34.3891 19.0359 34.5777 18.9608 34.7552C18.5365 35.5849 18.0441 36.4168 17.3031 37.1365C17.201 37.2347 17.0961 37.2864 16.9832 37.3881C16.5972 37.7171 15.8378 38.1034 15.3351 38.1725C14.8901 38.221 14.4395 38.1909 14.0011 38.0856C13.848 38.0432 13.695 37.9937 13.5493 37.93C13.1403 37.7967 12.7425 37.6242 12.3596 37.4235C12.14 37.3047 11.895 37.196 11.6793 37.0593C10.5541 36.3642 9.51313 35.3915 8.51245 34.3659C8.06332 33.8988 7.67251 33.3684 7.23803 32.8801C6.81748 32.4064 6.49543 31.845 6.08257 31.3501C5.94606 31.1863 5.84959 30.991 5.72019 30.8345L4.40951 28.8146C4.25211 28.6218 4.17073 28.391 4.03813 28.2094L3.59843 27.438C3.47252 27.278 3.38794 27.0294 3.25854 26.8657L3.14495 26.6307C3.01918 26.4707 2.97029 26.2227 2.82697 26.0445C2.63823 25.8044 2.50259 25.4151 2.36144 25.1223C2.24728 24.9231 2.15095 24.7208 2.07639 24.5045C2.0465 24.3786 1.93466 24.2403 1.90811 24.1324C1.8582 23.9345 1.71836 23.7598 1.67165 23.5871C1.62494 23.4143 1.47537 23.1858 1.43243 22.9952L1.28838 22.6701C1.22905 22.4112 1.07673 22.1432 1.02073 21.8879L0.901194 21.5883L0.602064 20.5834L0.331368 19.4109C0.21575 18.5384 0.0493569 17.7081 0.0117845 16.8731C-0.0423257 15.6115 0.11014 14.397 0.0631385 13.1357C0.0245506 12.1681 0.00656198 11.2511 0.174405 10.3592C0.296407 9.79216 0.503999 9.2483 0.789492 8.74187C0.889878 8.55401 0.972712 8.34076 1.08383 8.15681C1.47943 7.51634 1.92784 6.91634 2.42585 6.35304C2.56135 6.20174 2.71004 6.10077 2.85975 5.94975C3.19921 5.62335 3.63107 5.32741 4.01681 5.00551C4.16608 4.88307 4.33175 4.83607 4.48799 4.71378C4.68412 4.57437 4.90129 4.45686 5.12164 4.35735L5.33852 4.25406C5.67667 4.17471 5.99205 3.96958 6.31569 3.9043C6.8156 3.78868 7.32565 3.71267 7.8418 3.67974C8.38305 3.65812 8.91429 3.77229 9.42115 3.85367C10.3351 4.00033 11.3179 4.27727 12.1256 4.72277C12.5756 4.97142 13.003 5.26982 13.4381 5.54676C13.6255 5.66861 13.7727 5.82906 13.9674 5.95091C14.2184 6.11702 14.4583 6.30067 14.6873 6.49492C14.8106 6.60111 14.9362 6.76837 15.0669 6.86034L15.4905 6.98684C15.7538 7.0778 16.0095 7.18312 16.2614 7.30613C16.3287 7.33965 16.4217 7.34864 16.489 7.38215C17.0066 7.65009 17.5423 7.90758 18.0412 8.21455C18.3173 8.38457 18.5785 8.57591 18.8508 8.74941C18.9531 8.82659 19.0519 8.90739 19.1468 8.99878C19.5274 9.31401 19.8824 9.65405 20.2117 10.0256L20.6411 10.5961C20.697 10.6688 20.7197 10.7875 20.7871 10.8282Z" fill="#004AAD"/>
<path d="M44.8926 0.761874C48.7654 0.362068 56.2879 7.09117 55.5227 15.4407C54.7575 23.7902 55.2978 27.8203 55.8783 32.617C56.6999 39.3356 49.2571 44.6845 40.0032 36.022C30.7494 27.3596 25.7384 20.9312 29.6441 15.6605C33.5499 10.3899 34.9311 14.0268 37.8326 10.2917C40.7338 6.56675 40.5611 1.20839 44.8926 0.761874Z" fill="#004AAD"/>
<path d="M36.5844 21.788C36.6055 34.4409 46.1902 26.9807 45.8843 35.7079C45.5787 44.4351 36.1165 46.9373 27.4695 41.6904C21.8031 38.2489 5.23526 47.1358 5.95538 34.5283C6.67564 21.9207 16.7612 25.2109 21.1978 18.4828C26.4837 10.4819 36.5757 15.2525 36.5844 21.788Z" fill="#9AE85D"/>
<path d="M23.8828 25.6659C20.5875 13.4496 13.2603 23.1364 11.2969 14.6273C9.33342 6.11846 17.8255 1.25246 27.536 4.0826C33.8999 5.94022 47.6032 -6.93189 50.1707 5.43243C52.738 17.7968 42.1446 17.2291 39.6005 24.8762C36.5655 33.9726 25.5827 31.9764 23.8828 25.6659Z" fill="#9AE85D"/>
<path d="M21.4659 3.69739C20.3003 3.60905 19.1366 3.49415 17.9688 3.43221C15.3133 3.31093 12.7017 4.01886 10.4842 5.50276C10.0646 5.76402 9.69616 6.0559 9.27459 6.34371C7.84307 7.30101 6.99471 8.64898 6.55022 10.2939C5.41159 14.4177 5.61207 18.8028 7.14689 22.8096C7.61096 24.0705 8.18078 25.3394 8.75482 26.5554C9.53513 28.2134 10.6208 29.7079 11.9917 30.9576C12.8872 31.7983 13.8111 32.6144 14.7352 33.4306C16.3833 34.8878 18.2186 35.9862 20.4586 36.3158C22.1441 36.577 23.7992 36.8888 25.4827 37.1764C27.3272 37.4495 29.2265 37.3536 31.0478 36.8788C33.1624 36.3997 35.2568 35.839 37.3714 35.3598C39.5962 34.8357 41.6492 33.7655 43.3388 32.2151C44.5399 31.1336 45.6676 29.9668 46.8178 28.8549C47.8234 27.8919 48.7536 26.8699 49.8306 26.0189C52.4773 23.7949 53.799 19.3651 52.0891 15.5584C51.9319 15.1734 51.744 14.8394 51.5032 14.5014C50.0482 12.6058 48.078 11.1774 45.8212 10.3669C45.7437 10.3342 45.6662 10.3017 45.5867 10.2958C44.1826 10.1893 42.951 9.56305 41.6545 9.09173C39.5547 8.31968 37.453 7.57403 35.3776 6.83056C34.0035 6.3266 32.662 5.74531 31.2533 5.34536C29.4555 4.80933 27.5945 4.40184 25.7601 3.99623C24.9692 3.88308 24.2029 3.79836 23.404 3.79111L21.4965 3.64647L21.4925 3.69942L21.4659 3.69739Z" fill="#F8EA2B"/>
<path fill-rule="evenodd" clip-rule="evenodd" d="M7.3035 17.3378C7.25403 17.3016 7.20297 17.2984 7.16902 17.3001C7.11593 17.3037 7.00089 17.3422 6.99132 17.4957C6.98595 17.5946 7.05558 17.9825 7.20848 18.2597C7.3241 18.4707 7.49296 18.6111 7.67357 18.6172C7.79862 18.6224 7.94441 18.5667 8.09368 18.3928C8.19886 18.2697 8.25021 18.1131 8.24252 17.9547C8.22004 17.3458 7.70403 17.1563 7.42362 17.2673C7.37705 17.2878 7.3373 17.3101 7.3035 17.3378ZM7.85418 18.0131C7.85461 17.9983 7.85505 17.9837 7.85447 17.9724C7.8462 17.7765 7.74973 17.6564 7.63933 17.6255C7.60147 17.6149 7.56259 17.6077 7.54446 17.6323C7.53372 17.6442 7.53474 17.6668 7.5359 17.6895C7.53895 17.7312 7.55592 17.7769 7.58232 17.8289C7.62004 17.9065 7.69591 17.9278 7.75756 17.96C7.79354 17.9776 7.82603 17.9941 7.85418 18.0131ZM4.40302 15.4116C4.31482 15.3682 4.24577 15.3489 4.19122 15.3447C4.08198 15.3365 4.01134 15.3761 3.95839 15.4319C3.91443 15.4828 3.88179 15.5593 3.88672 15.6611C3.89209 15.7743 3.95244 15.9437 4.05326 16.1281C4.21501 16.4265 4.48527 16.7628 4.72057 16.918C4.89625 17.0343 5.06424 17.0592 5.19523 17.0029C5.31854 16.9482 5.43793 16.8143 5.47492 16.5234C5.49857 16.3329 5.47594 16.0029 5.39876 15.7209C5.3387 15.5106 5.24833 15.3289 5.13474 15.2301C4.88972 15.0163 4.70273 15.0196 4.59436 15.0748C4.49905 15.1225 4.42434 15.2429 4.40302 15.4116ZM10.3387 16.5826L10.3319 16.5806C10.261 16.5681 10.1814 16.5867 10.1148 16.6647C10.0572 16.7378 10.0039 16.9276 9.99334 16.9915C9.90703 17.6703 10.2569 18.5312 11.0956 18.4725C11.1939 18.4667 11.2827 18.4284 11.3616 18.3724C11.3883 18.3836 11.4202 18.3888 11.4523 18.3941C11.5562 18.4084 11.6522 18.3312 11.6666 18.2274C11.6726 18.1657 11.6491 18.1035 11.6077 18.0658C11.6326 18.0169 11.6549 17.9636 11.6684 17.9153C11.7311 17.7321 11.7038 17.4975 11.6088 17.2663C11.4814 16.9515 11.2408 16.6422 11.0069 16.4948C10.8269 16.381 10.6511 16.3577 10.5137 16.4233C10.4503 16.4502 10.3905 16.5041 10.3387 16.5826ZM10.4058 17.5499C10.4444 17.6909 10.505 17.8196 10.597 17.9161C10.6889 18.0125 10.8078 18.0794 10.9649 18.09C10.7782 17.9594 10.5559 17.7706 10.4058 17.5499ZM4.78542 15.4409C4.78252 15.4512 4.78208 15.466 4.78266 15.4773C4.77903 15.5432 4.78382 15.6189 4.79891 15.6975C4.83634 15.9089 4.92164 16.1487 5.03261 16.31C5.05582 16.3463 5.08107 16.3757 5.10732 16.4017C5.11443 16.2437 5.09325 16.0145 5.03711 15.8165C5.00258 15.6878 4.96066 15.5719 4.89103 15.5152C4.85113 15.4853 4.81356 15.4599 4.78542 15.4409ZM4.43058 15.8174C4.39562 15.8224 4.35921 15.8197 4.32222 15.8056C4.36951 15.9156 4.44494 16.0447 4.52908 16.1687C4.4873 16.0528 4.45423 15.932 4.43058 15.8174ZM11.281 17.8514C11.2902 17.8316 11.2961 17.8109 11.3043 17.7946C11.3387 17.6853 11.3106 17.5472 11.2528 17.4082C11.1562 17.1691 10.9781 16.9293 10.8014 16.8165C10.7732 16.7974 10.7441 16.7818 10.7165 16.7741C10.7027 16.7702 10.6865 16.7619 10.6766 16.7703C10.6599 16.7768 10.6498 16.8001 10.643 16.8241C10.6279 16.8646 10.6144 16.9128 10.6083 16.9743C10.5926 17.0964 10.6424 17.2109 10.7156 17.3207C10.849 17.5218 11.0638 17.6973 11.2267 17.8062C11.2444 17.8225 11.2633 17.8351 11.281 17.8514ZM13.5344 16.3559C13.4354 16.4174 13.3276 16.4838 13.2443 16.5684C13.1425 16.6662 13.0653 16.7822 13.0379 16.9196C13.007 17.056 13.0225 17.2129 13.1153 17.3989C13.3373 17.8406 13.758 17.9326 14.15 17.8083C14.5174 17.6918 14.8548 17.3774 14.9549 17.0074C15.0996 16.4789 14.8974 16.0724 14.5287 15.7161C14.3359 15.5281 14.1616 15.4866 14.0245 15.5113C13.8794 15.5375 13.752 15.6469 13.6688 15.8245C13.6006 15.9616 13.5552 16.1497 13.5344 16.3559ZM6.62154 13.8022C6.63837 13.7029 6.56902 13.6052 6.46617 13.5875C6.36317 13.5698 6.26221 13.6382 6.24451 13.7412C6.18169 14.0842 6.14702 14.5656 6.27425 14.9473C6.37115 15.2386 6.55814 15.4733 6.87149 15.5761C7.05834 15.6397 7.19368 15.6479 7.31699 15.6194C7.43682 15.5898 7.55012 15.5174 7.69025 15.3893C8.03754 15.0664 8.02898 14.6993 7.86955 14.3793C7.72652 14.0937 7.44393 13.8545 7.20036 13.7415C7.08546 13.6869 6.97666 13.6638 6.89049 13.6657C6.79663 13.6691 6.72105 13.7 6.66564 13.7515C6.65041 13.7658 6.6343 13.7835 6.62154 13.8022ZM13.5263 16.8223C13.4676 16.8727 13.4216 16.9306 13.4082 17.0049C13.3942 17.068 13.4113 17.1397 13.4541 17.2261C13.5057 17.3336 13.5803 17.3992 13.666 17.4381C13.5945 17.2953 13.5458 17.0844 13.5289 16.8529L13.5263 16.8223ZM14.2717 17.3216C14.4196 17.218 14.5351 17.0719 14.5826 16.9029C14.6845 16.526 14.5224 16.2426 14.2628 15.9874C14.2248 15.9507 14.1883 15.9218 14.1566 15.9018C14.1344 15.8882 14.1147 15.8789 14.099 15.8819C14.0597 15.8895 14.0393 15.9359 14.0178 15.9857C13.9891 16.0482 13.9653 16.1197 13.9466 16.1999C13.9801 16.2131 14.0072 16.2356 14.028 16.2675C14.0889 16.3553 14.0664 16.4754 13.9797 16.5328C13.9566 16.5487 13.9345 16.5611 13.907 16.5794C13.9064 16.6611 13.9093 16.7438 13.9141 16.8195C13.927 16.972 13.9534 17.1169 13.9946 17.2215C14.0036 17.2427 14.0185 17.2692 14.0319 17.2878C14.1054 17.2377 14.2093 17.2521 14.2717 17.3216ZM6.57686 14.1208C6.56046 14.2985 6.56293 14.4888 6.59514 14.6654C6.63866 14.9082 6.74441 15.1276 6.98885 15.211C7.01641 15.2188 7.0431 15.23 7.06719 15.2367C6.92328 14.9806 6.79765 14.6329 6.67101 14.3816C6.62531 14.2795 6.59397 14.1926 6.57686 14.1208ZM6.96274 14.058C6.97376 14.0983 6.99132 14.1552 7.01757 14.2073C7.15074 14.4752 7.28043 14.8614 7.43696 15.0987C7.76757 14.7823 7.4918 14.3999 7.21777 14.1965C7.14465 14.1388 7.06777 14.0948 7.00074 14.0686C6.98696 14.0648 6.97304 14.0609 6.96274 14.058ZM17.2522 15.7139C17.2385 15.7102 17.2237 15.7097 17.2123 15.7103C17.0716 15.708 16.9157 15.813 16.8178 16.0161C16.7135 16.2286 16.6564 16.5513 16.714 16.8501C16.776 17.1724 16.9599 17.4584 17.321 17.5636C17.5856 17.6415 17.7832 17.6001 17.9243 17.4946C18.0601 17.3951 18.1518 17.2274 18.1931 17.0271C18.2619 16.6892 18.1974 16.2433 18.069 15.932C18.0112 15.793 17.9423 15.6807 17.8696 15.6083C17.7935 15.5348 17.7156 15.4943 17.6359 15.4869C17.5459 15.4765 17.4495 15.5016 17.3593 15.5841C17.323 15.6075 17.2844 15.6524 17.2522 15.7139ZM10.3312 15.1781C10.3483 15.1828 10.3631 15.1833 10.3804 15.1881C10.4808 15.2014 10.5749 15.1311 10.5917 15.0317C10.7117 14.9352 10.8185 14.82 10.9061 14.733C11.2699 14.3776 11.3803 13.9844 11.3448 13.6472C11.303 13.2523 11.0654 12.9327 10.7754 12.7992C10.7621 12.7805 10.7477 12.7654 10.729 12.7527C10.3456 12.4888 9.92545 12.6202 9.59847 12.9637C9.34388 13.2344 9.1534 13.6348 9.11046 14.0135C9.07826 14.2871 9.12381 14.549 9.25959 14.7546C9.46037 15.0601 9.69204 15.1624 10.0514 15.2074C10.1518 15.2207 10.2442 15.2094 10.3312 15.1781ZM17.0786 16.439C17.0787 16.4912 17.0835 16.5408 17.0882 16.5904C17.1147 16.8137 17.2222 16.948 17.2889 17.1342C17.0777 16.9856 17.0428 16.6856 17.0786 16.439ZM17.5959 15.8811C17.5905 15.887 17.5841 15.8964 17.5823 15.9034C17.5749 15.9162 17.5676 15.9289 17.5593 15.9453C17.5876 15.9904 17.6139 16.0424 17.6383 16.1013C17.6782 16.198 17.6314 16.3115 17.5347 16.3512C17.5091 16.3627 17.4855 16.3672 17.4595 16.3673C17.4568 16.4298 17.462 16.4908 17.4682 16.5484C17.4923 16.741 17.5952 16.8518 17.6504 17.0124C17.6609 17.0413 17.7114 17.1002 17.7282 17.1198L17.7317 17.1208C17.7352 17.1217 17.7385 17.1227 17.7376 17.1262L17.7444 17.1281C17.7772 17.0777 17.7981 17.0166 17.8139 16.9467C17.8495 16.767 17.8357 16.551 17.7945 16.3534C17.7648 16.2075 17.7173 16.0714 17.6568 15.969C17.6439 15.9355 17.6162 15.9017 17.5959 15.8811ZM9.70219 13.4689C9.59629 13.6476 9.51912 13.8565 9.49591 14.0583C9.47516 14.2385 9.49359 14.4111 9.58179 14.5475C9.65766 14.6616 9.74267 14.7301 9.84566 14.7739C9.81186 14.7086 9.78256 14.6409 9.75601 14.5628C9.6462 14.2121 9.63532 13.7738 9.70219 13.4689ZM4.37125 11.9061C4.35747 11.9021 4.34267 11.9017 4.33136 11.9023C4.29059 11.902 4.2433 11.9111 4.20065 11.9438C4.16786 11.968 4.12289 12.0224 4.0917 12.1067C4.05138 12.2107 4.01917 12.3652 4.00873 12.4293C3.95563 12.857 4.28029 13.1713 4.63687 13.2529C4.889 13.3087 5.14547 13.243 5.29954 13.0519C5.39151 12.9363 5.44925 12.7702 5.43242 12.5387C5.41719 12.3149 5.24267 11.9423 5.05379 11.7405C4.91047 11.5887 4.74581 11.5387 4.62309 11.5786C4.53169 11.6126 4.42492 11.7017 4.37125 11.9061ZM10.3144 14.7604C10.3286 14.7495 10.3419 14.7421 10.3562 14.7313C10.4654 14.6465 10.5633 14.5364 10.6446 14.4588C10.8224 14.2892 10.9189 14.1043 10.9569 13.9289C11.0161 13.6517 10.9184 13.39 10.7603 13.2376C10.6699 13.149 10.5619 13.0963 10.4503 13.1097C10.3229 13.1261 10.2088 13.2279 10.1172 13.4217C10.0154 13.6386 10.0102 14.0947 10.1255 14.4395C10.166 14.5737 10.2241 14.6979 10.3144 14.7604ZM4.38619 12.4757C4.37154 12.5943 4.41579 12.6886 4.486 12.7566C4.4432 12.6703 4.41129 12.5721 4.38619 12.4757ZM4.74697 11.9854C4.73726 12.0199 4.72565 12.0613 4.72101 12.1047C4.70432 12.2301 4.76105 12.4656 4.85592 12.6447C4.88566 12.6977 4.91728 12.7438 4.95196 12.7795C4.96719 12.7913 4.98155 12.8065 4.99881 12.8113C5.04045 12.756 5.05481 12.6781 5.04842 12.5684C5.03987 12.4396 4.95239 12.2477 4.84881 12.0996C4.82212 12.0623 4.77903 12.0167 4.74697 11.9854ZM19.8252 14.9629C19.7631 14.9455 19.7046 14.9551 19.6569 14.9789C19.5848 15.0108 19.5075 15.1007 19.4841 15.2503C19.4545 15.4354 19.5002 15.7496 19.6429 15.9832C19.7535 16.1592 19.9141 16.2899 20.1296 16.3168C20.3166 16.3396 20.4568 16.3045 20.5622 16.2336C20.6721 16.1603 20.7473 16.0512 20.7894 15.9143C20.881 15.6014 20.7739 15.1212 20.6081 14.8106C20.5183 14.6403 20.4079 14.5164 20.3127 14.4711C20.228 14.4286 20.1507 14.4256 20.0751 14.4565C19.9828 14.4938 19.8637 14.6129 19.8267 14.9039C19.8238 14.9142 19.825 14.9368 19.8252 14.9629ZM13.4409 12.1559C13.4384 12.1515 13.4335 12.1427 13.4275 12.1373C13.3612 12.0555 13.2436 12.0373 13.1583 12.1026C12.5964 12.5402 12.4142 13.2294 12.6307 13.7439C12.7781 14.094 13.1079 14.3763 13.6431 14.4446L13.6499 14.4465C13.6879 14.4572 13.7336 14.4664 13.7813 14.4685C13.8813 14.4706 13.9914 14.4494 13.9914 14.4494C14.0779 14.4327 14.14 14.3571 14.1426 14.2685C14.2377 14.2209 14.3284 14.1495 14.4234 14.0497C15.0333 13.3876 14.8448 12.23 13.8066 12.0986C13.6673 12.0781 13.5459 12.0999 13.4409 12.1559ZM19.8977 15.3404C19.8845 15.3478 19.8722 15.3518 19.86 15.3558C19.8595 15.3706 19.8591 15.3854 19.8587 15.4002C19.8607 15.5123 19.8933 15.6479 19.9577 15.7627C19.995 15.829 20.0455 15.8877 20.1105 15.9209C20.1056 15.9121 20.1006 15.9033 20.0957 15.8944C20.0281 15.7638 19.9493 15.5409 19.8977 15.3404ZM13.6277 13.9158C13.6953 13.9534 13.7687 13.9702 13.841 13.9644C13.9403 13.9551 14.0384 13.8971 14.1408 13.7844C14.548 13.3408 14.4513 12.5584 13.7577 12.4717C13.6139 12.4537 13.5342 12.5391 13.488 12.6639C13.5147 12.6751 13.5402 12.6897 13.5659 12.7044C13.6592 12.7566 13.6898 12.8729 13.6376 12.9662C13.5946 13.0398 13.5102 13.0756 13.4298 13.0567C13.4281 13.3018 13.4761 13.5682 13.5621 13.7783C13.5841 13.8328 13.6054 13.8761 13.6277 13.9158ZM20.2087 14.9217C20.2077 14.9252 20.2058 14.932 20.2048 14.9355L20.2029 14.9425C20.2068 14.9547 20.2414 15.1765 20.2898 15.3352C20.3303 15.4692 20.4044 15.6426 20.4328 15.7138L20.4333 15.699C20.4453 15.5499 20.4095 15.3724 20.3577 15.2127C20.3232 15.1102 20.2553 14.9943 20.2071 14.9139L20.2087 14.9217ZM8.24151 10.3361C8.18188 10.3231 8.12879 10.3269 8.07715 10.3383C7.94847 10.3728 7.82661 10.5024 7.76409 10.7117C7.67589 10.9995 7.6814 11.4437 7.81385 11.7672C7.89102 11.9564 8.01274 12.1058 8.17057 12.1798C8.33174 12.2548 8.53745 12.2642 8.79218 12.1385L8.80451 12.1345C8.87647 12.1696 8.95132 12.1943 9.03111 12.2019C9.13498 12.2161 9.23101 12.1389 9.24523 12.035C9.25626 11.9563 9.21404 11.8813 9.14992 11.8446C9.30543 11.6613 9.42439 11.4231 9.47647 11.1848C9.56975 10.7461 9.4476 10.3063 8.95437 10.1158C8.74634 10.0351 8.58155 10.0521 8.45447 10.1206C8.36815 10.1634 8.2946 10.2394 8.24151 10.3361ZM8.13503 10.8083C8.13024 10.8256 8.12632 10.8394 8.12139 10.8566C8.10688 10.9084 8.09833 10.9654 8.09223 11.0271C8.07395 11.2116 8.0947 11.4295 8.15838 11.5998C8.20031 11.7157 8.26182 11.8148 8.36525 11.8438C8.39629 11.8525 8.42922 11.8544 8.46506 11.8459C8.44924 11.8228 8.43343 11.7997 8.41762 11.7768C8.23672 11.5065 8.13459 11.1282 8.13503 10.8083ZM8.80422 11.6583C8.94465 11.5155 9.0549 11.3084 9.10074 11.1054C9.15413 10.8488 9.10161 10.5849 8.81627 10.4751C8.73894 10.446 8.67831 10.4364 8.63421 10.4612C8.55471 10.5059 8.53164 10.6147 8.52192 10.7422C8.50045 11.0039 8.58126 11.3391 8.7388 11.573C8.75722 11.6005 8.78232 11.6299 8.80422 11.6583ZM6.3903 9.00572C6.4006 8.98251 6.40394 8.95742 6.40379 8.9313C6.4006 8.79654 6.32952 8.73198 6.26685 8.70326C6.20084 8.67352 6.07928 8.66917 5.95292 8.77507C5.78189 8.92057 5.50829 9.33851 5.43111 9.7595C5.38223 10.0396 5.41603 10.317 5.58532 10.5356C5.69775 10.6788 5.86806 10.8009 6.12657 10.8735C6.33692 10.9325 6.436 10.871 6.59238 10.7512C6.9301 10.4889 6.99393 10.1423 6.92603 9.81448C6.86162 9.51361 6.67579 9.23464 6.49838 9.08435C6.46632 9.05302 6.42874 9.02763 6.3903 9.00572ZM17.2929 11.8308C17.0737 11.8696 16.8709 12.0359 16.7387 12.2815C16.546 12.6366 16.4992 13.148 16.7342 13.5301C16.8929 13.7867 17.1738 13.992 17.6267 14.0484C17.9323 14.0858 18.1519 13.9131 18.3591 13.7182C19.252 12.8827 19.0409 11.8451 18.5316 11.4864C18.2863 11.3133 17.9692 11.2765 17.6425 11.4601C17.4938 11.5522 17.3808 11.6769 17.2929 11.8308ZM5.90273 9.52362C5.85892 9.62661 5.82367 9.73948 5.8064 9.85364C5.78305 10.0034 5.78914 10.1538 5.86646 10.2759C5.93392 10.3805 6.04983 10.4577 6.22913 10.5079C6.29122 10.5255 6.31327 10.4869 6.36027 10.4518C6.36462 10.4493 6.37014 10.4433 6.37449 10.4409C6.32516 10.4048 6.29281 10.3473 6.29209 10.2838C6.28556 10.2671 6.24045 10.1763 6.20563 10.1145C6.09117 9.92618 5.94204 9.70205 5.91332 9.5786C5.90882 9.55509 5.90577 9.53928 5.90273 9.52362ZM17.1278 12.3796C17.1088 12.4077 17.0896 12.4358 17.0741 12.4649C16.9385 12.7096 16.8978 13.0665 17.0623 13.3283C17.1189 13.4187 17.1975 13.4964 17.3069 13.5569C17.2946 13.5349 17.2831 13.5093 17.2717 13.4838C17.1553 13.2093 17.0834 12.7763 17.1278 12.3796ZM17.928 13.5973C17.9893 13.5513 18.0456 13.4964 18.1019 13.4415C18.6761 12.907 18.6951 12.2689 18.4416 11.9261C18.3044 11.7388 18.0729 11.6626 17.8379 11.7977C17.7883 11.8283 17.7447 11.8644 17.707 11.9061C17.7652 11.9372 17.8264 11.9841 17.8847 12.0414C17.9609 12.1148 17.9644 12.2349 17.891 12.3109C17.8176 12.3871 17.6974 12.3906 17.6214 12.3172C17.5952 12.2912 17.5705 12.2731 17.5459 12.2551C17.4768 12.5407 17.4986 12.8742 17.5667 13.1351C17.5933 13.2392 17.6271 13.3306 17.6625 13.4037C17.6748 13.4258 17.6906 13.4489 17.7041 13.4676C17.7758 13.4504 17.8551 13.4726 17.9046 13.5349C17.9111 13.5517 17.9235 13.5738 17.928 13.5973ZM21.1927 12.3298C21.1107 12.2771 21.0355 12.2671 20.9725 12.2792C20.9095 12.2914 20.8512 12.327 20.8009 12.3872C20.7475 12.4579 20.7059 12.58 20.6889 12.7464C20.6577 13.1097 20.752 13.7016 20.9677 14.0857C21.1464 14.4037 21.408 14.585 21.727 14.5219C21.8449 14.4993 21.9533 14.418 22.0382 14.2746C22.1723 14.0481 22.2527 13.6428 22.2581 13.2388C22.2619 12.894 22.2135 12.5493 22.1097 12.323C22.0132 12.11 21.869 11.9877 21.7036 11.9673C21.5599 11.9493 21.4493 11.9853 21.363 12.054C21.2855 12.1179 21.23 12.2101 21.1927 12.3298ZM11.0071 9.34895C10.6213 9.22579 10.3621 9.32792 10.2109 9.50867C9.9932 9.76747 9.999 10.2639 10.236 10.6652C10.4259 10.9826 10.748 11.2403 11.1872 11.2519C11.4566 11.4057 11.7504 11.4063 11.9779 11.1391C12.0057 11.106 12.0637 10.992 12.1228 10.8746C12.1857 10.7957 12.2355 10.6979 12.2709 10.5852C12.4007 10.1491 12.3275 9.76037 12.1276 9.51825C11.9168 9.26191 11.5596 9.1431 11.0969 9.30717C11.067 9.3211 11.0371 9.33503 11.0071 9.34895ZM6.27265 9.41162C6.27729 9.43527 6.2828 9.45543 6.28629 9.48242C6.29485 9.51825 6.32458 9.57134 6.36027 9.62966C6.42338 9.73657 6.50157 9.85524 6.56206 9.9578C6.55176 9.86191 6.52144 9.77154 6.48213 9.68624C6.43542 9.58744 6.34185 9.48314 6.27265 9.41162ZM21.156 12.699C21.1324 12.7035 21.1064 12.7036 21.0813 12.7003L21.0803 12.7038C21.0639 12.7885 21.0624 12.8996 21.0685 13.0241C21.0872 13.3418 21.1766 13.7388 21.3505 13.9811C21.3906 14.037 21.4326 14.086 21.4805 14.1143C21.4348 14.0122 21.3839 13.8752 21.3355 13.7165C21.2445 13.4045 21.1634 13.0173 21.156 12.699ZM21.7943 13.8713C21.8455 13.6885 21.8721 13.4616 21.8758 13.2357C21.878 12.95 21.8451 12.6691 21.7601 12.4817C21.7447 12.4438 21.7238 12.4119 21.702 12.3835C21.6887 12.3649 21.6743 12.3497 21.6527 12.3474C21.6344 12.3459 21.6198 12.3455 21.6075 12.3495C21.5809 12.3643 21.5722 12.3954 21.5616 12.4334C21.5374 12.5196 21.5326 12.6298 21.5404 12.7473C21.5589 13.1059 21.6791 13.5526 21.7773 13.8256C21.7837 13.8423 21.7868 13.8581 21.7943 13.8713ZM11.9232 10.4058C11.999 10.0959 11.9416 9.82318 11.755 9.69276C11.6281 9.60137 11.4452 9.59093 11.2255 9.67057C11.1018 9.71394 10.9976 9.83362 10.8936 9.91225C10.8501 9.94837 10.844 10.0099 10.8507 10.0788C10.8604 10.2564 10.9569 10.4693 11.0866 10.6434C11.1484 10.7277 11.2167 10.8027 11.2931 10.8614C11.3769 10.855 11.4633 10.8384 11.5547 10.8046C11.6661 10.7651 11.7545 10.7155 11.82 10.6409C11.8649 10.5344 11.9095 10.428 11.9232 10.4058ZM10.564 9.70814C10.5552 9.71322 10.5463 9.71815 10.5376 9.72308C10.4577 9.78256 10.432 9.88686 10.4287 10.0049C10.4259 10.1343 10.46 10.2778 10.531 10.4094C10.4941 10.3023 10.4719 10.1957 10.4651 10.1007C10.4564 9.94576 10.4908 9.81041 10.564 9.70814ZM15.2729 8.2917L15.2487 8.28488C14.9005 8.21322 14.5461 8.27009 14.2972 8.46796C14.2208 8.52845 14.1552 8.60302 14.1014 8.68832C14.0201 8.67294 13.9504 8.68309 13.8974 8.71298C13.7943 8.76216 13.7074 8.88648 13.6914 9.0755C13.6653 9.35461 13.7782 9.81404 14.0386 10.1586C14.2469 10.4367 14.5451 10.6467 14.9229 10.6524C15.2397 10.7561 15.5922 10.7062 15.8709 10.4161C16.2791 9.99508 16.3844 9.5931 16.3254 9.26032L16.3238 9.25248C16.3572 8.90838 16.2671 8.59301 16.0689 8.41095C15.8985 8.26269 15.634 8.18464 15.2729 8.2917ZM15.2841 8.68919C15.2207 8.71602 15.1521 8.74881 15.0769 8.79102C14.6829 9.01515 14.5121 9.27976 14.4986 9.54001C14.4967 9.57294 14.4958 9.60253 14.4984 9.633C14.6211 9.77908 14.8007 9.8815 14.9799 9.90572C15.0838 9.92009 15.1576 10.0151 15.1467 10.12C15.1396 10.185 15.0991 10.2368 15.046 10.2665C15.0888 10.26 15.136 10.2508 15.1807 10.2373C15.6199 10.1039 15.8738 9.67666 15.9353 9.28483L15.9363 9.28135C15.8577 8.99151 15.5857 8.78116 15.2841 8.68919ZM8.27299 6.47255C8.25906 6.46864 8.24876 6.46574 8.23745 6.46632C8.16564 6.45732 8.09194 6.48126 8.02927 6.54552C7.97299 6.60036 7.91743 6.71873 7.88769 6.87773C7.8388 7.15785 7.85505 7.5903 7.99141 7.90002C8.10326 8.15099 8.28851 8.32565 8.55282 8.35147C8.70543 8.36452 8.88735 8.32637 9.10364 8.20481C9.52071 7.96472 9.60703 7.59088 9.51926 7.22778C9.44093 6.89702 9.20229 6.58077 8.96336 6.42454C8.75026 6.28281 8.53512 6.26714 8.37918 6.37217C8.34044 6.39103 8.30461 6.4257 8.27299 6.47255ZM8.25413 7.40099C8.26689 7.50123 8.28764 7.60002 8.31897 7.68691C8.36235 7.8108 8.42531 7.91772 8.53382 7.95558C8.59837 7.97734 8.67758 7.97357 8.76549 7.93875C8.67221 7.88653 8.58633 7.82154 8.50524 7.73928C8.42516 7.65355 8.32855 7.53343 8.25413 7.40099ZM9.11743 7.66544C9.16994 7.55751 9.17531 7.43247 9.14571 7.31264C9.08798 7.08068 8.92753 6.85713 8.7623 6.74369C8.72473 6.7183 8.68875 6.70074 8.65524 6.68769C8.63101 6.68087 8.61128 6.67159 8.59373 6.6816C8.57255 6.69059 8.56486 6.71815 8.55166 6.75166C8.52802 6.82304 8.51902 6.92096 8.52511 7.04543C8.52628 7.09417 8.55166 7.14958 8.57792 7.20166C8.63406 7.30669 8.7182 7.40461 8.78493 7.47178C8.87937 7.5726 8.99035 7.64107 9.11743 7.66544ZM20.0542 9.20186C20.0159 9.20592 19.9736 9.22391 19.9306 9.27134C19.883 9.32125 19.7458 9.53188 19.7819 9.78764C19.8044 9.94634 19.8913 10.1271 20.1267 10.2823C20.2546 10.3704 20.3734 10.4111 20.488 10.4135C20.5878 10.4155 20.6886 10.3879 20.792 10.324C20.8363 10.3253 20.8844 10.3128 20.9227 10.2826C20.9697 10.2474 20.9956 10.1951 20.9963 10.1396C21.1621 9.93314 21.1904 9.67318 21.1366 9.42744C21.0743 9.14586 20.8984 8.88445 20.7275 8.75099C20.5498 8.61549 20.3667 8.60505 20.2363 8.69876C20.1476 8.76303 20.0562 8.91607 20.0542 9.20186ZM20.1652 9.66825C20.159 9.70364 20.163 9.74209 20.1751 9.77879C20.1984 9.84117 20.2524 9.90094 20.3393 9.96259C20.3732 9.98696 20.4083 10.008 20.4394 10.0167C20.3954 9.97463 20.3523 9.92908 20.3127 9.88454C20.2573 9.8168 20.2064 9.74673 20.1652 9.66825ZM20.4588 9.03271C20.4568 9.03952 20.4549 9.04649 20.453 9.05331C20.442 9.10611 20.4357 9.16762 20.4421 9.25118C20.451 9.45833 20.5569 9.58469 20.669 9.70176C20.7012 9.73309 20.7299 9.76341 20.762 9.79475C20.7829 9.73367 20.79 9.66868 20.7832 9.59992C20.7687 9.43948 20.6951 9.27758 20.6046 9.16283C20.5634 9.11046 20.4929 9.05708 20.4588 9.03271ZM19.9019 9.45297C19.9148 9.48633 19.9297 9.51288 19.9534 9.53435C19.9737 9.55495 20.0037 9.56714 20.0313 9.57482C19.9727 9.55843 19.9252 9.51535 19.9019 9.45297ZM11.8962 5.72981C11.8251 5.69122 11.7194 5.68382 11.6106 5.77986C11.5258 5.85645 11.4076 6.03909 11.3615 6.25669C11.3133 6.48126 11.3402 6.73063 11.5186 6.92952C11.8624 7.30858 12.1682 7.37212 12.406 7.29378C12.5655 7.24185 12.7036 7.12072 12.8111 6.94997C13.0937 6.88411 13.3335 6.73193 13.4473 6.52579C13.5711 6.29644 13.5695 5.98353 13.289 5.6184C13.2285 5.54195 13.1187 5.52222 13.0373 5.57386C13.0342 5.55805 13.0287 5.53788 13.0258 5.52222C12.9607 5.27705 12.8298 5.17333 12.6968 5.14344C12.6131 5.12372 12.5172 5.13402 12.4186 5.18073C12.313 5.22541 12.2017 5.31695 12.1019 5.43401C12.0221 5.5196 11.9557 5.62362 11.8962 5.72981ZM17.5213 6.45631C17.4968 6.46429 17.4748 6.47676 17.4507 6.49605C17.2463 6.65447 17.1402 6.89992 17.1272 7.17163C17.1054 7.54112 17.2456 7.95616 17.4629 8.22918C17.6306 8.43996 17.8496 8.56095 18.0714 8.55253C18.2253 8.54731 18.3855 8.48072 18.5377 8.32246C18.9362 7.90988 19.046 7.41245 18.9266 7.00321C18.8065 6.58266 18.4477 6.24393 17.8831 6.17473C17.7542 6.15718 17.6545 6.20723 17.5827 6.31733C17.5573 6.3549 17.5369 6.40118 17.5213 6.45631ZM11.7241 6.39567C11.7128 6.48924 11.7291 6.59049 11.8023 6.67434L11.8081 6.67971C11.7577 6.59485 11.7326 6.49852 11.7241 6.39567ZM12.5655 6.60573C12.5747 6.586 12.5805 6.56525 12.5898 6.54552C12.6971 6.25582 12.7269 5.88474 12.6562 5.61941C12.6492 5.59141 12.6413 5.56675 12.6288 5.5447C12.6214 5.5315 12.6208 5.52019 12.6105 5.51728C12.5898 5.51148 12.5702 5.52831 12.5481 5.54064C12.4942 5.57386 12.4398 5.62188 12.3859 5.68121C12.2431 5.84572 12.1187 6.08987 12.1051 6.29789C12.0986 6.3742 12.1087 6.44412 12.1488 6.49997C12.1898 6.55234 12.2594 6.5831 12.3563 6.59543C12.4273 6.6079 12.4966 6.6124 12.5655 6.60573ZM18.237 8.08193C18.2423 8.07599 18.2522 8.06757 18.2586 8.05814C18.5459 7.76307 18.6386 7.40592 18.5551 7.10722C18.4752 6.83551 18.2448 6.62212 17.8904 6.55988C17.8821 6.60224 17.8696 6.67318 17.868 6.73222C17.8657 7.08488 17.9879 7.61772 18.1132 7.91322C18.1361 7.96428 18.1683 8.02173 18.1841 8.0448C18.2074 8.05495 18.2226 8.0667 18.237 8.08193ZM17.5176 7.10621C17.5132 7.13479 17.508 7.16685 17.5071 7.1963C17.493 7.44538 17.5781 7.72579 17.7147 7.92787C17.632 7.69257 17.5573 7.38895 17.5176 7.10621ZM13.0717 5.9815C13.0681 6.14035 13.0486 6.30239 13.0121 6.4595C13.0547 6.42686 13.0869 6.39117 13.1108 6.34591C13.165 6.24567 13.1536 6.12715 13.0717 5.9815ZM14.9896 5.49668C14.9374 5.49697 14.848 5.52396 14.7851 5.62899C14.7376 5.705 14.6828 5.86066 14.6744 6.03692C14.6648 6.21651 14.7017 6.41656 14.8284 6.57483C14.9358 6.70916 15.102 6.81912 15.3714 6.85365C15.6086 6.88309 15.7737 6.82521 15.8893 6.73121C16.006 6.63372 16.0762 6.48982 16.0994 6.31399C16.1281 6.03938 16.0383 5.6831 15.8964 5.42009C15.8116 5.25863 15.7022 5.13126 15.6015 5.06583C15.4914 4.99402 15.3772 4.97676 15.278 5.01216C15.1876 5.04262 15.0906 5.12328 15.025 5.29083C15.0056 5.33377 14.9931 5.40471 14.9896 5.49668ZM15.0536 6.14325C15.0548 6.16588 15.0592 6.18953 15.0672 6.21404C15.0719 6.23769 15.0807 6.25887 15.0932 6.28092C15.0787 6.23958 15.0662 6.19141 15.0536 6.14325ZM15.3984 5.39195C15.392 5.40137 15.3838 5.41762 15.3809 5.42792C15.3678 5.46143 15.3685 5.52497 15.368 5.60665C15.3697 5.75955 15.3961 5.95669 15.4418 6.1257C15.4598 6.19402 15.4797 6.25539 15.5071 6.30399C15.5194 6.32604 15.5377 6.3536 15.5461 6.36332C15.5876 6.37492 15.6225 6.39596 15.6468 6.42874C15.688 6.38827 15.7044 6.32966 15.7105 6.26815C15.738 6.0639 15.6595 5.80002 15.5548 5.60316C15.5162 5.52918 15.4711 5.46433 15.4247 5.41791C15.4206 5.40558 15.4078 5.39833 15.3984 5.39195ZM14.8255 5.76317L14.8241 5.75519C14.8231 5.75868 14.8221 5.76216 14.8255 5.76317Z" fill="#FF914D"/>
<path fill-rule="evenodd" clip-rule="evenodd" d="M40.7867 37.6477C40.7977 37.6446 41.0471 37.5466 41.2692 37.4803C41.941 37.2718 42.9705 36.9952 43.1668 36.908C43.3093 36.844 43.3618 36.7449 43.3767 36.7127C43.4519 36.5512 43.4234 36.4068 43.3328 36.2837C43.3074 36.2507 43.2615 36.1874 43.179 36.1503C43.2093 36.1298 43.2348 36.1066 43.2493 36.0865C43.3256 36.0009 43.3462 35.9028 43.3539 35.8445C43.3663 35.7167 43.3306 35.6183 43.2795 35.5364C43.2306 35.4619 43.1651 35.4 43.074 35.3614C43.0058 35.3324 42.905 35.3164 42.7967 35.3308L42.777 35.3324C42.7088 35.2752 42.6151 35.2413 42.4818 35.2667C42.4249 35.2786 42.3644 35.2916 42.3076 35.3035C42.2987 35.286 42.2859 35.2694 42.2733 35.2529C42.2307 35.2007 42.1573 35.1251 42.0199 35.1074C42.0077 35.1068 41.9636 35.1071 41.8845 35.1252C41.792 35.0671 41.6828 35.0495 41.5806 35.0862C41.511 35.1097 41.0986 35.2696 41.0101 35.3264C40.8952 35.4027 40.8576 35.4976 40.8457 35.541C40.8285 35.5939 40.8234 35.6476 40.8285 35.6943C40.8167 35.7096 40.8087 35.7239 40.797 35.7392C40.5717 35.7944 40.4791 35.8364 40.4691 35.8432C40.4223 35.8764 40.395 35.9082 40.3779 35.933C40.2807 36.0725 40.2959 36.2127 40.3383 36.3212C40.3435 36.3397 40.396 36.4694 40.5198 36.5391C40.393 36.6589 40.379 36.7953 40.3782 36.8636C40.379 36.8955 40.3799 36.9273 40.3883 36.9571L40.3845 36.9582C40.2174 37.0773 40.1775 37.3211 40.2943 37.509C40.3953 37.6973 40.62 37.7546 40.7867 37.6477ZM49.0172 35.0385C49.0455 35.0105 49.0616 34.9819 49.0722 34.9629C49.1408 34.8354 49.1318 34.7174 49.0999 34.6181C49.0722 34.5336 49.0191 34.4443 48.9048 34.38C48.8714 34.3613 48.8201 34.3355 48.7384 34.3304C48.7019 34.3287 48.6222 34.3308 48.4916 34.3514C48.4722 34.1964 48.2917 34.0825 47.8932 34.1061C47.7901 34.0387 47.6671 34.0291 47.5606 34.079C47.4794 34.0897 46.8078 34.1698 46.6925 34.2022C46.4852 34.2643 46.4368 34.4343 46.4253 34.4938C46.4138 34.5531 46.3896 34.8528 46.6602 34.9735C46.6304 34.9818 46.5979 34.995 46.573 35.0058C46.3874 35.074 46.2443 35.1502 46.1884 35.194L46.1783 35.2008C46.095 35.2042 46.0174 35.242 45.9517 35.3085C45.7661 35.505 45.779 35.6939 45.8066 35.8066C45.8414 35.9453 45.9493 36.1156 46.2002 36.1655C46.3444 36.1934 46.6213 36.1799 46.9394 36.1268C47.5681 36.0226 48.3923 35.7995 48.4565 35.7856C48.5431 35.7653 48.7193 35.764 48.8085 35.7389C48.9089 35.7107 48.9776 35.6555 49.0203 35.6073C49.08 35.5343 49.1096 35.4538 49.1165 35.3637C49.1207 35.2783 49.1079 35.1615 49.0172 35.0385ZM37.7523 39.1446C37.777 39.0896 37.7905 39.0377 37.7949 38.9964C37.801 38.9183 37.7967 38.8313 37.758 38.7499C37.8361 38.5996 37.8113 38.4541 37.7281 38.3291C37.7155 38.3125 37.6928 38.2747 37.6506 38.2384C37.6364 38.2023 37.6175 38.1634 37.5921 38.1305C37.4741 37.967 37.2685 37.9204 37.1147 38.0156C37.0764 38.0224 36.899 38.0481 36.7786 38.0617C36.572 38.0836 36.3639 38.1138 36.2352 38.1701C36.0241 38.2613 35.9342 38.427 35.9181 38.5839C35.9124 38.6497 35.9195 38.7038 35.9294 38.7532C35.8964 38.8789 35.9176 38.9972 35.9929 39.1085C35.9913 39.1171 35.9887 39.1217 35.986 39.1265C35.9404 39.2356 35.95 39.3412 35.9797 39.4332C36.0064 39.514 36.0689 39.6368 36.2326 39.6912C36.329 39.8206 36.4864 39.8808 36.6367 39.8306C36.7648 39.7867 37.4054 39.639 37.5229 39.5861C37.6368 39.5341 37.6834 39.4568 37.7011 39.4198C37.7572 39.3197 37.7678 39.2286 37.7523 39.1446ZM42.3557 40.2245C42.4095 40.2014 42.4696 40.1726 42.4786 40.162C42.6731 40.0113 42.6316 39.8061 42.605 39.7255C42.5935 39.6844 42.4985 39.3741 42.1628 39.4362C42.1283 39.4419 42.0985 39.4503 42.064 39.4559C41.978 39.3637 41.7908 39.3119 41.466 39.3548L41.4463 39.3563C41.4389 39.3585 41.4267 39.3577 41.4193 39.3599L41.4006 39.3651C41.3736 39.3688 41.3475 39.376 41.3205 39.3796C41.3056 39.3837 41.2906 39.3879 41.2721 39.3931C40.8212 39.4876 39.5469 39.7646 39.3533 39.8752C39.0728 40.034 39.1468 40.2981 39.1693 40.3639C39.1735 40.3789 39.1787 40.3974 39.1888 40.4188C39.0834 40.4723 39.007 40.586 38.9958 40.7176C38.9314 40.86 38.9604 40.9922 39.0283 41.1056C39.052 41.1471 39.1 41.2179 39.1895 41.2651C39.1747 41.3414 39.186 41.4104 39.2017 41.4661C39.233 41.5778 39.2999 41.6874 39.4476 41.7422C39.4789 41.7535 39.5414 41.7761 39.6327 41.7586C40.3449 41.623 41.1109 41.3359 41.7776 41.0527C41.875 41.0134 42.073 40.9899 42.1756 40.941C42.2719 40.8981 42.3348 40.8363 42.3733 40.7733C42.4326 40.6844 42.456 40.5817 42.4454 40.4723C42.4451 40.4 42.4212 40.3146 42.3557 40.2245ZM48.1164 39.3792C48.1921 39.3058 48.2169 39.2227 48.2263 39.1558C48.2421 39.0551 48.2224 38.9563 48.1635 38.8606C48.1351 38.8163 48.0672 38.703 47.8901 38.6724L47.8853 38.6697C47.877 38.6399 47.8639 38.6076 47.8444 38.5809C47.8374 38.4986 47.7979 38.4294 47.7132 38.385L47.7112 38.3777C47.6787 38.2905 47.6114 38.1648 47.4274 38.1242C47.4057 38.1183 47.3669 38.109 47.3017 38.1193C47.2821 38.1209 47.2214 38.1338 47.0987 38.1682L46.9438 38.1876C46.8302 38.083 46.6748 38.0584 46.5493 38.1257C46.4903 38.1302 46.21 38.1606 46.0809 38.201C45.8413 38.2761 45.7216 38.4502 45.7005 38.6325C45.6681 38.6457 45.6367 38.6626 45.6042 38.6756C45.5017 38.7245 45.4291 38.7809 45.3801 38.8348C45.1409 38.9259 44.9276 39.0379 44.7646 39.1719C44.6372 39.2758 44.6239 39.3999 44.6292 39.4906C44.633 39.5898 44.6659 39.693 44.7509 39.7815C44.7625 39.7942 44.7837 39.8124 44.8037 39.8269C44.7782 39.8501 44.7575 39.8759 44.7414 39.9045C44.6526 40.0458 44.6226 40.2106 44.7415 40.406C44.7382 40.4511 44.7412 40.4903 44.7485 40.5164C44.7759 40.6571 44.8873 40.8827 45.2092 40.9007C45.5556 40.9198 46.6979 40.6155 47.4245 40.3596C47.7715 40.2381 48.0306 40.1174 48.1056 40.0562C48.2585 39.929 48.2666 39.7864 48.2687 39.7217C48.2603 39.5916 48.2247 39.4652 48.1164 39.3792ZM52.2208 38.0356C52.239 37.9863 52.2425 37.9411 52.2427 37.9131C52.2534 37.7656 52.2086 37.6057 52.0164 37.5071C51.9974 37.4964 51.9138 37.4557 51.7821 37.4726C51.7401 37.4803 51.6636 37.4938 51.5637 37.5097L51.5627 37.5059C51.5249 37.4283 51.4077 37.2245 51.14 37.2715C51.0679 37.2435 50.9872 37.2421 50.9112 37.2715C50.824 37.304 50.7634 37.3451 50.7208 37.3931C50.5348 37.4453 50.3518 37.5085 50.1815 37.6165C50.0832 37.6803 49.985 37.788 49.956 37.8563C49.905 37.9749 49.9103 38.0938 49.9516 38.1985C49.9568 38.2171 49.9679 38.2422 49.9837 38.2697C49.941 38.3179 49.9169 38.3607 49.9018 38.393C49.8376 38.5355 49.8534 38.6634 49.8995 38.7708C49.9346 38.8532 49.9943 38.9367 50.0952 38.9967C50.1074 39.0254 50.1231 39.0531 50.1379 39.077C50.1811 39.1452 50.2686 39.2571 50.4527 39.2697C50.5014 39.272 50.6331 39.2552 50.793 39.2102C51.0432 39.144 51.411 39.0249 51.5146 39.0078C51.591 38.9945 51.9239 38.9653 52.1645 38.9219C52.3137 38.8961 52.4353 38.858 52.4945 38.8253C52.6541 38.7364 52.6914 38.5976 52.7008 38.5027C52.7121 38.3711 52.675 38.2532 52.5746 38.1529C52.5361 38.1157 52.4611 38.0483 52.3296 38.0372C52.303 38.0285 52.2675 38.0305 52.2208 38.0356ZM37.3158 42.5808C37.3251 42.5421 37.3278 42.5093 37.328 42.4812C37.3312 42.3638 37.248 42.0101 36.858 42.0352C36.826 42.0361 36.7841 42.0439 36.7348 42.0538C36.6726 41.9749 36.5662 41.8964 36.3927 41.8929C36.119 41.8894 35.0052 42.1377 34.7973 42.2121C34.5932 42.2853 34.5707 42.4481 34.5598 42.4952L34.5592 42.5074C34.5214 42.5301 34.491 42.5507 34.4719 42.5681C34.3082 42.7143 34.317 42.8884 34.3367 42.987C34.358 43.0774 34.3989 43.1662 34.4871 43.2377C34.4632 43.2525 34.443 43.2661 34.4227 43.2799C34.3014 43.362 34.2288 43.4466 34.2021 43.4942C34.1342 43.6095 34.1362 43.7173 34.1545 43.7965C34.1752 43.8989 34.2256 43.9931 34.3223 44.0663C34.3329 44.0753 34.3473 44.0833 34.3663 44.094C34.3862 44.1647 34.4262 44.2217 34.4726 44.2729C34.5412 44.3459 34.6883 44.441 34.9161 44.4093C35.353 44.351 36.664 43.7185 36.7783 43.6823C37.0924 43.5863 37.0683 43.6011 37.3751 43.479C37.4948 43.4333 37.8015 43.3111 37.8409 43.2801C38.0178 43.1382 37.9937 42.9524 37.9687 42.8631C37.9541 42.8111 37.8717 42.5172 37.5361 42.5511C37.4671 42.5624 37.3934 42.5711 37.3158 42.5808ZM50.7625 39.0583L50.7554 39.0763C50.7572 39.0679 50.7598 39.0631 50.7625 39.0583ZM44.0561 43.8838C44.3017 43.7869 44.539 43.6601 44.6207 43.5651C44.6868 43.4864 44.72 43.4048 44.73 43.3258C44.9176 43.2651 45.109 43.2035 45.2933 43.1317C45.4816 43.0588 45.5697 42.8295 45.4954 42.6217C45.421 42.4139 45.2051 42.3019 45.0168 42.3747C44.8935 42.4214 44.7654 42.4654 44.6411 42.5083C44.6276 42.4317 44.5963 42.3483 44.5197 42.2614C44.4559 42.191 44.3317 42.1056 44.1524 42.0957C44.1401 42.0952 44.1316 42.0934 44.1205 42.0966C44.0719 42.0661 44.0104 42.0473 43.9335 42.0448C43.8688 42.0428 43.332 42.1893 43.2331 42.2372C43.1694 42.2671 43.1395 42.3035 43.124 42.3199C43.013 42.4393 43.0167 42.5666 43.0284 42.6516C43.032 42.6786 43.0377 42.7131 43.0509 42.7456C43.0168 42.8675 43.0284 42.9806 43.0599 43.0641L43.0651 43.0826L43.0004 43.0807C42.7967 43.0697 42.6319 43.2402 42.6345 43.4642C42.6361 43.6844 42.8008 43.8709 43.0045 43.8819L43.1593 43.8907C43.1899 43.9423 43.2315 43.9908 43.2945 44.0293C43.3252 44.0528 43.387 44.0875 43.481 44.0933C43.509 44.0935 43.5813 44.0933 43.6996 44.0721C43.8627 44.0385 43.9889 43.9588 44.0561 43.8838ZM39.4457 45.7265C39.5696 45.6959 39.6885 45.6624 39.7751 45.6422C39.9372 45.6048 40.0944 45.5646 40.2485 45.5134C40.2708 45.5071 40.3272 45.4793 40.3346 45.4773C40.366 45.4604 40.3879 45.4382 40.407 45.4208C40.4916 45.3931 40.574 45.3579 40.6564 45.3228C40.6963 45.3075 40.7947 45.272 40.8222 45.2562C40.8639 45.2325 40.892 45.2045 40.9101 45.1834C40.9747 45.1131 41.0017 45.0374 41.0099 44.9669C41.1714 44.8133 41.101 44.5762 41.0947 44.5539C41.0733 44.4918 40.9906 44.2542 40.7088 44.2651L40.705 44.2661C40.6719 44.2192 40.6254 44.168 40.5502 44.129C40.5216 44.1129 40.4904 44.1016 40.4555 44.0913C40.4166 44.0099 40.3506 43.9321 40.2305 43.8896C40.2124 43.8827 40.1149 43.8499 39.9141 43.9062C39.836 43.9281 39.7737 43.9777 39.7277 44.0427C39.7037 44.0575 39.6798 44.0721 39.6596 44.0859C39.6256 44.1075 39.5963 44.1318 39.5717 44.1587C39.3145 44.2429 39.0636 44.3494 38.8464 44.4905C38.8059 44.5179 38.7766 44.5422 38.7531 44.5728C38.7244 44.5848 38.6947 44.5932 38.6659 44.6053C38.5129 44.6602 38.5325 44.6588 38.3831 44.7126C38.3433 44.7278 38.2386 44.7693 38.2257 44.7809C38.0484 44.9069 38.0629 45.0873 38.0768 45.1797C38.0965 45.2785 38.1417 45.3822 38.2648 45.4639C38.285 45.4784 38.3346 45.5127 38.4248 45.5193C38.4206 45.6048 38.4395 45.6718 38.4425 45.683C38.4447 45.6904 38.5976 46.0928 38.9497 45.9458C39.1161 45.8671 39.2799 45.7931 39.4457 45.7265ZM50.5871 41.952C51.0003 41.7518 51.1074 41.5613 51.0157 41.4345C51.0331 41.225 50.7068 41.12 49.8927 41.3643L49.8815 41.3675L49.8518 41.3758L49.8258 41.3832C49.7571 41.3382 49.6786 41.3161 49.5974 41.3269C49.5974 41.3269 49.4143 41.3462 49.3107 41.3631L49.2995 41.3662C49.1205 41.4004 48.9421 41.4223 48.7689 41.4909C48.6242 41.5477 48.5555 41.6029 48.5273 41.6309C48.4489 41.7091 48.4251 41.796 48.4137 41.8554C48.4114 41.8761 48.4092 41.8967 48.4071 41.9174C48.358 41.9431 48.3193 41.9621 48.2888 41.9826C48.1042 42.1107 48.0763 42.283 48.0795 42.3663C48.0815 42.4018 48.0834 42.4374 48.0929 42.4709C48.071 42.4931 48.0464 42.5201 48.0305 42.5486C47.9202 42.7279 47.9704 42.9786 48.1428 43.1069C48.2867 43.219 48.6453 43.1103 48.6453 43.1103C48.6453 43.1103 48.6277 43.1192 48.6166 43.1224C48.751 43.0726 50.0469 42.7292 50.3706 42.6104C50.596 42.5272 50.6558 42.354 50.6623 42.32C50.6952 42.1944 50.6714 42.0808 50.6066 41.9785C50.6008 41.9721 50.594 41.962 50.5871 41.952Z" fill="#F8EA2B"/>
<path d="M11.8062 17.7757C11.8062 15.4544 13.5054 13.5725 15.6016 13.5725H41.0019C43.0981 13.5725 44.7974 15.4544 44.7974 17.7757V28.1222C44.7974 30.4436 43.0981 32.3254 41.0019 32.3254H15.6016C13.5054 32.3254 11.8062 30.4436 11.8062 28.1222V17.7757Z" fill="white"/>
<path d="M42.5123 26.7631C42.8039 27.2109 42.8039 27.6326 42.5123 28.0283C42.1687 28.4761 41.8198 28.7781 41.4658 28.9343C40.3516 29.4549 39.128 29.7465 37.7951 29.809C35.8166 29.6632 34.2129 29.0176 32.9841 27.8721C31.3388 26.3413 30.8338 24.3524 31.469 21.9053C31.9376 20.0621 33.0779 18.5574 34.8898 17.3911C35.7124 16.8704 36.608 16.6101 37.5764 16.6101C38.7115 16.6101 39.6955 16.9537 40.5286 17.641C40.841 17.9014 41.0701 18.1825 41.2159 18.4845C41.3408 18.7657 41.3304 19.0156 41.1846 19.2343C41.018 19.4529 40.7681 19.5415 40.4349 19.4998C40.1954 19.479 39.9298 19.4061 39.6382 19.2811C38.5553 18.8438 37.592 18.7917 36.7486 19.1249C35.9155 19.4581 35.1397 20.1975 34.4212 21.343C34.1921 21.7074 34.0151 22.2281 33.8901 22.9049C33.7443 23.6339 33.8432 24.3212 34.1869 24.9668C34.5305 25.6124 35.0616 26.107 35.7801 26.4507C36.3112 26.711 36.8683 26.8672 37.4515 26.9193C38.045 26.9713 38.5605 26.9609 38.9978 26.888C39.4352 26.8047 39.9246 26.6746 40.4661 26.4975C40.8722 26.3726 41.1742 26.2945 41.3721 26.2632C41.8719 26.2112 42.252 26.3778 42.5123 26.7631Z" fill="#004AAD"/>
<path d="M31.3104 25.4354C31.4978 26.1747 31.4406 26.836 31.1386 27.4191C30.8366 28.0023 30.342 28.4084 29.6547 28.6375C28.8841 28.9082 27.9573 29.0644 26.8743 29.1061C26.0725 29.1373 25.3332 28.7781 24.6563 28.0283C24.4064 27.7471 24.2502 27.4452 24.1877 27.1224C24.1356 26.7995 24.1877 26.508 24.3439 26.2476C24.5938 25.8103 25.0052 25.5916 25.5779 25.5916C25.7341 25.5916 25.8903 25.6072 26.0465 25.6385C26.1298 25.6593 26.2652 25.6957 26.4526 25.7478C26.64 25.7999 26.7858 25.8415 26.89 25.8728C26.9941 25.8936 27.1295 25.9196 27.2961 25.9509C27.4627 25.9717 27.6189 25.9769 27.7647 25.9665C27.9209 25.9561 28.0771 25.93 28.2333 25.8884L28.7487 25.7322L28.6706 25.5604C28.5873 25.3521 28.4676 25.1751 28.3114 25.0293C28.1552 24.8835 27.999 24.7794 27.8428 24.7169C27.697 24.644 27.52 24.5711 27.3117 24.4982C26.2391 24.1754 25.2707 23.5766 24.4064 22.7019C23.7712 22.0563 23.4744 21.3326 23.5161 20.5307C23.5577 19.7393 23.917 19.0677 24.5938 18.5158C25.8851 17.4536 27.3481 17.1152 28.983 17.5005C29.712 17.6671 30.2535 18.0367 30.6075 18.6095C30.7429 18.849 30.821 19.1093 30.8418 19.3905C30.8522 19.6508 30.795 19.8226 30.67 19.9059C30.545 19.9997 30.3524 19.9944 30.0921 19.8903C29.1236 19.4946 28.2697 19.3801 27.5304 19.5467C27.1763 19.63 26.739 19.8174 26.2183 20.109C25.9996 20.234 25.8903 20.3954 25.8903 20.5932C25.8903 20.7911 25.9944 20.9577 26.2027 21.093L26.5463 21.2961C27.2961 21.7543 27.874 22.0615 28.2801 22.2177C29.9463 22.8841 30.9564 23.9567 31.3104 25.4354Z" fill="#004AAD"/>
<path d="M23.1143 26.4662C23.4267 26.7265 23.6246 27.0285 23.7079 27.3722C23.7912 27.7054 23.7443 28.0178 23.5673 28.3094C23.3903 28.6218 23.1299 28.8196 22.7863 28.9029C22.4531 28.9758 22.0834 28.9342 21.6773 28.778C20.8963 28.4551 20.1465 27.8772 19.428 27.0441L18.9438 26.4818C18.2461 25.6696 17.7254 25.0604 17.3818 24.6543C17.3506 24.6126 17.3089 24.545 17.2568 24.4512C17.236 24.3992 17.2152 24.3627 17.1944 24.3419L17.1006 24.1857L16.7414 24.4356V25.201C16.7414 26.0132 16.7414 26.6068 16.7414 26.9817V27.0754C16.7414 27.4294 16.7258 27.695 16.6945 27.872C16.6425 28.1427 16.5279 28.3666 16.3509 28.5437C16.1739 28.7207 15.9604 28.8196 15.7105 28.8404C15.4605 28.8717 15.2262 28.8248 15.0076 28.6999C14.7993 28.5749 14.6535 28.3979 14.5702 28.1688C14.3619 27.6377 14.2578 27.1587 14.2578 26.7317C14.2578 25.1073 14.2838 22.6497 14.3359 19.3591V19.2029C14.3359 18.9634 14.388 18.6927 14.4921 18.3907C14.6379 17.9429 14.9086 17.7242 15.3043 17.7347C15.7105 17.7451 15.9604 17.9585 16.0541 18.3751C16.1374 18.7083 16.2259 19.2185 16.3196 19.9058L16.3821 20.2807C16.403 20.4577 16.4342 20.7285 16.4758 21.0929C16.4967 21.2387 16.5123 21.3793 16.5227 21.5147L16.5539 21.8115L16.8976 21.5615C16.9601 21.5199 17.0069 21.4834 17.0382 21.4522L21.0525 17.8284C21.0733 17.8075 21.115 17.7763 21.1775 17.7347L21.2087 17.719C21.5315 17.5108 21.8439 17.4118 22.1459 17.4223C22.4479 17.4327 22.6926 17.5576 22.88 17.7971C23.0779 18.0471 23.1456 18.3282 23.0831 18.6406C23.031 18.9426 22.8644 19.2133 22.5832 19.4528C22.1667 19.8069 21.5211 20.3276 20.6464 21.0148C20.209 21.3481 19.8758 21.6084 19.6467 21.7958C19.4905 21.9208 19.2718 22.103 18.9907 22.3425L18.5221 22.733L18.772 22.9673C18.8657 23.0506 18.9334 23.1079 18.975 23.1392C19.2145 23.337 19.6467 23.6859 20.2715 24.1857C21.5003 25.1645 22.4479 25.9247 23.1143 26.4662Z" fill="#004AAD"/>
</svg>
