<svg width="330" height="221" viewBox="0 0 330 221" fill="none" xmlns="http://www.w3.org/2000/svg">
<mask id="mask0_229_1411" style="mask-type:luminance" maskUnits="userSpaceOnUse" x="0" y="35" width="91" height="147">
<path d="M0 35.8455H90.1531V181.405H0V35.8455Z" fill="white"/>
</mask>
<g mask="url(#mask0_229_1411)">
<mask id="mask1_229_1411" style="mask-type:luminance" maskUnits="userSpaceOnUse" x="-36" y="17" width="173" height="173">
<path d="M41.4493 17.0239L136.413 115.757L59.5086 189.726L-35.4556 90.9942L41.4493 17.0239Z" fill="white"/>
</mask>
<g mask="url(#mask1_229_1411)">
<mask id="mask2_229_1411" style="mask-type:luminance" maskUnits="userSpaceOnUse" x="-36" y="17" width="173" height="173">
<path d="M41.4493 17.0239L136.413 115.757L59.5086 189.726L-35.4556 90.9942L41.4493 17.0239Z" fill="white"/>
</mask>
<g mask="url(#mask2_229_1411)">
<path d="M87.6148 66.0049C88.6896 68.1387 89.6171 70.1184 89.8671 72.0094C90.646 77.7442 87.7933 83.9816 84.9729 88.5298C83.5551 90.8115 81.8402 92.8755 80.423 95.1267C78.944 97.4677 77.6736 99.9328 76.3737 102.337C74.4179 105.906 72.6094 109.659 71.8684 113.629C71.6349 114.771 71.235 115.925 71.1066 117.115C70.8376 120.067 70.9305 123.057 71.3866 125.994C71.622 127.84 72.2811 129.663 72.7115 131.588C72.8919 132.391 73.3156 133.109 73.4666 133.881C73.7448 135.094 74.5072 136.256 74.7866 137.409L75.1057 138.049C75.3845 139.231 76.1616 140.408 76.4544 141.636L78.6243 148.017C78.8474 148.957 79.3897 149.798 79.5988 150.692C79.8073 151.587 80.2475 152.229 80.4279 153.063C81.0221 155.866 81.6078 158.352 81.348 160.822C81.2551 161.741 81.0851 162.704 80.9316 163.621C80.8809 163.907 80.6938 164.205 80.6278 164.505C80.4762 165.303 80.2347 166.097 79.918 166.846C78.1296 170.342 76.0546 173.849 72.9316 176.882C72.5012 177.296 72.0592 177.513 71.5835 177.942C69.9566 179.329 66.756 180.957 64.6375 181.248C62.7618 181.452 60.8628 181.325 59.0152 180.881C58.3701 180.703 57.7251 180.494 57.1113 180.226C55.3872 179.664 53.7107 178.937 52.0973 178.091C51.1716 177.59 50.139 177.132 49.2299 176.556C44.4879 173.627 40.1006 169.527 35.8832 165.205C33.9904 163.236 32.3433 161.001 30.5122 158.943C28.7397 156.947 27.3825 154.581 25.6424 152.495C25.0671 151.804 24.6605 150.981 24.1152 150.322L18.5913 141.809C17.9279 140.996 17.5849 140.023 17.0261 139.258L15.173 136.007C14.6423 135.333 14.2859 134.285 13.7405 133.595L13.2618 132.605C12.7317 131.931 12.5257 130.885 11.9216 130.134C11.1262 129.122 10.5546 127.481 9.95967 126.248C9.47851 125.408 9.07255 124.555 8.75829 123.644C8.63235 123.113 8.16096 122.53 8.04908 122.076C7.83876 121.242 7.24938 120.505 7.05251 119.777C6.85565 119.049 6.2253 118.086 6.04433 117.283L5.43722 115.913C5.18716 114.821 4.5452 113.692 4.30921 112.616L3.80542 111.354L2.54474 107.118L1.40388 102.177C0.916604 98.4997 0.21534 95.0001 0.0569902 91.4809C-0.171058 86.1643 0.471513 81.0457 0.273422 75.7297C0.110793 71.6517 0.0349802 67.7871 0.742358 64.0283C1.25654 61.6384 2.13144 59.3463 3.33465 57.2119C3.75773 56.4202 4.10684 55.5214 4.57516 54.7462C6.24242 52.0469 8.13223 49.5182 10.2311 47.1442C10.8022 46.5065 11.4288 46.081 12.0598 45.4445C13.4904 44.0689 15.3106 42.8216 16.9362 41.465C17.5654 40.949 18.2636 40.7509 18.922 40.2355C19.7486 39.6479 20.6639 39.1527 21.5926 38.7333L22.5066 38.298C23.9318 37.9635 25.2609 37.099 26.6249 36.8239C28.7318 36.3366 30.8814 36.0163 33.0568 35.8775C35.3379 35.7864 37.5768 36.2675 39.713 36.6105C43.5647 37.2286 47.7069 38.3958 51.1111 40.2734C53.0076 41.3213 54.8088 42.5789 56.6423 43.7461C57.4323 44.2596 58.0528 44.9358 58.8733 45.4494C59.931 46.1494 60.9423 46.9235 61.907 47.7421C62.4267 48.1896 62.9562 48.8946 63.507 49.2822L65.2923 49.8153C66.402 50.1987 67.4799 50.6425 68.5412 51.161C68.8249 51.3022 69.2168 51.3401 69.5005 51.4814C71.6819 52.6106 73.9398 53.6958 76.0424 54.9895C77.2058 55.7061 78.307 56.5125 79.4545 57.2437C79.8856 57.569 80.3019 57.9095 80.7018 58.2947C82.3061 59.6232 83.8021 61.0563 85.19 62.6221L86.9997 65.0267C87.2351 65.333 87.3311 65.8331 87.6148 66.0049Z" fill="#004AAD"/>
</g>
</g>
</g>
<mask id="mask3_229_1411" style="mask-type:luminance" maskUnits="userSpaceOnUse" x="157" y="26" width="173" height="195">
<path d="M157.456 26.6073H329.31V221H157.456V26.6073Z" fill="white"/>
</mask>
<g mask="url(#mask3_229_1411)">
<mask id="mask4_229_1411" style="mask-type:luminance" maskUnits="userSpaceOnUse" x="151" y="16" width="212" height="214">
<path d="M151.118 111.664L249.959 16.9818L362.912 134.896L264.071 229.578L151.118 111.664Z" fill="white"/>
</mask>
<g mask="url(#mask4_229_1411)">
<mask id="mask5_229_1411" style="mask-type:luminance" maskUnits="userSpaceOnUse" x="157" y="26" width="173" height="195">
<path d="M329.31 26.6069H157.456V221H329.31V26.6069Z" fill="white"/>
</mask>
<g mask="url(#mask5_229_1411)">
<mask id="mask6_229_1411" style="mask-type:luminance" maskUnits="userSpaceOnUse" x="176" y="36" width="117" height="169">
<path d="M176.081 36.3096H292.685V204.095H176.081V36.3096Z" fill="white"/>
</mask>
<g mask="url(#mask6_229_1411)">
<mask id="mask7_229_1411" style="mask-type:luminance" maskUnits="userSpaceOnUse" x="151" y="16" width="212" height="214">
<path d="M151.119 111.664L249.959 16.9813L362.912 134.895L264.071 229.577L151.119 111.664Z" fill="white"/>
</mask>
<g mask="url(#mask7_229_1411)">
<mask id="mask8_229_1411" style="mask-type:luminance" maskUnits="userSpaceOnUse" x="151" y="16" width="212" height="214">
<path d="M264.031 229.537L362.872 134.855L249.919 16.941L151.078 111.623L264.031 229.537Z" fill="white"/>
</mask>
<g mask="url(#mask8_229_1411)">
<path d="M246.041 36.4336C262.364 34.7486 294.067 63.1085 290.842 98.2977C287.617 133.487 289.894 150.472 292.341 170.687C295.804 199.003 264.436 221.547 225.435 185.038C186.434 148.53 165.316 121.438 181.776 99.2239C198.237 77.0109 204.058 92.3391 216.287 76.597C228.514 60.8983 227.786 38.3154 246.041 36.4336Z" fill="#004AAD"/>
</g>
</g>
</g>
</g>
</g>
</g>
<mask id="mask9_229_1411" style="mask-type:luminance" maskUnits="userSpaceOnUse" x="30" y="18" width="212" height="157">
<path d="M30.5205 18.623H241.191V174.2H30.5205V18.623Z" fill="white"/>
</mask>
<g mask="url(#mask9_229_1411)">
<mask id="mask10_229_1411" style="mask-type:luminance" maskUnits="userSpaceOnUse" x="28" y="18" width="217" height="157">
<path d="M39.0791 18.509L244.386 34.0744L233.773 174.067L28.4653 158.502L39.0791 18.509Z" fill="white"/>
</mask>
<g mask="url(#mask10_229_1411)">
<mask id="mask11_229_1411" style="mask-type:luminance" maskUnits="userSpaceOnUse" x="30" y="18" width="212" height="157">
<path d="M241.191 18.623H30.5205V174.2H241.191V18.623Z" fill="white"/>
</mask>
<g mask="url(#mask11_229_1411)">
<mask id="mask12_229_1411" style="mask-type:luminance" maskUnits="userSpaceOnUse" x="37" y="22" width="199" height="144">
<path d="M37.4072 22.538H235.869V165.593H37.4072V22.538Z" fill="white"/>
</mask>
<g mask="url(#mask12_229_1411)">
<mask id="mask13_229_1411" style="mask-type:luminance" maskUnits="userSpaceOnUse" x="28" y="18" width="217" height="157">
<path d="M39.0791 18.509L244.386 34.0744L233.773 174.067L28.4653 158.502L39.0791 18.509Z" fill="white"/>
</mask>
<g mask="url(#mask13_229_1411)">
<mask id="mask14_229_1411" style="mask-type:luminance" maskUnits="userSpaceOnUse" x="28" y="18" width="217" height="157">
<path d="M244.443 34.0803L39.1362 18.5149L28.5225 158.508L233.83 174.073L244.443 34.0803Z" fill="white"/>
</mask>
<g mask="url(#mask14_229_1411)">
<path d="M103.428 23.8402C98.5152 23.4678 93.6106 22.9836 88.689 22.7225C77.4975 22.2114 66.4906 25.195 57.1449 31.4489C55.3768 32.55 53.8238 33.7801 52.0471 34.9931C46.0139 39.0277 42.4385 44.7087 40.5652 51.6413C35.7664 69.0213 36.6114 87.5023 43.0799 104.389C45.0357 109.703 47.4373 115.051 49.8565 120.176C53.1452 127.163 57.7208 133.462 63.4985 138.729C67.2726 142.272 71.1665 145.712 75.0611 149.151C82.0071 155.293 89.7418 159.922 99.1822 161.311C106.286 162.412 113.261 163.726 120.357 164.938C128.13 166.089 136.135 165.685 143.811 163.684C152.723 161.665 161.55 159.302 170.462 157.282C179.838 155.073 188.49 150.563 195.611 144.028C200.674 139.47 205.426 134.553 210.274 129.867C214.512 125.808 218.432 121.501 222.971 117.915C234.126 108.541 239.696 89.8721 232.49 73.8286C231.827 72.206 231.035 70.7986 230.02 69.374C223.888 61.385 215.585 55.3646 206.073 51.9488C205.747 51.8112 205.42 51.6743 205.085 51.6492C199.168 51.2005 193.977 48.5611 188.513 46.5747C179.663 43.3209 170.805 40.1783 162.059 37.045C156.268 34.921 150.614 32.4711 144.677 30.7855C137.1 28.5265 129.257 26.8091 121.525 25.0996C118.192 24.6227 114.963 24.2657 111.596 24.2351L103.557 23.6256L103.54 23.8487L103.428 23.8402Z" fill="#F8EA2B"/>
</g>
</g>
</g>
</g>
</g>
</g>
<mask id="mask15_229_1411" style="mask-type:luminance" maskUnits="userSpaceOnUse" x="0" y="79" width="170" height="128">
<path d="M0.626953 79.6641H169.195V206.755H0.626953V79.6641Z" fill="white"/>
</mask>
<g mask="url(#mask15_229_1411)">
<mask id="mask16_229_1411" style="mask-type:luminance" maskUnits="userSpaceOnUse" x="-36" y="40" width="244" height="238">
<path d="M207.168 114.844L137.59 277.871L-35.478 204.007L34.1 40.98L207.168 114.844Z" fill="white"/>
</mask>
<g mask="url(#mask16_229_1411)">
<mask id="mask17_229_1411" style="mask-type:luminance" maskUnits="userSpaceOnUse" x="-36" y="40" width="244" height="238">
<path d="M207.168 114.844L137.59 277.871L-35.478 204.007L34.1 40.98L207.168 114.844Z" fill="white"/>
</mask>
<g mask="url(#mask17_229_1411)">
<path d="M129.939 111.361C130.028 164.687 170.423 133.246 169.134 170.027C167.846 206.808 127.967 217.354 91.5243 195.24C67.6434 180.736 -2.18219 218.19 0.852751 165.055C3.8883 111.921 46.394 125.787 65.0921 97.4312C87.3699 63.7113 129.902 83.8174 129.939 111.361Z" fill="#9AE85D"/>
</g>
</g>
</g>
<mask id="mask18_229_1411" style="mask-type:luminance" maskUnits="userSpaceOnUse" x="87" y="0" width="239" height="220">
<path d="M87.0225 0H325.553V219.592H87.0225V0Z" fill="white"/>
</mask>
<g mask="url(#mask18_229_1411)">
<mask id="mask19_229_1411" style="mask-type:luminance" maskUnits="userSpaceOnUse" x="72" y="-44" width="284" height="280">
<path d="M355.717 60.3544L258.287 235.721L72.146 132.306L169.575 -43.061L355.717 60.3544Z" fill="white"/>
</mask>
<g mask="url(#mask19_229_1411)">
<mask id="mask20_229_1411" style="mask-type:luminance" maskUnits="userSpaceOnUse" x="87" y="0" width="239" height="220">
<path d="M325.553 0H87.0225V219.592H325.553V0Z" fill="white"/>
</mask>
<g mask="url(#mask20_229_1411)">
<mask id="mask21_229_1411" style="mask-type:luminance" maskUnits="userSpaceOnUse" x="120" y="37" width="192" height="149">
<path d="M120.831 37.5647H311.154V185.159H120.831V37.5647Z" fill="white"/>
</mask>
<g mask="url(#mask21_229_1411)">
<mask id="mask22_229_1411" style="mask-type:luminance" maskUnits="userSpaceOnUse" x="72" y="-44" width="284" height="280">
<path d="M355.717 60.3544L258.287 235.721L72.146 132.306L169.575 -43.061L355.717 60.3544Z" fill="white"/>
</mask>
<g mask="url(#mask22_229_1411)">
<mask id="mask23_229_1411" style="mask-type:luminance" maskUnits="userSpaceOnUse" x="72" y="-44" width="284" height="280">
<path d="M72.1387 132.259L169.568 -43.1078L355.709 60.3076L258.28 235.674L72.1387 132.259Z" fill="white"/>
</mask>
<g mask="url(#mask23_229_1411)">
<path d="M158.665 145.229C164.814 85.1933 115.66 115.851 121.421 74.6004C127.182 33.3493 173.306 26.152 211.736 55.3141C236.917 74.4384 319.904 40.461 310.261 99.9156C300.618 159.37 254.397 138.781 230.027 168.508C201 203.853 155.479 176.238 158.665 145.229Z" fill="#9AE85D"/>
</g>
</g>
</g>
</g>
</g>
</g>
<mask id="mask24_229_1411" style="mask-type:luminance" maskUnits="userSpaceOnUse" x="16" y="41" width="78" height="58">
<path d="M16.2769 41.3186H93.9087V98.9164H16.2769V41.3186Z" fill="white"/>
</mask>
<g mask="url(#mask24_229_1411)">
<mask id="mask25_229_1411" style="mask-type:luminance" maskUnits="userSpaceOnUse" x="11" y="31" width="91" height="83">
<path d="M28.463 31.0833L101.361 51.5391L83.9821 113.475L11.083 93.0189L28.463 31.0833Z" fill="white"/>
</mask>
<g mask="url(#mask25_229_1411)">
<mask id="mask26_229_1411" style="mask-type:luminance" maskUnits="userSpaceOnUse" x="11" y="31" width="91" height="83">
<path d="M28.463 31.0833L101.361 51.5391L83.9821 113.475L11.083 93.0189L28.463 31.0833Z" fill="white"/>
</mask>
<g mask="url(#mask26_229_1411)">
<path fill-rule="evenodd" clip-rule="evenodd" d="M30.7854 93.4396C30.577 93.2868 30.3618 93.2733 30.2187 93.2807C29.9949 93.2959 29.5101 93.458 29.4697 94.1048C29.4471 94.5218 29.7406 96.1566 30.385 97.325C30.8723 98.214 31.5839 98.8058 32.3451 98.8315C32.8721 98.8535 33.4866 98.6187 34.1157 97.8856C34.5589 97.3672 34.7754 96.7069 34.743 96.0392C34.6482 93.4732 32.4735 92.6748 31.2917 93.1425C31.0954 93.2287 30.9279 93.3228 30.7854 93.4396ZM33.1063 96.2856C33.1081 96.2233 33.11 96.1615 33.1075 96.1138C33.0727 95.2885 32.6661 94.7822 32.2008 94.652C32.0412 94.6074 31.8774 94.5768 31.801 94.6807C31.7557 94.7309 31.76 94.8263 31.7649 94.9216C31.7777 95.0977 31.8493 95.2903 31.9605 95.5092C32.1195 95.8363 32.4393 95.9261 32.6991 96.0619C32.8507 96.1358 32.9877 96.2055 33.1063 96.2856ZM18.5613 85.3216C18.1896 85.1388 17.8986 85.0575 17.6687 85.0397C17.2083 85.0049 16.9106 85.1718 16.6874 85.4072C16.5022 85.6218 16.3646 85.944 16.3854 86.3732C16.408 86.8501 16.6623 87.5642 17.0873 88.3412C17.769 89.5989 18.908 91.0161 19.8996 91.6703C20.64 92.1606 21.348 92.2651 21.9001 92.0279C22.4198 91.7974 22.923 91.2331 23.0789 90.0073C23.1785 89.2045 23.0832 87.8136 22.7579 86.6251C22.5048 85.7386 22.1239 84.9731 21.6452 84.5567C20.6125 83.6555 19.8244 83.6696 19.3677 83.9019C18.9661 84.1031 18.6512 84.6105 18.5613 85.3216ZM43.5776 90.2567L43.5488 90.2482C43.2499 90.1956 42.9142 90.2738 42.6336 90.6028C42.3909 90.9109 42.1665 91.7106 42.1218 91.9802C41.7581 94.8409 43.2327 98.4689 46.7672 98.2219C47.1817 98.1975 47.5559 98.036 47.8885 97.8001C48.001 97.8471 48.1355 97.8691 48.2706 97.8911C48.7083 97.9517 49.1131 97.6264 49.1736 97.1887C49.1993 96.9288 49.1002 96.6665 48.9254 96.5076C49.0305 96.3015 49.1247 96.0772 49.1816 95.8736C49.4457 95.1014 49.3307 94.1128 48.9303 93.1382C48.3935 91.8115 47.3792 90.508 46.3936 89.8868C45.6349 89.4069 44.8939 89.3091 44.3149 89.5854C44.0477 89.6985 43.7958 89.926 43.5776 90.2567ZM43.86 94.3335C44.0227 94.9277 44.2782 95.47 44.6658 95.8766C45.0535 96.2832 45.5542 96.565 46.2163 96.6097C45.4295 96.0594 44.4928 95.2634 43.86 94.3335ZM20.1729 85.4451C20.1607 85.4885 20.1589 85.5509 20.1613 85.5985C20.146 85.8761 20.1662 86.1953 20.2298 86.5266C20.3875 87.4174 20.747 88.4281 21.2147 89.1079C21.3126 89.2608 21.419 89.3849 21.5296 89.4943C21.5596 88.8285 21.4703 87.8625 21.2337 87.028C21.0882 86.4857 20.9115 85.9972 20.618 85.7581C20.4499 85.6322 20.2915 85.5252 20.1729 85.4451ZM18.6775 87.0316C18.5301 87.053 18.3767 87.0414 18.2208 86.9821C18.4201 87.4456 18.738 87.9897 19.0926 88.5124C18.9165 88.0239 18.7771 87.5146 18.6775 87.0316ZM47.5485 95.6039C47.5877 95.5208 47.6121 95.4334 47.647 95.3649C47.7919 94.9039 47.6733 94.3219 47.4299 93.7361C47.0227 92.7286 46.272 91.7179 45.5273 91.2423C45.4087 91.1622 45.2858 91.0962 45.1696 91.0638C45.1115 91.0472 45.0431 91.0124 45.0015 91.0479C44.9312 91.0754 44.8884 91.1732 44.8596 91.2747C44.7961 91.4453 44.7392 91.6482 44.7135 91.9075C44.6475 92.4223 44.8572 92.9047 45.166 93.3675C45.7278 94.2149 46.6333 94.9546 47.3199 95.4138C47.3945 95.4823 47.4739 95.5355 47.5485 95.6039ZM57.0459 89.3011C56.6283 89.5603 56.174 89.8404 55.8231 90.1968C55.3939 90.6089 55.0686 91.098 54.9531 91.677C54.8229 92.2517 54.8883 92.9132 55.2796 93.697C56.215 95.5587 57.988 95.9463 59.64 95.4224C61.1886 94.9314 62.6107 93.6065 63.0326 92.0469C63.6422 89.8196 62.7899 88.1065 61.2363 86.6049C60.4238 85.8125 59.6889 85.6377 59.1111 85.7416C58.4998 85.8523 57.963 86.3133 57.612 87.0616C57.3247 87.6394 57.1333 88.4323 57.0459 89.3011ZM27.9113 78.5388C27.9822 78.12 27.69 77.7086 27.2565 77.634C26.8224 77.5594 26.3969 77.8473 26.3223 78.2814C26.0576 79.7274 25.9114 81.756 26.4476 83.3645C26.856 84.5922 27.6441 85.5814 28.9647 86.0149C29.7522 86.2827 30.3226 86.3175 30.8423 86.1971C31.3473 86.0724 31.8248 85.7673 32.4154 85.2274C33.8791 83.8665 33.843 82.3197 33.1711 80.9709C32.5683 79.7671 31.3773 78.7589 30.3507 78.2827C29.8665 78.0528 29.408 77.9556 29.0448 77.9635C28.6493 77.9776 28.3307 78.1078 28.0972 78.3248C28.033 78.3854 27.9651 78.46 27.9113 78.5388ZM57.0116 91.2667C56.764 91.4795 56.5702 91.7234 56.514 92.0365C56.4547 92.3024 56.5268 92.6045 56.7072 92.9688C56.9248 93.4219 57.2391 93.6982 57.6004 93.8621C57.299 93.2605 57.0936 92.3715 57.0226 91.3957L57.0116 91.2667ZM60.153 93.3711C60.7766 92.9346 61.2632 92.3189 61.4632 91.6067C61.893 90.0183 61.2094 88.8236 60.1157 87.7482C59.9555 87.5935 59.8014 87.4718 59.6681 87.3875C59.5746 87.33 59.4914 87.2909 59.4254 87.3037C59.2597 87.3355 59.1735 87.5311 59.083 87.7409C58.962 88.0044 58.8617 88.3058 58.7828 88.6439C58.9241 88.6995 59.0384 88.7943 59.1258 88.9288C59.3826 89.2987 59.2878 89.8049 58.9222 90.047C58.825 90.1137 58.7321 90.1662 58.6159 90.2433C58.6135 90.5875 58.6257 90.936 58.6459 91.2551C58.7003 91.8977 58.8116 92.5085 58.9852 92.9493C59.0231 93.0385 59.0861 93.1504 59.1423 93.2287C59.4523 93.0178 59.8901 93.0783 60.153 93.3711ZM27.723 79.8814C27.6539 80.6304 27.6643 81.4325 27.8 82.1766C27.9834 83.2001 28.4291 84.1245 29.4593 84.476C29.5755 84.509 29.688 84.5561 29.7895 84.5842C29.183 83.5051 28.6535 82.0396 28.1198 80.9807C27.9272 80.5503 27.7951 80.1841 27.723 79.8814ZM29.3493 79.6167C29.3958 79.7867 29.4697 80.0263 29.5804 80.2458C30.1417 81.3751 30.6882 83.0026 31.3479 84.0028C32.7413 82.6694 31.579 81.0578 30.4241 80.2006C30.116 79.9573 29.7919 79.772 29.5095 79.6613C29.4514 79.6454 29.3927 79.6289 29.3493 79.6167ZM72.7146 86.5957C72.6565 86.5798 72.5941 86.578 72.5464 86.5804C71.9534 86.5707 71.2961 87.0133 70.8835 87.8692C70.4439 88.7649 70.2036 90.1247 70.4463 91.3841C70.7074 92.7426 71.4826 93.9477 73.0044 94.3909C74.1195 94.7193 74.9523 94.545 75.5471 94.1005C76.1194 93.6811 76.5058 92.9743 76.68 92.13C76.9698 90.7061 76.6978 88.8267 76.1567 87.5146C75.9134 86.9289 75.6229 86.4557 75.3166 86.1506C74.9957 85.8407 74.6673 85.6701 74.3317 85.6389C73.952 85.5949 73.5461 85.7006 73.1658 86.0485C73.0129 86.147 72.8503 86.3365 72.7146 86.5957ZM43.5458 84.3372C43.6179 84.3574 43.6803 84.3593 43.753 84.3794C44.1761 84.4357 44.5729 84.1392 44.6438 83.7204C45.1494 83.3138 45.5994 82.8283 45.9687 82.4615C47.5021 80.9636 47.9673 79.3067 47.8175 77.8853C47.6415 76.221 46.64 74.8742 45.4178 74.3117C45.3616 74.2328 45.3011 74.1692 45.2222 74.1154C43.6063 73.0033 41.8357 73.5572 40.4576 75.005C39.3846 76.1458 38.5819 77.8333 38.4009 79.429C38.2652 80.5821 38.4572 81.6863 39.0294 82.5526C39.8756 83.8402 40.852 84.2712 42.3664 84.4607C42.7895 84.517 43.1789 84.4693 43.5458 84.3372ZM71.9827 89.6514C71.9833 89.8715 72.0035 90.0806 72.0231 90.2897C72.135 91.2307 72.588 91.7968 72.8692 92.5812C71.9791 91.9552 71.8317 90.6908 71.9827 89.6514ZM74.1629 87.3C74.1403 87.3251 74.1134 87.3648 74.1055 87.3942C74.0743 87.448 74.0437 87.5018 74.0089 87.5709C74.1281 87.761 74.2388 87.9799 74.3415 88.2281C74.5096 88.6359 74.3127 89.114 73.9049 89.2816C73.7973 89.3299 73.6977 89.3488 73.5882 89.3494C73.5766 89.6129 73.5986 89.8697 73.6249 90.1124C73.7264 90.9244 74.1599 91.3915 74.3928 92.0683C74.4369 92.1899 74.6496 92.4382 74.7205 92.5207L74.7352 92.525C74.7499 92.5286 74.7639 92.5329 74.7603 92.5476L74.789 92.5555C74.9272 92.3434 75.0152 92.086 75.0819 91.7913C75.2317 91.0338 75.1736 90.1234 74.9999 89.2907C74.8746 88.6757 74.6747 88.1022 74.4197 87.6705C74.3653 87.5293 74.2485 87.3869 74.1629 87.3ZM40.8948 77.1339C40.4485 77.8871 40.1232 78.7675 40.0254 79.6179C39.938 80.3773 40.0156 81.1048 40.3873 81.6795C40.7071 82.1607 41.0654 82.4493 41.4994 82.6339C41.357 82.3588 41.2335 82.0733 41.1216 81.7443C40.6588 80.266 40.6129 78.419 40.8948 77.1339ZM18.4274 70.5473C18.3693 70.5308 18.307 70.529 18.2593 70.5315C18.0875 70.5302 17.8882 70.5687 17.7084 70.7063C17.5703 70.8084 17.3807 71.0377 17.2493 71.3929C17.0793 71.8313 16.9436 72.4824 16.8996 72.7526C16.6758 74.555 18.0441 75.8799 19.5469 76.2235C20.6095 76.4589 21.6904 76.1819 22.3397 75.3767C22.7273 74.8894 22.9707 74.1894 22.8997 73.2136C22.8355 72.2702 22.1 70.7002 21.304 69.8498C20.7 69.2096 20.006 68.9993 19.4888 69.1674C19.1036 69.3105 18.6536 69.6859 18.4274 70.5473ZM43.4748 82.5771C43.5348 82.5312 43.591 82.5 43.6509 82.4542C44.1113 82.0971 44.524 81.6331 44.8664 81.306C45.6159 80.5913 46.0225 79.8117 46.1827 79.0726C46.4321 77.9042 46.0207 76.8013 45.3543 76.1593C44.9734 75.7857 44.5179 75.5638 44.0477 75.62C43.5109 75.6891 43.0298 76.1183 42.644 76.9352C42.2148 77.8492 42.1928 79.7714 42.6788 81.2247C42.8494 81.7902 43.0946 82.3135 43.4748 82.5771ZM18.4904 72.9483C18.4286 73.4478 18.6151 73.8452 18.911 74.1319C18.7307 73.7682 18.5962 73.3542 18.4904 72.9483ZM20.0109 70.8818C19.97 71.0273 19.921 71.2015 19.9015 71.3843C19.8312 71.9132 20.0702 72.9055 20.4701 73.6605C20.5954 73.8837 20.7287 74.0781 20.8748 74.2285C20.939 74.278 20.9995 74.3422 21.0723 74.3624C21.2478 74.1295 21.3083 73.8012 21.2814 73.339C21.2453 72.796 20.8766 71.9872 20.4401 71.3629C20.3276 71.2058 20.146 71.0138 20.0109 70.8818ZM83.5582 83.4306C83.2965 83.3572 83.0501 83.3975 82.849 83.4978C82.5451 83.6323 82.2192 84.0114 82.1208 84.6417C81.9961 85.4219 82.1887 86.7461 82.7903 87.7305C83.2561 88.4721 83.933 89.0229 84.8415 89.1367C85.6296 89.2326 86.2202 89.0847 86.6646 88.7857C87.1275 88.477 87.4448 88.0172 87.6221 87.44C88.0079 86.1213 87.5567 84.0976 86.8578 82.7886C86.4794 82.0708 86.0141 81.5487 85.6131 81.3579C85.256 81.1788 84.9301 81.166 84.6116 81.2962C84.2228 81.4533 83.7208 81.9553 83.5649 83.1817C83.5527 83.2251 83.5576 83.3205 83.5582 83.4306ZM56.6515 71.6002C56.6411 71.5818 56.6203 71.5445 56.5953 71.5219C56.3159 71.1771 55.82 71.1007 55.4605 71.3758C53.0926 73.2197 52.3247 76.1244 53.2369 78.293C53.8581 79.7683 55.2484 80.9581 57.5038 81.2461L57.5325 81.254C57.6927 81.2993 57.8853 81.3378 58.0865 81.3469C58.5077 81.3555 58.9717 81.2662 58.9717 81.2662C59.3361 81.1959 59.5978 80.8774 59.6088 80.5038C60.0099 80.3033 60.392 80.0025 60.7925 79.5819C63.3627 76.7915 62.5686 71.9126 58.1928 71.3587C57.6059 71.2725 57.0942 71.3642 56.6515 71.6002ZM83.8639 85.0214C83.8082 85.0526 83.7563 85.0697 83.7049 85.0862C83.7031 85.1486 83.7012 85.2109 83.6994 85.2733C83.708 85.7459 83.8455 86.3175 84.117 86.8011C84.2741 87.0806 84.4869 87.3282 84.7608 87.4682C84.74 87.4309 84.7192 87.3936 84.6984 87.3563C84.4135 86.806 84.0815 85.8663 83.8639 85.0214ZM57.439 79.0175C57.7239 79.1759 58.0333 79.2468 58.3377 79.2224C58.7565 79.1832 59.1698 78.9387 59.6015 78.4636C61.3176 76.594 60.9099 73.2968 57.9868 72.9312C57.3809 72.8553 57.0446 73.2155 56.8502 73.7412C56.9627 73.7883 57.0703 73.8501 57.1785 73.9118C57.5717 74.1319 57.7007 74.6223 57.4806 75.0154C57.2996 75.3254 56.9438 75.4764 56.6051 75.3969C56.5977 76.4295 56.8001 77.5527 57.1626 78.4379C57.255 78.6678 57.3448 78.85 57.439 79.0175ZM85.1747 83.2569C85.1704 83.2716 85.1625 83.3003 85.1582 83.315L85.1502 83.3443C85.1667 83.3957 85.3123 84.3305 85.5165 84.9994C85.687 85.5643 85.9995 86.2949 86.1193 86.5951L86.1211 86.5327C86.1719 85.9042 86.0209 85.1565 85.8026 84.4834C85.6571 84.0511 85.3709 83.5626 85.168 83.2239L85.1747 83.2569ZM34.7387 63.9309C34.4874 63.8759 34.2636 63.8918 34.046 63.9401C33.5037 64.0856 32.9901 64.6315 32.7266 65.5138C32.3549 66.7268 32.3781 68.5988 32.9363 69.9622C33.2616 70.7595 33.7745 71.3892 34.4397 71.701C35.119 72.0171 35.9859 72.0569 37.0595 71.5268L37.1115 71.5103C37.4147 71.6582 37.7302 71.7622 38.0665 71.794C38.5042 71.8539 38.909 71.5286 38.9689 71.0909C39.0154 70.7589 38.8375 70.4428 38.5672 70.2881C39.2226 69.5159 39.724 68.512 39.9435 67.5075C40.3366 65.6587 39.8218 63.8049 37.7431 63.0022C36.8663 62.6623 36.1718 62.7338 35.6362 63.0224C35.2724 63.2027 34.9625 63.5231 34.7387 63.9309ZM34.2899 65.921C34.2698 65.9937 34.2533 66.0518 34.2325 66.1246C34.1713 66.3428 34.1353 66.5831 34.1096 66.8429C34.0325 67.6206 34.12 68.5389 34.3884 69.2567C34.5651 69.7452 34.8243 70.1628 35.2602 70.2851C35.391 70.3217 35.5298 70.3297 35.6808 70.2936C35.6142 70.1964 35.5476 70.0992 35.4809 70.0026C34.7185 68.8636 34.2881 67.2691 34.2899 65.921ZM37.1103 69.5031C37.7021 68.9015 38.1668 68.0284 38.36 67.1731C38.5849 66.0915 38.3636 64.9794 37.161 64.5166C36.8352 64.3937 36.5796 64.3534 36.3937 64.4579C36.0587 64.6462 35.9615 65.1048 35.9205 65.6422C35.83 66.7451 36.1706 68.158 36.8345 69.1436C36.9122 69.2598 37.018 69.3833 37.1103 69.5031ZM26.9367 58.3238C26.9802 58.226 26.9942 58.1202 26.9936 58.0102C26.9802 57.4422 26.6806 57.1701 26.4165 57.0491C26.1383 56.9237 25.6259 56.9054 25.0934 57.3517C24.3726 57.9649 23.2195 59.7264 22.8942 61.5006C22.6882 62.6812 22.8307 63.8502 23.5441 64.7715C24.018 65.375 24.7357 65.8898 25.8252 66.1955C26.7118 66.4443 27.1293 66.1851 27.7884 65.6801C29.2117 64.5747 29.4807 63.1141 29.1946 61.7323C28.9232 60.4643 28.14 59.2886 27.3922 58.6552C27.2571 58.5231 27.0988 58.4161 26.9367 58.3238ZM72.8858 70.23C71.9619 70.3939 71.1072 71.0945 70.5502 72.1296C69.7383 73.6263 69.5408 75.7815 70.5313 77.3919C71.2002 78.4734 72.3838 79.3385 74.2926 79.5764C75.5808 79.7341 76.5064 79.0059 77.3795 78.1848C81.1426 74.6632 80.253 70.2906 78.1064 68.7786C77.0726 68.0492 75.7361 67.8939 74.3592 68.6679C73.7325 69.0562 73.2563 69.5814 72.8858 70.23ZM24.8819 60.5065C24.6972 60.9406 24.5487 61.4162 24.4759 61.8974C24.3775 62.5284 24.4031 63.1624 24.729 63.6772C25.0133 64.118 25.5018 64.4432 26.2575 64.6548C26.5192 64.7288 26.6121 64.5661 26.8102 64.4182C26.8285 64.4078 26.8518 64.3827 26.8701 64.3723C26.6622 64.2201 26.5259 63.978 26.5228 63.7102C26.4953 63.6399 26.3052 63.2571 26.1584 62.9967C25.6761 62.2031 25.0476 61.2585 24.9265 60.7382C24.9075 60.6392 24.8947 60.5725 24.8819 60.5065ZM72.19 72.5429C72.1099 72.6615 72.0292 72.7801 71.9638 72.9024C71.3921 73.9338 71.2209 75.4379 71.9143 76.5414C72.1527 76.9223 72.4841 77.25 72.9451 77.505C72.8931 77.412 72.8448 77.3044 72.7965 77.1968C72.3062 76.0401 72.0029 74.2151 72.19 72.5429ZM75.5624 77.6749C75.821 77.4811 76.0583 77.25 76.2955 77.0183C78.7154 74.7659 78.7955 72.0764 77.7274 70.6317C77.149 69.8424 76.1732 69.5214 75.1827 70.0906C74.9737 70.2196 74.7902 70.3719 74.6313 70.5473C74.8764 70.6788 75.1344 70.8763 75.3802 71.1178C75.7012 71.4271 75.7159 71.9334 75.4065 72.2537C75.0972 72.5747 74.5909 72.5894 74.2706 72.28C74.1599 72.1706 74.056 72.0942 73.952 72.0184C73.661 73.2222 73.7527 74.6278 74.0401 75.727C74.1519 76.166 74.2944 76.5512 74.4436 76.8593C74.4955 76.9523 74.5622 77.0495 74.619 77.1283C74.9211 77.0562 75.2555 77.1497 75.464 77.412C75.4915 77.483 75.5435 77.5759 75.5624 77.6749ZM89.3218 72.3332C88.9763 72.1113 88.659 72.0691 88.3937 72.1198C88.1283 72.1712 87.8825 72.3216 87.6704 72.5753C87.4454 72.8731 87.2699 73.3879 87.1984 74.0891C87.0669 75.62 87.4643 78.1145 88.3735 79.7335C89.1267 81.0737 90.2291 81.8379 91.5735 81.5719C92.0706 81.4766 92.5273 81.1342 92.8849 80.5295C93.4505 79.5751 93.7892 77.8669 93.8118 76.1642C93.8277 74.7109 93.6241 73.2583 93.1863 72.3045C92.7798 71.407 92.1721 70.8916 91.4751 70.8054C90.8692 70.7295 90.4033 70.8812 90.0395 71.171C89.713 71.44 89.4789 71.8288 89.3218 72.3332ZM46.3942 59.7704C44.7685 59.2513 43.676 59.6817 43.0389 60.4435C42.1212 61.5342 42.1457 63.6264 43.1447 65.3175C43.945 66.6552 45.3023 67.7417 47.1536 67.7906C48.2889 68.4387 49.527 68.4411 50.4857 67.3149C50.603 67.1755 50.8476 66.695 51.0964 66.2004C51.3618 65.8678 51.5715 65.4557 51.7207 64.9806C52.2679 63.1428 51.9591 61.5043 51.1166 60.4839C50.2283 59.4035 48.723 58.9028 46.7727 59.5943C46.6467 59.653 46.5208 59.7117 46.3942 59.7704ZM26.4409 60.0345C26.4605 60.1342 26.4837 60.2191 26.4984 60.3329C26.5345 60.4839 26.6598 60.7076 26.8102 60.9534C27.0761 61.404 27.4057 61.9041 27.6606 62.3364C27.6172 61.9323 27.4894 61.5514 27.3238 61.1919C27.1269 60.7755 26.7325 60.3359 26.4409 60.0345ZM89.1671 73.8892C89.0674 73.9082 88.958 73.9088 88.8522 73.8947L88.8479 73.9094C88.7788 74.2664 88.7727 74.7348 88.7984 75.2593C88.8773 76.5983 89.2539 78.2716 89.9869 79.2927C90.1557 79.5281 90.333 79.7347 90.5348 79.8539C90.3422 79.4235 90.1276 78.8464 89.9234 78.1775C89.54 76.8624 89.1982 75.2306 89.1671 73.8892ZM91.8572 78.8298C92.073 78.0595 92.1849 77.1033 92.2008 76.1513C92.21 74.9469 92.0712 73.7633 91.7129 72.9733C91.6481 72.8138 91.5601 72.6793 91.4683 72.5594C91.4121 72.4812 91.3516 72.417 91.2605 72.4072C91.1834 72.4011 91.1217 72.3992 91.0697 72.4164C90.9578 72.4787 90.9212 72.6096 90.8765 72.7698C90.7744 73.1329 90.7542 73.5976 90.7873 74.0928C90.8649 75.6042 91.3717 77.4866 91.7857 78.6373C91.8126 78.7076 91.8254 78.7742 91.8572 78.8298ZM50.2552 64.2244C50.5749 62.9184 50.3328 61.769 49.5466 61.2194C49.0116 60.8342 48.2406 60.7902 47.315 61.1258C46.7935 61.3086 46.3545 61.813 45.9161 62.1444C45.7327 62.2966 45.707 62.5559 45.7352 62.8463C45.7761 63.5946 46.1827 64.4921 46.7293 65.2258C46.9897 65.581 47.2777 65.8971 47.5999 66.1447C47.9527 66.1178 48.3171 66.0475 48.7022 65.9051C49.1718 65.7388 49.5441 65.5297 49.8205 65.2154C50.0094 64.7667 50.1977 64.3179 50.2552 64.2244ZM44.527 61.2842C44.4898 61.3056 44.4525 61.3264 44.4158 61.3472C44.0789 61.5978 43.9707 62.0374 43.9566 62.5351C43.945 63.0804 44.0887 63.6851 44.3877 64.2396C44.2324 63.7884 44.1388 63.3391 44.1101 62.9386C44.0734 62.2856 44.2183 61.7152 44.527 61.2842ZM64.3728 55.3146L64.2707 55.2858C62.8033 54.9838 61.3097 55.2235 60.2606 56.0574C59.9384 56.3124 59.662 56.6266 59.4352 56.9861C59.0928 56.9213 58.7987 56.9641 58.5756 57.09C58.1409 57.2973 57.7746 57.8213 57.7074 58.6179C57.5973 59.7942 58.073 61.7305 59.1704 63.1825C60.0484 64.3546 61.3054 65.2399 62.8975 65.2637C64.2328 65.7009 65.7184 65.4905 66.8929 64.2678C68.6134 62.4935 69.0572 60.7993 68.8084 59.3968L68.8017 59.3638C68.9423 57.9136 68.5626 56.5844 67.7275 55.8171C67.0091 55.1923 65.8945 54.8634 64.3728 55.3146ZM64.4198 56.9898C64.1527 57.1029 63.8635 57.2411 63.5468 57.419C61.8862 58.3636 61.166 59.4787 61.1092 60.5756C61.1012 60.7144 61.0975 60.8391 61.1086 60.9675C61.6258 61.5831 62.3827 62.0148 63.1378 62.1169C63.5755 62.1774 63.8867 62.5779 63.8409 63.0199C63.8109 63.2938 63.6403 63.5121 63.4165 63.6374C63.5969 63.6099 63.7956 63.5714 63.9839 63.5145C65.8352 62.9521 66.9051 61.1515 67.1644 59.5001L67.1686 59.4855C66.8373 58.2639 65.6909 57.3774 64.4198 56.9898ZM34.8714 47.6477C34.8127 47.6312 34.7693 47.619 34.7216 47.6214C34.4189 47.5835 34.1084 47.6844 33.8442 47.9553C33.607 48.1864 33.3728 48.6853 33.2475 49.3554C33.0415 50.5359 33.11 52.3585 33.6847 53.6638C34.156 54.7215 34.9368 55.4576 36.0507 55.5665C36.6939 55.6215 37.4606 55.4607 38.3722 54.9483C40.1299 53.9365 40.4937 52.3609 40.1238 50.8306C39.7937 49.4367 38.7879 48.1038 37.781 47.4454C36.8828 46.848 35.9761 46.782 35.3189 47.2247C35.1557 47.3041 35.0046 47.4503 34.8714 47.6477ZM34.7919 51.5606C34.8457 51.9831 34.9331 52.3995 35.0652 52.7657C35.248 53.2878 35.5133 53.7384 35.9706 53.898C36.2427 53.9897 36.5765 53.9738 36.947 53.8271C36.5539 53.607 36.192 53.3331 35.8502 52.9864C35.5127 52.6251 35.1055 52.1188 34.7919 51.5606ZM38.4303 52.6752C38.6516 52.2203 38.6742 51.6933 38.5495 51.1883C38.3062 50.2107 37.63 49.2685 36.9336 48.7904C36.7752 48.6834 36.6236 48.6095 36.4824 48.5544C36.3803 48.5257 36.2971 48.4866 36.2231 48.5288C36.1339 48.5667 36.1015 48.6828 36.0458 48.8241C35.9462 49.1249 35.9083 49.5375 35.934 50.0621C35.9389 50.2675 36.0458 50.5011 36.1565 50.7206C36.3931 51.1632 36.7477 51.5759 37.029 51.859C37.427 52.2839 37.8947 52.5725 38.4303 52.6752ZM84.5236 59.1504C84.3622 59.1675 84.1836 59.2434 84.0027 59.4433C83.8021 59.6536 83.2237 60.5413 83.376 61.6192C83.4707 62.2881 83.837 63.0499 84.8293 63.7041C85.3679 64.0752 85.8686 64.247 86.3516 64.2568C86.7723 64.2653 87.1972 64.1492 87.6331 63.8795C87.8196 63.885 88.0225 63.8325 88.184 63.7053C88.382 63.5567 88.4909 63.3366 88.4939 63.1025C89.1927 62.2324 89.312 61.1368 89.0851 60.1011C88.8229 58.9144 88.0812 57.8127 87.361 57.2502C86.6121 56.6792 85.8405 56.6352 85.2909 57.0301C84.9173 57.301 84.5321 57.946 84.5236 59.1504ZM84.9913 61.116C84.965 61.2652 84.9821 61.4272 85.0329 61.5819C85.1313 61.8448 85.3587 62.0967 85.7249 62.3566C85.868 62.4593 86.016 62.5479 86.1468 62.5846C85.9616 62.4073 85.78 62.2153 85.6131 62.0276C85.3795 61.7421 85.1649 61.4468 84.9913 61.116ZM86.2287 58.4375C86.2202 58.4663 86.2122 58.4956 86.2043 58.5244C86.1578 58.7469 86.1315 59.0061 86.1584 59.3583C86.1957 60.2314 86.642 60.7639 87.1146 61.2573C87.2504 61.3893 87.3714 61.5171 87.5065 61.6492C87.5946 61.3918 87.6245 61.1179 87.5958 60.8281C87.5347 60.1519 87.2247 59.4696 86.8432 58.986C86.6695 58.7653 86.3724 58.5403 86.2287 58.4375ZM83.8816 60.2087C83.936 60.3494 83.999 60.4612 84.0986 60.5517C84.1842 60.6386 84.3108 60.6899 84.427 60.7223C84.18 60.6532 83.98 60.4716 83.8816 60.2087ZM50.1414 44.5174C49.8419 44.3548 49.3962 44.3236 48.9376 44.7284C48.5806 45.0512 48.0823 45.8209 47.8879 46.738C47.6849 47.6844 47.798 48.7354 48.55 49.5736C49.999 51.1712 51.2878 51.439 52.2899 51.1088C52.9624 50.8899 53.5444 50.3794 53.9975 49.6598C55.1885 49.3823 56.1991 48.7409 56.6784 47.8721C57.2005 46.9055 57.1938 45.5867 56.0114 44.0479C55.7564 43.7257 55.2936 43.6425 54.9506 43.8602C54.9378 43.7935 54.9146 43.7086 54.9023 43.6425C54.6278 42.6093 54.0763 42.1721 53.5157 42.0462C53.1629 41.963 52.7588 42.0064 52.3431 42.2033C51.898 42.3916 51.429 42.7774 51.0084 43.2708C50.6721 43.6315 50.3921 44.0699 50.1414 44.5174ZM73.8487 47.5793C73.7454 47.6129 73.6524 47.6655 73.5509 47.7468C72.6895 48.4144 72.2426 49.4489 72.1875 50.594C72.0958 52.1512 72.6864 53.9004 73.6023 55.0511C74.3091 55.9394 75.2323 56.4493 76.1671 56.4138C76.8158 56.3918 77.4907 56.1112 78.1321 55.4442C79.8116 53.7054 80.2744 51.6089 79.7712 49.8842C79.265 48.1118 77.753 46.6842 75.3735 46.3926C74.83 46.3186 74.41 46.5295 74.1073 46.9936C74.0003 47.1519 73.9141 47.3469 73.8487 47.5793ZM49.4163 47.3237C49.3686 47.718 49.4371 48.1448 49.7459 48.4982L49.7703 48.5208C49.5576 48.1631 49.4518 47.7572 49.4163 47.3237ZM52.9624 48.209C53.0009 48.1258 53.0254 48.0384 53.0645 47.9553C53.5169 46.7343 53.6423 45.1704 53.3445 44.0522C53.3152 43.9342 53.2815 43.8302 53.229 43.7373C53.1978 43.6817 53.1953 43.634 53.1519 43.6217C53.0645 43.5973 52.982 43.6682 52.889 43.7202C52.6616 43.8602 52.4323 44.0625 52.2055 44.3126C51.6033 45.0059 51.0793 46.0349 51.0218 46.9116C50.9943 47.2332 51.0371 47.5279 51.2059 47.7633C51.3789 47.984 51.6724 48.1136 52.0808 48.1656C52.3797 48.2182 52.672 48.2371 52.9624 48.209ZM76.8647 54.4305C76.8873 54.4054 76.9289 54.37 76.9558 54.3302C78.1669 53.0867 78.5576 51.5814 78.2055 50.3226C77.8686 49.1774 76.8977 48.2781 75.4041 48.0158C75.3692 48.1943 75.3166 48.4933 75.3099 48.7421C75.3001 50.2284 75.8149 52.4741 76.3432 53.7195C76.4398 53.9347 76.5755 54.1768 76.6421 54.274C76.74 54.3168 76.8042 54.3663 76.8647 54.4305ZM73.8328 50.3183C73.8145 50.4387 73.7924 50.5739 73.7888 50.698C73.7295 51.7477 74.0877 52.9295 74.6637 53.7812C74.3152 52.7895 74.0003 51.5099 73.8328 50.3183ZM55.0955 45.5782C55.0802 46.2477 54.9983 46.9306 54.8443 47.5927C55.024 47.4552 55.1597 47.3047 55.2606 47.114C55.4887 46.6915 55.441 46.192 55.0955 45.5782ZM63.1787 43.5349C62.9586 43.5361 62.582 43.6499 62.3167 44.0925C62.1167 44.4129 61.8856 45.0689 61.8502 45.8117C61.8098 46.5686 61.9651 47.4117 62.4995 48.0788C62.9519 48.6449 63.6525 49.1083 64.7879 49.2539C65.7875 49.378 66.4833 49.134 66.9706 48.7378C67.4621 48.327 67.758 47.7205 67.8559 46.9795C67.9769 45.8221 67.5985 44.3206 67.0005 43.2121C66.6429 42.5316 66.1819 41.9948 65.7576 41.7191C65.2935 41.4165 64.8124 41.3437 64.3942 41.4929C64.0133 41.6213 63.6042 41.9612 63.3279 42.6674C63.246 42.8483 63.1934 43.1473 63.1787 43.5349ZM63.4483 46.2599C63.4532 46.3553 63.4722 46.4549 63.5058 46.5582C63.5254 46.6579 63.5627 46.7472 63.6152 46.8401C63.5541 46.6658 63.5015 46.4629 63.4483 46.2599ZM64.9016 43.0935C64.8747 43.1332 64.8399 43.2017 64.8276 43.2451C64.7726 43.3864 64.7757 43.6541 64.7732 43.9984C64.7806 44.6428 64.8918 45.4736 65.0844 46.1859C65.1602 46.4739 65.244 46.7325 65.3595 46.9373C65.4115 47.0302 65.4885 47.1464 65.524 47.1874C65.6989 47.2363 65.8462 47.3249 65.9483 47.4631C66.1219 47.2925 66.191 47.0455 66.2167 46.7863C66.3329 45.9255 66.0021 44.8133 65.5607 43.9837C65.3981 43.6719 65.2079 43.3986 65.0123 43.2029C64.9952 43.151 64.9414 43.1204 64.9016 43.0935ZM62.4872 44.658L62.4811 44.6244C62.4768 44.6391 62.4726 44.6538 62.4872 44.658Z" fill="#FF914D"/>
</g>
</g>
</g>
<mask id="mask27_229_1411" style="mask-type:luminance" maskUnits="userSpaceOnUse" x="143" y="163" width="80" height="52">
<path d="M143.837 163.716H222.252V214.271H143.837V163.716Z" fill="white"/>
</mask>
<g mask="url(#mask27_229_1411)">
<mask id="mask28_229_1411" style="mask-type:luminance" maskUnits="userSpaceOnUse" x="136" y="156" width="91" height="63">
<path d="M226.32 196.774L147.767 218.805L136.609 179.02L215.162 156.989L226.32 196.774Z" fill="white"/>
</mask>
<g mask="url(#mask28_229_1411)">
<mask id="mask29_229_1411" style="mask-type:luminance" maskUnits="userSpaceOnUse" x="136" y="156" width="91" height="63">
<path d="M226.32 196.774L147.767 218.805L136.609 179.02L215.162 156.989L226.32 196.774Z" fill="white"/>
</mask>
<g mask="url(#mask29_229_1411)">
<path fill-rule="evenodd" clip-rule="evenodd" d="M171.902 179.036C171.949 179.023 173 178.609 173.936 178.33C176.767 177.451 181.106 176.286 181.933 175.918C182.534 175.648 182.755 175.231 182.818 175.095C183.135 174.415 183.015 173.806 182.633 173.287C182.526 173.148 182.333 172.881 181.985 172.725C182.113 172.639 182.22 172.541 182.281 172.456C182.603 172.095 182.69 171.682 182.722 171.436C182.774 170.897 182.624 170.483 182.408 170.137C182.202 169.824 181.926 169.563 181.542 169.4C181.255 169.278 180.83 169.211 180.374 169.271L180.291 169.278C180.003 169.037 179.608 168.894 179.046 169.001C178.807 169.051 178.552 169.106 178.312 169.156C178.275 169.082 178.221 169.012 178.168 168.943C177.988 168.723 177.679 168.404 177.1 168.33C177.048 168.327 176.863 168.328 176.529 168.405C176.139 168.16 175.679 168.086 175.248 168.24C174.955 168.339 173.217 169.013 172.844 169.253C172.36 169.574 172.201 169.974 172.151 170.157C172.078 170.38 172.057 170.606 172.078 170.803C172.029 170.867 171.995 170.928 171.946 170.992C170.996 171.225 170.606 171.402 170.564 171.431C170.367 171.571 170.252 171.704 170.179 171.809C169.77 172.397 169.834 172.988 170.013 173.445C170.035 173.523 170.256 174.07 170.777 174.363C170.243 174.868 170.184 175.443 170.181 175.731C170.184 175.866 170.188 175.999 170.223 176.125L170.208 176.13C169.503 176.632 169.335 177.659 169.827 178.451C170.253 179.245 171.2 179.486 171.902 179.036ZM206.59 168.039C206.709 167.921 206.777 167.801 206.822 167.721C207.111 167.183 207.073 166.686 206.939 166.267C206.822 165.911 206.598 165.535 206.116 165.264C205.976 165.185 205.759 165.076 205.415 165.055C205.261 165.048 204.925 165.057 204.375 165.144C204.293 164.49 203.533 164.01 201.853 164.11C201.418 163.825 200.9 163.785 200.451 163.995C200.109 164.041 197.279 164.378 196.793 164.514C195.919 164.776 195.715 165.493 195.666 165.743C195.618 165.993 195.516 167.257 196.656 167.765C196.531 167.8 196.394 167.856 196.289 167.902C195.507 168.189 194.903 168.51 194.668 168.695L194.625 168.723C194.274 168.737 193.947 168.897 193.67 169.177C192.888 170.005 192.943 170.801 193.059 171.276C193.206 171.861 193.66 172.579 194.718 172.789C195.325 172.906 196.492 172.85 197.833 172.626C200.483 172.187 203.956 171.246 204.227 171.188C204.592 171.102 205.334 171.097 205.71 170.991C206.133 170.872 206.423 170.639 206.603 170.436C206.855 170.129 206.98 169.79 207.008 169.41C207.026 169.05 206.972 168.558 206.59 168.039ZM159.114 185.345C159.218 185.113 159.275 184.894 159.294 184.72C159.319 184.391 159.301 184.024 159.138 183.681C159.467 183.048 159.363 182.434 159.012 181.907C158.959 181.838 158.863 181.678 158.685 181.525C158.625 181.373 158.546 181.209 158.439 181.07C157.941 180.381 157.075 180.185 156.427 180.586C156.265 180.615 155.518 180.723 155.01 180.781C154.14 180.873 153.262 181 152.72 181.237C151.83 181.622 151.451 182.32 151.383 182.982C151.36 183.258 151.39 183.487 151.431 183.695C151.292 184.224 151.382 184.723 151.699 185.192C151.692 185.228 151.681 185.248 151.67 185.268C151.478 185.728 151.518 186.173 151.643 186.561C151.756 186.901 152.019 187.419 152.709 187.648C153.116 188.194 153.779 188.447 154.412 188.236C154.952 188.051 157.652 187.428 158.147 187.205C158.627 186.986 158.823 186.66 158.898 186.504C159.135 186.082 159.179 185.699 159.114 185.345ZM178.515 189.896C178.742 189.799 178.995 189.677 179.033 189.632C179.853 188.997 179.678 188.132 179.566 187.793C179.517 187.62 179.117 186.312 177.702 186.573C177.556 186.597 177.431 186.633 177.286 186.657C176.923 186.268 176.134 186.049 174.765 186.23L174.682 186.237C174.651 186.246 174.6 186.243 174.569 186.252L174.49 186.274C174.376 186.289 174.266 186.32 174.152 186.335C174.089 186.352 174.026 186.37 173.948 186.392C172.048 186.79 166.677 187.958 165.861 188.423C164.679 189.093 164.991 190.206 165.086 190.483C165.104 190.546 165.126 190.624 165.168 190.714C164.724 190.94 164.402 191.419 164.355 191.974C164.083 192.574 164.206 193.131 164.492 193.609C164.591 193.784 164.794 194.083 165.171 194.281C165.109 194.603 165.156 194.894 165.222 195.129C165.354 195.599 165.636 196.061 166.259 196.292C166.391 196.34 166.654 196.435 167.039 196.361C170.041 195.79 173.269 194.58 176.079 193.386C176.489 193.22 177.324 193.121 177.756 192.915C178.162 192.734 178.427 192.474 178.589 192.209C178.839 191.834 178.938 191.401 178.893 190.94C178.892 190.635 178.791 190.275 178.515 189.896ZM202.793 186.333C203.113 186.024 203.217 185.673 203.257 185.392C203.324 184.967 203.24 184.551 202.992 184.147C202.872 183.961 202.586 183.483 201.84 183.354L201.819 183.343C201.785 183.218 201.73 183.081 201.647 182.969C201.618 182.622 201.451 182.33 201.094 182.143L201.086 182.112C200.949 181.745 200.665 181.215 199.89 181.044C199.798 181.019 199.635 180.98 199.36 181.023C199.277 181.03 199.022 181.084 198.505 181.229L197.852 181.311C197.373 180.87 196.718 180.766 196.189 181.05C195.94 181.069 194.759 181.197 194.215 181.367C193.205 181.684 192.701 182.418 192.612 183.186C192.475 183.242 192.343 183.313 192.206 183.368C191.774 183.574 191.468 183.812 191.261 184.039C190.253 184.423 189.354 184.895 188.667 185.459C188.13 185.897 188.074 186.421 188.097 186.803C188.113 187.221 188.252 187.656 188.61 188.029C188.659 188.082 188.748 188.159 188.832 188.22C188.725 188.318 188.637 188.427 188.569 188.547C188.195 189.142 188.069 189.837 188.57 190.661C188.556 190.851 188.569 191.016 188.599 191.126C188.715 191.719 189.185 192.67 190.541 192.745C192.001 192.826 196.815 191.543 199.878 190.465C201.34 189.953 202.432 189.445 202.748 189.187C203.393 188.65 203.427 188.049 203.435 187.777C203.4 187.228 203.25 186.696 202.793 186.333ZM220.091 180.67C220.169 180.463 220.183 180.272 220.184 180.154C220.229 179.533 220.04 178.859 219.23 178.443C219.15 178.398 218.798 178.227 218.243 178.298C218.066 178.33 217.743 178.387 217.323 178.454L217.318 178.438C217.159 178.111 216.665 177.252 215.537 177.45C215.233 177.332 214.893 177.326 214.572 177.45C214.205 177.587 213.949 177.76 213.77 177.963C212.986 178.183 212.215 178.449 211.497 178.904C211.083 179.173 210.669 179.627 210.546 179.915C210.332 180.415 210.354 180.916 210.528 181.357C210.55 181.435 210.597 181.541 210.663 181.657C210.483 181.86 210.382 182.041 210.318 182.177C210.048 182.777 210.114 183.317 210.309 183.769C210.457 184.116 210.708 184.468 211.133 184.721C211.185 184.842 211.251 184.959 211.313 185.06C211.495 185.347 211.864 185.818 212.64 185.872C212.845 185.881 213.4 185.81 214.074 185.621C215.129 185.342 216.679 184.84 217.115 184.768C217.437 184.712 218.841 184.589 219.854 184.406C220.483 184.297 220.996 184.136 221.245 183.999C221.918 183.624 222.075 183.039 222.115 182.639C222.162 182.085 222.006 181.588 221.583 181.165C221.421 181.008 221.105 180.724 220.55 180.677C220.438 180.64 220.288 180.649 220.091 180.67ZM157.274 199.827C157.313 199.663 157.325 199.525 157.326 199.407C157.339 198.912 156.989 197.421 155.345 197.527C155.21 197.531 155.033 197.564 154.826 197.605C154.563 197.273 154.115 196.942 153.384 196.927C152.23 196.913 147.536 197.959 146.66 198.272C145.8 198.581 145.705 199.267 145.659 199.466L145.657 199.517C145.497 199.613 145.369 199.699 145.289 199.773C144.599 200.389 144.636 201.123 144.719 201.538C144.809 201.919 144.981 202.293 145.353 202.595C145.252 202.657 145.167 202.715 145.081 202.773C144.57 203.119 144.264 203.475 144.151 203.676C143.865 204.162 143.874 204.616 143.951 204.95C144.038 205.382 144.25 205.778 144.658 206.087C144.703 206.125 144.763 206.159 144.843 206.204C144.927 206.502 145.096 206.742 145.292 206.958C145.581 207.265 146.201 207.666 147.161 207.532C149.002 207.287 154.527 204.621 155.009 204.469C156.333 204.064 156.231 204.126 157.524 203.612C158.029 203.419 159.321 202.904 159.487 202.773C160.233 202.175 160.131 201.392 160.026 201.016C159.964 200.797 159.617 199.558 158.203 199.701C157.912 199.749 157.601 199.786 157.274 199.827ZM213.946 184.981L213.916 185.057C213.923 185.021 213.934 185.001 213.946 184.981ZM185.681 205.318C186.716 204.91 187.717 204.375 188.061 203.975C188.34 203.643 188.48 203.299 188.522 202.966C189.312 202.71 190.119 202.451 190.896 202.148C191.689 201.841 192.06 200.874 191.747 199.999C191.434 199.123 190.524 198.651 189.73 198.958C189.211 199.155 188.671 199.34 188.147 199.521C188.09 199.198 187.958 198.846 187.635 198.48C187.366 198.184 186.843 197.824 186.087 197.782C186.035 197.78 186 197.772 185.953 197.786C185.748 197.657 185.489 197.578 185.165 197.567C184.892 197.559 182.63 198.176 182.213 198.378C181.944 198.504 181.818 198.658 181.753 198.727C181.285 199.23 181.301 199.767 181.35 200.125C181.365 200.239 181.389 200.384 181.445 200.521C181.301 201.035 181.35 201.512 181.483 201.863L181.505 201.941L181.232 201.933C180.374 201.887 179.679 202.605 179.69 203.549C179.697 204.477 180.391 205.264 181.249 205.31L181.902 205.347C182.031 205.564 182.206 205.769 182.471 205.931C182.601 206.03 182.862 206.176 183.258 206.201C183.376 206.201 183.68 206.201 184.179 206.112C184.866 205.97 185.398 205.634 185.681 205.318ZM166.251 213.084C166.773 212.955 167.274 212.814 167.639 212.729C168.322 212.571 168.985 212.402 169.634 212.186C169.728 212.159 169.966 212.042 169.997 212.034C170.129 211.963 170.222 211.869 170.302 211.796C170.659 211.679 171.006 211.53 171.353 211.382C171.521 211.318 171.936 211.168 172.052 211.102C172.228 211.002 172.346 210.884 172.423 210.795C172.695 210.499 172.808 210.18 172.843 209.883C173.524 209.235 173.227 208.236 173.2 208.142C173.11 207.88 172.762 206.879 171.574 206.925L171.558 206.929C171.419 206.732 171.222 206.516 170.906 206.351C170.785 206.283 170.654 206.236 170.507 206.192C170.343 205.849 170.065 205.522 169.558 205.342C169.482 205.313 169.071 205.175 168.225 205.412C167.896 205.505 167.633 205.714 167.439 205.988C167.338 206.05 167.237 206.112 167.152 206.17C167.009 206.261 166.885 206.363 166.782 206.477C165.698 206.831 164.64 207.28 163.725 207.875C163.554 207.99 163.431 208.093 163.332 208.222C163.211 208.272 163.085 208.308 162.964 208.358C162.319 208.59 162.402 208.584 161.772 208.811C161.605 208.875 161.163 209.05 161.109 209.099C160.362 209.63 160.423 210.39 160.482 210.78C160.565 211.196 160.755 211.633 161.274 211.977C161.359 212.038 161.568 212.183 161.948 212.211C161.931 212.571 162.01 212.853 162.023 212.9C162.032 212.932 162.676 214.628 164.16 214.008C164.862 213.676 165.552 213.365 166.251 213.084ZM213.207 197.176C214.948 196.332 215.399 195.53 215.013 194.995C215.086 194.112 213.711 193.67 210.28 194.699L210.233 194.713L210.107 194.748L209.998 194.779C209.708 194.589 209.377 194.496 209.035 194.542C209.035 194.542 208.264 194.623 207.827 194.695L207.78 194.707C207.025 194.852 206.273 194.944 205.543 195.233C204.934 195.472 204.644 195.705 204.525 195.823C204.195 196.153 204.094 196.519 204.047 196.769C204.037 196.856 204.028 196.943 204.019 197.031C203.812 197.139 203.649 197.219 203.52 197.305C202.742 197.845 202.625 198.571 202.638 198.922C202.647 199.072 202.655 199.222 202.694 199.363C202.602 199.457 202.499 199.57 202.431 199.691C201.967 200.446 202.178 201.503 202.905 202.043C203.511 202.516 205.023 202.058 205.023 202.058C205.023 202.058 204.949 202.095 204.902 202.109C205.468 201.899 210.93 200.452 212.294 199.951C213.244 199.6 213.496 198.87 213.523 198.727C213.662 198.198 213.562 197.719 213.289 197.288C213.264 197.261 213.235 197.218 213.207 197.176Z" fill="#F8EA2B"/>
</g>
</g>
</g>
<mask id="mask30_229_1411" style="mask-type:luminance" maskUnits="userSpaceOnUse" x="19" y="70" width="265" height="101">
<path d="M19.1406 70.6418H283.138V170.2H19.1406V70.6418Z" fill="white"/>
</mask>
<g mask="url(#mask30_229_1411)">
<mask id="mask31_229_1411" style="mask-type:luminance" maskUnits="userSpaceOnUse" x="19" y="70" width="265" height="101">
<path d="M265.929 170.2H36.3054C26.8472 170.2 19.1406 162.493 19.1406 153.035V87.8066C19.1406 78.3484 26.8472 70.6418 36.3054 70.6418H265.929C275.388 70.6418 283.094 78.3484 283.094 87.8066V153.035C283.094 162.493 275.388 170.2 265.929 170.2Z" fill="white"/>
</mask>
<g mask="url(#mask31_229_1411)">
<mask id="mask32_229_1411" style="mask-type:luminance" maskUnits="userSpaceOnUse" x="19" y="70" width="265" height="101">
<path d="M283.137 70.5894H19.0952V170.29H283.137V70.5894Z" fill="white"/>
</mask>
<g mask="url(#mask32_229_1411)">
<mask id="mask33_229_1411" style="mask-type:luminance" maskUnits="userSpaceOnUse" x="19" y="70" width="265" height="101">
<path d="M19.1406 70.6421H283.106V170.2H19.1406V70.6421Z" fill="white"/>
</mask>
<g mask="url(#mask33_229_1411)">
<mask id="mask34_229_1411" style="mask-type:luminance" maskUnits="userSpaceOnUse" x="19" y="70" width="265" height="101">
<path d="M265.929 170.2H36.3054C26.8472 170.2 19.1406 162.494 19.1406 153.035V87.8069C19.1406 78.3487 26.8472 70.6421 36.3054 70.6421H265.929C275.388 70.6421 283.094 78.3487 283.094 87.8069V153.035C283.094 162.494 275.388 170.2 265.929 170.2Z" fill="white"/>
</mask>
<g mask="url(#mask34_229_1411)">
<path d="M19.1406 70.6421H283.203V170.2H19.1406V70.6421Z" fill="white"/>
</g>
</g>
</g>
</g>
</g>
<mask id="mask35_229_1411" style="mask-type:luminance" maskUnits="userSpaceOnUse" x="59" y="145" width="190" height="15">
<path d="M248.547 145.716H59.4756V159.646H248.547V145.716Z" fill="white"/>
</mask>
<g mask="url(#mask35_229_1411)">
<path d="M65.5522 146.541V148.345H62.4488V150.138H65.4202V151.94H62.4488V153.755H65.5522V155.56H60.3921V146.541H65.5522Z" fill="white"/>
<path d="M73.3009 146.541L76.9424 155.56H74.734L74.0664 153.755H70.6328L69.9676 155.56H67.7593L71.3983 146.541H73.3009ZM73.3669 151.953L72.3618 149.328H72.3398L71.3347 151.953H73.3669Z" fill="white"/>
<path d="M79.2783 146.541H82.504C83.371 146.541 84.0777 146.772 84.6243 147.235C85.1703 147.698 85.4436 148.359 85.4436 149.218C85.4436 149.882 85.2779 150.438 84.9471 150.886C84.6158 151.335 84.1658 151.651 83.5972 151.833L86.7006 155.56H84.0887L81.335 151.997V155.56H79.2783V146.541ZM81.335 150.541H81.5747C81.7636 150.541 81.9232 150.538 82.054 150.532C82.1861 150.524 82.3359 150.499 82.504 150.456C82.6715 150.412 82.806 150.35 82.9075 150.27C83.0102 150.189 83.0971 150.072 83.1692 149.92C83.2426 149.767 83.2793 149.582 83.2793 149.363C83.2793 149.143 83.2426 148.957 83.1692 148.805C83.0971 148.652 83.0102 148.535 82.9075 148.455C82.806 148.374 82.6715 148.312 82.504 148.27C82.3359 148.226 82.1861 148.2 82.054 148.194C81.9232 148.186 81.7636 148.181 81.5747 148.181H81.335V150.541Z" fill="white"/>
<path d="M91.151 146.541V153.755H94.2544V155.56H89.0942V146.541H91.151Z" fill="white"/>
<path d="M96.2759 146.541H98.7459L100.627 149.426L102.507 146.541H104.977L101.654 151.515V155.56H99.5994V151.515L96.2759 146.541Z" fill="white"/>
<path d="M114.323 146.541V153.755H117.426V155.56H112.266V146.541H114.323Z" fill="white"/>
<path d="M125.592 146.541V148.345H122.488V150.138H125.46V151.94H122.488V153.755H125.592V155.56H120.432V146.541H125.592Z" fill="white"/>
<path d="M133.34 146.541L136.982 155.56H134.774L134.106 153.755H130.672L130.007 155.56H127.799L131.438 146.541H133.34ZM133.406 151.953L132.401 149.328H132.379L131.374 151.953H133.406Z" fill="white"/>
<path d="M139.319 146.541H142.545C143.412 146.541 144.119 146.772 144.665 147.235C145.211 147.698 145.485 148.359 145.485 149.218C145.485 149.882 145.319 150.438 144.988 150.886C144.657 151.335 144.207 151.651 143.638 151.833L146.742 155.56H144.13L141.376 151.997V155.56H139.319V146.541ZM141.376 150.541H141.616C141.805 150.541 141.964 150.538 142.095 150.532C142.227 150.524 142.377 150.499 142.545 150.456C142.713 150.412 142.847 150.35 142.949 150.27C143.051 150.189 143.138 150.072 143.21 149.92C143.284 149.767 143.32 149.582 143.32 149.363C143.32 149.143 143.284 148.957 143.21 148.805C143.138 148.652 143.051 148.535 142.949 148.455C142.847 148.374 142.713 148.312 142.545 148.27C142.377 148.226 142.227 148.2 142.095 148.194C141.964 148.186 141.805 148.181 141.616 148.181H141.376V150.541Z" fill="white"/>
<path d="M151.191 149.962V155.56H149.134V146.541H151.191L154.776 152.138H154.798V146.541H156.852V155.56H154.798L151.213 149.962H151.191Z" fill="white"/>
<path d="M162.208 146.541V155.56H160.151V146.541H162.208Z" fill="white"/>
<path d="M167.565 149.962V155.56H165.508V146.541H167.565L171.15 152.138H171.172V146.541H173.226V155.56H171.172L167.587 149.962H167.565Z" fill="white"/>
<path d="M184.681 150.513V152.469C184.447 153.54 183.937 154.352 183.15 154.902C182.362 155.452 181.484 155.727 180.516 155.727C179.298 155.727 178.261 155.272 177.405 154.362C176.549 153.451 176.121 152.349 176.121 151.058C176.121 149.747 176.54 148.641 177.378 147.737C178.216 146.832 179.262 146.38 180.516 146.38C181.979 146.38 183.138 146.893 183.991 147.92L182.646 149.397C182.165 148.625 181.495 148.238 180.636 148.238C180.001 148.238 179.46 148.514 179.012 149.065C178.563 149.615 178.339 150.279 178.339 151.058C178.339 151.825 178.563 152.479 179.012 153.022C179.46 153.565 180.001 153.836 180.636 153.836C181.16 153.836 181.617 153.678 182.008 153.362C182.397 153.044 182.592 152.623 182.592 152.097H180.516V150.513H184.681Z" fill="white"/>
<path d="M197.349 153.704C197.662 153.704 197.966 153.657 198.261 153.562C198.556 153.468 198.773 153.376 198.912 153.288L199.12 153.147L199.993 154.895C199.963 154.918 199.923 154.948 199.873 154.983C199.822 155.019 199.704 155.087 199.518 155.186C199.333 155.284 199.133 155.37 198.922 155.443C198.711 155.516 198.434 155.581 198.09 155.639C197.748 155.697 197.394 155.727 197.031 155.727C196.193 155.727 195.398 155.521 194.647 155.11C193.897 154.698 193.292 154.131 192.832 153.411C192.374 152.689 192.145 151.908 192.145 151.07C192.145 150.436 192.28 149.828 192.549 149.246C192.819 148.663 193.178 148.162 193.625 147.747C194.073 147.331 194.595 147 195.192 146.751C195.79 146.504 196.403 146.38 197.031 146.38C197.615 146.38 198.152 146.449 198.643 146.588C199.135 146.726 199.483 146.865 199.687 147.003L199.993 147.211L199.12 148.96C199.067 148.916 198.99 148.863 198.887 148.801C198.786 148.739 198.582 148.658 198.276 148.556C197.971 148.453 197.662 148.402 197.349 148.402C196.853 148.402 196.408 148.483 196.014 148.644C195.621 148.804 195.31 149.015 195.08 149.278C194.85 149.541 194.674 149.823 194.554 150.126C194.435 150.428 194.375 150.735 194.375 151.048C194.375 151.733 194.632 152.347 195.146 152.89C195.659 153.433 196.394 153.704 197.349 153.704Z" fill="white"/>
<path d="M207.929 146.541V148.345H204.826V150.138H207.797V151.94H204.826V153.755H207.929V155.56H202.769V146.541H207.929Z" fill="white"/>
<path d="M213.154 149.962V155.56H211.097V146.541H213.154L216.739 152.138H216.761V146.541H218.815V155.56H216.761L213.176 149.962H213.154Z" fill="white"/>
<path d="M221.547 148.345V146.541H227.886V148.345H225.744V155.56H223.69V148.345H221.547Z" fill="white"/>
<path d="M235.779 146.541V148.345H232.676V150.138H235.647V151.94H232.676V153.755H235.779V155.56H230.619V146.541H235.779Z" fill="white"/>
<path d="M238.948 146.541H242.174C243.041 146.541 243.748 146.772 244.294 147.235C244.84 147.698 245.113 148.359 245.113 149.218C245.113 149.882 244.948 150.438 244.617 150.886C244.286 151.335 243.836 151.651 243.267 151.833L246.371 155.56H243.759L241.005 151.997V155.56H238.948V146.541ZM241.005 150.541H241.245C241.434 150.541 241.593 150.538 241.724 150.532C241.856 150.524 242.006 150.499 242.174 150.456C242.341 150.412 242.476 150.35 242.577 150.27C242.68 150.189 242.767 150.072 242.839 149.92C242.912 149.767 242.949 149.582 242.949 149.363C242.949 149.143 242.912 148.957 242.839 148.805C242.767 148.652 242.68 148.535 242.577 148.455C242.476 148.374 242.341 148.312 242.174 148.27C242.006 148.226 241.856 148.2 241.724 148.194C241.593 148.186 241.434 148.181 241.245 148.181H241.005V150.541Z" fill="white"/>
</g>
<mask id="mask36_229_1411" style="mask-type:luminance" maskUnits="userSpaceOnUse" x="71" y="68" width="162" height="83">
<path d="M232.86 68.3733H71.1636V150.981H232.86V68.3733Z" fill="white"/>
</mask>
<g mask="url(#mask36_229_1411)">
<path d="M104.816 128.561C104.816 129.734 104.522 130.687 103.936 131.42C103.35 132.152 102.45 132.519 101.236 132.519C100.273 132.519 99.3829 132.226 98.5666 131.64C97.7497 131.054 96.9955 130.331 96.3039 129.474C95.6135 128.615 95.0066 127.704 94.4833 126.741C93.9599 125.777 93.5311 124.941 93.1969 124.229C92.3174 122.47 91.4477 120.712 90.589 118.954C89.7315 117.195 88.8838 115.416 88.0471 113.615L84.2783 115.937C84.3206 117.153 84.2574 118.367 84.0892 119.581C83.922 120.795 83.7967 122.01 83.7132 123.224C83.6296 124.062 83.4933 124.972 83.3042 125.956C83.1162 126.939 82.8127 127.861 82.3938 128.719C81.976 129.577 81.4109 130.299 80.6985 130.885C79.9872 131.471 79.1087 131.765 78.062 131.765C77.0989 131.765 76.3029 131.566 75.6741 131.169C75.0463 130.77 74.5334 130.258 74.1348 129.63C73.7374 129.001 73.4554 128.29 73.2883 127.495C73.1212 126.699 73.0376 125.882 73.0376 125.045V124.542C73.0376 122.072 73.1728 119.591 73.4444 117.101C73.7171 114.609 73.8952 112.107 73.9787 109.596C74.0623 106.288 74.1667 102.979 74.2932 99.6723C74.419 96.3652 74.5862 93.0575 74.7945 89.7488C74.8368 88.9956 74.9622 88.2634 75.1705 87.5521C75.38 86.8396 75.6944 86.2014 76.1138 85.6369C76.5327 85.0712 77.0462 84.621 77.653 84.2867C78.2599 83.9514 78.9817 83.7832 79.8189 83.7832C81.1174 83.7832 82.0909 84.2444 82.7391 85.1663C83.3883 86.0871 83.8385 87.1959 84.0892 88.4932C84.3409 89.7905 84.4564 91.1308 84.4344 92.5128C84.4135 93.8953 84.4036 95.047 84.4036 95.9672C84.4036 98.6047 84.3409 101.242 84.2167 103.881C85.4305 102.876 86.6124 101.724 87.7635 100.427C88.9157 99.1281 89.9316 97.8088 90.8111 96.4685C91.3548 95.6742 91.982 94.5753 92.6934 93.1724C93.4058 91.7695 94.1804 90.4095 95.0176 89.0913C95.8543 87.772 96.775 86.6209 97.7794 85.6369C98.7848 84.6518 99.8529 84.1592 100.983 84.1592C102.198 84.1592 103.088 84.5055 103.653 85.1971C104.218 85.8875 104.501 86.7979 104.501 87.9281C104.501 89.6025 104.24 91.3188 103.716 93.0779C103.193 94.837 102.492 96.5647 101.612 98.2606C100.732 99.9554 99.7375 101.567 98.6282 103.096C97.5199 104.624 96.3996 105.952 95.2683 107.083C96.4408 109.052 97.5507 111.031 98.5974 113.019C99.644 115.007 100.691 117.006 101.737 119.016C102.114 119.686 102.481 120.419 102.837 121.215C103.193 122.01 103.517 122.826 103.811 123.664C104.104 124.501 104.344 125.339 104.532 126.175C104.721 127.013 104.816 127.808 104.816 128.561Z" fill="#004AAD"/>
<path d="M117.438 87.4909C117.438 88.0774 117.281 88.6007 116.968 89.0609C116.654 89.5215 116.245 89.9294 115.743 90.2856C115.242 90.6418 114.697 90.9145 114.111 91.1036C113.525 91.2916 112.98 91.3851 112.478 91.3851C111.64 91.3851 110.908 91.1762 110.279 90.7584C109.651 90.3395 109.338 89.6897 109.338 88.8102C109.338 88.1813 109.494 87.6266 109.808 87.1456C110.121 86.6652 110.508 86.2677 110.969 85.9538C111.431 85.6389 111.955 85.3975 112.541 85.2304C113.127 85.0633 113.692 84.9797 114.237 84.9797C115.033 84.9797 115.765 85.1683 116.433 85.5448C117.103 85.922 117.438 86.5706 117.438 87.4909ZM117.942 108.844C117.942 109.431 117.942 110.049 117.942 110.698C117.942 111.346 117.92 111.963 117.878 112.549C117.837 113.262 117.816 114.215 117.816 115.408C117.816 116.601 117.775 117.889 117.691 119.271C117.608 120.652 117.471 122.054 117.282 123.478C117.094 124.901 116.791 126.199 116.372 127.372C115.952 128.543 115.398 129.495 114.707 130.228C114.017 130.962 113.148 131.349 112.102 131.391C111.306 131.432 110.635 131.118 110.09 130.448C109.545 129.779 109.096 128.91 108.739 127.842C108.384 126.775 108.123 125.582 107.954 124.263C107.787 122.943 107.662 121.667 107.578 120.432C107.495 119.196 107.453 118.055 107.453 117.009C107.453 115.962 107.453 115.187 107.453 114.684C107.453 114.015 107.453 113.063 107.453 111.828C107.453 110.592 107.495 109.263 107.578 107.839C107.662 106.416 107.819 104.972 108.049 103.507C108.28 102.042 108.615 100.702 109.054 99.4879C109.494 98.2731 110.07 97.2885 110.782 96.5348C111.495 95.7817 112.395 95.4046 113.482 95.4046C114.613 95.4046 115.471 95.9697 116.057 97.1C116.643 98.2302 117.083 99.5495 117.377 101.058C117.67 102.565 117.837 104.062 117.878 105.548C117.92 107.033 117.942 108.132 117.942 108.844Z" fill="#004AAD"/>
<path d="M149.469 90.0029C149.469 93.0594 149.354 96.0949 149.124 99.1085C148.893 102.123 148.779 105.158 148.779 108.214C148.779 110.684 148.852 113.134 148.998 115.563C149.145 117.992 149.218 120.441 149.218 122.911C149.218 123.581 149.197 124.388 149.155 125.33C149.112 126.271 148.975 127.182 148.746 128.061C148.515 128.941 148.139 129.694 147.615 130.322C147.092 130.949 146.349 131.263 145.386 131.263C144.131 131.263 143.095 130.792 142.279 129.851C141.462 128.909 140.949 127.851 140.739 126.678C139.943 128.186 138.792 129.464 137.285 130.511C135.778 131.557 134.145 132.081 132.386 132.081C130.502 132.081 128.879 131.432 127.518 130.135C126.157 128.836 125.027 127.266 124.127 125.425C123.227 123.582 122.557 121.656 122.117 119.646C121.677 117.636 121.458 115.899 121.458 114.432C121.458 113.386 121.52 112.193 121.647 110.853C121.773 109.513 121.992 108.152 122.306 106.772C122.62 105.39 123.028 104.039 123.531 102.721C124.034 101.402 124.672 100.219 125.446 99.1723C126.22 98.1245 127.141 97.2867 128.208 96.6589C129.277 96.0317 130.502 95.7178 131.885 95.7178C133.391 95.7178 134.835 96.1576 136.216 97.0371C137.598 97.9156 138.645 99.004 139.356 100.302L139.924 90.3152C139.964 89.5208 140.027 88.5901 140.111 87.5226C140.194 86.4539 140.372 85.4381 140.645 84.4749C140.918 83.5118 141.346 82.6955 141.931 82.0254C142.517 81.3558 143.376 81.0205 144.508 81.0205C145.722 81.0205 146.664 81.3141 147.334 81.9001C148.003 82.4866 148.495 83.2298 148.809 84.1297C149.123 85.0302 149.311 86.0032 149.374 87.0498C149.437 88.0965 149.469 89.081 149.469 90.0029ZM139.231 117.887C139.231 116.924 139.21 115.982 139.167 115.061C139.126 114.139 139.127 113.197 139.169 112.234C138.917 111.69 138.623 111.094 138.288 110.446C137.954 109.797 137.546 109.189 137.065 108.623C136.584 108.057 136.05 107.586 135.464 107.209C134.878 106.833 134.249 106.644 133.58 106.644C132.826 106.644 132.219 106.875 131.757 107.337C131.296 107.797 130.962 108.352 130.752 109.001C130.544 109.649 130.408 110.35 130.345 111.103C130.282 111.857 130.251 112.506 130.251 113.052C130.251 113.553 130.293 114.296 130.376 115.281C130.46 116.265 130.616 117.26 130.847 118.265C131.077 119.269 131.401 120.148 131.821 120.902C132.24 121.655 132.805 122.032 133.516 122.032C134.061 122.032 134.606 121.917 135.15 121.687C135.694 121.457 136.206 121.163 136.687 120.807C137.169 120.451 137.63 120.053 138.07 119.613C138.51 119.173 138.897 118.765 139.231 118.388V117.887Z" fill="#004AAD"/>
<path d="M180.682 90.0029C180.682 93.0594 180.567 96.0949 180.337 99.1085C180.107 102.123 179.992 105.158 179.992 108.214C179.992 110.684 180.065 113.134 180.212 115.563C180.358 117.992 180.432 120.441 180.432 122.911C180.432 123.581 180.41 124.388 180.368 125.33C180.325 126.271 180.189 127.182 179.959 128.061C179.729 128.941 179.352 129.694 178.829 130.322C178.305 130.949 177.562 131.263 176.599 131.263C175.344 131.263 174.308 130.792 173.492 129.851C172.675 128.909 172.162 127.851 171.953 126.678C171.157 128.186 170.005 129.464 168.498 130.511C166.991 131.557 165.358 132.081 163.599 132.081C161.715 132.081 160.093 131.432 158.731 130.135C157.37 128.836 156.24 127.266 155.34 125.425C154.44 123.582 153.77 121.656 153.331 119.646C152.891 117.636 152.671 115.899 152.671 114.432C152.671 113.386 152.734 112.193 152.86 110.853C152.986 109.513 153.206 108.152 153.52 106.772C153.833 105.39 154.241 104.039 154.744 102.721C155.247 101.402 155.886 100.219 156.66 99.1723C157.434 98.1245 158.354 97.2867 159.421 96.6589C160.49 96.0317 161.715 95.7178 163.098 95.7178C164.605 95.7178 166.049 96.1576 167.43 97.0371C168.812 97.9156 169.858 99.004 170.57 100.302L171.137 90.3152C171.178 89.5208 171.24 88.5901 171.324 87.5226C171.408 86.4539 171.586 85.4381 171.858 84.4749C172.131 83.5118 172.56 82.6955 173.145 82.0254C173.731 81.3558 174.59 81.0205 175.722 81.0205C176.936 81.0205 177.877 81.3141 178.547 81.9001C179.217 82.4866 179.709 83.2298 180.023 84.1297C180.336 85.0302 180.525 86.0032 180.588 87.0498C180.651 88.0965 180.682 89.081 180.682 90.0029ZM170.444 117.887C170.444 116.924 170.423 115.982 170.381 115.061C170.339 114.139 170.34 113.197 170.383 112.234C170.131 111.69 169.836 111.094 169.501 110.446C169.167 109.797 168.759 109.189 168.279 108.623C167.798 108.057 167.264 107.586 166.678 107.209C166.091 106.833 165.463 106.644 164.793 106.644C164.04 106.644 163.432 106.875 162.97 107.337C162.51 107.797 162.175 108.352 161.966 109.001C161.757 109.649 161.621 110.35 161.559 111.103C161.496 111.857 161.464 112.506 161.464 113.052C161.464 113.553 161.506 114.296 161.59 115.281C161.673 116.265 161.83 117.26 162.06 118.265C162.29 119.269 162.615 120.148 163.034 120.902C163.453 121.655 164.018 122.032 164.73 122.032C165.275 122.032 165.819 121.917 166.363 121.687C166.907 121.457 167.419 121.163 167.9 120.807C168.382 120.451 168.844 120.053 169.283 119.613C169.723 119.173 170.11 118.765 170.444 118.388V117.887Z" fill="#004AAD"/>
<path d="M196.762 133.149C194.626 133.149 192.762 132.584 191.17 131.454C189.579 130.324 188.24 128.88 187.151 127.122C186.063 125.363 185.246 123.405 184.701 121.249C184.157 119.093 183.885 116.968 183.885 114.874C183.885 112.655 184.157 110.363 184.701 107.998C185.246 105.632 186.084 103.476 187.214 101.529C188.345 99.5811 189.789 97.9902 191.548 96.7555C193.307 95.5197 195.401 94.9019 197.828 94.9019C200.173 94.9019 202.173 95.5412 203.827 96.8193C205.48 98.0963 206.809 99.6877 207.813 101.593C208.819 103.497 209.531 105.58 209.949 107.84C210.367 110.101 210.514 112.236 210.388 114.245C210.264 116.465 209.918 118.706 209.353 120.967C208.788 123.228 207.961 125.258 206.872 127.058C205.783 128.859 204.401 130.324 202.725 131.454C201.051 132.584 199.063 133.149 196.762 133.149ZM197.389 104.762C196.761 104.762 196.206 105.097 195.724 105.767C195.243 106.437 194.845 107.253 194.53 108.216C194.216 109.179 193.976 110.195 193.809 111.264C193.642 112.331 193.558 113.262 193.558 114.058C193.558 115.063 193.652 116.151 193.84 117.324C194.029 118.497 194.29 119.575 194.625 120.558C194.96 121.542 195.368 122.359 195.849 123.008C196.331 123.656 196.886 123.98 197.514 123.98C198.183 123.98 198.759 123.666 199.24 123.039C199.722 122.41 200.11 121.615 200.403 120.653C200.696 119.69 200.905 118.633 201.03 117.482C201.156 116.33 201.219 115.251 201.219 114.245C201.219 113.325 201.135 112.31 200.968 111.2C200.801 110.091 200.56 109.054 200.245 108.091C199.931 107.128 199.534 106.333 199.053 105.705C198.572 105.076 198.017 104.762 197.389 104.762Z" fill="#004AAD"/>
<path d="M231.992 96.7842C231.992 97.998 231.584 98.8985 230.768 99.4845C229.951 100.071 229.04 100.626 228.037 101.149C227.032 101.672 226.122 102.29 225.306 103.003C224.489 103.714 224.081 104.781 224.081 106.204C224.081 106.958 224.258 107.607 224.613 108.152C224.969 108.697 225.409 109.188 225.932 109.628C226.456 110.068 227.031 110.518 227.658 110.978C228.287 111.439 228.863 111.962 229.387 112.548C229.91 113.135 230.35 113.846 230.706 114.683C231.062 115.52 231.24 116.547 231.24 117.762C231.24 119.52 230.79 121.246 229.888 122.942C228.988 124.639 227.836 126.146 226.434 127.465C225.032 128.783 223.452 129.84 221.693 130.636C219.935 131.43 218.198 131.828 216.481 131.828C215.769 131.828 215.057 131.776 214.344 131.672C213.633 131.567 212.995 131.369 212.429 131.076C211.864 130.783 211.394 130.374 211.017 129.851C210.641 129.328 210.452 128.648 210.452 127.81C210.452 126.638 210.682 125.727 211.143 125.077C211.603 124.428 212.188 123.915 212.9 123.538C213.612 123.161 214.376 122.869 215.193 122.661C216.009 122.451 216.773 122.19 217.484 121.876C218.197 121.561 218.783 121.152 219.243 120.651C219.705 120.148 219.936 119.436 219.936 118.514C219.936 117.636 219.59 116.725 218.898 115.783C218.208 114.84 217.443 113.835 216.607 112.768C215.77 111.701 215.005 110.56 214.313 109.346C213.623 108.132 213.278 106.791 213.278 105.327C213.278 103.525 213.644 101.861 214.377 100.333C215.11 98.8045 216.093 97.4747 217.328 96.3445C218.564 95.2142 219.977 94.3253 221.567 93.6772C223.158 93.028 224.833 92.7031 226.592 92.7031C227.261 92.7031 227.921 92.7663 228.569 92.8922C229.218 93.017 229.794 93.2364 230.297 93.5497C230.799 93.8636 231.208 94.2819 231.522 94.8053C231.835 95.3286 231.992 95.9883 231.992 96.7842Z" fill="#004AAD"/>
</g>
<path d="M80.6426 143.436C81.3361 143.436 82.0131 143.537 82.6741 143.74C83.3362 143.942 83.8281 144.141 84.1504 144.338L84.6162 144.646L83.4356 146.975C83.342 146.913 83.2123 146.833 83.0464 146.735C82.8815 146.636 82.572 146.504 82.1168 146.339C81.6615 146.174 81.2372 146.091 80.8447 146.091C80.3581 146.091 79.9832 146.194 79.7194 146.401C79.4556 146.609 79.3237 146.888 79.3237 147.239C79.3237 147.415 79.3854 147.579 79.5088 147.729C79.6332 147.877 79.8454 148.038 80.1448 148.209C80.4453 148.379 80.7091 148.517 80.9362 148.62C81.1643 148.724 81.5158 148.879 81.9913 149.086C82.8193 149.438 83.5255 149.916 84.11 150.522C84.6955 151.127 84.9885 151.813 84.9885 152.579C84.9885 153.314 84.8566 153.955 84.5928 154.504C84.3291 155.051 83.9664 155.48 83.5058 155.791C83.0448 156.101 82.5348 156.331 81.9764 156.48C81.4174 156.63 80.8128 156.705 80.1619 156.705C79.6029 156.705 79.0541 156.648 78.5154 156.535C77.9777 156.422 77.5273 156.28 77.1646 156.11C76.803 155.938 76.4775 155.77 76.1882 155.606C75.8989 155.44 75.6867 155.299 75.5522 155.184L75.3501 155.014L76.8094 152.562C76.9327 152.665 77.1029 152.798 77.3199 152.959C77.5379 153.12 77.924 153.335 78.4771 153.604C79.0302 153.872 79.5184 154.006 79.9428 154.006C81.1749 154.006 81.7913 153.587 81.7913 152.749C81.7913 152.573 81.7472 152.41 81.6594 152.259C81.5711 152.11 81.4158 151.96 81.1936 151.811C80.9707 151.661 80.7734 151.542 80.6022 151.453C80.432 151.366 80.1523 151.231 79.7641 151.049C79.3769 150.868 79.0903 150.731 78.9047 150.639C78.1272 150.256 77.5268 149.777 77.1029 149.203C76.6785 148.628 76.4669 148.01 76.4669 147.348C76.4669 146.199 76.8907 145.26 77.739 144.531C78.5882 143.801 79.5561 143.436 80.6426 143.436Z" fill="#004AAD"/>
<path d="M99.0171 143.669V151.925C99.0171 153.498 98.5927 154.688 97.745 155.495C96.8968 156.302 95.655 156.705 94.0203 156.705C92.385 156.705 91.1432 156.302 90.2955 155.495C89.4473 154.688 89.0234 153.498 89.0234 151.925V143.669H91.9398V151.072C91.9398 152.108 92.1026 152.827 92.4291 153.231C92.7551 153.634 93.2853 153.835 94.0203 153.835C94.7547 153.835 95.2849 153.634 95.6114 153.231C95.9374 152.827 96.1007 152.108 96.1007 151.072V143.669H99.0171Z" fill="#004AAD"/>
<path d="M114.135 156.473L113.528 148.883H113.452L110.829 156.397H109.089L106.466 148.883H106.389L105.783 156.473H102.867L104.015 143.669H107.119L109.959 151.057L112.799 143.669H115.902L117.051 156.473H114.135Z" fill="#004AAD"/>
<path d="M131.641 156.473L131.035 148.883H130.958L128.335 156.397H126.595L123.972 148.883H123.896L123.289 156.473H120.373L121.522 143.669H124.625L127.465 151.057L130.305 143.669H133.409L134.557 156.473H131.641Z" fill="#004AAD"/>
<path d="M145.887 143.669V146.231H141.479V148.775H145.702V151.336H141.479V153.912H145.887V156.473H138.563V143.669H145.887Z" fill="#004AAD"/>
<path d="M150.391 143.669H154.968C156.199 143.669 157.202 143.998 157.978 144.654C158.755 145.311 159.144 146.25 159.144 147.471C159.144 148.413 158.909 149.202 158.438 149.838C157.967 150.475 157.328 150.923 156.521 151.181L160.929 156.473H157.219L153.307 151.415V156.473H150.391V143.669ZM153.307 149.349H153.65C153.919 149.349 154.146 149.344 154.332 149.334C154.518 149.325 154.73 149.288 154.968 149.226C155.207 149.163 155.398 149.076 155.543 148.962C155.687 148.847 155.811 148.681 155.915 148.464C156.018 148.247 156.07 147.983 156.07 147.673C156.07 147.362 156.018 147.099 155.915 146.882C155.811 146.665 155.687 146.5 155.543 146.386C155.398 146.271 155.207 146.183 154.968 146.122C154.73 146.06 154.518 146.024 154.332 146.014C154.146 146.002 153.919 145.997 153.65 145.997H153.307V149.349Z" fill="#004AAD"/>
<path d="M178.202 153.835C178.646 153.835 179.077 153.768 179.496 153.633C179.915 153.499 180.224 153.369 180.421 153.244L180.717 153.044L181.957 155.527C181.915 155.558 181.859 155.6 181.787 155.652C181.714 155.703 181.546 155.799 181.282 155.939C181.019 156.079 180.736 156.2 180.436 156.303C180.136 156.407 179.743 156.499 179.257 156.582C178.771 156.664 178.269 156.705 177.751 156.705C176.561 156.705 175.433 156.413 174.367 155.829C173.302 155.245 172.443 154.441 171.791 153.416C171.14 152.391 170.814 151.284 170.814 150.094C170.814 149.195 171.006 148.331 171.389 147.503C171.772 146.675 172.281 145.966 172.916 145.376C173.553 144.786 174.295 144.315 175.143 143.963C175.993 143.612 176.862 143.436 177.751 143.436C178.579 143.436 179.342 143.534 180.04 143.731C180.739 143.929 181.234 144.125 181.523 144.32L181.957 144.616L180.717 147.099C180.644 147.036 180.535 146.961 180.389 146.873C180.244 146.785 179.954 146.669 179.519 146.524C179.085 146.38 178.646 146.307 178.202 146.307C177.499 146.307 176.867 146.422 176.309 146.65C175.75 146.877 175.308 147.177 174.982 147.55C174.655 147.921 174.406 148.322 174.235 148.751C174.065 149.181 173.98 149.619 173.98 150.064C173.98 151.037 174.344 151.909 175.073 152.68C175.803 153.45 176.846 153.835 178.202 153.835Z" fill="#004AAD"/>
<path d="M192.402 143.669L197.569 156.473H194.435L193.489 153.912H188.615L187.669 156.473H184.533L189.7 143.669H192.402ZM192.495 151.351L191.066 147.626H191.036L189.609 151.351H192.495Z" fill="#004AAD"/>
<path d="M211.479 156.473L210.873 148.883H210.796L208.173 156.397H206.433L203.81 148.883H203.734L203.127 156.473H200.211L201.36 143.669H204.463L207.303 151.057L210.143 143.669H213.247L214.395 156.473H211.479Z" fill="#004AAD"/>
<path d="M218.398 143.669H223.07C224.373 143.669 225.428 144.006 226.235 144.678C227.042 145.35 227.445 146.328 227.445 147.611C227.445 148.895 227.037 149.901 226.22 150.63C225.403 151.359 224.353 151.723 223.07 151.723H221.315V156.473H218.398V143.669ZM221.315 149.396H222.138C222.79 149.396 223.326 149.264 223.744 149C224.164 148.736 224.374 148.305 224.374 147.705C224.374 147.094 224.164 146.656 223.744 146.392C223.326 146.128 222.79 145.997 222.138 145.997H221.315V149.396Z" fill="#004AAD"/>
</svg>
