<svg width="666" height="1736" viewBox="0 0 666 1736" fill="none" xmlns="http://www.w3.org/2000/svg">
<g opacity="0.75">
<mask id="mask0_224_520" style="mask-type:luminance" maskUnits="userSpaceOnUse" x="-681" y="30" width="953" height="1023">
<path d="M-680.982 180.047L105.459 30.7479L271.106 903.302L-515.336 1052.6L-680.982 180.047Z" fill="white"/>
</mask>
<g mask="url(#mask0_224_520)">
<mask id="mask1_224_520" style="mask-type:luminance" maskUnits="userSpaceOnUse" x="-650" y="115" width="894" height="852">
<path d="M-649.25 173.549L134.262 115.29L243.665 907.807L-539.847 966.069L-649.25 173.549Z" fill="white"/>
</mask>
<g mask="url(#mask1_224_520)">
<mask id="mask2_224_520" style="mask-type:luminance" maskUnits="userSpaceOnUse" x="-681" y="30" width="953" height="1023">
<path d="M105.459 30.748L-680.982 180.047L-515.336 1052.6L271.106 903.302L105.459 30.748Z" fill="white"/>
</mask>
<g mask="url(#mask2_224_520)">
<mask id="mask3_224_520" style="mask-type:luminance" maskUnits="userSpaceOnUse" x="-652" y="57" width="894" height="943">
<path d="M-651.243 197.969L89.7651 57.2946L241.994 859.167L-499.014 999.841L-651.243 197.969Z" fill="white"/>
</mask>
<g mask="url(#mask3_224_520)">
<mask id="mask4_224_520" style="mask-type:luminance" maskUnits="userSpaceOnUse" x="-650" y="115" width="894" height="852">
<path d="M-649.25 173.549L134.262 115.291L243.665 907.808L-539.846 966.07L-649.25 173.549Z" fill="white"/>
</mask>
<g mask="url(#mask4_224_520)">
<mask id="mask5_224_520" style="mask-type:luminance" maskUnits="userSpaceOnUse" x="-650" y="115" width="894" height="852">
<path d="M134.07 115.304L-649.444 173.566L-540.041 966.083L243.473 907.821L134.07 115.304Z" fill="white"/>
</mask>
<g mask="url(#mask5_224_520)">
<path d="M-403.325 157.818C-422.065 159.213 -440.893 159.972 -459.545 162.001C-501.873 167.064 -539.793 191.597 -568.027 233.295C-573.455 240.724 -577.946 248.721 -583.286 256.785C-601.518 283.686 -608.817 318.079 -608.429 358.286C-607.845 459.154 -585.014 562.201 -542.885 652.315C-529.927 680.733 -515.265 709.02 -500.776 736.045C-481.06 772.899 -457.27 804.98 -430.093 830.422C-412.228 847.616 -394.026 864.145 -375.826 880.674C-343.352 910.193 -309.545 930.674 -272.82 931.774C-245.127 932.908 -217.684 935.34 -189.901 937.105C-159.652 938.05 -130.199 930.111 -103.671 913.449C-72.5442 895.805 -42.1059 876.299 -10.9813 858.656C21.6745 839.624 49.1756 808.198 68.8059 766.502C82.8549 737.354 95.3628 706.407 108.472 676.691C119.975 650.929 130.024 623.994 143.155 600.665C174.821 540.189 175.745 431.548 131.759 346.678C127.555 338.05 123.101 330.718 117.796 323.446C86.3938 282.992 48.9833 255.116 9.83601 242.699C8.47114 242.162 7.10561 241.623 5.82831 241.72C-16.7432 243.398 -38.9325 232.272 -61.4506 225.006C-97.9551 213.031 -134.372 201.69 -170.364 190.314C-194.248 182.508 -217.965 172.777 -241.923 167.534C-272.619 160.236 -303.731 156.16 -334.416 152.056C-347.368 151.743 -359.806 152.029 -372.408 154.244L-403.074 156.521L-402.9 157.787L-403.325 157.818Z" fill="#F8EA2B"/>
</g>
</g>
</g>
</g>
</g>
</g>
<mask id="mask6_224_520" style="mask-type:luminance" maskUnits="userSpaceOnUse" x="-504" y="-111" width="807" height="622">
<path d="M-436.255 510.495L-504 -14.9491L234.335 -110.142L302.08 415.302L-436.255 510.495Z" fill="white"/>
</mask>
<g mask="url(#mask6_224_520)">
<mask id="mask7_224_520" style="mask-type:luminance" maskUnits="userSpaceOnUse" x="-563" y="-338" width="863" height="1020">
<path d="M-562.813 281.035L-133.454 -337.367L299.447 62.6851L-129.914 681.087L-562.813 281.035Z" fill="white"/>
</mask>
<g mask="url(#mask7_224_520)">
<mask id="mask8_224_520" style="mask-type:luminance" maskUnits="userSpaceOnUse" x="-563" y="-338" width="863" height="1020">
<path d="M-562.813 281.035L-133.454 -337.367L299.447 62.6851L-129.914 681.087L-562.813 281.035Z" fill="white"/>
</mask>
<g mask="url(#mask8_224_520)">
<path d="M-349.118 -20.2007C-339.104 -27.8657 -329.763 -34.5685 -320.361 -37.2635C-291.864 -45.5536 -258.085 -32.9942 -232.904 -19.5243C-220.267 -12.7499 -208.508 -4.09781 -196.027 2.6932C-183.046 9.78873 -169.59 15.5852 -156.419 21.5896C-136.849 30.6603 -116.46 38.7533 -95.7713 40.4806C-89.8019 41.0931 -83.6497 42.6717 -77.518 42.6427C-62.3443 42.2798 -47.2502 39.7836 -32.7014 35.2073C-23.5176 32.6243 -14.7664 27.5911 -5.3272 23.8212C-1.38785 22.2432 1.92993 19.3061 5.73643 17.9196C11.677 15.5032 16.9956 10.2986 22.6287 7.9185L25.6341 5.63561C31.4222 3.2355 36.8071 -2.0648 42.8146 -4.57372L73.5397 -21.4004C78.1388 -23.3151 81.9956 -27.0262 86.3729 -28.8285C90.7531 -30.6311 93.6792 -33.6183 97.7711 -35.2126C111.541 -40.5138 123.711 -45.5516 136.429 -45.6549C141.16 -45.7113 146.169 -45.3507 150.936 -45.0562C152.424 -44.9461 154.077 -44.0521 155.65 -43.8625C159.805 -43.4991 164.019 -42.6099 168.053 -41.2548C187.13 -33.1101 206.469 -23.3016 224.198 -7.07617C226.623 -4.83581 228.056 -2.40397 230.587 0.0944205C238.844 8.67135 249.507 26.2742 252.574 38.4354C255.023 49.2372 255.805 60.3948 254.944 71.4589C254.525 75.3373 253.951 79.2357 253.052 82.9881C251.499 93.4102 249.074 103.659 245.994 113.621C244.15 119.347 242.605 125.668 240.367 131.348C229.075 160.913 211.585 189.177 192.834 216.594C184.276 228.922 174.179 239.986 165.118 252.01C156.325 263.648 145.35 273.111 136.081 284.621C133.012 288.429 129.145 291.336 126.209 294.949L87.1889 332.725C83.5665 337.123 78.8945 339.762 75.4316 343.52L60.341 356.452C57.3189 359.985 52.2721 362.749 49.1835 366.378L44.5213 369.817C41.5021 373.35 36.3565 375.234 32.9998 379.25C28.4693 384.547 20.577 388.957 14.7652 393.232C10.8714 396.589 6.85172 399.512 2.46461 401.94C-0.132775 403.019 -2.73096 406.152 -4.95443 407.1C-9.02623 408.872 -12.314 412.789 -15.8594 414.413C-19.4043 416.041 -23.8151 420.343 -27.7516 421.921L-34.2428 426.358C-39.5902 428.533 -44.8358 433.014 -50.1138 435.093L-56.1376 438.856L-76.6671 448.977L-100.871 458.86C-119.15 464.105 -136.369 470.485 -154.097 473.707C-180.887 478.516 -207.327 478.114 -234.137 482.745C-254.695 486.358 -274.236 489.324 -293.831 487.66C-306.334 486.223 -318.617 482.623 -330.346 477C-334.679 475.053 -339.499 473.601 -343.783 471.379C-358.725 463.422 -372.968 454.054 -386.585 443.367C-390.248 440.458 -392.877 437.08 -396.58 433.816C-404.632 426.374 -412.325 416.577 -420.43 407.98C-423.517 404.651 -425.046 400.712 -428.156 397.205C-431.756 392.771 -434.955 387.759 -437.782 382.618L-440.673 377.573C-443.441 369.48 -448.825 362.294 -451.245 354.521C-455.301 342.551 -458.54 330.23 -460.882 317.634C-463.059 304.395 -462.303 291.023 -462.167 278.341C-461.929 255.478 -459.123 230.56 -452.163 209.481C-448.274 197.738 -443.252 186.412 -438.71 174.957C-436.701 170.015 -433.738 165.953 -431.749 160.835C-428.994 154.21 -425.828 147.807 -422.404 141.646C-420.525 138.324 -417.35 134.775 -415.796 131.307L-414.438 120.548C-413.323 113.829 -411.886 107.253 -410.052 100.726C-409.549 98.9771 -409.654 96.6692 -409.15 94.9202C-405.065 81.461 -401.258 67.5882 -396.278 54.4801C-393.52 47.2272 -390.258 40.2817 -387.41 33.1079C-386.085 30.3807 -384.673 27.7329 -383.022 25.1483C-377.486 14.9274 -371.348 5.26608 -364.448 -3.85263L-353.615 -15.9777C-352.237 -17.551 -349.774 -18.4354 -349.118 -20.2007Z" fill="#9AE85D"/>
</g>
</g>
</g>
<mask id="mask9_224_520" style="mask-type:luminance" maskUnits="userSpaceOnUse" x="-659" y="344" width="1262" height="1307">
<path d="M-74.8057 1650.77L-658.557 822.404L18.9209 344.986L602.672 1173.36L-74.8057 1650.77Z" fill="white"/>
</mask>
<g mask="url(#mask9_224_520)">
<mask id="mask10_224_520" style="mask-type:luminance" maskUnits="userSpaceOnUse" x="-735" y="122" width="1317" height="1400">
<path d="M-734.193 392.647L375.934 122.197L581.719 1250.75L-528.408 1521.2L-734.193 392.647Z" fill="white"/>
</mask>
<g mask="url(#mask10_224_520)">
<mask id="mask11_224_520" style="mask-type:luminance" maskUnits="userSpaceOnUse" x="-735" y="122" width="1317" height="1400">
<path d="M-734.193 392.647L375.934 122.197L581.719 1250.75L-528.408 1521.2L-734.193 392.647Z" fill="white"/>
</mask>
<g mask="url(#mask11_224_520)">
<path d="M-485.161 785.44C-201.117 584.617 -508.731 504.162 -308.138 372.285C-107.544 240.408 86.858 396.85 95.2082 659.119C100.611 831.037 542.255 1033.6 248.405 1218.34C-45.4461 1403.08 -118.778 1141.99 -334.767 1156.61C-591.752 1173.79 -631.91 889.125 -485.161 785.44Z" fill="#004AAD"/>
</g>
</g>
</g>
<mask id="mask12_224_520" style="mask-type:luminance" maskUnits="userSpaceOnUse" x="-712" y="277" width="1034" height="1036">
<path d="M-201.876 277.113L321.608 827.92L-187.837 1312.09L-711.321 761.287L-201.876 277.113Z" fill="white"/>
</mask>
<g mask="url(#mask12_224_520)">
<mask id="mask13_224_520" style="mask-type:luminance" maskUnits="userSpaceOnUse" x="-538" y="363" width="813" height="843">
<path d="M274.904 1040.58L-362.523 1205.28L-537.396 528.488L100.029 363.786L274.904 1040.58Z" fill="white"/>
</mask>
<g mask="url(#mask13_224_520)">
<mask id="mask14_224_520" style="mask-type:luminance" maskUnits="userSpaceOnUse" x="-712" y="277" width="1034" height="1036">
<path d="M321.608 827.92L-201.876 277.113L-711.321 761.287L-187.837 1312.09L321.608 827.92Z" fill="white"/>
</mask>
<g mask="url(#mask14_224_520)">
<mask id="mask15_224_520" style="mask-type:luminance" maskUnits="userSpaceOnUse" x="-554" y="430" width="783" height="787">
<path d="M-202.068 430.149L228.382 883.065L-122.852 1216.88L-553.302 763.96L-202.068 430.149Z" fill="white"/>
</mask>
<g mask="url(#mask15_224_520)">
<mask id="mask16_224_520" style="mask-type:luminance" maskUnits="userSpaceOnUse" x="-538" y="363" width="813" height="843">
<path d="M274.904 1040.58L-362.522 1205.28L-537.395 528.488L100.03 363.786L274.904 1040.58Z" fill="white"/>
</mask>
<g mask="url(#mask16_224_520)">
<mask id="mask17_224_520" style="mask-type:luminance" maskUnits="userSpaceOnUse" x="-538" y="363" width="813" height="843">
<path d="M-537.413 528.464L100.012 363.762L274.886 1040.55L-362.54 1205.25L-537.413 528.464Z" fill="white"/>
</mask>
<g mask="url(#mask17_224_520)">
<path d="M-372.609 763.655C-215.864 642.527 -399.957 594.902 -288.784 515.331C-177.611 435.757 -56.1885 529.225 -38.6723 686.603C-27.2308 789.762 241.264 910.379 77.9992 1021.88C-85.2642 1133.37 -140.794 976.847 -266.63 986.083C-416.364 996.944 -453.591 826.193 -372.609 763.655Z" fill="#9AE85D"/>
</g>
</g>
</g>
</g>
</g>
</g>
<mask id="mask18_224_520" style="mask-type:luminance" maskUnits="userSpaceOnUse" x="34" y="241" width="197" height="242">
<path d="M191.035 241.858L230.297 453.479L73.262 482.614L33.9999 270.993L191.035 241.858Z" fill="white"/>
</mask>
<g mask="url(#mask18_224_520)">
<mask id="mask19_224_520" style="mask-type:luminance" maskUnits="userSpaceOnUse" x="28" y="253" width="198" height="227">
<path d="M225.159 269.713L206.231 479.163L28.3334 463.088L47.261 253.636L225.159 269.713Z" fill="white"/>
</mask>
<g mask="url(#mask19_224_520)">
<mask id="mask20_224_520" style="mask-type:luminance" maskUnits="userSpaceOnUse" x="28" y="253" width="198" height="227">
<path d="M225.159 269.713L206.231 479.163L28.3334 463.088L47.261 253.636L225.159 269.713Z" fill="white"/>
</mask>
<g mask="url(#mask20_224_520)">
<path fill-rule="evenodd" clip-rule="evenodd" d="M56.0733 307.642C56.3834 306.996 56.3113 306.4 56.2202 306.013C56.065 305.409 55.3761 304.168 53.5897 304.386C52.4392 304.534 48.1259 306.166 45.2615 308.516C43.0809 310.297 41.8253 312.54 42.1413 314.631C42.348 316.081 43.3005 317.64 45.6199 318.986C47.26 319.934 49.173 320.192 50.9799 319.765C57.9389 318.206 59.0159 311.864 57.141 308.874C56.8064 308.38 56.4635 307.97 56.0733 307.642ZM49.4784 315.42C49.648 315.395 49.8188 315.368 49.949 315.337C52.1841 314.824 53.3593 313.456 53.479 312.12C53.5218 311.662 53.5206 311.198 53.1975 311.043C53.0386 310.944 52.7814 311.005 52.5225 311.066C52.0489 311.192 51.5596 311.484 51.0163 311.898C50.2053 312.498 50.1216 313.416 49.8824 314.194C49.7583 314.646 49.6364 315.057 49.4784 315.42ZM72.0459 270.153C72.3566 269.045 72.4317 268.21 72.363 267.572C72.2254 266.297 71.6173 265.569 70.8631 265.079C70.1835 264.681 69.2349 264.47 68.0725 264.743C66.7832 265.048 64.962 266.103 63.054 267.656C59.9661 270.155 56.6742 273.983 55.389 277.023C54.4259 279.293 54.5002 281.278 55.4259 282.667C56.3194 283.968 58.1148 285.056 61.5404 284.86C63.7836 284.727 67.5331 283.761 70.6134 282.272C72.9046 281.131 74.8022 279.703 75.6969 278.185C77.6336 274.909 77.1975 272.765 76.3308 271.634C75.579 270.64 74.0337 270.038 72.0459 270.153ZM71.2448 340.957L71.2518 340.874C71.2441 340.032 70.8609 339.155 69.8195 338.555C68.8559 338.048 66.5604 337.84 65.801 337.856C57.8045 338.312 48.6473 344.176 51.1112 353.7C51.389 354.819 52.0192 355.76 52.832 356.549C52.759 356.879 52.7673 357.259 52.7752 357.638C52.8333 358.865 53.9267 359.805 55.1515 359.747C55.8739 359.686 56.5407 359.283 56.8863 358.725C57.5005 358.908 58.1615 359.051 58.7452 359.104C60.9894 359.432 63.6293 358.62 66.0886 357.032C69.4383 354.894 72.483 351.465 73.6818 348.458C74.6061 346.143 74.4981 344.071 73.4508 342.63C73.0065 341.958 72.2578 341.386 71.2448 340.957ZM60.2555 343.795C58.7153 344.539 57.3644 345.511 56.4514 346.775C55.5368 348.04 55.021 349.55 55.2356 351.378C56.3377 348.954 58.037 345.992 60.2555 343.795ZM72.5255 274.616C72.4002 274.604 72.2293 274.631 72.1007 274.661C71.3343 274.76 70.4732 274.978 69.5998 275.319C67.2478 276.201 64.6718 277.694 63.0528 279.314C62.684 279.661 62.3995 280.014 62.1572 280.371C63.9895 280.116 66.5817 279.382 68.7409 278.313C70.1475 277.642 71.3931 276.912 71.8963 275.989C72.1542 275.467 72.3675 274.979 72.5255 274.616ZM67.4352 271.336C67.302 270.945 67.2565 270.519 67.3399 270.064C66.1753 270.843 64.8516 271.987 63.6036 273.22C64.8476 272.491 66.1677 271.853 67.4352 271.336ZM58.6564 354.508C58.9033 354.572 59.1536 354.595 59.3583 354.656C60.6894 354.818 62.2192 354.198 63.6954 353.239C66.2409 351.616 68.6185 349.054 69.5392 346.78C69.6987 346.416 69.8173 346.047 69.8463 345.712C69.8618 345.546 69.923 345.342 69.8047 345.247C69.6947 345.068 69.4056 345 69.1147 344.974C68.6172 344.886 68.0323 344.834 67.3114 344.894C65.8737 344.976 64.6633 345.792 63.5559 346.87C61.5259 348.834 59.9636 351.681 59.0582 353.788C58.9106 354.026 58.804 354.269 58.6564 354.508ZM80.6757 377.247C79.7564 376.238 78.7614 375.139 77.6118 374.362C76.2678 373.398 74.768 372.757 73.1288 372.735C71.4933 372.672 69.7216 373.185 67.7784 374.652C63.1688 378.149 63.0082 383.185 65.2776 387.431C67.4 391.41 71.7394 394.623 76.2098 394.984C82.6017 395.52 86.8474 392.327 90.161 387.323C91.9125 384.703 92.0179 382.608 91.4406 381.082C90.8281 379.47 89.2987 378.238 87.078 377.658C85.3548 377.165 83.0931 377.045 80.6757 377.247ZM95.3024 292.247C96.4814 292.227 97.4568 291.221 97.4408 289.998C97.4252 288.777 96.4232 287.761 95.2002 287.777C91.1167 287.786 85.505 288.415 81.3839 290.695C78.2392 292.431 75.9377 295.084 75.4232 298.91C75.0911 301.195 75.2843 302.77 75.8781 304.127C76.474 305.444 77.5488 306.593 79.3218 307.932C83.7795 311.239 87.984 310.357 91.3255 307.838C94.3067 305.583 96.4569 301.821 97.2364 298.777C97.6198 297.338 97.6534 296.037 97.448 295.051C97.2072 293.976 96.6919 293.172 95.9818 292.644C95.784 292.5 95.5441 292.353 95.3024 292.247ZM75.2907 378.15C74.5842 377.581 73.8217 377.176 72.937 377.18C72.1826 377.154 71.3923 377.504 70.49 378.179C69.3642 379.004 68.7678 380.001 68.5028 381.072C69.9944 379.945 72.3162 378.934 74.9454 378.245L75.2907 378.15ZM71.1369 387.792C72.6444 389.275 74.5717 390.29 76.6185 390.476C81.1718 390.845 84.0888 388.373 86.4707 384.843C86.8126 384.325 87.0653 383.844 87.2297 383.438C87.3385 383.154 87.403 382.907 87.3354 382.732C87.1634 382.296 86.5864 382.159 85.9676 382.019C85.1862 381.822 84.3135 381.701 83.3494 381.656C83.2696 382.071 83.0695 382.431 82.7462 382.738C81.8673 383.627 80.4363 383.624 79.5895 382.747C79.3581 382.517 79.1671 382.288 78.8985 382.012C77.9577 382.179 77.0119 382.388 76.1507 382.605C74.4248 383.08 72.8123 383.693 71.6966 384.39C71.4732 384.539 71.1991 384.767 71.0146 384.961C71.7462 385.7 71.8043 386.926 71.1369 387.792ZM91.5416 292.411C89.4609 292.602 87.2751 293.037 85.3138 293.786C82.6128 294.803 80.3143 296.49 79.8749 299.481C79.8441 299.814 79.7726 300.144 79.747 300.436C82.3865 298.235 86.1201 296.046 88.7407 294.053C89.8188 293.308 90.7514 292.761 91.5416 292.411ZM93.0871 296.718C92.647 296.931 92.0295 297.255 91.4877 297.668C88.6877 299.772 84.5208 302.089 82.1248 304.397C86.4709 307.526 90.2827 303.536 92.0384 299.948C92.5469 298.984 92.8879 298.005 93.0461 297.178C93.0614 297.01 93.0767 296.843 93.0871 296.718ZM95.9987 418.658C96.014 418.491 95.9873 418.322 95.9568 418.191C95.6826 416.567 94.1415 414.998 91.5948 414.305C88.9261 413.558 85.0928 413.59 81.7779 414.891C78.1989 416.293 75.3018 419.019 74.8628 423.398C74.5317 426.61 75.4277 428.795 76.9422 430.195C78.3785 431.545 80.5042 432.242 82.8978 432.29C86.9321 432.36 91.9256 430.665 95.2347 428.523C96.7091 427.562 97.8553 426.529 98.5343 425.537C99.2173 424.506 99.5158 423.522 99.432 422.588C99.359 421.53 98.8657 420.474 97.7231 419.614C97.3769 419.247 96.7767 418.898 95.9987 418.658ZM87.3905 337.87C87.3719 338.08 87.3988 338.251 87.3798 338.459C87.4413 339.643 88.4504 340.576 89.6311 340.557C90.9984 341.732 92.5504 342.715 93.7389 343.538C98.6054 346.965 103.365 347.396 107.171 346.266C111.626 344.942 114.796 341.527 115.713 337.904C115.899 337.712 116.043 337.514 116.15 337.27C118.367 332.294 115.958 327.742 111.307 324.713C107.647 322.361 102.635 321.025 98.1869 321.337C94.9678 321.552 92.0505 322.635 89.9762 324.636C86.8881 327.598 86.2068 330.482 86.455 334.715C86.5165 335.899 86.8435 336.938 87.3905 337.87ZM87.2858 418.208C86.6854 418.323 86.125 418.481 85.5633 418.641C83.0505 419.424 81.7347 420.947 79.7359 422.114C80.9936 419.364 84.3712 418.324 87.2858 418.208ZM94.8104 422.971C94.7294 422.922 94.609 422.867 94.5247 422.861C94.3621 422.803 94.1983 422.747 93.9936 422.686C93.5349 423.108 92.9916 423.522 92.3667 423.927C91.3378 424.593 89.9339 424.297 89.2686 423.27C89.0828 423.001 88.9798 422.738 88.9242 422.439C88.1985 422.541 87.5082 422.732 86.8585 422.926C84.6925 423.614 83.6389 425.034 81.9075 426.013C81.5977 426.195 81.0287 426.902 80.8389 427.137L80.8356 427.179C80.8304 427.22 80.827 427.262 80.7864 427.259L80.7778 427.342C81.4272 427.611 82.1747 427.72 83.0138 427.755C85.1571 427.781 87.6122 427.161 89.7983 426.263C91.4145 425.61 92.8786 424.774 93.93 423.859C94.287 423.638 94.6157 423.248 94.8104 422.971ZM105.714 326.984C103.433 326.148 100.864 325.704 98.4923 325.869C96.3743 326.014 94.4283 326.596 93.0468 327.902C91.8939 329.019 91.2871 330.142 91.0035 331.422C91.6822 330.893 92.4 330.412 93.2428 329.94C97.0439 327.926 102.064 326.865 105.714 326.984ZM112.318 262.303C112.333 262.135 112.307 261.964 112.276 261.836C112.192 261.365 111.986 260.841 111.52 260.421C111.17 260.094 110.45 259.692 109.413 259.514C108.131 259.272 106.282 259.232 105.523 259.248C100.488 259.549 97.5644 263.958 97.3876 268.234C97.2832 271.255 98.5863 274.066 101.114 275.432C102.641 276.242 104.675 276.553 107.305 275.864C109.846 275.21 113.761 272.408 115.68 269.803C117.122 267.829 117.344 265.829 116.623 264.501C116.038 263.522 114.784 262.483 112.318 262.303ZM92.1603 336.787C92.3159 336.928 92.4305 337.063 92.586 337.204C93.7928 338.281 95.2703 339.172 96.3371 339.942C98.6682 341.626 101.002 342.342 103.101 342.405C106.418 342.495 109.221 340.811 110.636 338.667C111.462 337.437 111.837 336.082 111.446 334.826C110.986 333.395 109.569 332.299 107.144 331.659C104.43 330.951 99.1715 331.865 95.4498 333.928C93.9925 334.679 92.6874 335.614 92.1603 336.787ZM105.796 263.692C104.398 263.775 103.408 264.486 102.775 265.438C103.679 264.762 104.74 264.185 105.796 263.692ZM112.207 266.795C111.789 266.758 111.289 266.713 110.78 266.752C109.299 266.828 106.712 267.983 104.853 269.456C104.306 269.912 103.844 270.375 103.507 270.85C103.404 271.051 103.26 271.249 103.241 271.457C103.966 271.817 104.893 271.817 106.14 271.509C107.605 271.137 109.628 269.719 111.11 268.212C111.482 267.825 111.914 267.232 112.207 266.795ZM110.135 446.663C110.203 445.91 109.967 445.258 109.592 444.761C109.072 443.999 107.872 443.301 106.099 443.352C103.906 443.405 100.389 444.603 98.0064 446.744C96.2169 448.393 95.0561 450.518 95.2059 453.057C95.3425 455.258 96.0464 456.795 97.0857 457.857C98.1654 458.964 99.5808 459.598 101.247 459.791C105.042 460.175 110.339 457.918 113.559 455.347C115.326 453.95 116.517 452.415 116.836 451.224C117.143 450.157 117.014 449.262 116.497 448.458C115.871 447.475 114.244 446.36 110.819 446.555C110.694 446.545 110.435 446.605 110.135 446.663ZM128.806 367.203C128.852 367.165 128.943 367.09 128.992 367.009C129.792 366.073 129.751 364.679 128.816 363.837C122.581 358.308 114.262 357.681 108.804 361.27C105.09 363.713 102.545 368.113 102.901 374.417L102.894 374.499C102.853 374.959 102.846 375.506 102.921 376.059C103.111 377.213 103.591 378.435 103.591 378.435C103.967 379.394 104.969 379.948 105.993 379.789C106.745 380.782 107.759 381.673 109.111 382.554C118.032 388.158 130.952 383.517 130.247 371.29C130.186 369.642 129.676 368.292 128.806 367.203ZM105.947 448.304C105.832 448.167 105.761 448.035 105.688 447.902C105.518 447.928 105.347 447.955 105.176 447.982C103.89 448.245 102.399 448.908 101.216 449.897C100.532 450.466 99.9628 451.173 99.7202 451.993C99.8116 451.917 99.903 451.841 99.9943 451.765C101.352 450.709 103.75 449.326 105.947 448.304ZM108.955 373.111C108.666 373.969 108.628 374.85 108.849 375.669C109.168 376.793 110.046 377.798 111.561 378.733C117.535 382.473 126.331 379.69 125.848 371.524C125.748 369.831 124.595 369.095 123.061 368.83C122.99 369.161 122.877 369.488 122.763 369.814C122.361 370.998 121.086 371.599 119.901 371.197C118.964 370.859 118.371 369.964 118.416 369C115.593 369.503 112.629 370.623 110.395 372.062C109.815 372.432 109.364 372.77 108.955 373.111ZM111.428 450.987C111.386 450.984 111.303 450.977 111.261 450.972L111.178 450.965C111.045 451.038 108.567 451.908 106.844 452.805C105.387 453.556 103.552 454.779 102.792 455.257L102.963 455.232C104.706 455.053 106.67 454.261 108.397 453.324C109.505 452.708 110.692 451.679 111.515 450.954L111.428 450.987ZM138.647 303.488C138.669 302.774 138.514 302.17 138.27 301.601C137.598 300.193 135.848 299.068 133.304 298.795C129.806 298.396 124.705 299.408 121.264 301.622C119.255 302.912 117.793 304.633 117.279 306.607C116.76 308.622 117.092 311.009 119.082 313.672L119.153 313.804C118.903 314.707 118.779 315.622 118.863 316.556C118.921 317.783 120.014 318.723 121.239 318.665C122.17 318.623 122.943 317.978 123.228 317.161C125.668 318.561 128.663 319.42 131.517 319.51C136.765 319.647 141.565 317.304 142.704 311.219C143.189 308.653 142.641 306.794 141.581 305.478C140.906 304.576 139.873 303.893 138.647 303.488ZM132.985 303.271C132.776 303.252 132.61 303.236 132.4 303.218C131.774 303.161 131.099 303.184 130.377 303.245C128.215 303.428 125.751 304.132 123.927 305.229C122.683 305.959 121.674 306.878 121.561 308.13C121.526 308.505 121.577 308.889 121.751 309.284C121.983 309.052 122.213 308.821 122.445 308.589C125.169 305.931 129.304 303.947 132.985 303.271ZM124.633 312.785C126.577 314.097 129.196 314.922 131.629 315.016C134.696 315.083 137.62 313.917 138.275 310.398C138.445 309.445 138.425 308.728 138.047 308.273C137.362 307.453 136.061 307.42 134.573 307.581C131.514 307.893 127.83 309.538 125.475 311.852C125.199 312.12 124.914 312.473 124.633 312.785ZM150.004 279.345C150.293 279.412 150.589 279.397 150.888 279.34C152.433 279.017 153.024 278.06 153.221 277.279C153.422 276.455 153.212 275.048 151.724 273.818C149.686 272.16 144.292 269.905 139.281 269.916C135.954 269.951 132.835 270.932 130.68 273.348C129.273 274.947 128.23 277.167 127.948 280.298C127.717 282.845 128.636 283.854 130.348 285.397C134.089 288.723 138.214 288.716 141.841 287.235C145.165 285.853 147.98 283.118 149.329 280.756C149.622 280.32 149.834 279.835 150.004 279.345ZM140.772 410.836C139.856 408.396 137.51 406.416 134.402 405.42C129.904 403.961 123.918 404.515 120.024 408.035C117.41 410.409 115.648 414.079 115.965 419.41C116.187 423.008 118.644 425.166 121.327 427.134C132.85 435.625 144.339 430.983 147.38 424.354C148.846 421.162 148.595 417.435 145.783 414.067C144.406 412.553 142.73 411.518 140.772 410.836ZM143.003 274.84C141.725 274.556 140.351 274.389 139 274.437C137.227 274.486 135.508 274.878 134.268 276.029C133.21 277.028 132.569 278.527 132.373 280.698C132.306 281.449 132.795 281.62 133.3 282.086C133.337 282.131 133.418 282.18 133.455 282.226C133.766 281.58 134.358 281.087 135.087 280.942C135.265 280.832 136.213 280.119 136.851 279.587C138.773 277.867 141.035 275.672 142.392 275.08C142.655 274.977 142.829 274.909 143.003 274.84ZM134.105 410.107C133.74 409.948 133.376 409.788 133.007 409.671C129.903 408.633 125.709 408.928 123.046 411.38C122.128 412.223 121.4 413.294 120.938 414.683C121.165 414.493 121.434 414.307 121.705 414.121C124.615 412.195 129.444 410.444 134.105 410.107ZM121.799 421.916C122.46 422.524 123.212 423.054 123.964 423.584C131.339 429.05 138.724 427.907 142.126 424.258C143.989 422.281 144.37 419.453 142.316 417.037C141.858 416.532 141.349 416.107 140.79 415.762C140.555 416.499 140.145 417.304 139.612 418.097C138.929 419.129 137.555 419.426 136.522 418.743C135.489 418.061 135.193 416.687 135.875 415.654C136.118 415.297 136.274 414.974 136.43 414.653C132.994 414.469 129.204 415.431 126.347 416.771C125.205 417.299 124.227 417.884 123.46 418.446C123.232 418.637 123.001 418.869 122.815 419.061C123.164 419.85 123.077 420.811 122.468 421.514C122.288 421.624 122.061 421.813 121.799 421.916ZM143.355 456.777C143.787 455.721 143.741 454.833 143.467 454.136C143.194 453.437 142.658 452.843 141.857 452.391C140.93 451.928 139.435 451.71 137.485 451.87C133.239 452.286 126.629 454.634 122.669 457.937C119.392 460.673 117.864 464.07 119.27 467.606C119.783 468.915 120.949 469.988 122.782 470.66C125.674 471.72 130.51 471.778 135.169 470.978C139.145 470.287 143.008 468.993 145.391 467.315C147.636 465.75 148.736 463.829 148.617 461.882C148.518 460.19 147.868 458.995 146.892 458.149C145.993 457.395 144.813 456.95 143.355 456.777ZM155.911 333.205C156.504 328.502 154.776 325.736 152.374 324.383C148.93 322.43 143.23 323.556 139.119 327.141C135.872 330.004 133.593 334.259 134.397 339.342C133.203 342.769 133.823 346.15 137.384 348.197C137.825 348.447 139.259 348.872 140.735 349.299C141.78 349.857 143.01 350.22 144.383 350.387C149.677 350.949 153.996 349.277 156.355 346.461C158.855 343.488 159.459 339.122 156.583 334.15C156.359 333.835 156.136 333.52 155.911 333.205ZM145.082 278.858C144.819 278.961 144.599 279.067 144.296 279.165C143.902 279.34 143.355 279.797 142.76 280.332C141.664 281.285 140.465 282.439 139.414 283.354C140.495 283.032 141.47 282.488 142.371 281.854C143.405 281.106 144.408 279.807 145.082 278.858ZM139.029 457.144C138.926 456.882 138.869 456.583 138.854 456.287L138.812 456.282C137.802 456.276 136.519 456.496 135.1 456.831C131.484 457.724 127.106 459.601 124.69 462.119C124.133 462.7 123.659 463.289 123.435 463.899C124.511 463.156 125.98 462.278 127.703 461.381C131.098 459.667 135.381 457.909 139.029 457.144ZM126.901 466.991C129.114 467.191 131.781 467.011 134.388 466.572C137.682 465.987 140.843 465.01 142.819 463.632C143.222 463.374 143.543 463.066 143.824 462.753C144.011 462.561 144.155 462.363 144.136 462.109C144.113 461.896 144.086 461.725 144.013 461.593C143.785 461.319 143.41 461.286 142.951 461.244C141.908 461.15 140.629 461.329 139.294 461.671C135.206 462.649 130.323 464.985 127.39 466.698C127.213 466.809 127.038 466.876 126.901 466.991ZM145.705 346.002C149.433 346.214 152.449 344.97 153.552 342.545C154.332 340.89 154.062 338.762 152.675 336.406C151.912 335.074 150.314 334.13 149.187 333.102C148.678 332.677 147.956 332.738 147.179 332.962C145.156 333.454 142.911 335.018 141.184 336.882C140.346 337.774 139.629 338.719 139.117 339.725C139.369 340.674 139.745 341.634 140.331 342.612C141.022 343.812 141.78 344.723 142.779 345.318C144.1 345.605 145.421 345.894 145.705 346.002ZM150.832 328.873C150.756 328.782 150.68 328.69 150.604 328.6C149.749 327.808 148.494 327.736 147.127 327.949C145.631 328.193 144.054 328.892 142.691 329.99C143.845 329.337 145.025 328.854 146.103 328.572C147.867 328.143 149.5 328.248 150.832 328.873ZM177.185 380.035L177.21 379.743C177.292 375.583 175.882 371.627 173.073 369.183C172.214 368.433 171.217 367.836 170.119 367.401C170.122 366.433 169.857 365.651 169.401 365.106C168.614 364.025 166.997 363.289 164.789 363.51C161.521 363.805 156.475 366.085 153.066 369.817C150.312 372.808 148.531 376.688 149.273 381.048C148.754 384.915 150.082 388.866 154.014 391.451C159.731 395.251 164.583 395.606 168.285 394.214L168.373 394.18C172.403 393.829 175.84 392.119 177.512 389.451C178.854 387.172 179.187 383.962 177.185 380.035ZM172.635 381.013C172.191 380.341 171.667 379.62 171.02 378.847C167.6 374.792 164.191 373.39 161.166 373.79C160.782 373.838 160.442 373.892 160.096 373.988C158.678 375.711 157.882 377.997 157.985 380.11C158.043 381.336 157.107 382.387 155.877 382.486C155.114 382.544 154.431 382.187 153.975 381.642C154.142 382.119 154.348 382.643 154.597 383.129C157.071 387.898 162.529 389.907 167.171 389.779L167.212 389.783C170.38 388.258 172.219 384.679 172.635 381.013ZM183.173 295.601C183.189 295.433 183.201 295.308 183.17 295.179C183.12 294.332 182.687 293.536 181.814 292.952C181.062 292.422 179.582 292.035 177.688 292.031C174.36 292.068 169.42 293.178 166.146 295.408C163.497 297.231 161.882 299.736 162.149 302.834C162.324 304.617 163.153 306.627 165.013 308.859C168.666 313.145 173.152 313.339 177.144 311.553C180.783 309.946 183.912 306.526 185.201 303.443C186.376 300.687 186.097 298.18 184.556 296.608C184.255 296.202 183.78 295.865 183.173 295.601ZM172.45 297.366C171.323 297.727 170.23 298.176 169.298 298.723C167.966 299.487 166.869 300.44 166.665 301.769C166.552 302.557 166.764 303.461 167.354 304.398C167.754 303.213 168.32 302.087 169.093 300.978C169.909 299.872 171.084 298.505 172.45 297.366ZM171.249 307.865C172.604 308.24 174.054 308.033 175.37 307.437C177.916 306.278 180.146 303.954 181.097 301.81C181.309 301.325 181.434 300.872 181.514 300.459C181.54 300.166 181.604 299.919 181.453 299.738C181.305 299.513 180.971 299.484 180.558 299.404C179.684 299.283 178.538 299.39 177.119 299.726C176.562 299.843 175.976 300.252 175.434 300.666C174.346 301.536 173.397 302.713 172.767 303.624C171.809 304.927 171.259 306.351 171.249 307.865ZM176.918 436.999C176.79 436.566 176.493 436.119 175.855 435.724C175.179 435.284 172.462 434.154 169.597 435.116C167.817 435.713 165.924 437.1 164.639 440.14C163.9 441.799 163.685 443.252 163.902 444.576C164.092 445.73 164.624 446.83 165.581 447.885C165.661 448.398 165.908 448.924 166.337 449.3C166.843 449.767 167.499 449.952 168.14 449.841C170.87 451.309 173.921 451.08 176.633 449.936C179.74 448.618 182.373 446.036 183.544 443.785C184.724 441.45 184.453 439.32 183.098 438.02C182.167 437.136 180.212 436.412 176.918 436.999ZM171.789 439.271C171.368 439.276 170.936 439.404 170.536 439.62C169.87 440.023 169.297 440.77 168.773 441.902C168.565 442.346 168.399 442.794 168.364 443.17C168.754 442.573 169.188 441.982 169.616 441.431C170.275 440.65 170.974 439.913 171.789 439.271ZM179.729 441.293C179.646 441.286 179.563 441.278 179.478 441.271C178.849 441.255 178.128 441.317 177.179 441.568C174.816 442.112 173.586 443.6 172.48 445.141C172.187 445.578 171.899 445.973 171.607 446.409C172.355 446.52 173.118 446.461 173.895 446.237C175.709 445.728 177.417 444.535 178.543 443.248C179.059 442.663 179.52 441.738 179.729 441.293ZM173.704 435.783C173.346 436.003 173.074 436.231 172.877 436.548C172.684 436.826 172.608 437.198 172.577 437.533C172.642 436.822 173.037 436.185 173.704 435.783ZM199.457 335.709C199.748 334.809 199.607 333.576 198.271 332.529C197.207 331.718 194.855 330.748 192.25 330.681C189.564 330.606 186.752 331.445 184.845 333.925C181.215 338.69 181.137 342.344 182.547 344.913C183.486 346.639 185.175 347.971 187.369 348.842C188.73 351.953 190.993 354.389 193.607 355.256C196.512 356.192 200.109 355.507 203.712 351.497C204.463 350.64 204.454 349.334 203.687 348.508C203.863 348.438 204.083 348.332 204.257 348.265C206.939 346.992 207.853 345.264 207.912 343.671C207.962 342.664 207.638 341.583 206.89 340.547C206.15 339.428 204.859 338.344 203.298 337.444C202.144 336.709 200.804 336.167 199.457 335.709ZM203.105 401.99C202.96 401.726 202.771 401.497 202.497 401.262C200.238 399.249 197.187 398.552 194.033 398.982C189.734 399.519 185.258 402.02 182.579 405.103C180.512 407.483 179.588 410.261 180.159 412.795C180.546 414.557 181.656 416.256 183.8 417.671C189.4 421.376 195.358 421.578 199.812 419.329C204.395 417.048 207.527 412.196 207.118 405.553C207.045 404.03 206.256 402.991 204.836 402.399C204.35 402.187 203.774 402.051 203.105 401.99ZM191.426 335.151C190.326 335.221 189.195 335.622 188.388 336.645L188.339 336.724C189.207 335.961 190.261 335.466 191.426 335.151ZM190.805 345.281C191.052 345.346 191.302 345.368 191.549 345.433C195.113 346.048 199.447 345.599 202.35 344.22C202.656 344.078 202.922 343.935 203.15 343.745C203.287 343.63 203.416 343.6 203.426 343.475C203.45 343.225 203.213 343.035 203.024 342.807C202.527 342.258 201.858 341.735 201.062 341.241C198.864 339.949 195.789 339.039 193.363 339.324C192.472 339.413 191.69 339.678 191.133 340.259C190.617 340.844 190.413 341.71 190.478 342.852C190.485 343.694 190.581 344.503 190.805 345.281ZM185.928 413.696C186.007 413.745 186.124 413.84 186.246 413.893C190.256 416.571 194.562 416.876 197.822 415.276C200.777 413.776 202.742 410.671 202.702 406.457C202.196 406.455 201.354 406.462 200.67 406.569C196.606 407.295 190.737 409.837 187.604 411.911C187.065 412.285 186.474 412.778 186.242 413.009C186.174 413.297 186.072 413.498 185.928 413.696ZM195.617 403.334C195.281 403.346 194.9 403.354 194.56 403.407C191.664 403.777 188.617 405.354 186.584 407.358C189.114 405.903 192.45 404.395 195.617 403.334ZM199.069 349.774C197.233 350.07 195.329 350.193 193.441 350.107C193.909 350.528 194.387 350.823 194.961 351.001C196.227 351.41 197.567 351.026 199.069 349.774ZM208.743 370.808C208.629 370.209 208.127 369.237 206.783 368.737C205.807 368.354 203.9 368.056 201.854 368.333C199.767 368.608 197.543 369.459 195.992 371.255C194.676 372.777 193.765 374.926 193.942 378.098C194.111 380.891 195.128 382.668 196.458 383.797C197.829 384.93 199.635 385.431 201.707 385.323C204.928 385.067 208.836 383.275 211.56 381.08C213.237 379.757 214.47 378.227 215.008 376.929C215.6 375.51 215.554 374.158 214.934 373.092C214.39 372.117 213.256 371.174 211.188 370.776C210.652 370.644 209.809 370.651 208.743 370.808ZM201.439 372.925C201.18 372.986 200.919 373.089 200.654 373.234C200.391 373.335 200.168 373.484 199.939 373.673C200.384 373.42 200.911 373.172 201.439 372.925ZM210.821 375.289C210.699 375.235 210.495 375.175 210.37 375.163C209.955 375.084 209.228 375.228 208.286 375.397C206.529 375.743 204.318 376.468 202.469 377.353C201.722 377.708 201.058 378.067 200.557 378.486C200.33 378.675 200.053 378.946 199.958 379.063C199.913 379.563 199.745 380.011 199.42 380.361C199.975 380.747 200.683 380.812 201.404 380.751C203.815 380.633 206.683 379.165 208.723 377.54C209.494 376.937 210.142 376.28 210.579 375.646C210.711 375.573 210.769 375.411 210.821 375.289ZM205.326 369.489L205.414 369.455C205.372 369.451 205.331 369.448 205.326 369.489Z" fill="#004AAD"/>
</g>
</g>
</g>
<mask id="mask21_224_520" style="mask-type:luminance" maskUnits="userSpaceOnUse" x="-179" y="788" width="551" height="509">
<path d="M371.099 1074.3L-13.5579 1296.38L-178.355 1010.94L206.302 788.858L371.099 1074.3Z" fill="white"/>
</mask>
<g mask="url(#mask21_224_520)">
<mask id="mask22_224_520" style="mask-type:luminance" maskUnits="userSpaceOnUse" x="-172" y="802" width="513" height="466">
<path d="M340.403 1159.86L-80.0934 1267.24L-171.302 910.092L249.198 802.706L340.403 1159.86Z" fill="white"/>
</mask>
<g mask="url(#mask22_224_520)">
<mask id="mask23_224_520" style="mask-type:luminance" maskUnits="userSpaceOnUse" x="-172" y="802" width="513" height="466">
<path d="M340.403 1159.86L-80.0934 1267.24L-171.302 910.092L249.198 802.706L340.403 1159.86Z" fill="white"/>
</mask>
<g mask="url(#mask23_224_520)">
<path fill-rule="evenodd" clip-rule="evenodd" d="M150.201 857.032C151.671 857.191 152.78 856.641 153.471 856.197C154.54 855.479 156.478 853.285 154.824 849.96C153.745 847.823 147.601 840.555 141.057 836.601C136.091 833.585 130.862 832.687 127.011 834.742C124.333 836.142 121.956 839.068 120.936 844.507C120.219 848.351 121.036 852.249 123.109 855.471C130.935 867.935 144.014 865.664 148.539 859.958C149.27 858.967 149.831 858.018 150.201 857.032ZM130.529 849.558C130.695 849.871 130.865 850.184 131.014 850.417C133.552 854.411 137.021 855.756 139.702 855.069C140.624 854.836 141.525 854.515 141.605 853.779C141.687 853.403 141.392 852.944 141.096 852.482C140.524 851.648 139.619 850.897 138.439 850.125C136.715 848.96 134.87 849.43 133.192 849.5C132.228 849.569 131.345 849.615 130.529 849.558ZM234.129 862.295C236.498 862.136 238.175 861.707 239.368 861.135C241.755 859.989 242.752 858.304 243.186 856.5C243.493 854.904 243.25 852.913 241.918 850.84C240.437 848.542 237.13 845.725 232.796 843.083C225.808 838.796 216.095 835.028 209.295 834.621C204.217 834.309 200.406 835.821 198.342 838.578C196.426 841.212 195.545 845.454 198.285 851.983C200.089 856.255 204.549 862.884 209.567 867.852C213.364 871.523 217.448 874.232 221.018 874.927C228.725 876.439 232.595 874.115 234.198 871.65C235.614 869.504 235.721 866.083 234.129 862.295ZM95.8356 909.485L96.0015 909.441C97.6352 908.846 99.0769 907.497 99.5262 905.058C99.849 902.835 98.6744 898.225 98.12 896.759C91.7276 881.517 74.0147 867.74 57.1824 879.09C55.1979 880.401 53.8007 882.275 52.8255 884.399C52.1332 884.485 51.3987 884.763 50.6671 885.039C48.3214 885.996 47.2456 888.771 48.2014 891.113C48.8164 892.477 50.0603 893.497 51.3838 893.785C51.45 895.106 51.6275 896.49 51.926 897.662C52.8322 902.254 56.2307 906.83 61.013 910.521C67.4791 915.566 76.2463 919.128 82.9208 919.39C88.0604 919.594 92.0173 917.958 94.0992 914.928C95.1005 913.601 95.6985 911.751 95.8356 909.485ZM82.7484 890.06C80.2397 887.576 77.4197 885.617 74.3316 884.711C71.2419 883.803 67.9488 883.839 64.5392 885.515C70.0147 885.99 76.9471 887.257 82.7484 890.06ZM225.777 866.3C225.714 866.048 225.544 865.735 225.396 865.505C224.676 864.082 223.66 862.557 222.396 861.093C219.06 857.124 214.382 853.141 210.115 851.107C209.187 850.628 208.304 850.318 207.443 850.092C209.201 853.481 212.413 858.019 215.978 861.484C218.254 863.757 220.531 865.678 222.673 866.022C223.867 866.164 224.961 866.243 225.777 866.3ZM228.653 854.14C229.322 853.611 230.12 853.229 231.062 853.078C228.746 851.349 225.609 849.561 222.35 847.983C224.625 849.901 226.776 852.029 228.653 854.14ZM60.8065 894.325C60.8511 894.85 60.98 895.352 61.0021 895.792C61.603 898.493 63.8613 901.043 66.7444 903.254C71.6545 907.089 78.2758 909.95 83.3339 910.175C84.1511 910.235 84.9503 910.212 85.6213 910.038C85.9548 909.954 86.3952 909.932 86.498 909.637C86.7713 909.299 86.7042 908.69 86.5544 908.106C86.3836 907.078 86.0808 905.904 85.4673 904.544C84.3191 901.803 81.8985 900.01 79.0386 898.598C73.8207 896.001 67.2061 894.921 62.4843 894.611C61.919 894.488 61.3718 894.448 60.8065 894.325ZM31.7296 952.817C33.0597 950.334 34.5123 947.642 35.2337 944.87C36.1832 941.592 36.3972 938.233 35.3113 935.029C34.307 931.804 32.0901 928.71 27.8992 925.94C17.9219 919.38 8.01489 922.535 1.31711 929.873C-4.96281 936.742 -8.22591 947.396 -5.85101 956.341C-2.4919 969.145 6.64323 975.206 18.6589 978.207C24.9621 979.811 29.1086 978.574 31.6806 976.4C34.396 974.098 35.7386 970.275 35.339 965.555C35.1102 961.864 33.7878 957.381 31.7296 952.817ZM207.159 922.75C208.011 925.029 210.639 926.234 213.007 925.361C215.372 924.49 216.659 921.841 215.786 919.473C212.956 911.535 207.869 901.051 200.597 894.604C195.055 889.681 188.308 887.031 180.511 888.664C175.837 889.591 172.906 891.051 170.674 893.141C168.523 895.207 167.027 898.089 165.644 902.46C162.278 913.409 166.89 920.981 174.09 925.747C180.53 929.994 189.329 931.587 195.787 931.008C198.851 930.763 201.405 929.933 203.183 928.854C205.106 927.646 206.316 926.09 206.855 924.344C206.999 923.861 207.12 923.293 207.159 922.75ZM26.265 942.963C26.8855 941.197 27.1487 939.435 26.5313 937.717C26.0629 936.231 24.8387 934.934 22.903 933.644C20.5245 932.021 18.1728 931.548 15.9079 931.769C19.1274 933.895 22.6926 937.716 25.8436 942.356L26.265 942.963ZM4.64892 941.52C2.80128 945.474 2.15297 949.923 3.20021 954.033C5.61849 963.144 12.4358 967.117 20.9428 969.32C22.1847 969.63 23.2956 969.789 24.1988 969.83C24.826 969.846 25.3508 969.801 25.6437 969.55C26.3742 968.915 26.2444 967.698 26.0894 966.398C25.9348 964.742 25.5693 962.961 24.9928 961.054C24.1318 961.184 23.2937 961.043 22.4724 960.626C20.1385 959.528 19.1591 956.742 20.2822 954.491C20.5711 953.882 20.8837 953.353 21.2362 952.641C20.2643 950.925 19.2065 949.229 18.1909 947.703C16.078 944.673 13.7763 941.958 11.6509 940.267C11.2082 939.935 10.5754 939.559 10.0708 939.334C9.13769 941.265 6.79202 942.223 4.64892 941.52ZM204.251 915.546C202.447 911.63 200.097 907.677 197.289 904.377C193.45 899.823 188.585 896.513 182.465 897.718C181.795 897.887 181.104 897.975 180.518 898.126C186.618 901.746 193.446 907.502 199.129 911.228C201.32 912.812 203.027 914.25 204.251 915.546ZM196.936 921.518C196.22 920.809 195.164 919.83 193.986 919.061C187.966 915.062 180.59 908.551 174.45 905.479C171.356 916.088 181.742 920.756 189.931 921.702C192.156 922.027 194.296 922.017 196.014 921.755C196.35 921.67 196.686 921.584 196.936 921.518ZM-38.2822 1011.14C-37.9459 1011.05 -37.6349 1010.88 -37.4026 1010.74C-34.4318 1009.08 -32.439 1005 -32.845 999.573C-33.2296 993.868 -35.9308 986.432 -40.7435 980.879C-45.936 974.882 -53.233 971.123 -62.0548 973.284C-68.5309 974.851 -72.1644 978.098 -73.8461 982.009C-75.4824 985.732 -75.3754 990.347 -73.8211 995.037C-71.1794 1002.93 -64.4434 1011.48 -57.9982 1016.44C-55.1139 1018.65 -52.3159 1020.17 -49.9181 1020.81C-47.4415 1021.43 -45.3216 1021.33 -43.5626 1020.52C-41.556 1019.65 -39.8411 1017.97 -38.9538 1015.15C-38.4776 1014.22 -38.212 1012.82 -38.2822 1011.14ZM112.957 938.769C112.536 938.877 112.222 939.047 111.804 939.154C109.543 940.089 108.422 942.694 109.273 944.978C107.928 948.447 107.085 952.143 106.301 955.022C102.985 966.849 105.424 976.405 110.242 983.03C115.884 990.786 124.712 994.602 132.39 993.891C132.893 994.121 133.377 994.265 133.924 994.304C145.132 995.192 152.329 987.371 155.02 976.238C157.075 967.499 156.223 956.827 152.554 948.389C149.919 942.275 145.803 937.346 140.483 934.688C132.594 930.72 126.515 931.38 118.452 934.777C116.19 935.712 114.394 937.063 112.957 938.769ZM-43.4053 993.878C-44.0417 992.789 -44.7355 991.808 -45.4337 990.825C-48.6864 986.476 -52.5547 984.965 -56.2008 981.879C-49.9868 982.434 -45.6369 988.288 -43.4053 993.878ZM-47.4892 1011.8C-47.4498 1011.6 -47.4269 1011.33 -47.4719 1011.16C-47.4715 1010.81 -47.4755 1010.45 -47.4976 1010.01C-48.635 1009.41 -49.8146 1008.64 -51.0332 1007.7C-53.0364 1006.16 -53.4276 1003.22 -51.887 1001.22C-51.4912 1000.67 -51.052 1000.29 -50.5072 999.978C-51.2067 998.637 -52.0523 997.425 -52.8772 996.295C-55.7067 992.555 -59.1942 991.483 -62.2923 988.789C-62.86 988.312 -64.6262 987.691 -65.214 987.484L-65.2984 987.506C-65.3815 987.525 -65.4659 987.547 -65.4868 987.465L-65.6544 987.506C-65.7316 988.955 -65.4291 990.484 -64.9185 992.14C-63.4932 996.328 -60.5965 1000.68 -57.3447 1004.31C-54.9614 1007.01 -52.3274 1009.28 -49.8247 1010.69C-49.1485 1011.24 -48.163 1011.61 -47.4892 1011.8ZM146.75 966.921C146.807 961.908 145.902 956.604 143.947 952.104C142.207 948.084 139.735 944.698 136.243 942.91C133.276 941.436 130.674 941.029 127.989 941.358C129.484 942.315 130.916 943.38 132.413 944.695C138.948 950.703 144.468 959.738 146.75 966.921ZM277.129 935.235C277.465 935.15 277.779 934.98 278.009 934.833C278.866 934.345 279.744 933.583 280.24 932.387C280.635 931.481 280.921 929.803 280.554 927.664C280.141 925.003 278.947 921.379 278.393 919.913C274.341 910.325 263.751 907.673 255.31 910.273C249.361 912.15 244.79 916.621 243.873 922.479C243.348 926.006 244.143 930.179 247.294 934.819C250.316 939.313 258.464 945.001 264.853 946.941C269.686 948.385 273.728 947.441 275.816 945.123C277.317 943.313 278.476 940.157 277.129 935.235ZM118.348 947.303C118.181 947.702 117.997 948.018 117.831 948.418C116.566 951.507 115.85 954.995 115.085 957.601C113.415 963.295 113.628 968.328 114.951 972.455C117.061 978.97 122.266 983.263 127.41 984.539C130.373 985.3 133.267 985.097 135.44 983.472C137.908 981.59 139.064 978.08 138.64 972.922C138.148 967.154 132.751 957.553 126.175 951.734C123.71 949.416 120.994 947.52 118.348 947.303ZM269.936 923.503C268.812 920.842 266.746 919.406 264.458 918.828C266.396 920.121 268.249 921.788 269.936 923.503ZM268.312 938.113C268.098 937.274 267.84 936.27 267.415 935.306C266.247 932.479 262.219 928.24 258.073 925.638C256.809 924.888 255.59 924.308 254.434 923.979C253.971 923.917 253.488 923.773 253.07 923.879C252.87 925.537 253.507 927.341 254.965 929.555C256.699 932.149 260.849 935.108 264.801 936.953C265.811 937.411 267.262 937.843 268.312 938.113ZM-83.0286 1057.92C-81.5174 1057.53 -80.4124 1056.63 -79.7024 1055.55C-78.5785 1054.02 -78.0472 1051.2 -79.3665 1047.79C-80.9803 1043.56 -85.7323 1037.54 -91.5376 1034.38C-95.9776 1032.04 -100.912 1031.24 -105.748 1033.28C-109.936 1035.06 -112.44 1037.49 -113.791 1040.24C-115.201 1043.1 -115.46 1046.29 -114.688 1049.67C-112.822 1057.32 -104.785 1066.07 -97.5663 1070.56C-93.6313 1073.04 -89.8261 1074.3 -87.2896 1074.1C-85.0022 1073.96 -83.35 1073.09 -82.1417 1071.53C-80.6602 1069.64 -79.6118 1065.71 -82.3488 1059.18C-82.4147 1058.93 -82.7112 1058.46 -83.0286 1057.92ZM84.4063 1039.54C84.5132 1039.6 84.7213 1039.72 84.9125 1039.76C87.2847 1040.67 89.9683 1039.63 90.962 1037.24C97.4256 1021.3 92.918 1004.69 82.177 996.537C74.8688 990.994 64.5554 989.073 52.5381 994.106L52.3721 994.149C51.4492 994.386 50.3812 994.748 49.3566 995.276C47.2428 996.44 45.196 998.214 45.196 998.214C43.5884 999.606 43.2009 1001.94 44.2161 1003.82C42.8005 1005.97 41.7658 1008.55 40.9837 1011.79C36.223 1033 54.1468 1054.94 77.4483 1045.15C80.6116 1043.9 82.8878 1041.98 84.4063 1039.54ZM-89.106 1050.9C-88.9188 1050.59 -88.7102 1050.36 -88.5005 1050.12C-88.6705 1049.81 -88.8404 1049.5 -89.0103 1049.18C-90.4064 1046.86 -92.7238 1044.42 -95.4611 1042.79C-97.0401 1041.86 -98.8063 1041.24 -100.569 1041.33C-100.358 1041.45 -100.147 1041.58 -99.9361 1041.71C-96.9474 1043.62 -92.6054 1047.33 -89.106 1050.9ZM59.2454 1004.98C57.3786 1005.01 55.6381 1005.55 54.1968 1006.54C52.2304 1007.93 50.8794 1010.33 50.1026 1013.92C46.9418 1028.12 58.4108 1043.32 73.9644 1036.76C77.1896 1035.4 77.8266 1032.65 77.2863 1029.48C76.5929 1029.57 75.8797 1029.57 75.1665 1029.58C72.5866 1029.61 70.5404 1027.54 70.506 1024.96C70.5178 1022.91 71.8514 1021.14 73.7579 1020.56C70.8352 1015.41 66.6155 1010.42 62.2775 1007.06C61.1586 1006.19 60.1915 1005.55 59.2454 1004.98ZM-90.5519 1063.41C-90.5744 1063.33 -90.6178 1063.16 -90.6375 1063.08L-90.6809 1062.91C-90.9143 1062.7 -94.3132 1058.48 -97.2437 1055.75C-99.709 1053.43 -103.351 1050.7 -104.805 1049.55L-104.638 1049.87C-103.089 1053.13 -100.197 1056.41 -97.1848 1059.12C-95.2226 1060.86 -92.4037 1062.46 -90.427 1063.56L-90.5519 1063.41ZM215.135 1014.81C216.539 1014.36 217.607 1013.65 218.545 1012.78C220.821 1010.5 221.805 1006.32 220.585 1001.19C218.954 994.107 213.473 984.88 206.796 979.71C202.903 976.69 198.549 975.032 194.355 975.389C190.076 975.767 185.661 978.057 181.851 983.762L181.643 983.991C179.714 984.127 177.849 984.515 176.09 985.321C173.744 986.278 172.668 989.053 173.624 991.396C174.345 993.177 176.134 994.238 177.919 994.23C176.875 999.94 177.266 1006.36 179.055 1011.97C182.402 1022.28 190.265 1030 202.888 1028.03C208.213 1027.2 211.453 1024.86 213.283 1021.89C214.573 1019.95 215.19 1017.48 215.135 1014.81ZM211.659 1003.65C211.551 1003.23 211.467 1002.89 211.359 1002.47C211.038 1001.22 210.528 999.919 209.913 998.555C208.067 994.476 205.003 990.167 201.611 987.374C199.336 985.456 196.853 984.126 194.34 984.768C193.586 984.96 192.874 985.322 192.226 985.932C192.836 986.224 193.445 986.512 194.055 986.804C201.103 990.274 207.808 996.951 211.659 1003.65ZM187.4 993.95C186.185 998.636 186.384 1004.3 187.876 1009.1C189.857 1015.11 194.138 1019.99 201.436 1018.84C203.405 1018.52 204.787 1017.99 205.413 1016.94C206.535 1015.04 205.705 1012.49 204.367 1009.7C201.654 1003.97 195.916 997.934 189.794 994.945C189.082 994.593 188.199 994.282 187.4 993.95ZM269.922 1020.28C269.989 1020.89 270.222 1021.46 270.539 1022C272.232 1024.78 274.5 1025.27 276.156 1025.12C277.896 1024.94 280.49 1023.57 281.858 1019.82C283.68 1014.72 284.353 1002.67 280.883 992.931C278.523 986.482 274.466 981.091 268.283 978.561C264.204 976.924 259.167 976.425 252.882 978.031C247.768 979.336 246.438 981.819 244.615 986.212C240.72 995.778 243.573 1003.8 248.952 1009.83C253.93 1015.35 261.188 1018.94 266.711 1019.94C267.761 1020.21 268.851 1020.29 269.922 1020.28ZM7.76242 1092.86C11.8785 1089.39 14.1148 1083.47 13.9127 1076.73C13.654 1066.98 8.45506 1055.72 -1.07305 1050.56C-7.49144 1047.11 -15.8462 1046.21 -25.9976 1050.5C-32.845 1053.41 -35.3501 1059.67 -37.3324 1066.25C-45.9169 1094.51 -28.9754 1113.67 -13.9871 1115.02C-6.76741 1115.67 0.309435 1112.62 4.92718 1104.83C6.92388 1101.11 7.78391 1097.13 7.76242 1092.86ZM273.865 1003.56C273.537 1000.88 272.917 998.092 271.893 995.496C270.577 992.081 268.63 989.007 265.538 987.388C262.867 986.017 259.508 985.803 255.15 986.915C253.644 987.302 253.647 988.371 253.089 989.674C253.025 989.778 252.986 989.969 252.922 990.073C254.392 990.232 255.76 991.045 256.544 992.364C256.88 992.634 258.92 993.988 260.395 994.863C265.064 997.417 270.892 1000.31 272.979 1002.54C273.359 1002.98 273.611 1003.27 273.865 1003.56ZM4.58983 1079.38C4.64813 1078.56 4.70805 1077.74 4.68197 1076.95C4.56418 1070.19 1.1024 1062.24 -5.5016 1058.74C-7.77366 1057.54 -10.3571 1056.86 -13.3786 1056.92C-12.8514 1057.23 -12.3046 1057.62 -11.7562 1058.02C-6.00683 1062.36 0.725096 1070.55 4.58983 1079.38ZM-26.8561 1063.57C-27.5834 1065.28 -28.097 1067.11 -28.6106 1068.93C-34.1663 1087.05 -26.8581 1100.62 -17.4174 1104.73C-12.2879 1106.99 -6.52382 1105.79 -3.23851 1100.13C-2.57186 1098.89 -2.09527 1097.61 -1.80873 1096.28C-3.40383 1096.33 -5.25205 1096.09 -7.16172 1095.6C-9.64111 1094.98 -11.1638 1092.51 -10.5469 1090.03C-9.93002 1087.55 -7.46135 1086.03 -4.98196 1086.65C-4.12134 1086.87 -3.38568 1086.95 -2.65281 1087.04C-4.65979 1080.23 -9.14097 1073.51 -13.7155 1068.88C-15.5299 1067.02 -17.3402 1065.52 -18.9626 1064.42C-19.4913 1064.1 -20.1 1063.81 -20.6034 1063.58C-21.8973 1064.81 -23.8263 1065.3 -25.6134 1064.6C-25.9509 1064.32 -26.4752 1064.01 -26.8561 1063.57ZM-79.8329 1129.51C-77.4824 1129.62 -75.7869 1128.92 -74.6184 1127.91C-73.4471 1126.9 -72.6596 1125.45 -72.3316 1123.58C-72.0695 1121.45 -72.6745 1118.4 -74.3296 1114.71C-78.0614 1106.74 -87.1806 1095.5 -96.3331 1090.07C-103.911 1085.57 -111.571 1084.94 -117.484 1090.11C-119.675 1092.01 -120.961 1095.02 -121.005 1099.05C-121.077 1105.4 -117.861 1114.85 -113.096 1123.36C-109.014 1130.62 -103.837 1137.25 -98.9325 1140.73C-94.3414 1144.02 -89.8479 1144.83 -86.1413 1143.26C-82.9189 1141.9 -81.042 1139.82 -80.0663 1137.34C-79.2188 1135.07 -79.1673 1132.47 -79.8329 1129.51ZM169.209 1068.86C178.767 1066.77 182.958 1061.51 183.935 1055.9C185.364 1047.86 179.249 1037.54 169.444 1032.02C161.639 1027.67 151.791 1026.17 142.458 1031.23C134.967 1031.27 128.819 1034.8 127.288 1043.14C127.104 1044.17 127.266 1047.25 127.45 1050.42C127.085 1052.83 127.225 1055.47 127.845 1058.26C130.397 1068.95 136.624 1076.2 143.727 1078.85C151.231 1081.66 160.14 1079.83 167.834 1070.82C168.292 1070.16 168.751 1069.51 169.209 1068.86ZM267.48 1010.37C267.099 1009.93 266.741 1009.58 266.342 1009.06C265.729 1008.41 264.465 1007.66 263.013 1006.87C260.405 1005.39 257.334 1003.86 254.831 1002.44C256.203 1004.32 257.931 1005.85 259.784 1007.16C261.952 1008.66 265.168 1009.71 267.48 1010.37ZM-83.5265 1121.35C-83.0873 1120.97 -82.5441 1120.65 -81.9784 1120.42L-81.9981 1120.33C-82.6814 1118.36 -83.9931 1116.02 -85.6226 1113.49C-89.8495 1107.07 -96.5148 1099.84 -103.077 1096.88C-104.591 1096.19 -106.062 1095.68 -107.404 1095.66C-105.217 1097.24 -102.497 1099.5 -99.5665 1102.23C-93.8955 1107.66 -87.5256 1114.78 -83.5265 1121.35ZM-111.033 1104.53C-109.899 1108.98 -107.712 1114.04 -105.063 1118.81C-101.656 1124.82 -97.5799 1130.29 -93.5385 1133.19C-92.7582 1133.79 -91.9386 1134.21 -91.1371 1134.54C-90.6336 1134.77 -90.1499 1134.91 -89.6685 1134.7C-89.2704 1134.51 -88.9566 1134.34 -88.7496 1134.11C-88.3735 1133.47 -88.5683 1132.72 -88.8009 1131.8C-89.3364 1129.7 -90.5665 1127.34 -92.1511 1124.98C-96.8669 1117.7 -104.774 1109.81 -110.125 1105.28C-110.464 1105.01 -110.715 1104.72 -111.033 1104.53ZM137.286 1057.81C139.441 1065.21 143.937 1070.22 149.414 1070.7C153.171 1071.08 157.125 1069.09 160.754 1064.77C162.82 1062.36 163.556 1058.61 164.78 1055.71C165.256 1054.42 164.641 1053.06 163.67 1051.7C161.32 1048.11 156.732 1044.82 151.916 1042.74C149.603 1041.72 147.271 1040.98 144.962 1040.68C143.288 1041.82 141.681 1043.21 140.181 1045.02C138.322 1047.19 137.073 1049.3 136.604 1051.65C136.954 1054.42 137.302 1057.19 137.286 1057.81ZM174.139 1055.99C174.265 1055.78 174.39 1055.57 174.512 1055.36C175.465 1053.15 174.742 1050.66 173.385 1048.15C171.881 1045.41 169.436 1042.82 166.361 1040.93C168.427 1042.72 170.178 1044.68 171.468 1046.59C173.519 1049.72 174.439 1052.97 174.139 1055.99ZM92.7521 1142.49L93.3387 1142.33C101.487 1139.63 108.213 1134.16 111.033 1127.01C111.901 1124.83 112.374 1122.48 112.467 1120.04C114.351 1119.38 115.689 1118.33 116.436 1117.06C117.998 1114.79 118.316 1111.14 116.366 1106.99C113.543 1100.84 105.632 1092.59 96.0254 1088.53C88.3101 1085.23 79.5347 1084.44 71.5634 1088.88C63.6846 1090.54 56.9126 1095.84 54.5902 1105.27C51.1345 1119.01 53.7846 1128.69 59.0412 1134.93L59.1678 1135.08C62.6256 1142.68 68.319 1148.19 74.6604 1149.61C80.0174 1150.65 86.4923 1149.08 92.7521 1142.49ZM87.7165 1134.31C88.7178 1132.98 89.7601 1131.47 90.8193 1129.67C96.3532 1120.23 96.7341 1112.63 93.8737 1107.02C93.5141 1106.31 93.1759 1105.69 92.75 1105.08C88.4232 1103.5 83.4282 1103.53 79.3881 1105.19C77.0424 1106.14 74.3525 1105.05 73.3136 1102.72C72.6749 1101.28 72.8999 1099.7 73.6465 1098.44C72.8329 1099.09 71.9545 1099.85 71.1814 1100.67C63.6065 1108.77 63.458 1120.77 66.9021 1129.71L66.923 1129.8C72.0696 1134.91 80.299 1136.02 87.7165 1134.31ZM261.135 1096C261.471 1095.92 261.723 1095.85 261.952 1095.71C263.566 1095.03 264.815 1093.63 265.352 1091.54C265.865 1089.71 265.599 1086.56 264.301 1082.87C261.938 1076.43 256.377 1067.58 249.786 1062.75C244.416 1058.85 238.43 1057.43 232.587 1060.08C229.24 1061.65 225.899 1064.65 222.839 1069.8C217.015 1079.86 219.726 1088.72 225.949 1095.26C231.58 1101.23 240.39 1104.96 247.274 1105.35C253.444 1105.73 258.13 1103.47 260.126 1099.39C260.709 1098.52 261.038 1097.37 261.135 1096ZM250.317 1076.36C248.839 1074.41 247.213 1072.6 245.506 1071.16C243.104 1069.09 240.495 1067.62 237.768 1068.13C236.157 1068.46 234.546 1069.49 233.128 1071.28C235.709 1071.25 238.29 1071.57 240.979 1072.31C243.691 1073.14 247.16 1074.48 250.317 1076.36ZM229.066 1081.25C229.269 1084.14 230.669 1086.82 232.735 1088.97C236.743 1093.13 242.799 1095.86 247.625 1096.24C248.715 1096.32 249.683 1096.25 250.541 1096.12C251.128 1095.97 251.652 1095.92 251.9 1095.5C252.237 1095.06 252.063 1094.39 251.935 1093.53C251.567 1091.75 250.571 1089.6 248.941 1087.06C248.329 1086.06 247.13 1085.2 245.952 1084.44C243.51 1082.92 240.568 1081.88 238.361 1081.28C235.166 1080.32 232.018 1080.23 229.066 1081.25ZM-18.2492 1181.19C-17.4946 1180.64 -16.83 1179.75 -16.5008 1178.24C-16.1098 1176.62 -15.7836 1170.56 -19.6265 1165.65C-22.0137 1162.6 -26.0146 1159.87 -32.814 1159.46C-36.5498 1159.17 -39.5239 1159.75 -41.9516 1161.08C-44.0654 1162.25 -45.8394 1164.04 -47.233 1166.63C-48.1744 1167.14 -49.029 1167.98 -49.4646 1169.07C-50.0256 1170.38 -49.9341 1171.78 -49.2768 1172.95C-50.2514 1179.27 -47.7064 1185.05 -43.6129 1189.54C-38.9094 1194.68 -32.0732 1198.02 -26.8889 1198.75C-21.5343 1199.44 -17.577 1197.44 -15.9801 1193.91C-14.902 1191.49 -14.8391 1187.19 -18.2492 1181.19ZM-26.2005 1172.77C-26.4994 1171.96 -27.0458 1171.2 -27.7416 1170.58C-28.9855 1169.56 -30.8333 1168.96 -33.3947 1168.72C-34.4032 1168.62 -35.3892 1168.6 -36.1433 1168.8C-34.7146 1169.14 -33.2646 1169.58 -31.8977 1170.03C-29.925 1170.78 -28.0097 1171.63 -26.2005 1172.77ZM-24.6682 1189.61C-24.7115 1189.45 -24.7521 1189.28 -24.7971 1189.11C-25.1996 1187.87 -25.8159 1186.51 -26.9581 1184.84C-29.6438 1180.62 -33.3844 1179.25 -37.1447 1178.16C-38.1954 1177.89 -39.1628 1177.6 -40.2119 1177.33C-39.9122 1178.86 -39.2735 1180.31 -38.3028 1181.67C-36.0634 1184.84 -32.5672 1187.35 -29.2866 1188.65C-27.7932 1189.25 -25.6766 1189.51 -24.6682 1189.61ZM-18.0965 1174.1C-18.7699 1173.55 -19.401 1173.18 -20.1548 1173.02C-20.827 1172.83 -21.6036 1172.94 -22.2763 1173.11C-20.8495 1172.75 -19.3376 1173.08 -18.0965 1174.1ZM194.319 1155.29C196.27 1155.24 198.573 1154.12 199.688 1150.8C200.535 1148.17 200.802 1142.93 199.139 1137.81C197.436 1132.54 193.866 1127.64 187.729 1125.64C175.96 1121.86 168.798 1124.22 164.771 1128.74C162.059 1131.75 160.632 1135.95 160.447 1140.82C155.333 1145.61 152.151 1151.69 152.264 1157.37C152.443 1163.67 156.252 1170.2 166.535 1174.44C168.719 1175.31 171.253 1174.4 172.332 1172.34C172.588 1172.63 172.947 1172.99 173.198 1173.28C177.521 1177.62 181.511 1178.21 184.652 1177.23C186.644 1176.63 188.525 1175.26 190.025 1173.09C191.692 1170.88 192.912 1167.62 193.587 1163.96C194.223 1161.21 194.356 1158.23 194.319 1155.29ZM67.8876 1208.03C68.3014 1207.56 68.6157 1207.04 68.8849 1206.34C71.2461 1200.56 70.5007 1194.15 67.4928 1188.31C63.4882 1180.31 55.5412 1173.33 47.6989 1170.24C41.6469 1167.86 35.6052 1167.97 31.0677 1170.83C27.9079 1172.79 25.366 1176.12 24.0896 1181.27C20.7385 1194.71 24.4471 1206.44 31.8891 1213.56C39.4813 1220.9 51.0767 1223.66 63.7189 1218.29C66.6303 1217.1 68.1094 1214.85 68.2823 1211.68C68.3607 1210.59 68.2282 1209.37 67.8876 1208.03ZM189.874 1139.29C188.982 1137.2 187.422 1135.27 184.877 1134.41L184.688 1134.37C186.772 1135.53 188.46 1137.24 189.874 1139.29ZM169.74 1145.06C169.785 1145.58 169.914 1146.08 169.958 1146.61C171.213 1153.96 175.072 1162.09 179.753 1166.78C180.239 1167.28 180.702 1167.7 181.228 1168.01C181.545 1168.2 181.693 1168.43 181.943 1168.36C182.447 1168.24 182.653 1167.65 182.967 1167.12C183.693 1165.78 184.25 1164.12 184.661 1162.23C185.663 1157.06 185.316 1150.45 183.09 1145.93C182.304 1144.26 181.25 1142.92 179.736 1142.24C178.242 1141.63 176.418 1141.83 174.241 1142.75C172.607 1143.34 171.1 1144.08 169.74 1145.06ZM33.2881 1182.67C33.2471 1182.86 33.1426 1183.15 33.1242 1183.42C30.6752 1193.07 33.046 1201.66 38.4036 1206.9C43.355 1211.61 50.7498 1213.3 58.9195 1210.32C58.5757 1209.33 57.9807 1207.7 57.3037 1206.44C53.0918 1199.04 44.1063 1189.37 37.9142 1184.7C36.8162 1183.91 35.4497 1183.1 34.8394 1182.81C34.2331 1182.87 33.7719 1182.81 33.2881 1182.67ZM60.1165 1194.39C59.8626 1193.74 59.5846 1193 59.2463 1192.38C56.5333 1187 51.3682 1182.16 46.0687 1179.58C50.6425 1183.5 55.8719 1188.95 60.1165 1194.39ZM166.69 1164.23C164.851 1160.86 163.3 1157.24 162.168 1153.51C161.67 1154.71 161.426 1155.84 161.474 1157.08C161.55 1159.82 163.221 1162.17 166.69 1164.23ZM132.431 1197.53C133.518 1196.89 135.062 1195.25 135.11 1192.29C135.184 1190.13 134.45 1186.21 132.502 1182.42C130.529 1178.55 127.344 1174.81 122.781 1173.03C118.915 1171.52 114.108 1171.22 108.058 1173.75C102.742 1176 99.9847 1179.21 98.7032 1182.57C97.4426 1186.02 97.712 1189.88 99.3487 1193.83C102.064 1199.92 108.242 1206.29 114.387 1210.08C118.115 1212.43 121.94 1213.78 124.836 1213.93C128.004 1214.1 130.602 1213.08 132.249 1211.14C133.771 1209.41 134.826 1206.56 134.176 1202.26C134.064 1201.13 133.469 1199.49 132.431 1197.53ZM123.282 1184.77C122.986 1184.31 122.607 1183.88 122.141 1183.46C121.763 1183.02 121.321 1182.69 120.795 1182.37C121.595 1183.06 122.439 1183.92 123.282 1184.77ZM125.144 1204.65C125.165 1204.38 125.141 1203.94 125.077 1203.69C124.947 1202.83 124.165 1201.51 123.189 1199.8C121.305 1196.62 118.372 1192.81 115.378 1189.83C114.174 1188.62 113.017 1187.57 111.857 1186.89C111.333 1186.58 110.616 1186.22 110.323 1186.12C109.319 1186.38 108.331 1186.36 107.427 1185.97C107.057 1187.31 107.419 1188.74 108.035 1190.09C109.925 1194.7 114.754 1199.27 119.32 1202.12C121.024 1203.21 122.749 1204.02 124.284 1204.43C124.515 1204.64 124.871 1204.64 125.144 1204.65ZM132.645 1189.97L132.771 1190.12C132.749 1190.03 132.728 1189.95 132.645 1189.97Z" fill="#F8EA2B"/>
</g>
</g>
</g>
</g>
</svg>
