<svg width="328" height="1036" viewBox="0 0 328 1036" fill="none" xmlns="http://www.w3.org/2000/svg">
<g opacity="0.65">
<mask id="mask0_241_2145" style="mask-type:luminance" maskUnits="userSpaceOnUse" x="-455" y="59" width="563" height="599">
<path d="M-454.366 163.89L-9.02909 59.0209L107.323 553.121L-338.014 657.99L-454.366 163.89Z" fill="white"/>
</mask>
<g mask="url(#mask0_241_2145)">
<mask id="mask1_241_2145" style="mask-type:luminance" maskUnits="userSpaceOnUse" x="-437" y="106" width="529" height="504">
<path d="M-436.409 159.388L9.52629 106.576L91.7664 556.378L-354.169 609.192L-436.409 159.388Z" fill="white"/>
</mask>
<g mask="url(#mask1_241_2145)">
<mask id="mask2_241_2145" style="mask-type:luminance" maskUnits="userSpaceOnUse" x="-455" y="59" width="563" height="599">
<path d="M-9.02945 59.0207L-454.367 163.89L-338.014 657.99L107.323 553.121L-9.02945 59.0207Z" fill="white"/>
</mask>
<g mask="url(#mask2_241_2145)">
<mask id="mask3_241_2145" style="mask-type:luminance" maskUnits="userSpaceOnUse" x="-437" y="74" width="527" height="554">
<path d="M-436.938 173.382L-17.3282 74.5705L89.599 528.646L-330.01 627.457L-436.938 173.382Z" fill="white"/>
</mask>
<g mask="url(#mask3_241_2145)">
<mask id="mask4_241_2145" style="mask-type:luminance" maskUnits="userSpaceOnUse" x="-437" y="106" width="529" height="504">
<path d="M-436.409 159.388L9.52691 106.576L91.767 556.378L-354.168 609.192L-436.409 159.388Z" fill="white"/>
</mask>
<g mask="url(#mask4_241_2145)">
<mask id="mask5_241_2145" style="mask-type:luminance" maskUnits="userSpaceOnUse" x="-437" y="106" width="529" height="504">
<path d="M9.41808 106.589L-436.518 159.403L-354.278 609.204L91.6582 556.39L9.41808 106.589Z" fill="white"/>
</mask>
<g mask="url(#mask5_241_2145)">
<path d="M-296.376 144.271C-307.042 145.534 -317.774 146.438 -328.374 148.062C-352.417 152.009 -373.457 166.963 -388.539 191.477C-391.453 195.855 -393.818 200.533 -396.666 205.27C-406.406 221.086 -409.715 240.907 -408.491 263.855C-405.641 321.437 -390.034 379.708 -363.729 430.112C-355.622 446.015 -346.544 461.802 -337.597 476.872C-325.419 497.424 -311.034 515.149 -294.882 528.998C-284.252 538.371 -273.446 547.354 -262.641 556.339C-243.362 572.384 -223.548 583.235 -202.55 582.947C-186.709 582.904 -170.978 583.608 -155.07 583.923C-137.774 583.708 -121.154 578.44 -106.422 568.264C-89.0887 557.413 -72.1949 545.515 -54.8628 534.665C-36.691 522.982 -21.7717 504.352 -11.6028 480.054C-4.30795 463.06 2.0621 445.077 8.80628 427.782C14.7316 412.785 19.7979 397.154 26.7139 383.505C43.2865 348.183 41.1037 286.126 13.8703 238.762C11.2548 233.94 8.52853 229.865 5.31774 225.845C-13.622 203.528 -35.6789 188.545 -58.342 182.431C-59.1348 182.159 -59.9279 181.885 -60.6548 181.972C-73.5014 183.493 -86.4492 177.694 -99.4884 174.107C-120.631 168.179 -141.708 162.612 -162.544 157.014C-176.376 153.153 -190.162 148.188 -203.973 145.792C-221.682 142.39 -239.549 140.839 -257.173 139.261C-264.576 139.406 -271.671 139.88 -278.812 141.459L-296.266 143.524L-296.134 144.242L-296.376 144.271Z" fill="#F8EA2B"/>
</g>
</g>
</g>
</g>
</g>
</g>
<mask id="mask6_241_2145" style="mask-type:luminance" maskUnits="userSpaceOnUse" x="-359" y="-25" width="472" height="372">
<path d="M-306.383 346.472L-358.173 48.1316L61.0448 -24.6427L112.835 273.698L-306.383 346.472Z" fill="white"/>
</mask>
<g mask="url(#mask6_241_2145)">
<mask id="mask7_241_2145" style="mask-type:luminance" maskUnits="userSpaceOnUse" x="-385" y="-146" width="488" height="583">
<path d="M-384.372 218.607L-154.634 -145.214L102.535 72.4176L-127.205 436.239L-384.372 218.607Z" fill="white"/>
</mask>
<g mask="url(#mask7_241_2145)">
<mask id="mask8_241_2145" style="mask-type:luminance" maskUnits="userSpaceOnUse" x="-385" y="-146" width="488" height="583">
<path d="M-384.372 218.607L-154.634 -145.214L102.535 72.4176L-127.205 436.239L-384.372 218.607Z" fill="white"/>
</mask>
<g mask="url(#mask8_241_2145)">
<path d="M-269.868 41.2691C-264.341 36.6425 -259.174 32.5822 -253.873 30.8087C-237.808 25.3641 -218.207 31.693 -203.492 38.7562C-196.107 42.3091 -189.177 46.9562 -181.881 50.5225C-174.291 54.2502 -166.463 57.2244 -158.793 60.3243C-147.392 65.0156 -135.548 69.128 -123.692 69.5982C-120.268 69.799 -116.716 70.547 -113.215 70.3774C-104.56 69.7917 -96.0033 67.9898 -87.8101 65.0137C-82.6305 63.3098 -77.7591 60.2175 -72.4633 57.8294C-70.2533 56.83 -68.4321 55.0702 -66.2932 54.1835C-62.9613 52.6555 -60.0542 49.551 -56.8971 48.0514L-55.238 46.6729C-51.9929 45.1581 -49.0502 41.9972 -45.6825 40.4148L-28.5581 30.0402C-25.9798 28.8321 -23.8701 26.6169 -21.4156 25.4786C-18.9595 24.34 -17.3631 22.5613 -15.0664 21.5488C-7.33611 18.1784 -0.512715 14.9981 6.74706 14.6218C9.44692 14.4716 12.3161 14.5526 15.0456 14.6018C15.8977 14.6276 16.8637 15.0968 17.767 15.1658C20.1484 15.2697 22.5766 15.6723 24.9142 16.3454C36.0105 20.5202 47.2975 25.6384 57.8259 34.4609C59.2662 35.6797 60.1456 37.0325 61.6529 38.396C66.5814 43.0875 73.1092 52.8728 75.1642 59.7404C76.8319 65.8471 77.5568 72.1987 77.3413 78.5378C77.1988 80.7628 76.9683 83.0031 76.5486 85.1682C75.9216 91.158 74.7928 97.0709 73.2825 102.836C72.3726 106.151 71.648 109.8 70.5119 113.098C64.8016 130.262 55.5198 146.837 45.4964 162.96C40.9175 170.213 35.4278 176.783 30.5541 183.874C25.8239 190.739 19.7932 196.416 14.7873 203.22C13.1302 205.47 10.9945 207.227 9.40813 209.363L-11.9301 231.907C-13.8888 234.509 -16.4907 236.132 -18.3743 238.364L-26.6685 246.125C-28.306 248.218 -31.1188 249.922 -32.7918 252.071L-35.3682 254.151C-37.004 256.243 -39.8952 257.448 -41.7117 259.825C-44.1665 262.962 -48.563 265.677 -51.7749 268.263C-53.9146 270.277 -56.1369 272.047 -58.5814 273.542C-60.0376 274.224 -61.443 276.077 -62.689 276.674C-64.9698 277.788 -66.7494 280.106 -68.7333 281.122C-70.7169 282.14 -73.1281 284.707 -75.3365 285.706L-78.9324 288.401C-81.9314 289.776 -84.8149 292.466 -87.7769 293.785L-91.1226 296.083L-102.593 302.375L-116.167 308.622C-126.473 312.073 -136.146 316.146 -146.189 318.427C-161.366 321.842 -176.473 322.272 -191.666 325.585C-203.315 328.161 -214.399 330.342 -225.629 329.881C-232.804 329.372 -239.907 327.623 -246.745 324.705C-249.268 323.701 -252.057 322.992 -254.558 321.83C-263.288 317.66 -271.655 312.666 -279.697 306.903C-281.861 305.333 -283.447 303.47 -285.642 301.699C-290.426 297.65 -295.063 292.248 -299.905 287.541C-301.751 285.717 -302.722 283.506 -304.586 281.581C-306.752 279.139 -308.704 276.357 -310.446 273.492L-312.223 270.684C-314.005 266.131 -317.259 262.162 -318.835 257.784C-321.449 251.051 -323.606 244.097 -325.258 236.962C-326.831 229.457 -326.733 221.803 -326.972 214.558C-327.406 201.497 -326.425 187.199 -322.977 174.989C-321.049 168.186 -318.464 161.594 -316.156 154.94C-315.133 152.068 -313.542 149.675 -312.534 146.703C-311.126 142.851 -309.478 139.116 -307.677 135.512C-306.687 133.569 -304.962 131.463 -304.161 129.444L-303.654 123.266C-303.185 119.402 -302.529 115.611 -301.645 111.839C-301.401 110.828 -301.518 109.512 -301.274 108.501C-299.277 100.714 -297.45 92.6976 -294.933 85.0886C-293.539 80.8784 -291.85 76.8311 -290.403 72.6638C-289.714 71.0734 -288.974 69.5263 -288.096 68.0093C-285.19 62.0351 -281.926 56.3653 -278.213 50.9863L-272.33 43.7926C-271.582 42.8599 -270.198 42.2934 -269.868 41.2691Z" fill="#9AE85D"/>
</g>
</g>
</g>
<mask id="mask9_241_2145" style="mask-type:luminance" maskUnits="userSpaceOnUse" x="-446" y="233" width="730" height="749">
<path d="M-91.5479 981.56L-445.538 523.12L-70.6045 233.611L283.385 692.051L-91.5479 981.56Z" fill="white"/>
</mask>
<g mask="url(#mask9_241_2145)">
<mask id="mask10_241_2145" style="mask-type:luminance" maskUnits="userSpaceOnUse" x="-500" y="97" width="774" height="822">
<path d="M-499.447 279.614L127.694 97.4915L273.352 736.768L-353.789 918.89L-499.447 279.614Z" fill="white"/>
</mask>
<g mask="url(#mask10_241_2145)">
<mask id="mask11_241_2145" style="mask-type:luminance" maskUnits="userSpaceOnUse" x="-500" y="97" width="774" height="822">
<path d="M-499.447 279.614L127.694 97.4917L273.351 736.768L-353.789 918.89L-499.447 279.614Z" fill="white"/>
</mask>
<g mask="url(#mask11_241_2145)">
<path d="M-347.449 497.688C-190.269 375.931 -367.925 337.665 -256.675 257.358C-145.425 177.052 -30.5179 261.531 -19.2072 411.08C-11.8333 509.111 245.401 613.759 82.2194 726.577C-80.962 839.395 -129.348 692.142 -252.314 705.878C-398.625 722.098 -428.657 560.553 -347.449 497.688Z" fill="#004AAD"/>
</g>
</g>
</g>
<mask id="mask12_241_2145" style="mask-type:luminance" maskUnits="userSpaceOnUse" x="-404" y="336" width="592" height="592">
<path d="M-124.721 336.784L187.932 638.238L-90.8851 927.413L-403.538 625.959L-124.721 336.784Z" fill="white"/>
</mask>
<g mask="url(#mask12_241_2145)">
<mask id="mask13_241_2145" style="mask-type:luminance" maskUnits="userSpaceOnUse" x="-311" y="378" width="478" height="493">
<path d="M166.568 760.831L-193.297 870.779L-310.033 488.69L49.8305 378.743L166.568 760.831Z" fill="white"/>
</mask>
<g mask="url(#mask13_241_2145)">
<mask id="mask14_241_2145" style="mask-type:luminance" maskUnits="userSpaceOnUse" x="-404" y="336" width="592" height="592">
<path d="M187.931 638.238L-124.722 336.784L-403.539 625.959L-90.8859 927.413L187.931 638.238Z" fill="white"/>
</mask>
<g mask="url(#mask14_241_2145)">
<mask id="mask15_241_2145" style="mask-type:luminance" maskUnits="userSpaceOnUse" x="-314" y="424" width="451" height="448">
<path d="M-121.014 424.173L136.074 672.052L-56.1554 871.422L-313.243 623.543L-121.014 424.173Z" fill="white"/>
</mask>
<g mask="url(#mask15_241_2145)">
<mask id="mask16_241_2145" style="mask-type:luminance" maskUnits="userSpaceOnUse" x="-311" y="378" width="478" height="493">
<path d="M166.567 760.831L-193.297 870.779L-310.034 488.69L49.8297 378.743L166.567 760.831Z" fill="white"/>
</mask>
<g mask="url(#mask16_241_2145)">
<mask id="mask17_241_2145" style="mask-type:luminance" maskUnits="userSpaceOnUse" x="-311" y="378" width="478" height="493">
<path d="M-310.044 488.677L49.8197 378.73L166.557 760.818L-193.307 870.764L-310.044 488.677Z" fill="white"/>
</mask>
<g mask="url(#mask17_241_2145)">
<path d="M-210.073 618.861C-123.592 545.786 -229.899 523.185 -168.403 474.976C-106.908 426.765 -35.2437 477.107 -21.3159 566.533C-12.2093 625.152 144.111 687.327 53.668 755.065C-36.7747 822.804 -72.3874 734.812 -144.01 743.225C-229.238 753.162 -254.754 656.591 -210.073 618.861Z" fill="#9AE85D"/>
</g>
</g>
</g>
</g>
</g>
</g>
<mask id="mask18_241_2145" style="mask-type:luminance" maskUnits="userSpaceOnUse" x="-44" y="177" width="117" height="141">
<path d="M45.1013 177.431L72.7994 297.288L-16.1413 317.842L-43.8394 197.984L45.1013 177.431Z" fill="white"/>
</mask>
<g mask="url(#mask18_241_2145)">
<mask id="mask19_241_2145" style="mask-type:luminance" maskUnits="userSpaceOnUse" x="-43" y="187" width="109" height="126">
<path d="M65.2814 192.485L59.6985 312.554L-42.2828 307.813L-36.7002 187.743L65.2814 192.485Z" fill="white"/>
</mask>
<g mask="url(#mask19_241_2145)">
<mask id="mask20_241_2145" style="mask-type:luminance" maskUnits="userSpaceOnUse" x="-43" y="187" width="109" height="126">
<path d="M65.2814 192.485L59.6985 312.554L-42.2828 307.813L-36.7002 187.743L65.2814 192.485Z" fill="white"/>
</mask>
<g mask="url(#mask20_241_2145)">
<path fill-rule="evenodd" clip-rule="evenodd" d="M-30.3214 218.36C-30.1604 217.984 -30.2164 217.646 -30.2781 217.427C-30.3818 217.086 -30.8061 216.394 -31.8207 216.564C-32.474 216.677 -34.8962 217.716 -36.4732 219.129C-37.6738 220.201 -38.3348 221.513 -38.1022 222.699C-37.948 223.522 -37.3652 224.388 -36.0073 225.099C-35.0471 225.599 -33.9484 225.699 -32.9273 225.41C-28.9925 224.346 -28.5358 220.698 -29.6809 219.037C-29.8843 218.764 -30.0903 218.538 -30.3214 218.36ZM-33.893 222.966C-33.7968 222.948 -33.6999 222.928 -33.6264 222.907C-32.363 222.558 -31.726 221.748 -31.691 220.982C-31.678 220.719 -31.6902 220.455 -31.8786 220.374C-31.9718 220.322 -32.1172 220.363 -32.2634 220.404C-32.5308 220.488 -32.8028 220.667 -33.1027 220.917C-33.5508 221.279 -33.5757 221.806 -33.6929 222.256C-33.7525 222.517 -33.8119 222.755 -33.893 222.966ZM-22.1362 196.556C-21.9864 195.915 -21.9643 195.437 -22.0195 195.074C-22.1298 194.349 -22.4952 193.949 -22.9381 193.688C-23.3361 193.477 -23.883 193.381 -24.5399 193.566C-25.2685 193.772 -26.2821 194.42 -27.3329 195.354C-29.0337 196.858 -30.8179 199.126 -31.4759 200.894C-31.9692 202.214 -31.8773 203.346 -31.3141 204.116C-30.7714 204.836 -29.7191 205.413 -27.768 205.215C-26.4904 205.083 -24.3735 204.438 -22.6518 203.511C-21.372 202.803 -20.324 201.94 -19.851 201.051C-18.8269 199.132 -19.1294 197.918 -19.6525 197.294C-20.1065 196.746 -21.004 196.441 -22.1362 196.556ZM-20.8273 237.005L-20.8253 236.958C-20.8507 236.477 -21.0914 235.986 -21.701 235.669C-22.2639 235.404 -23.5798 235.342 -24.013 235.37C-28.5677 235.83 -33.6502 239.407 -32.0057 244.784C-31.8192 245.416 -31.4359 245.937 -30.9521 246.367C-30.9855 246.558 -30.9713 246.775 -30.9573 246.991C-30.8936 247.69 -30.2458 248.199 -29.5478 248.136C-29.1369 248.083 -28.7662 247.836 -28.5828 247.509C-28.2275 247.598 -27.8465 247.663 -27.5119 247.679C-26.2222 247.81 -24.7351 247.281 -23.3705 246.313C-21.5111 245.008 -19.8581 242.974 -19.2486 241.227C-18.7786 239.883 -18.8919 238.702 -19.5259 237.905C-19.7963 237.533 -20.2381 237.225 -20.8273 237.005ZM-27.0314 238.9C-27.8923 239.363 -28.6394 239.952 -29.1292 240.696C-29.6199 241.441 -29.8768 242.316 -29.7086 243.355C-29.1398 241.943 -28.2434 240.209 -27.0314 238.9ZM-21.751 199.092C-21.8228 199.088 -21.9197 199.108 -21.9924 199.129C-22.4275 199.204 -22.9138 199.35 -23.404 199.566C-24.725 200.129 -26.1587 201.046 -27.0427 202.011C-27.2446 202.218 -27.3983 202.427 -27.5277 202.637C-26.4879 202.445 -25.026 201.962 -23.8197 201.298C-23.0333 200.879 -22.3403 200.431 -22.076 199.892C-21.9417 199.587 -21.8321 199.304 -21.751 199.092ZM-24.7393 197.346C-24.8252 197.126 -24.8618 196.884 -24.8255 196.622C-25.4711 197.096 -26.1984 197.782 -26.8802 198.518C-26.1881 198.07 -25.4502 197.673 -24.7393 197.346ZM-27.6772 245.057C-27.5346 245.087 -27.3912 245.094 -27.2728 245.124C-26.5086 245.183 -25.6506 244.791 -24.8316 244.206C-23.4186 243.216 -22.1249 241.694 -21.6559 240.372C-21.5739 240.161 -21.5154 239.947 -21.5072 239.755C-21.5024 239.66 -21.4726 239.542 -21.5425 239.491C-21.6098 239.391 -21.7766 239.359 -21.9433 239.352C-22.2296 239.314 -22.5649 239.299 -22.975 239.351C-23.7939 239.434 -24.4647 239.93 -25.0702 240.573C-26.1803 241.745 -27.0014 243.41 -27.4658 244.635C-27.5441 244.775 -27.5989 244.917 -27.6772 245.057ZM-14.5369 257.492C-15.0869 256.938 -15.6825 256.336 -16.3583 255.92C-17.1498 255.404 -18.0222 255.075 -18.9587 255.103C-19.8941 255.109 -20.893 255.445 -21.966 256.331C-24.5109 258.443 -24.4769 261.323 -23.0752 263.691C-21.764 265.91 -19.206 267.636 -16.6444 267.731C-12.9812 267.877 -10.6366 265.948 -8.86934 263.008C-7.93458 261.468 -7.92667 260.27 -8.29437 259.413C-8.68431 258.507 -9.58838 257.842 -10.8709 257.566C-11.8671 257.328 -13.1615 257.316 -14.5369 257.492ZM-8.30538 208.591C-7.63272 208.55 -7.10085 207.952 -7.14045 207.254C-7.17984 206.557 -7.77736 206.002 -8.47528 206.041C-10.8067 206.149 -13.9954 206.648 -16.2916 208.052C-18.044 209.122 -19.292 210.694 -19.4903 212.892C-19.6229 214.205 -19.4733 215.099 -19.1004 215.859C-18.7273 216.596 -18.0849 217.226 -17.0391 217.946C-14.4113 219.723 -12.0325 219.115 -10.1873 217.593C-8.5413 216.231 -7.40732 214.029 -7.0382 212.272C-6.85513 211.44 -6.86842 210.697 -7.01031 210.139C-7.17462 209.531 -7.48889 209.085 -7.90758 208.801C-8.02407 208.724 -8.16473 208.646 -8.30538 208.591ZM-17.5892 258.142C-18.0068 257.834 -18.4523 257.622 -18.9573 257.647C-19.3888 257.65 -19.8313 257.87 -20.3297 258.278C-20.9519 258.777 -21.2676 259.361 -21.3922 259.979C-20.5686 259.298 -19.2681 258.663 -17.784 258.204L-17.5892 258.142ZM-19.7205 263.751C-18.8227 264.56 -17.6969 265.092 -16.5235 265.147C-13.9144 265.243 -12.3104 263.759 -11.0384 261.684C-10.856 261.38 -10.7238 261.099 -10.64 260.863C-10.585 260.698 -10.5544 260.556 -10.5973 260.458C-10.7064 260.213 -11.0393 260.149 -11.3961 260.084C-11.8472 259.991 -12.3485 259.944 -12.9002 259.943C-12.9354 260.181 -13.0407 260.392 -13.2176 260.575C-13.6973 261.105 -14.5145 261.139 -15.0199 260.659C-15.1577 260.533 -15.2725 260.408 -15.4328 260.257C-15.9658 260.375 -16.5007 260.518 -16.987 260.664C-17.9606 260.978 -18.8661 261.368 -19.4857 261.794C-19.6096 261.885 -19.7604 262.022 -19.861 262.137C-19.4248 262.541 -19.361 263.24 -19.7205 263.751ZM-10.4487 208.779C-11.6321 208.94 -12.8694 209.242 -13.9705 209.719C-15.4874 210.367 -16.7578 211.388 -16.9341 213.107C-16.9434 213.298 -16.976 213.488 -16.9833 213.656C-15.5311 212.333 -13.4538 210.99 -12.0071 209.786C-11.4101 209.334 -10.8912 208.998 -10.4487 208.779ZM-9.45882 211.2C-9.70478 211.332 -10.0493 211.532 -10.3484 211.782C-11.8947 213.053 -14.2162 214.48 -15.5268 215.858C-12.9671 217.536 -10.8901 215.162 -9.97703 213.07C-9.71074 212.507 -9.54046 211.939 -9.47073 211.463C-9.46617 211.367 -9.46163 211.271 -9.45882 211.2ZM-4.7543 280.755C-4.74974 280.659 -4.76916 280.563 -4.78985 280.49C-4.98692 279.569 -5.90606 278.711 -7.37755 278.379C-8.92001 278.02 -11.108 278.133 -12.9684 278.959C-14.977 279.849 -16.5633 281.477 -16.7047 283.989C-16.8137 285.831 -16.2475 287.056 -15.3478 287.818C-14.494 288.553 -13.2629 288.898 -11.8949 288.866C-9.58952 288.805 -6.78051 287.713 -4.94443 286.407C-4.12651 285.822 -3.49777 285.203 -3.13482 284.62C-2.77059 284.014 -2.62468 283.445 -2.6958 282.913C-2.76391 282.312 -3.07189 281.721 -3.74579 281.258C-3.95266 281.057 -4.30408 280.873 -4.7543 280.755ZM-11.685 234.84C-11.6904 234.96 -11.6708 235.057 -11.6764 235.176C-11.6118 235.851 -11.0123 236.358 -10.3386 236.318C-9.52854 236.955 -8.61778 237.477 -7.91864 237.918C-5.05433 239.753 -2.32573 239.88 -0.181009 239.14C2.32984 238.273 4.05488 236.244 4.48793 234.153C4.58956 234.038 4.6668 233.921 4.72163 233.78C5.86367 230.883 4.37433 228.344 1.64332 226.73C-0.505247 225.479 -3.40077 224.841 -5.93266 225.13C-7.76538 225.333 -9.40419 226.024 -10.5387 227.218C-12.2281 228.987 -12.5452 230.65 -12.2979 233.061C-12.2333 233.736 -12.0206 234.321 -11.685 234.84ZM-9.74059 280.716C-10.0806 280.796 -10.3966 280.901 -10.7134 281.006C-12.1287 281.516 -12.842 282.418 -13.9542 283.134C-13.3046 281.533 -11.402 280.854 -9.74059 280.716ZM-5.32522 283.247C-5.3727 283.221 -5.44279 283.193 -5.49112 283.192C-5.58538 283.163 -5.68032 283.135 -5.79875 283.105C-6.05012 283.358 -6.35003 283.608 -6.69673 283.855C-7.26763 284.26 -8.07662 284.126 -8.48214 283.556C-8.59495 283.407 -8.66029 283.26 -8.69952 283.09C-9.11138 283.167 -9.5008 283.293 -9.86693 283.42C-11.0865 283.867 -11.6527 284.704 -12.6169 285.307C-12.7893 285.418 -13.0966 285.836 -13.1991 285.975L-13.1999 285.999C-13.2019 286.023 -13.2027 286.047 -13.226 286.046L-13.2288 286.093C-12.8513 286.231 -12.4218 286.275 -11.9418 286.273C-10.7173 286.235 -9.33091 285.819 -8.10502 285.252C-7.19845 284.839 -6.38334 284.325 -5.80574 283.777C-5.60745 283.642 -5.42946 283.411 -5.32522 283.247ZM-1.49365 228.167C-2.81693 227.746 -4.29511 227.557 -5.64521 227.71C-6.85098 227.846 -7.9476 228.226 -8.70386 229.007C-9.33433 229.673 -9.65283 230.33 -9.78281 231.068C-9.40846 230.749 -9.01061 230.456 -8.54113 230.166C-6.42093 228.921 -3.5809 228.19 -1.49365 228.167ZM0.663681 191.068C0.668229 190.972 0.648607 190.875 0.628122 190.803C0.568393 190.536 0.437698 190.242 0.160932 190.014C-0.0470119 189.836 -0.468312 189.625 -1.06481 189.548C-1.80283 189.442 -2.85951 189.465 -3.29272 189.494C-6.16007 189.791 -7.71954 192.382 -7.71381 194.828C-7.69806 196.555 -6.88386 198.128 -5.40639 198.845C-4.51458 199.269 -3.34488 199.396 -1.86077 198.937C-0.425869 198.501 1.7399 196.803 2.77067 195.267C3.54445 194.104 3.62138 192.957 3.17643 192.216C2.81837 191.672 2.07631 191.11 0.663681 191.068ZM-8.98842 234.102C-8.8961 234.179 -8.82727 234.253 -8.73495 234.329C-8.019 234.914 -7.15309 235.386 -6.52472 235.8C-5.15168 236.703 -3.80122 237.054 -2.60107 237.037C-0.704755 237.006 0.853639 235.974 1.608 234.715C2.04928 233.992 2.22973 233.209 1.97503 232.502C1.67635 231.696 0.840227 231.105 -0.560501 230.8C-2.128 230.464 -5.10781 231.117 -7.18141 232.388C-7.99479 232.853 -8.71672 233.419 -8.98842 234.102ZM-3.02595 192.024C-3.82181 192.107 -4.36941 192.538 -4.70753 193.097C-4.20826 192.688 -3.61667 192.332 -3.02595 192.024ZM0.712334 193.636C0.472866 193.625 0.185935 193.612 -0.103809 193.647C-0.947127 193.728 -2.39588 194.452 -3.42052 195.339C-3.7213 195.613 -3.97374 195.889 -4.15434 196.169C-4.2083 196.286 -4.28555 196.403 -4.29117 196.522C-3.86813 196.709 -3.33871 196.686 -2.63432 196.479C-1.80694 196.23 -0.687365 195.37 0.121099 194.473C0.324137 194.242 0.55589 193.893 0.712334 193.636ZM4.01638 296.393C4.03651 295.962 3.88553 295.596 3.65884 295.321C3.34284 294.899 2.64001 294.53 1.62906 294.603C0.378445 294.689 -1.60039 295.46 -2.90725 296.742C-3.8879 297.729 -4.49773 298.971 -4.34884 300.417C-4.2159 301.671 -3.77568 302.53 -3.15574 303.111C-2.51162 303.716 -1.68756 304.043 -0.731431 304.111C1.44533 304.236 4.4136 302.815 6.188 301.267C7.16237 300.425 7.80387 299.519 7.95648 298.831C8.10521 298.214 8.00905 297.706 7.69391 297.26C7.31149 296.714 6.3552 296.118 4.40386 296.315C4.33223 296.312 4.18595 296.353 4.01638 296.393ZM12.6952 250.556C12.7203 250.533 12.7707 250.488 12.7966 250.44C13.2299 249.886 13.1715 249.091 12.6169 248.634C8.91896 245.632 4.15318 245.481 1.12571 247.667C-0.933896 249.154 -2.27719 251.731 -1.91673 255.321L-1.91867 255.368C-1.93056 255.632 -1.92111 255.944 -1.8642 256.258C-1.72686 256.912 -1.42276 257.598 -1.42276 257.598C-1.18401 258.137 -0.597675 258.428 -0.0171236 258.311C0.436933 258.86 1.03813 259.343 1.83241 259.812C7.0662 262.79 14.3276 259.818 13.6198 252.853C13.5438 251.914 13.2192 251.156 12.6952 250.556ZM1.66581 297.435C1.59678 297.36 1.553 297.286 1.50814 297.212C1.41127 297.231 1.3144 297.251 1.21753 297.27C0.489836 297.452 -0.345102 297.869 -0.996059 298.462C-1.37235 298.805 -1.67962 299.222 -1.79769 299.697C-1.74742 299.651 -1.69713 299.605 -1.64687 299.56C-0.897961 298.923 0.436909 298.073 1.66581 297.435ZM1.50734 254.425C1.36403 254.921 1.36438 255.426 1.51081 255.888C1.72085 256.521 2.24762 257.073 3.13575 257.57C6.64054 259.556 11.5934 257.748 11.1142 253.097C11.0149 252.133 10.3382 251.741 9.45561 251.628C9.42321 251.819 9.36645 252.008 9.30969 252.197C9.10962 252.883 8.39699 253.258 7.71011 253.058C7.1667 252.889 6.80584 252.393 6.80742 251.841C5.20769 252.199 3.54364 252.912 2.3037 253.79C1.98156 254.015 1.7328 254.219 1.50734 254.425ZM4.86263 298.831C4.83846 298.83 4.791 298.828 4.76662 298.826L4.71916 298.824C4.64472 298.869 3.25186 299.428 2.29047 299.983C1.47709 300.448 0.459811 301.192 0.0377923 301.484L0.134865 301.465C1.12533 301.319 2.22737 300.819 3.18983 300.24C3.80733 299.861 4.45935 299.244 4.91116 298.809L4.86263 298.831ZM16.7249 213.928C16.72 213.52 16.6162 213.179 16.4624 212.861C16.0436 212.073 15.0166 211.475 13.5571 211.382C11.5499 211.241 8.66243 211.947 6.75278 213.297C5.63756 214.084 4.8461 215.103 4.60153 216.242C4.35522 217.406 4.60466 218.761 5.80742 220.232L5.8512 220.306C5.73119 220.828 5.68301 221.353 5.75413 221.884C5.8179 222.583 6.46569 223.092 7.1636 223.029C7.69389 222.982 8.11958 222.594 8.26182 222.121C9.68988 222.859 11.4213 223.275 13.0531 223.255C16.0536 223.203 18.7358 221.745 19.2344 218.242C19.4471 216.765 19.0878 215.717 18.4502 214.992C18.0419 214.493 17.435 214.129 16.7249 213.928ZM13.4867 213.946C13.3665 213.94 13.2714 213.936 13.1512 213.93C12.7924 213.914 12.4076 213.943 11.9966 213.996C10.7667 214.155 9.37747 214.618 8.363 215.29C7.67086 215.738 7.11764 216.288 7.08434 217.005C7.07417 217.221 7.11254 217.439 7.22167 217.659C7.34833 217.521 7.47411 217.384 7.60077 217.246C9.08999 215.66 11.4013 214.424 13.4867 213.946ZM8.95486 219.587C10.0977 220.288 11.6139 220.693 13.0052 220.686C14.758 220.648 16.3988 219.909 16.6847 217.883C16.7581 217.335 16.729 216.926 16.5015 216.676C16.0903 216.225 15.3467 216.238 14.5007 216.367C12.7619 216.622 10.6993 217.653 9.41228 219.033C9.26126 219.193 9.10763 219.402 8.95486 219.587ZM22.6074 199.859C22.7742 199.891 22.9429 199.875 23.1124 199.835C23.9864 199.612 24.3002 199.051 24.3932 198.599C24.4871 198.124 24.3321 197.326 23.452 196.661C22.2466 195.765 19.1104 194.612 16.2497 194.743C14.3505 194.846 12.5944 195.484 11.4238 196.917C10.6602 197.865 10.1203 199.159 10.0372 200.954C9.96905 202.414 10.5191 202.967 11.5351 203.805C13.7537 205.611 16.1094 205.505 18.1432 204.568C20.0066 203.696 21.5461 202.064 22.2574 200.682C22.4138 200.426 22.5228 200.143 22.6074 199.859ZM20.6165 275.172C20.0324 273.801 18.6435 272.729 16.8439 272.238C14.2389 271.517 10.8352 271.983 8.6994 274.09C7.26608 275.511 6.35108 277.651 6.66547 280.687C6.88179 282.736 8.33874 283.906 9.91972 284.963C16.7114 289.524 23.1557 286.587 24.7268 282.726C25.4845 280.867 25.2477 278.745 23.5582 276.892C22.734 276.061 21.7516 275.512 20.6165 275.172ZM18.4977 197.462C17.7606 197.332 16.9721 197.27 16.2017 197.331C15.1905 197.404 14.2188 197.671 13.5398 198.359C12.9605 198.955 12.632 199.828 12.5738 201.072C12.5543 201.502 12.8378 201.588 13.1379 201.841C13.1603 201.866 13.2078 201.892 13.2302 201.918C13.3912 201.541 13.7172 201.245 14.1299 201.144C14.2287 201.077 14.7524 200.646 15.1034 200.326C16.1578 199.296 17.3946 197.986 18.1549 197.614C18.302 197.549 18.4 197.506 18.4977 197.462ZM16.7911 274.922C16.5786 274.84 16.367 274.758 16.1536 274.7C14.3549 274.185 11.9677 274.458 10.5081 275.925C10.0052 276.429 9.61589 277.058 9.38711 277.864C9.51182 277.749 9.6609 277.636 9.81086 277.523C11.4243 276.351 14.1384 275.231 16.7911 274.922ZM10.059 281.972C10.4516 282.302 10.8943 282.586 11.3369 282.87C15.6847 285.807 19.8729 284.971 21.7244 282.802C22.7387 281.627 22.886 280.002 21.6526 278.674C21.3785 278.397 21.0773 278.167 20.7492 277.984C20.634 278.411 20.4199 278.881 20.1349 279.347C19.7708 279.953 18.9937 280.157 18.3869 279.793C17.7801 279.429 17.5765 278.652 17.9406 278.045C18.07 277.835 18.151 277.647 18.2321 277.46C16.2659 277.44 14.1257 278.084 12.5279 278.921C11.8888 279.251 11.3447 279.609 10.9209 279.949C10.7954 280.064 10.6696 280.202 10.568 280.317C10.7871 280.758 10.7613 281.309 10.4308 281.726C10.3311 281.793 10.2062 281.907 10.059 281.972ZM23.2371 301.34C23.4577 300.726 23.409 300.22 23.2356 299.829C23.062 299.437 22.7414 299.111 22.2725 298.873C21.7319 298.632 20.8728 298.544 19.763 298.685C17.3487 299.028 13.6331 300.534 11.4544 302.518C9.65127 304.162 8.8638 306.14 9.75475 308.124C10.0802 308.859 10.7729 309.442 11.8364 309.78C13.5139 310.313 16.2768 310.226 18.9173 309.653C21.1705 309.159 23.3439 308.324 24.663 307.306C25.9056 306.357 26.4856 305.232 26.3695 304.124C26.2704 303.16 25.8694 302.494 25.2913 302.035C24.7591 301.627 24.074 301.403 23.2371 301.34ZM27.3242 230.467C27.5455 227.766 26.4899 226.23 25.0844 225.518C23.0692 224.488 19.8425 225.273 17.5848 227.423C15.802 229.139 14.6067 231.625 15.1925 234.507C14.5961 236.494 15.0349 238.409 17.119 239.489C17.3772 239.621 18.2067 239.828 19.0603 240.035C19.6708 240.327 20.3819 240.504 21.1704 240.565C24.2073 240.754 26.6314 239.691 27.9083 238.025C29.2614 236.265 29.4978 233.757 27.7317 230.989C27.5956 230.815 27.4603 230.641 27.3242 230.467ZM19.7847 199.704C19.6376 199.769 19.5146 199.836 19.344 199.899C19.1232 200.009 18.8225 200.283 18.4956 200.604C17.8938 201.175 17.2381 201.864 16.6605 202.413C17.27 202.202 17.8131 201.867 18.3115 201.483C18.8834 201.03 19.4235 200.263 19.7847 199.704ZM20.7764 301.658C20.7111 301.51 20.671 301.341 20.655 301.172L20.6307 301.17C20.054 301.192 19.3271 301.35 18.525 301.577C16.4826 302.177 14.0295 303.358 12.7127 304.856C12.4091 305.202 12.153 305.549 12.0403 305.904C12.6367 305.452 13.4535 304.914 14.4149 304.359C16.3107 303.296 18.7126 302.185 20.7764 301.658ZM14.0969 307.583C15.3652 307.642 16.884 307.472 18.3616 307.157C20.228 306.74 22.0086 306.104 23.1022 305.268C23.3258 305.11 23.5018 304.926 23.6544 304.741C23.756 304.626 23.8332 304.51 23.8164 304.365C23.7977 304.244 23.7781 304.147 23.7334 304.074C23.5962 303.923 23.3811 303.913 23.1182 303.9C22.5199 303.873 21.7942 304.007 21.0404 304.236C18.7306 304.896 16.001 306.352 14.3688 307.403C14.2702 307.471 14.1722 307.514 14.0969 307.583ZM21.8157 238.028C23.9498 238.056 25.6406 237.271 26.2103 235.859C26.6143 234.894 26.4069 233.686 25.5564 232.375C25.0873 231.633 24.1515 231.134 23.4822 230.575C23.181 230.345 22.7701 230.398 22.3321 230.545C21.1891 230.877 19.9463 231.826 19.0066 232.934C18.5503 233.464 18.1647 234.021 17.8976 234.609C18.0647 235.144 18.3034 235.683 18.6624 236.227C19.0868 236.895 19.5428 237.396 20.1281 237.71C20.8894 237.842 21.6509 237.973 21.8157 238.028ZM24.3159 228.12C24.2701 228.069 24.2244 228.019 24.1789 227.97C23.6709 227.539 22.9523 227.529 22.1771 227.685C21.3293 227.861 20.446 228.3 19.6953 228.961C20.3381 228.559 20.9996 228.254 21.608 228.066C22.6049 227.777 23.5395 227.796 24.3159 228.12ZM40.6397 256.676L40.6471 256.508C40.59 254.131 39.6861 251.907 38.0211 250.582C37.5122 250.175 36.9276 249.859 36.2901 249.638C36.2675 249.085 36.0967 248.646 35.8228 248.346C35.3463 247.748 34.4049 247.368 33.1497 247.549C31.2909 247.799 28.4663 249.227 26.6129 251.443C25.1152 253.22 24.1948 255.48 24.7271 257.951C24.5277 260.172 25.3844 262.395 27.6941 263.773C31.0534 265.8 33.8323 265.881 35.9117 264.994L35.9611 264.973C38.2533 264.672 40.1733 263.609 41.0617 262.044C41.771 260.71 41.881 258.868 40.6397 256.676ZM38.0664 257.348C37.7959 256.976 37.4788 256.577 37.0901 256.151C35.0362 253.921 33.0547 253.206 31.3374 253.509C31.1193 253.547 30.9264 253.586 30.731 253.65C29.9643 254.668 29.5672 255.994 29.6786 257.198C29.7423 257.896 29.2338 258.52 28.5339 258.607C28.0999 258.659 27.7008 258.472 27.4268 258.172C27.534 258.441 27.6647 258.735 27.8196 259.006C29.3509 261.668 32.5178 262.678 35.1651 262.49L35.1884 262.491C36.9593 261.541 37.92 259.452 38.0664 257.348ZM41.953 208.314C41.9576 208.218 41.9613 208.146 41.9408 208.074C41.891 207.591 41.6235 207.148 41.1108 206.836C40.6681 206.552 39.8134 206.367 38.7315 206.413C36.8326 206.517 34.0391 207.274 32.2255 208.629C30.7583 209.736 29.8989 211.207 30.1282 212.969C30.273 213.983 30.7963 215.11 31.9143 216.338C34.1071 218.694 36.6733 218.693 38.9083 217.574C40.9458 216.565 42.6474 214.534 43.3062 212.742C43.9083 211.139 43.6869 209.714 42.7676 208.855C42.5858 208.631 42.3062 208.45 41.953 208.314ZM35.8741 209.59C35.2396 209.824 34.6267 210.108 34.1078 210.443C33.3662 210.912 32.7636 211.484 32.6802 212.248C32.6355 212.701 32.7793 213.212 33.1393 213.732C33.3383 213.046 33.6335 212.388 34.047 211.736C34.4854 211.084 35.1224 210.274 35.8741 209.59ZM35.4503 215.614C36.2332 215.795 37.0558 215.641 37.7928 215.268C39.2172 214.542 40.4326 213.16 40.9222 211.912C41.0312 211.629 41.0914 211.367 41.1269 211.13C41.1342 210.962 41.1649 210.819 41.0736 210.72C40.9839 210.595 40.7921 210.587 40.5544 210.551C40.0521 210.504 39.4008 210.594 38.5987 210.821C38.2837 210.902 37.9594 211.15 37.6604 211.4C37.0606 211.924 36.5483 212.619 36.2113 213.155C35.6964 213.923 35.4182 214.75 35.4503 215.614ZM41.9086 289.209C41.8246 288.965 41.6438 288.717 41.2699 288.508C40.8728 288.273 39.2931 287.696 37.6812 288.317C36.6797 288.702 35.6337 289.541 34.9757 291.309C34.595 292.275 34.5086 293.11 34.6656 293.861C34.8029 294.515 35.134 295.13 35.7065 295.708C35.7654 295.999 35.9191 296.293 36.1737 296.497C36.474 296.751 36.8532 296.841 37.2165 296.761C38.8122 297.531 40.5483 297.324 42.0686 296.603C43.8099 295.773 45.2489 294.233 45.8615 292.919C46.4768 291.556 46.2692 290.347 45.4628 289.638C44.9091 289.157 43.7748 288.792 41.9086 289.209ZM39.0364 290.635C38.796 290.648 38.5527 290.732 38.33 290.865C37.9594 291.112 37.651 291.553 37.3802 292.212C37.2723 292.471 37.1886 292.731 37.1784 292.946C37.386 292.596 37.6188 292.247 37.8497 291.922C38.2066 291.46 38.5874 291.021 39.0364 290.635ZM43.6206 291.591C43.5732 291.589 43.5255 291.586 43.4772 291.585C43.1173 291.591 42.7074 291.645 42.1717 291.812C40.8356 292.181 40.1706 293.061 39.5775 293.969C39.421 294.226 39.2665 294.459 39.1109 294.715C39.5407 294.759 39.9748 294.707 40.4127 294.56C41.4358 294.224 42.3812 293.5 42.9921 292.737C43.2724 292.39 43.5127 291.85 43.6206 291.591ZM40.0428 288.595C39.8443 288.729 39.6944 288.866 39.59 289.053C39.4866 289.216 39.4523 289.43 39.4432 289.622C39.4624 289.215 39.672 288.841 40.0428 288.595ZM52.2513 230.81C52.3955 230.289 52.2843 229.588 51.4948 229.024C50.8675 228.587 49.5002 228.092 48.0112 228.119C46.4754 228.143 44.8905 228.692 43.8634 230.156C41.9098 232.967 41.9563 235.056 42.8256 236.487C43.4047 237.45 44.4022 238.168 45.6771 238.611C46.5314 240.353 47.8843 241.687 49.3987 242.117C51.081 242.579 53.1178 242.099 55.0753 239.719C55.4824 239.211 55.4447 238.465 54.9861 238.013C55.0848 237.969 55.2077 237.902 55.3057 237.86C56.8056 237.066 57.284 236.056 57.2781 235.145C57.2814 234.569 57.0696 233.96 56.6164 233.387C56.166 232.767 55.4018 232.18 54.4882 231.705C53.8106 231.314 53.0323 231.038 52.2513 230.81ZM55.9883 268.566C55.8989 268.419 55.7851 268.293 55.6228 268.165C54.2824 267.072 52.5229 266.75 50.7329 267.074C48.2916 267.488 45.7979 269.028 44.3451 270.855C43.2246 272.266 42.766 273.875 43.1552 275.308C43.4204 276.304 44.0964 277.247 45.3558 278.001C48.6462 279.977 52.0531 279.944 54.5405 278.548C57.1003 277.132 58.7679 274.283 58.3684 270.5C58.2887 269.633 57.8122 269.059 56.9864 268.756C56.704 268.647 56.3714 268.584 55.9883 268.566ZM47.6517 230.692C47.0256 230.759 46.39 231.017 45.9543 231.621L45.9282 231.667C46.4051 231.209 46.9947 230.901 47.6517 230.692ZM47.5502 236.492C47.6928 236.522 47.8362 236.529 47.9788 236.559C50.0289 236.822 52.4927 236.458 54.1155 235.598C54.2868 235.509 54.4351 235.421 54.5609 235.307C54.6362 235.238 54.7089 235.217 54.7117 235.145C54.719 235.002 54.5792 234.9 54.4654 234.774C54.1681 234.473 53.7729 234.191 53.3059 233.929C52.0187 233.246 50.2404 232.803 48.8623 233.026C48.3555 233.099 47.9156 233.27 47.612 233.616C47.3317 233.963 47.237 234.462 47.3025 235.113C47.3279 235.593 47.4027 236.053 47.5502 236.492ZM46.4719 275.678C46.5185 275.704 46.5875 275.756 46.6583 275.783C49.0148 277.212 51.4815 277.279 53.3026 276.284C54.9527 275.354 55.9973 273.531 55.8693 271.126C55.5806 271.138 55.0997 271.163 54.712 271.241C52.4096 271.757 49.1219 273.355 47.3846 274.617C47.0858 274.844 46.7606 275.141 46.634 275.279C46.6022 275.444 46.5491 275.562 46.4719 275.678ZM51.7461 269.52C51.5541 269.535 51.3371 269.549 51.1442 269.588C49.4996 269.872 47.7995 270.848 46.6883 272.043C48.0967 271.149 49.9638 270.205 51.7461 269.52ZM52.381 238.851C51.3401 239.065 50.2556 239.183 49.1756 239.181C49.4534 239.41 49.7339 239.567 50.0657 239.654C50.7991 239.856 51.5547 239.603 52.381 238.851ZM58.4296 250.62C58.3494 250.281 58.0388 249.738 57.2588 249.486C56.692 249.292 55.5953 249.169 54.4342 249.379C53.2491 249.588 52.0006 250.129 51.1597 251.194C50.4462 252.095 49.98 253.345 50.1597 255.152C50.3263 256.742 50.9513 257.732 51.7389 258.343C52.5498 258.956 53.5937 259.197 54.7742 259.084C56.6071 258.857 58.7937 257.736 60.2943 256.415C61.2191 255.618 61.885 254.714 62.1595 253.959C62.4621 253.134 62.402 252.363 62.0215 251.77C61.6867 251.227 61.0156 250.716 59.8246 250.541C59.5152 250.479 59.0344 250.504 58.4296 250.62ZM54.3115 252.011C54.1652 252.052 54.0189 252.118 53.8709 252.207C53.7236 252.272 53.5997 252.362 53.474 252.476C53.7218 252.32 54.0161 252.165 54.3115 252.011ZM59.728 253.127C59.6571 253.099 59.5388 253.07 59.467 253.066C59.2284 253.031 58.8166 253.132 58.2828 253.252C57.2887 253.493 56.0438 253.963 55.0106 254.514C54.5925 254.735 54.2225 254.957 53.9469 255.209C53.822 255.322 53.6703 255.484 53.619 255.553C53.606 255.84 53.5214 256.1 53.3445 256.307C53.6706 256.514 54.0771 256.534 54.487 256.48C55.8606 256.353 57.4619 255.444 58.5862 254.465C59.011 254.101 59.3649 253.709 59.5986 253.336C59.6721 253.292 59.7011 253.198 59.728 253.127ZM56.4454 249.952L56.4948 249.93C56.4706 249.929 56.4473 249.928 56.4454 249.952Z" fill="#004AAD"/>
</g>
</g>
</g>
<mask id="mask21_241_2145" style="mask-type:luminance" maskUnits="userSpaceOnUse" x="-104" y="622" width="316" height="297">
<path d="M211.424 781.718L-2.67689 918.124L-103.897 759.249L110.203 622.844L211.424 781.718Z" fill="white"/>
</mask>
<g mask="url(#mask21_241_2145)">
<mask id="mask22_241_2145" style="mask-type:luminance" maskUnits="userSpaceOnUse" x="-103" y="629" width="300" height="275">
<path d="M196.031 831.341L-41.3955 903.148L-102.386 701.488L135.042 629.681L196.031 831.341Z" fill="white"/>
</mask>
<g mask="url(#mask22_241_2145)">
<mask id="mask23_241_2145" style="mask-type:luminance" maskUnits="userSpaceOnUse" x="-103" y="629" width="300" height="275">
<path d="M196.031 831.341L-41.3955 903.148L-102.386 701.488L135.042 629.681L196.031 831.341Z" fill="white"/>
</mask>
<g mask="url(#mask23_241_2145)">
<path fill-rule="evenodd" clip-rule="evenodd" d="M79.871 663.171C80.7142 663.225 81.3337 662.883 81.7173 662.612C82.3094 662.176 83.3617 660.875 82.3343 659.017C81.6644 657.824 77.9752 653.827 74.1396 651.733C71.229 650.134 68.2207 649.752 66.0734 651.021C64.5791 651.888 63.2948 653.618 62.8478 656.749C62.5345 658.962 63.0981 661.167 64.3624 662.955C69.1417 669.877 76.5535 668.254 78.9948 664.883C79.3874 664.299 79.6838 663.743 79.871 663.171ZM68.4516 659.394C68.5539 659.568 68.6588 659.743 68.7497 659.872C70.2987 662.09 72.313 662.771 73.8271 662.312C74.3476 662.156 74.8537 661.95 74.8815 661.528C74.9189 661.311 74.7391 661.056 74.5583 660.8C74.211 660.338 73.6754 659.932 72.9826 659.52C71.9686 658.898 70.9271 659.212 69.9705 659.294C69.4221 659.358 68.9187 659.406 68.4516 659.394ZM127.925 664.082C129.274 663.933 130.221 663.646 130.888 663.289C132.222 662.575 132.75 661.589 132.952 660.547C133.088 659.628 132.899 658.498 132.087 657.347C131.184 656.072 129.226 654.546 126.685 653.145C122.588 650.872 116.947 648.962 113.055 648.9C110.148 648.849 108.009 649.807 106.899 651.432C105.871 652.984 105.474 655.428 107.201 659.088C108.338 661.483 111.05 665.157 114.039 667.868C116.299 669.87 118.698 671.315 120.754 671.623C125.192 672.294 127.344 670.87 128.198 669.423C128.953 668.161 128.929 666.205 127.925 664.082ZM50.1364 694.478L50.2301 694.449C51.1481 694.068 51.9376 693.262 52.1333 691.858C52.2622 690.581 51.4765 687.978 51.1233 687.155C47.093 678.61 36.6351 671.186 27.307 678.087C26.2065 678.885 25.4555 679.99 24.9516 681.227C24.5585 681.293 24.146 681.47 23.7351 681.646C22.4196 682.251 21.8746 683.862 22.4787 685.176C22.864 685.939 23.5996 686.49 24.3625 686.622C24.4333 687.375 24.5692 688.161 24.7689 688.822C25.4009 691.422 27.4556 693.95 30.2784 695.938C34.0964 698.658 39.1914 700.473 43.0091 700.456C45.949 700.444 48.1675 699.411 49.2807 697.629C49.8193 696.847 50.1146 695.775 50.1364 694.478ZM42.1789 683.713C40.6845 682.357 39.0254 681.309 37.2395 680.868C35.4526 680.427 33.5731 680.53 31.668 681.572C34.8064 681.707 38.7965 682.257 42.1789 683.713ZM123.256 666.578C123.214 666.436 123.109 666.261 123.019 666.133C122.572 665.339 121.954 664.493 121.196 663.689C119.192 661.506 116.421 659.348 113.934 658.293C113.392 658.043 112.88 657.888 112.383 657.78C113.471 659.671 115.419 662.182 117.541 664.072C118.897 665.313 120.245 666.353 121.477 666.496C122.162 666.547 122.789 666.566 123.256 666.578ZM124.595 659.562C124.964 659.244 125.41 659.006 125.944 658.896C124.578 657.966 122.743 657.024 120.842 656.204C122.19 657.242 123.47 658.404 124.595 659.562ZM29.7564 686.695C29.795 686.994 29.8811 687.277 29.9047 687.528C30.3152 689.056 31.6684 690.455 33.3698 691.646C36.2691 693.713 40.1213 695.182 43.0151 695.184C43.4832 695.198 43.939 695.165 44.3178 695.049C44.5061 694.992 44.757 694.969 44.8084 694.798C44.956 694.598 44.9025 694.252 44.8024 693.922C44.6792 693.339 44.477 692.677 44.0928 691.915C43.3688 690.379 41.9419 689.415 40.2736 688.68C37.2294 687.328 33.4255 686.876 30.7216 686.817C30.3958 686.761 30.0823 686.751 29.7564 686.695ZM14.6126 720.82C15.3101 719.369 16.0724 717.796 16.4152 716.195C16.8756 714.299 16.914 712.376 16.214 710.574C15.5601 708.757 14.2171 707.046 11.7549 705.569C5.89419 702.072 0.315921 704.12 -3.32547 708.478C-6.73998 712.556 -8.33743 718.721 -6.7582 723.77C-4.52074 730.997 0.846672 734.23 7.78257 735.644C11.4217 736.402 13.7585 735.593 15.1729 734.287C16.666 732.905 17.3372 730.688 16.9913 728.003C16.7686 725.901 15.9016 723.375 14.6126 720.82ZM114.034 699.275C114.577 700.555 116.107 701.178 117.438 700.62C118.767 700.064 119.435 698.519 118.878 697.189C117.064 692.727 113.898 686.867 109.584 683.367C106.297 680.695 102.378 679.35 97.9668 680.477C95.3213 681.123 93.6838 682.03 92.4619 683.278C91.285 684.512 90.5025 686.195 89.8222 688.725C88.1734 695.061 90.9953 699.27 95.2258 701.812C99.009 704.076 104.073 704.766 107.746 704.274C109.49 704.058 110.927 703.52 111.915 702.86C112.984 702.122 113.636 701.203 113.9 700.193C113.97 699.913 114.025 699.586 114.034 699.275ZM11.2465 715.33C11.5567 714.306 11.663 713.293 11.2676 712.327C10.9631 711.491 10.2317 710.781 9.09421 710.092C7.69561 709.225 6.341 709.013 5.05326 709.196C6.94459 710.33 9.07569 712.423 10.9907 714.994L11.2465 715.33ZM-1.13243 715.045C-2.08881 717.349 -2.34801 719.905 -1.6475 722.226C-0.0393653 727.368 3.95247 729.467 8.86495 730.513C9.5818 730.658 10.2201 730.722 10.7369 730.722C11.0954 730.716 11.3939 730.677 11.5549 730.526C11.9562 730.145 11.8517 729.454 11.7308 728.715C11.6012 727.774 11.3481 726.766 10.9713 725.692C10.4829 725.787 10.0008 725.728 9.52149 725.51C8.16143 724.941 7.53268 723.375 8.11782 722.061C8.26761 721.707 8.43292 721.397 8.61637 720.981C8.01864 720.026 7.37232 719.084 6.75431 718.238C5.47229 716.56 4.09027 715.067 2.8345 714.155C2.57339 713.976 2.20269 713.777 1.90892 713.661C1.42432 714.788 0.108812 715.393 -1.13243 715.045ZM112.193 695.235C111.065 693.043 109.625 690.845 107.94 689.03C105.634 686.526 102.773 684.757 99.3086 685.598C98.9303 685.711 98.5382 685.779 98.207 685.88C101.78 687.794 105.823 690.911 109.161 692.896C110.452 693.746 111.462 694.525 112.193 695.235ZM108.166 698.827C107.739 698.44 107.112 697.907 106.42 697.497C102.883 695.364 98.5083 691.83 94.9257 690.23C93.4235 696.365 99.4708 698.771 104.17 699.107C105.449 699.237 106.67 699.177 107.645 698.985C107.834 698.928 108.024 698.871 108.166 698.827ZM-23.9096 755.868C-23.7197 755.811 -23.5463 755.707 -23.4174 755.616C-21.7622 754.599 -20.7261 752.22 -21.0934 749.129C-21.4553 745.881 -23.1832 741.702 -26.0699 738.652C-29.1844 735.357 -33.4448 733.392 -38.4282 734.846C-42.087 735.903 -44.0807 737.848 -44.9434 740.122C-45.7848 742.289 -45.6086 744.922 -44.6041 747.561C-42.8987 752.004 -38.8392 756.716 -35.0351 759.389C-33.3331 760.578 -31.6976 761.375 -30.3125 761.679C-28.8829 761.971 -27.6749 761.863 -26.6906 761.359C-25.5665 760.812 -24.6294 759.806 -24.1929 758.176C-23.9442 757.635 -23.8276 756.825 -23.9096 755.868ZM60.6431 710.772C60.4056 710.845 60.2307 710.949 59.9947 711.021C58.7268 711.611 58.1519 713.127 58.6945 714.409C58.013 716.424 57.6238 718.555 57.2484 720.219C55.6499 727.055 57.281 732.45 60.1971 736.113C63.6124 740.401 68.7481 742.36 73.1147 741.762C73.4079 741.881 73.6877 741.951 74.0011 741.96C80.4228 742.187 84.3375 737.542 85.5964 731.118C86.5514 726.076 85.7992 720.004 83.4934 715.278C81.8362 711.852 79.3632 709.14 76.259 707.755C71.6551 705.686 68.2007 706.215 63.6812 708.355C62.4133 708.946 61.4215 709.762 60.6431 710.772ZM-27.2654 746.141C-27.656 745.534 -28.0766 744.992 -28.4999 744.448C-30.4656 742.046 -32.7122 741.279 -34.8711 739.608C-31.309 739.77 -28.6792 743.004 -27.2654 746.141ZM-29.1504 756.473C-29.1327 756.363 -29.1264 756.207 -29.1563 756.112C-29.1649 755.909 -29.1761 755.705 -29.1997 755.454C-29.8642 755.139 -30.557 754.728 -31.2762 754.223C-32.4585 753.392 -32.7551 751.726 -31.9254 750.545C-31.713 750.223 -31.4718 749.994 -31.1685 749.801C-31.6013 749.052 -32.1145 748.382 -32.6136 747.757C-34.3227 745.692 -36.3407 745.167 -38.177 743.706C-38.513 743.447 -39.537 743.137 -39.8778 743.033L-39.9254 743.048C-39.9725 743.061 -40.0201 743.076 -40.0341 743.03L-40.1287 743.057C-40.1367 743.886 -39.9258 744.752 -39.593 745.685C-38.6746 748.04 -36.9121 750.451 -34.9646 752.446C-33.5365 753.925 -31.9758 755.157 -30.5114 755.903C-30.1118 756.196 -29.5398 756.383 -29.1504 756.473ZM80.6418 726.004C80.549 723.14 79.8997 720.134 78.6717 717.613C77.5774 715.361 76.0819 713.49 74.043 712.556C72.3122 711.788 70.8163 711.621 69.291 711.876C70.169 712.385 71.0128 712.957 71.9004 713.67C75.7821 716.938 79.1595 721.96 80.6418 726.004ZM154.298 704.659C154.488 704.602 154.663 704.497 154.79 704.407C155.268 704.107 155.75 703.65 156.004 702.955C156.206 702.428 156.328 701.463 156.065 700.25C155.763 698.741 154.991 696.701 154.638 695.878C152.085 690.505 145.972 689.254 141.217 690.95C137.867 692.17 135.368 694.837 134.991 698.204C134.779 700.232 135.337 702.595 137.252 705.166C139.089 707.656 143.884 710.701 147.58 711.649C150.376 712.353 152.661 711.713 153.795 710.338C154.607 709.266 155.19 707.436 154.298 704.659ZM63.9344 715.511C63.8494 715.743 63.7519 715.928 63.6669 716.16C63.0219 717.956 62.7 719.965 62.3283 721.472C61.5165 724.765 61.7639 727.634 62.6222 729.957C63.9895 733.625 67.0686 735.946 70.038 736.547C71.7489 736.907 73.3962 736.719 74.5966 735.737C75.9586 734.601 76.5314 732.568 76.1604 729.633C75.7359 726.352 72.4146 721.004 68.5142 717.845C67.0487 716.583 65.4506 715.569 63.9344 715.511ZM149.898 698.139C149.19 696.648 147.975 695.879 146.654 695.606C147.792 696.296 148.892 697.202 149.898 698.139ZM149.336 706.522C149.192 706.048 149.02 705.481 148.753 704.941C148.016 703.356 145.61 701.036 143.178 699.654C142.437 699.258 141.727 698.957 141.059 698.798C140.793 698.774 140.513 698.704 140.277 698.775C140.204 699.727 140.613 700.741 141.501 701.969C142.555 703.407 144.999 704.993 147.302 705.947C147.89 706.184 148.729 706.394 149.336 706.522ZM-48.2929 783.697C-47.4396 783.44 -46.8313 782.894 -46.4527 782.263C-45.8493 781.358 -45.6161 779.737 -46.4546 777.821C-47.4815 775.447 -50.3451 772.128 -53.7388 770.468C-56.3326 769.24 -59.1697 768.909 -61.8805 770.194C-64.2274 771.316 -65.5969 772.764 -66.2992 774.37C-67.0331 776.04 -67.1013 777.868 -66.5763 779.775C-65.3203 784.095 -60.5129 788.892 -56.2787 791.277C-53.97 792.593 -51.7658 793.218 -50.3224 793.041C-49.0197 792.905 -48.0979 792.369 -47.4469 791.448C-46.6483 790.329 -46.1476 788.058 -47.8734 784.397C-47.9173 784.256 -48.0981 784 -48.2929 783.697ZM46.8545 769.022C46.9171 769.055 47.0391 769.122 47.1493 769.14C48.5265 769.601 50.0329 768.94 50.5405 767.546C53.8337 758.286 50.8454 748.911 44.509 744.526C40.1976 741.543 34.2607 740.704 27.5243 743.877L27.4306 743.906C26.9096 744.064 26.3088 744.297 25.7369 744.624C24.5589 745.342 23.4344 746.406 23.4344 746.406C22.5512 747.241 22.3882 748.582 23.0148 749.631C22.26 750.892 21.7337 752.395 21.3679 754.263C19.1787 766.495 29.9606 778.575 43.0216 772.403C44.7966 771.608 46.0484 770.455 46.8545 769.022ZM-51.9382 779.842C-51.8392 779.656 -51.7258 779.52 -51.6119 779.381C-51.7168 779.206 -51.8216 779.031 -51.9265 778.856C-52.7816 777.566 -54.1658 776.228 -55.7692 775.371C-56.6943 774.874 -57.7183 774.564 -58.7224 774.661C-58.5989 774.727 -58.4753 774.794 -58.3517 774.86C-56.5973 775.879 -54.0254 777.89 -51.9382 779.842ZM31.6256 749.921C30.5604 749.984 29.5798 750.332 28.7816 750.935C27.6936 751.78 26.9821 753.185 26.6281 755.254C25.1774 763.44 32.1053 771.83 40.8228 767.696C42.6305 766.839 42.9257 765.253 42.5382 763.458C42.1444 763.527 41.7373 763.546 41.3301 763.566C39.8578 763.649 38.6379 762.521 38.5538 761.047C38.5093 759.873 39.2266 758.83 40.3009 758.453C38.5036 755.587 35.9696 752.841 33.4089 751.033C32.7481 750.562 32.1799 750.218 31.6256 749.921ZM-52.4517 787.022C-52.4667 786.974 -52.4956 786.88 -52.509 786.832L-52.5379 786.738C-52.6764 786.624 -54.7225 784.299 -56.464 782.811C-57.9295 781.549 -60.0772 780.082 -60.9359 779.462L-60.8326 779.638C-59.8668 781.465 -58.1337 783.264 -56.3461 784.738C-55.1825 785.678 -53.533 786.522 -52.3768 787.101L-52.4517 787.022ZM120.884 751.644C121.675 751.353 122.267 750.916 122.781 750.398C124.024 749.041 124.482 746.631 123.656 743.728C122.549 739.726 119.189 734.594 115.247 731.809C112.949 730.181 110.421 729.343 108.036 729.652C105.602 729.974 103.138 731.392 101.105 734.745L100.991 734.881C99.8935 735.007 98.838 735.275 97.8536 735.779C96.5381 736.384 95.9931 737.995 96.5972 739.309C97.0537 740.308 98.1013 740.869 99.1204 740.82C98.6671 744.106 99.0504 747.761 100.212 750.922C102.38 756.723 107.063 760.937 114.221 759.495C117.241 758.892 119.033 757.472 120.003 755.732C120.692 754.595 120.982 753.164 120.884 751.644ZM118.621 745.356C118.549 745.118 118.493 744.93 118.42 744.693C118.206 743.983 117.883 743.255 117.497 742.492C116.341 740.208 114.484 737.825 112.478 736.314C111.131 735.276 109.68 734.578 108.261 735.007C107.835 735.136 107.438 735.36 107.083 735.725C107.439 735.876 107.793 736.026 108.149 736.177C112.26 737.983 116.255 741.628 118.621 745.356ZM104.527 740.423C103.95 743.13 104.205 746.358 105.177 749.06C106.458 752.444 109.025 755.127 113.163 754.288C114.279 754.054 115.055 753.716 115.386 753.1C115.98 751.99 115.442 750.553 114.608 748.996C112.916 745.788 109.489 742.486 105.919 740.932C105.503 740.749 104.991 740.594 104.527 740.423ZM152.304 753.401C152.358 753.747 152.505 754.064 152.7 754.367C153.736 755.913 155.043 756.137 155.985 756.008C156.974 755.863 158.421 755.012 159.108 752.842C160.021 749.88 160.105 742.985 157.881 737.51C156.372 733.886 153.922 730.909 150.328 729.619C147.958 728.786 145.069 728.626 141.521 729.7C138.633 730.573 137.936 732.024 137.004 734.578C135.019 740.137 136.848 744.647 140.07 747.958C143.05 750.983 147.284 752.855 150.462 753.287C151.069 753.414 151.693 753.432 152.304 753.401ZM4.4207 801.38C6.68462 799.301 7.81368 795.86 7.53031 792.021C7.13926 786.457 3.88969 780.156 -1.67945 777.452C-5.43046 775.642 -10.2236 775.335 -15.9131 778.037C-19.7504 779.869 -21.0245 783.509 -21.9925 787.312C-26.1892 803.665 -16.0376 814.179 -7.44552 814.578C-3.30671 814.772 0.657978 812.85 3.10043 808.287C4.1477 806.112 4.5397 803.823 4.4207 801.38ZM154.139 743.755C153.885 742.232 153.461 740.656 152.812 739.199C151.975 737.281 150.787 735.575 148.981 734.728C147.421 734.011 145.498 733.973 143.038 734.716C142.187 734.975 142.215 735.585 141.929 736.343C141.895 736.404 141.878 736.515 141.844 736.576C142.687 736.63 143.489 737.06 143.969 737.793C144.168 737.939 145.366 738.661 146.23 739.124C148.96 740.466 152.36 741.97 153.607 743.193C153.836 743.434 153.987 743.595 154.139 743.755ZM2.27302 793.766C2.28585 793.297 2.29967 792.829 2.26489 792.374C2.02912 788.52 -0.146007 784.064 -4.00408 782.234C-5.33148 781.603 -6.82361 781.279 -8.5474 781.388C-8.23868 781.552 -7.91658 781.764 -7.59347 781.978C-4.20243 784.31 -0.154151 788.818 2.27302 793.766ZM-16.0771 785.524C-16.4499 786.515 -16.6976 787.572 -16.9452 788.628C-19.6657 799.109 -15.1539 806.68 -9.66089 808.789C-6.67547 809.953 -3.41419 809.121 -1.67947 805.807C-1.32971 805.084 -1.08957 804.339 -0.959046 803.575C-1.86856 803.644 -2.92997 803.551 -4.03268 803.318C-5.46383 803.027 -6.39485 801.656 -6.10446 800.225C-5.81408 798.793 -4.44244 797.862 -3.01131 798.153C-2.51425 798.26 -2.09216 798.288 -1.67165 798.317C-2.98753 794.478 -5.71372 790.758 -8.44141 788.226C-9.52379 787.21 -10.595 786.398 -11.5489 785.808C-11.8586 785.643 -12.2134 785.493 -12.5066 785.374C-13.2149 786.104 -14.3041 786.434 -15.342 786.077C-15.5415 785.93 -15.8487 785.765 -16.0771 785.524ZM-44.6822 824.495C-43.3373 824.502 -42.3866 824.059 -41.7446 823.452C-41.1011 822.844 -40.6876 821.996 -40.547 820.92C-40.4503 819.702 -40.872 817.971 -41.909 815.909C-44.2388 811.448 -49.7264 805.256 -55.0879 802.385C-59.527 800.008 -63.9167 799.838 -67.1638 802.938C-68.368 804.076 -69.027 805.826 -68.9519 808.127C-68.8343 811.758 -66.7624 817.073 -63.8291 821.815C-61.3168 825.858 -58.1959 829.512 -55.3083 831.377C-52.6048 833.14 -50.0186 833.495 -47.9413 832.506C-46.1352 831.649 -45.1155 830.411 -44.6203 828.97C-44.193 827.654 -44.2284 826.166 -44.6822 824.495ZM96.0085 783.65C101.415 782.221 103.676 779.11 104.094 775.885C104.71 771.256 100.96 765.52 95.2238 762.608C90.659 760.32 84.9981 759.707 79.795 762.831C75.5188 763.039 72.096 765.211 71.4299 770.009C71.3507 770.602 71.52 772.358 71.7042 774.161C71.5561 775.55 71.7017 777.055 72.1256 778.631C73.8494 784.669 77.5856 788.654 81.7074 789.99C86.063 791.411 91.1042 790.144 95.2724 784.803C95.5175 784.418 95.7635 784.035 96.0085 783.65ZM150.663 747.803C150.435 747.562 150.221 747.368 149.98 747.08C149.614 746.726 148.874 746.33 148.025 745.915C146.499 745.137 144.707 744.336 143.243 743.59C144.073 744.63 145.098 745.456 146.189 746.161C147.464 746.962 149.327 747.485 150.663 747.803ZM-46.9949 819.927C-46.7536 819.699 -46.4514 819.504 -46.1342 819.357L-46.1475 819.308C-46.5868 818.201 -47.3943 816.896 -48.3879 815.491C-50.9616 811.931 -54.9477 807.972 -58.7688 806.442C-59.6505 806.089 -60.5033 805.83 -61.27 805.855C-59.9816 806.705 -58.3722 807.923 -56.6307 809.411C-53.2572 812.367 -49.4423 816.275 -46.9949 819.927ZM-63.1206 811.012C-62.3623 813.52 -60.9871 816.358 -59.3557 819.015C-57.2603 822.359 -54.7963 825.385 -52.4165 826.937C-51.9558 827.263 -51.4775 827.479 -51.0115 827.649C-50.7183 827.767 -50.4385 827.837 -50.1689 827.705C-49.9464 827.585 -49.7714 827.48 -49.659 827.343C-49.4601 826.972 -49.5901 826.547 -49.7459 826.027C-50.1039 824.844 -50.8653 823.525 -51.829 822.216C-54.7033 818.177 -59.415 813.869 -62.5835 811.417C-62.7836 811.272 -62.9345 811.111 -63.1206 811.012ZM77.505 778.14C78.9204 782.311 81.6123 785.06 84.7517 785.196C86.9062 785.318 89.1145 784.082 91.0788 781.525C92.1984 780.102 92.5251 777.938 93.1514 776.251C93.3916 775.507 93.0063 774.743 92.4182 773.993C90.9865 771.997 88.2845 770.233 85.4827 769.168C84.1366 768.645 82.7867 768.279 81.4604 768.163C80.5333 768.857 79.6501 769.692 78.8391 770.765C77.8318 772.051 77.1708 773.283 76.9616 774.638C77.2309 776.209 77.4985 777.782 77.505 778.14ZM98.503 776.182C98.5693 776.058 98.6356 775.935 98.7004 775.812C99.1893 774.527 98.714 773.122 97.8767 771.722C96.9494 770.194 95.4887 768.777 93.6857 767.772C94.9104 768.746 95.9591 769.823 96.7429 770.877C97.9923 772.617 98.5986 774.448 98.503 776.182ZM54.1883 827.599L54.5195 827.498C59.1047 825.751 62.8088 822.461 64.2406 818.309C64.6819 817.039 64.8936 815.685 64.8854 814.292C65.9447 813.868 66.6829 813.232 67.0777 812.493C67.9128 811.154 68.0035 809.061 66.7867 806.744C65.0209 803.3 60.2981 798.789 54.7114 796.708C50.2236 795.018 45.193 794.784 40.7522 797.521C36.2947 798.662 32.5601 801.859 31.4692 807.301C29.8387 815.232 31.5935 820.694 34.7508 824.128L34.8268 824.21C36.9908 828.462 40.3792 831.466 44.0355 832.116C47.1203 832.577 50.7785 831.523 54.1883 827.599ZM51.1089 823.056C51.6476 822.273 52.205 821.382 52.7651 820.333C55.6894 814.801 55.7173 810.454 53.9441 807.322C53.721 806.924 53.5122 806.576 53.2539 806.239C50.744 805.449 47.8925 805.589 45.6269 806.635C44.3114 807.24 42.748 806.68 42.0968 805.378C41.6961 804.57 41.7853 803.665 42.1801 802.925C41.7318 803.318 41.2493 803.775 40.8283 804.263C36.705 809.075 36.9196 815.932 39.1092 820.952L39.1232 820.998C42.1895 823.789 46.9163 824.219 51.1089 823.056ZM149.176 796.857C149.366 796.8 149.508 796.758 149.635 796.668C150.54 796.239 151.218 795.413 151.472 794.201C151.72 793.144 151.49 791.354 150.657 789.281C149.146 785.659 145.75 780.745 141.866 778.15C138.702 776.058 135.249 775.399 131.979 777.058C130.107 778.038 128.274 779.832 126.655 782.852C123.581 788.74 125.35 793.732 129.066 797.309C132.431 800.579 137.554 802.49 141.494 802.538C145.027 802.606 147.647 801.194 148.684 798.814C148.996 798.306 149.155 797.638 149.176 796.857ZM142.509 785.91C141.616 784.836 140.642 783.839 139.632 783.061C138.209 781.941 136.682 781.162 135.138 781.526C134.227 781.751 133.332 782.383 132.567 783.441C134.04 783.356 135.522 783.477 137.076 783.833C138.645 784.237 140.66 784.918 142.509 785.91ZM130.497 789.233C130.685 790.88 131.551 792.374 132.784 793.551C135.176 795.823 138.703 797.235 141.468 797.329C142.092 797.346 142.643 797.283 143.13 797.188C143.461 797.087 143.76 797.049 143.891 796.803C144.072 796.542 143.956 796.163 143.861 795.676C143.607 794.667 142.984 793.462 141.99 792.057C141.616 791.5 140.91 791.04 140.218 790.631C138.786 789.824 137.08 789.307 135.805 789.02C133.956 788.547 132.157 788.575 130.497 789.233ZM-8.22846 852.467C-7.81126 852.135 -7.45386 851.613 -7.30363 850.742C-7.12074 849.807 -7.08576 846.337 -9.40256 843.628C-10.8418 841.945 -13.1944 840.488 -17.087 840.426C-19.2276 840.35 -20.9113 840.757 -22.2642 841.579C-23.4422 842.296 -24.4104 843.364 -25.1416 844.876C-25.6664 845.19 -26.1334 845.692 -26.3549 846.328C-26.6426 847.087 -26.5553 847.886 -26.1508 848.539C-26.5497 852.173 -24.9523 855.408 -22.5029 857.869C-19.689 860.685 -15.7021 862.424 -12.7237 862.711C-9.64904 862.97 -7.4391 861.733 -6.61537 859.677C-6.06013 858.268 -6.13153 855.81 -8.22846 852.467ZM-12.9786 847.861C-13.1697 847.402 -13.5004 846.986 -13.9134 846.645C-14.6491 846.094 -15.7192 845.798 -17.1877 845.725C-17.766 845.693 -18.3294 845.709 -18.7553 845.838C-17.9308 846 -17.0919 846.213 -16.3001 846.438C-15.1551 846.814 -14.0402 847.253 -12.9786 847.861ZM-11.6836 857.438C-11.7125 857.344 -11.7398 857.249 -11.7697 857.154C-12.0304 856.459 -12.4162 855.698 -13.1102 854.771C-14.7491 852.426 -16.9191 851.738 -19.0934 851.209C-19.7001 851.081 -20.2597 850.941 -20.8654 850.815C-20.6561 851.682 -20.2553 852.49 -19.6673 853.241C-18.3093 855 -16.2505 856.341 -14.3448 857.003C-13.477 857.31 -12.2619 857.406 -11.6836 857.438ZM-8.31819 848.414C-8.71624 848.121 -9.08597 847.923 -9.52045 847.849C-9.90888 847.76 -10.3497 847.841 -10.7295 847.955C-9.92384 847.712 -9.0523 847.862 -8.31819 848.414ZM112.503 832.38C113.616 832.302 114.903 831.603 115.457 829.678C115.874 828.157 115.897 825.156 114.819 822.278C113.715 819.307 111.554 816.602 108 815.612C101.186 813.747 97.1552 815.275 94.9683 817.952C93.4951 819.741 92.7849 822.176 92.8011 824.961C90.0001 827.822 88.335 831.373 88.5413 834.616C88.8005 838.206 91.1383 841.838 97.116 844.007C98.3846 844.449 99.8087 843.863 100.374 842.659C100.527 842.821 100.741 843.014 100.891 843.175C103.468 845.547 105.761 845.783 107.53 845.144C108.653 844.754 109.692 843.922 110.495 842.646C111.392 841.343 112.007 839.452 112.301 837.348C112.596 835.76 112.597 834.056 112.503 832.38ZM41.6256 865.644C41.8503 865.369 42.0166 865.061 42.153 864.658C43.3571 861.297 42.7714 857.653 40.9082 854.394C38.4222 849.93 33.7101 846.138 29.155 844.57C25.6399 843.361 22.1929 843.577 19.6732 845.321C17.918 846.523 16.5496 848.487 15.9492 851.456C14.3711 859.218 16.7813 865.823 21.2083 869.701C25.7267 873.706 32.4164 874.989 39.5012 871.607C41.1339 870.854 41.9223 869.532 41.942 867.718C41.9596 867.093 41.8536 866.402 41.6256 865.644ZM109.566 823.35C109.004 822.179 108.065 821.119 106.59 820.688L106.482 820.669C107.701 821.282 108.707 822.216 109.566 823.35ZM98.2129 827.146C98.2514 827.445 98.3376 827.728 98.3761 828.027C99.2764 832.196 101.682 836.738 104.472 839.303C104.762 839.575 105.037 839.802 105.345 839.969C105.531 840.068 105.621 840.195 105.762 840.151C106.047 840.067 106.15 839.724 106.316 839.416C106.697 838.631 106.973 837.668 107.161 836.579C107.604 833.604 107.241 829.84 105.858 827.313C105.367 826.377 104.732 825.639 103.85 825.286C102.982 824.98 101.945 825.139 100.725 825.715C99.8071 826.095 98.965 826.557 98.2129 827.146ZM21.2366 852.028C21.2179 852.137 21.1655 852.307 21.1617 852.463C20.004 858.031 21.572 862.876 24.7619 865.734C27.7068 868.304 31.9713 869.081 36.5619 867.176C36.341 866.622 35.9605 865.704 35.5426 865.004C32.9528 860.88 27.5809 855.584 23.9288 853.073C23.282 852.648 22.4816 852.22 22.1258 852.068C21.7812 852.121 21.5164 852.098 21.2366 852.028ZM36.848 858.049C36.6868 857.686 36.5098 857.273 36.301 856.925C34.6177 853.92 31.5476 851.285 28.4573 849.947C31.1668 852.071 34.2888 855.053 36.848 858.049ZM96.9497 838.168C95.8153 836.291 94.8392 834.262 94.0997 832.16C93.8457 832.858 93.7344 833.511 93.7928 834.217C93.9048 835.783 94.9171 837.079 96.9497 838.168ZM78.2184 858.038C78.823 857.649 79.6639 856.671 79.6172 854.98C79.6053 853.744 79.0888 851.526 77.8822 849.411C76.659 847.25 74.7467 845.193 72.0968 844.29C69.8518 843.523 67.0993 843.477 63.7081 845.07C60.7287 846.489 59.2342 848.386 58.5864 850.34C57.9526 852.339 58.2027 854.536 59.2359 856.754C60.9381 860.164 64.6246 863.646 68.228 865.656C70.4157 866.906 72.6333 867.579 74.2908 867.593C76.1039 867.614 77.5617 866.966 78.454 865.818C79.28 864.793 79.811 863.136 79.3325 860.698C79.2405 860.053 78.86 859.135 78.2184 858.038ZM72.6762 850.985C72.4954 850.729 72.268 850.489 71.9919 850.263C71.7651 850.02 71.504 849.842 71.1958 849.675C71.6698 850.05 72.1733 850.516 72.6762 850.985ZM74.2352 862.29C74.2405 862.133 74.2154 861.883 74.1731 861.741C74.0773 861.252 73.5978 860.521 72.9975 859.565C71.8428 857.797 70.0728 855.698 68.289 854.068C67.571 853.407 66.8845 852.84 66.2051 852.477C65.8979 852.312 65.4796 852.128 65.3099 852.076C64.7428 852.248 64.1785 852.263 63.6525 852.061C63.4749 852.838 63.7169 853.642 64.1027 854.403C65.2965 856.988 68.168 859.477 70.8464 860.99C71.8464 861.566 72.8517 861.985 73.7382 862.183C73.8757 862.295 74.079 862.286 74.2352 862.29ZM78.1517 853.718L78.2277 853.799C78.2127 853.752 78.1988 853.706 78.1517 853.718Z" fill="#F8EA2B"/>
</g>
</g>
</g>
</g>
</svg>
