<svg version="1.2" xmlns="http://www.w3.org/2000/svg" viewBox="0 1524.0000000000002 1280 135.99999999999955" width="1280" height="136">
	<style>
		.s0 { fill: #EBF2FB } 
	</style>
	<g id="Layer 1">
		<path class="s0" d="m1240.49 1615.98c14.43-6.95 31.69-13.27 42.11-25.42 28.99-33.81 84.88-152.33 140.27-566.03 66.49-496.75 5.39-818.96-16.75-912.32-4.25-17.92-17.35-31.79-34.87-37.48-67.55-21.91-248.48-74.73-422.81-74.73-190.74 0-859 63.23-1033.15 80.03-25.13 2.42-45.38 20.57-50.26 45.33-17.8 90.23-59.17 321.26-82.17 622.59-22.73 297.96-20.81 638.67-18.61 784.09 0.57 37.14 35.41 64.13 71.92 57.34 156.33-29.09 542.53-83.67 850.34 14.52 316.68 101.03 495.29 40.33 553.98 12.08z"/>
	</g>
</svg>