<svg width="731" height="527" viewBox="0 0 731 527" fill="none" xmlns="http://www.w3.org/2000/svg">
<path d="M687.391 330.876C687.391 330.876 719.806 256.956 729.83 204.116C737.103 165.779 706.284 97.4452 685.959 64.071C662.478 25.5138 613.807 10.2591 562.31 3.40647C538.835 0.282544 484.529 -6.92437 404.585 18.12C384.783 24.3233 303.684 -9.34856 257.171 64.2987C231.331 105.214 212.626 145.77 194.577 172.992C176.527 200.214 83.4937 238.735 46.1774 273.868C8.86112 309.001 -11.4251 410.067 6.76525 468.134C24.9556 526.201 101.866 534.929 145.428 521.283C225.735 496.125 323.346 468.361 360.452 459.55C397.558 450.739 444.086 464.295 496.74 466.556C549.395 468.816 556.621 457.175 606.75 432.094C656.88 407.013 687.391 330.876 687.391 330.876Z" fill="#004AAD"/>
</svg>
