<svg width="83" height="105" viewBox="0 0 83 105" fill="none" xmlns="http://www.w3.org/2000/svg">
<path d="M77.4322 4.62632C77.2965 3.16 76.9438 1.42464 75.4384 0.76547C72.6987 -0.431798 69.6335 0.133203 66.7582 0.133203C64.005 0.106298 61.2653 0.187016 58.5256 0.388803C54.1312 0.738567 49.764 1.3977 45.3696 1.57259C40.5277 1.77437 35.6993 2.09724 30.8845 2.59499C24.8762 3.2138 18.8136 3.13309 12.8596 4.15548C8.6144 4.84155 4.01658 5.2586 0.381747 7.66659C-0.337083 9.77862 0.164733 12.079 0.24611 14.2448C0.585181 20.2446 2.26696 26.0561 2.52466 32.0559C3.08073 38.6476 4.01657 45.1989 4.69472 51.7906C5.6848 61.6244 8.12608 71.2832 8.81778 81.1573C9.3603 87.2782 9.57736 93.4126 10.2284 99.52C10.4861 101.417 10.9201 103.825 12.9409 104.632C15.3822 105.345 17.932 104.672 20.3869 104.417C25.9477 103.596 31.5627 104.847 37.1505 104.282C44.6372 103.65 52.1511 103.65 59.6649 103.435C65.7003 103.085 71.7493 102.937 77.7848 102.533C80.0905 102.466 82.8708 101.148 82.8979 98.5245C83.1421 85.8119 82.6674 73.0724 81.5282 60.4002C79.4259 41.8762 78.5443 23.2311 77.4322 4.62632ZM76.9032 100.502C70.4202 100.852 63.9507 101.188 57.4676 101.497C52.5308 101.645 47.5939 101.672 42.657 101.928C41.1245 101.995 39.6054 102.103 38.0728 102.224C31.4541 102.802 24.8355 101.471 18.2304 102.318C16.63 102.264 13.9717 102.977 13.402 100.932C12.5069 97.1389 12.5205 93.1838 12.1136 89.323C11.7203 84.507 11.2727 79.691 10.6081 74.9019C10.2012 72.0366 9.72655 69.1712 9.12979 66.3327C6.9733 56.1358 5.79331 45.7639 4.31496 35.4593C4.72184 26.8363 1.96859 18.4554 2.15847 9.83241C6.8919 8.19121 11.8152 7.39752 16.7657 6.88632C22.3942 6.30787 28.0906 6.07918 33.692 5.42001C40.487 4.63977 47.3362 4.61286 54.1177 3.6981C59.9225 2.89095 65.7816 2.87749 71.6272 2.76987C72.6716 2.82368 73.7973 2.86404 74.7196 3.4425C75.3842 5.01643 75.1808 6.81908 75.3435 8.50063C76.1166 22.4643 77.0795 36.4145 78.2595 50.3377C80.1583 66.3193 81.067 82.4084 81.0263 98.4976C80.728 100.287 78.3273 100.273 76.9032 100.502Z" fill="#004AAD"/>
<path d="M70.3524 25.3431C70.3117 20.702 69.9591 16.0609 69.3895 11.4467C69.2539 10.1822 68.7656 8.46022 67.1923 8.39296C63.015 8.28534 58.7969 7.96249 54.6196 8.31225C48.6519 8.8638 42.6436 8.54093 36.676 8.93105C31.9697 9.29427 27.2362 8.8907 22.5434 9.48261C20.7396 9.72475 18.8951 9.7113 17.0777 9.85927C15.9926 9.93999 14.9076 10.088 13.8497 10.3974C11.7068 10.9893 9.55027 11.5543 7.54297 12.5094C7.75997 14.877 8.60094 17.164 8.62806 19.5585C8.98069 31.8003 10.5268 43.9478 11.0422 56.1761C11.2863 62.4181 12.2222 68.6196 12.9546 74.8212C13.2937 76.7584 13.2937 78.8704 14.3923 80.5789C15.5044 81.9779 17.5117 81.1977 18.9629 80.8883C21.8789 79.8928 24.9034 79.4623 27.9415 79.0722C29.7318 78.8435 31.5356 78.6417 33.3259 78.3458C39.3885 77.3234 45.5732 77.7269 51.6765 77.1216C57.9154 76.4893 64.2763 77.3637 70.4339 76.0723C72.4954 75.6553 72.9294 73.3415 72.9701 71.5926C73.2685 64.0458 72.9294 56.499 72.1699 48.9925C71.3561 41.1228 70.8407 33.2397 70.3524 25.3431ZM27.1006 77.3368C27.1956 75.2786 26.3953 73.2338 26.5852 71.2025C28.3348 69.0501 30.8304 67.651 33.1089 66.104C34.5059 69.3595 35.2519 72.8437 36.7438 76.0589C33.5294 76.4624 30.3014 76.8929 27.1006 77.3368ZM36.3097 52.1269C33.5294 49.3961 32.7427 45.3604 32.485 41.634C32.3087 36.6566 32.58 31.6657 32.8784 26.6749C33.3395 29.3653 34.2211 32.0693 35.9978 34.2082C37.0693 35.4593 38.7646 36.5221 40.4871 35.984C42.074 35.3786 42.7114 33.6567 43.4167 32.2711C44.5695 34.2889 45.858 36.7776 48.3943 37.2216C50.7406 37.5848 51.5543 34.9347 52.2189 33.2397C52.8699 33.8316 53.2768 35.3383 54.4297 34.9078C55.0536 34.2621 55.5554 33.5356 56.0844 32.8226C55.7724 37.8808 56.2471 43.0869 54.4975 47.9298C53.5075 51.0373 51.7036 54.36 48.3535 55.3824C44.1626 56.6066 39.2936 55.3152 36.3097 52.1269ZM51.039 75.3459C46.726 75.6822 42.413 75.8302 38.0865 75.9109C37.4355 72.2383 35.9842 68.7676 34.5872 65.3238C36.1877 64.6512 37.9508 64.2207 39.3478 63.1445C40.6905 61.8262 40.8262 59.8217 41.0839 58.0729C43.4845 58.6782 45.9936 58.8935 48.4485 58.3688C48.774 59.5392 48.991 60.8441 49.8862 61.7454C50.6457 62.4853 51.6222 62.9293 52.5445 63.4404C51.6765 66.8708 51.0797 70.3684 50.2252 73.7988C50.4829 74.31 50.7541 74.8212 51.039 75.3459ZM51.9342 75.2652C52.9785 71.4043 53.1819 67.3955 53.9143 63.4943C56.5861 64.0727 58.4307 66.2385 59.7056 68.4985C60.438 70.0321 60.3295 71.7944 60.3566 73.4491C60.5329 73.893 60.7093 74.3369 60.9127 74.7809C57.9153 74.9288 54.9044 74.9289 51.9342 75.2652ZM70.3796 73.7316C67.9247 74.6732 65.2257 74.4849 62.6759 74.8212C63.0556 71.4043 62.2147 67.7856 59.8684 65.1624C65.4698 58.0595 66.6634 48.3602 64.6697 39.7372C63.8559 35.8495 61.9164 32.2038 61.74 28.1816C61.618 24.8992 62.3097 21.5764 61.5501 18.3343C61.306 17.4465 60.221 17.5003 59.5157 17.3119C57.0609 17.016 54.7281 16.0878 52.2732 15.9532C48.6926 15.6976 45.112 16.034 41.545 15.7515C39.5784 15.6169 37.5711 15.469 35.591 15.59C34.0584 15.6842 32.5529 15.9263 31.1017 16.4241C28.0093 17.6214 26.6124 20.8768 25.2289 23.6077C22.8555 28.3295 22.8012 33.7105 22.3536 38.8359C21.9739 43.8671 19.3155 48.6427 20.1293 53.7681C21.1058 58.7859 24.6593 62.9158 28.796 65.7812C27.0464 67.2609 24.7542 68.66 24.2931 71.0949C24.2931 73.2473 24.8085 75.3728 25.3103 77.4714C22.1773 77.7808 19.1799 78.7763 16.1011 79.3682C14.7448 74.8212 14.4736 70.0456 13.7412 65.3776C12.8189 59.4451 12.724 53.4453 12.2357 47.4724C11.7068 40.5847 11.0287 33.7105 10.4726 26.8363C10.1064 22.6257 9.98429 18.4016 9.33327 14.2313C12.4392 13.6529 15.4773 12.6036 18.6781 12.6305C21.4449 12.5632 24.171 12.052 26.9514 12.0251C29.786 12.0251 32.6071 11.9175 35.4281 11.783C39.5512 11.5947 43.6744 11.366 47.7975 11.366C52.3411 11.4198 56.8438 10.4915 61.3738 10.7875C63.2726 10.9086 65.185 10.8817 67.0974 10.922C68.2909 18.2133 68.1417 25.6256 68.7656 32.9706C69.4302 44.7146 71.112 56.4048 70.9085 68.1757C70.7187 70.0187 70.9899 71.9558 70.3796 73.7316Z" fill="#004AAD"/>
<path d="M64.2629 81.3722C60.3568 81.8162 56.3151 81.9776 52.6938 83.6861C52.8973 84.0493 53.1007 84.426 53.3177 84.8026C59.4481 83.1749 66.0532 84.7892 71.9801 82.2601C69.5524 81.2646 66.8534 81.0628 64.2629 81.3722Z" fill="#004AAD"/>
<path d="M64.3712 91.1654C60.6821 91.4748 57.0066 91.9188 53.3311 92.3761C53.86 92.8739 54.2669 93.708 55.1078 93.7483C58.1594 94.125 61.2518 93.7887 64.3306 93.8694C66.799 93.9232 69.2674 93.6272 71.6544 93.0219C69.5522 91.5556 66.921 90.9367 64.3712 91.1654Z" fill="#004AAD"/>
<path d="M64.2764 86.0001C60.8043 86.2557 57.2644 86.444 53.9551 87.6278C54.3213 88.0986 54.6468 88.6233 55.1215 89.0403C58.0239 89.1883 60.9128 88.7847 63.8153 88.8923C66.5414 89.0134 69.3896 88.5426 71.6545 86.9687C69.2811 86.1615 66.7719 85.8117 64.2764 86.0001Z" fill="#004AAD"/>
<path d="M43.5792 82.5425C42.6163 82.112 41.5991 81.399 40.4869 81.7488C37.8015 82.3945 36.1604 84.8698 34.8855 87.1164C34.4108 88.0177 33.8818 89.1208 33.7598 90.1835C33.6648 91.0176 33.814 91.8247 34.4107 92.5377C35.8213 94.3538 38.3847 93.8426 40.3784 93.6139C40.4734 95.3896 41.0295 97.125 42.4536 98.2819C43.5928 96.4658 44.0811 94.3672 44.176 92.2552C45.3153 91.7574 46.6038 91.4346 47.5125 90.5333C49.0315 88.7306 49.5604 85.8384 47.9736 83.9012C47.0242 82.408 45.0847 82.6636 43.5792 82.5425Z" fill="#004AAD"/>
<path d="M28.3076 82.1392C27.9821 82.1392 27.643 82.2199 27.3311 82.3948C25.907 82.879 25.5137 84.4396 25.0661 85.6906C23.4657 84.6548 21.5805 83.1615 19.546 83.9418C18.1898 84.4933 18.583 86.2422 18.8136 87.3587C19.6952 91.798 23.5064 94.6634 26.8564 97.327C28.8637 95.1881 30.1657 92.4572 30.6947 89.5784C31.0066 87.8968 31.0473 86.1749 30.8032 84.4933C30.6811 83.2557 29.5282 82.1392 28.3076 82.1392Z" fill="#004AAD"/>
</svg>
