<svg width="107" height="122" viewBox="0 0 107 122" fill="none" xmlns="http://www.w3.org/2000/svg">
<path d="M32.6252 85.6872C33.1372 90.8172 34.7703 95.7393 35.6007 100.828C36.4864 106.055 37.2753 111.296 37.9534 116.565C38.1749 118.339 38.9222 120.322 40.6937 121.057C43.8353 122.277 47.3506 122.083 50.603 121.39C52.9142 120.849 55.6267 120.294 57.0245 118.131C58.796 115.483 58.3947 112.128 58.0349 109.133C57.0107 102.866 56.9 96.4742 55.3223 90.3042C58.7545 88.4324 60.8582 84.5918 60.8997 80.7096C66.3525 80.2936 71.8192 80.8482 77.2859 80.7373C81.4793 80.7373 85.7973 80.9314 89.8385 79.5727C93.4368 77.7841 97.0767 75.6904 99.6232 72.5153C102.654 67.6348 104.605 62.1443 105.671 56.5151C107.304 49.8182 107.277 42.8164 106.128 36.0502C105.284 31.7659 104.439 27.3984 102.46 23.4746C100.869 19.7033 98.8481 16.1539 96.8276 12.6183C93.9212 7.93187 90.0185 3.48119 84.6763 1.63714C80.8427 0.527934 76.7461 -0.692187 72.788 0.472478C69.674 1.48463 66.2418 2.5245 64.2489 5.29751C52.7758 16.7362 40.583 27.5509 27.0477 36.4939C20.7645 40.6673 13.3325 43.6205 8.76543 49.9291C7.03546 52.0782 6.59263 54.879 6.38504 57.5549C2.21928 59.7179 -0.963826 64.6677 0.267908 69.4512C1.26437 74.0128 3.09117 78.3941 5.49928 82.4011C6.50958 83.9817 8.26726 84.8552 10.0387 85.2712C12.6683 85.8674 15.6853 86.6854 18.1349 85.1048C19.3805 86.0615 20.6676 87.1707 22.3007 87.3232C25.8298 87.6283 29.2483 86.5052 32.6252 85.6872ZM41.5656 118.201C40.4307 117.868 40.2924 116.551 40.0571 115.608C38.7285 109.036 37.9119 102.381 36.4034 95.8502C35.49 92.384 34.5765 88.9177 33.9814 85.3821C40.32 84.4116 46.3818 81.9852 52.8034 81.486C52.3467 82.831 52.0146 84.3006 51.032 85.3821C49.8833 86.7132 48.2363 87.8778 48.1671 89.7912C47.9042 93.6734 49.2051 97.4308 49.6064 101.258C50.2154 106.762 51.807 112.142 51.9454 117.688C48.5961 118.686 44.9563 119.324 41.5656 118.201ZM16.6818 46.6847C21.0413 43.6621 25.6914 41.0832 29.9679 37.922C41.7732 29.2425 52.4851 19.1626 62.4359 8.4033C64.0828 6.76722 65.5359 4.77064 67.7641 3.86941C71.0718 2.49677 74.6979 1.24892 78.3239 2.05309C78.9882 2.20561 79.6525 2.35812 80.3306 2.5245C83.0294 3.16229 85.7281 3.95262 87.9978 5.61643C92.1912 8.54195 95.4298 12.6876 97.8379 17.166C103.291 26.7884 105.27 38.13 104.578 49.0973C103.692 55.2118 102.294 61.3678 99.554 66.9277C99.1388 67.8012 98.6683 68.647 98.17 69.4928C97.0905 71.3645 95.4021 72.7094 93.8935 74.1791C92.8694 75.1636 92.1082 76.5501 90.6274 76.8412C84.1781 78.616 77.4382 77.9782 70.8505 78.0891C64.5396 77.6454 58.2425 78.4219 51.9731 79.0597C48.8038 79.3924 45.676 80.0579 42.6035 80.9176C38.424 82.11 34.106 82.6646 29.9264 83.8015C25.3316 80.6957 21.9547 76.0509 19.8511 70.9624C18.6055 67.8705 17.0832 64.8341 16.6956 61.4787C16.1005 56.5705 16.5711 51.6068 16.6818 46.6847ZM6.37119 59.4545C6.50958 61.2708 6.68953 63.0871 6.92481 64.9034C5.181 65.6105 3.46484 66.4008 1.69336 67.0386C2.48222 64.0992 4.29523 61.6174 6.37119 59.4545ZM1.90098 68.0092C3.70015 67.6071 5.43011 66.997 7.17391 66.4008C7.45071 67.4823 7.72749 68.5499 8.03197 69.6314C6.24664 70.3385 4.47515 71.0595 2.74519 71.8637C2.42687 70.5881 2.13626 69.2987 1.90098 68.0092ZM4.94574 77.2849C4.29527 75.9123 3.70012 74.5258 3.17421 73.1115C4.98722 72.4876 6.82793 71.933 8.65477 71.323C9.12532 72.4599 9.62356 73.6107 10.1356 74.7337C8.33647 75.4547 6.62034 76.3421 4.94574 77.2849ZM7.8659 81.5276C7.09087 80.5571 6.38505 79.5588 5.70691 78.5328C7.49223 77.9504 9.30524 77.4236 11.0767 76.7026C11.6303 77.6454 12.2115 78.5882 12.8205 79.5172C11.0905 80.0025 9.42979 80.6957 7.8659 81.5276ZM10.3155 82.3318C11.6441 82.0268 12.9866 81.7356 14.2737 81.2503C14.7581 81.8188 15.2286 82.3873 15.7268 82.9557C13.9138 82.8171 12.1008 82.6368 10.3155 82.3318Z" fill="#004AAD"/>
<path d="M65.7847 55.1559C68.4835 61.6586 72.0818 68.1751 77.9222 72.3485C80.9808 74.6224 85.0773 75.8564 88.814 74.6085C92.8829 73.2914 95.7062 69.6864 97.533 65.9567C101.879 57.0831 102.114 46.7675 100.633 37.159C100.246 35.7309 100.453 33.4016 98.405 33.3738C98.8755 38.7535 99.5952 44.1747 99.0001 49.596C98.4326 55.4054 97.1733 61.3674 93.8656 66.2756C92.0387 68.8823 89.4645 71.378 86.1568 71.7385C82.5585 71.9048 79.3477 69.9499 76.732 67.6621C79.1539 63.6413 81.2991 59.3431 82.0603 54.6706C83.292 47.0309 83.1536 38.8644 79.8321 31.7378C77.9776 27.4535 74.836 23.8763 71.4591 20.7151C69.6184 18.9542 67.1133 18.1916 64.719 17.54C66.366 12.7565 69.1755 7.65418 74.2685 5.96264C79.0294 4.38202 83.9009 7.1273 87.2363 10.3995C89.4783 12.4238 90.8208 15.2245 93.0905 17.2072C92.8414 14.4758 90.9454 12.3267 89.3261 10.2747C86.9042 7.40461 83.6656 4.88117 79.9704 4.0354C78.9601 3.79969 77.9083 3.70263 76.8427 3.74422C73.2028 3.81355 69.8675 5.87944 67.6393 8.66632C64.6084 12.4653 63.086 17.2211 62.2279 21.9352C60.3872 33.0549 61.6882 44.6739 65.7847 55.1559ZM68.9264 31.2941C69.8675 30.2681 71.2376 31.3773 71.8051 32.2785C73.3966 34.8436 74.7667 37.6998 74.9743 40.7501C75.3895 43.6895 75.7078 46.6704 75.4172 49.6376C75.2927 50.9409 74.227 51.8283 73.2997 52.6047C72.3586 49.388 73.2997 45.9079 72.1787 42.7189C71.3898 40.3618 68.3728 39.6547 67.7777 37.2006C67.2933 35.2179 67.75 32.9579 68.9264 31.2941Z" fill="#004AAD"/>
<path d="M60.3875 58.5945C62.7956 63.0591 64.747 68.0366 68.9543 71.1563C68.2346 69.6727 67.3904 68.2446 66.5046 66.8443C64.747 64.1544 63.6121 61.1457 62.2835 58.2479C60.166 53.4922 59.4187 48.2928 58.5329 43.2182C57.6333 35.9252 58.2146 28.4519 59.9169 21.3114C60.9134 17.1103 61.4946 12.6319 64.2487 9.12402C62.5464 10.4689 61.4254 12.3684 60.8441 14.4343C57.7579 24.3479 55.073 34.8021 56.6507 45.2286C57.4673 49.7764 58.2838 54.435 60.3875 58.5945Z" fill="#004AAD"/>
<path d="M54.6997 75.3161C53.8416 73.3334 52.8867 71.2952 51.1152 69.978C51.4474 72.2103 52.776 74.1514 54.6997 75.3161Z" fill="#004AAD"/>
<path d="M48.9009 73.1389C48.4304 72.2238 47.2679 72.2376 46.4375 71.9326C47.3232 73.7628 48.4027 75.4959 49.5929 77.132C49.496 75.7871 49.5929 74.3451 48.9009 73.1389Z" fill="#004AAD"/>
<path d="M46.8802 77.853C46.5204 75.2879 45.1087 72.9309 42.8252 71.6553C43.531 74.0678 44.8458 76.3278 46.8802 77.853Z" fill="#004AAD"/>
<path d="M42.4094 77.9223C42.354 77.2291 42.4924 76.5081 42.2571 75.8703C41.3437 74.567 39.7106 74.1649 38.2852 73.7905C39.5861 75.2464 41.4267 76.1753 42.4094 77.9223Z" fill="#004AAD"/>
</svg>
