<svg width="220" height="148" viewBox="0 0 220 148" fill="none" xmlns="http://www.w3.org/2000/svg">
<mask id="mask0_175_220" style="mask-type:luminance" maskUnits="userSpaceOnUse" x="0" y="23" width="61" height="99">
<path d="M0 23.9355H60.1994V121.132H0V23.9355Z" fill="white"/>
</mask>
<g mask="url(#mask0_175_220)">
<mask id="mask1_175_220" style="mask-type:luminance" maskUnits="userSpaceOnUse" x="-24" y="11" width="116" height="116">
<path d="M27.6776 11.3672L91.0896 77.2956L39.7366 126.688L-23.6753 60.7605L27.6776 11.3672Z" fill="white"/>
</mask>
<g mask="url(#mask1_175_220)">
<mask id="mask2_175_220" style="mask-type:luminance" maskUnits="userSpaceOnUse" x="-24" y="11" width="116" height="116">
<path d="M27.6776 11.3672L91.0896 77.2956L39.7366 126.688L-23.6753 60.7605L27.6776 11.3672Z" fill="white"/>
</mask>
<g mask="url(#mask2_175_220)">
<path d="M58.5044 44.0742C59.2221 45.499 59.8414 46.821 60.0084 48.0837C60.5285 51.9131 58.6236 56.0781 56.7403 59.1151C55.7936 60.6387 54.6484 62.017 53.7021 63.5201C52.7146 65.0834 51.8662 66.7294 50.9983 68.3351C49.6922 70.7181 48.4846 73.2239 47.9898 75.8747C47.8339 76.6373 47.5669 77.4081 47.4812 78.2026C47.3015 80.174 47.3636 82.1708 47.6681 84.1316C47.8253 85.3641 48.2654 86.582 48.5528 87.8671C48.6733 88.4036 48.9562 88.8829 49.057 89.3985C49.2428 90.2085 49.7519 90.9842 49.9384 91.7537L50.1515 92.1812C50.3377 92.9707 50.8566 93.7566 51.0521 94.5768L52.501 98.8373C52.65 99.4652 53.0122 100.027 53.1518 100.624C53.291 101.221 53.5849 101.65 53.7054 102.207C54.1022 104.078 54.4933 105.739 54.3198 107.388C54.2577 108.001 54.1443 108.644 54.0418 109.257C54.0079 109.448 53.883 109.647 53.8389 109.847C53.7376 110.38 53.5764 110.911 53.3649 111.41C52.1708 113.745 50.7851 116.086 48.6998 118.112C48.4124 118.388 48.1172 118.533 47.7996 118.82C46.7132 119.746 44.576 120.833 43.1614 121.027C41.9089 121.164 40.6409 121.079 39.4071 120.783C38.9764 120.663 38.5457 120.524 38.1358 120.345C36.9846 119.97 35.8651 119.484 34.7877 118.919C34.1696 118.585 33.4801 118.279 32.873 117.895C29.7066 115.938 26.777 113.201 23.9609 110.315C22.6969 109 21.5971 107.507 20.3744 106.133C19.1908 104.8 18.2845 103.22 17.1226 101.827C16.7385 101.366 16.467 100.817 16.1028 100.376L12.4142 94.6919C11.9713 94.1493 11.7423 93.4998 11.3691 92.9887L10.1317 90.818C9.77734 90.3677 9.53932 89.6679 9.17516 89.2074L8.8555 88.5461C8.50154 88.0958 8.36396 87.3977 7.96061 86.8963C7.42947 86.2207 7.04775 85.1249 6.65052 84.3011C6.32923 83.7405 6.05815 83.171 5.84831 82.5623C5.76421 82.2079 5.44944 81.8189 5.37473 81.5151C5.23429 80.9583 4.84074 80.4667 4.70928 79.9805C4.57782 79.4943 4.15691 78.8513 4.03607 78.3148L3.63068 77.3999C3.4637 76.6712 3.03503 75.9172 2.87745 75.1986L2.54105 74.3556L1.69923 71.5276L0.937429 68.2277C0.612051 65.7725 0.143785 63.4356 0.038047 61.0857C-0.114231 57.5356 0.314843 54.1177 0.182569 50.5679C0.0739734 47.8449 0.02335 45.2643 0.495699 42.7543C0.83904 41.1585 1.42325 39.6279 2.22669 38.2027C2.5092 37.674 2.74232 37.0739 3.05504 36.5563C4.16834 34.7538 5.43026 33.0653 6.83179 31.48C7.2131 31.0542 7.63156 30.7701 8.05287 30.3451C9.00819 29.4265 10.2236 28.5937 11.3091 27.6878C11.7292 27.3432 12.1954 27.2109 12.6351 26.8668C13.1871 26.4744 13.7982 26.1438 14.4184 25.8637L15.0287 25.573C15.9803 25.3497 16.8679 24.7724 17.7787 24.5887C19.1855 24.2633 20.6209 24.0494 22.0735 23.9567C23.5967 23.8959 25.0917 24.2172 26.5182 24.4462C29.0902 24.859 31.8561 25.6383 34.1292 26.8921C35.3956 27.5918 36.5983 28.4316 37.8227 29.211C38.3502 29.5539 38.7645 30.0054 39.3124 30.3484C40.0187 30.8158 40.6939 31.3327 41.3382 31.8793C41.6852 32.1781 42.0387 32.6489 42.4066 32.9077L43.5987 33.2637C44.3396 33.5197 45.0594 33.8161 45.7681 34.1623C45.9576 34.2566 46.2192 34.2819 46.4087 34.3762C47.8653 35.1302 49.373 35.8549 50.777 36.7187C51.5539 37.1972 52.2892 37.7357 53.0554 38.224C53.3433 38.4412 53.6213 38.6686 53.8883 38.9258C54.9595 39.8129 55.9585 40.7698 56.8853 41.8154L58.0937 43.421C58.2509 43.6256 58.315 43.9595 58.5044 44.0742Z" fill="#004AAD"/>
</g>
</g>
</g>
<mask id="mask3_175_220" style="mask-type:luminance" maskUnits="userSpaceOnUse" x="105" y="17" width="115" height="131">
<path d="M105.14 17.7666H219.895V147.572H105.14V17.7666Z" fill="white"/>
</mask>
<g mask="url(#mask3_175_220)">
<mask id="mask4_175_220" style="mask-type:luminance" maskUnits="userSpaceOnUse" x="100" y="11" width="143" height="143">
<path d="M100.909 74.5636L166.909 11.3398L242.333 90.0764L176.332 153.3L100.909 74.5636Z" fill="white"/>
</mask>
<g mask="url(#mask4_175_220)">
<mask id="mask5_175_220" style="mask-type:luminance" maskUnits="userSpaceOnUse" x="105" y="17" width="115" height="131">
<path d="M219.895 17.7666H105.14V147.572H219.895V17.7666Z" fill="white"/>
</mask>
<g mask="url(#mask5_175_220)">
<mask id="mask6_175_220" style="mask-type:luminance" maskUnits="userSpaceOnUse" x="117" y="24" width="79" height="113">
<path d="M117.577 24.2461H195.439V136.284H117.577V24.2461Z" fill="white"/>
</mask>
<g mask="url(#mask6_175_220)">
<mask id="mask7_175_220" style="mask-type:luminance" maskUnits="userSpaceOnUse" x="100" y="11" width="143" height="143">
<path d="M100.909 74.5645L166.909 11.3408L242.333 90.0773L176.332 153.301L100.909 74.5645Z" fill="white"/>
</mask>
<g mask="url(#mask7_175_220)">
<mask id="mask8_175_220" style="mask-type:luminance" maskUnits="userSpaceOnUse" x="100" y="11" width="143" height="143">
<path d="M176.306 153.274L242.307 90.05L166.883 11.3135L100.882 74.5372L176.306 153.274Z" fill="white"/>
</mask>
<g mask="url(#mask8_175_220)">
<path d="M164.293 24.3299C175.193 23.2048 196.362 42.142 194.209 65.6394C192.055 89.1368 193.576 100.478 195.21 113.977C197.522 132.885 176.576 147.938 150.534 123.56C124.491 99.1819 110.389 81.091 121.381 66.2579C132.372 51.4253 136.259 61.6606 144.425 51.1489C152.59 40.6661 152.104 25.5865 164.293 24.3299Z" fill="#004AAD"/>
</g>
</g>
</g>
</g>
</g>
</g>
<mask id="mask9_175_220" style="mask-type:luminance" maskUnits="userSpaceOnUse" x="20" y="12" width="142" height="105">
<path d="M20.3799 12.4355H161.054V116.321H20.3799V12.4355Z" fill="white"/>
</mask>
<g mask="url(#mask9_175_220)">
<mask id="mask10_175_220" style="mask-type:luminance" maskUnits="userSpaceOnUse" x="19" y="12" width="145" height="105">
<path d="M26.0946 12.3594L163.188 22.7531L156.101 116.232L19.0073 105.839L26.0946 12.3594Z" fill="white"/>
</mask>
<g mask="url(#mask10_175_220)">
<mask id="mask11_175_220" style="mask-type:luminance" maskUnits="userSpaceOnUse" x="20" y="12" width="142" height="105">
<path d="M161.054 12.4355H20.3799V116.321H161.054V12.4355Z" fill="white"/>
</mask>
<g mask="url(#mask11_175_220)">
<mask id="mask12_175_220" style="mask-type:luminance" maskUnits="userSpaceOnUse" x="24" y="15" width="134" height="96">
<path d="M24.9785 15.0498H157.501V110.575H24.9785V15.0498Z" fill="white"/>
</mask>
<g mask="url(#mask12_175_220)">
<mask id="mask13_175_220" style="mask-type:luminance" maskUnits="userSpaceOnUse" x="19" y="12" width="145" height="105">
<path d="M26.0951 12.3594L163.188 22.7531L156.101 116.232L19.0078 105.839L26.0951 12.3594Z" fill="white"/>
</mask>
<g mask="url(#mask13_175_220)">
<mask id="mask14_175_220" style="mask-type:luminance" maskUnits="userSpaceOnUse" x="19" y="12" width="145" height="105">
<path d="M163.226 22.757L26.1332 12.3633L19.0459 105.843L156.139 116.236L163.226 22.757Z" fill="white"/>
</mask>
<g mask="url(#mask14_175_220)">
<path d="M69.0642 15.9195C65.7838 15.6709 62.5088 15.3476 59.2224 15.1732C51.7493 14.8319 44.3995 16.8242 38.159 21.0002C36.9783 21.7355 35.9414 22.5569 34.755 23.3669C30.7263 26.0609 28.3389 29.8544 27.088 34.4836C23.8836 46.089 24.4478 58.4297 28.7671 69.7057C30.0731 73.2542 31.6767 76.8252 33.2922 80.2472C35.4882 84.9131 38.5436 89.1189 42.4016 92.636C44.9217 95.0018 47.5219 97.2987 50.1224 99.5955C54.7606 103.696 59.9254 106.788 66.2293 107.715C70.9727 108.45 75.6305 109.328 80.3683 110.137C85.5592 110.906 90.9041 110.636 96.0297 109.3C101.981 107.951 107.875 106.373 113.826 105.025C120.087 103.55 125.864 100.538 130.619 96.1747C134 93.1312 137.173 89.8476 140.41 86.7184C143.24 84.0084 145.858 81.1322 148.889 78.7374C156.337 72.4785 160.057 60.0121 155.245 49.2991C154.802 48.2156 154.274 47.2758 153.596 46.3246C149.501 40.9899 143.957 36.9699 137.605 34.689C137.387 34.5971 137.169 34.5057 136.946 34.4889C132.994 34.1893 129.528 32.4268 125.88 31.1004C119.97 28.9277 114.055 26.8293 108.215 24.737C104.348 23.3187 100.572 21.6828 96.6082 20.5573C91.5487 19.0488 86.3112 17.902 81.1489 16.7605C78.9231 16.4421 76.7667 16.2037 74.5184 16.1833L69.1503 15.7762L69.1389 15.9252L69.0642 15.9195Z" fill="#F8EA2B"/>
</g>
</g>
</g>
</g>
</g>
</g>
<mask id="mask15_175_220" style="mask-type:luminance" maskUnits="userSpaceOnUse" x="0" y="53" width="113" height="86">
<path d="M0.418945 53.1953H112.979V138.06H0.418945V53.1953Z" fill="white"/>
</mask>
<g mask="url(#mask15_175_220)">
<mask id="mask16_175_220" style="mask-type:luminance" maskUnits="userSpaceOnUse" x="-24" y="27" width="163" height="159">
<path d="M138.336 76.6856L91.876 185.546L-23.6895 136.224L22.771 27.3633L138.336 76.6856Z" fill="white"/>
</mask>
<g mask="url(#mask16_175_220)">
<mask id="mask17_175_220" style="mask-type:luminance" maskUnits="userSpaceOnUse" x="-24" y="27" width="163" height="159">
<path d="M138.336 76.6856L91.876 185.546L-23.6895 136.224L22.771 27.3633L138.336 76.6856Z" fill="white"/>
</mask>
<g mask="url(#mask17_175_220)">
<path d="M86.7668 74.361C86.8264 109.969 113.8 88.9744 112.939 113.535C112.079 138.095 85.4502 145.137 61.1155 130.371C45.1691 120.686 -1.45666 145.695 0.569906 110.215C2.59688 74.7345 30.9799 83.9937 43.4655 65.0593C58.3414 42.543 86.7423 55.9688 86.7668 74.361Z" fill="#9AE85D"/>
</g>
</g>
</g>
<mask id="mask18_175_220" style="mask-type:luminance" maskUnits="userSpaceOnUse" x="58" y="0" width="160" height="147">
<path d="M58.1089 0H217.386V146.631H58.1089V0Z" fill="white"/>
</mask>
<g mask="url(#mask18_175_220)">
<mask id="mask19_175_220" style="mask-type:luminance" maskUnits="userSpaceOnUse" x="48" y="-29" width="190" height="187">
<path d="M237.528 40.3013L172.47 157.402L48.1753 88.3466L113.233 -28.7539L237.528 40.3013Z" fill="white"/>
</mask>
<g mask="url(#mask19_175_220)">
<mask id="mask20_175_220" style="mask-type:luminance" maskUnits="userSpaceOnUse" x="58" y="0" width="160" height="147">
<path d="M217.386 0H58.1089V146.631H217.386V0Z" fill="white"/>
</mask>
<g mask="url(#mask20_175_220)">
<mask id="mask21_175_220" style="mask-type:luminance" maskUnits="userSpaceOnUse" x="80" y="25" width="128" height="99">
<path d="M80.6841 25.084H207.772V123.64H80.6841V25.084Z" fill="white"/>
</mask>
<g mask="url(#mask21_175_220)">
<mask id="mask22_175_220" style="mask-type:luminance" maskUnits="userSpaceOnUse" x="48" y="-29" width="190" height="187">
<path d="M237.528 40.3013L172.47 157.402L48.1753 88.3466L113.233 -28.7539L237.528 40.3013Z" fill="white"/>
</mask>
<g mask="url(#mask22_175_220)">
<mask id="mask23_175_220" style="mask-type:luminance" maskUnits="userSpaceOnUse" x="48" y="-29" width="190" height="187">
<path d="M48.1699 88.3153L113.228 -28.7852L237.523 40.2701L172.465 157.371L48.1699 88.3153Z" fill="white"/>
</mask>
<g mask="url(#mask23_175_220)">
<path d="M105.947 96.9762C110.053 56.8877 77.2308 77.3592 81.0774 49.8144C84.9243 22.2691 115.723 17.4631 141.385 36.936C158.2 49.7062 213.614 27.0179 207.175 66.7185C200.736 106.419 169.872 92.6707 153.599 112.521C134.216 136.122 103.82 117.682 105.947 96.9762Z" fill="#9AE85D"/>
</g>
</g>
</g>
</g>
</g>
</g>
<mask id="mask24_175_220" style="mask-type:luminance" maskUnits="userSpaceOnUse" x="10" y="27" width="53" height="40">
<path d="M10.8687 27.5908H62.707V66.0515H10.8687V27.5908Z" fill="white"/>
</mask>
<g mask="url(#mask24_175_220)">
<mask id="mask25_175_220" style="mask-type:luminance" maskUnits="userSpaceOnUse" x="7" y="20" width="61" height="56">
<path d="M19.0058 20.7568L67.6835 34.4162L56.0785 75.7734L7.40039 62.1141L19.0058 20.7568Z" fill="white"/>
</mask>
<g mask="url(#mask25_175_220)">
<mask id="mask26_175_220" style="mask-type:luminance" maskUnits="userSpaceOnUse" x="7" y="20" width="61" height="56">
<path d="M19.0058 20.7568L67.6835 34.4162L56.0785 75.7734L7.40039 62.1141L19.0058 20.7568Z" fill="white"/>
</mask>
<g mask="url(#mask26_175_220)">
<path fill-rule="evenodd" clip-rule="evenodd" d="M20.5564 62.3945C20.4172 62.2924 20.2735 62.2834 20.178 62.2883C20.0286 62.2985 19.7048 62.4067 19.6779 62.8387C19.6628 63.1171 19.8587 64.2088 20.289 64.9889C20.6144 65.5825 21.0896 65.9777 21.5979 65.9949C21.9498 66.0096 22.3601 65.8528 22.7802 65.3633C23.0762 65.0171 23.2207 64.5762 23.1991 64.1304C23.1358 62.4169 21.6836 61.8838 20.8945 62.1961C20.7634 62.2536 20.6516 62.3165 20.5564 62.3945ZM22.1062 64.2949C22.1074 64.2533 22.1086 64.212 22.107 64.1802C22.0837 63.629 21.8122 63.291 21.5015 63.204C21.395 63.1742 21.2856 63.1538 21.2345 63.2232C21.2043 63.2567 21.2072 63.3204 21.2105 63.3841C21.219 63.5017 21.2668 63.6303 21.3411 63.7764C21.4472 63.9948 21.6608 64.0548 21.8343 64.1455C21.9355 64.1949 22.027 64.2414 22.1062 64.2949ZM12.3938 56.9737C12.1456 56.8516 11.9513 56.7973 11.7978 56.7855C11.4904 56.7622 11.2915 56.8737 11.1425 57.0308C11.0188 57.1741 10.927 57.3893 10.9408 57.6759C10.9559 57.9943 11.1258 58.4712 11.4095 58.9901C11.8647 59.8298 12.6253 60.7762 13.2875 61.213C13.7819 61.5404 14.2546 61.6102 14.6233 61.4518C14.9703 61.2979 15.3063 60.9211 15.4104 60.1025C15.4769 59.5665 15.4133 58.6377 15.1961 57.8441C15.027 57.2521 14.7727 56.741 14.453 56.463C13.7635 55.8612 13.2373 55.8706 12.9323 56.0257C12.6641 56.16 12.4538 56.4989 12.3938 56.9737ZM29.0983 60.2691L29.0791 60.2634C28.8795 60.2283 28.6554 60.2805 28.468 60.5002C28.3059 60.7059 28.1561 61.2399 28.1263 61.42C27.8834 63.3302 28.8681 65.7528 31.2282 65.5878C31.505 65.5715 31.7548 65.4637 31.9769 65.3061C32.052 65.3376 32.1418 65.3523 32.2321 65.367C32.5244 65.4074 32.7946 65.1902 32.8351 64.8979C32.8522 64.7244 32.7861 64.5492 32.6693 64.4431C32.7395 64.3055 32.8024 64.1557 32.8404 64.0197C33.0167 63.5041 32.94 62.844 32.6726 62.1932C32.3141 61.3073 31.6368 60.4369 30.9787 60.0221C30.4721 59.7016 29.9773 59.6363 29.5907 59.8209C29.4123 59.8964 29.2441 60.0482 29.0983 60.2691ZM29.2869 62.9913C29.3955 63.3882 29.5662 63.7503 29.825 64.0218C30.0838 64.2933 30.4182 64.4815 30.8603 64.5113C30.3349 64.1438 29.7095 63.6123 29.2869 62.9913ZM13.47 57.0562C13.4618 57.0851 13.4606 57.1268 13.4622 57.1586C13.452 57.344 13.4655 57.5571 13.5079 57.7784C13.6133 58.3732 13.8533 59.048 14.1656 59.502C14.231 59.6041 14.302 59.6869 14.3759 59.76C14.3959 59.3154 14.3363 58.6704 14.1783 58.1131C14.0811 57.751 13.9631 57.4248 13.7672 57.2652C13.6549 57.1811 13.5492 57.1096 13.47 57.0562ZM12.4714 58.1156C12.373 58.1299 12.2705 58.1221 12.1664 58.0825C12.2995 58.392 12.5118 58.7553 12.7486 59.1044C12.631 58.7782 12.5379 58.4381 12.4714 58.1156ZM31.7499 63.8397C31.776 63.7842 31.7924 63.7258 31.8156 63.6801C31.9124 63.3722 31.8332 62.9836 31.6707 62.5925C31.3988 61.9197 30.8975 61.2448 30.4002 60.9272C30.321 60.8737 30.239 60.8296 30.1614 60.808C30.1226 60.797 30.0769 60.7737 30.0491 60.7974C30.0022 60.8158 29.9736 60.8811 29.9544 60.9489C29.912 61.0628 29.874 61.1983 29.8568 61.3714C29.8128 61.7151 29.9528 62.0373 30.159 62.3463C30.5341 62.9121 31.1388 63.4061 31.5972 63.7127C31.647 63.7584 31.7001 63.794 31.7499 63.8397ZM38.0917 59.631C37.8129 59.8041 37.5096 59.9911 37.2752 60.2291C36.9886 60.5043 36.7714 60.8309 36.6943 61.2175C36.6073 61.6012 36.651 62.043 36.9123 62.5664C37.5369 63.8095 38.7208 64.0683 39.8239 63.7184C40.858 63.3906 41.8076 62.5059 42.0893 61.4645C42.4964 59.9772 41.9273 58.8333 40.8899 57.8306C40.3473 57.3015 39.8566 57.1848 39.4708 57.2542C39.0625 57.3281 38.7041 57.6359 38.4698 58.1356C38.2779 58.5214 38.1501 59.0509 38.0917 59.631ZM18.6372 52.4445C18.6846 52.1649 18.4894 51.8901 18.2 51.8403C17.9101 51.7905 17.626 51.9828 17.5762 52.2727C17.3994 53.2382 17.3018 54.5928 17.6599 55.6669C17.9326 56.4866 18.4588 57.1472 19.3407 57.4366C19.8665 57.6155 20.2474 57.6387 20.5944 57.5583C20.9316 57.475 21.2505 57.2713 21.6448 56.9108C22.6222 56.002 22.5981 54.9692 22.1494 54.0686C21.7469 53.2647 20.9516 52.5915 20.2662 52.2735C19.9428 52.12 19.6366 52.0551 19.3941 52.0604C19.13 52.0698 18.9173 52.1567 18.7613 52.3016C18.7185 52.3421 18.6732 52.3919 18.6372 52.4445ZM38.0689 60.9435C37.9035 61.0856 37.7741 61.2485 37.7365 61.4575C37.6969 61.6351 37.7451 61.8368 37.8655 62.0801C38.0109 62.3826 38.2207 62.5672 38.462 62.6766C38.2607 62.2749 38.1236 61.6813 38.0762 61.0297L38.0689 60.9435ZM40.1665 62.3488C40.5829 62.0573 40.9079 61.6461 41.0413 61.1705C41.3284 60.1099 40.8719 59.3122 40.1416 58.594C40.0346 58.4908 39.9317 58.4095 39.8427 58.3532C39.7803 58.3148 39.7247 58.2887 39.6806 58.2972C39.57 58.3185 39.5124 58.4491 39.452 58.5891C39.3712 58.7651 39.3042 58.9664 39.2516 59.1921C39.3459 59.2293 39.4222 59.2926 39.4806 59.3824C39.6521 59.6294 39.5888 59.9674 39.3446 60.1291C39.2797 60.1736 39.2177 60.2087 39.1401 60.2601C39.1385 60.49 39.1466 60.7227 39.1601 60.9358C39.1965 61.3649 39.2708 61.7727 39.3867 62.0671C39.412 62.1267 39.4541 62.2014 39.4916 62.2536C39.6986 62.1128 39.9909 62.1532 40.1665 62.3488ZM18.5115 53.3411C18.4654 53.8412 18.4723 54.3768 18.5629 54.8736C18.6854 55.5571 18.983 56.1743 19.6709 56.4091C19.7485 56.4311 19.8236 56.4626 19.8914 56.4813C19.4864 55.7608 19.1328 54.7822 18.7764 54.0751C18.6478 53.7877 18.5597 53.5431 18.5115 53.3411ZM19.5974 53.1643C19.6285 53.2778 19.6779 53.4378 19.7518 53.5844C20.1265 54.3384 20.4915 55.4252 20.932 56.0931C21.8624 55.2027 21.0863 54.1265 20.3152 53.5542C20.1094 53.3917 19.893 53.268 19.7044 53.1941C19.6656 53.1835 19.6264 53.1724 19.5974 53.1643ZM48.5544 57.8245C48.5156 57.8139 48.474 57.8127 48.4422 57.8143C48.0462 57.8078 47.6073 58.1033 47.3317 58.6749C47.0382 59.273 46.8777 60.1809 47.0398 61.0219C47.2141 61.9291 47.7318 62.7337 48.7479 63.0297C49.4926 63.249 50.0486 63.1326 50.4459 62.8358C50.828 62.5557 51.086 62.0838 51.2024 61.52C51.3959 60.5692 51.2142 59.3142 50.8529 58.4381C50.6904 58.047 50.4965 57.731 50.292 57.5273C50.0776 57.3203 49.8584 57.2064 49.6343 57.1856C49.3807 57.1562 49.1097 57.2268 48.8557 57.4591C48.7537 57.5248 48.6451 57.6514 48.5544 57.8245ZM29.0771 56.3164C29.1253 56.3299 29.1669 56.3311 29.2155 56.3446C29.498 56.3821 29.7629 56.1841 29.8103 55.9045C30.1479 55.633 30.4484 55.3088 30.695 55.0639C31.7189 54.0637 32.0296 52.9573 31.9295 52.0081C31.812 50.8968 31.1433 49.9975 30.3272 49.6219C30.2896 49.5692 30.2492 49.5267 30.1965 49.4908C29.1175 48.7482 27.9352 49.1181 27.015 50.0848C26.2985 50.8466 25.7625 51.9734 25.6416 53.0389C25.551 53.8089 25.6792 54.5462 26.0613 55.1247C26.6263 55.9845 27.2783 56.2723 28.2896 56.3989C28.5721 56.4364 28.8321 56.4046 29.0771 56.3164ZM48.0658 59.8649C48.0662 60.0119 48.0796 60.1515 48.0927 60.2912C48.1674 60.9195 48.4699 61.2975 48.6577 61.8213C48.0633 61.4032 47.9649 60.559 48.0658 59.8649ZM49.5216 58.2948C49.5065 58.3115 49.4885 58.3381 49.4832 58.3577C49.4624 58.3936 49.442 58.4295 49.4187 58.4757C49.4983 58.6026 49.5722 58.7488 49.6408 58.9145C49.7531 59.1868 49.6216 59.5061 49.3493 59.6179C49.2775 59.6502 49.2109 59.6629 49.1378 59.6633C49.1301 59.8392 49.1448 60.0107 49.1623 60.1728C49.2301 60.7149 49.5195 61.0268 49.6751 61.4788C49.7045 61.56 49.8466 61.7258 49.8939 61.7809L49.9037 61.7837C49.9135 61.7862 49.9229 61.789 49.9204 61.7988L49.9396 61.8041C50.0319 61.6625 50.0907 61.4906 50.1352 61.2938C50.2352 60.788 50.1964 60.1801 50.0805 59.6241C49.9968 59.2134 49.8633 58.8304 49.6931 58.5422C49.6567 58.4479 49.5787 58.3528 49.5216 58.2948ZM27.3069 51.5064C27.0089 52.0093 26.7917 52.5972 26.7264 53.1651C26.668 53.6721 26.7198 54.158 26.968 54.5417C27.1816 54.863 27.4208 55.0557 27.7107 55.179C27.6155 54.9953 27.5331 54.8046 27.4584 54.585C27.1493 53.5978 27.1187 52.3645 27.3069 51.5064ZM12.3044 47.1083C12.2656 47.0972 12.224 47.096 12.1921 47.0976C12.0774 47.0968 11.9443 47.1225 11.8243 47.2144C11.732 47.2826 11.6055 47.4357 11.5177 47.6729C11.4042 47.9656 11.3136 48.4004 11.2842 48.5808C11.1348 49.7844 12.0484 50.669 13.0519 50.8985C13.7615 51.0557 14.4833 50.8707 14.9168 50.333C15.1757 50.0077 15.3381 49.5402 15.2908 48.8886C15.2479 48.2587 14.7568 47.2103 14.2252 46.6424C13.8219 46.215 13.3585 46.0746 13.0131 46.1868C12.7559 46.2824 12.4555 46.533 12.3044 47.1083ZM29.0297 55.141C29.0697 55.1104 29.1073 55.0896 29.1473 55.059C29.4547 54.8206 29.7303 54.5107 29.9589 54.2923C30.4594 53.815 30.7309 53.2945 30.8379 52.8009C31.0044 52.0208 30.7297 51.2843 30.2847 50.8556C30.0304 50.6062 29.7262 50.458 29.4123 50.4955C29.0538 50.5417 28.7325 50.8283 28.4749 51.3737C28.1883 51.984 28.1736 53.2676 28.4982 54.238C28.6121 54.6156 28.7758 54.9651 29.0297 55.141ZM12.3465 48.7115C12.3052 49.045 12.4297 49.3104 12.6273 49.5018C12.5069 49.2589 12.4171 48.9825 12.3465 48.7115ZM13.3618 47.3316C13.3344 47.4287 13.3018 47.5451 13.2887 47.6672C13.2418 48.0203 13.4014 48.6829 13.6684 49.1871C13.7521 49.3361 13.8411 49.4659 13.9386 49.5663C13.9815 49.5994 14.0219 49.6423 14.0705 49.6558C14.1877 49.5002 14.2281 49.281 14.2101 48.9723C14.186 48.6098 13.9399 48.0697 13.6484 47.6529C13.5733 47.5479 13.452 47.4198 13.3618 47.3316ZM55.7952 55.711C55.6205 55.662 55.456 55.6889 55.3216 55.7559C55.1187 55.8457 54.9011 56.0988 54.8354 56.5197C54.7521 57.0406 54.8807 57.9249 55.2824 58.5822C55.5935 59.0774 56.0455 59.4453 56.6521 59.5212C57.1784 59.5853 57.5727 59.4865 57.8695 59.2869C58.1786 59.0807 58.3905 58.7737 58.5089 58.3883C58.7665 57.5077 58.4652 56.1564 57.9986 55.2823C57.7458 54.803 57.4352 54.4544 57.1674 54.327C56.9289 54.2074 56.7113 54.1988 56.4986 54.2858C56.239 54.3907 55.9038 54.7258 55.7997 55.5448C55.7915 55.5738 55.7948 55.6375 55.7952 55.711ZM37.8284 47.8113C37.8215 47.799 37.8076 47.7741 37.7908 47.759C37.6043 47.5288 37.2732 47.4777 37.0331 47.6614C35.452 48.8927 34.9392 50.8323 35.5483 52.2804C35.9631 53.2655 36.8915 54.06 38.3975 54.2523L38.4167 54.2576C38.5237 54.2878 38.6523 54.3135 38.7866 54.3196C39.0679 54.3254 39.3777 54.2657 39.3777 54.2657C39.621 54.2188 39.7958 54.0061 39.8031 53.7567C40.0709 53.6227 40.3261 53.4219 40.5935 53.141C42.3098 51.2777 41.7795 48.0199 38.8576 47.65C38.4657 47.5924 38.124 47.6537 37.8284 47.8113ZM55.9993 56.7732C55.9622 56.7941 55.9275 56.8055 55.8932 56.8165C55.892 56.8582 55.8907 56.8998 55.8895 56.9414C55.8952 57.257 55.9871 57.6387 56.1684 57.9617C56.2733 58.1482 56.4153 58.3136 56.5982 58.4071C56.5844 58.3822 56.5705 58.3573 56.5566 58.3324C56.3664 57.9649 56.1447 57.3374 55.9993 56.7732ZM38.3542 52.7642C38.5445 52.8699 38.751 52.9173 38.9544 52.901C39.234 52.8748 39.51 52.7115 39.7982 52.3943C40.9442 51.1459 40.6719 48.9442 38.72 48.7C38.3154 48.6494 38.0909 48.8899 37.9611 49.241C38.0362 49.2724 38.108 49.3136 38.1803 49.3549C38.4428 49.5018 38.529 49.8293 38.382 50.0918C38.2611 50.2988 38.0235 50.3996 37.7974 50.3465C37.7925 51.0361 37.9276 51.786 38.1697 52.3772C38.2313 52.5307 38.2914 52.6523 38.3542 52.7642ZM56.8746 55.595C56.8718 55.6048 56.8665 55.624 56.8636 55.6338L56.8583 55.6534C56.8693 55.6877 56.9665 56.3119 57.1028 56.7585C57.2167 57.1358 57.4254 57.6236 57.5054 57.8241L57.5066 57.7824C57.5405 57.3628 57.4397 56.8635 57.2939 56.414C57.1967 56.1253 57.0057 55.7991 56.8701 55.573L56.8746 55.595ZM23.1962 42.6901C23.0284 42.6534 22.879 42.664 22.7336 42.6963C22.3715 42.7934 22.0286 43.158 21.8526 43.7471C21.6044 44.5571 21.6199 45.8072 21.9927 46.7176C22.2099 47.2499 22.5524 47.6704 22.9966 47.8786C23.4501 48.0897 24.029 48.1162 24.7459 47.7623L24.7806 47.7513C24.9831 47.85 25.1938 47.9195 25.4183 47.9407C25.7106 47.9807 25.9809 47.7635 26.0209 47.4712C26.0519 47.2495 25.9331 47.0384 25.7527 46.9352C26.1903 46.4195 26.5251 45.7492 26.6717 45.0784C26.9342 43.8439 26.5904 42.606 25.2024 42.07C24.6169 41.843 24.1531 41.8908 23.7955 42.0835C23.5526 42.2039 23.3456 42.4178 23.1962 42.6901ZM22.8965 44.019C22.8831 44.0676 22.872 44.1064 22.8582 44.155C22.8173 44.3007 22.7932 44.4611 22.7761 44.6346C22.7247 45.1539 22.783 45.7671 22.9623 46.2464C23.0802 46.5726 23.2533 46.8515 23.5444 46.9331C23.6318 46.9576 23.7245 46.9629 23.8253 46.9388C23.7808 46.8739 23.7363 46.809 23.6918 46.7445C23.1827 45.9839 22.8953 44.9192 22.8965 44.019ZM24.7798 46.411C25.175 46.0092 25.4853 45.4263 25.6143 44.8551C25.7645 44.1329 25.6167 43.3903 24.8137 43.0812C24.5961 42.9992 24.4254 42.9722 24.3013 43.0421C24.0776 43.1678 24.0127 43.474 23.9853 43.8328C23.9249 44.5693 24.1523 45.5128 24.5957 46.1709C24.6475 46.2485 24.7182 46.3309 24.7798 46.411ZM17.9865 38.946C18.0155 38.8807 18.0249 38.8101 18.0244 38.7366C18.0155 38.3573 17.8154 38.1757 17.6391 38.0948C17.4533 38.0111 17.1112 37.9989 16.7556 38.2969C16.2743 38.7064 15.5043 39.8826 15.2871 41.0673C15.1495 41.8557 15.2446 42.6362 15.7211 43.2515C16.0375 43.6544 16.5168 43.9982 17.2443 44.2023C17.8362 44.3685 18.1151 44.1954 18.5552 43.8582C19.5056 43.12 19.6852 42.1447 19.4942 41.2221C19.3129 40.3753 18.7899 39.5903 18.2906 39.1673C18.2004 39.0791 18.0947 39.0077 17.9865 38.946ZM48.6687 46.8964C48.0519 47.0058 47.4811 47.4736 47.1092 48.1648C46.5671 49.1642 46.4352 50.6033 47.0966 51.6786C47.5432 52.4008 48.3336 52.9785 49.6081 53.1373C50.4683 53.2427 51.0864 52.7564 51.6694 52.2082C54.1822 49.8566 53.5882 46.9368 52.1548 45.9272C51.4645 45.4401 50.572 45.3364 49.6526 45.8533C49.2342 46.1125 48.9161 46.4632 48.6687 46.8964ZM16.6143 40.4035C16.491 40.6934 16.3918 41.011 16.3433 41.3323C16.2775 41.7536 16.2947 42.177 16.5123 42.5207C16.7021 42.8151 17.0283 43.0323 17.5329 43.1735C17.7076 43.2229 17.7697 43.1143 17.902 43.0155C17.9142 43.0086 17.9297 42.9918 17.942 42.9849C17.8032 42.8832 17.7121 42.7216 17.7101 42.5428C17.6917 42.4958 17.5647 42.2402 17.4668 42.0663C17.1447 41.5364 16.725 40.9057 16.6441 40.5582C16.6315 40.4921 16.6229 40.4476 16.6143 40.4035ZM48.2042 48.4408C48.1507 48.52 48.0968 48.5992 48.0531 48.6808C47.6714 49.3696 47.5571 50.3739 48.02 51.1108C48.1792 51.3651 48.4005 51.5839 48.7083 51.7542C48.6736 51.6921 48.6414 51.6203 48.6091 51.5484C48.2817 50.776 48.0792 49.5574 48.2042 48.4408ZM50.4561 51.8677C50.6288 51.7383 50.7872 51.5839 50.9456 51.4292C52.5614 49.9252 52.6149 48.1293 51.9017 47.1646C51.5155 46.6375 50.8639 46.4232 50.2025 46.8033C50.0629 46.8894 49.9405 46.9911 49.8343 47.1083C49.998 47.196 50.1703 47.3279 50.3344 47.4892C50.5487 47.6957 50.5585 48.0338 50.352 48.2477C50.1454 48.462 49.8074 48.4718 49.5934 48.2652C49.5195 48.1922 49.4501 48.1411 49.3807 48.0905C49.1864 48.8944 49.2476 49.8329 49.4395 50.567C49.5142 50.8601 49.6094 51.1173 49.709 51.3231C49.7437 51.3851 49.7882 51.45 49.8261 51.5027C50.0278 51.4545 50.2511 51.517 50.3903 51.6921C50.4087 51.7395 50.4434 51.8015 50.4561 51.8677ZM59.6438 48.3008C59.4132 48.1526 59.2013 48.1244 59.0241 48.1583C58.8469 48.1926 58.6828 48.293 58.5411 48.4624C58.3909 48.6612 58.2737 49.005 58.226 49.4733C58.1382 50.4955 58.4035 52.1612 59.0106 53.2423C59.5136 54.1371 60.2497 54.6475 61.1474 54.4699C61.4793 54.4062 61.7843 54.1776 62.0231 53.7738C62.4007 53.1365 62.6269 51.9959 62.642 50.8589C62.6526 49.8885 62.5167 48.9184 62.2244 48.2816C61.9529 47.6823 61.5471 47.3381 61.0817 47.2805C60.6771 47.2299 60.366 47.3312 60.1231 47.5247C59.9051 47.7043 59.7487 47.964 59.6438 48.3008ZM30.9791 39.912C29.8936 39.5654 29.164 39.8528 28.7386 40.3615C28.1259 41.0898 28.1422 42.4868 28.8093 43.6161C29.3437 44.5093 30.25 45.2348 31.4862 45.2674C32.2443 45.7002 33.071 45.7018 33.7112 44.9498C33.7895 44.8567 33.9529 44.5359 34.119 44.2056C34.2962 43.9835 34.4362 43.7083 34.5358 43.3911C34.9012 42.1639 34.6951 41.0698 34.1325 40.3884C33.5393 39.667 32.5342 39.3327 31.2318 39.7944C31.1477 39.8336 31.0636 39.8728 30.9791 39.912ZM17.6554 40.0883C17.6684 40.1549 17.684 40.2116 17.6938 40.2876C17.7178 40.3884 17.8015 40.5378 17.902 40.7019C18.0796 41.0028 18.2996 41.3368 18.4698 41.6254C18.4409 41.3556 18.3555 41.1012 18.2449 40.8612C18.1134 40.5831 17.8501 40.2896 17.6554 40.0883ZM59.5405 49.3398C59.474 49.3524 59.4009 49.3528 59.3303 49.3434L59.3274 49.3532C59.2813 49.5917 59.2772 49.9044 59.2943 50.2547C59.347 51.1487 59.5985 52.2661 60.088 52.9479C60.2007 53.1051 60.3191 53.2431 60.4538 53.3227C60.3252 53.0353 60.1819 52.6499 60.0455 52.2033C59.7896 51.3251 59.5613 50.2355 59.5405 49.3398ZM61.3368 52.6389C61.481 52.1245 61.5557 51.486 61.5663 50.8503C61.5724 50.046 61.4797 49.2557 61.2405 48.7282C61.1972 48.6216 61.1384 48.5318 61.0772 48.4518C61.0396 48.3996 60.9992 48.3567 60.9384 48.3502C60.8869 48.3461 60.8457 48.3449 60.811 48.3563C60.7363 48.3979 60.7118 48.4853 60.682 48.5923C60.6138 48.8348 60.6003 49.145 60.6224 49.4757C60.6742 50.4849 61.0127 51.7419 61.2891 52.5103C61.307 52.5572 61.3156 52.6017 61.3368 52.6389ZM33.5573 42.8861C33.7708 42.0141 33.6091 41.2466 33.0841 40.8795C32.7269 40.6223 32.2121 40.5929 31.594 40.8171C31.2457 40.9391 30.9526 41.2759 30.6599 41.4972C30.5374 41.5989 30.5203 41.772 30.539 41.9659C30.5664 42.4656 30.8379 43.0649 31.2029 43.5548C31.3768 43.792 31.5691 44.0031 31.7842 44.1684C32.0198 44.1505 32.2631 44.1035 32.5203 44.0084C32.8338 43.8973 33.0825 43.7577 33.267 43.5479C33.3931 43.2482 33.5189 42.9486 33.5573 42.8861ZM29.7323 40.9228C29.7074 40.9371 29.6825 40.951 29.658 40.9649C29.4331 41.1322 29.3608 41.4258 29.3514 41.7581C29.3437 42.1223 29.4396 42.526 29.6392 42.8963C29.5356 42.595 29.4731 42.2949 29.4539 42.0275C29.4294 41.5915 29.5262 41.2106 29.7323 40.9228ZM42.9842 36.9366L42.916 36.9174C41.9362 36.7158 40.9389 36.8758 40.2383 37.4327C40.0232 37.6029 39.8386 37.8127 39.6872 38.0528C39.4586 38.0095 39.2622 38.0381 39.1132 38.1222C38.8229 38.2606 38.5784 38.6105 38.5334 39.1424C38.46 39.9279 38.7776 41.2208 39.5104 42.1904C40.0967 42.9731 40.936 43.5642 41.9991 43.5801C42.8907 43.872 43.8828 43.7316 44.667 42.9151C45.8159 41.7303 46.1123 40.5991 45.9461 39.6625L45.9416 39.6405C46.0355 38.6721 45.782 37.7846 45.2243 37.2722C44.7446 36.855 44.0004 36.6353 42.9842 36.9366ZM43.0157 38.0552C42.8373 38.1308 42.6442 38.223 42.4327 38.3418C41.3239 38.9726 40.8429 39.7172 40.805 40.4496C40.7997 40.5423 40.7972 40.6256 40.8046 40.7113C41.1499 41.1224 41.6554 41.4107 42.1596 41.4789C42.4519 41.5193 42.6597 41.7867 42.629 42.0818C42.609 42.2647 42.4951 42.4105 42.3457 42.4942C42.4662 42.4758 42.5988 42.4501 42.7246 42.4121C43.9608 42.0365 44.6752 40.8342 44.8483 39.7315L44.8512 39.7217C44.6299 38.906 43.8644 38.3141 43.0157 38.0552ZM23.2848 31.8171C23.2456 31.8061 23.2166 31.7979 23.1848 31.7996C22.9827 31.7743 22.7753 31.8416 22.5989 32.0225C22.4405 32.1768 22.2842 32.5099 22.2005 32.9574C22.0629 33.7457 22.1086 34.9627 22.4924 35.8343C22.8071 36.5406 23.3285 37.0322 24.0723 37.1048C24.5018 37.1416 25.0137 37.0342 25.6224 36.6921C26.7962 36.0164 27.0391 34.9644 26.7921 33.9425C26.5716 33.0117 25.9001 32.1217 25.2277 31.682C24.6279 31.2831 24.0225 31.239 23.5836 31.5346C23.4746 31.5877 23.3738 31.6853 23.2848 31.8171ZM23.2317 34.43C23.2676 34.7121 23.326 34.9901 23.4142 35.2346C23.5363 35.5833 23.7135 35.8841 24.0188 35.9907C24.2005 36.0519 24.4234 36.0413 24.6708 35.9433C24.4083 35.7964 24.1666 35.6135 23.9384 35.382C23.713 35.1407 23.4411 34.8027 23.2317 34.43ZM25.6612 35.1742C25.809 34.8705 25.8241 34.5185 25.7408 34.1813C25.5784 33.5285 25.1268 32.8994 24.6618 32.5802C24.5561 32.5087 24.4548 32.4593 24.3605 32.4226C24.2924 32.4034 24.2368 32.3773 24.1874 32.4054C24.1278 32.4307 24.1062 32.5083 24.069 32.6026C24.0025 32.8035 23.9772 33.079 23.9943 33.4293C23.9976 33.5665 24.069 33.7224 24.1429 33.869C24.3009 34.1646 24.5377 34.4402 24.7255 34.6292C24.9913 34.9129 25.3036 35.1056 25.6612 35.1742ZM56.4398 39.498C56.3321 39.5094 56.2129 39.5601 56.092 39.6936C55.9581 39.834 55.5719 40.4268 55.6735 41.1465C55.7368 41.5932 55.9814 42.1018 56.644 42.5387C57.0036 42.7865 57.338 42.9012 57.6605 42.9077C57.9414 42.9135 58.2251 42.8359 58.5162 42.6558C58.6407 42.6595 58.7763 42.6244 58.8841 42.5395C59.0163 42.4403 59.089 42.2933 59.091 42.137C59.5577 41.556 59.6373 40.8244 59.4858 40.1328C59.3107 39.3404 58.8155 38.6047 58.3345 38.2292C57.8344 37.8478 57.3192 37.8185 56.9522 38.0822C56.7028 38.263 56.4456 38.6937 56.4398 39.498ZM56.7522 40.8105C56.7346 40.9102 56.746 41.0183 56.7799 41.1216C56.8456 41.2972 56.9975 41.4654 57.2421 41.6389C57.3376 41.7075 57.4364 41.7667 57.5238 41.7912C57.4001 41.6728 57.2788 41.5446 57.1674 41.4192C57.0114 41.2286 56.8681 41.0314 56.7522 40.8105ZM57.5785 39.022C57.5727 39.0412 57.5674 39.0608 57.5621 39.08C57.5311 39.2286 57.5135 39.4017 57.5315 39.6368C57.5564 40.2198 57.8544 40.5754 58.17 40.9048C58.2607 40.993 58.3415 41.0784 58.4317 41.1665C58.4905 40.9947 58.5105 40.8118 58.4913 40.6183C58.4505 40.1667 58.2435 39.7111 57.9888 39.3882C57.8728 39.2408 57.6744 39.0906 57.5785 39.022ZM56.0112 40.2047C56.0475 40.2986 56.0896 40.3733 56.1561 40.4337C56.2133 40.4917 56.2978 40.526 56.3753 40.5476C56.2104 40.5015 56.0769 40.3802 56.0112 40.2047ZM33.4813 29.7269C33.2813 29.6183 32.9837 29.5975 32.6775 29.8677C32.439 30.0833 32.1063 30.5973 31.9765 31.2096C31.841 31.8416 31.9165 32.5434 32.4186 33.1031C33.3862 34.1699 34.2468 34.3487 34.9159 34.1283C35.365 33.9821 35.7537 33.6412 36.0562 33.1607C36.8514 32.9753 37.5263 32.5471 37.8464 31.967C38.195 31.3215 38.1905 30.4409 37.401 29.4133C37.2307 29.1982 36.9217 29.1427 36.6926 29.288C36.6841 29.2435 36.6686 29.1868 36.6604 29.1427C36.4771 28.4527 36.1088 28.1608 35.7345 28.0767C35.4989 28.0212 35.229 28.0502 34.9514 28.1816C34.6542 28.3074 34.3411 28.565 34.0602 28.8944C33.8357 29.1353 33.6487 29.428 33.4813 29.7269ZM49.3117 31.7714C49.2427 31.7939 49.1807 31.829 49.1129 31.8833C48.5377 32.3291 48.2393 33.0198 48.2025 33.7845C48.1413 34.8243 48.5357 35.9923 49.1472 36.7607C49.6192 37.3539 50.2356 37.6943 50.8598 37.6707C51.293 37.656 51.7437 37.4686 52.172 37.0232C53.2934 35.8621 53.6025 34.4622 53.2665 33.3105C52.9285 32.127 51.9188 31.1737 50.3299 30.979C49.967 30.9296 49.6865 31.0704 49.4844 31.3803C49.413 31.486 49.3554 31.6163 49.3117 31.7714ZM32.9971 31.6008C32.9653 31.8641 33.011 32.149 33.2172 32.385L33.2335 32.4001C33.0914 32.1613 33.0208 31.8902 32.9971 31.6008ZM35.365 32.1919C35.3907 32.1364 35.407 32.078 35.4332 32.0225C35.7353 31.2072 35.819 30.1629 35.6202 29.4162C35.6006 29.3374 35.5781 29.268 35.543 29.2059C35.5222 29.1688 35.5205 29.1369 35.4916 29.1288C35.4332 29.1125 35.3781 29.1598 35.316 29.1945C35.1641 29.288 35.011 29.4231 34.8596 29.5901C34.4575 30.0531 34.1076 30.7402 34.0692 31.3256C34.0508 31.5403 34.0794 31.7371 34.1921 31.8943C34.3076 32.0417 34.5036 32.1282 34.7763 32.1629C34.9759 32.198 35.1711 32.2107 35.365 32.1919ZM51.3257 36.3463C51.3408 36.3296 51.3685 36.3059 51.3865 36.2793C52.1952 35.449 52.4561 34.4438 52.221 33.6032C51.996 32.8386 51.3477 32.238 50.3503 32.0629C50.3271 32.1821 50.292 32.3817 50.2875 32.5479C50.2809 33.5404 50.6247 35.0399 50.9774 35.8715C51.0419 36.0152 51.1326 36.1769 51.1771 36.2418C51.2424 36.2704 51.2852 36.3034 51.3257 36.3463ZM49.3011 33.6004C49.2889 33.6808 49.2742 33.771 49.2717 33.8539C49.2321 34.5549 49.4714 35.344 49.8559 35.9127C49.6232 35.2505 49.413 34.3961 49.3011 33.6004ZM36.7894 30.4352C36.7792 30.8822 36.7245 31.3382 36.6216 31.7804C36.7416 31.6885 36.8323 31.5881 36.8996 31.4607C37.0519 31.1786 37.0201 30.8451 36.7894 30.4352ZM42.1869 29.0708C42.0399 29.0716 41.7885 29.1476 41.6113 29.4431C41.4778 29.6571 41.3235 30.0951 41.2998 30.5911C41.2728 31.0966 41.3765 31.6595 41.7333 32.1049C42.0354 32.483 42.5033 32.7924 43.2614 32.8896C43.9289 32.9725 44.3935 32.8096 44.7189 32.545C45.0471 32.2707 45.2447 31.8657 45.31 31.3709C45.3909 30.5981 45.1382 29.5954 44.7389 28.8553C44.5001 28.4009 44.1922 28.0424 43.9089 27.8583C43.5991 27.6562 43.2778 27.6076 42.9985 27.7072C42.7442 27.793 42.4711 28.02 42.2865 28.4915C42.2318 28.6123 42.1967 28.812 42.1869 29.0708ZM42.3669 30.8904C42.3702 30.9541 42.3829 31.0206 42.4053 31.0896C42.4184 31.1562 42.4433 31.2158 42.4784 31.2778C42.4376 31.1615 42.4025 31.0259 42.3669 30.8904ZM43.3374 28.7761C43.3194 28.8026 43.2961 28.8483 43.288 28.8773C43.2512 28.9716 43.2533 29.1504 43.2516 29.3803C43.2565 29.8106 43.3308 30.3654 43.4594 30.841C43.5101 31.0333 43.566 31.206 43.6431 31.3427C43.6778 31.4048 43.7293 31.4824 43.753 31.5097C43.8697 31.5424 43.9681 31.6016 44.0363 31.6938C44.1522 31.5799 44.1984 31.415 44.2155 31.2419C44.2931 30.6671 44.0722 29.9245 43.7775 29.3705C43.6689 29.1623 43.5419 28.9798 43.4113 28.8491C43.3998 28.8144 43.3639 28.794 43.3374 28.7761ZM41.7252 29.8208L41.7211 29.7983C41.7182 29.8081 41.7154 29.8179 41.7252 29.8208Z" fill="#FF914D"/>
</g>
</g>
</g>
<mask id="mask27_175_220" style="mask-type:luminance" maskUnits="userSpaceOnUse" x="96" y="109" width="53" height="35">
<path d="M96.0469 109.321H148.408V143.079H96.0469V109.321Z" fill="white"/>
</mask>
<g mask="url(#mask27_175_220)">
<mask id="mask28_175_220" style="mask-type:luminance" maskUnits="userSpaceOnUse" x="91" y="104" width="61" height="43">
<path d="M151.123 131.394L98.6703 146.105L91.2192 119.539L143.673 104.828L151.123 131.394Z" fill="white"/>
</mask>
<g mask="url(#mask28_175_220)">
<mask id="mask29_175_220" style="mask-type:luminance" maskUnits="userSpaceOnUse" x="91" y="104" width="61" height="43">
<path d="M151.123 131.394L98.6698 146.105L91.2188 119.539L143.672 104.828L151.123 131.394Z" fill="white"/>
</mask>
<g mask="url(#mask29_175_220)">
<path fill-rule="evenodd" clip-rule="evenodd" d="M114.786 119.551C114.817 119.542 115.518 119.266 116.143 119.08C118.034 118.493 120.931 117.714 121.484 117.469C121.885 117.289 122.032 117.01 122.075 116.919C122.286 116.465 122.206 116.058 121.951 115.712C121.879 115.619 121.75 115.441 121.518 115.337C121.603 115.279 121.675 115.214 121.716 115.157C121.931 114.916 121.989 114.64 122.01 114.476C122.045 114.116 121.945 113.84 121.801 113.609C121.663 113.4 121.479 113.225 121.223 113.117C121.031 113.035 120.747 112.99 120.442 113.03L120.387 113.035C120.195 112.874 119.931 112.779 119.556 112.85C119.396 112.883 119.226 112.92 119.066 112.954C119.041 112.904 119.005 112.858 118.969 112.811C118.849 112.664 118.643 112.452 118.256 112.402C118.222 112.4 118.098 112.401 117.875 112.452C117.615 112.288 117.307 112.239 117.02 112.342C116.824 112.408 115.663 112.858 115.414 113.018C115.091 113.233 114.985 113.5 114.952 113.622C114.903 113.771 114.889 113.922 114.903 114.054C114.87 114.096 114.848 114.137 114.815 114.18C114.181 114.335 113.92 114.453 113.892 114.472C113.76 114.566 113.683 114.655 113.635 114.725C113.362 115.118 113.404 115.512 113.524 115.818C113.538 115.87 113.686 116.235 114.034 116.431C113.678 116.768 113.638 117.152 113.636 117.344C113.638 117.434 113.641 117.523 113.665 117.607L113.654 117.61C113.184 117.945 113.071 118.632 113.4 119.16C113.684 119.69 114.317 119.852 114.786 119.551ZM137.948 112.208C138.028 112.129 138.073 112.049 138.103 111.995C138.296 111.636 138.271 111.304 138.181 111.025C138.103 110.787 137.954 110.536 137.632 110.355C137.538 110.302 137.393 110.229 137.164 110.215C137.061 110.21 136.837 110.216 136.469 110.274C136.414 109.838 135.907 109.517 134.785 109.584C134.495 109.394 134.149 109.367 133.849 109.508C133.62 109.538 131.731 109.763 131.406 109.854C130.823 110.029 130.686 110.507 130.654 110.675C130.622 110.842 130.554 111.685 131.315 112.025C131.231 112.048 131.14 112.085 131.07 112.116C130.547 112.308 130.144 112.522 129.987 112.645L129.959 112.665C129.724 112.674 129.506 112.781 129.321 112.968C128.799 113.521 128.835 114.052 128.913 114.37C129.011 114.76 129.315 115.239 130.02 115.38C130.426 115.458 131.206 115.42 132.101 115.271C133.87 114.977 136.189 114.35 136.37 114.31C136.614 114.253 137.11 114.25 137.361 114.179C137.643 114.1 137.837 113.944 137.957 113.809C138.125 113.603 138.208 113.377 138.227 113.123C138.239 112.883 138.203 112.554 137.948 112.208ZM106.246 123.763C106.316 123.609 106.354 123.463 106.366 123.346C106.383 123.127 106.371 122.882 106.262 122.653C106.482 122.23 106.412 121.82 106.178 121.468C106.142 121.422 106.079 121.315 105.96 121.213C105.92 121.111 105.867 121.002 105.795 120.909C105.463 120.449 104.885 120.318 104.452 120.586C104.344 120.605 103.845 120.677 103.506 120.716C102.925 120.777 102.339 120.862 101.977 121.021C101.383 121.278 101.13 121.744 101.084 122.186C101.068 122.37 101.088 122.523 101.116 122.662C101.023 123.016 101.083 123.349 101.295 123.662C101.29 123.686 101.283 123.699 101.275 123.712C101.147 124.019 101.174 124.317 101.258 124.575C101.333 124.803 101.509 125.149 101.969 125.302C102.241 125.666 102.684 125.835 103.107 125.694C103.467 125.57 105.27 125.155 105.601 125.006C105.921 124.86 106.052 124.642 106.102 124.538C106.26 124.256 106.29 124 106.246 123.763ZM119.201 126.802C119.353 126.738 119.522 126.656 119.547 126.627C120.095 126.202 119.978 125.625 119.903 125.398C119.87 125.283 119.603 124.409 118.658 124.584C118.561 124.6 118.477 124.624 118.38 124.64C118.138 124.38 117.612 124.234 116.697 124.355L116.642 124.359C116.621 124.365 116.587 124.363 116.566 124.369L116.513 124.384C116.437 124.394 116.364 124.415 116.288 124.425C116.246 124.436 116.204 124.448 116.152 124.463C114.883 124.729 111.297 125.508 110.752 125.819C109.962 126.266 110.171 127.009 110.234 127.195C110.246 127.237 110.261 127.289 110.289 127.349C109.992 127.5 109.777 127.82 109.746 128.19C109.564 128.591 109.646 128.963 109.837 129.282C109.904 129.399 110.039 129.598 110.291 129.731C110.249 129.946 110.281 130.14 110.325 130.297C110.413 130.611 110.601 130.919 111.017 131.074C111.105 131.105 111.281 131.169 111.538 131.12C113.542 130.738 115.698 129.93 117.574 129.133C117.848 129.023 118.406 128.956 118.694 128.819C118.965 128.698 119.142 128.524 119.251 128.347C119.418 128.097 119.483 127.808 119.454 127.5C119.453 127.296 119.385 127.056 119.201 126.802ZM135.413 124.424C135.626 124.217 135.696 123.983 135.722 123.795C135.767 123.512 135.711 123.234 135.546 122.964C135.466 122.84 135.275 122.521 134.776 122.435L134.763 122.427C134.739 122.343 134.703 122.252 134.648 122.177C134.628 121.945 134.517 121.751 134.278 121.626L134.273 121.605C134.181 121.36 133.992 121.006 133.474 120.892C133.413 120.875 133.304 120.849 133.12 120.878C133.065 120.882 132.894 120.919 132.549 121.015L132.113 121.07C131.793 120.776 131.356 120.706 131.003 120.896C130.837 120.909 130.048 120.994 129.685 121.108C129.01 121.319 128.674 121.809 128.614 122.322C128.523 122.359 128.435 122.407 128.343 122.444C128.055 122.581 127.851 122.74 127.713 122.891C127.039 123.148 126.439 123.463 125.98 123.84C125.622 124.133 125.584 124.482 125.599 124.737C125.61 125.016 125.703 125.307 125.942 125.556C125.975 125.592 126.034 125.643 126.091 125.683C126.019 125.749 125.96 125.821 125.915 125.902C125.665 126.3 125.581 126.763 125.915 127.313C125.906 127.44 125.915 127.55 125.935 127.624C126.012 128.02 126.326 128.655 127.232 128.705C128.207 128.759 131.421 127.903 133.466 127.183C134.443 126.841 135.172 126.501 135.383 126.329C135.813 125.971 135.836 125.57 135.842 125.387C135.818 125.021 135.718 124.666 135.413 124.424ZM146.964 120.642C147.015 120.504 147.025 120.377 147.025 120.298C147.056 119.883 146.929 119.433 146.388 119.155C146.335 119.125 146.1 119.011 145.729 119.058C145.611 119.08 145.396 119.118 145.115 119.162L145.112 119.152C145.005 118.933 144.675 118.36 143.922 118.492C143.719 118.413 143.492 118.409 143.278 118.492C143.033 118.584 142.862 118.699 142.742 118.834C142.219 118.981 141.704 119.159 141.225 119.463C140.948 119.643 140.672 119.945 140.59 120.138C140.447 120.472 140.461 120.806 140.578 121.101C140.593 121.153 140.624 121.224 140.668 121.301C140.548 121.437 140.48 121.557 140.438 121.648C140.257 122.049 140.301 122.409 140.431 122.711C140.53 122.943 140.698 123.178 140.982 123.347C141.016 123.428 141.06 123.506 141.102 123.573C141.224 123.765 141.47 124.08 141.988 124.115C142.125 124.122 142.496 124.075 142.946 123.948C143.65 123.762 144.685 123.427 144.976 123.378C145.191 123.341 146.128 123.259 146.805 123.137C147.225 123.064 147.568 122.957 147.734 122.865C148.183 122.615 148.288 122.224 148.315 121.957C148.346 121.587 148.242 121.255 147.959 120.973C147.851 120.868 147.64 120.678 147.27 120.647C147.195 120.622 147.095 120.628 146.964 120.642ZM105.018 133.434C105.044 133.325 105.052 133.232 105.052 133.153C105.061 132.823 104.827 131.828 103.729 131.898C103.639 131.901 103.521 131.923 103.383 131.951C103.208 131.728 102.908 131.508 102.42 131.498C101.65 131.488 98.5151 132.187 97.93 132.396C97.3556 132.602 97.2923 133.06 97.2617 133.193L97.2601 133.227C97.1535 133.291 97.0682 133.349 97.0143 133.398C96.5538 133.809 96.5783 134.299 96.6338 134.577C96.6938 134.831 96.809 135.081 97.0572 135.282C96.9898 135.324 96.9331 135.362 96.8759 135.401C96.5346 135.632 96.3301 135.87 96.255 136.004C96.0639 136.329 96.0696 136.632 96.1211 136.855C96.1795 137.143 96.3211 137.408 96.5934 137.614C96.6232 137.64 96.6636 137.662 96.7171 137.692C96.7731 137.891 96.8857 138.051 97.0164 138.196C97.2095 138.401 97.6234 138.669 98.2644 138.579C99.4941 138.415 103.183 136.635 103.505 136.534C104.389 136.263 104.321 136.305 105.185 135.961C105.522 135.833 106.385 135.489 106.496 135.402C106.993 135.002 106.925 134.479 106.855 134.228C106.814 134.082 106.582 133.255 105.638 133.35C105.444 133.382 105.236 133.406 105.018 133.434ZM142.86 123.521L142.84 123.571C142.845 123.547 142.852 123.534 142.86 123.521ZM123.986 137.101C124.678 136.828 125.345 136.471 125.575 136.204C125.761 135.982 125.855 135.753 125.883 135.53C126.411 135.359 126.949 135.186 127.468 134.984C127.998 134.779 128.246 134.133 128.037 133.549C127.828 132.964 127.22 132.649 126.69 132.854C126.343 132.985 125.983 133.109 125.633 133.23C125.595 133.014 125.507 132.779 125.291 132.535C125.112 132.337 124.762 132.096 124.257 132.069C124.223 132.067 124.199 132.062 124.168 132.071C124.031 131.985 123.858 131.932 123.641 131.925C123.459 131.92 121.949 132.332 121.67 132.467C121.491 132.551 121.407 132.653 121.363 132.699C121.051 133.035 121.061 133.394 121.094 133.633C121.105 133.709 121.12 133.806 121.158 133.898C121.062 134.24 121.094 134.559 121.183 134.794L121.198 134.846L121.016 134.841C120.442 134.81 119.979 135.289 119.986 135.92C119.99 136.539 120.454 137.064 121.027 137.095L121.463 137.12C121.549 137.265 121.666 137.402 121.843 137.51C121.93 137.576 122.104 137.674 122.368 137.69C122.447 137.691 122.65 137.69 122.983 137.631C123.442 137.536 123.797 137.312 123.986 137.101ZM111.012 142.286C111.36 142.2 111.695 142.106 111.939 142.049C112.395 141.944 112.837 141.831 113.271 141.687C113.334 141.669 113.493 141.591 113.513 141.585C113.602 141.538 113.663 141.475 113.717 141.426C113.955 141.348 114.187 141.249 114.419 141.15C114.531 141.107 114.808 141.007 114.886 140.963C115.003 140.896 115.082 140.817 115.133 140.758C115.315 140.56 115.391 140.347 115.414 140.149C115.868 139.716 115.67 139.049 115.652 138.986C115.592 138.812 115.36 138.143 114.566 138.174L114.556 138.176C114.463 138.045 114.332 137.9 114.12 137.791C114.04 137.745 113.952 137.713 113.854 137.684C113.744 137.455 113.558 137.237 113.22 137.117C113.169 137.097 112.895 137.005 112.33 137.164C112.11 137.225 111.935 137.365 111.805 137.548C111.738 137.589 111.671 137.631 111.614 137.669C111.518 137.73 111.435 137.798 111.366 137.874C110.643 138.111 109.936 138.411 109.325 138.808C109.211 138.885 109.129 138.953 109.063 139.039C108.982 139.073 108.898 139.097 108.817 139.131C108.387 139.286 108.442 139.282 108.021 139.433C107.909 139.476 107.615 139.593 107.578 139.625C107.079 139.98 107.12 140.488 107.159 140.748C107.215 141.026 107.342 141.318 107.689 141.547C107.745 141.588 107.885 141.685 108.139 141.703C108.127 141.944 108.18 142.132 108.189 142.164C108.195 142.185 108.625 143.317 109.616 142.904C110.084 142.682 110.545 142.474 111.012 142.286ZM142.366 131.664C143.529 131.101 143.83 130.565 143.572 130.208C143.621 129.618 142.703 129.323 140.412 130.01L140.381 130.019L140.297 130.042L140.224 130.063C140.03 129.937 139.809 129.875 139.581 129.905C139.581 129.905 139.066 129.959 138.774 130.007L138.743 130.015C138.239 130.112 137.737 130.173 137.249 130.367C136.842 130.526 136.649 130.682 136.57 130.761C136.349 130.981 136.282 131.225 136.25 131.392C136.243 131.45 136.237 131.508 136.231 131.567C136.093 131.639 135.984 131.693 135.898 131.75C135.379 132.111 135.3 132.596 135.309 132.83C135.315 132.93 135.32 133.03 135.347 133.124C135.285 133.187 135.216 133.263 135.171 133.343C134.861 133.848 135.002 134.553 135.487 134.914C135.892 135.23 136.901 134.924 136.901 134.924C136.901 134.924 136.852 134.949 136.821 134.958C137.199 134.818 140.846 133.851 141.757 133.517C142.391 133.283 142.559 132.795 142.578 132.7C142.671 132.346 142.604 132.026 142.421 131.739C142.405 131.721 142.386 131.692 142.366 131.664Z" fill="#F8EA2B"/>
</g>
</g>
</g>
<mask id="mask30_175_220" style="mask-type:luminance" maskUnits="userSpaceOnUse" x="12" y="47" width="178" height="67">
<path d="M12.7808 47.1709H189.064V113.65H12.7808V47.1709Z" fill="white"/>
</mask>
<g mask="url(#mask30_175_220)">
<mask id="mask31_175_220" style="mask-type:luminance" maskUnits="userSpaceOnUse" x="12" y="47" width="178" height="67">
<path d="M177.573 113.65H24.2425C17.9268 113.65 12.7808 108.504 12.7808 102.189V58.6326C12.7808 52.3169 17.9268 47.1709 24.2425 47.1709H177.573C183.889 47.1709 189.035 52.3169 189.035 58.6326V102.189C189.035 108.504 183.889 113.65 177.573 113.65Z" fill="white"/>
</mask>
<g mask="url(#mask31_175_220)">
<mask id="mask32_175_220" style="mask-type:luminance" maskUnits="userSpaceOnUse" x="12" y="47" width="178" height="67">
<path d="M189.065 47.1357H12.7515V113.71H189.065V47.1357Z" fill="white"/>
</mask>
<g mask="url(#mask32_175_220)">
<mask id="mask33_175_220" style="mask-type:luminance" maskUnits="userSpaceOnUse" x="12" y="47" width="178" height="67">
<path d="M12.7822 47.1709H189.044V113.65H12.7822V47.1709Z" fill="white"/>
</mask>
<g mask="url(#mask33_175_220)">
<mask id="mask34_175_220" style="mask-type:luminance" maskUnits="userSpaceOnUse" x="12" y="47" width="178" height="67">
<path d="M177.574 113.65H24.2439C17.9283 113.65 12.7822 108.504 12.7822 102.189V58.6326C12.7822 52.3169 17.9283 47.1709 24.2439 47.1709H177.574C183.89 47.1709 189.036 52.3169 189.036 58.6326V102.189C189.036 108.504 183.89 113.65 177.574 113.65Z" fill="white"/>
</mask>
<g mask="url(#mask34_175_220)">
<path d="M12.7822 47.1709H189.109V113.65H12.7822V47.1709Z" fill="white"/>
</g>
</g>
</g>
</g>
</g>
<mask id="mask35_175_220" style="mask-type:luminance" maskUnits="userSpaceOnUse" x="39" y="97" width="127" height="10">
<path d="M165.966 97.3008H39.7144V106.602H165.966V97.3008Z" fill="white"/>
</mask>
<g mask="url(#mask35_175_220)">
<path d="M43.7718 97.8506V99.0557H41.6995V100.253H43.6836V101.456H41.6995V102.668H43.7718V103.873H40.3262V97.8506H43.7718Z" fill="white"/>
<path d="M48.9465 97.8506L51.3781 103.873H49.9034L49.4576 102.668H47.1649L46.7207 103.873H45.2461L47.676 97.8506H48.9465ZM48.9906 101.464L48.3194 99.7122H48.3047L47.6336 101.464H48.9906Z" fill="white"/>
<path d="M52.938 97.8506H55.0919C55.6708 97.8506 56.1428 98.0053 56.5078 98.3144C56.8723 98.6238 57.0548 99.0651 57.0548 99.6387C57.0548 100.082 56.9442 100.453 56.7233 100.752C56.502 101.052 56.2016 101.263 55.8219 101.384L57.8942 103.873H56.1501L54.3114 101.494V103.873H52.938V97.8506ZM54.3114 100.522H54.4714C54.5975 100.522 54.7041 100.52 54.7915 100.516C54.8796 100.51 54.9797 100.494 55.0919 100.465C55.2038 100.436 55.2936 100.394 55.3614 100.341C55.43 100.287 55.4879 100.209 55.5361 100.107C55.5851 100.005 55.6096 99.8812 55.6096 99.7351C55.6096 99.5881 55.5851 99.464 55.5361 99.3628C55.4879 99.2607 55.43 99.1827 55.3614 99.1292C55.2936 99.0749 55.2038 99.0337 55.0919 99.0051C54.9797 98.9757 54.8796 98.959 54.7915 98.9545C54.7041 98.9492 54.5975 98.9463 54.4714 98.9463H54.3114V100.522Z" fill="white"/>
<path d="M60.8656 97.8506V102.668H62.9378V103.873H59.4922V97.8506H60.8656Z" fill="white"/>
<path d="M64.2871 97.8506H65.9365L67.1922 99.7775L68.448 97.8506H70.0974L67.8781 101.172V103.873H66.5064V101.172L64.2871 97.8506Z" fill="white"/>
<path d="M76.3387 97.8506V102.668H78.411V103.873H74.9653V97.8506H76.3387Z" fill="white"/>
<path d="M83.8631 97.8506V99.0557H81.7908V100.253H83.775V101.456H81.7908V102.668H83.8631V103.873H80.4175V97.8506H83.8631Z" fill="white"/>
<path d="M89.0378 97.8506L91.4694 103.873H89.9948L89.5489 102.668H87.2562L86.812 103.873H85.3374L87.7673 97.8506H89.0378ZM89.0819 101.464L88.4107 99.7122H88.396L87.7249 101.464H89.0819Z" fill="white"/>
<path d="M93.0293 97.8506H95.1832C95.7621 97.8506 96.2341 98.0053 96.5991 98.3144C96.9636 98.6238 97.1461 99.0651 97.1461 99.6387C97.1461 100.082 97.0355 100.453 96.8146 100.752C96.5933 101.052 96.2929 101.263 95.9132 101.384L97.9855 103.873H96.2414L94.4027 101.494V103.873H93.0293V97.8506ZM94.4027 100.522H94.5627C94.6888 100.522 94.7954 100.52 94.8828 100.516C94.9709 100.51 95.071 100.494 95.1832 100.465C95.2951 100.436 95.3849 100.394 95.4527 100.341C95.5213 100.287 95.5792 100.209 95.6274 100.107C95.6764 100.005 95.7009 99.8812 95.7009 99.7351C95.7009 99.5881 95.6764 99.464 95.6274 99.3628C95.5792 99.2607 95.5213 99.1827 95.4527 99.1292C95.3849 99.0749 95.2951 99.0337 95.1832 99.0051C95.071 98.9757 94.9709 98.959 94.8828 98.9545C94.7954 98.9492 94.6888 98.9463 94.5627 98.9463H94.4027V100.522Z" fill="white"/>
<path d="M100.957 100.135V103.873H99.5835V97.8506H100.957L103.351 101.589H103.366V97.8506H104.737V103.873H103.366L100.972 100.135H100.957Z" fill="white"/>
<path d="M108.312 97.8506V103.873H106.939V97.8506H108.312Z" fill="white"/>
<path d="M111.891 100.135V103.873H110.518V97.8506H111.891L114.285 101.589H114.3V97.8506H115.671V103.873H114.3L111.906 100.135H111.891Z" fill="white"/>
<path d="M123.32 100.507V101.813C123.164 102.529 122.824 103.07 122.298 103.438C121.772 103.805 121.186 103.988 120.539 103.988C119.726 103.988 119.033 103.685 118.462 103.077C117.89 102.469 117.604 101.733 117.604 100.871C117.604 99.9957 117.884 99.2568 118.444 98.6534C119.003 98.0492 119.702 97.7471 120.539 97.7471C121.516 97.7471 122.29 98.09 122.86 98.7759L121.961 99.7622C121.64 99.2462 121.193 98.9882 120.619 98.9882C120.195 98.9882 119.834 99.1723 119.535 99.5401C119.235 99.9071 119.086 100.351 119.086 100.871C119.086 101.383 119.235 101.82 119.535 102.182C119.834 102.545 120.195 102.726 120.619 102.726C120.969 102.726 121.275 102.621 121.535 102.409C121.795 102.197 121.925 101.916 121.925 101.565H120.539V100.507H123.32Z" fill="white"/>
<path d="M131.779 102.638C131.988 102.638 132.191 102.607 132.388 102.543C132.585 102.48 132.73 102.419 132.822 102.36L132.961 102.266L133.544 103.433C133.524 103.449 133.498 103.468 133.464 103.492C133.43 103.516 133.351 103.561 133.227 103.628C133.103 103.693 132.97 103.75 132.829 103.799C132.688 103.848 132.503 103.891 132.274 103.93C132.045 103.969 131.809 103.988 131.566 103.988C131.007 103.988 130.476 103.851 129.974 103.577C129.473 103.302 129.07 102.923 128.763 102.442C128.456 101.96 128.304 101.439 128.304 100.879C128.304 100.456 128.394 100.05 128.573 99.661C128.754 99.2715 128.993 98.9375 129.292 98.6599C129.591 98.3823 129.94 98.161 130.338 97.9953C130.738 97.8299 131.147 97.7471 131.566 97.7471C131.956 97.7471 132.315 97.7936 132.643 97.8859C132.971 97.9785 133.204 98.0712 133.34 98.1635L133.544 98.3023L132.961 99.4699C132.926 99.4405 132.875 99.4054 132.806 99.3638C132.738 99.3225 132.602 99.2682 132.398 99.2005C132.194 99.1319 131.988 99.0976 131.779 99.0976C131.448 99.0976 131.15 99.1515 130.887 99.2592C130.625 99.3662 130.417 99.507 130.263 99.6822C130.11 99.8577 129.993 100.046 129.912 100.249C129.833 100.451 129.793 100.655 129.793 100.864C129.793 101.322 129.964 101.732 130.307 102.094C130.65 102.457 131.141 102.638 131.779 102.638Z" fill="white"/>
<path d="M138.843 97.8525V99.0577H136.771V100.255H138.755V101.458H136.771V102.67H138.843V103.875H135.397V97.8525H138.843Z" fill="white"/>
<path d="M142.331 100.135V103.873H140.958V97.8506H142.331L144.725 101.589H144.74V97.8506H146.112V103.873H144.74L142.346 100.135H142.331Z" fill="white"/>
<path d="M147.936 99.0557V97.8506H152.169V99.0557H150.738V103.873H149.367V99.0557H147.936Z" fill="white"/>
<path d="M157.439 97.8506V99.0557H155.367V100.253H157.351V101.456H155.367V102.668H157.439V103.873H153.994V97.8506H157.439Z" fill="white"/>
<path d="M159.556 97.8506H161.71C162.289 97.8506 162.761 98.0053 163.126 98.3144C163.49 98.6238 163.673 99.0651 163.673 99.6387C163.673 100.082 163.562 100.453 163.341 100.752C163.12 101.052 162.82 101.263 162.44 101.384L164.512 103.873H162.768L160.93 101.494V103.873H159.556V97.8506ZM160.93 100.522H161.09C161.216 100.522 161.322 100.52 161.41 100.516C161.498 100.51 161.598 100.494 161.71 100.465C161.822 100.436 161.912 100.394 161.98 100.341C162.048 100.287 162.106 100.209 162.154 100.107C162.203 100.005 162.228 99.8812 162.228 99.7351C162.228 99.5881 162.203 99.464 162.154 99.3628C162.106 99.2607 162.048 99.1827 161.98 99.1292C161.912 99.0749 161.822 99.0337 161.71 99.0051C161.598 98.9757 161.498 98.959 161.41 98.9545C161.322 98.9492 161.216 98.9463 161.09 98.9463H160.93V100.522Z" fill="white"/>
</g>
<mask id="mask36_175_220" style="mask-type:luminance" maskUnits="userSpaceOnUse" x="47" y="45" width="109" height="56">
<path d="M155.492 45.6562H47.5195V100.817H155.492V45.6562Z" fill="white"/>
</mask>
<g mask="url(#mask36_175_220)">
<path d="M69.9908 85.8466C69.9908 86.6299 69.7947 87.2661 69.4034 87.7554C69.0118 88.2447 68.4109 88.4895 67.6004 88.4895C66.9573 88.4895 66.363 88.2935 65.8179 87.9022C65.2724 87.5109 64.7688 87.0286 64.307 86.4559C63.846 85.8826 63.4407 85.274 63.0913 84.6309C62.7418 83.9877 62.4555 83.4291 62.2323 82.9541C61.645 81.7794 61.0643 80.6055 60.4909 79.4316C59.9183 78.257 59.3522 77.0688 58.7936 75.8666L56.2769 77.4171C56.3052 78.2287 56.263 79.0396 56.1506 79.8501C56.039 80.6606 55.9554 81.4718 55.8996 82.2831C55.8438 82.8421 55.7527 83.45 55.6265 84.1067C55.5009 84.7637 55.2983 85.379 55.0186 85.9523C54.7396 86.525 54.3623 87.0073 53.8865 87.3986C53.4115 87.7899 52.825 87.9859 52.126 87.9859C51.4829 87.9859 50.9514 87.853 50.5315 87.588C50.1123 87.3219 49.7698 86.9794 49.5037 86.5602C49.2383 86.1403 49.05 85.6653 48.9384 85.1345C48.8268 84.603 48.771 84.0579 48.771 83.4988V83.1626C48.771 81.5133 48.8613 79.8571 49.0426 78.1939C49.2247 76.5299 49.3436 74.8594 49.3994 73.1826C49.4552 70.9735 49.525 68.7645 49.6094 66.5562C49.6935 64.3479 49.805 62.1392 49.9442 59.9298C49.9724 59.4269 50.0561 58.9379 50.1952 58.4629C50.3351 57.9872 50.5451 57.561 50.8251 57.1841C51.1048 56.8063 51.4477 56.5057 51.8529 56.2825C52.2582 56.0586 52.7402 55.9463 53.2992 55.9463C54.1662 55.9463 54.8163 56.2543 55.2491 56.8698C55.6826 57.4847 55.9832 58.2251 56.1506 59.0914C56.3188 59.9577 56.3958 60.8526 56.3812 61.7754C56.3672 62.6986 56.3606 63.4676 56.3606 64.0821C56.3606 65.8433 56.3188 67.6045 56.2358 69.3665C57.0463 68.6951 57.8355 67.9261 58.6042 67.0598C59.3735 66.1928 60.0519 65.3118 60.6392 64.4169C61.0022 63.8864 61.4211 63.1527 61.8961 62.2159C62.3718 61.2791 62.889 60.371 63.448 59.4907C64.0067 58.6098 64.6216 57.8411 65.2922 57.1841C65.9636 56.5263 66.6768 56.1974 67.4315 56.1974C68.2428 56.1974 68.837 56.4286 69.214 56.8904C69.5918 57.3514 69.7808 57.9593 69.7808 58.714C69.7808 59.8321 69.6061 60.9781 69.2566 62.1528C68.9072 63.3274 68.4388 64.4811 67.8515 65.6135C67.2641 66.7452 66.5997 67.8215 65.859 68.8423C65.119 69.8624 64.3709 70.7496 63.6154 71.5043C64.3984 72.8192 65.1395 74.1406 65.8384 75.4687C66.5373 76.796 67.2362 78.1307 67.9352 79.4727C68.1866 79.9202 68.4314 80.4095 68.6693 80.941C68.9072 81.4718 69.1237 82.0169 69.3197 82.5767C69.5154 83.1358 69.6758 83.6948 69.8013 84.2535C69.9276 84.8126 69.9908 85.3437 69.9908 85.8466Z" fill="#004AAD"/>
<path d="M78.419 58.4209C78.419 58.8126 78.314 59.1621 78.1048 59.4693C77.8952 59.7769 77.6224 60.0493 77.2869 60.2871C76.9522 60.525 76.5888 60.7071 76.1975 60.8333C75.8058 60.9589 75.442 61.0213 75.1065 61.0213C74.5475 61.0213 74.0582 60.8818 73.6382 60.6028C73.219 60.3231 73.0098 59.8892 73.0098 59.3019C73.0098 58.882 73.1144 58.5116 73.324 58.1904C73.5332 57.8696 73.7917 57.6042 74.0993 57.3946C74.4076 57.1843 74.7574 57.0231 75.1491 56.9115C75.5404 56.7999 75.9177 56.7441 76.2811 56.7441C76.8127 56.7441 77.3016 56.87 77.748 57.1215C78.1951 57.3733 78.419 57.8065 78.419 58.4209ZM78.7552 72.6795C78.7552 73.0712 78.7552 73.4838 78.7552 73.9173C78.7552 74.3501 78.7409 74.7623 78.7126 75.1536C78.6851 75.6293 78.6715 76.2658 78.6715 77.0624C78.6715 77.8593 78.6436 78.7193 78.5878 79.6422C78.532 80.5643 78.441 81.5007 78.3147 82.451C78.1892 83.4017 77.9866 84.2684 77.7069 85.0514C77.4268 85.8336 77.0564 86.4694 76.5954 86.9587C76.1343 87.4483 75.5543 87.7068 74.8554 87.7354C74.3239 87.7626 73.8761 87.553 73.5119 87.1055C73.1485 86.6584 72.8483 86.0784 72.6104 85.3656C72.3733 84.6531 72.1986 83.8562 72.0862 82.9752C71.9746 82.0942 71.891 81.2419 71.8352 80.4174C71.7794 79.5922 71.7515 78.8302 71.7515 78.1313C71.7515 77.4324 71.7515 76.9152 71.7515 76.5793C71.7515 76.1322 71.7515 75.4964 71.7515 74.672C71.7515 73.8468 71.7794 72.9592 71.8352 72.0085C71.891 71.0582 71.9956 70.0939 72.1494 69.116C72.3039 68.1374 72.5275 67.2424 72.8204 66.4319C73.114 65.6207 73.4987 64.9633 73.9745 64.46C74.4502 63.9571 75.0511 63.7053 75.7775 63.7053C76.5322 63.7053 77.1052 64.0827 77.4969 64.8374C77.8882 65.5921 78.1819 66.473 78.3779 67.4803C78.5735 68.4868 78.6851 69.486 78.7126 70.4785C78.7409 71.4704 78.7552 72.2038 78.7552 72.6795Z" fill="#004AAD"/>
<path d="M99.8081 60.0995C99.8081 62.1405 99.731 64.1674 99.5776 66.1797C99.4238 68.1924 99.347 70.219 99.347 72.2599C99.347 73.9096 99.3959 75.5452 99.4939 77.167C99.5915 78.7891 99.6407 80.4247 99.6407 82.074C99.6407 82.5215 99.6264 83.06 99.5981 83.6891C99.5695 84.3176 99.4785 84.9254 99.325 85.5128C99.1712 86.1001 98.9198 86.6033 98.5703 87.0222C98.2209 87.4414 97.7246 87.6506 97.0815 87.6506C96.2434 87.6506 95.5519 87.3364 95.0068 86.7079C94.4613 86.0788 94.1188 85.3725 93.979 84.5892C93.4475 85.5964 92.6784 86.4495 91.6723 87.1484C90.6658 87.8473 89.5756 88.1968 88.4009 88.1968C87.143 88.1968 86.0594 87.7636 85.1501 86.8974C84.2416 86.0303 83.4869 84.982 82.886 83.7523C82.2848 82.5218 81.8377 81.2356 81.544 79.8936C81.2503 78.5516 81.1035 77.3913 81.1035 76.4123C81.1035 75.7134 81.1454 74.9168 81.2298 74.0219C81.3138 73.1273 81.4607 72.2188 81.6703 71.2967C81.8795 70.3739 82.1522 69.4724 82.4881 68.5921C82.8236 67.7112 83.2502 66.9212 83.767 66.2223C84.2838 65.5227 84.8983 64.9633 85.6112 64.5441C86.3248 64.1252 87.143 63.9156 88.0662 63.9156C89.0723 63.9156 90.0366 64.2093 90.9587 64.7966C91.8815 65.3832 92.5804 66.11 93.0554 66.977L93.4342 60.308C93.4614 59.7776 93.5032 59.1562 93.559 58.4433C93.6148 57.7297 93.7338 57.0514 93.9158 56.4083C94.0979 55.7651 94.3842 55.22 94.7748 54.7726C95.1661 54.3255 95.7398 54.1016 96.4956 54.1016C97.3061 54.1016 97.9349 54.2976 98.3824 54.6889C98.8295 55.0805 99.158 55.5768 99.3676 56.1777C99.5768 56.779 99.7027 57.4287 99.745 58.1276C99.7868 58.8265 99.8081 59.484 99.8081 60.0995ZM92.9717 78.719C92.9717 78.0758 92.9574 77.4471 92.9291 76.8322C92.9016 76.2166 92.902 75.5871 92.9306 74.944C92.7621 74.5809 92.5657 74.183 92.3418 73.7503C92.1186 73.3167 91.8463 72.9111 91.5255 72.533C91.2043 72.1553 90.8478 71.8407 90.4565 71.5889C90.0649 71.3375 89.6453 71.2116 89.1982 71.2116C88.695 71.2116 88.2893 71.3657 87.981 71.6741C87.6734 71.9817 87.4498 72.3521 87.31 72.7856C87.1709 73.2184 87.0802 73.6864 87.0384 74.1893C86.9961 74.6925 86.9752 75.126 86.9752 75.4902C86.9752 75.825 87.0031 76.3212 87.0589 76.979C87.1147 77.6361 87.2193 78.3001 87.3731 78.9715C87.5266 79.6421 87.7435 80.2291 88.0236 80.732C88.3033 81.2352 88.6806 81.4867 89.1556 81.4867C89.5198 81.4867 89.8832 81.41 90.2466 81.2562C90.6096 81.1027 90.9517 80.9067 91.2729 80.6689C91.5948 80.431 91.9028 80.1652 92.1965 79.8716C92.4901 79.5779 92.7485 79.3055 92.9717 79.0537V78.719Z" fill="#004AAD"/>
<path d="M120.65 60.0995C120.65 62.1405 120.573 64.1674 120.42 66.1797C120.266 68.1924 120.189 70.219 120.189 72.2599C120.189 73.9096 120.238 75.5452 120.336 77.167C120.434 78.7891 120.483 80.4247 120.483 82.074C120.483 82.5215 120.469 83.06 120.44 83.6891C120.412 84.3176 120.321 84.9254 120.167 85.5128C120.014 86.1001 119.762 86.6033 119.413 87.0222C119.063 87.4414 118.567 87.6506 117.924 87.6506C117.086 87.6506 116.394 87.3364 115.849 86.7079C115.304 86.0788 114.961 85.3725 114.821 84.5892C114.29 85.5964 113.521 86.4495 112.515 87.1484C111.508 87.8473 110.418 88.1968 109.243 88.1968C107.985 88.1968 106.902 87.7636 105.992 86.8974C105.084 86.0303 104.329 84.982 103.728 83.7523C103.127 82.5218 102.68 81.2356 102.386 79.8936C102.093 78.5516 101.946 77.3913 101.946 76.4123C101.946 75.7134 101.988 74.9168 102.072 74.0219C102.156 73.1273 102.303 72.2188 102.513 71.2967C102.722 70.3739 102.995 69.4724 103.33 68.5921C103.666 67.7112 104.092 66.9212 104.609 66.2223C105.126 65.5227 105.741 64.9633 106.453 64.5441C107.167 64.1252 107.985 63.9156 108.908 63.9156C109.915 63.9156 110.879 64.2093 111.801 64.7966C112.724 65.3832 113.423 66.11 113.898 66.977L114.277 60.308C114.304 59.7776 114.346 59.1562 114.401 58.4433C114.457 57.7297 114.576 57.0514 114.758 56.4083C114.94 55.7651 115.227 55.22 115.617 54.7726C116.008 54.3255 116.582 54.1016 117.338 54.1016C118.148 54.1016 118.777 54.2976 119.225 54.6889C119.672 55.0805 120 55.5768 120.21 56.1777C120.419 56.779 120.545 57.4287 120.587 58.1276C120.629 58.8265 120.65 59.484 120.65 60.0995ZM113.814 78.719C113.814 78.0758 113.8 77.4471 113.771 76.8322C113.744 76.2166 113.744 75.5871 113.773 74.944C113.604 74.5809 113.408 74.183 113.184 73.7503C112.961 73.3167 112.689 72.9111 112.368 72.533C112.047 72.1553 111.69 71.8407 111.299 71.5889C110.907 71.3375 110.488 71.2116 110.04 71.2116C109.537 71.2116 109.132 71.3657 108.823 71.6741C108.516 71.9817 108.292 72.3521 108.152 72.7856C108.013 73.2184 107.922 73.6864 107.881 74.1893C107.838 74.6925 107.818 75.126 107.818 75.4902C107.818 75.825 107.845 76.3212 107.901 76.979C107.957 77.6361 108.062 78.3001 108.215 78.9715C108.369 79.6421 108.586 80.2291 108.866 80.732C109.146 81.2352 109.523 81.4867 109.998 81.4867C110.362 81.4867 110.725 81.41 111.089 81.2562C111.452 81.1027 111.794 80.9067 112.115 80.6689C112.437 80.431 112.745 80.1652 113.039 79.8716C113.332 79.5779 113.591 79.3055 113.814 79.0537V78.719Z" fill="#004AAD"/>
<path d="M131.388 88.9096C129.962 88.9096 128.718 88.5322 127.654 87.7775C126.592 87.0228 125.698 86.0589 124.97 84.885C124.244 83.7104 123.699 82.4032 123.335 80.9632C122.971 79.5235 122.79 78.1044 122.79 76.7066C122.79 75.2247 122.971 73.6944 123.335 72.1153C123.699 70.5354 124.258 69.0957 125.013 67.7956C125.768 66.4946 126.732 65.4323 127.907 64.6079C129.082 63.7827 130.479 63.3701 132.1 63.3701C133.666 63.3701 135.002 63.797 136.106 64.6505C137.21 65.5032 138.097 66.5659 138.768 67.8381C139.439 69.1097 139.915 70.5001 140.194 72.0096C140.473 73.519 140.571 74.9447 140.487 76.2867C140.404 77.7689 140.174 79.2651 139.796 80.7753C139.419 82.2847 138.867 83.6406 138.14 84.8424C137.412 86.0446 136.489 87.0228 135.37 87.7775C134.252 88.5322 132.925 88.9096 131.388 88.9096ZM131.807 69.9539C131.388 69.9539 131.017 70.1779 130.695 70.625C130.374 71.0724 130.108 71.6175 129.898 72.2606C129.688 72.9037 129.528 73.5821 129.416 74.2957C129.305 75.0085 129.249 75.6304 129.249 76.1619C129.249 76.8325 129.311 77.5593 129.437 78.3423C129.563 79.1256 129.738 79.8455 129.961 80.5022C130.185 81.1592 130.458 81.7043 130.779 82.1378C131.101 82.5706 131.471 82.7868 131.891 82.7868C132.338 82.7868 132.722 82.5776 133.043 82.1584C133.365 81.7385 133.624 81.2077 133.82 80.5653C134.016 79.9222 134.155 79.2167 134.238 78.448C134.322 77.6786 134.365 76.9584 134.365 76.2867C134.365 75.6722 134.309 74.9942 134.197 74.2531C134.086 73.5123 133.924 72.82 133.714 72.1769C133.505 71.5338 133.239 71.003 132.918 70.5838C132.597 70.1639 132.227 69.9539 131.807 69.9539Z" fill="#004AAD"/>
<path d="M154.912 64.6275C154.912 65.438 154.639 66.0393 154.094 66.4306C153.549 66.8222 152.941 67.1926 152.271 67.5421C151.6 67.8915 150.992 68.3041 150.447 68.7798C149.902 69.2548 149.629 69.9673 149.629 70.9177C149.629 71.4209 149.747 71.8544 149.985 72.2186C150.222 72.582 150.516 72.9101 150.866 73.2038C151.215 73.4975 151.599 73.7981 152.018 74.1053C152.438 74.4129 152.823 74.7624 153.172 75.1537C153.522 75.5454 153.815 76.0207 154.053 76.5794C154.291 77.1384 154.41 77.8238 154.41 78.635C154.41 79.8089 154.109 80.9619 153.507 82.0943C152.906 83.2271 152.137 84.2336 151.2 85.1146C150.264 85.9948 149.209 86.7003 148.035 87.2319C146.861 87.7623 145.701 88.0277 144.555 88.0277C144.079 88.0277 143.603 87.9928 143.128 87.9234C142.653 87.8537 142.227 87.7212 141.849 87.5255C141.472 87.3299 141.158 87.0571 140.906 86.7077C140.655 86.3582 140.529 85.9042 140.529 85.3451C140.529 84.5621 140.683 83.9539 140.99 83.52C141.297 83.0865 141.688 82.744 142.163 82.4922C142.639 82.2408 143.149 82.0455 143.694 81.9064C144.24 81.7665 144.749 81.5918 145.224 81.3822C145.7 81.1719 146.091 80.8991 146.399 80.5643C146.707 80.2288 146.862 79.7531 146.862 79.1372C146.862 78.5509 146.63 77.9431 146.169 77.3135C145.707 76.6844 145.197 76.0134 144.639 75.3005C144.08 74.588 143.569 73.8263 143.107 73.0159C142.646 72.2046 142.416 71.3097 142.416 70.3318C142.416 69.1289 142.66 68.0174 143.15 66.9973C143.639 65.9765 144.296 65.0885 145.12 64.3338C145.945 63.5791 146.889 62.9856 147.951 62.5528C149.013 62.1193 150.131 61.9023 151.306 61.9023C151.753 61.9023 152.193 61.9446 152.626 62.0286C153.06 62.1119 153.444 62.2584 153.78 62.4676C154.116 62.6772 154.388 62.9566 154.598 63.306C154.807 63.6555 154.912 64.096 154.912 64.6275Z" fill="#004AAD"/>
</g>
<path d="M53.849 95.7754C54.3121 95.7754 54.7641 95.8432 55.2055 95.9785C55.6476 96.1131 55.9761 96.2463 56.1913 96.3777L56.5024 96.5836L55.714 98.139C55.6515 98.0975 55.5649 98.0438 55.4541 97.9785C55.344 97.9124 55.1373 97.8244 54.8334 97.7143C54.5294 97.6035 54.246 97.5481 53.9839 97.5481C53.659 97.5481 53.4087 97.6173 53.2325 97.7555C53.0564 97.894 52.9683 98.0804 52.9683 98.3151C52.9683 98.4327 53.0095 98.5417 53.0919 98.6418C53.175 98.7413 53.3167 98.8485 53.5166 98.9629C53.7172 99.0765 53.8934 99.1681 54.045 99.237C54.1974 99.3062 54.4321 99.4099 54.7496 99.5481C55.3025 99.7832 55.774 100.103 56.1643 100.507C56.5553 100.911 56.7509 101.369 56.7509 101.88C56.7509 102.371 56.6629 102.799 56.4867 103.166C56.3106 103.532 56.0684 103.818 55.7609 104.025C55.453 104.233 55.1125 104.386 54.7396 104.486C54.3664 104.586 53.9626 104.636 53.528 104.636C53.1548 104.636 52.7883 104.598 52.4286 104.522C52.0695 104.447 51.7688 104.352 51.5266 104.238C51.2851 104.124 51.0678 104.012 50.8746 103.902C50.6814 103.791 50.5397 103.697 50.4499 103.62L50.3149 103.507L51.2894 101.869C51.3717 101.938 51.4854 102.027 51.6303 102.135C51.7759 102.242 52.0337 102.385 52.403 102.565C52.7723 102.744 53.0983 102.834 53.3817 102.834C54.2045 102.834 54.616 102.554 54.616 101.994C54.616 101.877 54.5866 101.768 54.528 101.667C54.469 101.567 54.3653 101.467 54.2169 101.368C54.0681 101.268 53.9363 101.188 53.822 101.129C53.7084 101.07 53.5216 100.981 53.2624 100.859C53.0038 100.738 52.8124 100.647 52.6885 100.585C52.1693 100.329 51.7684 100.01 51.4854 99.6262C51.202 99.2427 51.0607 98.83 51.0607 98.3876C51.0607 97.6205 51.3437 96.9938 51.9101 96.5069C52.4772 96.0194 53.1235 95.7754 53.849 95.7754Z" fill="#004AAD"/>
<path d="M66.119 95.9346V101.447C66.119 102.498 65.8356 103.292 65.2696 103.831C64.7032 104.37 63.874 104.639 62.7824 104.639C61.6904 104.639 60.8613 104.37 60.2952 103.831C59.7288 103.292 59.4458 102.498 59.4458 101.447V95.9346H61.3932V100.878C61.3932 101.569 61.5019 102.05 61.7199 102.319C61.9376 102.589 62.2916 102.723 62.7824 102.723C63.2728 102.723 63.6269 102.589 63.8449 102.319C64.0626 102.05 64.1716 101.569 64.1716 100.878V95.9346H66.119Z" fill="#004AAD"/>
<path d="M76.213 104.484L75.8082 99.4161H75.7571L74.0057 104.433H72.8437L71.0923 99.4161H71.0412L70.6364 104.484H68.689L69.456 95.9346H71.5284L73.4247 100.868L75.321 95.9346H77.3934L78.1605 104.484H76.213Z" fill="#004AAD"/>
<path d="M87.9015 104.484L87.4967 99.4161H87.4455L85.6941 104.433H84.5322L82.7808 99.4161H82.7297L82.3249 104.484H80.3774L81.1445 95.9346H83.2169L85.1132 100.868L87.0095 95.9346H89.0819L89.8489 104.484H87.9015Z" fill="#004AAD"/>
<path d="M97.415 95.9346V97.6448H94.4718V99.3436H97.2914V101.054H94.4718V102.774H97.415V104.484H92.5244V95.9346H97.415Z" fill="#004AAD"/>
<path d="M100.422 95.9346H103.479C104.301 95.9346 104.971 96.154 105.489 96.5922C106.008 97.0308 106.267 97.6576 106.267 98.4729C106.267 99.1018 106.11 99.6288 105.796 100.054C105.481 100.479 105.055 100.778 104.516 100.95L107.459 104.484H104.982L102.37 101.106V104.484H100.422V95.9346ZM102.37 99.7271H102.598C102.778 99.7271 102.93 99.7239 103.054 99.7172C103.178 99.7108 103.32 99.6867 103.479 99.6448C103.638 99.6032 103.766 99.5446 103.863 99.4686C103.959 99.3919 104.042 99.2811 104.111 99.1362C104.18 98.9914 104.215 98.8152 104.215 98.6078C104.215 98.4005 104.18 98.2243 104.111 98.0794C104.042 97.9345 103.959 97.8245 103.863 97.7485C103.766 97.6718 103.638 97.6132 103.479 97.5723C103.32 97.5308 103.178 97.5066 103.054 97.4999C102.93 97.4924 102.778 97.4885 102.598 97.4885H102.37V99.7271Z" fill="#004AAD"/>
<path d="M118.994 102.72C119.29 102.72 119.578 102.675 119.857 102.585C120.138 102.495 120.344 102.408 120.475 102.325L120.673 102.192L121.501 103.849C121.473 103.87 121.435 103.898 121.387 103.933C121.339 103.967 121.227 104.031 121.051 104.125C120.874 104.218 120.686 104.299 120.485 104.368C120.285 104.437 120.023 104.499 119.698 104.554C119.373 104.608 119.038 104.636 118.693 104.636C117.898 104.636 117.145 104.441 116.433 104.051C115.721 103.661 115.148 103.124 114.713 102.44C114.278 101.755 114.061 101.016 114.061 100.221C114.061 99.6212 114.188 99.0445 114.444 98.4913C114.7 97.9384 115.04 97.465 115.464 97.0708C115.889 96.677 116.385 96.3627 116.951 96.1277C117.518 95.8929 118.099 95.7754 118.693 95.7754C119.246 95.7754 119.755 95.8414 120.221 95.9728C120.688 96.1046 121.018 96.2356 121.211 96.3663L121.501 96.5637L120.673 98.2214C120.624 98.1798 120.551 98.1298 120.454 98.0708C120.357 98.0122 120.163 97.9345 119.873 97.8379C119.583 97.7413 119.29 97.693 118.994 97.693C118.524 97.693 118.102 97.7693 117.73 97.9217C117.356 98.0733 117.061 98.2736 116.843 98.5225C116.625 98.7707 116.459 99.0381 116.345 99.3251C116.231 99.612 116.174 99.9043 116.174 100.201C116.174 100.851 116.417 101.434 116.904 101.949C117.392 102.463 118.088 102.72 118.994 102.72Z" fill="#004AAD"/>
<path d="M128.475 95.9346L131.926 104.484H129.833L129.201 102.774H125.947L125.315 104.484H123.221L126.671 95.9346H128.475ZM128.538 101.064L127.583 98.5766H127.563L126.61 101.064H128.538Z" fill="#004AAD"/>
<path d="M141.214 104.484L140.809 99.4161H140.758L139.006 104.433H137.844L136.093 99.4161H136.042L135.637 104.484H133.689L134.456 95.9346H136.529L138.425 100.868L140.321 95.9346H142.394L143.161 104.484H141.214Z" fill="#004AAD"/>
<path d="M145.834 95.9346H148.954C149.824 95.9346 150.528 96.159 151.067 96.6079C151.606 97.0567 151.876 97.7098 151.876 98.5666C151.876 99.4239 151.603 100.096 151.057 100.582C150.512 101.069 149.811 101.312 148.954 101.312H147.782V104.484H145.834V95.9346ZM147.782 99.7584H148.332C148.767 99.7584 149.125 99.6703 149.404 99.4942C149.684 99.3181 149.824 99.0297 149.824 98.6291C149.824 98.2211 149.684 97.9289 149.404 97.7527C149.125 97.5766 148.767 97.4885 148.332 97.4885H147.782V99.7584Z" fill="#004AAD"/>
</svg>
