<svg width="50" height="41" viewBox="0 0 50 41" fill="none" xmlns="http://www.w3.org/2000/svg">
<path d="M18.4548 9.61348C18.6813 10.063 18.8766 10.48 18.9293 10.8783C19.0934 12.0864 18.4924 13.4003 17.8983 14.3584C17.5997 14.8391 17.2384 15.2739 16.9399 15.7481C16.6283 16.2412 16.3607 16.7605 16.0869 17.2671C15.6749 18.0188 15.2939 18.8093 15.1378 19.6456C15.0886 19.8862 15.0044 20.1293 14.9773 20.3799C14.9207 21.0019 14.9402 21.6318 15.0363 22.2504C15.0859 22.6392 15.2247 23.0234 15.3154 23.4288C15.3534 23.5981 15.4427 23.7493 15.4745 23.9119C15.5331 24.1675 15.6937 24.4122 15.7525 24.6549L15.8198 24.7898C15.8785 25.0389 16.0422 25.2868 16.1039 25.5455L16.561 26.8896C16.608 27.0877 16.7222 27.2648 16.7663 27.4532C16.8102 27.6416 16.9029 27.7768 16.9409 27.9525C17.0661 28.543 17.1895 29.0668 17.1347 29.5871C17.1151 29.7806 17.0793 29.9834 17.047 30.1766C17.0363 30.2369 16.9969 30.2997 16.983 30.363C16.9511 30.5309 16.9002 30.6983 16.8335 30.856C16.4568 31.5925 16.0196 32.3312 15.3618 32.9701C15.2711 33.0573 15.178 33.1031 15.0778 33.1934C14.7351 33.4855 14.0609 33.8285 13.6146 33.8898C13.2195 33.9329 12.8194 33.9062 12.4302 33.8127C12.2943 33.775 12.1585 33.7311 12.0292 33.6746C11.666 33.5562 11.3128 33.4031 10.9729 33.2248C10.778 33.1194 10.5604 33.0229 10.3689 32.9016C9.37001 32.2844 8.4458 31.4209 7.55739 30.5103C7.15865 30.0956 6.81169 29.6247 6.42596 29.1912C6.05259 28.7707 5.76667 28.2723 5.40013 27.8329C5.27894 27.6875 5.19329 27.5141 5.07841 27.3751L3.91478 25.5818C3.77504 25.4107 3.70279 25.2058 3.58507 25.0445L3.19471 24.3597C3.08291 24.2177 3.00783 23.9969 2.89295 23.8517L2.7921 23.643C2.68044 23.501 2.63704 23.2807 2.50979 23.1226C2.34223 22.9094 2.22181 22.5637 2.0965 22.3038C1.99514 22.127 1.90962 21.9473 1.84342 21.7553C1.81689 21.6435 1.7176 21.5208 1.69403 21.425C1.64972 21.2493 1.52557 21.0942 1.4841 20.9408C1.44263 20.7874 1.30984 20.5846 1.27172 20.4154L1.14383 20.1267C1.09115 19.8969 0.955921 19.659 0.906208 19.4323L0.800084 19.1663L0.534515 18.2742L0.29419 17.2332C0.191543 16.4586 0.0438193 15.7214 0.0104623 14.9801C-0.037577 13.8601 0.0977831 12.7819 0.0560546 11.662C0.0217961 10.803 0.00582576 9.98891 0.154838 9.1971C0.263151 8.69365 0.447452 8.21082 0.700914 7.7612C0.790038 7.59442 0.863578 7.4051 0.962232 7.24179C1.31345 6.67317 1.71154 6.14049 2.15368 5.64039C2.27397 5.50606 2.40599 5.41642 2.5389 5.28235C2.84027 4.99257 3.22368 4.72984 3.56614 4.44405C3.69867 4.33535 3.84575 4.29362 3.98446 4.18505C4.15858 4.06128 4.35138 3.95696 4.54702 3.86861L4.73956 3.77691C5.03977 3.70646 5.31977 3.52435 5.6071 3.46639C6.05092 3.36374 6.50375 3.29626 6.96199 3.26702C7.44251 3.24783 7.91414 3.34919 8.36414 3.42144C9.17553 3.55165 10.0481 3.79751 10.7652 4.19303C11.1647 4.41378 11.5441 4.67871 11.9304 4.92457C12.0968 5.03275 12.2275 5.1752 12.4003 5.28338C12.6232 5.43085 12.8362 5.5939 13.0394 5.76635C13.1489 5.86063 13.2604 6.00912 13.3765 6.09078L13.7525 6.20308C13.9863 6.28384 14.2133 6.37734 14.4369 6.48655C14.4967 6.5163 14.5792 6.52429 14.639 6.55404C15.0985 6.79192 15.5742 7.02052 16.0171 7.29305C16.2622 7.44399 16.4941 7.61387 16.7359 7.7679C16.8267 7.83642 16.9144 7.90816 16.9986 7.98929C17.3365 8.26916 17.6517 8.57105 17.944 8.90088L18.3253 9.40742C18.3749 9.47194 18.3951 9.57729 18.4548 9.61348Z" fill="#004AAD"/>
<path d="M39.8555 0.676172C43.2938 0.321223 49.9723 6.29535 49.293 13.7081C48.6136 21.1208 49.0933 24.6988 49.6086 28.9573C50.3381 34.9221 43.7303 39.6709 35.5147 31.9802C27.2991 24.2897 22.8504 18.5826 26.3178 13.9032C29.7854 9.22394 31.0116 12.4529 33.5876 9.13675C36.1633 5.82977 36.01 1.07259 39.8555 0.676172Z" fill="#004AAD"/>
<path d="M32.4793 19.3435C32.4982 30.5768 41.0074 23.9535 40.7359 31.7016C40.4646 39.4496 32.064 41.6711 24.3871 37.0129C19.3565 33.9576 4.64748 41.8473 5.28681 30.6543C5.92626 19.4613 14.8802 22.3823 18.8191 16.4091C23.512 9.30582 32.4716 13.5413 32.4793 19.3435Z" fill="#FF914D"/>
<path d="M21.2029 22.7863C18.2773 11.9406 11.7723 20.5406 10.0291 12.9862C8.28593 5.43199 15.8253 1.11194 24.4462 3.62455C30.0962 5.27375 42.262 -6.15416 44.5414 4.82293C46.8207 15.8001 37.4158 15.2961 35.1572 22.0852C32.4627 30.161 22.7121 28.3888 21.2029 22.7863Z" fill="#FF914D"/>
<path d="M19.0571 3.28242C18.0223 3.20398 16.9891 3.10198 15.9524 3.04699C13.5948 2.93932 11.2762 3.56782 9.30748 4.88523C8.93501 5.11718 8.60788 5.37631 8.23361 5.63183C6.9627 6.48173 6.20952 7.67846 5.81491 9.13883C4.80402 12.8 4.98201 16.6931 6.34463 20.2503C6.75663 21.3698 7.26252 22.4963 7.77215 23.5758C8.46492 25.0478 9.4288 26.3746 10.6459 27.4842C11.4409 28.2305 12.2612 28.9551 13.0816 29.6797C14.5448 30.9734 16.1741 31.9486 18.1628 32.2412C19.6592 32.473 21.1286 32.7499 22.6232 33.0052C24.2608 33.2477 25.947 33.1626 27.5639 32.741C29.4413 32.3156 31.3007 31.8179 33.1781 31.3925C35.1532 30.9271 36.9759 29.977 38.4759 28.6005C39.5423 27.6404 40.5434 26.6045 41.5646 25.6173C42.4574 24.7624 43.2832 23.8551 44.2394 23.0996C46.5892 21.1251 47.7626 17.1923 46.2445 13.8127C46.1049 13.4709 45.9381 13.1744 45.7243 12.8743C44.4326 11.1914 42.6834 9.92317 40.6798 9.20361C40.611 9.17463 40.5423 9.14578 40.4717 9.1405C39.2251 9.04597 38.1317 8.48998 36.9807 8.07153C35.1164 7.3861 33.2505 6.72411 31.408 6.06406C30.1881 5.61663 28.997 5.10057 27.7464 4.74549C26.1503 4.2696 24.4981 3.90783 22.8695 3.54773C22.1673 3.44727 21.487 3.37206 20.7778 3.36562L19.0843 3.23721L19.0807 3.28422L19.0571 3.28242Z" fill="#F8EA2B"/>
<path fill-rule="evenodd" clip-rule="evenodd" d="M6.48309 15.3926C6.43917 15.3604 6.39383 15.3576 6.3637 15.3592C6.31656 15.3624 6.21443 15.3965 6.20593 15.5328C6.20116 15.6206 6.26298 15.965 6.39873 16.2111C6.50137 16.3984 6.65129 16.523 6.81163 16.5285C6.92265 16.5331 7.05209 16.4836 7.18461 16.3292C7.27799 16.22 7.32358 16.0809 7.31675 15.9403C7.29679 15.3997 6.83868 15.2315 6.58973 15.33C6.54838 15.3482 6.51309 15.368 6.48309 15.3926ZM6.97198 15.9922C6.97237 15.979 6.97275 15.966 6.97224 15.956C6.9649 15.7821 6.87925 15.6755 6.78124 15.648C6.74762 15.6386 6.71311 15.6322 6.69701 15.6541C6.68748 15.6646 6.68838 15.6847 6.68941 15.7048C6.69211 15.7419 6.70718 15.7825 6.73062 15.8286C6.76411 15.8975 6.83147 15.9164 6.8862 15.945C6.91814 15.9606 6.94699 15.9753 6.97198 15.9922ZM3.90803 13.6825C3.82972 13.644 3.76842 13.6269 3.71999 13.6232C3.62301 13.6158 3.56029 13.651 3.51328 13.7006C3.47426 13.7458 3.44528 13.8137 3.44966 13.9041C3.45442 14.0045 3.508 14.155 3.59751 14.3186C3.74111 14.5836 3.98105 14.8821 4.18995 15.0199C4.34592 15.1232 4.49506 15.1452 4.61136 15.0953C4.72083 15.0467 4.82683 14.9278 4.85967 14.6696C4.88066 14.5005 4.86057 14.2075 4.79205 13.9571C4.73873 13.7704 4.65849 13.6091 4.55765 13.5214C4.34012 13.3316 4.17411 13.3346 4.0779 13.3835C3.99329 13.4259 3.92696 13.5328 3.90803 13.6825ZM9.17779 14.7222L9.17174 14.7203C9.10876 14.7093 9.03805 14.7258 8.97894 14.795C8.92781 14.86 8.88054 15.0284 8.87114 15.0852C8.79451 15.6878 9.10515 16.4521 9.8497 16.4C9.93702 16.3949 10.0158 16.3609 10.0859 16.3112C10.1096 16.3211 10.1379 16.3257 10.1664 16.3304C10.2586 16.3431 10.3439 16.2746 10.3566 16.1824C10.362 16.1277 10.3412 16.0724 10.3043 16.0389C10.3265 15.9955 10.3463 15.9482 10.3583 15.9054C10.4139 15.7427 10.3897 15.5344 10.3054 15.3291C10.1923 15.0497 9.97862 14.7751 9.77101 14.6442C9.61118 14.5431 9.45508 14.5225 9.33312 14.5807C9.27683 14.6046 9.22377 14.6525 9.17779 14.7222ZM9.23729 15.5809C9.27155 15.7061 9.32539 15.8204 9.40704 15.906C9.4887 15.9917 9.59418 16.051 9.73366 16.0604C9.5679 15.9445 9.37059 15.7768 9.23729 15.5809ZM4.24752 13.7086C4.24494 13.7177 4.24456 13.7308 4.24507 13.7409C4.24185 13.7994 4.2461 13.8666 4.2595 13.9364C4.29273 14.124 4.36846 14.3369 4.46698 14.4802C4.48759 14.5124 4.51 14.5385 4.53331 14.5615C4.53962 14.4213 4.52082 14.2178 4.47097 14.042C4.44032 13.9278 4.4031 13.8249 4.34128 13.7745C4.30586 13.748 4.27251 13.7254 4.24752 13.7086ZM3.9325 14.0428C3.90146 14.0473 3.86913 14.0448 3.83629 14.0323C3.87828 14.13 3.94525 14.2446 4.01995 14.3547C3.98285 14.2518 3.95349 14.1445 3.9325 14.0428ZM10.0143 15.8486C10.0225 15.831 10.0277 15.8126 10.035 15.7982C10.0656 15.7011 10.0406 15.5785 9.98931 15.4551C9.90353 15.2429 9.74538 15.03 9.58851 14.9298C9.56352 14.9129 9.53764 14.899 9.51317 14.8922C9.50093 14.8887 9.48651 14.8813 9.47775 14.8888C9.46294 14.8946 9.45392 14.9152 9.44787 14.9366C9.43447 14.9725 9.4225 15.0153 9.41709 15.0699C9.40318 15.1783 9.44735 15.2799 9.51239 15.3774C9.63075 15.5559 9.82149 15.7118 9.96613 15.8085C9.98184 15.8229 9.99858 15.8341 10.0143 15.8486ZM12.0149 14.5209C11.927 14.5755 11.8313 14.6344 11.7574 14.7095C11.6669 14.7963 11.5984 14.8994 11.5741 15.0213C11.5467 15.1424 11.5604 15.2818 11.6429 15.4469C11.8399 15.839 12.2134 15.9207 12.5614 15.8103C12.8876 15.7069 13.1872 15.4278 13.2761 15.0993C13.4045 14.6301 13.2249 14.2692 12.8977 13.9529C12.7265 13.786 12.5717 13.7491 12.45 13.771C12.3212 13.7943 12.2081 13.8914 12.1342 14.0491C12.0737 14.1708 12.0334 14.3378 12.0149 14.5209ZM5.87764 12.2537C5.89258 12.1655 5.83101 12.0788 5.7397 12.0631C5.64826 12.0474 5.55862 12.1081 5.54291 12.1995C5.48714 12.5041 5.45636 12.9314 5.56931 13.2703C5.65534 13.5289 5.82135 13.7373 6.09954 13.8286C6.26543 13.885 6.38559 13.8923 6.49506 13.867C6.60145 13.8407 6.70203 13.7764 6.82644 13.6627C7.13477 13.376 7.12717 13.0502 6.98563 12.7661C6.85864 12.5125 6.60776 12.3001 6.39151 12.1998C6.28951 12.1513 6.19292 12.1309 6.11642 12.1325C6.03309 12.1355 5.96599 12.1629 5.91679 12.2087C5.90327 12.2214 5.88897 12.2371 5.87764 12.2537ZM12.0077 14.9349C11.9556 14.9797 11.9147 15.0311 11.9029 15.0971C11.8904 15.1531 11.9056 15.2167 11.9436 15.2935C11.9894 15.3889 12.0556 15.4471 12.1318 15.4816C12.0683 15.3549 12.025 15.1676 12.01 14.9621L12.0077 14.9349ZM12.6695 15.3782C12.8008 15.2863 12.9033 15.1566 12.9455 15.0065C13.036 14.6719 12.892 14.4203 12.6616 14.1937C12.6279 14.1611 12.5954 14.1355 12.5673 14.1177C12.5476 14.1056 12.5301 14.0974 12.5162 14.1001C12.4813 14.1068 12.4631 14.148 12.4441 14.1922C12.4186 14.2477 12.3975 14.3112 12.3808 14.3824C12.4106 14.3941 12.4347 14.4141 12.4531 14.4424C12.5072 14.5203 12.4872 14.627 12.4102 14.678C12.3897 14.692 12.3701 14.7031 12.3457 14.7193C12.3452 14.7918 12.3477 14.8652 12.352 14.9325C12.3635 15.0678 12.3869 15.1965 12.4235 15.2894C12.4315 15.3082 12.4447 15.3317 12.4566 15.3482C12.5219 15.3038 12.6141 15.3165 12.6695 15.3782ZM5.83797 12.5366C5.82341 12.6943 5.8256 12.8633 5.8542 13.02C5.89283 13.2356 5.98672 13.4304 6.20374 13.5044C6.22821 13.5114 6.2519 13.5213 6.27328 13.5272C6.14552 13.2999 6.03399 12.9912 5.92155 12.7681C5.88099 12.6775 5.85317 12.6003 5.83797 12.5366ZM6.18055 12.4808C6.19034 12.5166 6.20593 12.5671 6.22924 12.6133C6.34747 12.8512 6.46261 13.194 6.60157 13.4047C6.89509 13.1238 6.65026 12.7844 6.40697 12.6038C6.34206 12.5525 6.2738 12.5135 6.2143 12.4902C6.20206 12.4868 6.1897 12.4834 6.18055 12.4808ZM15.3156 13.9509C15.3034 13.9476 15.2902 13.9472 15.2802 13.9477C15.1553 13.9457 15.0168 14.0389 14.9299 14.2192C14.8373 14.4079 14.7867 14.6943 14.8378 14.9596C14.8928 15.2458 15.0561 15.4997 15.3767 15.593C15.6116 15.6622 15.787 15.6255 15.9123 15.5319C16.0329 15.4435 16.1143 15.2946 16.151 15.1168C16.212 14.8168 16.1547 14.4209 16.0407 14.1445C15.9895 14.0211 15.9283 13.9215 15.8638 13.8572C15.7961 13.7919 15.727 13.756 15.6563 13.7494C15.5763 13.7401 15.4908 13.7624 15.4107 13.8357C15.3785 13.8564 15.3442 13.8963 15.3156 13.9509ZM9.1711 13.4752C9.18629 13.4794 9.19943 13.4798 9.21476 13.4841C9.30388 13.4959 9.38747 13.4335 9.4024 13.3452C9.50892 13.2596 9.60371 13.1573 9.6815 13.0801C10.0045 12.7645 10.1025 12.4155 10.071 12.1161C10.0339 11.7655 9.82291 11.4818 9.56545 11.3633C9.55361 11.3467 9.54086 11.3333 9.52424 11.3219C9.18385 11.0877 8.81086 11.2043 8.52057 11.5093C8.29454 11.7496 8.12544 12.1051 8.08731 12.4413C8.05872 12.6842 8.09916 12.9167 8.21971 13.0992C8.39796 13.3705 8.60364 13.4613 8.92266 13.5012C9.01178 13.5131 9.09382 13.503 9.1711 13.4752ZM15.1615 14.5946C15.1616 14.641 15.1658 14.6851 15.17 14.7291C15.1935 14.9273 15.289 15.0466 15.3482 15.2118C15.1607 15.0799 15.1296 14.8136 15.1615 14.5946ZM15.6207 14.0993C15.616 14.1046 15.6103 14.113 15.6086 14.1191C15.602 14.1305 15.5956 14.1418 15.5883 14.1564C15.6134 14.1964 15.6367 14.2425 15.6583 14.2948C15.6937 14.3807 15.6523 14.4814 15.5664 14.5167C15.5437 14.5269 15.5227 14.5309 15.4997 14.531C15.4972 14.5865 15.5018 14.6406 15.5074 14.6918C15.5288 14.8628 15.6201 14.9612 15.6691 15.1038C15.6784 15.1294 15.7232 15.1817 15.7382 15.1991L15.7413 15.2C15.7444 15.2007 15.7473 15.2016 15.7466 15.2047L15.7526 15.2064C15.7817 15.1617 15.8003 15.1075 15.8143 15.0454C15.8458 14.8858 15.8336 14.6941 15.797 14.5187C15.7706 14.3891 15.7285 14.2683 15.6748 14.1774C15.6634 14.1476 15.6388 14.1176 15.6207 14.0993ZM8.61265 11.9578C8.51864 12.1164 8.45012 12.3019 8.42951 12.481C8.4111 12.641 8.42745 12.7943 8.50576 12.9153C8.57312 13.0167 8.64859 13.0775 8.74003 13.1164C8.71002 13.0584 8.68401 12.9983 8.66044 12.929C8.56294 12.6176 8.55328 12.2285 8.61265 11.9578ZM3.87982 10.5703C3.86759 10.5668 3.85445 10.5664 3.8444 10.5669C3.80821 10.5667 3.76623 10.5748 3.72836 10.6038C3.69925 10.6253 3.65933 10.6736 3.63164 10.7484C3.59584 10.8408 3.56724 10.9779 3.55797 11.0348C3.51083 11.4145 3.79907 11.6936 4.11564 11.766C4.33948 11.8156 4.56718 11.7572 4.70396 11.5876C4.78561 11.485 4.83687 11.3375 4.82193 11.132C4.80841 10.9332 4.65347 10.6025 4.48579 10.4233C4.35854 10.2885 4.21236 10.2442 4.1034 10.2796C4.02226 10.3098 3.92747 10.3888 3.87982 10.5703ZM9.15616 13.1044C9.16878 13.0947 9.18063 13.0882 9.19325 13.0785C9.29023 13.0033 9.37716 12.9055 9.44929 12.8366C9.60718 12.6861 9.69283 12.5219 9.72657 12.3662C9.77912 12.12 9.69244 11.8877 9.55206 11.7525C9.47182 11.6738 9.37587 11.627 9.27683 11.6389C9.16375 11.6534 9.0624 11.7438 8.98113 11.9159C8.89072 12.1085 8.88608 12.5134 8.98847 12.8195C9.0244 12.9386 9.07605 13.0489 9.15616 13.1044ZM3.89309 11.0761C3.88008 11.1813 3.91936 11.265 3.98169 11.3254C3.9437 11.2488 3.91537 11.1616 3.89309 11.0761ZM4.21339 10.6407C4.20476 10.6714 4.19446 10.7081 4.19034 10.7466C4.17553 10.858 4.22588 11.067 4.31011 11.2261C4.33652 11.2731 4.36459 11.3141 4.39537 11.3458C4.4089 11.3562 4.42165 11.3697 4.43697 11.374C4.47394 11.3249 4.48669 11.2557 4.48102 11.1584C4.47342 11.044 4.39576 10.8736 4.3038 10.7421C4.28011 10.709 4.24185 10.6686 4.21339 10.6407ZM17.5999 13.2842C17.5447 13.2687 17.4928 13.2772 17.4505 13.2984C17.3865 13.3267 17.3178 13.4065 17.2971 13.5393C17.2708 13.7037 17.3114 13.9826 17.4381 14.19C17.5362 14.3462 17.6788 14.4622 17.8702 14.4862C18.0362 14.5064 18.1606 14.4753 18.2543 14.4123C18.3517 14.3472 18.4186 14.2504 18.4559 14.1288C18.5372 13.851 18.4422 13.4247 18.295 13.149C18.2152 12.9978 18.1172 12.8878 18.0327 12.8476C17.9575 12.8099 17.8889 12.8071 17.8218 12.8346C17.7399 12.8677 17.6341 12.9734 17.6013 13.2318C17.5987 13.2409 17.5997 13.261 17.5999 13.2842ZM11.9319 10.7921C11.9297 10.7882 11.9253 10.7804 11.92 10.7756C11.8612 10.703 11.7567 10.6869 11.681 10.7448C11.1822 11.1332 11.0204 11.7451 11.2126 12.202C11.3434 12.5127 11.6363 12.7634 12.1114 12.824L12.1175 12.8257C12.1512 12.8352 12.1918 12.8433 12.2341 12.8453C12.3229 12.8471 12.4206 12.8283 12.4206 12.8283C12.4974 12.8135 12.5525 12.7464 12.5548 12.6677C12.6393 12.6254 12.7198 12.5621 12.8042 12.4735C13.3456 11.8856 13.1783 10.8579 12.2566 10.7412C12.1329 10.723 12.0251 10.7424 11.9319 10.7921ZM17.6643 13.6193C17.6525 13.6259 17.6416 13.6295 17.6308 13.633C17.6304 13.6461 17.63 13.6592 17.6296 13.6724C17.6314 13.7719 17.6604 13.8923 17.7176 13.9942C17.7507 14.0531 17.7955 14.1052 17.8532 14.1347C17.8488 14.1269 17.8444 14.119 17.8401 14.1112C17.78 13.9953 17.7101 13.7973 17.6643 13.6193ZM12.0978 12.3546C12.1578 12.3879 12.2229 12.4029 12.2871 12.3977C12.3753 12.3895 12.4624 12.338 12.5533 12.2379C12.9148 11.844 12.8289 11.1495 12.2132 11.0725C12.0855 11.0565 12.0147 11.1323 11.9737 11.2431C11.9974 11.253 12.0201 11.266 12.0429 11.279C12.1257 11.3254 12.1529 11.4287 12.1065 11.5115C12.0684 11.5768 11.9934 11.6086 11.9221 11.5919C11.9205 11.8094 11.9632 12.046 12.0395 12.2325C12.059 12.2809 12.0779 12.3193 12.0978 12.3546ZM17.9404 13.2476C17.9395 13.2507 17.9378 13.2568 17.9369 13.2599L17.9352 13.266C17.9387 13.2769 17.9694 13.4738 18.0124 13.6147C18.0483 13.7337 18.1141 13.8876 18.1394 13.9508L18.1398 13.9377C18.1504 13.8053 18.1186 13.6478 18.0727 13.506C18.042 13.4149 17.9817 13.312 17.939 13.2407L17.9404 13.2476ZM7.31585 9.17651C7.26292 9.16492 7.21578 9.16827 7.16993 9.17845C7.05569 9.2091 6.94751 9.32411 6.892 9.50996C6.81369 9.76548 6.81859 10.1598 6.93617 10.447C7.00469 10.615 7.11275 10.7476 7.25287 10.8133C7.39596 10.8799 7.57859 10.8883 7.80475 10.7766L7.81569 10.7731C7.87957 10.8043 7.94603 10.8262 8.01687 10.8329C8.10908 10.8455 8.19434 10.777 8.20696 10.6848C8.21675 10.6149 8.17927 10.5483 8.12235 10.5157C8.26041 10.353 8.36602 10.1415 8.41225 9.92994C8.49507 9.54048 8.38663 9.14998 7.94873 8.98088C7.76405 8.90927 7.61774 8.92434 7.50492 8.98513C7.42829 9.02312 7.36299 9.09061 7.31585 9.17651ZM7.22132 9.59573C7.21707 9.61106 7.21359 9.62329 7.20921 9.63862C7.19633 9.6846 7.18874 9.73521 7.18333 9.78995C7.1671 9.95377 7.18552 10.1472 7.24205 10.2984C7.27928 10.4013 7.33388 10.4893 7.42571 10.515C7.45327 10.5228 7.48251 10.5244 7.51432 10.5168C7.50028 10.4964 7.48624 10.4759 7.47221 10.4555C7.3116 10.2156 7.22093 9.87972 7.22132 9.59573ZM7.81544 10.3503C7.94011 10.2236 8.03799 10.0397 8.07869 9.8595C8.12608 9.63166 8.07946 9.39739 7.82613 9.2999C7.75748 9.27401 7.70364 9.26551 7.66449 9.28753C7.59391 9.3272 7.57344 9.42379 7.56481 9.537C7.54575 9.76934 7.61748 10.067 7.75735 10.2746C7.77371 10.2991 7.79599 10.3251 7.81544 10.3503ZM5.67234 7.99537C5.68149 7.97476 5.68445 7.95248 5.68432 7.9293C5.68149 7.80965 5.61838 7.75234 5.56274 7.72684C5.50414 7.70043 5.39621 7.69657 5.28404 7.79059C5.13219 7.91977 4.88929 8.29081 4.82077 8.66457C4.77737 8.91326 4.80738 9.15951 4.95768 9.3536C5.05749 9.48072 5.20869 9.58916 5.4382 9.65356C5.62495 9.70598 5.71291 9.65137 5.85175 9.54499C6.15158 9.31213 6.20824 9.00445 6.14797 8.71338C6.09079 8.44627 5.9258 8.1986 5.76829 8.06517C5.73983 8.03735 5.70647 8.01481 5.67234 7.99537ZM15.3517 10.5035C15.1571 10.538 14.977 10.6856 14.8597 10.9036C14.6887 11.2189 14.6471 11.6729 14.8557 12.0121C14.9966 12.24 15.2459 12.4222 15.648 12.4723C15.9194 12.5055 16.1144 12.3521 16.2983 12.1792C17.091 11.4373 16.9036 10.5162 16.4514 10.1977C16.2336 10.0441 15.9521 10.0113 15.6621 10.1744C15.5301 10.2562 15.4297 10.3668 15.3517 10.5035ZM5.23947 8.45515C5.20058 8.54659 5.16928 8.64679 5.15396 8.74815C5.13322 8.88107 5.13863 9.01462 5.20728 9.12306C5.26716 9.21592 5.37007 9.28444 5.52925 9.329C5.58438 9.34459 5.60395 9.31033 5.64568 9.27916C5.64955 9.27697 5.65444 9.27169 5.6583 9.2695C5.61451 9.23743 5.58579 9.18643 5.58515 9.13002C5.57936 9.11521 5.5393 9.03459 5.50839 8.97972C5.40677 8.81255 5.27438 8.61357 5.24888 8.50396C5.24488 8.4831 5.24218 8.46906 5.23947 8.45515ZM15.2051 10.9907C15.1882 11.0157 15.1712 11.0406 15.1575 11.0664C15.037 11.2837 15.001 11.6005 15.147 11.833C15.1973 11.9132 15.2671 11.9822 15.3642 12.0359C15.3532 12.0164 15.343 11.9937 15.3329 11.971C15.2296 11.7274 15.1657 11.3429 15.2051 10.9907ZM15.9155 12.0717C15.97 12.0309 16.02 11.9822 16.0699 11.9334C16.5797 11.459 16.5966 10.8924 16.3716 10.5881C16.2497 10.4218 16.0442 10.3542 15.8355 10.4741C15.7915 10.5013 15.7529 10.5333 15.7194 10.5703C15.771 10.598 15.8254 10.6396 15.8771 10.6905C15.9448 10.7556 15.9479 10.8623 15.8827 10.9298C15.8175 10.9974 15.7109 11.0005 15.6434 10.9353C15.6201 10.9122 15.5982 10.8961 15.5763 10.8802C15.515 11.1338 15.5343 11.4299 15.5948 11.6614C15.6184 11.7539 15.6484 11.835 15.6798 11.8999C15.6908 11.9195 15.7048 11.94 15.7168 11.9566C15.7804 11.9414 15.8509 11.9611 15.8948 12.0164C15.9006 12.0313 15.9115 12.0509 15.9155 12.0717ZM18.814 10.9465C18.7412 10.8997 18.6744 10.8909 18.6185 10.9015C18.5626 10.9124 18.5108 10.944 18.4661 10.9975C18.4187 11.0602 18.3818 11.1687 18.3667 11.3164C18.339 11.6389 18.4227 12.1644 18.6142 12.5054C18.7729 12.7877 19.0051 12.9487 19.2883 12.8927C19.393 12.8726 19.4892 12.8005 19.5646 12.6731C19.6837 12.472 19.7551 12.1122 19.7598 11.7535C19.7632 11.4474 19.7203 11.1414 19.6281 10.9404C19.5424 10.7514 19.4144 10.6428 19.2676 10.6246C19.14 10.6087 19.0418 10.6406 18.9652 10.7017C18.8964 10.7583 18.8471 10.8402 18.814 10.9465ZM9.77114 8.30009C9.42868 8.19074 9.19853 8.28141 9.06433 8.44189C8.87101 8.67165 8.87616 9.11238 9.08661 9.46861C9.2552 9.75041 9.54111 9.97927 9.93109 9.98957C10.1703 10.1261 10.4311 10.1266 10.633 9.88938C10.6577 9.86001 10.7093 9.75878 10.7617 9.65459C10.8176 9.58453 10.8617 9.49772 10.8932 9.39765C11.0084 9.0105 10.9434 8.66534 10.7659 8.45039C10.5788 8.22281 10.2617 8.11733 9.85086 8.263C9.82433 8.27536 9.79779 8.28772 9.77114 8.30009ZM5.56789 8.35573C5.57201 8.37672 5.57691 8.39462 5.58 8.41858C5.5876 8.45039 5.614 8.49752 5.64568 8.5493C5.70171 8.64422 5.77113 8.74957 5.82483 8.84062C5.81569 8.75549 5.78877 8.67526 5.75387 8.59953C5.7124 8.51182 5.62933 8.41922 5.56789 8.35573ZM18.7814 11.2743C18.7604 11.2783 18.7373 11.2784 18.7151 11.2754L18.7142 11.2785C18.6996 11.3537 18.6983 11.4524 18.7037 11.5629C18.7203 11.8449 18.7997 12.1975 18.9541 12.4125C18.9897 12.4621 19.027 12.5056 19.0695 12.5308C19.0289 12.4401 18.9837 12.3185 18.9407 12.1776C18.86 11.9006 18.788 11.5568 18.7814 11.2743ZM19.3481 12.315C19.3935 12.1528 19.4171 11.9513 19.4205 11.7508C19.4224 11.4971 19.3932 11.2477 19.3177 11.0813C19.304 11.0477 19.2855 11.0194 19.2662 10.9941C19.2543 10.9777 19.2416 10.9641 19.2224 10.9621C19.2062 10.9608 19.1931 10.9604 19.1822 10.964C19.1586 10.9771 19.1509 11.0047 19.1415 11.0385C19.12 11.115 19.1157 11.2128 19.1227 11.3172C19.1391 11.6355 19.2458 12.0321 19.333 12.2745C19.3387 12.2893 19.3414 12.3033 19.3481 12.315ZM10.5845 9.23833C10.6518 8.96323 10.6008 8.72111 10.4352 8.60532C10.3225 8.52418 10.1601 8.51491 9.9651 8.58562C9.85524 8.62413 9.76276 8.73038 9.67042 8.80018C9.63178 8.83225 9.62637 8.88686 9.6323 8.94804C9.64093 9.10568 9.72657 9.29474 9.84171 9.44929C9.89658 9.52412 9.95724 9.59071 10.0251 9.64287C10.0994 9.6372 10.1762 9.62239 10.2573 9.59238C10.3562 9.55735 10.4347 9.5133 10.4929 9.44711C10.5327 9.35257 10.5723 9.25804 10.5845 9.23833ZM9.37781 8.61898C9.36995 8.62348 9.36209 8.62786 9.35437 8.63224C9.2834 8.68505 9.26061 8.77765 9.25764 8.88248C9.2552 8.99736 9.28546 9.12474 9.34844 9.24155C9.31573 9.14651 9.29602 9.05184 9.28997 8.96748C9.28224 8.82994 9.31277 8.70977 9.37781 8.61898ZM13.5584 7.36145L13.5369 7.3554C13.2278 7.29178 12.9131 7.34226 12.6921 7.51794C12.6243 7.57164 12.566 7.63784 12.5183 7.71357C12.4461 7.69992 12.3842 7.70893 12.3372 7.73546C12.2456 7.77912 12.1685 7.8895 12.1543 8.05731C12.1311 8.30511 12.2313 8.71299 12.4625 9.01887C12.6474 9.26577 12.9122 9.45226 13.2476 9.45728C13.5289 9.54937 13.8419 9.50506 14.0893 9.24748C14.4517 8.87372 14.5452 8.51684 14.4928 8.2214L14.4913 8.21444C14.521 7.90895 14.441 7.62895 14.2651 7.46732C14.1137 7.3357 13.8789 7.26641 13.5584 7.36145ZM13.5683 7.71434C13.512 7.73817 13.4511 7.76728 13.3844 7.80475C13.0346 8.00374 12.8829 8.23865 12.8709 8.46971C12.8692 8.49894 12.8684 8.52521 12.8708 8.55226C12.9797 8.68195 13.1392 8.77288 13.2982 8.79439C13.3904 8.80714 13.456 8.8915 13.4463 8.98461C13.44 9.04231 13.4041 9.08829 13.357 9.11469C13.3949 9.1089 13.4368 9.10078 13.4765 9.08881C13.8665 8.97032 14.0918 8.59103 14.1464 8.24316L14.1473 8.24007C14.0775 7.98274 13.8361 7.796 13.5683 7.71434ZM7.3438 5.74641C7.33144 5.74293 7.32229 5.74035 7.31225 5.74087C7.24849 5.73288 7.18307 5.75413 7.12743 5.81119C7.07746 5.85987 7.02813 5.96497 7.00173 6.10612C6.95833 6.35482 6.97275 6.73875 7.09382 7.01372C7.19311 7.23653 7.35758 7.39159 7.59224 7.41452C7.72773 7.42611 7.88923 7.39223 8.08126 7.28431C8.45154 7.07116 8.52817 6.73926 8.45025 6.4169C8.3807 6.12325 8.16884 5.84249 7.95672 5.70378C7.76752 5.57795 7.57653 5.56404 7.43808 5.65728C7.40369 5.67403 7.37188 5.70481 7.3438 5.74641ZM7.32706 6.57067C7.33839 6.65967 7.35681 6.74738 7.38463 6.82452C7.42314 6.93451 7.47903 7.02943 7.57537 7.06304C7.63268 7.08236 7.703 7.07901 7.78105 7.0481C7.69823 7.00174 7.62199 6.94404 7.55 6.87102C7.4789 6.7949 7.39313 6.68826 7.32706 6.57067ZM8.0935 6.80546C8.14012 6.70964 8.14488 6.59862 8.11861 6.49224C8.06735 6.2863 7.92491 6.08783 7.77821 5.98712C7.74486 5.96458 7.71292 5.949 7.68317 5.9374C7.66166 5.93135 7.64414 5.92311 7.62856 5.932C7.60975 5.93998 7.60293 5.96445 7.59121 5.9942C7.57022 6.05757 7.56223 6.1445 7.56764 6.255C7.56867 6.29828 7.59121 6.34748 7.61452 6.39371C7.66436 6.48696 7.73906 6.57389 7.79831 6.63352C7.88215 6.72303 7.98067 6.78382 8.0935 6.80546ZM17.8032 8.16949C17.7692 8.1731 17.7316 8.18907 17.6935 8.23118C17.6513 8.27549 17.5294 8.46249 17.5615 8.68955C17.5814 8.83045 17.6586 8.99093 17.8676 9.12873C17.9811 9.20691 18.0866 9.2431 18.1883 9.24516C18.2769 9.24696 18.3664 9.22249 18.4583 9.1657C18.4975 9.16685 18.5403 9.15578 18.5743 9.12899C18.616 9.09769 18.639 9.05133 18.6396 9.002C18.7868 8.81873 18.8119 8.58794 18.7641 8.36976C18.7089 8.11978 18.5527 7.8877 18.4009 7.76921C18.2432 7.64892 18.0806 7.63964 17.9649 7.72284C17.8862 7.7799 17.805 7.91577 17.8032 8.16949ZM17.9018 8.58356C17.8962 8.61498 17.8998 8.64911 17.9105 8.6817C17.9312 8.73708 17.9792 8.79014 18.0563 8.84488C18.0864 8.86651 18.1176 8.88519 18.1452 8.89291C18.1061 8.85557 18.0679 8.81512 18.0327 8.77559C17.9835 8.71544 17.9383 8.65323 17.9018 8.58356ZM18.1624 8.01932C18.1606 8.02537 18.1589 8.03156 18.1573 8.03761C18.1475 8.08449 18.1419 8.1391 18.1476 8.21328C18.1555 8.3972 18.2495 8.50937 18.349 8.61331C18.3776 8.64113 18.4031 8.66804 18.4316 8.69586C18.4501 8.64164 18.4565 8.58394 18.4504 8.5229C18.4375 8.38045 18.3722 8.23672 18.2919 8.13485C18.2553 8.08835 18.1927 8.04096 18.1624 8.01932ZM17.668 8.39243C17.6795 8.42205 17.6927 8.44562 17.7137 8.46468C17.7317 8.48297 17.7584 8.49379 17.7829 8.50062C17.7308 8.48606 17.6887 8.44781 17.668 8.39243ZM10.5605 5.08699C10.4974 5.05273 10.4035 5.04617 10.3069 5.13143C10.2317 5.19943 10.1267 5.36158 10.0858 5.55476C10.043 5.75413 10.0668 5.97553 10.2253 6.1521C10.5305 6.48863 10.802 6.54504 11.0131 6.4755C11.1547 6.42939 11.2774 6.32185 11.3728 6.17026C11.6237 6.11179 11.8366 5.97669 11.9375 5.79367C12.0475 5.59005 12.0461 5.31225 11.797 4.98808C11.7433 4.92021 11.6458 4.90269 11.5736 4.94854C11.5709 4.9345 11.566 4.9166 11.5634 4.90269C11.5056 4.68504 11.3894 4.59295 11.2713 4.56642C11.197 4.5489 11.1119 4.55805 11.0243 4.59952C10.9305 4.63919 10.8317 4.72045 10.7431 4.82439C10.6723 4.90037 10.6133 4.99272 10.5605 5.08699ZM15.5545 5.73198C15.5328 5.73907 15.5132 5.75014 15.4918 5.76727C15.3103 5.90791 15.2162 6.12583 15.2046 6.36705C15.1853 6.69509 15.3097 7.06356 15.5026 7.30594C15.6515 7.49308 15.846 7.60049 16.0429 7.59302C16.1795 7.58838 16.3217 7.52927 16.4568 7.38876C16.8106 7.02247 16.9081 6.58085 16.8021 6.21753C16.6955 5.84416 16.377 5.54343 15.8757 5.482C15.7612 5.46641 15.6728 5.51085 15.609 5.6086C15.5865 5.64196 15.5683 5.68304 15.5545 5.73198ZM10.4078 5.67815C10.3977 5.76122 10.4121 5.85111 10.4772 5.92556L10.4823 5.93032C10.4375 5.85498 10.4152 5.76946 10.4078 5.67815ZM11.1547 5.86464C11.1629 5.84712 11.168 5.8287 11.1763 5.81119C11.2716 5.55399 11.298 5.22454 11.2352 4.98898C11.2291 4.96413 11.222 4.94223 11.2109 4.92266C11.2043 4.91094 11.2038 4.90089 11.1947 4.89831C11.1763 4.89316 11.1589 4.9081 11.1393 4.91905C11.0914 4.94854 11.0431 4.99117 10.9953 5.04385C10.8684 5.1899 10.7581 5.40665 10.746 5.59134C10.7402 5.65909 10.7492 5.72116 10.7847 5.77075C10.8212 5.81724 10.883 5.84455 10.969 5.85549C11.032 5.86657 11.0936 5.87056 11.1547 5.86464ZM16.1899 7.17522C16.1946 7.16994 16.2034 7.16247 16.209 7.1541C16.4642 6.89214 16.5465 6.57505 16.4723 6.30987C16.4013 6.06864 16.1968 5.87919 15.8822 5.82394C15.8748 5.86155 15.8638 5.92453 15.8623 5.97694C15.8603 6.29004 15.9687 6.76309 16.08 7.02544C16.1003 7.07077 16.1289 7.12177 16.143 7.14225C16.1636 7.15127 16.1771 7.1617 16.1899 7.17522ZM15.5512 6.30897C15.5473 6.33434 15.5427 6.3628 15.5419 6.38895C15.5294 6.61008 15.6049 6.85904 15.7262 7.03844C15.6528 6.82954 15.5865 6.55998 15.5512 6.30897ZM11.6041 5.31045C11.6009 5.45147 11.5836 5.59533 11.5512 5.73482C11.589 5.70584 11.6176 5.67415 11.6389 5.63397C11.6869 5.54498 11.6769 5.43975 11.6041 5.31045ZM13.3069 4.88003C13.2605 4.88028 13.1812 4.90424 13.1253 4.99748C13.0831 5.06497 13.0345 5.20316 13.027 5.35965C13.0185 5.51909 13.0512 5.69669 13.1638 5.8372C13.2591 5.95647 13.4067 6.05409 13.6458 6.08474C13.8564 6.11089 14.003 6.0595 14.1056 5.97604C14.2092 5.88949 14.2715 5.76173 14.2921 5.60564C14.3176 5.36183 14.2379 5.04552 14.1119 4.81202C14.0366 4.66868 13.9395 4.5556 13.8501 4.49751C13.7523 4.43376 13.651 4.41844 13.5629 4.44986C13.4827 4.47691 13.3965 4.54852 13.3383 4.69727C13.321 4.73539 13.3099 4.79837 13.3069 4.88003ZM13.3636 5.45405C13.3647 5.47414 13.3687 5.49513 13.3758 5.5169C13.3799 5.53789 13.3877 5.5567 13.3988 5.57627C13.3859 5.53957 13.3749 5.49681 13.3636 5.45405ZM13.6698 4.78704C13.6641 4.79541 13.6568 4.80983 13.6542 4.81898C13.6426 4.84873 13.6433 4.90514 13.6427 4.97765C13.6443 5.1134 13.6677 5.28842 13.7083 5.43847C13.7243 5.49913 13.7419 5.55361 13.7663 5.59675C13.7772 5.61633 13.7934 5.6408 13.8009 5.64943C13.8377 5.65973 13.8688 5.6784 13.8903 5.70751C13.9269 5.67158 13.9414 5.61955 13.9468 5.56494C13.9713 5.3836 13.9016 5.14933 13.8086 4.97456C13.7744 4.90887 13.7343 4.85131 13.6931 4.81009C13.6895 4.79914 13.6782 4.7927 13.6698 4.78704ZM13.1612 5.11662L13.1599 5.10953C13.159 5.11262 13.1581 5.11571 13.1612 5.11662Z" fill="#FF914D"/>
<path fill-rule="evenodd" clip-rule="evenodd" d="M36.2103 33.4238C36.2201 33.4211 36.4415 33.334 36.6387 33.2752C37.2351 33.0901 38.1491 32.8445 38.3234 32.7671C38.4498 32.7103 38.4965 32.6223 38.5097 32.5937C38.5765 32.4504 38.5512 32.3221 38.4707 32.2129C38.4482 32.1835 38.4075 32.1274 38.3342 32.0944C38.3611 32.0763 38.3838 32.0556 38.3967 32.0377C38.4644 31.9618 38.4827 31.8747 38.4895 31.8229C38.5005 31.7095 38.4688 31.6221 38.4234 31.5494C38.38 31.4833 38.3218 31.4283 38.2409 31.394C38.1804 31.3683 38.0909 31.3541 37.9948 31.3669L37.9773 31.3683C37.9168 31.3175 37.8336 31.2874 37.7152 31.3099C37.6647 31.3205 37.611 31.3321 37.5605 31.3427C37.5527 31.3271 37.5414 31.3124 37.5301 31.2977C37.4923 31.2513 37.4271 31.1842 37.3052 31.1685C37.2943 31.168 37.2552 31.1683 37.185 31.1844C37.1028 31.1327 37.0058 31.1171 36.9152 31.1497C36.8533 31.1706 36.4872 31.3125 36.4086 31.363C36.3066 31.4307 36.2733 31.515 36.2627 31.5535C36.2474 31.6005 36.2429 31.6481 36.2474 31.6896C36.237 31.7031 36.2299 31.7159 36.2194 31.7294C36.0194 31.7785 35.9373 31.8157 35.9284 31.8218C35.8868 31.8513 35.8626 31.8795 35.8474 31.9015C35.7611 32.0254 35.7746 32.1498 35.8122 32.2461C35.8168 32.2626 35.8635 32.3778 35.9733 32.4396C35.8608 32.546 35.8484 32.667 35.8476 32.7277C35.8484 32.756 35.8492 32.7842 35.8566 32.8107L35.8533 32.8117C35.7049 32.9174 35.6695 33.1339 35.7732 33.3007C35.8628 33.4678 36.0623 33.5187 36.2103 33.4238ZM43.5174 31.1074C43.5425 31.0825 43.5568 31.0571 43.5662 31.0403C43.6271 30.927 43.6192 30.8223 43.5908 30.7341C43.5662 30.6592 43.5191 30.5798 43.4176 30.5228C43.388 30.5062 43.3424 30.4832 43.2699 30.4787C43.2374 30.4772 43.1667 30.4791 43.0508 30.4974C43.0335 30.3597 42.8733 30.2586 42.5195 30.2796C42.428 30.2197 42.3187 30.2112 42.2242 30.2555C42.1521 30.2651 41.5559 30.3361 41.4535 30.3649C41.2695 30.42 41.2265 30.5709 41.2163 30.6237C41.2061 30.6764 41.1846 30.9425 41.4248 31.0497C41.3984 31.057 41.3696 31.0687 41.3474 31.0784C41.1827 31.1389 41.0556 31.2065 41.006 31.2454L40.997 31.2515C40.923 31.2544 40.8541 31.288 40.7958 31.347C40.6311 31.5215 40.6425 31.6892 40.667 31.7893C40.6979 31.9124 40.7937 32.0636 41.0164 32.1079C41.1444 32.1327 41.3903 32.1207 41.6727 32.0735C42.2309 31.9811 42.9626 31.783 43.0196 31.7706C43.0965 31.7526 43.2529 31.7514 43.3321 31.7292C43.4212 31.7042 43.4823 31.6551 43.5201 31.6123C43.5732 31.5476 43.5995 31.4761 43.6055 31.3961C43.6092 31.3202 43.5979 31.2166 43.5174 31.1074ZM33.5164 34.7528C33.5383 34.704 33.5502 34.6579 33.5542 34.6212C33.5596 34.5519 33.5558 34.4746 33.5214 34.4024C33.5908 34.2689 33.5688 34.1398 33.4948 34.0287C33.4836 34.0141 33.4636 33.9804 33.4261 33.9482C33.4135 33.9162 33.3967 33.8817 33.3742 33.8524C33.2693 33.7073 33.0868 33.6659 32.9503 33.7504C32.9163 33.7565 32.7588 33.7793 32.6519 33.7914C32.4685 33.8108 32.2837 33.8376 32.1695 33.8876C31.9821 33.9686 31.9022 34.1157 31.8879 34.255C31.8829 34.3134 31.8892 34.3614 31.898 34.4053C31.8687 34.5169 31.8875 34.6219 31.9544 34.7207C31.953 34.7283 31.9506 34.7325 31.9482 34.7367C31.9078 34.8336 31.9163 34.9273 31.9427 35.009C31.9664 35.0807 32.0219 35.1898 32.1671 35.2381C32.2528 35.353 32.3925 35.4064 32.526 35.3619C32.6397 35.3228 33.2084 35.1917 33.3127 35.1447C33.4138 35.0986 33.4552 35.03 33.4709 34.9971C33.5207 34.9083 33.5301 34.8274 33.5164 34.7528ZM37.6033 35.7115C37.6511 35.691 37.7044 35.6654 37.7124 35.656C37.8851 35.5222 37.8483 35.3401 37.8246 35.2685C37.8144 35.232 37.73 34.9565 37.432 35.0117C37.4014 35.0167 37.375 35.0242 37.3443 35.0292C37.2679 34.9473 37.1018 34.9013 36.8134 34.9394L36.7959 34.9407C36.7893 34.9426 36.7785 34.942 36.772 34.9439L36.7553 34.9486C36.7314 34.9518 36.7082 34.9582 36.6842 34.9614C36.671 34.965 36.6577 34.9688 36.6412 34.9734C36.2409 35.0573 35.1096 35.3033 34.9377 35.4014C34.6887 35.5424 34.7544 35.7768 34.7744 35.8353C34.7781 35.8486 34.7828 35.865 34.7917 35.884C34.6981 35.9315 34.6303 36.0325 34.6204 36.1493C34.5632 36.2758 34.5889 36.3931 34.6492 36.4938C34.6702 36.5306 34.7128 36.5935 34.7923 36.6353C34.7792 36.7031 34.7892 36.7644 34.8031 36.8139C34.8309 36.913 34.8903 37.0103 35.0214 37.0589C35.0492 37.069 35.1047 37.0891 35.1858 37.0735C35.8181 36.9531 36.4981 36.6982 37.0901 36.4468C37.1765 36.4119 37.3523 36.391 37.4433 36.3476C37.5289 36.3095 37.5848 36.2546 37.6189 36.1987C37.6716 36.1198 37.6923 36.0286 37.6829 35.9315C37.6826 35.8674 37.6614 35.7915 37.6033 35.7115ZM42.7176 34.9611C42.7848 34.8959 42.8069 34.8221 42.8152 34.7627C42.8293 34.6733 42.8118 34.5856 42.7595 34.5006C42.7342 34.4613 42.674 34.3608 42.5167 34.3336L42.5125 34.3311C42.5051 34.3047 42.4935 34.276 42.4761 34.2523C42.4699 34.1793 42.4349 34.1179 42.3597 34.0784L42.3579 34.0719C42.3291 33.9945 42.2693 33.8829 42.106 33.8469C42.0867 33.8416 42.0523 33.8334 41.9943 33.8425C41.9769 33.8439 41.9231 33.8554 41.8141 33.8859L41.6766 33.9032C41.5757 33.8103 41.4378 33.7884 41.3264 33.8482C41.274 33.8522 41.0252 33.8792 40.9105 33.915C40.6978 33.9817 40.5915 34.1363 40.5728 34.2982C40.544 34.3099 40.5162 34.3248 40.4873 34.3364C40.3963 34.3798 40.3319 34.4299 40.2883 34.4777C40.076 34.5586 39.8866 34.658 39.7419 34.777C39.6288 34.8692 39.617 34.9795 39.6217 35.06C39.6251 35.1481 39.6543 35.2396 39.7298 35.3182C39.7401 35.3295 39.7589 35.3456 39.7767 35.3585C39.754 35.3791 39.7356 35.402 39.7213 35.4274C39.6425 35.5529 39.6158 35.6992 39.7214 35.8726C39.7184 35.9127 39.7212 35.9475 39.7276 35.9707C39.7519 36.0956 39.8508 36.2959 40.1366 36.3118C40.4442 36.3288 41.4583 36.0586 42.1034 35.8314C42.4115 35.7236 42.6415 35.6165 42.7081 35.5621C42.8438 35.4492 42.851 35.3226 42.8528 35.2651C42.8454 35.1496 42.8138 35.0374 42.7176 34.9611ZM46.3615 33.7682C46.3777 33.7244 46.3808 33.6843 46.381 33.6595C46.3905 33.5285 46.3507 33.3866 46.18 33.299C46.1632 33.2895 46.089 33.2534 45.9721 33.2683C45.9348 33.2752 45.8668 33.2872 45.7782 33.3013L45.7773 33.298C45.7437 33.2291 45.6396 33.0481 45.402 33.0898C45.338 33.065 45.2664 33.0637 45.1989 33.0898C45.1215 33.1187 45.0677 33.1551 45.0298 33.1978C44.8647 33.2441 44.7023 33.3003 44.5511 33.3961C44.4638 33.4528 44.3766 33.5483 44.3508 33.609C44.3056 33.7144 44.3103 33.8198 44.347 33.9128C44.3516 33.9293 44.3614 33.9516 44.3754 33.9761C44.3376 34.0188 44.3162 34.0568 44.3028 34.0855C44.2457 34.212 44.2598 34.3256 44.3007 34.4209C44.3319 34.4941 44.3848 34.5682 44.4745 34.6214C44.4853 34.6469 44.4992 34.6715 44.5123 34.6928C44.5507 34.7533 44.6284 34.8526 44.7918 34.8638C44.8351 34.8659 44.952 34.8509 45.094 34.811C45.3161 34.7523 45.6426 34.6465 45.7346 34.6313C45.8024 34.6195 46.098 34.5936 46.3115 34.5551C46.4441 34.5322 46.552 34.4983 46.6045 34.4693C46.7462 34.3904 46.7793 34.2671 46.7877 34.1829C46.7977 34.0661 46.7648 33.9614 46.6756 33.8724C46.6415 33.8393 46.5749 33.7795 46.4581 33.7696C46.4345 33.7619 46.403 33.7637 46.3615 33.7682ZM33.1288 37.8035C33.1371 37.7691 33.1395 37.74 33.1396 37.715C33.1425 37.6108 33.0687 37.2968 32.7224 37.3191C32.694 37.3199 32.6568 37.3268 32.613 37.3356C32.5578 37.2655 32.4634 37.1958 32.3093 37.1928C32.0663 37.1897 31.0774 37.41 30.8929 37.4761C30.7117 37.5411 30.6917 37.6856 30.682 37.7275L30.6815 37.7383C30.6479 37.7584 30.621 37.7767 30.604 37.7922C30.4587 37.922 30.4664 38.0765 30.484 38.1641C30.5029 38.2443 30.5392 38.3232 30.6175 38.3867C30.5963 38.3998 30.5784 38.4119 30.5603 38.4241C30.4527 38.497 30.3881 38.5721 30.3644 38.6144C30.3042 38.7167 30.306 38.8124 30.3222 38.8828C30.3406 38.9737 30.3853 39.0573 30.4712 39.1223C30.4806 39.1303 30.4934 39.1374 30.5102 39.1469C30.5279 39.2096 30.5634 39.2602 30.6046 39.3057C30.6656 39.3705 30.7962 39.455 30.9984 39.4268C31.3863 39.375 32.5502 38.8135 32.6517 38.7814C32.9305 38.6961 32.9091 38.7093 33.1815 38.6008C33.2878 38.5603 33.56 38.4518 33.595 38.4243C33.752 38.2983 33.7307 38.1333 33.7085 38.0541C33.6955 38.0079 33.6224 37.7469 33.3245 37.7771C33.2632 37.7871 33.1977 37.7949 33.1288 37.8035ZM45.0669 34.6762L45.0606 34.6921C45.0621 34.6847 45.0645 34.6804 45.0669 34.6762ZM39.1129 38.9603C39.3309 38.8743 39.5416 38.7617 39.6141 38.6773C39.6729 38.6074 39.7023 38.535 39.7112 38.4648C39.8778 38.411 40.0476 38.3563 40.2113 38.2925C40.3785 38.2279 40.4567 38.0242 40.3907 37.8398C40.3247 37.6552 40.133 37.5558 39.9659 37.6205C39.8564 37.6619 39.7427 37.701 39.6323 37.7391C39.6203 37.6711 39.5925 37.597 39.5245 37.5199C39.4678 37.4574 39.3576 37.3816 39.1984 37.3728C39.1874 37.3723 39.18 37.3707 39.1701 37.3736C39.1269 37.3465 39.0723 37.3298 39.004 37.3276C38.9466 37.3258 38.4701 37.4559 38.3822 37.4984C38.3257 37.5249 38.2992 37.5572 38.2854 37.5718C38.1869 37.6778 38.1901 37.7909 38.2005 37.8663C38.2037 37.8903 38.2088 37.9209 38.2205 37.9498C38.1902 38.058 38.2005 38.1584 38.2285 38.2325L38.2331 38.249L38.1757 38.2473C37.9948 38.2375 37.8485 38.3888 37.8508 38.5877C37.8523 38.7832 37.9984 38.9488 38.1793 38.9586L38.3167 38.9663C38.3439 39.0122 38.3808 39.0552 38.4367 39.0895C38.464 39.1103 38.5189 39.1411 38.6023 39.1463C38.6272 39.1464 38.6913 39.1463 38.7964 39.1275C38.9412 39.0976 39.0532 39.0269 39.1129 38.9603ZM35.0197 40.5962C35.1297 40.569 35.2353 40.5393 35.3122 40.5214C35.4561 40.4881 35.5957 40.4525 35.7325 40.407C35.7523 40.4015 35.8024 40.3767 35.809 40.3749C35.8368 40.36 35.8562 40.3403 35.8732 40.3248C35.9483 40.3002 36.0215 40.2689 36.0946 40.2378C36.1301 40.2243 36.2174 40.1927 36.2418 40.1787C36.2788 40.1577 36.3038 40.1328 36.3199 40.114C36.3772 40.0517 36.4012 39.9844 36.4085 39.9219C36.5518 39.7855 36.4894 39.575 36.4837 39.5552C36.4648 39.5001 36.3914 39.2891 36.1411 39.2988L36.1378 39.2997C36.1084 39.2581 36.0671 39.2126 36.0004 39.178C35.975 39.1637 35.9473 39.1536 35.9163 39.1445C35.8817 39.0722 35.8231 39.0032 35.7165 38.9654C35.7004 38.9593 35.6139 38.9302 35.4356 38.9801C35.3663 38.9996 35.3109 39.0436 35.2701 39.1013C35.2489 39.1145 35.2276 39.1275 35.2097 39.1397C35.1794 39.1589 35.1534 39.1804 35.1317 39.2044C34.9033 39.2791 34.6805 39.3736 34.4877 39.4989C34.4518 39.5232 34.4258 39.5447 34.4049 39.5719C34.3794 39.5826 34.353 39.5901 34.3275 39.6008C34.1916 39.6496 34.209 39.6483 34.0763 39.6961C34.0411 39.7096 33.9481 39.7464 33.9366 39.7567C33.7792 39.8685 33.7921 40.0287 33.8045 40.1108C33.822 40.1985 33.862 40.2906 33.9714 40.3631C33.9893 40.376 34.0333 40.4064 34.1134 40.4123C34.1097 40.4881 34.1264 40.5476 34.1291 40.5576C34.1311 40.5641 34.2668 40.9214 34.5794 40.7909C34.7271 40.721 34.8725 40.6553 35.0197 40.5962ZM44.9112 37.2452C45.278 37.0674 45.373 36.8983 45.2916 36.7858C45.3071 36.5998 45.0174 36.5066 44.2947 36.7234L44.2848 36.7263L44.2584 36.7336L44.2353 36.7402C44.1742 36.7003 44.1046 36.6807 44.0324 36.6902C44.0324 36.6902 43.8699 36.7073 43.778 36.7224L43.768 36.7251C43.6091 36.7555 43.4507 36.775 43.2969 36.8359C43.1685 36.8862 43.1075 36.9353 43.0825 36.9602C43.0128 37.0296 42.9917 37.1067 42.9816 37.1594C42.9796 37.1778 42.9776 37.1961 42.9757 37.2145C42.9322 37.2373 42.8978 37.2542 42.8707 37.2723C42.7068 37.3861 42.6821 37.5391 42.6849 37.613C42.6867 37.6446 42.6884 37.6761 42.6968 37.7059C42.6773 37.7256 42.6555 37.7495 42.6414 37.7749C42.5435 37.9341 42.5881 38.1566 42.7411 38.2705C42.8688 38.37 43.1872 38.2736 43.1872 38.2736C43.1872 38.2736 43.1716 38.2814 43.1617 38.2843C43.2811 38.2401 44.4316 37.9352 44.7189 37.8298C44.9191 37.7558 44.9721 37.6021 44.9779 37.5719C45.0071 37.4604 44.986 37.3595 44.9285 37.2687C44.9233 37.2631 44.9172 37.2541 44.9112 37.2452Z" fill="#F8EA2B"/>
<path d="M10.4814 15.7815C10.4814 13.7205 11.9901 12.0498 13.8511 12.0498H36.4016C38.2626 12.0498 39.7712 13.7205 39.7712 15.7815V24.9671C39.7712 27.028 38.2626 28.6987 36.4016 28.6987H13.8511C11.9901 28.6987 10.4814 27.028 10.4814 24.9671V15.7815Z" fill="white"/>
<path d="M37.9174 22.5816C38.0838 23.238 38.033 23.8251 37.7649 24.3428C37.4968 24.8605 37.0576 25.2211 36.4475 25.4245C35.7633 25.6648 34.9405 25.8035 33.9791 25.8405C33.2672 25.8682 32.6108 25.5493 32.0099 24.8836C31.788 24.634 31.6493 24.3659 31.5939 24.0793C31.5476 23.7927 31.5939 23.5339 31.7325 23.3028C31.9544 22.9145 32.3196 22.7203 32.8281 22.7203C32.9667 22.7203 33.1054 22.7342 33.2441 22.7619C33.318 22.7804 33.4382 22.8128 33.6046 22.859C33.771 22.9052 33.9005 22.9422 33.9929 22.9699C34.0854 22.9884 34.2056 23.0115 34.3535 23.0393C34.5014 23.0578 34.6401 23.0624 34.7695 23.0531C34.9082 23.0439 35.0469 23.0208 35.1855 22.9838L35.6432 22.8451L35.5738 22.6926C35.4999 22.5077 35.3935 22.3505 35.2549 22.2211C35.1162 22.0917 34.9775 21.9992 34.8388 21.9437C34.7094 21.879 34.5522 21.8143 34.3673 21.7496C33.4151 21.463 32.5553 20.9314 31.788 20.1548C31.2241 19.5816 30.9606 18.9391 30.9976 18.2273C31.0345 17.5246 31.3535 16.9283 31.9544 16.4384C33.1008 15.4954 34.3997 15.1949 35.8512 15.537C36.4983 15.6849 36.9791 16.0131 37.2934 16.5216C37.4136 16.7342 37.4829 16.9653 37.5014 17.2149C37.5106 17.4461 37.4598 17.5986 37.3489 17.6726C37.2379 17.7558 37.0669 17.7511 36.8358 17.6587C35.976 17.3074 35.2179 17.2057 34.5615 17.3536C34.2472 17.4276 33.8589 17.594 33.3966 17.8528C33.2025 17.9638 33.1054 18.1071 33.1054 18.2827C33.1054 18.4584 33.1979 18.6063 33.3828 18.7265L33.6878 18.9068C34.3535 19.3135 34.8666 19.5863 35.2271 19.7249C36.7063 20.3166 37.6031 21.2689 37.9174 22.5816Z" fill="#004AAD"/>
<path d="M31.1675 23.6496C31.1767 23.7143 31.1906 23.7744 31.2091 23.8299C31.1999 24.1719 31.1213 24.4585 30.9734 24.6896C30.8347 24.9208 30.6359 25.0779 30.3771 25.1611C30.1182 25.2351 29.8686 25.2212 29.6282 25.1195C29.3878 25.0178 29.1937 24.8468 29.0458 24.6064C28.8886 24.3383 28.7546 24.0055 28.6436 23.608C28.6251 23.5248 28.5974 23.4508 28.5604 23.3861C28.5327 23.3214 28.4911 23.2613 28.4356 23.2058C28.3894 23.1504 28.3247 23.1041 28.2415 23.0672C28.1583 23.0302 28.0612 23.0117 27.9502 23.0117C27.5897 23.0024 27.0535 22.9839 26.3416 22.9562C25.4171 22.91 24.7006 22.8823 24.1922 22.873C24.0997 22.873 23.998 22.91 23.8871 22.9839C23.7761 23.0579 23.6929 23.1411 23.6375 23.2336C23.5358 23.4092 23.3971 23.6727 23.2214 24.024C23.0458 24.3846 22.9025 24.6527 22.7915 24.8283C22.6436 25.0964 22.4634 25.2813 22.2507 25.383C22.0473 25.4755 21.8347 25.4708 21.6128 25.3692C21.4094 25.2859 21.2569 25.1334 21.1552 24.9115C21.0535 24.6804 21.0442 24.4262 21.1275 24.1488C21.451 23.1411 21.8671 21.9994 22.3755 20.7236C22.6991 19.91 23.1059 18.9947 23.5959 17.9778C23.9657 17.2012 24.3077 16.5864 24.6221 16.1334C24.8347 15.8283 25.1444 15.5602 25.5512 15.3291C25.8563 15.1442 26.1475 15.0518 26.4248 15.0518C26.9148 15.0518 27.3216 15.3245 27.6452 15.8699C28.4495 17.2382 29.1244 18.477 29.6698 19.5864C30.2153 20.6866 30.659 21.8237 31.0011 22.9978C31.0473 23.155 31.1028 23.3722 31.1675 23.6496ZM25.0103 20.5294H27.6036L26.1197 17.4924L25.0103 20.5294Z" fill="#004AAD"/>
<path d="M20.7154 23.4972C20.9927 23.7283 21.1684 23.9964 21.2424 24.3015C21.3163 24.5974 21.2747 24.8747 21.1175 25.1336C20.9604 25.4109 20.7293 25.5866 20.4242 25.6605C20.1283 25.7252 19.8001 25.6883 19.4396 25.5496C18.7462 25.263 18.0806 24.7499 17.4427 24.0103L17.0128 23.5111C16.3934 22.79 15.9311 22.2491 15.626 21.8886C15.5983 21.8516 15.5613 21.7915 15.5151 21.7083C15.4966 21.6621 15.4781 21.6297 15.4596 21.6112L15.3764 21.4726L15.0575 21.6944V22.3739C15.0575 23.0951 15.0575 23.622 15.0575 23.9548V24.038C15.0575 24.3524 15.0436 24.5881 15.0159 24.7453C14.9696 24.9856 14.8679 25.1844 14.7108 25.3416C14.5536 25.4987 14.3641 25.5866 14.1422 25.6051C13.9203 25.6328 13.7123 25.5912 13.5182 25.4803C13.3333 25.3693 13.2038 25.2121 13.1299 25.0088C12.945 24.5373 12.8525 24.112 12.8525 23.733C12.8525 22.2907 12.8757 20.1089 12.9219 17.1875V17.0488C12.9219 16.8362 12.9681 16.5958 13.0606 16.3277C13.19 15.9302 13.4304 15.736 13.7817 15.7453C14.1422 15.7545 14.3641 15.9441 14.4473 16.3139C14.5213 16.6097 14.5998 17.0627 14.683 17.6729L14.7385 18.0057C14.757 18.1629 14.7847 18.4032 14.8217 18.7268C14.8402 18.8562 14.8541 18.981 14.8633 19.1012L14.8911 19.3647L15.1961 19.1428C15.2516 19.1058 15.2932 19.0735 15.3209 19.0458L18.8849 15.8285C18.9034 15.81 18.9404 15.7823 18.9958 15.7453L19.0236 15.7314C19.3102 15.5465 19.5875 15.4587 19.8556 15.4679C20.1237 15.4772 20.341 15.5881 20.5074 15.8008C20.683 16.0226 20.7431 16.2723 20.6877 16.5496C20.6414 16.8177 20.4935 17.0581 20.2439 17.2707C19.8741 17.585 19.3009 18.0473 18.5243 18.6575C18.136 18.9533 17.8402 19.1844 17.6368 19.3508C17.4981 19.4618 17.304 19.6236 17.0544 19.8362L16.6384 20.1829L16.8602 20.3909C16.9434 20.4649 17.0035 20.5157 17.0405 20.5434C17.2531 20.7191 17.6368 21.0288 18.1915 21.4726C19.2824 22.3416 20.1237 23.0165 20.7154 23.4972Z" fill="#004AAD"/>
</svg>
