<svg width="85" height="106" viewBox="0 0 85 106" fill="none" xmlns="http://www.w3.org/2000/svg">
<path d="M79.9528 93.2678C81.757 91.0882 83.4812 88.6791 84.1122 85.8818C84.21 84.4698 84.4233 83.0844 84.7166 81.7078C85.472 76.3426 84.3077 70.9685 83.3745 65.7003C81.837 57.573 80.5927 49.384 78.6108 41.3449C77.0288 35.009 76.1845 28.4878 74.087 22.293C72.1228 16.2924 70.7808 10.0624 68.0168 4.35301C67.0569 2.29692 64.9594 1.03503 62.8975 0.267302C61.2 -0.15627 59.4136 0.0113953 57.6982 0.179059C55.4141 0.532036 53.1745 1.17621 50.8726 1.44095C48.9351 1.66156 47.0065 1.97041 45.1134 2.42046C42.6782 3.01169 40.1541 3.13524 37.7367 3.79707C29.5601 5.87081 21.2857 7.63569 13.3136 10.433C10.6384 11.3861 7.89213 12.3568 5.62579 14.104C2.90618 16.0012 0.968696 18.9133 0.124374 22.0813C-0.0889281 23.9167 -0.0267176 25.7787 0.302124 27.5965C0.862042 30.9057 1.102 34.2589 1.84856 37.524C3.22614 43.551 4.0438 49.6664 5.42138 55.6846C6.38124 60.4233 8.03434 64.9944 8.78979 69.7772C9.64299 75.2042 11.145 80.5165 12.7359 85.767C14.1223 90.7617 14.7089 96.1181 17.4819 100.619C18.2373 101.995 19.0283 103.513 20.5303 104.219C22.1478 104.934 23.8987 105.34 25.6318 105.631C29.5068 106.072 33.4351 106.081 37.2923 105.498C41.5939 104.845 45.9488 104.413 50.206 103.486C53.05 102.86 55.9029 102.251 58.8003 101.872C64.4439 101.148 70.0253 99.7449 75.2424 97.4682C77.251 96.6387 78.5574 94.8385 79.9528 93.2678ZM6.66565 15.7365C7.25223 14.7482 8.38095 14.2716 9.35859 13.751C15.2244 11.0066 21.5346 9.42705 27.8715 8.20928C31.3199 7.54745 34.6794 6.53264 38.1278 5.87963C39.6209 5.53548 41.1318 5.38546 42.6427 5.19132C43.5136 5.07661 44.3846 4.95307 45.2378 4.77658C49.0328 3.97356 52.9345 3.85884 56.7206 3.0117C59.0136 2.66755 61.5288 2.5087 63.6352 3.64705C64.6395 4.15004 65.626 4.856 66.0882 5.92375C68.7278 11.3772 70.0965 17.3161 72.0428 23.0255C74.2025 29.1496 75.0557 35.6003 76.6555 41.8744C78.6908 49.9664 79.9261 58.2349 81.5703 66.4151C82.5746 71.5597 83.7389 76.8367 82.8768 82.0961C82.5124 84.5669 80.9838 86.7466 78.9307 88.1585C75.8467 90.5057 71.9984 91.4147 68.31 92.3412C63.9373 93.409 59.5646 94.5473 55.1475 95.4209C52.9256 95.8622 50.6948 96.2328 48.4463 96.4887C43.8336 97.0093 39.2209 97.6094 34.5727 97.7329C31.071 97.6271 27.516 97.4506 24.1298 96.5064C22.7522 96.1622 21.7657 95.0327 21.1702 93.8149C19.9704 91.4147 19.4194 88.7673 18.7439 86.1994C17.1797 79.7664 15.2155 73.4305 14.0246 66.9181C12.7003 59.8586 10.8428 52.9049 9.90962 45.7836C9.29637 41.442 8.82533 37.0828 8.25652 32.7323C7.65217 28.1083 6.63898 23.5373 6.4079 18.878C6.36346 17.8279 6.3457 16.7513 6.66565 15.7365Z" fill="#004AAD"/>
<path d="M12.9751 32.1582C13.2862 34.6908 13.7661 37.2234 14.6105 39.6501C16.0058 43.6917 16.5391 47.9539 17.7033 52.0573C18.6277 55.2605 19.3298 58.5168 19.8097 61.7994C20.4229 65.9557 21.4273 70.0414 22.3693 74.1271C23.2848 78.3805 24.2002 82.7751 26.6709 86.4548C27.7108 87.9991 29.0439 89.8169 31.1236 89.8169C33.5499 89.8169 35.9585 89.3581 38.3759 89.1728C42.4198 88.8727 46.2148 87.3461 50.1698 86.6137C51.2896 86.3931 52.4094 86.1725 53.5204 85.9342C56.5866 85.2724 59.6262 84.5311 62.6479 83.7281C66.8251 82.6074 71.1712 81.725 74.9128 79.4571C76.5304 78.5305 77.3569 76.6068 77.2236 74.7978C77.1347 72.7594 76.7792 70.7474 76.4148 68.7531C75.135 63.5114 73.6241 58.3138 72.9576 52.9485C71.8999 46.1449 69.8558 39.5266 68.5938 32.7583C67.6783 27.1901 65.5097 21.9131 64.6743 16.3184C64.2122 13.6711 64.2033 10.9267 63.3056 8.36761C62.9857 7.36162 62.5413 6.17033 61.3859 5.90559C59.2351 5.38495 56.9954 5.71146 54.818 5.87912C53.1826 6.15268 51.4318 5.98501 49.8853 6.64684C48.8188 7.14101 49.3165 8.45585 49.2454 9.36476C49.3787 10.3266 48.3567 10.7061 47.6368 10.9885C46.3392 11.4385 45.0238 11.8356 43.7085 12.2151C42.4375 12.5857 41.1577 12.9387 39.8957 13.3181C37.1494 14.1035 34.492 15.1889 31.7013 15.7978C30.5637 16.0801 29.1506 15.9301 28.4218 14.9065C27.6752 14.1035 27.4442 12.7357 26.3065 12.3651C24.849 12.4004 23.4892 13.0269 22.1294 13.4858C19.2853 14.6241 16.2547 15.233 13.4906 16.5655C12.4863 17.1126 10.9043 16.9802 10.4511 18.2245C10.3266 20.1482 10.9577 22.019 11.3132 23.8986C11.8198 26.6518 12.6285 29.3609 12.9751 32.1582ZM16.3346 17.1302C17.6767 16.5125 18.8232 15.4977 20.2807 15.1095C22.2005 14.5182 24.1024 13.8476 26.0843 13.4681C26.7509 14.7212 27.2753 16.186 28.5462 16.9714C29.6127 17.6685 30.9725 17.5979 32.1812 17.4038C34.4209 16.9626 36.5539 16.1243 38.7047 15.4007C41.7354 14.3594 44.8372 13.5387 47.8501 12.4445C48.6855 12.0915 49.6809 11.8003 50.1342 10.9532C50.6497 10.0707 50.5875 9.01178 50.5786 8.03227C53.707 7.57341 56.871 7.07041 60.0528 7.08806C60.7193 7.13218 61.6614 7.07924 61.9814 7.81166C63.0123 9.97365 63.1368 12.4004 63.3856 14.7477C63.83 19.0451 64.9321 23.2456 66.0963 27.393C67.0562 30.8169 67.4561 34.3555 68.2649 37.8147C69.1448 41.6003 69.9802 45.386 70.8156 49.1805C71.5978 52.7632 71.7933 56.443 72.682 60.0081C73.7841 65.1262 75.4194 70.1914 75.5883 75.4596C75.5172 76.4833 74.8506 77.3833 73.9619 77.8687C71.4289 79.413 68.5849 80.3395 65.7408 81.1337C62.7901 81.9544 59.8217 82.7574 56.8443 83.4987C52.9071 84.5135 48.8722 85.14 44.9705 86.2607C42.6242 86.949 40.2334 87.5314 37.7893 87.6903C35.5585 87.8403 33.3189 88.3256 31.0703 88.0962C29.746 87.9903 28.9462 86.8078 28.2263 85.846C25.8444 82.5986 24.9912 78.5835 24.1557 74.736C23.2137 70.3944 22.0138 66.0969 21.3206 61.7024C20.8229 58.5344 20.1563 55.4017 19.2498 52.3397C18.3699 49.3217 17.7833 46.2332 17.0901 43.1799C16.468 40.409 15.3481 37.7794 14.886 34.982C14.5305 32.8906 14.3616 30.764 13.9439 28.6814C13.2506 25.2664 12.6019 21.8248 12.4063 18.3304C13.7217 17.9862 15.117 17.7921 16.3346 17.1302Z" fill="#004AAD"/>
<path d="M21.6942 46.8155C22.0764 48.3069 22.743 50.0188 24.325 50.5924C26.6358 51.2454 29.071 50.7424 31.3728 50.3012C34.6079 49.657 37.8875 49.3481 41.1048 48.6334C47.2372 47.2479 53.4585 46.2596 59.5288 44.6271C60.4975 44.3006 61.5463 43.9652 62.2217 43.171C62.8972 42.2445 63.146 41.0973 63.306 39.9854C63.626 37.2587 63.306 34.5231 63.1549 31.7876C63.0127 29.0608 62.2573 26.4223 61.5107 23.8103C60.9508 21.7895 60.4353 19.601 59.0755 17.9685C57.1025 17.3332 54.9428 17.289 52.8897 17.5361C51.1744 17.9244 49.4325 18.2068 47.6994 18.4627C41.4603 19.6099 35.2301 20.7747 29.0354 22.1425C26.3958 22.7425 23.6762 23.1484 21.1432 24.1368C19.6857 24.7368 18.1392 25.7781 17.8904 27.4459C17.4638 29.9874 18.1037 32.5553 18.6369 35.0349C19.5168 38.9971 20.841 42.8445 21.6942 46.8155ZM31.1062 31.7964C31.2484 30.3756 32.5282 29.3608 33.7903 28.8755C35.5322 28.2048 37.9675 28.6284 38.9095 30.3756C39.8872 32.6965 37.9497 35.3791 35.55 35.6791C33.2659 36.1556 30.9729 34.0642 31.1062 31.7964ZM44.9442 27.5254C45.5486 26.1046 46.9439 25.1339 48.4015 24.7457C49.9835 24.3044 52.081 24.7192 52.8809 26.2723C53.9029 29.3432 50.6856 32.5994 47.5927 32.0788C45.6641 31.6375 44.2065 29.4403 44.9442 27.5254ZM33.5414 48.2539C32.8926 46.1007 32.3683 43.877 32.466 41.6179C32.4838 39.8707 32.8393 38.1588 33.1415 36.4468C35.1145 37.0028 37.2653 36.641 38.8207 35.2908C40.1449 37.294 41.3536 39.3854 42.2157 41.6356C42.8379 43.2328 43.0334 44.9536 43.4955 46.6037C40.2071 47.3273 36.8832 47.848 33.5414 48.2539ZM46.0907 46.0831C46.6329 42.7033 46.4107 39.2265 47.3261 35.8997C47.5216 34.8761 48.1704 34.0289 48.7392 33.1818C50.2057 32.9347 51.5744 32.2994 52.712 31.3463C53.3963 32.317 54.0896 33.2789 54.8539 34.1878C57.2358 36.738 58.1956 40.1884 59.1111 43.4534C54.7828 44.3888 50.4634 45.333 46.0907 46.0831Z" fill="#004AAD"/>
<path d="M56.3026 50.9898C54.2585 50.1426 52.0188 51.3075 50.6412 52.8076C48.3571 55.3843 47.1484 58.7641 46.7573 62.1438C44.9265 60.2731 42.6957 58.7994 40.296 57.7669C38.874 57.1404 37.1854 56.9551 35.7634 57.6699C33.9858 58.4641 33.0704 60.5731 33.5237 62.4262C34.0125 64.5264 35.2923 66.3443 36.5988 68.0297C39.2118 71.2683 42.4202 74.1186 46.233 75.8746C47.7794 76.6865 49.6014 76.9953 50.9345 78.1602C51.2189 78.3455 51.5389 78.8308 51.8144 78.3455C54.6051 75.9452 56.2848 72.6272 57.6535 69.2916C59.3599 64.9235 60.5065 60.1231 59.4755 55.4461C59.0667 53.6459 58.1601 51.6957 56.3026 50.9898Z" fill="#004AAD"/>
<path d="M53.7699 87.0466C53.5566 87.0819 53.3522 87.1348 53.1567 87.2142C51.0414 87.8761 49.9038 90.4881 50.8281 92.4471C51.5835 93.9649 53.2989 94.4767 54.8986 94.2297C56.7739 93.9296 58.4892 92.5971 58.3648 90.5852C58.5514 88.2555 55.9029 86.676 53.7699 87.0466ZM56.9606 90.8675C56.8717 92.1736 55.4141 92.7648 54.3121 93.0648C52.8456 93.4531 50.9614 92.2177 51.388 90.594C51.7791 89.5792 52.8545 88.9703 53.8143 88.5555C55.1919 88.2467 57.2538 89.2262 56.9606 90.8675Z" fill="#004AAD"/>
<path d="M43.2463 10.6005C43.3708 10.574 43.4952 10.5387 43.6196 10.4858C44.5973 9.73569 44.7395 8.38556 44.7661 7.24721C44.1795 6.98248 43.5219 6.88541 42.8908 6.97365C42.4287 7.04425 41.9754 7.22074 41.5844 7.51194C41.2111 7.99729 40.9889 8.5797 40.7134 9.11799C41.1933 10.071 42.1709 10.8123 43.2463 10.6005Z" fill="#004AAD"/>
<path d="M32.1731 81.2121C31.6487 81.4503 31.231 81.8562 30.8755 82.2975C33.7995 81.8827 36.7235 81.0444 39.1943 79.3942C36.7413 79.3589 34.3505 80.1355 32.1731 81.2121Z" fill="#004AAD"/>
<path d="M37.1234 11.9321C38.5365 11.2527 38.4565 9.41718 38.3587 8.09352C37.1056 7.54641 35.3547 7.96116 35.0259 9.43483C35.0792 10.5202 35.8258 12.0645 37.1234 11.9321Z" fill="#004AAD"/>
<path d="M31.3195 78.4952C30.8485 78.6099 30.724 79.0776 30.5552 79.457C33.4525 78.8481 36.4477 78.5569 39.2384 77.5157C36.581 76.7391 33.7725 77.3745 31.3195 78.4952Z" fill="#004AAD"/>
<path d="M25.667 57.387C25.8625 57.7046 26.058 58.0135 26.2536 58.3223C27.6045 58.0488 28.9376 57.687 30.2263 57.1928C31.7283 56.6104 33.3281 56.2751 34.7679 55.525C31.6484 55.5162 28.511 56.0809 25.667 57.387Z" fill="#004AAD"/>
<path d="M32.6697 85.5636C35.0071 85.5636 37.3268 84.8224 39.282 83.5781C36.9535 83.9135 34.7138 84.6988 32.3853 85.1047L32.6697 85.5636Z" fill="#004AAD"/>
<path d="M31.337 14.0678C32.4658 13.2736 33.5323 11.9147 33.159 10.4586C32.8124 9.435 31.4792 9.14379 30.5816 9.61148C29.524 10.3174 28.9107 11.9323 29.6484 13.0707C29.9683 13.6442 30.5816 14.4561 31.337 14.0678Z" fill="#004AAD"/>
<path d="M28.2708 53.5577C26.911 53.893 25.4001 53.9901 24.2803 54.9255C28.9818 54.546 33.9233 54.1401 38.0738 51.7134C34.7854 52.2164 31.5326 52.9135 28.2708 53.5577Z" fill="#004AAD"/>
</svg>
