<svg width="134" height="70" viewBox="0 0 134 70" fill="none" xmlns="http://www.w3.org/2000/svg">
<path d="M35.188 27.9918C34.3274 27.6847 33.4969 27.2358 32.6137 27.0892C28.6822 26.4557 24.7225 25.8875 20.7778 25.3565C19.8253 25.2267 19.0657 25.0093 18.951 23.908C18.8474 22.8889 19.5759 22.4587 20.3212 22.0975C20.6752 21.9243 21.0702 21.7998 21.4522 21.6696C37.4742 16.0691 53.7564 12.0962 70.4887 10.3895C81.1657 9.30471 91.7594 8.98869 102.35 10.0481C104.283 10.2426 104.468 10.1364 105.309 8.33082C106.245 6.30329 107.077 4.23087 108.047 2.23324C109.33 -0.419079 111.073 -0.75486 112.766 1.47171C115.15 4.61357 117.72 7.64926 119.161 11.4693C119.344 11.9809 119.682 12.4199 119.939 12.9017C124.176 12.3972 127.979 13.471 131.599 15.2239C134.292 16.5335 134.511 18.329 132.276 20.5268C129.937 22.8195 127.545 25.0581 125.103 27.2294C123.749 28.4279 123.18 29.7466 123.361 31.5571C123.637 34.2281 123.78 36.9194 123.878 39.6069C123.917 41.0627 123.981 42.7144 122.439 43.5543C120.799 44.4444 119.541 43.3325 118.432 42.3776C116.657 40.8433 114.971 39.1766 113.292 37.5286C111.513 35.7908 111.376 35.7478 109.467 37.6211C107.769 39.2913 106.152 41.0269 104.488 42.727C103.909 43.3142 103.356 43.9126 102.736 44.4512C100.396 46.4958 98.7755 45.9713 98.2082 43.0051C98.078 42.2995 97.9665 41.5865 97.7918 40.5524C96.6948 40.7937 95.6915 40.8896 94.7927 41.2468C91.7349 42.4731 88.692 43.7367 85.6883 45.1255C72.5162 51.2052 59.4468 57.5147 46.8122 64.8305C45.6136 65.5234 44.456 66.2648 43.2556 66.9259C42.2723 67.479 41.2628 68.021 40.2348 68.4621C39.0326 68.9832 37.7369 69.4333 36.6845 68.3478C35.6321 67.2623 35.731 65.8813 36.2174 64.4654C36.8015 62.751 37.3987 61.0422 37.9566 59.3166C38.1182 58.7979 38.1563 58.2418 38.3202 57.3219C37.3168 57.5261 36.5662 57.5756 35.8659 57.8323C29.6195 60.1205 23.276 62.1659 17.3131 65.2718C16.4517 65.7225 15.5622 66.1301 14.6373 66.3679C12.1286 67.0406 10.5734 65.3218 11.456 62.8071C11.8617 61.6505 12.475 60.552 13.1369 59.5207C14.6351 57.1617 16.2455 54.8662 17.7699 52.5183C18.0755 52.0614 18.2147 51.4868 18.5919 50.612C17.6711 50.5885 16.9357 50.4589 16.2132 50.5513C12.1306 51.0598 8.04978 51.5999 3.96902 52.1401C3.19592 52.2418 2.37402 52.4928 1.62737 52.3893C0.0386046 52.1878 -0.520991 50.5709 0.554817 49.2994C1.28389 48.4361 2.23364 47.7449 3.11789 47.0256C12.1292 39.5487 22.0611 33.8589 32.7772 29.6966C33.5824 29.3765 34.3652 29.0005 35.1629 28.6618C35.1688 28.4322 35.1821 28.2213 35.188 27.9918ZM28.8592 22.3389C28.829 22.589 28.7932 22.8521 28.7498 23.0965C29.4571 23.2914 30.1717 23.505 30.879 23.7C33.9605 24.5415 37.0534 25.357 40.1311 26.2433C40.9562 26.4888 41.9458 26.9285 41.6956 28.0125C41.5169 28.7868 40.8945 29.6184 40.2538 30.1328C39.5026 30.7235 38.529 31.0023 37.6508 31.3838C33.2296 33.3252 28.6834 34.9808 24.4022 37.2452C19.842 39.6529 15.5226 42.5816 11.1285 45.3236C10.5985 45.6533 10.1916 46.237 9.7344 46.7216C10.7596 47.1148 11.5251 47.1026 12.3018 47.0643C14.5872 46.9457 16.8764 46.7822 19.1655 46.7271C20.8107 46.6898 22.6863 46.442 23.5264 48.2719C24.288 49.9599 23.139 51.4011 22.196 52.7605C20.848 54.7353 19.4794 56.6858 18.1706 58.6775C17.9006 59.0877 17.8233 59.627 17.5435 60.4198C18.4347 60.1522 18.9514 60.0333 19.457 59.8323C24.2393 57.953 29.0123 56.0233 33.817 54.2C35.6914 53.4874 37.6161 52.8738 39.5593 52.4692C42.0398 51.9701 43.5334 53.5078 43.1148 56.0977C42.8792 57.5438 42.2954 58.9334 41.8858 60.3513C41.6039 61.3289 41.3482 62.3178 41.0869 63.3196C41.2346 63.4449 41.3635 63.5775 41.5112 63.7027C59.3437 52.8601 77.9002 43.8286 97.4032 36.8119C97.9564 34.3417 97.708 32.2549 95.5276 30.6548C93.9606 29.5034 92.581 28.061 91.2108 26.669C90.2817 25.7292 89.3733 24.7054 88.669 23.568C87.5706 21.7975 88.0382 20.4973 89.9576 19.6803C90.9107 19.2689 91.931 19.0256 92.9401 18.8085C95.3551 18.2813 97.7887 17.8549 100.183 17.3034C100.838 17.1511 101.722 16.8648 101.987 16.3593C102.615 15.1899 102.933 13.841 103.515 12.2031C77.9498 11.3296 53.2108 14.4769 28.8855 22.3502L28.8592 22.3389ZM110.241 3.08123C109.564 4.29164 109.035 5.08606 108.651 5.94222C107.012 9.63364 105.368 13.3381 103.809 17.0632C103.248 18.4007 102.412 19.2955 101.084 19.6392C98.7011 20.2728 96.301 20.8373 93.9027 21.4336C93.1033 21.6323 92.2983 21.8441 91.0851 22.1749C91.8514 23.0604 92.2475 23.617 92.7336 24.0729C94.5751 25.7753 96.381 27.5242 98.3238 29.0998C99.771 30.2772 100.535 31.6722 100.508 33.6411C100.486 35.3487 100.598 37.0676 100.716 38.7735C100.76 39.535 100.968 40.2743 101.188 41.5287C102.207 40.6042 102.878 40.0564 103.481 39.4487C105.267 37.6461 106.978 35.765 108.797 33.9923C111.124 31.7257 112.382 31.7234 114.685 33.9022C115.996 35.1448 117.247 36.4545 118.581 37.6766C118.98 38.0484 119.552 38.232 120.5 38.7314C120.317 35.8833 120.226 33.5391 119.989 31.2098C119.747 28.7852 120.599 26.9536 122.416 25.3656C124.439 23.5876 126.339 21.6638 128.26 19.7644C128.67 19.3524 128.931 18.7835 129.477 17.9499C126.101 17.1061 123.121 16.246 120.08 15.6695C118.718 15.4104 117.792 14.8587 117.094 13.7083C115.358 10.8602 113.599 8.03263 111.82 5.21249C111.426 4.57936 110.921 4.02261 110.209 3.08304L110.241 3.08123Z" fill="#004AAD"/>
</svg>
