<svg width="85" height="108" viewBox="0 0 85 108" fill="none" xmlns="http://www.w3.org/2000/svg">
<path d="M80.1636 43.4819C75.1634 39.3601 68.436 38.4206 62.1631 38.2085C63.4359 32.4804 62.648 26.631 62.0722 20.903C61.1328 14.8112 59.8297 7.93157 54.5569 4.02194C49.0719 0.233546 42.0414 -0.372657 35.5867 0.172872C29.4956 0.688095 23.7076 4.1431 20.7378 9.53778C15.374 18.4481 15.1619 29.3587 17.5256 39.2389C12.0103 39.8147 5.70708 38.3903 0.949383 41.9059C-1.38401 49.2706 1.34336 56.9382 1.16153 64.4544C1.07062 72.7889 0.919074 81.2749 2.97973 89.4276C3.97976 93.216 5.64651 97.1559 8.88902 99.5805C17.9499 105.551 28.8895 108.915 39.8292 107.703C50.5264 106.491 62.1328 107.369 71.7088 101.732C77.6787 98.1863 82.3758 92.2158 83.3455 85.2148C84.6182 75.8499 85.588 66.3334 84.4667 56.8776C83.9212 52.2709 84.0728 46.755 80.1636 43.4819ZM25.3137 11.8108C28.435 7.05259 34.6169 5.81006 39.9201 5.62822C45.2233 5.65853 51.7386 6.59802 54.678 11.6593C59.0115 19.721 57.466 29.1768 57.2842 37.9356C55.1023 38.0871 52.9205 38.2387 50.7386 38.4509C52.7689 32.1167 51.4053 24.9339 47.9809 19.3574C44.0414 13.0838 33.4351 13.2959 30.0411 19.9938C27.4046 25.8128 28.8895 32.45 30.5259 38.3296C26.8289 38.3599 23.1924 38.5721 19.5256 38.8449C19.4347 29.6012 19.9196 19.6907 25.3137 11.8108ZM47.3142 38.3903C42.4959 38.36 37.6776 38.36 32.8896 38.3903C32.7078 33.1168 31.7381 27.5099 33.7381 22.5093C36.0412 19.4179 41.4959 18.9936 43.9505 22.2365C47.6476 26.7826 46.9809 32.935 47.3142 38.3903ZM77.0726 84.9117C76.5574 88.8214 74.1937 92.3067 70.83 94.3373C65.2238 98.156 58.2539 98.8228 51.678 99.3683C45.5263 99.8532 39.405 100.581 33.223 100.581C26.344 100.611 19.859 97.8227 13.8285 94.7313C7.52531 91.2763 6.97987 83.154 5.94954 76.8501C5.22225 66.3638 3.61614 55.8169 4.70707 45.3306C16.4043 44.6638 28.1319 43.694 39.8898 44.2092C49.8295 44.6638 60.0115 43.1182 69.83 45.4518C73.224 46.4216 77.4665 48.3916 77.7999 52.4224C79.406 63.2118 78.6787 74.183 77.0726 84.9117Z" fill="#004AAD"/>
<path d="M49.6167 64.4243C49.2531 58.9387 42.9802 54.6654 37.768 56.6657C34.283 58.4538 32.6163 62.8786 33.2527 66.6367C33.586 69.1218 35.4649 70.9706 36.8589 72.9406C34.7679 77.2442 30.3435 81.4569 31.8587 86.6394C32.5557 89.4883 35.98 89.3974 38.1922 90.3066C42.8287 88.3366 50.344 89.3065 51.3441 82.9117C49.9198 79.2748 47.6773 76.0319 45.9803 72.5163C47.6167 70.0614 49.8895 67.5762 49.6167 64.4243Z" fill="#004AAD"/>
</svg>
