<svg width="136" height="110" viewBox="0 0 136 110" fill="none" xmlns="http://www.w3.org/2000/svg">
<path d="M59.234 73.2802C57.203 71.4546 55.6312 70.5527 53.7599 70.067C53.5423 70.3545 53.2746 70.6583 53.0681 70.9868C51.6228 73.2862 50.1966 75.5986 48.7372 77.8942C48.423 78.3895 48.0335 78.8561 47.6239 79.2868C46.3509 80.6271 45.3242 80.9079 43.6637 80.1857C42.7773 79.8089 42.3428 80.0055 41.7638 80.7675C38.3155 85.3013 34.805 89.7874 31.2995 94.2824C31.1208 94.5126 30.9089 94.726 30.6971 94.9394C29.9116 95.7345 29.0376 96.414 27.8712 95.9816C26.8184 95.6037 26.5347 94.676 26.4592 93.6551C26.4186 93.1817 26.364 92.7044 26.282 91.8408C25.3572 92.6196 24.7152 93.1216 24.1264 93.6764C19.2866 98.1995 14.471 102.745 9.61715 107.264C8.83748 107.985 7.99767 108.704 7.06998 109.225C5.68297 110.003 4.39133 109.263 4.40856 107.753C4.41841 107.074 4.61271 106.386 4.79403 105.717C6.45699 99.3735 9.31328 93.4471 12.5842 87.6897C12.9261 87.0962 13.2209 86.4818 13.6714 85.6384C12.9848 85.6811 12.5756 85.6272 12.2301 85.7501C9.98608 86.584 7.7572 87.4448 5.53335 88.3146C4.63921 88.6627 3.7753 89.0648 2.88116 89.4129C1.99601 89.756 1.10912 89.8638 0.445007 89.1024C-0.26339 88.2831 -0.0456279 87.4048 0.534142 86.5597C1.80142 84.7027 2.98726 82.7851 4.39321 81.0275C7.48073 77.1804 10.6547 73.403 14.3675 70.0793C14.6204 69.8547 14.8099 69.5594 15.1346 69.1882C14.7348 68.94 14.4452 68.6772 14.0929 68.5559C13.4917 68.3498 12.8578 68.233 12.2317 68.0881C11.4933 67.9117 10.6248 67.8202 10.4776 66.9459C10.3161 65.9615 11.0118 65.3231 11.8505 64.8761C15.1141 63.1157 18.4019 61.3772 21.6756 59.6348C22.0949 59.4113 22.5384 59.2097 22.9679 59.0042C23.5695 58.7257 23.9291 58.3113 23.8467 57.6369C23.8107 57.3617 23.8338 57.0653 23.8299 56.7839C23.8188 54.8646 24.6613 53.4113 26.5476 52.6364C28.597 51.7936 30.6638 51.0238 32.7245 50.2219C33.6186 49.8738 34.4976 49.4987 35.3928 49.1736C36.0517 48.9338 36.4175 48.5514 36.2558 47.8624C35.9499 46.5574 35.6209 45.2535 35.2714 43.8075C34.7858 43.9973 34.3931 44.0995 34.0649 44.2955C28.8443 47.5911 23.6326 50.8816 18.431 54.1901C16.9633 55.12 15.565 56.1526 14.0671 57.0286C13.2035 57.5368 12.2423 57.9344 11.2758 58.2168C9.52501 58.7266 8.25752 58.0084 7.78198 56.3378C7.66031 55.9099 7.58764 55.4427 7.58016 54.9862C7.41143 46.4334 9.98962 38.8083 16.8034 32.7169C23.2223 26.9769 30.6283 24.2625 39.1453 25.3431C41.6045 25.6525 43.9934 26.2377 46.1405 27.3838C47.1738 27.938 48.0677 28.7714 48.9105 29.598C49.7533 30.4246 49.875 30.5571 50.9969 29.9394C52.9434 28.8708 54.8395 27.7124 56.7669 26.6309C60.7388 24.4022 64.7017 22.1786 68.6787 19.9589C69.9846 19.2261 71.336 18.5742 72.657 17.8683C81.2061 13.3077 90.2048 10.1604 99.7441 8.98969C103.443 8.53265 107.18 8.58605 110.905 8.49232C112.576 8.45248 114.176 8.87759 115.563 9.7654C116.225 10.1854 116.794 10.2085 117.525 9.82215C119.704 8.68226 121.889 7.57437 124.099 6.51141C125.03 6.05994 125.55 5.53154 125.763 4.45508C125.97 3.42971 126.53 2.35943 127.221 1.52274C128.498 -0.0209056 130.216 -0.252231 132.077 0.215557C134.003 0.694015 135.284 1.79465 135.682 3.68591C135.981 5.14816 135.252 6.44362 134.166 7.44258C132.114 9.31472 129.151 9.98515 126.828 8.44145C126.041 7.92595 125.359 7.95458 124.542 8.37741C122.727 9.30111 120.892 10.1889 119.068 11.0946C118.467 11.3961 117.881 11.7016 118.077 12.5366C118.744 15.3516 117.66 17.9566 116.231 20.306C114.313 23.4731 112.219 26.621 109.781 29.4304C104.019 36.089 98.1094 42.6303 92.0686 49.0441C88.1939 53.1556 83.9865 56.9695 79.9047 60.9019C78.5824 62.1755 78.5623 62.1395 79.7886 63.4597C83.1495 67.0435 84.1833 71.1652 82.6341 76.0865C81.1205 80.8815 78.1368 84.5758 74.0801 87.5609C66.7798 92.933 58.5389 95.0881 49.7202 94.9683C46.895 94.9352 44.0896 94.5364 41.2867 94.2899C40.8224 94.2433 40.344 94.1927 39.9075 94.0478C38.8647 93.6879 38.4852 92.8849 38.9321 91.8662C39.1868 91.2862 39.6152 90.7623 40.0267 90.2715C42.8231 86.9186 46.24 84.1862 49.6036 81.401C52.3713 79.1156 55.1541 76.8571 57.9218 74.5717C58.3578 74.2089 58.7393 73.7704 59.225 73.2852L59.234 73.2802ZM89.2164 13.6329C88.7805 13.7003 88.2902 13.6918 87.8676 13.8463C85.7757 14.5712 83.6776 15.2641 81.6281 16.1069C75.5787 18.5799 69.8574 21.7429 64.1349 24.883C59.8816 27.2223 55.7141 29.7143 51.5667 32.2423C48.7631 33.9572 46.0401 35.8158 43.3172 37.6745C41.9917 38.5836 40.7318 39.6095 39.495 40.6343C38.2851 41.6439 37.8411 42.9209 38.2237 44.3837C38.5506 45.6415 38.8504 46.9145 39.2593 48.1499C40.4744 51.8982 42.1549 55.4208 44.8999 58.2869C47.2899 60.7734 49.8359 63.137 52.4118 65.4483C53.4534 66.376 54.7508 67.042 55.9422 67.8147C57.2814 68.6817 58.6814 69.4673 59.9456 70.4118C60.7456 71.0144 61.5049 71.1436 62.3645 70.6494C63.094 70.2401 63.744 69.71 64.4382 69.2377C71.6206 64.3098 78.2938 58.7697 84.3745 52.617C90.2834 46.6435 95.8544 40.3633 101.565 34.2056C101.869 33.8816 102.052 33.4481 102.275 33.0864C94.5667 27.0515 93.0135 26.3518 89.2394 13.6318L89.2164 13.6329ZM42.8507 91.4631C43.7577 91.6866 44.2324 91.8573 44.7209 91.9258C49.1097 92.4874 53.5153 92.6144 57.9372 91.6099C63.2738 90.3993 68.357 88.6103 72.7459 85.1198C76.0299 82.5093 78.44 79.3967 79.6897 75.4823C80.9127 71.6891 80.3406 68.3479 77.6466 65.4885C76.3238 64.0807 76.2226 64.0903 74.6564 65.288C72.1352 67.2107 69.5837 69.0795 67.0474 70.9752C65.7522 71.9382 64.4368 72.8653 63.2 73.8901C61.0422 75.6797 58.9439 77.554 56.8053 79.3565C52.702 82.8285 48.5785 86.2645 44.4753 89.7364C43.9954 90.1474 43.594 90.6562 42.8406 91.4451L42.8507 91.4631ZM10.8121 55.2165C12.2234 55.157 13.0921 54.3624 14.0194 53.7357C15.4079 52.7913 16.7229 51.7581 18.1366 50.8585C24.0076 47.1389 29.9189 43.4913 35.7758 39.7678C39.0564 37.6789 42.2877 35.5232 45.528 33.3625C46.2633 32.879 46.9201 32.2978 47.6781 31.7071C46.9424 30.5015 45.8799 29.9163 44.7986 29.4244C41.7103 28.0149 38.3989 27.3685 34.9223 27.4409C28.1958 27.5885 22.6168 30.4354 17.8757 35.0922C12.419 40.4576 10.479 47.004 10.527 54.1597C10.528 54.4781 10.6904 54.7886 10.821 55.2114L10.8121 55.2165ZM30.3064 90.3387C31.7176 89.287 39.4154 79.3681 39.9722 77.9334C39.531 77.5903 39.0635 77.1792 38.5531 76.8395C37.5374 76.169 37.4333 76.2156 36.4375 77.0579C34.8857 78.3657 33.3542 79.7094 31.7239 80.9195C30.1916 82.051 28.5567 83.0628 26.9409 84.0876C26.2045 84.5481 25.3713 84.8148 24.6445 84.1949C23.9558 83.6007 23.9794 82.8196 24.2825 81.988C24.8073 80.5595 25.323 79.136 25.7826 77.6968C25.9722 77.106 26.0174 76.49 26.1948 75.5399C25.6955 75.5365 25.3446 75.5444 24.9887 75.5432C24.2207 75.5253 23.4498 75.5443 22.6966 75.4472C21.1762 75.2489 20.7819 74.2297 21.7364 72.9972C22.1028 72.5317 22.5456 72.1178 22.9704 71.7141C24.4296 70.3046 25.8838 68.8862 27.3631 67.5127C27.9389 66.977 28.0607 66.5188 27.6325 65.8612C26.7409 64.4832 25.9303 63.0597 25.0977 61.6603C24.371 60.4497 24.2244 60.3783 22.8864 61.1173C20.5746 62.379 18.2739 63.6818 15.9873 64.9884C15.609 65.2007 15.2974 65.5528 14.9774 65.8268C15.1136 66.0694 15.1391 66.2204 15.2194 66.2581C16.0115 66.5933 16.8295 66.8904 17.6266 67.2346C19.2529 67.9169 19.4638 68.9681 18.2089 70.2984C17.8482 70.6898 17.4252 71.0334 17.0213 71.39C12.7484 75.0871 9.19714 79.3952 5.71832 83.7689C5.37782 84.1963 4.89899 84.6303 5.15531 85.467C6.44502 84.9796 7.64142 84.4737 8.86122 84.0728C11.1326 83.3299 13.3968 82.532 15.7038 81.9581C17.6181 81.4865 18.526 82.6191 17.811 84.4261C17.5136 85.1836 17.0708 85.8928 16.656 86.6099C13.8864 91.4245 11.2673 96.2964 9.28472 101.437C9.02919 102.1 8.93322 102.816 8.76198 103.503C8.88949 103.561 9.01305 103.633 9.14055 103.692C9.76348 103.177 10.4246 102.688 11.0183 102.142C15.5673 97.9238 20.1013 93.6786 24.6503 89.4604C25.266 88.8904 25.8717 88.3025 26.5569 87.8353C28.1245 86.7668 29.6341 87.3255 30.0577 89.0725C30.1491 89.4464 30.2135 89.8356 30.3226 90.3887L30.3064 90.3387ZM92.0209 12.8271C92.0687 13.3555 92.0567 13.693 92.1229 14.0221C92.9705 18.2128 94.9182 21.9162 97.3692 25.3136C98.8515 27.3643 100.688 29.1809 103.133 30.2664C104.544 30.9038 104.712 30.9279 105.691 29.7403C108.154 26.7636 110.669 23.8167 112.951 20.7288C114.138 19.1296 114.938 17.263 115.82 15.4802C116.673 13.7495 115.606 11.3832 113.426 11.0232C112.499 10.8699 111.573 10.7166 110.638 10.6975C104.895 10.5295 99.1821 11.0062 93.5101 12.3577C93.0623 12.4672 92.6128 12.6368 92.0119 12.8322L92.0209 12.8271ZM42.4976 60.3792C42.4623 60.0209 42.484 59.8906 42.4296 59.8148C42.0136 59.2213 41.6107 58.6086 41.1587 58.0353C40.3091 56.9644 40.0595 56.9627 38.8922 57.7949C37.3848 58.8652 35.8522 59.8905 34.3297 60.9338C32.9772 61.8581 31.6107 62.7785 30.1062 63.8117C31.2234 65.1695 32.2238 66.4037 33.3309 67.7436C36.7704 65.4947 39.4604 62.7331 42.5076 60.3971L42.4976 60.3792ZM29.4231 68.377C27.6843 69.8369 26.3299 71.412 24.7543 73.0994C25.3865 73.2763 25.6927 73.3999 26.0277 73.4482C28.2794 73.7677 28.9881 74.6931 28.6203 76.9078C28.52 77.5311 28.2994 78.1511 28.2082 78.7693C28.1551 79.118 28.2415 79.483 28.2699 79.8924C30.0182 79.2304 33.7766 76.389 35.2816 74.5759C33.3855 72.5683 31.4741 70.5338 29.4321 68.3719L29.4231 68.377ZM37.1712 71.6963C40.1851 68.6466 42.9262 65.8918 45.6933 63.0987C45.2204 62.5726 44.8794 62.1969 44.5434 61.8302C43.9387 61.1535 43.256 61.1822 42.529 61.7437C42.248 61.9604 41.958 62.1822 41.6769 62.399C39.5531 64.1223 37.4342 65.8546 35.3154 67.5869C34.9685 67.8761 34.6467 68.2102 34.142 68.6825C35.1648 69.7034 36.0911 70.6367 37.1622 71.7014L37.1712 71.6963ZM38.6195 72.5257C39.6142 73.8341 40.8115 74.5327 42.0858 75.1998C44.4805 72.2495 46.8182 69.3666 49.2348 66.3922C48.4907 65.6992 47.8481 65.1029 47.095 64.415C44.2105 67.1676 41.477 69.7883 38.6105 72.5308L38.6195 72.5257ZM27.6306 58.9987C27.8266 60.7198 28.5385 62.0097 29.641 62.8559C32.7066 60.616 35.5751 58.5103 38.4487 56.4135C38.5917 56.3096 38.7909 56.2215 38.8536 56.08C38.9881 55.7919 39.1873 55.4084 39.0934 55.1776C38.9904 54.9518 38.5646 54.7418 38.284 54.7693C37.833 54.8098 37.3715 55.0214 36.941 55.2039C36.111 55.5397 35.3112 55.9294 34.4812 56.2652C32.2314 57.1732 29.9766 58.0722 27.6407 59.0167L27.6306 58.9987ZM37.9947 53.325C37.9562 52.8977 37.9703 52.6063 37.8933 52.3424C37.3889 50.747 36.9534 50.6252 35.3377 51.3546C33.1153 52.3535 30.8676 53.3075 28.6189 54.2385C26.6195 55.0651 26.2252 56.2196 27.4619 57.9593C30.9758 56.4128 34.4897 54.8664 38.0037 53.32L37.9947 53.325ZM132.047 6.49355C132.288 6.22795 132.825 5.74952 133.2 5.17283C133.667 4.48551 133.615 3.75888 133.1 3.11479C132.437 2.29325 130.764 1.88555 129.753 2.29939C128.845 2.66662 128.259 3.66896 128.255 4.86448C128.239 7.20048 129.566 7.89736 132.052 6.50254L132.047 6.49355ZM44.9582 77.4275C46.0412 76.5717 49.9464 71.0372 50.9086 69.0797C51.0142 68.8669 50.9822 68.5777 51.0074 68.3273C50.9271 68.2897 50.8417 68.243 50.7524 68.2105C48.3016 70.8497 45.8509 73.4889 43.2902 76.2488C43.9072 76.6941 44.3996 77.044 44.9492 77.4325L44.9582 77.4275Z" fill="#004AAD"/>
</svg>
