<svg width="136" height="86" viewBox="0 0 136 86" fill="none" xmlns="http://www.w3.org/2000/svg">
<path d="M47.6358 69.2288C47.2178 69.7013 46.809 70.0831 46.4893 70.5442C43.0117 75.4766 38.4023 78.9767 33.3293 81.8035C26.7537 85.4641 19.7549 86.513 12.5991 85.3875C8.39635 84.7285 4.64549 82.7855 1.22811 80.2454C-0.619963 78.872 -0.339865 77.0202 1.78116 75.9744C2.72824 75.5047 3.72195 75.1341 4.7119 74.774C7.93612 73.609 10.7381 71.6562 13.0919 69.1179C15.6797 66.3231 18.0901 63.3347 20.5583 60.4142C21.8358 58.8991 23.0034 57.2972 24.2942 55.8104C26.5663 53.1721 29.3461 51.4112 32.628 50.6082C34.2671 50.2119 35.8948 50.141 37.5229 50.6231C38.8763 51.0178 38.9877 50.905 39.5897 49.4989C39.9463 48.6747 40.2479 47.8071 40.7182 47.0593C42.6466 44.0027 45.4918 43.0067 48.7293 43.3054C50.0157 43.4288 50.9531 43.2144 51.8705 42.2398C59.6618 34.0063 68.7613 27.7278 78.6163 22.6515C90.7321 16.4034 102.898 10.2441 115.081 4.13778C117.642 2.85105 120.343 1.8619 123.043 0.942717C125.58 0.0824549 128.228 -0.172861 130.871 0.110766C134.442 0.494834 136.208 3.49746 135.031 7.08405C133.831 10.7331 131.656 13.6889 128.896 16.2099C122.846 21.7427 116.287 26.5624 109.719 31.3785C99.2825 39.0096 88.9034 46.7438 78.4805 54.4033C76.0434 56.1938 73.5617 57.9446 71.0505 59.6142C68.0263 61.6279 64.7599 62.9424 61.2255 63.466C59.5548 63.7214 59.5502 63.7668 59.281 65.4579C58.3912 70.8896 53.3652 73.2275 49.0977 70.2038C48.6568 69.8916 48.2084 69.6003 47.6462 69.2325L47.6358 69.2288ZM132.143 6.95876C133.152 4.39364 132.094 2.65864 129.676 2.66772C129.063 2.66977 128.452 2.73137 127.851 2.79674C124.513 3.16772 121.333 4.24284 118.304 5.74883C105.277 12.268 92.2506 18.7872 79.2774 25.4197C69.1785 30.5844 60.0145 37.2044 51.9821 45.5508C50.9108 46.658 50.5963 47.6268 50.9843 49.0964C52.091 53.2727 54.0527 56.8753 56.8064 60.0464C57.3721 60.6978 57.9336 60.8065 58.7237 60.7388C63.0902 60.2923 67.1505 58.8998 70.7805 56.1871C76.3951 51.9912 81.9622 47.7311 87.6034 43.5918C96.6594 36.9446 105.813 30.4504 114.805 23.721C119.245 20.3951 123.462 16.7416 127.706 13.1448C129.71 11.4449 131.083 9.17603 132.133 6.955L132.143 6.95876ZM42.7161 62.4989C41.8525 60.8458 41.0593 59.324 40.152 57.5963C39.0932 58.0492 38.0528 58.3206 37.1978 58.8941C34.8605 60.4736 32.4986 62.0559 30.3408 63.8884C27.1197 66.6429 24.1198 69.6654 20.9292 72.4661C18.2541 74.8177 15.3632 76.8208 12.0198 77.9898C11.6558 78.1172 11.3262 78.4099 10.9558 78.6527C11.1513 78.8291 11.2216 78.9604 11.3192 78.9839C11.5559 79.0458 11.7935 79.0728 12.0387 79.079C17.1269 79.2107 21.9949 78.0276 26.2564 75.0018C31.7874 71.0699 37.0923 66.7856 42.7161 62.4989ZM4.91567 78.1889C4.94726 78.3297 4.9751 78.4809 5.00669 78.6217C5.58203 78.5942 6.15275 78.6121 6.72605 78.5251C10.9217 77.8991 14.6562 76.0713 17.8807 73.177C21.3668 70.0476 24.7 66.7219 28.1452 63.5425C31.3647 60.564 34.5947 57.5893 38.8845 56.4091C39.1068 56.3482 39.2974 56.1464 39.4788 56.0355C39.3618 53.9461 38.9402 53.4174 37.0685 53.1532C33.0637 52.5656 29.6937 54.1015 26.9077 57.119C25.4392 58.7063 24.2174 60.5239 22.8276 62.1868C20.2142 65.3136 17.6624 68.498 14.9085 71.4917C12.4283 74.1843 9.46656 76.2206 6.08842 77.5183C5.67809 77.676 5.30977 77.9783 4.92233 78.203L4.91567 78.1889ZM47.9349 46.1245C47.5222 46.0931 47.1671 46.0001 46.8189 46.0508C43.5901 46.5436 41.3818 49.7226 42.2197 53.1429C43.6094 58.7861 46.5752 63.4574 50.6679 67.3238C50.7571 67.403 50.8566 67.4861 50.9496 67.5549C53.0298 69.0356 55.3758 68.2476 56.2779 65.7498C56.4696 65.219 56.6025 64.6552 56.8089 63.9533C51.4292 59.4103 48.2107 53.6125 47.9245 46.1207L47.9349 46.1245ZM43.6094 63.9392C42.6601 64.6435 41.8939 65.1668 41.1648 65.7505C36.6692 69.327 32.3226 73.1103 27.448 76.1381C22.9683 78.9203 18.2404 80.5306 13.0776 80.4425C12.4084 80.4361 11.7356 80.4402 11.0714 80.5179C10.7762 80.5525 10.4967 80.8045 9.89658 81.129C10.6677 81.4075 11.0969 81.6213 11.5534 81.7273C17.2237 82.987 22.8276 82.3755 28.357 80.3724C33.4798 78.5166 37.6852 75.0588 41.7349 71.3801C43.136 70.1096 44.4585 68.7636 45.9265 67.3408C45.1617 66.2293 44.4749 65.2283 43.6019 63.96L43.6094 63.9392Z" fill="#004AAD"/>
</svg>
