<svg width="123" height="124" viewBox="0 0 123 124" fill="none" xmlns="http://www.w3.org/2000/svg">
<path d="M46.267 122.129C60.4648 125.734 75.943 123.899 88.9414 117.162C103.917 109.531 115.408 95.5204 120.206 79.4152C123.869 67.0766 123.933 53.6016 119.914 41.3442C115.716 28.1776 106.64 16.7482 94.9868 9.39372C82.977 1.71457 68.2282 -1.25643 54.1439 0.48071C40.8537 2.08797 28.1146 8.1761 18.6495 17.6898C8.19564 27.9178 1.76126 42.0423 0.270176 56.5726C-1.30195 72.9699 4.04652 89.9355 14.7597 102.453C22.831 112.113 34.0466 119.11 46.267 122.129ZM19.2978 37.4478C20.1406 35.5321 21.5182 33.9248 22.8796 32.35C27.1746 27.6581 32.1179 23.4208 37.9364 20.7744C39.6868 19.9952 41.5183 19.2646 43.4469 19.1185C45.1325 19.8328 46.6884 20.9693 48.5847 21.0991C51.1293 21.6511 53.6739 20.9368 56.2022 21.0017C59.1196 21.3102 62.0694 22.3817 64.0953 24.5734C66.2671 26.7327 69.2007 28.9894 69.2007 32.35C67.4827 36.0191 63.2525 37.8699 61.7614 41.7338C61.0321 43.2599 60.9672 45.5166 59.071 46.1335C55.6512 47.546 51.6803 46.7342 48.3578 48.5363C46.0401 49.7052 43.3659 51.832 43.9494 54.7705C44.1763 57.1895 46.1536 58.7968 47.985 60.1443C46.4291 62.1737 44.6787 64.6901 45.5053 67.3851C45.8294 69.1385 47.0936 70.6646 48.7954 71.249C53.3497 72.9862 58.4065 72.0608 63.0418 73.4083C65.4567 74.0577 66.2185 76.7852 66.3319 78.9931C66.6074 83.5227 63.8198 87.3704 61.81 91.1856C60.6107 93.3449 59.3789 95.6989 59.6868 98.2641C60.2055 102.696 61.0645 107.08 62.1666 111.398C57.0612 110.797 51.6966 109.58 47.7581 106.041C44.4194 103.297 42.6366 99.157 39.2654 96.4457C35.797 93.6046 31.6479 91.7701 27.8877 89.3835C25.6349 88.0035 23.8359 85.8443 23.2686 83.2305C22.1665 79.6101 25.4566 76.6878 25.5052 73.1323C28.5198 70.4373 32.1503 68.619 35.8132 66.9792C37.7905 66.0701 40.092 64.1219 39.3464 61.6866C37.8391 59.4624 35.327 58.1799 33.1228 56.735C28.0174 54.0075 22.0693 55.7609 16.6073 55.631C14.549 55.6472 12.5393 53.9588 12.5879 51.832C14.3221 48.4551 17.8877 46.442 19.4761 42.9677C20.2378 41.1656 18.6171 39.2661 19.2978 37.4478ZM83.1715 117.405C75.0191 120.652 66.1698 121.724 57.434 121.269C57.045 120.766 56.656 120.246 56.2509 119.743C59.0872 118.022 62.3287 118.866 65.3919 119.061C66.7695 118.184 66.8344 116.269 67.7744 115.019C69.1844 115.295 70.4 116.09 71.7452 116.512C73.8522 115.847 75.1812 113.833 77.1261 112.859C79.1358 111.723 81.5346 112.259 83.6577 112.665C83.4957 114.239 83.3336 115.83 83.1715 117.405ZM98.4714 17.0729C100.903 18.0307 102.539 20.2387 104.42 21.9596C117.904 35.3697 123.917 55.7609 119.752 74.3499C117.612 74.0739 115.327 73.7817 113.317 74.8045C111.162 75.8435 108.941 76.915 106.494 76.8826C104.776 77.0612 102.88 76.3631 101.34 77.3209C98.5686 79.5289 98.4065 83.8474 95.2785 85.6982C93.2364 86.445 91.5184 84.5942 90.2056 83.2954C86.2185 78.7496 82.1504 73.6843 81.259 67.515C80.7242 65.1122 83.0094 63.5212 84.7598 62.401C89.8976 59.1215 96.1861 59.089 101.859 57.3519C103.609 56.8973 105.343 55.4199 105.246 53.4555C105.197 52.1405 103.933 51.3612 102.896 50.8254C100.578 49.7701 97.7907 49.7377 95.862 47.9194C93.2688 45.6789 89.8652 44.234 87.9365 41.3117C88.6334 39.3148 90.6756 37.3504 89.5735 35.1262C87.5151 31.035 81.648 30.5966 80.0435 26.1807C79.152 23.5831 81.9235 21.9434 83.7712 20.8069C88.2607 18.4853 93.3012 16.2124 98.4714 17.0729ZM38.5199 7.98128C46.3157 4.83169 54.7922 3.33807 63.1877 3.71147C63.0418 5.43238 63.0418 7.34811 61.8424 8.72809C60.4648 10.4815 57.9202 10.9685 55.8781 10.2217C54.3222 9.42619 53.3497 7.88387 52.0369 6.79612C51.5831 9.13396 50.951 11.5692 49.0223 13.1602C47.1747 12.04 46.2346 9.96195 44.4842 8.77679C41.2103 9.39372 38.763 12.0887 35.4404 12.657C35.3756 10.6438 36.6398 8.69562 38.5199 7.98128Z" fill="#004AAD"/>
</svg>
