<svg width="109" height="111" viewBox="0 0 109 111" fill="none" xmlns="http://www.w3.org/2000/svg">
<path d="M91.6953 14.9378C79.6091 3.41433 62.2515 -1.79964 45.876 0.553733C28.7989 2.70423 13.3454 14.0654 5.70881 29.6261C-4.97436 50.6644 -0.244069 78.2964 16.392 94.7903C29.2599 108.241 49.3435 113.942 67.2623 109.418C79.9298 106.273 91.2544 98.1783 98.5703 87.2635C105.646 77.3225 109.354 64.9673 108.913 52.6932C108.572 38.431 102.018 24.5744 91.6953 14.9378ZM98.0291 80.3048C88.9293 96.9002 70.329 107.815 51.5282 106.922C32.0861 106.253 13.8665 92.9847 6.87137 74.6243C1.57989 61.5387 2.00075 46.2417 8.13406 33.5213C13.3253 22.221 23.2469 13.6393 34.5313 8.93258C32.3466 15.1001 29.5405 21.3081 29.7409 28.003C29.9414 30.4376 30.4024 33.5822 32.9479 34.6371C37.9588 32.8518 40.4442 27.3741 42.4486 22.7688C43.4507 26.9278 44.8137 31.452 48.4415 34.0285C49.7844 35.1038 51.9492 35.5907 53.2119 34.1299C56.499 30.9042 56.3587 25.812 55.5169 21.6124C58.0424 24.473 61.4297 27.8002 65.5787 26.9684C68.4449 25.8526 69.1064 22.4442 68.946 19.6851C71.0306 20.1314 73.4558 20.8415 75.3399 19.4213C77.8653 17.494 78.627 14.1465 78.4867 11.0831C86.945 15.871 94.3411 22.7891 98.9511 31.5128C107.269 46.4243 106.227 65.5759 98.0291 80.3048Z" fill="#004AAD"/>
<path d="M78.9868 37.0922C76.8823 37.9646 74.7977 39.9933 75.0984 42.4887C75.399 45.9376 77.2631 49.6908 80.7106 50.827C82.9956 51.5979 85.4208 50.3198 86.904 48.575C88.6478 46.5057 90.2713 43.9697 90.1511 41.1294C88.267 36.9299 83.0757 35.3677 78.9868 37.0922Z" fill="#004AAD"/>
<path d="M65.9395 45.4714C63.2136 48.048 64.1757 52.3895 61.8306 55.1893C60.8484 56.3457 59.5656 57.4006 58.0624 57.7252C54.9356 56.9949 53.733 53.7082 52.2498 51.2128C51.6485 51.2534 50.4659 51.3143 49.8646 51.3549C49.143 56.4471 51.9692 62.1074 56.8598 63.8724C60.3474 64.9477 63.835 62.7566 65.8794 59.9974C68.2245 56.9137 70.309 53.0996 70.0284 49.1232C69.1464 47.5813 67.984 45.2077 65.9395 45.4714Z" fill="#004AAD"/>
<path d="M30.9436 48.5752C26.3537 51.4155 27.1755 58.8002 31.4247 61.539C33.0683 62.4114 35.4334 62.594 36.8364 61.1536C39.1414 59.064 41.1458 56.0411 40.6647 52.7748C39.5423 48.6969 34.6116 46.9116 30.9436 48.5752Z" fill="#004AAD"/>
<path d="M31.9859 92.579C32.0059 88.7649 31.9458 84.4639 29.4805 81.3193C30.5227 85.032 31.1842 88.8055 31.9859 92.579Z" fill="#004AAD"/>
<path d="M24.8103 85.8239C24.0687 82.3749 22.7859 78.9869 20.541 76.248C21.1223 79.7578 22.6857 83.0242 24.8103 85.8239Z" fill="#004AAD"/>
<path d="M17.6953 80.7114C16.3925 77.0799 16.0117 73.2455 15.9515 69.4111C14.1677 73.2049 14.9293 77.6277 17.6953 80.7114Z" fill="#004AAD"/>
<path d="M13.0245 77.019C12.2027 72.3122 12.784 67.5446 12.3431 62.8379C10.2986 67.3012 10.1784 72.86 13.0245 77.019Z" fill="#004AAD"/>
</svg>
