<svg width="116" height="146" viewBox="0 0 116 146" fill="none" xmlns="http://www.w3.org/2000/svg">
<path d="M1.6114 133.446C-1.37647 136.663 0.193123 141.858 3.04862 144.598C4.31563 146.121 6.94419 146.52 8.24902 144.827C9.74296 142.905 11.0099 140.735 11.7664 138.394C12.3904 136.739 11.3882 135.178 10.6506 133.77C19.463 126.063 29.6179 120.011 40.1511 115.025C52.008 109.468 64.7159 106.081 77.4995 103.511C86.6522 101.646 95.994 101.209 105.26 100.352C103.785 102.522 102.443 104.863 102.197 107.527C104.258 107.222 106.508 107.146 108.343 105.966C111.538 103.892 114.791 101.38 115.945 97.5358C114.11 95.5947 112.654 93.292 110.404 91.7886C108.078 90.2471 106.054 88.306 103.71 86.8026C102.443 85.9082 100.93 86.8026 99.6059 86.9739C100.419 90.9512 103.634 93.5394 106.508 96.0705C95.9373 97.2503 85.2906 98.0116 74.8898 100.295C62.163 103.074 49.5308 106.747 37.844 112.627C27.4432 117.956 17.4774 124.388 9.25128 132.78C6.79291 132.057 3.67265 131.562 1.6114 133.446Z" fill="#004AAD"/>
<path d="M63.2595 0.252154C57.4729 0.8421 52.6129 4.28663 47.3747 6.49417C42.7227 9.04426 37.1062 11.0425 34.5911 16.1046C31.6789 21.6425 30.9225 28.0367 30.6577 34.2026C30.4119 42.0622 33.9103 49.2938 37.5979 55.9926C44.1977 66.9732 53.7475 75.613 62.4085 84.8809C64.0159 86.4033 65.6045 88.1351 67.7035 88.9915C70.7292 89.334 73.8116 89.0105 76.8752 89.334C78.4258 88.7631 80.1656 88.2303 80.8653 86.5366C84.7987 79.2859 87.5407 71.4073 89.791 63.4906C92.4196 53.3854 95.6534 43.3182 96.145 32.8324C96.4665 27.3707 95.7668 21.7566 93.5164 16.7706C91.2282 11.5373 87.0679 7.23636 82.1512 4.4579C76.478 1.20369 69.8215 -0.718403 63.2595 0.252154ZM67.5522 85.9466C62.0492 81.2461 57.6242 75.4418 52.5183 70.3416C44.7839 62.0633 37.4655 52.7954 34.4209 41.6626C32.719 34.3929 33.778 26.6475 36.1607 19.6443C37.4656 15.5717 41.0396 13.0216 44.5381 10.9283C40.9073 15.3624 37.9005 20.4245 36.5956 26.0766C35.0828 32.9466 36.4254 40.2733 39.7159 46.4392C41.8906 50.5118 44.3679 54.413 46.8262 58.3333C50.7786 64.4041 54.8632 70.5699 60.4229 75.3276C64.9237 79.1717 69.6135 82.8256 74.4735 86.213C72.1664 86.0608 69.8593 85.9276 67.5522 85.9466ZM79.6739 6.11356C85.1769 8.66365 89.8856 13.231 92.0603 18.9782C93.9514 23.7739 94.4052 29.0453 93.8947 34.1455C92.968 44.8026 89.4885 54.9839 86.633 65.2414C84.1746 72.6062 81.6784 80.1233 77.4614 86.6888C72.8094 82.8066 68.5545 78.4486 64.1294 74.3189C55.9411 66.7258 50.5516 56.7918 44.765 47.3908C41.5691 42.2335 39.47 36.1628 39.9806 29.9969C40.529 23.5075 43.9897 17.608 48.3202 12.9075C52.386 8.54947 57.4162 4.68626 63.373 3.54443C68.8949 2.30745 74.6437 3.75377 79.6739 6.11356Z" fill="#004AAD"/>
<path d="M53.8235 26.5707C51.1949 35.0773 56.3386 44.9922 64.6782 47.8468C69.7084 49.6928 75.6274 48.5129 79.6175 44.9351C85.6878 39.3402 87.2763 29.2159 82.681 22.2317C79.0502 16.8461 72.0722 14.1057 65.775 15.552C60.1397 16.5987 55.2607 20.9377 53.8235 26.5707ZM81.3194 26.3233C83.5698 31.6138 82.057 37.8939 78.2749 42.0806C79.504 36.714 80.6387 30.4529 77.2726 25.6192C75.4572 22.2127 71.9966 20.3287 68.8952 18.3305C74.0011 18.673 79.1636 21.4705 81.3194 26.3233Z" fill="#004AAD"/>
<path d="M27.0843 97.2701C30.1856 99.1922 33.703 101 37.4662 100.715C38.9791 99.4206 39.3762 97.3272 39.9813 95.5193C41.097 90.9901 42.156 86.4418 42.6666 81.8173C42.8936 79.1721 42.799 75.975 40.5486 74.1861C39.0925 72.8349 36.653 73.4439 35.594 74.9854C33.7975 77.3642 33.0033 80.2949 32.1145 83.0924C28.7295 80.6755 24.2288 79.0389 20.1442 80.5804C17.9127 81.2655 17.3832 83.9488 17.9694 85.947C19.2742 90.7998 22.9618 94.6249 27.0843 97.2701ZM32.5683 85.8708C34.119 82.3692 36.3694 79.1911 39.0736 76.4888C40.2839 80.352 38.9412 84.2913 38.1092 88.0784C37.3717 91.1233 36.5396 94.1682 35.613 97.1559C28.8241 95.7857 21.8082 91.0281 20.4656 83.7775C24.5503 82.1028 29.0699 83.492 32.5683 85.8708Z" fill="#004AAD"/>
</svg>
