<svg width="344" height="885" viewBox="0 0 344 885" fill="none" xmlns="http://www.w3.org/2000/svg">
<path d="M-358.483 597.074C-358.483 597.074 -344.901 694.025 -321.619 754.962C-304.728 799.174 -229.414 850.111 -187.187 871.633C-138.402 896.497 -78.4402 881.269 -20.9097 855.567C5.31701 843.851 65.9736 816.727 132.574 739.986C149.071 720.977 254.236 704.125 255.384 598.481C256.021 539.789 249.52 486.011 250.83 446.416C252.139 406.822 323.677 307.835 339.843 247.81C356.01 187.784 312.628 70.5238 256.888 22.1482C201.148 -26.2274 116.184 13.7145 79.8928 55.5303C12.9894 132.619 -70.1202 223.413 -102.823 256.128C-135.526 288.842 -192.194 304.46 -247.998 335.64C-303.801 366.82 -303.852 383.439 -339.646 441.241C-375.44 499.044 -358.483 597.074 -358.483 597.074Z" fill="#004AAD" fill-opacity="0.05"/>
</svg>
