<svg width="589" height="653" viewBox="0 0 589 653" fill="none" xmlns="http://www.w3.org/2000/svg">
<path d="M834.451 597.818C834.451 597.818 920.321 540.054 967.47 489.732C1001.68 453.222 1015.25 358.07 1016.17 307.976C1017.24 250.103 975.019 200.154 923.973 157.362C900.703 137.854 846.859 92.7482 743.104 64.948C717.404 58.0621 652.731 -34.1007 551.785 13.6841C495.704 40.2314 447.595 71.2909 409.354 88.3646C371.114 105.438 243.93 83.2373 179.396 95.6414C114.863 108.046 23.4764 203.53 3.28323 278.892C-16.91 354.254 60.3631 416.534 116.899 431.683C221.125 459.61 345.876 496.6 392.1 512.55C438.325 528.499 479.388 575.136 534.842 613.752C590.296 652.369 606.115 644.728 677.617 652.009C749.118 659.289 834.451 597.818 834.451 597.818Z" fill="#004AAD" fill-opacity="0.05"/>
</svg>
