<svg width="646" height="367" viewBox="0 0 646 367" fill="none" xmlns="http://www.w3.org/2000/svg">
<path d="M578.998 19.015C603.457 19.015 627.064 28.6951 635.241 46.56C667.122 116.22 614.718 134.19 600.041 200.445C585.363 266.7 647.845 268.372 578.998 320.381C514.774 368.896 298.949 333.634 270.249 328.679C268.151 328.316 266.068 328.682 264.202 329.707L200.029 364.981C194.841 367.833 188.345 365.152 186.678 359.47L180.045 336.854C178.623 332.006 173.606 329.168 168.702 330.38C147.869 335.53 94.5929 347.469 59.7042 344.368C15.5437 340.443 8.80904 317.332 5.40401 297.604C-2.05368 254.397 31.7883 213.82 17.4077 168.821L17.3914 168.771C6.23798 133.87 -9.39066 84.9588 7.30647 44.2774C14.2286 27.4121 36.868 19.015 59.7042 19.015C59.7042 19.015 229.928 -8.79584e-06 322.05 0C414.172 8.79584e-06 578.998 19.015 578.998 19.015Z" fill="#FFFDF1"/>
</svg>
